G04 #@! TF.FileFunction,Legend,Bot*
%FSLAX46Y46*%
G04 Gerber Fmt 4.6, Leading zero omitted, Abs format (unit mm)*
G04 Created by KiCad (PCBNEW 0.201506172246+5766~23~ubuntu14.04.1-product) date Do 09 Jul 2015 22:59:30 CEST*
%MOMM*%
G01*
G04 APERTURE LIST*
%ADD10C,0.100000*%
%ADD11C,0.150000*%
%ADD12C,4.064000*%
%ADD13R,2.032000X1.727200*%
%ADD14O,2.032000X1.727200*%
%ADD15R,1.727200X1.727200*%
%ADD16O,1.727200X1.727200*%
%ADD17R,2.032000X2.032000*%
%ADD18O,2.032000X2.032000*%
%ADD19R,1.727200X2.032000*%
%ADD20O,1.727200X2.032000*%
%ADD21C,1.998980*%
%ADD22R,1.200000X1.200000*%
%ADD23C,1.200000*%
%ADD24O,1.600000X1.600000*%
G04 APERTURE END LIST*
D10*
D11*
X41402000Y29210000D02*
X41402000Y34290000D01*
X41402000Y34290000D02*
X38862000Y34290000D01*
X38862000Y34290000D02*
X38862000Y29210000D01*
X38862000Y29210000D02*
X41402000Y29210000D01*
X40132000Y29210000D02*
X40132000Y27940000D01*
X40132000Y34290000D02*
X40132000Y35560000D01*
X35941000Y34290000D02*
X35941000Y29210000D01*
X35941000Y29210000D02*
X38481000Y29210000D01*
X38481000Y29210000D02*
X38481000Y34290000D01*
X38481000Y34290000D02*
X35941000Y34290000D01*
X37211000Y34290000D02*
X37211000Y35560000D01*
X37211000Y29210000D02*
X37211000Y27940000D01*
X30099000Y34290000D02*
X30099000Y29210000D01*
X30099000Y29210000D02*
X32639000Y29210000D01*
X32639000Y29210000D02*
X32639000Y34290000D01*
X32639000Y34290000D02*
X30099000Y34290000D01*
X31369000Y34290000D02*
X31369000Y35560000D01*
X31369000Y29210000D02*
X31369000Y27940000D01*
X35560000Y29210000D02*
X35560000Y34290000D01*
X35560000Y34290000D02*
X33020000Y34290000D01*
X33020000Y34290000D02*
X33020000Y29210000D01*
X33020000Y29210000D02*
X35560000Y29210000D01*
X34290000Y29210000D02*
X34290000Y27940000D01*
X34290000Y34290000D02*
X34290000Y35560000D01*
X40584381Y31916666D02*
X40108190Y32250000D01*
X40584381Y32488095D02*
X39584381Y32488095D01*
X39584381Y32107142D01*
X39632000Y32011904D01*
X39679619Y31964285D01*
X39774857Y31916666D01*
X39917714Y31916666D01*
X40012952Y31964285D01*
X40060571Y32011904D01*
X40108190Y32107142D01*
X40108190Y32488095D01*
X39679619Y31535714D02*
X39632000Y31488095D01*
X39584381Y31392857D01*
X39584381Y31154761D01*
X39632000Y31059523D01*
X39679619Y31011904D01*
X39774857Y30964285D01*
X39870095Y30964285D01*
X40012952Y31011904D01*
X40584381Y31583333D01*
X40584381Y30964285D01*
X37663381Y31916666D02*
X37187190Y32250000D01*
X37663381Y32488095D02*
X36663381Y32488095D01*
X36663381Y32107142D01*
X36711000Y32011904D01*
X36758619Y31964285D01*
X36853857Y31916666D01*
X36996714Y31916666D01*
X37091952Y31964285D01*
X37139571Y32011904D01*
X37187190Y32107142D01*
X37187190Y32488095D01*
X36663381Y31583333D02*
X36663381Y30964285D01*
X37044333Y31297619D01*
X37044333Y31154761D01*
X37091952Y31059523D01*
X37139571Y31011904D01*
X37234810Y30964285D01*
X37472905Y30964285D01*
X37568143Y31011904D01*
X37615762Y31059523D01*
X37663381Y31154761D01*
X37663381Y31440476D01*
X37615762Y31535714D01*
X37568143Y31583333D01*
X31821381Y31916666D02*
X31345190Y32250000D01*
X31821381Y32488095D02*
X30821381Y32488095D01*
X30821381Y32107142D01*
X30869000Y32011904D01*
X30916619Y31964285D01*
X31011857Y31916666D01*
X31154714Y31916666D01*
X31249952Y31964285D01*
X31297571Y32011904D01*
X31345190Y32107142D01*
X31345190Y32488095D01*
X31154714Y31059523D02*
X31821381Y31059523D01*
X30773762Y31297619D02*
X31488048Y31535714D01*
X31488048Y30916666D01*
X34742381Y31916666D02*
X34266190Y32250000D01*
X34742381Y32488095D02*
X33742381Y32488095D01*
X33742381Y32107142D01*
X33790000Y32011904D01*
X33837619Y31964285D01*
X33932857Y31916666D01*
X34075714Y31916666D01*
X34170952Y31964285D01*
X34218571Y32011904D01*
X34266190Y32107142D01*
X34266190Y32488095D01*
X33742381Y31011904D02*
X33742381Y31488095D01*
X34218571Y31535714D01*
X34170952Y31488095D01*
X34123333Y31392857D01*
X34123333Y31154761D01*
X34170952Y31059523D01*
X34218571Y31011904D01*
X34313810Y30964285D01*
X34551905Y30964285D01*
X34647143Y31011904D01*
X34694762Y31059523D01*
X34742381Y31154761D01*
X34742381Y31392857D01*
X34694762Y31488095D01*
X34647143Y31535714D01*
%LPC*%
D12*
X26035000Y30734000D03*
D13*
X78740000Y12700000D03*
D14*
X78740000Y15240000D03*
X78740000Y17780000D03*
X78740000Y20320000D03*
X78740000Y22860000D03*
X78740000Y25400000D03*
X78740000Y27940000D03*
X78740000Y30480000D03*
X78740000Y33020000D03*
X78740000Y35560000D03*
X78740000Y38100000D03*
X78740000Y40640000D03*
D15*
X83820000Y12700000D03*
D16*
X81280000Y12700000D03*
X83820000Y15240000D03*
X81280000Y15240000D03*
X83820000Y17780000D03*
X81280000Y17780000D03*
X83820000Y20320000D03*
X81280000Y20320000D03*
X83820000Y22860000D03*
X81280000Y22860000D03*
X83820000Y25400000D03*
X81280000Y25400000D03*
X83820000Y27940000D03*
X81280000Y27940000D03*
X83820000Y30480000D03*
X81280000Y30480000D03*
X83820000Y33020000D03*
X81280000Y33020000D03*
X83820000Y35560000D03*
X81280000Y35560000D03*
X83820000Y38100000D03*
X81280000Y38100000D03*
X83820000Y40640000D03*
X81280000Y40640000D03*
D17*
X25400000Y36830000D03*
D18*
X22860000Y36830000D03*
D19*
X24765000Y19050000D03*
D20*
X27305000Y19050000D03*
X29845000Y19050000D03*
X32385000Y19050000D03*
X34925000Y19050000D03*
X37465000Y19050000D03*
X40005000Y19050000D03*
X42545000Y19050000D03*
X45085000Y19050000D03*
X47625000Y19050000D03*
D19*
X55245000Y19050000D03*
D20*
X57785000Y19050000D03*
X60325000Y19050000D03*
X62865000Y19050000D03*
X65405000Y19050000D03*
X67945000Y19050000D03*
X70485000Y19050000D03*
D15*
X19685000Y50165000D03*
D16*
X19685000Y52705000D03*
X22225000Y50165000D03*
X22225000Y52705000D03*
X24765000Y50165000D03*
X24765000Y52705000D03*
X27305000Y50165000D03*
X27305000Y52705000D03*
X29845000Y50165000D03*
X29845000Y52705000D03*
X32385000Y50165000D03*
X32385000Y52705000D03*
X34925000Y50165000D03*
X34925000Y52705000D03*
X37465000Y50165000D03*
X37465000Y52705000D03*
X40005000Y50165000D03*
X40005000Y52705000D03*
X42545000Y50165000D03*
X42545000Y52705000D03*
X45085000Y50165000D03*
X45085000Y52705000D03*
X47625000Y50165000D03*
X47625000Y52705000D03*
X50165000Y50165000D03*
X50165000Y52705000D03*
X52705000Y50165000D03*
X52705000Y52705000D03*
X55245000Y50165000D03*
X55245000Y52705000D03*
X57785000Y50165000D03*
X57785000Y52705000D03*
X60325000Y50165000D03*
X60325000Y52705000D03*
X62865000Y50165000D03*
X62865000Y52705000D03*
X65405000Y50165000D03*
X65405000Y52705000D03*
X67945000Y50165000D03*
X67945000Y52705000D03*
X70485000Y50165000D03*
X70485000Y52705000D03*
X73025000Y50165000D03*
X73025000Y52705000D03*
X75565000Y50165000D03*
X75565000Y52705000D03*
D15*
X19685000Y1905000D03*
D16*
X19685000Y4445000D03*
X22225000Y1905000D03*
X22225000Y4445000D03*
X24765000Y1905000D03*
X24765000Y4445000D03*
X27305000Y1905000D03*
X27305000Y4445000D03*
X29845000Y1905000D03*
X29845000Y4445000D03*
X32385000Y1905000D03*
X32385000Y4445000D03*
X34925000Y1905000D03*
X34925000Y4445000D03*
X37465000Y1905000D03*
X37465000Y4445000D03*
X40005000Y1905000D03*
X40005000Y4445000D03*
X42545000Y1905000D03*
X42545000Y4445000D03*
X45085000Y1905000D03*
X45085000Y4445000D03*
X47625000Y1905000D03*
X47625000Y4445000D03*
X50165000Y1905000D03*
X50165000Y4445000D03*
X52705000Y1905000D03*
X52705000Y4445000D03*
X55245000Y1905000D03*
X55245000Y4445000D03*
X57785000Y1905000D03*
X57785000Y4445000D03*
X60325000Y1905000D03*
X60325000Y4445000D03*
X62865000Y1905000D03*
X62865000Y4445000D03*
X65405000Y1905000D03*
X65405000Y4445000D03*
X67945000Y1905000D03*
X67945000Y4445000D03*
X70485000Y1905000D03*
X70485000Y4445000D03*
X73025000Y1905000D03*
X73025000Y4445000D03*
X75565000Y1905000D03*
X75565000Y4445000D03*
D17*
X12065000Y4445000D03*
D18*
X12065000Y1905000D03*
D19*
X70485000Y10160000D03*
D20*
X67945000Y10160000D03*
X65405000Y10160000D03*
X62865000Y10160000D03*
X60325000Y10160000D03*
X57785000Y10160000D03*
X55245000Y10160000D03*
D17*
X66675000Y36830000D03*
D18*
X66675000Y39370000D03*
D17*
X62865000Y36830000D03*
D18*
X62865000Y39370000D03*
D21*
X62865000Y44450000D03*
X73025000Y44450000D03*
D22*
X59436000Y44450000D03*
D23*
X56936000Y44450000D03*
D22*
X59436000Y36830000D03*
D23*
X56936000Y36830000D03*
D19*
X34925000Y10160000D03*
D20*
X32385000Y10160000D03*
X29845000Y10160000D03*
X27305000Y10160000D03*
X24765000Y10160000D03*
D19*
X50165000Y10160000D03*
D20*
X47625000Y10160000D03*
X45085000Y10160000D03*
X42545000Y10160000D03*
X40005000Y10160000D03*
D12*
X69215000Y28067000D03*
X46482000Y30734000D03*
D13*
X8636000Y50165000D03*
D14*
X8636000Y47625000D03*
X8636000Y45085000D03*
D13*
X2921000Y15240000D03*
D14*
X2921000Y12700000D03*
X2921000Y10160000D03*
D13*
X78740000Y49530000D03*
D14*
X78740000Y46990000D03*
X78740000Y44450000D03*
D19*
X40132000Y44450000D03*
D20*
X37592000Y44450000D03*
X35052000Y44450000D03*
X32512000Y44450000D03*
X29972000Y44450000D03*
D19*
X19685000Y10160000D03*
D20*
X17145000Y10160000D03*
X14605000Y10160000D03*
X12065000Y10160000D03*
D21*
X40132000Y26670000D03*
X40132000Y36830000D03*
X37211000Y36830000D03*
X37211000Y26670000D03*
X31369000Y36830000D03*
X31369000Y26670000D03*
X34290000Y26670000D03*
X34290000Y36830000D03*
D24*
X45085000Y36830000D03*
X47625000Y36830000D03*
X50165000Y36830000D03*
X52705000Y36830000D03*
X52705000Y44450000D03*
X50165000Y44450000D03*
X47625000Y44450000D03*
X45085000Y44450000D03*
D19*
X25400000Y44450000D03*
D20*
X22860000Y44450000D03*
X20320000Y44450000D03*
X17780000Y44450000D03*
M02*
