G04 #@! TF.FileFunction,Copper,L2,Bot,Signal*
%FSLAX46Y46*%
G04 Gerber Fmt 4.6, Leading zero omitted, Abs format (unit mm)*
G04 Created by KiCad (PCBNEW 0.201601051410+6422~40~ubuntu14.04.1-stable) date Mo 18 Jan 2016 21:21:09 CET*
%MOMM*%
G01*
G04 APERTURE LIST*
%ADD10C,0.100000*%
%ADD11C,4.064000*%
%ADD12R,2.032000X1.727200*%
%ADD13O,2.032000X1.727200*%
%ADD14R,1.727200X1.727200*%
%ADD15O,1.727200X1.727200*%
%ADD16R,2.032000X2.032000*%
%ADD17O,2.032000X2.032000*%
%ADD18R,1.727200X2.032000*%
%ADD19O,1.727200X2.032000*%
%ADD20C,1.998980*%
%ADD21R,1.200000X1.200000*%
%ADD22C,1.200000*%
%ADD23O,1.600000X1.600000*%
%ADD24C,0.700000*%
%ADD25C,0.300000*%
%ADD26C,0.762000*%
%ADD27C,0.254000*%
G04 APERTURE END LIST*
D10*
D11*
X26035000Y30734000D03*
D12*
X78740000Y12700000D03*
D13*
X78740000Y15240000D03*
X78740000Y17780000D03*
X78740000Y20320000D03*
X78740000Y22860000D03*
X78740000Y25400000D03*
X78740000Y27940000D03*
X78740000Y30480000D03*
X78740000Y33020000D03*
X78740000Y35560000D03*
X78740000Y38100000D03*
X78740000Y40640000D03*
D14*
X83820000Y12700000D03*
D15*
X81280000Y12700000D03*
X83820000Y15240000D03*
X81280000Y15240000D03*
X83820000Y17780000D03*
X81280000Y17780000D03*
X83820000Y20320000D03*
X81280000Y20320000D03*
X83820000Y22860000D03*
X81280000Y22860000D03*
X83820000Y25400000D03*
X81280000Y25400000D03*
X83820000Y27940000D03*
X81280000Y27940000D03*
X83820000Y30480000D03*
X81280000Y30480000D03*
X83820000Y33020000D03*
X81280000Y33020000D03*
X83820000Y35560000D03*
X81280000Y35560000D03*
X83820000Y38100000D03*
X81280000Y38100000D03*
X83820000Y40640000D03*
X81280000Y40640000D03*
D16*
X70460000Y41910000D03*
D17*
X70460000Y44450000D03*
D18*
X24765000Y19050000D03*
D19*
X27305000Y19050000D03*
X29845000Y19050000D03*
X32385000Y19050000D03*
X34925000Y19050000D03*
X37465000Y19050000D03*
X40005000Y19050000D03*
X42545000Y19050000D03*
X45085000Y19050000D03*
X47625000Y19050000D03*
D18*
X55245000Y19050000D03*
D19*
X57785000Y19050000D03*
X60325000Y19050000D03*
X62865000Y19050000D03*
X65405000Y19050000D03*
X67945000Y19050000D03*
X70485000Y19050000D03*
D14*
X19685000Y50165000D03*
D15*
X19685000Y52705000D03*
X22225000Y50165000D03*
X22225000Y52705000D03*
X24765000Y50165000D03*
X24765000Y52705000D03*
X27305000Y50165000D03*
X27305000Y52705000D03*
X29845000Y50165000D03*
X29845000Y52705000D03*
X32385000Y50165000D03*
X32385000Y52705000D03*
X34925000Y50165000D03*
X34925000Y52705000D03*
X37465000Y50165000D03*
X37465000Y52705000D03*
X40005000Y50165000D03*
X40005000Y52705000D03*
X42545000Y50165000D03*
X42545000Y52705000D03*
X45085000Y50165000D03*
X45085000Y52705000D03*
X47625000Y50165000D03*
X47625000Y52705000D03*
X50165000Y50165000D03*
X50165000Y52705000D03*
X52705000Y50165000D03*
X52705000Y52705000D03*
X55245000Y50165000D03*
X55245000Y52705000D03*
X57785000Y50165000D03*
X57785000Y52705000D03*
X60325000Y50165000D03*
X60325000Y52705000D03*
X62865000Y50165000D03*
X62865000Y52705000D03*
X65405000Y50165000D03*
X65405000Y52705000D03*
X67945000Y50165000D03*
X67945000Y52705000D03*
X70485000Y50165000D03*
X70485000Y52705000D03*
X73025000Y50165000D03*
X73025000Y52705000D03*
X75565000Y50165000D03*
X75565000Y52705000D03*
D14*
X19685000Y1905000D03*
D15*
X19685000Y4445000D03*
X22225000Y1905000D03*
X22225000Y4445000D03*
X24765000Y1905000D03*
X24765000Y4445000D03*
X27305000Y1905000D03*
X27305000Y4445000D03*
X29845000Y1905000D03*
X29845000Y4445000D03*
X32385000Y1905000D03*
X32385000Y4445000D03*
X34925000Y1905000D03*
X34925000Y4445000D03*
X37465000Y1905000D03*
X37465000Y4445000D03*
X40005000Y1905000D03*
X40005000Y4445000D03*
X42545000Y1905000D03*
X42545000Y4445000D03*
X45085000Y1905000D03*
X45085000Y4445000D03*
X47625000Y1905000D03*
X47625000Y4445000D03*
X50165000Y1905000D03*
X50165000Y4445000D03*
X52705000Y1905000D03*
X52705000Y4445000D03*
X55245000Y1905000D03*
X55245000Y4445000D03*
X57785000Y1905000D03*
X57785000Y4445000D03*
X60325000Y1905000D03*
X60325000Y4445000D03*
X62865000Y1905000D03*
X62865000Y4445000D03*
X65405000Y1905000D03*
X65405000Y4445000D03*
X67945000Y1905000D03*
X67945000Y4445000D03*
X70485000Y1905000D03*
X70485000Y4445000D03*
X73025000Y1905000D03*
X73025000Y4445000D03*
X75565000Y1905000D03*
X75565000Y4445000D03*
D16*
X12065000Y4445000D03*
D17*
X12065000Y1905000D03*
D18*
X70485000Y10160000D03*
D19*
X67945000Y10160000D03*
X65405000Y10160000D03*
X62865000Y10160000D03*
X60325000Y10160000D03*
X57785000Y10160000D03*
X55245000Y10160000D03*
D16*
X67920000Y41910000D03*
D17*
X67920000Y44450000D03*
D16*
X65380000Y41910000D03*
D17*
X65380000Y44450000D03*
D20*
X62865000Y23368000D03*
X62865000Y33528000D03*
D21*
X56947000Y39319200D03*
D22*
X56947000Y36819200D03*
D21*
X56947000Y41960800D03*
D22*
X56947000Y44460800D03*
D18*
X19685000Y10160000D03*
D19*
X17145000Y10160000D03*
X14605000Y10160000D03*
X12065000Y10160000D03*
X9525000Y10160000D03*
D18*
X47625000Y10160000D03*
D19*
X45085000Y10160000D03*
X42545000Y10160000D03*
X40005000Y10160000D03*
X37465000Y10160000D03*
D11*
X69215000Y28067000D03*
X46482000Y30734000D03*
D12*
X8636000Y49530000D03*
D13*
X8636000Y46990000D03*
X8636000Y44450000D03*
D12*
X2921000Y15240000D03*
D13*
X2921000Y12700000D03*
X2921000Y10160000D03*
D12*
X78740000Y49530000D03*
D13*
X78740000Y46990000D03*
X78740000Y44450000D03*
D18*
X40005000Y44450000D03*
D19*
X37465000Y44450000D03*
X34925000Y44450000D03*
X32385000Y44450000D03*
X29845000Y44450000D03*
D18*
X32385000Y10160000D03*
D19*
X29845000Y10160000D03*
X27305000Y10160000D03*
X24765000Y10160000D03*
D20*
X40005000Y26670000D03*
X40005000Y36830000D03*
X37465000Y36830000D03*
X37465000Y26670000D03*
X32385000Y36830000D03*
X32385000Y26670000D03*
X34925000Y26670000D03*
X34925000Y36830000D03*
D23*
X45085000Y36830000D03*
X47625000Y36830000D03*
X50165000Y36830000D03*
X52705000Y36830000D03*
X52705000Y44450000D03*
X50165000Y44450000D03*
X47625000Y44450000D03*
X45085000Y44450000D03*
D18*
X24765000Y44450000D03*
D19*
X22225000Y44450000D03*
X19685000Y44450000D03*
X17145000Y44450000D03*
D18*
X19685000Y13716000D03*
D19*
X17145000Y13716000D03*
X14605000Y13716000D03*
X12065000Y13716000D03*
X9525000Y13716000D03*
D18*
X70460000Y36830000D03*
D19*
X67920000Y36830000D03*
X65380000Y36830000D03*
D20*
X52705000Y33528000D03*
X52705000Y23368000D03*
X55245000Y23368000D03*
X55245000Y33528000D03*
X57785000Y23368000D03*
X57785000Y33528000D03*
X60325000Y33528000D03*
X60325000Y23368000D03*
D24*
X60577800Y41881200D03*
X62765800Y47179800D03*
D22*
X28918100Y35421500D03*
X53135000Y12748400D03*
D24*
X63667100Y11614200D03*
X62865000Y16853200D03*
X65691200Y32396800D03*
X59055000Y15644200D03*
X59057000Y20028900D03*
X29033100Y22997000D03*
X61231300Y20607900D03*
D25*
X52705000Y52705000D02*
X52705000Y51437100D01*
X60577800Y43015200D02*
X60577800Y41881200D01*
X53972900Y49620100D02*
X60577800Y43015200D01*
X53972900Y50724000D02*
X53972900Y49620100D01*
X53259800Y51437100D02*
X53972900Y50724000D01*
X52705000Y51437100D02*
X53259800Y51437100D01*
X78740000Y15240000D02*
X78740000Y16507900D01*
X52705000Y47309300D02*
X52705000Y50165000D01*
X54059400Y45954900D02*
X52705000Y47309300D01*
X54059400Y38275300D02*
X54059400Y45954900D01*
X56552900Y35781800D02*
X54059400Y38275300D01*
X62603400Y35781800D02*
X56552900Y35781800D01*
X64928200Y33457000D02*
X62603400Y35781800D01*
X64928200Y24748300D02*
X64928200Y33457000D01*
X68248300Y21428200D02*
X64928200Y24748300D01*
X72551800Y21428200D02*
X68248300Y21428200D01*
X77472100Y16507900D02*
X72551800Y21428200D01*
X78740000Y16507900D02*
X77472100Y16507900D01*
X81801100Y21587900D02*
X78740000Y21587900D01*
X82552000Y22338800D02*
X81801100Y21587900D01*
X82552000Y42058300D02*
X82552000Y22338800D01*
X80160300Y44450000D02*
X82552000Y42058300D01*
X78740000Y44450000D02*
X80160300Y44450000D01*
X78740000Y20320000D02*
X78740000Y21587900D01*
X56512900Y49639600D02*
X56512900Y50165000D01*
X58972700Y47179800D02*
X56512900Y49639600D01*
X62765800Y47179800D02*
X58972700Y47179800D01*
X55245000Y50165000D02*
X56512900Y50165000D01*
X78062200Y24127900D02*
X78740000Y24127900D01*
X75513200Y26676900D02*
X78062200Y24127900D01*
X75513200Y31367400D02*
X75513200Y26676900D01*
X71880400Y35000200D02*
X75513200Y31367400D01*
X71880400Y45046500D02*
X71880400Y35000200D01*
X69624200Y47302700D02*
X71880400Y45046500D01*
X66472700Y47302700D02*
X69624200Y47302700D01*
X64135000Y49640400D02*
X66472700Y47302700D01*
X64135000Y50729400D02*
X64135000Y49640400D01*
X64842700Y51437100D02*
X64135000Y50729400D01*
X65964000Y51437100D02*
X64842700Y51437100D01*
X66677100Y52150200D02*
X65964000Y51437100D01*
X66677100Y52705000D02*
X66677100Y52150200D01*
X67945000Y52705000D02*
X66677100Y52705000D01*
X78740000Y22860000D02*
X78740000Y24127900D01*
X67945000Y50165000D02*
X67945000Y48897100D01*
X78740000Y25400000D02*
X78740000Y26667900D01*
X68813900Y48897100D02*
X67945000Y48897100D01*
X72702100Y45008900D02*
X68813900Y48897100D01*
X72702100Y35196800D02*
X72702100Y45008900D01*
X76306800Y31592100D02*
X72702100Y35196800D01*
X76306800Y28423300D02*
X76306800Y31592100D01*
X78062200Y26667900D02*
X76306800Y28423300D01*
X78740000Y26667900D02*
X78062200Y26667900D01*
X70485000Y52705000D02*
X70485000Y51437100D01*
X78740000Y27940000D02*
X78740000Y29207900D01*
X69930300Y51437100D02*
X70485000Y51437100D01*
X69212900Y50719700D02*
X69930300Y51437100D01*
X69212900Y49322400D02*
X69212900Y50719700D01*
X73312100Y45223200D02*
X69212900Y49322400D01*
X73312100Y35370900D02*
X73312100Y45223200D01*
X77089500Y31593500D02*
X73312100Y35370900D01*
X77089500Y30180600D02*
X77089500Y31593500D01*
X78062200Y29207900D02*
X77089500Y30180600D01*
X78740000Y29207900D02*
X78062200Y29207900D01*
X78062200Y31747900D02*
X78740000Y31747900D01*
X73866500Y35943600D02*
X78062200Y31747900D01*
X73866500Y45515600D02*
X73866500Y35943600D01*
X70485000Y48897100D02*
X73866500Y45515600D01*
X70485000Y50165000D02*
X70485000Y48897100D01*
X78740000Y30480000D02*
X78740000Y31747900D01*
X78740000Y35560000D02*
X78740000Y36827900D01*
X73025000Y50165000D02*
X73025000Y48897100D01*
X73025000Y48645600D02*
X73025000Y48897100D01*
X75529300Y46141300D02*
X73025000Y48645600D01*
X75529300Y39360900D02*
X75529300Y46141300D01*
X78062300Y36827900D02*
X75529300Y39360900D01*
X78740000Y36827900D02*
X78062300Y36827900D01*
X78740000Y38100000D02*
X78740000Y39367900D01*
X75565000Y52705000D02*
X75565000Y51437100D01*
X75039600Y51437100D02*
X75565000Y51437100D01*
X74295000Y50692500D02*
X75039600Y51437100D01*
X74295000Y48159400D02*
X74295000Y50692500D01*
X76083600Y46370800D02*
X74295000Y48159400D01*
X76083600Y41336600D02*
X76083600Y46370800D01*
X78052300Y39367900D02*
X76083600Y41336600D01*
X78740000Y39367900D02*
X78052300Y39367900D01*
X76732800Y43915100D02*
X78740000Y41907900D01*
X76732800Y47729300D02*
X76732800Y43915100D01*
X75565000Y48897100D02*
X76732800Y47729300D01*
X75565000Y50165000D02*
X75565000Y48897100D01*
X78740000Y40640000D02*
X78740000Y41907900D01*
D26*
X2921000Y15240000D02*
X4572300Y15240000D01*
X12953500Y15367500D02*
X14605000Y13716000D01*
X4699800Y15367500D02*
X12953500Y15367500D01*
X4572300Y15240000D02*
X4699800Y15367500D01*
X56947000Y41960800D02*
X56947000Y39319200D01*
X19685000Y52705000D02*
X19685000Y50165000D01*
X55245000Y28448000D02*
X55245000Y33528000D01*
X60325000Y23368000D02*
X55245000Y28448000D01*
X83820000Y44450000D02*
X83820000Y40640000D01*
X78740000Y49530000D02*
X83820000Y44450000D01*
X83820000Y40640000D02*
X83820000Y38100000D01*
X83820000Y38100000D02*
X83820000Y35560000D01*
X83820000Y35560000D02*
X83820000Y33020000D01*
X83820000Y33020000D02*
X83820000Y30480000D01*
X83820000Y30480000D02*
X83820000Y27940000D01*
X83820000Y27940000D02*
X83820000Y25400000D01*
X83820000Y25400000D02*
X83820000Y22860000D01*
X83820000Y22860000D02*
X83820000Y20320000D01*
X83820000Y20320000D02*
X83820000Y17780000D01*
X83820000Y17780000D02*
X83820000Y15240000D01*
X42545000Y10160000D02*
X42545000Y11811300D01*
X47625000Y16891300D02*
X47625000Y19050000D01*
X42545000Y11811300D02*
X47625000Y16891300D01*
X75565000Y4445000D02*
X75565000Y1905000D01*
X75565000Y4445000D02*
X75565000Y5943900D01*
X18821100Y5943900D02*
X19685000Y5943900D01*
X14605000Y10160000D02*
X18821100Y5943900D01*
X19685000Y4445000D02*
X19685000Y5943900D01*
X57785000Y20828000D02*
X57785000Y19050000D01*
X60325000Y23368000D02*
X57785000Y20828000D01*
X75565000Y15468900D02*
X75565000Y5943900D01*
X71983900Y19050000D02*
X75565000Y15468900D01*
X70485000Y19050000D02*
X71983900Y19050000D01*
X17551100Y49530000D02*
X18186100Y50165000D01*
X8636000Y49530000D02*
X17551100Y49530000D01*
X19685000Y50165000D02*
X18186100Y50165000D01*
X77063900Y5943900D02*
X83820000Y12700000D01*
X75565000Y5943900D02*
X77063900Y5943900D01*
X83820000Y12700000D02*
X83820000Y15240000D01*
X34925000Y44450000D02*
X34925000Y36830000D01*
X34925000Y29210000D02*
X37465000Y26670000D01*
X34925000Y36830000D02*
X34925000Y29210000D01*
X45477200Y21197800D02*
X47625000Y19050000D01*
X42937200Y21197800D02*
X45477200Y21197800D01*
X37465000Y26670000D02*
X42937200Y21197800D01*
X19685000Y10160000D02*
X21183900Y10160000D01*
X24765000Y6578900D02*
X24765000Y4445000D01*
X21183900Y10160000D02*
X24765000Y6578900D01*
X24765000Y4445000D02*
X24765000Y1905000D01*
X68791200Y46118800D02*
X70460000Y44450000D01*
X64704700Y46118800D02*
X68791200Y46118800D01*
X62434000Y43848100D02*
X64704700Y46118800D01*
X62434000Y42306200D02*
X62434000Y43848100D01*
X56947000Y36819200D02*
X62434000Y42306200D01*
X24765000Y39574600D02*
X24765000Y44450000D01*
X28918100Y35421500D02*
X24765000Y39574600D01*
X22225000Y4445000D02*
X22225000Y1905000D01*
X41354000Y42798700D02*
X37465000Y42798700D01*
X44477300Y45922000D02*
X41354000Y42798700D01*
X51233000Y45922000D02*
X44477300Y45922000D01*
X52705000Y44450000D02*
X51233000Y45922000D01*
X37465000Y44450000D02*
X37465000Y42798700D01*
X21122500Y5943900D02*
X22225000Y5943900D01*
X17145000Y9921400D02*
X21122500Y5943900D01*
X17145000Y10160000D02*
X17145000Y9921400D01*
X22225000Y4445000D02*
X22225000Y5943900D01*
X45085000Y10160000D02*
X45085000Y11811300D01*
X53746100Y13359500D02*
X53135000Y12748400D01*
X53746100Y19050000D02*
X53746100Y13359500D01*
X46022100Y12748400D02*
X45085000Y11811300D01*
X53135000Y12748400D02*
X46022100Y12748400D01*
X55245000Y19050000D02*
X53746100Y19050000D01*
X22225000Y44450000D02*
X22225000Y42798700D01*
X24765000Y19050000D02*
X23266100Y19050000D01*
X17145000Y10160000D02*
X17145000Y13716000D01*
X17145000Y13716000D02*
X17145000Y15367300D01*
X17145000Y15367300D02*
X22046900Y20269200D01*
X21947200Y20368900D02*
X22046900Y20269200D01*
X21947200Y42520900D02*
X21947200Y20368900D01*
X22225000Y42798700D02*
X21947200Y42520900D01*
X22046900Y20269200D02*
X23266100Y19050000D01*
D25*
X36197100Y50690400D02*
X36197100Y50165000D01*
X35452500Y51435000D02*
X36197100Y50690400D01*
X34360600Y51435000D02*
X35452500Y51435000D01*
X33657000Y50731400D02*
X34360600Y51435000D01*
X33657000Y40087400D02*
X33657000Y50731400D01*
X30941400Y37371800D02*
X33657000Y40087400D01*
X30941400Y28113600D02*
X30941400Y37371800D01*
X32385000Y26670000D02*
X30941400Y28113600D01*
X37465000Y50165000D02*
X36197100Y50165000D01*
X62865000Y12416300D02*
X62865000Y16853200D01*
X63667100Y11614200D02*
X62865000Y12416300D01*
X62865000Y16853200D02*
X62865000Y19050000D01*
X69212900Y17782100D02*
X69212900Y19050000D01*
X71755000Y15240000D02*
X69212900Y17782100D01*
X71755000Y3880600D02*
X71755000Y15240000D01*
X71051400Y3177000D02*
X71755000Y3880600D01*
X69907100Y3177000D02*
X71051400Y3177000D01*
X69212900Y2482800D02*
X69907100Y3177000D01*
X69212900Y1350200D02*
X69212900Y2482800D01*
X68477900Y615200D02*
X69212900Y1350200D01*
X57248000Y615200D02*
X68477900Y615200D01*
X56512900Y1350300D02*
X57248000Y615200D01*
X56512900Y1905000D02*
X56512900Y1350300D01*
X55245000Y1905000D02*
X56512900Y1905000D01*
X67945000Y19050000D02*
X69212900Y19050000D01*
X35450400Y3172900D02*
X34925000Y3172900D01*
X36195000Y3917500D02*
X35450400Y3172900D01*
X36195000Y6350000D02*
X36195000Y3917500D01*
X38737100Y8892100D02*
X36195000Y6350000D01*
X38737100Y10160000D02*
X38737100Y8892100D01*
X40005000Y10160000D02*
X38737100Y10160000D01*
X34925000Y1905000D02*
X34925000Y3172900D01*
X32910400Y3172900D02*
X32385000Y3172900D01*
X33655000Y3917500D02*
X32910400Y3172900D01*
X33655000Y7617900D02*
X33655000Y3917500D01*
X36197100Y10160000D02*
X33655000Y7617900D01*
X37465000Y10160000D02*
X36197100Y10160000D01*
X32385000Y1905000D02*
X32385000Y3172900D01*
X56517100Y8892100D02*
X56517100Y10160000D01*
X53975000Y6350000D02*
X56517100Y8892100D01*
X53975000Y3880600D02*
X53975000Y6350000D01*
X53271400Y3177000D02*
X53975000Y3880600D01*
X52142600Y3177000D02*
X53271400Y3177000D01*
X51437000Y2471400D02*
X52142600Y3177000D01*
X51437000Y1332800D02*
X51437000Y2471400D01*
X50692100Y587900D02*
X51437000Y1332800D01*
X47115300Y587900D02*
X50692100Y587900D01*
X46352900Y1350300D02*
X47115300Y587900D01*
X46352900Y1905000D02*
X46352900Y1350300D01*
X45085000Y1905000D02*
X46352900Y1905000D01*
X57785000Y10160000D02*
X56517100Y10160000D01*
X47525700Y5712900D02*
X47625000Y5712900D01*
X43815000Y9423600D02*
X47525700Y5712900D01*
X43815000Y11652100D02*
X43815000Y9423600D01*
X48895200Y16732300D02*
X43815000Y11652100D01*
X48895200Y20355300D02*
X48895200Y16732300D01*
X42639100Y26611400D02*
X48895200Y20355300D01*
X42639100Y36093100D02*
X42639100Y26611400D01*
X44594000Y38048000D02*
X42639100Y36093100D01*
X50659000Y38048000D02*
X44594000Y38048000D01*
X51500700Y37206300D02*
X50659000Y38048000D01*
X51500700Y36830000D02*
X51500700Y37206300D01*
X52705000Y36830000D02*
X51500700Y36830000D01*
X47625000Y4445000D02*
X47625000Y5712900D01*
X50165000Y8275700D02*
X50165000Y4445000D01*
X56513000Y14623700D02*
X50165000Y8275700D01*
X56513000Y20292700D02*
X56513000Y14623700D01*
X55716800Y21088900D02*
X56513000Y20292700D01*
X52990200Y21088900D02*
X55716800Y21088900D01*
X51101900Y22977200D02*
X52990200Y21088900D01*
X51101900Y33733400D02*
X51101900Y22977200D01*
X49209600Y35625700D02*
X51101900Y33733400D01*
X47117200Y35625700D02*
X49209600Y35625700D01*
X46289300Y36453600D02*
X47117200Y35625700D01*
X46289300Y36830000D02*
X46289300Y36453600D01*
X45085000Y36830000D02*
X46289300Y36830000D01*
X61165600Y35227400D02*
X62865000Y33528000D01*
X56323100Y35227400D02*
X61165600Y35227400D01*
X50165000Y41385500D02*
X56323100Y35227400D01*
X50165000Y44450000D02*
X50165000Y41385500D01*
X65691200Y33636200D02*
X65691200Y32396800D01*
X63940100Y35387300D02*
X65691200Y33636200D01*
X63940100Y43093700D02*
X63940100Y35387300D01*
X65296400Y44450000D02*
X63940100Y43093700D01*
X65380000Y44450000D02*
X65296400Y44450000D01*
X12065000Y13716000D02*
X12065000Y10160000D01*
X9525000Y13716000D02*
X9525000Y10160000D01*
X41277100Y3919600D02*
X41277100Y4445000D01*
X40532500Y3175000D02*
X41277100Y3919600D01*
X36932100Y3175000D02*
X40532500Y3175000D01*
X36195000Y2437900D02*
X36932100Y3175000D01*
X36195000Y1313400D02*
X36195000Y2437900D01*
X35505400Y623800D02*
X36195000Y1313400D01*
X18628700Y623800D02*
X35505400Y623800D01*
X10512800Y8739700D02*
X18628700Y623800D01*
X9525000Y8739700D02*
X10512800Y8739700D01*
X9525000Y10160000D02*
X9525000Y8739700D01*
X42545000Y4445000D02*
X41277100Y4445000D01*
D26*
X81280000Y40640000D02*
X81280000Y38100000D01*
X81280000Y38100000D02*
X81280000Y35560000D01*
X81280000Y35560000D02*
X81280000Y33020000D01*
X81280000Y33020000D02*
X81280000Y30480000D01*
X81280000Y30480000D02*
X81280000Y27940000D01*
X81280000Y20320000D02*
X81280000Y17780000D01*
X81280000Y17780000D02*
X81280000Y15240000D01*
X81280000Y15240000D02*
X81280000Y12700000D01*
X81280000Y27940000D02*
X81280000Y25400000D01*
X81280000Y25400000D02*
X81280000Y22860000D01*
D25*
X60325000Y19050000D02*
X60325000Y17629700D01*
X59055000Y16359700D02*
X59055000Y15644200D01*
X60325000Y17629700D02*
X59055000Y16359700D01*
X59055000Y3888200D02*
X59055000Y15644200D01*
X58339700Y3172900D02*
X59055000Y3888200D01*
X57785000Y3172900D02*
X58339700Y3172900D01*
X57785000Y1905000D02*
X57785000Y3172900D01*
X41277100Y9435900D02*
X41277100Y19050000D01*
X43484700Y7228300D02*
X41277100Y9435900D01*
X44103600Y7228300D02*
X43484700Y7228300D01*
X46355000Y4976900D02*
X44103600Y7228300D01*
X46355000Y3880600D02*
X46355000Y4976900D01*
X47062700Y3172900D02*
X46355000Y3880600D01*
X48184000Y3172900D02*
X47062700Y3172900D01*
X48897100Y2459800D02*
X48184000Y3172900D01*
X48897100Y1905000D02*
X48897100Y2459800D01*
X50165000Y1905000D02*
X48897100Y1905000D01*
X42545000Y19050000D02*
X41277100Y19050000D01*
X59057000Y18376400D02*
X59057000Y20028900D01*
X57590000Y16909400D02*
X59057000Y18376400D01*
X57590000Y14508800D02*
X57590000Y16909400D01*
X52705000Y9623800D02*
X57590000Y14508800D01*
X52705000Y4445000D02*
X52705000Y9623800D01*
X66672900Y17782100D02*
X66672900Y19050000D01*
X69217100Y15237900D02*
X66672900Y17782100D01*
X69217100Y6980800D02*
X69217100Y15237900D01*
X70485000Y5712900D02*
X69217100Y6980800D01*
X70485000Y4445000D02*
X70485000Y5712900D01*
X65405000Y19050000D02*
X66672900Y19050000D01*
X31859600Y51437100D02*
X32385000Y51437100D01*
X31115000Y50692500D02*
X31859600Y51437100D01*
X31115000Y41720400D02*
X31115000Y50692500D01*
X30387000Y40992400D02*
X31115000Y41720400D01*
X30387000Y23290800D02*
X30387000Y40992400D01*
X31112900Y22564900D02*
X30387000Y23290800D01*
X31112900Y10160000D02*
X31112900Y22564900D01*
X29845000Y10160000D02*
X31112900Y10160000D01*
X32385000Y52705000D02*
X32385000Y51437100D01*
X37990400Y51437100D02*
X37465000Y51437100D01*
X38735000Y50692500D02*
X37990400Y51437100D01*
X38735000Y47756300D02*
X38735000Y50692500D01*
X36195000Y45216300D02*
X38735000Y47756300D01*
X36195000Y38100000D02*
X36195000Y45216300D01*
X37465000Y36830000D02*
X36195000Y38100000D01*
X37465000Y52705000D02*
X37465000Y51437100D01*
X28572900Y22536800D02*
X29033100Y22997000D01*
X28572900Y10160000D02*
X28572900Y22536800D01*
X27305000Y10160000D02*
X28572900Y10160000D01*
X67419600Y3172900D02*
X67945000Y3172900D01*
X66675000Y3917500D02*
X67419600Y3172900D01*
X66675000Y5019400D02*
X66675000Y3917500D01*
X65873200Y5821200D02*
X66675000Y5019400D01*
X65249500Y5821200D02*
X65873200Y5821200D01*
X61595000Y9475700D02*
X65249500Y5821200D01*
X61595000Y20244200D02*
X61595000Y9475700D01*
X61231300Y20607900D02*
X61595000Y20244200D01*
X67945000Y1905000D02*
X67945000Y3172900D01*
X67945000Y4445000D02*
X67945000Y5712900D01*
X67865800Y5712900D02*
X67945000Y5712900D01*
X64135000Y9443700D02*
X67865800Y5712900D01*
X64135000Y11015400D02*
X64135000Y9443700D01*
X64421400Y11301800D02*
X64135000Y11015400D01*
X64421400Y11926600D02*
X64421400Y11301800D01*
X64135000Y12213000D02*
X64421400Y11926600D01*
X64135000Y21659800D02*
X64135000Y12213000D01*
X64312500Y21837300D02*
X64135000Y21659800D01*
X64312500Y29540500D02*
X64312500Y21837300D01*
X60325000Y33528000D02*
X64312500Y29540500D01*
D27*
G36*
X20931200Y20590341D02*
X16426580Y16085720D01*
X16206338Y15756107D01*
X16206338Y15756106D01*
X16129000Y15367300D01*
X16129000Y14989594D01*
X16085330Y14960415D01*
X15878539Y14650931D01*
X15507036Y15066732D01*
X14979791Y15320709D01*
X14964026Y15323358D01*
X14732000Y15202217D01*
X14732000Y13843000D01*
X14752000Y13843000D01*
X14752000Y13589000D01*
X14732000Y13589000D01*
X14732000Y12229783D01*
X14964026Y12108642D01*
X14979791Y12111291D01*
X15507036Y12365268D01*
X15878539Y12781069D01*
X16085330Y12471585D01*
X16129000Y12442406D01*
X16129000Y11433594D01*
X16085330Y11404415D01*
X15878539Y11094931D01*
X15507036Y11510732D01*
X14979791Y11764709D01*
X14964026Y11767358D01*
X14732000Y11646217D01*
X14732000Y10287000D01*
X14752000Y10287000D01*
X14752000Y10033000D01*
X14732000Y10033000D01*
X14732000Y8673783D01*
X14964026Y8552642D01*
X14979791Y8555291D01*
X15507036Y8809268D01*
X15878539Y9225069D01*
X16085330Y8915585D01*
X16571511Y8590729D01*
X17145000Y8476655D01*
X17151593Y8477966D01*
X19837453Y5792106D01*
X19812000Y5778817D01*
X19812000Y4572000D01*
X19832000Y4572000D01*
X19832000Y4318000D01*
X19812000Y4318000D01*
X19812000Y2032000D01*
X19832000Y2032000D01*
X19832000Y1778000D01*
X19812000Y1778000D01*
X19812000Y1758000D01*
X19558000Y1758000D01*
X19558000Y1778000D01*
X19538000Y1778000D01*
X19538000Y2032000D01*
X19558000Y2032000D01*
X19558000Y4318000D01*
X18350531Y4318000D01*
X18230032Y4085973D01*
X18478179Y3556510D01*
X18661119Y3389529D01*
X18461701Y3306927D01*
X18283073Y3128298D01*
X18186400Y2894909D01*
X18186400Y2190750D01*
X18345148Y2032002D01*
X18330656Y2032002D01*
X15558631Y4804027D01*
X18230032Y4804027D01*
X18350531Y4572000D01*
X19558000Y4572000D01*
X19558000Y5778817D01*
X19325974Y5899958D01*
X18910053Y5727688D01*
X18478179Y5333490D01*
X18230032Y4804027D01*
X15558631Y4804027D01*
X11841558Y8521100D01*
X12065000Y8476655D01*
X12638489Y8590729D01*
X13124670Y8915585D01*
X13331461Y9225069D01*
X13702964Y8809268D01*
X14230209Y8555291D01*
X14245974Y8552642D01*
X14478000Y8673783D01*
X14478000Y10033000D01*
X14458000Y10033000D01*
X14458000Y10287000D01*
X14478000Y10287000D01*
X14478000Y11646217D01*
X14245974Y11767358D01*
X14230209Y11764709D01*
X13702964Y11510732D01*
X13331461Y11094931D01*
X13124670Y11404415D01*
X12850000Y11587944D01*
X12850000Y12288056D01*
X13124670Y12471585D01*
X13331461Y12781069D01*
X13702964Y12365268D01*
X14230209Y12111291D01*
X14245974Y12108642D01*
X14478000Y12229783D01*
X14478000Y13589000D01*
X14458000Y13589000D01*
X14458000Y13843000D01*
X14478000Y13843000D01*
X14478000Y15202217D01*
X14245974Y15323358D01*
X14230209Y15320709D01*
X13702964Y15066732D01*
X13331461Y14650931D01*
X13124670Y14960415D01*
X12638489Y15285271D01*
X12065000Y15399345D01*
X11491511Y15285271D01*
X11005330Y14960415D01*
X10795000Y14645634D01*
X10584670Y14960415D01*
X10098489Y15285271D01*
X9525000Y15399345D01*
X8951511Y15285271D01*
X8465330Y14960415D01*
X8140474Y14474234D01*
X8026400Y13900745D01*
X8026400Y13531255D01*
X8140474Y12957766D01*
X8465330Y12471585D01*
X8740000Y12288056D01*
X8740000Y11587944D01*
X8465330Y11404415D01*
X8140474Y10918234D01*
X8026400Y10344745D01*
X8026400Y9975255D01*
X8140474Y9401766D01*
X8465330Y8915585D01*
X8741754Y8730885D01*
X8799755Y8439294D01*
X8969921Y8184621D01*
X9224594Y8014455D01*
X9525000Y7954700D01*
X10187642Y7954700D01*
X12033902Y6108440D01*
X11049000Y6108440D01*
X10813683Y6064162D01*
X10597559Y5925090D01*
X10452569Y5712890D01*
X10401560Y5461000D01*
X10401560Y3429000D01*
X10445838Y3193683D01*
X10584910Y2977559D01*
X10747948Y2866160D01*
X10658615Y2769818D01*
X10459025Y2287944D01*
X10578164Y2032000D01*
X11938000Y2032000D01*
X11938000Y2052000D01*
X12192000Y2052000D01*
X12192000Y2032000D01*
X13551836Y2032000D01*
X13670975Y2287944D01*
X13471385Y2769818D01*
X13380903Y2867398D01*
X13532441Y2964910D01*
X13677431Y3177110D01*
X13728440Y3429000D01*
X13728440Y4413902D01*
X17457342Y685000D01*
X13142042Y685000D01*
X13471385Y1040182D01*
X13670975Y1522056D01*
X13551836Y1778000D01*
X12192000Y1778000D01*
X12192000Y1758000D01*
X11938000Y1758000D01*
X11938000Y1778000D01*
X10578164Y1778000D01*
X10459025Y1522056D01*
X10658615Y1040182D01*
X10987958Y685000D01*
X6417467Y685000D01*
X4187235Y1128621D01*
X2353730Y2353730D01*
X1128621Y4187235D01*
X685000Y6417467D01*
X685000Y12700000D01*
X1237655Y12700000D01*
X1351729Y12126511D01*
X1676585Y11640330D01*
X1991366Y11430000D01*
X1676585Y11219670D01*
X1351729Y10733489D01*
X1237655Y10160000D01*
X1351729Y9586511D01*
X1676585Y9100330D01*
X2162766Y8775474D01*
X2736255Y8661400D01*
X3105745Y8661400D01*
X3679234Y8775474D01*
X4165415Y9100330D01*
X4490271Y9586511D01*
X4604345Y10160000D01*
X4490271Y10733489D01*
X4165415Y11219670D01*
X3850634Y11430000D01*
X4165415Y11640330D01*
X4490271Y12126511D01*
X4604345Y12700000D01*
X4490271Y13273489D01*
X4165415Y13759670D01*
X4143220Y13774500D01*
X4296698Y13838073D01*
X4475327Y14016701D01*
X4572000Y14250090D01*
X4572000Y14954250D01*
X4413250Y15113000D01*
X3048000Y15113000D01*
X3048000Y15093000D01*
X2794000Y15093000D01*
X2794000Y15113000D01*
X1428750Y15113000D01*
X1270000Y14954250D01*
X1270000Y14250090D01*
X1366673Y14016701D01*
X1545302Y13838073D01*
X1698780Y13774500D01*
X1676585Y13759670D01*
X1351729Y13273489D01*
X1237655Y12700000D01*
X685000Y12700000D01*
X685000Y16229910D01*
X1270000Y16229910D01*
X1270000Y15525750D01*
X1428750Y15367000D01*
X2794000Y15367000D01*
X2794000Y16579850D01*
X3048000Y16579850D01*
X3048000Y15367000D01*
X4413250Y15367000D01*
X4572000Y15525750D01*
X4572000Y16229910D01*
X4475327Y16463299D01*
X4296698Y16641927D01*
X4063309Y16738600D01*
X3206750Y16738600D01*
X3048000Y16579850D01*
X2794000Y16579850D01*
X2635250Y16738600D01*
X1778691Y16738600D01*
X1545302Y16641927D01*
X1366673Y16463299D01*
X1270000Y16229910D01*
X685000Y16229910D01*
X685000Y20270000D01*
X20320000Y20270000D01*
X20582138Y20322143D01*
X20804368Y20470632D01*
X20931200Y20660450D01*
X20931200Y20590341D01*
X20931200Y20590341D01*
G37*
X20931200Y20590341D02*
X16426580Y16085720D01*
X16206338Y15756107D01*
X16206338Y15756106D01*
X16129000Y15367300D01*
X16129000Y14989594D01*
X16085330Y14960415D01*
X15878539Y14650931D01*
X15507036Y15066732D01*
X14979791Y15320709D01*
X14964026Y15323358D01*
X14732000Y15202217D01*
X14732000Y13843000D01*
X14752000Y13843000D01*
X14752000Y13589000D01*
X14732000Y13589000D01*
X14732000Y12229783D01*
X14964026Y12108642D01*
X14979791Y12111291D01*
X15507036Y12365268D01*
X15878539Y12781069D01*
X16085330Y12471585D01*
X16129000Y12442406D01*
X16129000Y11433594D01*
X16085330Y11404415D01*
X15878539Y11094931D01*
X15507036Y11510732D01*
X14979791Y11764709D01*
X14964026Y11767358D01*
X14732000Y11646217D01*
X14732000Y10287000D01*
X14752000Y10287000D01*
X14752000Y10033000D01*
X14732000Y10033000D01*
X14732000Y8673783D01*
X14964026Y8552642D01*
X14979791Y8555291D01*
X15507036Y8809268D01*
X15878539Y9225069D01*
X16085330Y8915585D01*
X16571511Y8590729D01*
X17145000Y8476655D01*
X17151593Y8477966D01*
X19837453Y5792106D01*
X19812000Y5778817D01*
X19812000Y4572000D01*
X19832000Y4572000D01*
X19832000Y4318000D01*
X19812000Y4318000D01*
X19812000Y2032000D01*
X19832000Y2032000D01*
X19832000Y1778000D01*
X19812000Y1778000D01*
X19812000Y1758000D01*
X19558000Y1758000D01*
X19558000Y1778000D01*
X19538000Y1778000D01*
X19538000Y2032000D01*
X19558000Y2032000D01*
X19558000Y4318000D01*
X18350531Y4318000D01*
X18230032Y4085973D01*
X18478179Y3556510D01*
X18661119Y3389529D01*
X18461701Y3306927D01*
X18283073Y3128298D01*
X18186400Y2894909D01*
X18186400Y2190750D01*
X18345148Y2032002D01*
X18330656Y2032002D01*
X15558631Y4804027D01*
X18230032Y4804027D01*
X18350531Y4572000D01*
X19558000Y4572000D01*
X19558000Y5778817D01*
X19325974Y5899958D01*
X18910053Y5727688D01*
X18478179Y5333490D01*
X18230032Y4804027D01*
X15558631Y4804027D01*
X11841558Y8521100D01*
X12065000Y8476655D01*
X12638489Y8590729D01*
X13124670Y8915585D01*
X13331461Y9225069D01*
X13702964Y8809268D01*
X14230209Y8555291D01*
X14245974Y8552642D01*
X14478000Y8673783D01*
X14478000Y10033000D01*
X14458000Y10033000D01*
X14458000Y10287000D01*
X14478000Y10287000D01*
X14478000Y11646217D01*
X14245974Y11767358D01*
X14230209Y11764709D01*
X13702964Y11510732D01*
X13331461Y11094931D01*
X13124670Y11404415D01*
X12850000Y11587944D01*
X12850000Y12288056D01*
X13124670Y12471585D01*
X13331461Y12781069D01*
X13702964Y12365268D01*
X14230209Y12111291D01*
X14245974Y12108642D01*
X14478000Y12229783D01*
X14478000Y13589000D01*
X14458000Y13589000D01*
X14458000Y13843000D01*
X14478000Y13843000D01*
X14478000Y15202217D01*
X14245974Y15323358D01*
X14230209Y15320709D01*
X13702964Y15066732D01*
X13331461Y14650931D01*
X13124670Y14960415D01*
X12638489Y15285271D01*
X12065000Y15399345D01*
X11491511Y15285271D01*
X11005330Y14960415D01*
X10795000Y14645634D01*
X10584670Y14960415D01*
X10098489Y15285271D01*
X9525000Y15399345D01*
X8951511Y15285271D01*
X8465330Y14960415D01*
X8140474Y14474234D01*
X8026400Y13900745D01*
X8026400Y13531255D01*
X8140474Y12957766D01*
X8465330Y12471585D01*
X8740000Y12288056D01*
X8740000Y11587944D01*
X8465330Y11404415D01*
X8140474Y10918234D01*
X8026400Y10344745D01*
X8026400Y9975255D01*
X8140474Y9401766D01*
X8465330Y8915585D01*
X8741754Y8730885D01*
X8799755Y8439294D01*
X8969921Y8184621D01*
X9224594Y8014455D01*
X9525000Y7954700D01*
X10187642Y7954700D01*
X12033902Y6108440D01*
X11049000Y6108440D01*
X10813683Y6064162D01*
X10597559Y5925090D01*
X10452569Y5712890D01*
X10401560Y5461000D01*
X10401560Y3429000D01*
X10445838Y3193683D01*
X10584910Y2977559D01*
X10747948Y2866160D01*
X10658615Y2769818D01*
X10459025Y2287944D01*
X10578164Y2032000D01*
X11938000Y2032000D01*
X11938000Y2052000D01*
X12192000Y2052000D01*
X12192000Y2032000D01*
X13551836Y2032000D01*
X13670975Y2287944D01*
X13471385Y2769818D01*
X13380903Y2867398D01*
X13532441Y2964910D01*
X13677431Y3177110D01*
X13728440Y3429000D01*
X13728440Y4413902D01*
X17457342Y685000D01*
X13142042Y685000D01*
X13471385Y1040182D01*
X13670975Y1522056D01*
X13551836Y1778000D01*
X12192000Y1778000D01*
X12192000Y1758000D01*
X11938000Y1758000D01*
X11938000Y1778000D01*
X10578164Y1778000D01*
X10459025Y1522056D01*
X10658615Y1040182D01*
X10987958Y685000D01*
X6417467Y685000D01*
X4187235Y1128621D01*
X2353730Y2353730D01*
X1128621Y4187235D01*
X685000Y6417467D01*
X685000Y12700000D01*
X1237655Y12700000D01*
X1351729Y12126511D01*
X1676585Y11640330D01*
X1991366Y11430000D01*
X1676585Y11219670D01*
X1351729Y10733489D01*
X1237655Y10160000D01*
X1351729Y9586511D01*
X1676585Y9100330D01*
X2162766Y8775474D01*
X2736255Y8661400D01*
X3105745Y8661400D01*
X3679234Y8775474D01*
X4165415Y9100330D01*
X4490271Y9586511D01*
X4604345Y10160000D01*
X4490271Y10733489D01*
X4165415Y11219670D01*
X3850634Y11430000D01*
X4165415Y11640330D01*
X4490271Y12126511D01*
X4604345Y12700000D01*
X4490271Y13273489D01*
X4165415Y13759670D01*
X4143220Y13774500D01*
X4296698Y13838073D01*
X4475327Y14016701D01*
X4572000Y14250090D01*
X4572000Y14954250D01*
X4413250Y15113000D01*
X3048000Y15113000D01*
X3048000Y15093000D01*
X2794000Y15093000D01*
X2794000Y15113000D01*
X1428750Y15113000D01*
X1270000Y14954250D01*
X1270000Y14250090D01*
X1366673Y14016701D01*
X1545302Y13838073D01*
X1698780Y13774500D01*
X1676585Y13759670D01*
X1351729Y13273489D01*
X1237655Y12700000D01*
X685000Y12700000D01*
X685000Y16229910D01*
X1270000Y16229910D01*
X1270000Y15525750D01*
X1428750Y15367000D01*
X2794000Y15367000D01*
X2794000Y16579850D01*
X3048000Y16579850D01*
X3048000Y15367000D01*
X4413250Y15367000D01*
X4572000Y15525750D01*
X4572000Y16229910D01*
X4475327Y16463299D01*
X4296698Y16641927D01*
X4063309Y16738600D01*
X3206750Y16738600D01*
X3048000Y16579850D01*
X2794000Y16579850D01*
X2635250Y16738600D01*
X1778691Y16738600D01*
X1545302Y16641927D01*
X1366673Y16463299D01*
X1270000Y16229910D01*
X685000Y16229910D01*
X685000Y20270000D01*
X20320000Y20270000D01*
X20582138Y20322143D01*
X20804368Y20470632D01*
X20931200Y20660450D01*
X20931200Y20590341D01*
G36*
X78252805Y52998014D02*
X82146397Y50396399D01*
X84748014Y46502805D01*
X85675000Y41842533D01*
X85675000Y12767467D01*
X84748014Y8107195D01*
X82146397Y4213601D01*
X78252805Y1611986D01*
X76927339Y1348334D01*
X77019968Y1545973D01*
X76899469Y1778000D01*
X75692000Y1778000D01*
X75692000Y1758000D01*
X75438000Y1758000D01*
X75438000Y1778000D01*
X73152000Y1778000D01*
X73152000Y1758000D01*
X72898000Y1758000D01*
X72898000Y1778000D01*
X72878000Y1778000D01*
X72878000Y2032000D01*
X72898000Y2032000D01*
X72898000Y4318000D01*
X73152000Y4318000D01*
X73152000Y2032000D01*
X75438000Y2032000D01*
X75438000Y4318000D01*
X75692000Y4318000D01*
X75692000Y2032000D01*
X76899469Y2032000D01*
X77019968Y2264027D01*
X76771821Y2793490D01*
X76353848Y3175000D01*
X76771821Y3556510D01*
X77019968Y4085973D01*
X76899469Y4318000D01*
X75692000Y4318000D01*
X75438000Y4318000D01*
X73152000Y4318000D01*
X72898000Y4318000D01*
X72878000Y4318000D01*
X72878000Y4572000D01*
X72898000Y4572000D01*
X72898000Y5778817D01*
X73152000Y5778817D01*
X73152000Y4572000D01*
X75438000Y4572000D01*
X75438000Y5778817D01*
X75692000Y5778817D01*
X75692000Y4572000D01*
X76899469Y4572000D01*
X77019968Y4804027D01*
X76771821Y5333490D01*
X76339947Y5727688D01*
X75924026Y5899958D01*
X75692000Y5778817D01*
X75438000Y5778817D01*
X75205974Y5899958D01*
X74790053Y5727688D01*
X74358179Y5333490D01*
X74295000Y5198687D01*
X74231821Y5333490D01*
X73799947Y5727688D01*
X73384026Y5899958D01*
X73152000Y5778817D01*
X72898000Y5778817D01*
X72665974Y5899958D01*
X72540000Y5847781D01*
X72540000Y15240000D01*
X72514678Y15367300D01*
X72480245Y15540407D01*
X72310079Y15795079D01*
X70612002Y17493156D01*
X70612002Y17563782D01*
X70844026Y17442642D01*
X70859791Y17445291D01*
X71387036Y17699268D01*
X71776954Y18135680D01*
X71970184Y18688087D01*
X71825924Y18923000D01*
X70612000Y18923000D01*
X70612000Y18903000D01*
X70358000Y18903000D01*
X70358000Y18923000D01*
X70338000Y18923000D01*
X70338000Y19177000D01*
X70358000Y19177000D01*
X70358000Y19197000D01*
X70612000Y19197000D01*
X70612000Y19177000D01*
X71825924Y19177000D01*
X71970184Y19411913D01*
X71776954Y19964320D01*
X71387036Y20400732D01*
X70883683Y20643200D01*
X72226642Y20643200D01*
X76917021Y15952821D01*
X77165428Y15786841D01*
X77056655Y15240000D01*
X77170729Y14666511D01*
X77495585Y14180330D01*
X77509913Y14170757D01*
X77488683Y14166762D01*
X77272559Y14027690D01*
X77127569Y13815490D01*
X77076560Y13563600D01*
X77076560Y11836400D01*
X77120838Y11601083D01*
X77259910Y11384959D01*
X77472110Y11239969D01*
X77724000Y11188960D01*
X79756000Y11188960D01*
X79991317Y11233238D01*
X80207441Y11372310D01*
X80328008Y11548765D01*
X80677152Y11315474D01*
X81250641Y11201400D01*
X81309359Y11201400D01*
X81882848Y11315474D01*
X82354356Y11630526D01*
X82418073Y11476701D01*
X82596702Y11298073D01*
X82830091Y11201400D01*
X83534250Y11201400D01*
X83693000Y11360150D01*
X83693000Y12573000D01*
X83947000Y12573000D01*
X83947000Y11360150D01*
X84105750Y11201400D01*
X84809909Y11201400D01*
X85043298Y11298073D01*
X85221927Y11476701D01*
X85318600Y11710090D01*
X85318600Y12414250D01*
X85159850Y12573000D01*
X83947000Y12573000D01*
X83693000Y12573000D01*
X83673000Y12573000D01*
X83673000Y12827000D01*
X83693000Y12827000D01*
X83693000Y15113000D01*
X83947000Y15113000D01*
X83947000Y12827000D01*
X85159850Y12827000D01*
X85318600Y12985750D01*
X85318600Y13689910D01*
X85221927Y13923299D01*
X85043298Y14101927D01*
X84845880Y14183700D01*
X85102688Y14465053D01*
X85274958Y14880974D01*
X85153817Y15113000D01*
X83947000Y15113000D01*
X83693000Y15113000D01*
X83673000Y15113000D01*
X83673000Y15367000D01*
X83693000Y15367000D01*
X83693000Y17653000D01*
X83947000Y17653000D01*
X83947000Y15367000D01*
X85153817Y15367000D01*
X85274958Y15599026D01*
X85102688Y16014947D01*
X84708490Y16446821D01*
X84573687Y16510000D01*
X84708490Y16573179D01*
X85102688Y17005053D01*
X85274958Y17420974D01*
X85153817Y17653000D01*
X83947000Y17653000D01*
X83693000Y17653000D01*
X83673000Y17653000D01*
X83673000Y17907000D01*
X83693000Y17907000D01*
X83693000Y20193000D01*
X83947000Y20193000D01*
X83947000Y17907000D01*
X85153817Y17907000D01*
X85274958Y18139026D01*
X85102688Y18554947D01*
X84708490Y18986821D01*
X84573687Y19050000D01*
X84708490Y19113179D01*
X85102688Y19545053D01*
X85274958Y19960974D01*
X85153817Y20193000D01*
X83947000Y20193000D01*
X83693000Y20193000D01*
X83673000Y20193000D01*
X83673000Y20447000D01*
X83693000Y20447000D01*
X83693000Y22733000D01*
X83947000Y22733000D01*
X83947000Y20447000D01*
X85153817Y20447000D01*
X85274958Y20679026D01*
X85102688Y21094947D01*
X84708490Y21526821D01*
X84573687Y21590000D01*
X84708490Y21653179D01*
X85102688Y22085053D01*
X85274958Y22500974D01*
X85153817Y22733000D01*
X83947000Y22733000D01*
X83693000Y22733000D01*
X83673000Y22733000D01*
X83673000Y22987000D01*
X83693000Y22987000D01*
X83693000Y25273000D01*
X83947000Y25273000D01*
X83947000Y22987000D01*
X85153817Y22987000D01*
X85274958Y23219026D01*
X85102688Y23634947D01*
X84708490Y24066821D01*
X84573687Y24130000D01*
X84708490Y24193179D01*
X85102688Y24625053D01*
X85274958Y25040974D01*
X85153817Y25273000D01*
X83947000Y25273000D01*
X83693000Y25273000D01*
X83673000Y25273000D01*
X83673000Y25527000D01*
X83693000Y25527000D01*
X83693000Y27813000D01*
X83947000Y27813000D01*
X83947000Y25527000D01*
X85153817Y25527000D01*
X85274958Y25759026D01*
X85102688Y26174947D01*
X84708490Y26606821D01*
X84573687Y26670000D01*
X84708490Y26733179D01*
X85102688Y27165053D01*
X85274958Y27580974D01*
X85153817Y27813000D01*
X83947000Y27813000D01*
X83693000Y27813000D01*
X83673000Y27813000D01*
X83673000Y28067000D01*
X83693000Y28067000D01*
X83693000Y30353000D01*
X83947000Y30353000D01*
X83947000Y28067000D01*
X85153817Y28067000D01*
X85274958Y28299026D01*
X85102688Y28714947D01*
X84708490Y29146821D01*
X84573687Y29210000D01*
X84708490Y29273179D01*
X85102688Y29705053D01*
X85274958Y30120974D01*
X85153817Y30353000D01*
X83947000Y30353000D01*
X83693000Y30353000D01*
X83673000Y30353000D01*
X83673000Y30607000D01*
X83693000Y30607000D01*
X83693000Y32893000D01*
X83947000Y32893000D01*
X83947000Y30607000D01*
X85153817Y30607000D01*
X85274958Y30839026D01*
X85102688Y31254947D01*
X84708490Y31686821D01*
X84573687Y31750000D01*
X84708490Y31813179D01*
X85102688Y32245053D01*
X85274958Y32660974D01*
X85153817Y32893000D01*
X83947000Y32893000D01*
X83693000Y32893000D01*
X83673000Y32893000D01*
X83673000Y33147000D01*
X83693000Y33147000D01*
X83693000Y35433000D01*
X83947000Y35433000D01*
X83947000Y33147000D01*
X85153817Y33147000D01*
X85274958Y33379026D01*
X85102688Y33794947D01*
X84708490Y34226821D01*
X84573687Y34290000D01*
X84708490Y34353179D01*
X85102688Y34785053D01*
X85274958Y35200974D01*
X85153817Y35433000D01*
X83947000Y35433000D01*
X83693000Y35433000D01*
X83673000Y35433000D01*
X83673000Y35687000D01*
X83693000Y35687000D01*
X83693000Y37973000D01*
X83947000Y37973000D01*
X83947000Y35687000D01*
X85153817Y35687000D01*
X85274958Y35919026D01*
X85102688Y36334947D01*
X84708490Y36766821D01*
X84573687Y36830000D01*
X84708490Y36893179D01*
X85102688Y37325053D01*
X85274958Y37740974D01*
X85153817Y37973000D01*
X83947000Y37973000D01*
X83693000Y37973000D01*
X83673000Y37973000D01*
X83673000Y38227000D01*
X83693000Y38227000D01*
X83693000Y40513000D01*
X83947000Y40513000D01*
X83947000Y38227000D01*
X85153817Y38227000D01*
X85274958Y38459026D01*
X85102688Y38874947D01*
X84708490Y39306821D01*
X84573687Y39370000D01*
X84708490Y39433179D01*
X85102688Y39865053D01*
X85274958Y40280974D01*
X85153817Y40513000D01*
X83947000Y40513000D01*
X83693000Y40513000D01*
X83673000Y40513000D01*
X83673000Y40767000D01*
X83693000Y40767000D01*
X83693000Y41974469D01*
X83947000Y41974469D01*
X83947000Y40767000D01*
X85153817Y40767000D01*
X85274958Y40999026D01*
X85102688Y41414947D01*
X84708490Y41846821D01*
X84179027Y42094968D01*
X83947000Y41974469D01*
X83693000Y41974469D01*
X83460973Y42094968D01*
X83337000Y42036865D01*
X83337000Y42058295D01*
X83337001Y42058300D01*
X83277245Y42358706D01*
X83107079Y42613379D01*
X80715379Y45005079D01*
X80460707Y45175245D01*
X80169115Y45233246D01*
X79984415Y45509670D01*
X79669634Y45720000D01*
X79984415Y45930330D01*
X80309271Y46416511D01*
X80423345Y46990000D01*
X80309271Y47563489D01*
X79984415Y48049670D01*
X79962220Y48064500D01*
X80115698Y48128073D01*
X80294327Y48306701D01*
X80391000Y48540090D01*
X80391000Y49244250D01*
X80232250Y49403000D01*
X78867000Y49403000D01*
X78867000Y49383000D01*
X78613000Y49383000D01*
X78613000Y49403000D01*
X77247750Y49403000D01*
X77089000Y49244250D01*
X77089000Y48540090D01*
X77129186Y48443072D01*
X76547710Y49024548D01*
X76624670Y49075971D01*
X76949526Y49562152D01*
X77063600Y50135641D01*
X77063600Y50194359D01*
X76998844Y50519910D01*
X77089000Y50519910D01*
X77089000Y49815750D01*
X77247750Y49657000D01*
X78613000Y49657000D01*
X78613000Y50869850D01*
X78867000Y50869850D01*
X78867000Y49657000D01*
X80232250Y49657000D01*
X80391000Y49815750D01*
X80391000Y50519910D01*
X80294327Y50753299D01*
X80115698Y50931927D01*
X79882309Y51028600D01*
X79025750Y51028600D01*
X78867000Y50869850D01*
X78613000Y50869850D01*
X78454250Y51028600D01*
X77597691Y51028600D01*
X77364302Y50931927D01*
X77185673Y50753299D01*
X77089000Y50519910D01*
X76998844Y50519910D01*
X76949526Y50767848D01*
X76624670Y51254029D01*
X76353828Y51435000D01*
X76624670Y51615971D01*
X76949526Y52102152D01*
X77063600Y52675641D01*
X77063600Y52734359D01*
X76960005Y53255168D01*
X78252805Y52998014D01*
X78252805Y52998014D01*
G37*
X78252805Y52998014D02*
X82146397Y50396399D01*
X84748014Y46502805D01*
X85675000Y41842533D01*
X85675000Y12767467D01*
X84748014Y8107195D01*
X82146397Y4213601D01*
X78252805Y1611986D01*
X76927339Y1348334D01*
X77019968Y1545973D01*
X76899469Y1778000D01*
X75692000Y1778000D01*
X75692000Y1758000D01*
X75438000Y1758000D01*
X75438000Y1778000D01*
X73152000Y1778000D01*
X73152000Y1758000D01*
X72898000Y1758000D01*
X72898000Y1778000D01*
X72878000Y1778000D01*
X72878000Y2032000D01*
X72898000Y2032000D01*
X72898000Y4318000D01*
X73152000Y4318000D01*
X73152000Y2032000D01*
X75438000Y2032000D01*
X75438000Y4318000D01*
X75692000Y4318000D01*
X75692000Y2032000D01*
X76899469Y2032000D01*
X77019968Y2264027D01*
X76771821Y2793490D01*
X76353848Y3175000D01*
X76771821Y3556510D01*
X77019968Y4085973D01*
X76899469Y4318000D01*
X75692000Y4318000D01*
X75438000Y4318000D01*
X73152000Y4318000D01*
X72898000Y4318000D01*
X72878000Y4318000D01*
X72878000Y4572000D01*
X72898000Y4572000D01*
X72898000Y5778817D01*
X73152000Y5778817D01*
X73152000Y4572000D01*
X75438000Y4572000D01*
X75438000Y5778817D01*
X75692000Y5778817D01*
X75692000Y4572000D01*
X76899469Y4572000D01*
X77019968Y4804027D01*
X76771821Y5333490D01*
X76339947Y5727688D01*
X75924026Y5899958D01*
X75692000Y5778817D01*
X75438000Y5778817D01*
X75205974Y5899958D01*
X74790053Y5727688D01*
X74358179Y5333490D01*
X74295000Y5198687D01*
X74231821Y5333490D01*
X73799947Y5727688D01*
X73384026Y5899958D01*
X73152000Y5778817D01*
X72898000Y5778817D01*
X72665974Y5899958D01*
X72540000Y5847781D01*
X72540000Y15240000D01*
X72514678Y15367300D01*
X72480245Y15540407D01*
X72310079Y15795079D01*
X70612002Y17493156D01*
X70612002Y17563782D01*
X70844026Y17442642D01*
X70859791Y17445291D01*
X71387036Y17699268D01*
X71776954Y18135680D01*
X71970184Y18688087D01*
X71825924Y18923000D01*
X70612000Y18923000D01*
X70612000Y18903000D01*
X70358000Y18903000D01*
X70358000Y18923000D01*
X70338000Y18923000D01*
X70338000Y19177000D01*
X70358000Y19177000D01*
X70358000Y19197000D01*
X70612000Y19197000D01*
X70612000Y19177000D01*
X71825924Y19177000D01*
X71970184Y19411913D01*
X71776954Y19964320D01*
X71387036Y20400732D01*
X70883683Y20643200D01*
X72226642Y20643200D01*
X76917021Y15952821D01*
X77165428Y15786841D01*
X77056655Y15240000D01*
X77170729Y14666511D01*
X77495585Y14180330D01*
X77509913Y14170757D01*
X77488683Y14166762D01*
X77272559Y14027690D01*
X77127569Y13815490D01*
X77076560Y13563600D01*
X77076560Y11836400D01*
X77120838Y11601083D01*
X77259910Y11384959D01*
X77472110Y11239969D01*
X77724000Y11188960D01*
X79756000Y11188960D01*
X79991317Y11233238D01*
X80207441Y11372310D01*
X80328008Y11548765D01*
X80677152Y11315474D01*
X81250641Y11201400D01*
X81309359Y11201400D01*
X81882848Y11315474D01*
X82354356Y11630526D01*
X82418073Y11476701D01*
X82596702Y11298073D01*
X82830091Y11201400D01*
X83534250Y11201400D01*
X83693000Y11360150D01*
X83693000Y12573000D01*
X83947000Y12573000D01*
X83947000Y11360150D01*
X84105750Y11201400D01*
X84809909Y11201400D01*
X85043298Y11298073D01*
X85221927Y11476701D01*
X85318600Y11710090D01*
X85318600Y12414250D01*
X85159850Y12573000D01*
X83947000Y12573000D01*
X83693000Y12573000D01*
X83673000Y12573000D01*
X83673000Y12827000D01*
X83693000Y12827000D01*
X83693000Y15113000D01*
X83947000Y15113000D01*
X83947000Y12827000D01*
X85159850Y12827000D01*
X85318600Y12985750D01*
X85318600Y13689910D01*
X85221927Y13923299D01*
X85043298Y14101927D01*
X84845880Y14183700D01*
X85102688Y14465053D01*
X85274958Y14880974D01*
X85153817Y15113000D01*
X83947000Y15113000D01*
X83693000Y15113000D01*
X83673000Y15113000D01*
X83673000Y15367000D01*
X83693000Y15367000D01*
X83693000Y17653000D01*
X83947000Y17653000D01*
X83947000Y15367000D01*
X85153817Y15367000D01*
X85274958Y15599026D01*
X85102688Y16014947D01*
X84708490Y16446821D01*
X84573687Y16510000D01*
X84708490Y16573179D01*
X85102688Y17005053D01*
X85274958Y17420974D01*
X85153817Y17653000D01*
X83947000Y17653000D01*
X83693000Y17653000D01*
X83673000Y17653000D01*
X83673000Y17907000D01*
X83693000Y17907000D01*
X83693000Y20193000D01*
X83947000Y20193000D01*
X83947000Y17907000D01*
X85153817Y17907000D01*
X85274958Y18139026D01*
X85102688Y18554947D01*
X84708490Y18986821D01*
X84573687Y19050000D01*
X84708490Y19113179D01*
X85102688Y19545053D01*
X85274958Y19960974D01*
X85153817Y20193000D01*
X83947000Y20193000D01*
X83693000Y20193000D01*
X83673000Y20193000D01*
X83673000Y20447000D01*
X83693000Y20447000D01*
X83693000Y22733000D01*
X83947000Y22733000D01*
X83947000Y20447000D01*
X85153817Y20447000D01*
X85274958Y20679026D01*
X85102688Y21094947D01*
X84708490Y21526821D01*
X84573687Y21590000D01*
X84708490Y21653179D01*
X85102688Y22085053D01*
X85274958Y22500974D01*
X85153817Y22733000D01*
X83947000Y22733000D01*
X83693000Y22733000D01*
X83673000Y22733000D01*
X83673000Y22987000D01*
X83693000Y22987000D01*
X83693000Y25273000D01*
X83947000Y25273000D01*
X83947000Y22987000D01*
X85153817Y22987000D01*
X85274958Y23219026D01*
X85102688Y23634947D01*
X84708490Y24066821D01*
X84573687Y24130000D01*
X84708490Y24193179D01*
X85102688Y24625053D01*
X85274958Y25040974D01*
X85153817Y25273000D01*
X83947000Y25273000D01*
X83693000Y25273000D01*
X83673000Y25273000D01*
X83673000Y25527000D01*
X83693000Y25527000D01*
X83693000Y27813000D01*
X83947000Y27813000D01*
X83947000Y25527000D01*
X85153817Y25527000D01*
X85274958Y25759026D01*
X85102688Y26174947D01*
X84708490Y26606821D01*
X84573687Y26670000D01*
X84708490Y26733179D01*
X85102688Y27165053D01*
X85274958Y27580974D01*
X85153817Y27813000D01*
X83947000Y27813000D01*
X83693000Y27813000D01*
X83673000Y27813000D01*
X83673000Y28067000D01*
X83693000Y28067000D01*
X83693000Y30353000D01*
X83947000Y30353000D01*
X83947000Y28067000D01*
X85153817Y28067000D01*
X85274958Y28299026D01*
X85102688Y28714947D01*
X84708490Y29146821D01*
X84573687Y29210000D01*
X84708490Y29273179D01*
X85102688Y29705053D01*
X85274958Y30120974D01*
X85153817Y30353000D01*
X83947000Y30353000D01*
X83693000Y30353000D01*
X83673000Y30353000D01*
X83673000Y30607000D01*
X83693000Y30607000D01*
X83693000Y32893000D01*
X83947000Y32893000D01*
X83947000Y30607000D01*
X85153817Y30607000D01*
X85274958Y30839026D01*
X85102688Y31254947D01*
X84708490Y31686821D01*
X84573687Y31750000D01*
X84708490Y31813179D01*
X85102688Y32245053D01*
X85274958Y32660974D01*
X85153817Y32893000D01*
X83947000Y32893000D01*
X83693000Y32893000D01*
X83673000Y32893000D01*
X83673000Y33147000D01*
X83693000Y33147000D01*
X83693000Y35433000D01*
X83947000Y35433000D01*
X83947000Y33147000D01*
X85153817Y33147000D01*
X85274958Y33379026D01*
X85102688Y33794947D01*
X84708490Y34226821D01*
X84573687Y34290000D01*
X84708490Y34353179D01*
X85102688Y34785053D01*
X85274958Y35200974D01*
X85153817Y35433000D01*
X83947000Y35433000D01*
X83693000Y35433000D01*
X83673000Y35433000D01*
X83673000Y35687000D01*
X83693000Y35687000D01*
X83693000Y37973000D01*
X83947000Y37973000D01*
X83947000Y35687000D01*
X85153817Y35687000D01*
X85274958Y35919026D01*
X85102688Y36334947D01*
X84708490Y36766821D01*
X84573687Y36830000D01*
X84708490Y36893179D01*
X85102688Y37325053D01*
X85274958Y37740974D01*
X85153817Y37973000D01*
X83947000Y37973000D01*
X83693000Y37973000D01*
X83673000Y37973000D01*
X83673000Y38227000D01*
X83693000Y38227000D01*
X83693000Y40513000D01*
X83947000Y40513000D01*
X83947000Y38227000D01*
X85153817Y38227000D01*
X85274958Y38459026D01*
X85102688Y38874947D01*
X84708490Y39306821D01*
X84573687Y39370000D01*
X84708490Y39433179D01*
X85102688Y39865053D01*
X85274958Y40280974D01*
X85153817Y40513000D01*
X83947000Y40513000D01*
X83693000Y40513000D01*
X83673000Y40513000D01*
X83673000Y40767000D01*
X83693000Y40767000D01*
X83693000Y41974469D01*
X83947000Y41974469D01*
X83947000Y40767000D01*
X85153817Y40767000D01*
X85274958Y40999026D01*
X85102688Y41414947D01*
X84708490Y41846821D01*
X84179027Y42094968D01*
X83947000Y41974469D01*
X83693000Y41974469D01*
X83460973Y42094968D01*
X83337000Y42036865D01*
X83337000Y42058295D01*
X83337001Y42058300D01*
X83277245Y42358706D01*
X83107079Y42613379D01*
X80715379Y45005079D01*
X80460707Y45175245D01*
X80169115Y45233246D01*
X79984415Y45509670D01*
X79669634Y45720000D01*
X79984415Y45930330D01*
X80309271Y46416511D01*
X80423345Y46990000D01*
X80309271Y47563489D01*
X79984415Y48049670D01*
X79962220Y48064500D01*
X80115698Y48128073D01*
X80294327Y48306701D01*
X80391000Y48540090D01*
X80391000Y49244250D01*
X80232250Y49403000D01*
X78867000Y49403000D01*
X78867000Y49383000D01*
X78613000Y49383000D01*
X78613000Y49403000D01*
X77247750Y49403000D01*
X77089000Y49244250D01*
X77089000Y48540090D01*
X77129186Y48443072D01*
X76547710Y49024548D01*
X76624670Y49075971D01*
X76949526Y49562152D01*
X77063600Y50135641D01*
X77063600Y50194359D01*
X76998844Y50519910D01*
X77089000Y50519910D01*
X77089000Y49815750D01*
X77247750Y49657000D01*
X78613000Y49657000D01*
X78613000Y50869850D01*
X78867000Y50869850D01*
X78867000Y49657000D01*
X80232250Y49657000D01*
X80391000Y49815750D01*
X80391000Y50519910D01*
X80294327Y50753299D01*
X80115698Y50931927D01*
X79882309Y51028600D01*
X79025750Y51028600D01*
X78867000Y50869850D01*
X78613000Y50869850D01*
X78454250Y51028600D01*
X77597691Y51028600D01*
X77364302Y50931927D01*
X77185673Y50753299D01*
X77089000Y50519910D01*
X76998844Y50519910D01*
X76949526Y50767848D01*
X76624670Y51254029D01*
X76353828Y51435000D01*
X76624670Y51615971D01*
X76949526Y52102152D01*
X77063600Y52675641D01*
X77063600Y52734359D01*
X76960005Y53255168D01*
X78252805Y52998014D01*
G36*
X64393996Y5566547D02*
X64345330Y5534029D01*
X64135000Y5219248D01*
X63924670Y5534029D01*
X63438489Y5858885D01*
X62865000Y5972959D01*
X62291511Y5858885D01*
X61805330Y5534029D01*
X61589336Y5210772D01*
X61531821Y5333490D01*
X61099947Y5727688D01*
X60684026Y5899958D01*
X60452000Y5778817D01*
X60452000Y4572000D01*
X60472000Y4572000D01*
X60472000Y4318000D01*
X60452000Y4318000D01*
X60452000Y4298000D01*
X60198000Y4298000D01*
X60198000Y4318000D01*
X60178000Y4318000D01*
X60178000Y4572000D01*
X60198000Y4572000D01*
X60198000Y5778817D01*
X59965974Y5899958D01*
X59840000Y5847781D01*
X59840000Y8573127D01*
X60325000Y8476655D01*
X60898489Y8590729D01*
X61181027Y8779515D01*
X64393996Y5566547D01*
X64393996Y5566547D01*
G37*
X64393996Y5566547D02*
X64345330Y5534029D01*
X64135000Y5219248D01*
X63924670Y5534029D01*
X63438489Y5858885D01*
X62865000Y5972959D01*
X62291511Y5858885D01*
X61805330Y5534029D01*
X61589336Y5210772D01*
X61531821Y5333490D01*
X61099947Y5727688D01*
X60684026Y5899958D01*
X60452000Y5778817D01*
X60452000Y4572000D01*
X60472000Y4572000D01*
X60472000Y4318000D01*
X60452000Y4318000D01*
X60452000Y4298000D01*
X60198000Y4298000D01*
X60198000Y4318000D01*
X60178000Y4318000D01*
X60178000Y4572000D01*
X60198000Y4572000D01*
X60198000Y5778817D01*
X59965974Y5899958D01*
X59840000Y5847781D01*
X59840000Y8573127D01*
X60325000Y8476655D01*
X60898489Y8590729D01*
X61181027Y8779515D01*
X64393996Y5566547D01*
G36*
X29602000Y23821323D02*
X29591786Y23831555D01*
X29229888Y23981828D01*
X28838031Y23982170D01*
X28475871Y23832529D01*
X28198545Y23555686D01*
X28048272Y23193788D01*
X28048210Y23122268D01*
X28017821Y23091879D01*
X27847655Y22837207D01*
X27808270Y22639207D01*
X27787900Y22536800D01*
X27787900Y20602632D01*
X27679791Y20654709D01*
X27664026Y20657358D01*
X27432000Y20536217D01*
X27432000Y19177000D01*
X27452000Y19177000D01*
X27452000Y18923000D01*
X27432000Y18923000D01*
X27432000Y17563783D01*
X27664026Y17442642D01*
X27679791Y17445291D01*
X27787900Y17497368D01*
X27787900Y11747290D01*
X27305000Y11843345D01*
X26731511Y11729271D01*
X26245330Y11404415D01*
X26038539Y11094931D01*
X25667036Y11510732D01*
X25139791Y11764709D01*
X25124026Y11767358D01*
X24892000Y11646217D01*
X24892000Y10287000D01*
X24912000Y10287000D01*
X24912000Y10033000D01*
X24892000Y10033000D01*
X24892000Y8673783D01*
X25124026Y8552642D01*
X25139791Y8555291D01*
X25667036Y8809268D01*
X26038539Y9225069D01*
X26245330Y8915585D01*
X26731511Y8590729D01*
X27305000Y8476655D01*
X27878489Y8590729D01*
X28364670Y8915585D01*
X28575000Y9230366D01*
X28785330Y8915585D01*
X29271511Y8590729D01*
X29845000Y8476655D01*
X30418489Y8590729D01*
X30904670Y8915585D01*
X30914243Y8929913D01*
X30918238Y8908683D01*
X31057310Y8692559D01*
X31269510Y8547569D01*
X31521400Y8496560D01*
X33248600Y8496560D01*
X33464040Y8537098D01*
X33099921Y8172979D01*
X32929755Y7918307D01*
X32929755Y7918306D01*
X32870000Y7617900D01*
X32870000Y5876487D01*
X32385000Y5972959D01*
X31811511Y5858885D01*
X31325330Y5534029D01*
X31115000Y5219248D01*
X30904670Y5534029D01*
X30418489Y5858885D01*
X29845000Y5972959D01*
X29271511Y5858885D01*
X28785330Y5534029D01*
X28575000Y5219248D01*
X28364670Y5534029D01*
X27878489Y5858885D01*
X27305000Y5972959D01*
X26731511Y5858885D01*
X26245330Y5534029D01*
X26035000Y5219248D01*
X25824670Y5534029D01*
X25781000Y5563208D01*
X25781000Y6578900D01*
X25703662Y6967706D01*
X25591879Y7135000D01*
X25483420Y7297321D01*
X24072321Y8708419D01*
X24390209Y8555291D01*
X24405974Y8552642D01*
X24638000Y8673783D01*
X24638000Y10033000D01*
X23424076Y10033000D01*
X23279816Y9798087D01*
X23439683Y9341057D01*
X22258827Y10521913D01*
X23279816Y10521913D01*
X23424076Y10287000D01*
X24638000Y10287000D01*
X24638000Y11646217D01*
X24405974Y11767358D01*
X24390209Y11764709D01*
X23862964Y11510732D01*
X23473046Y11074320D01*
X23279816Y10521913D01*
X22258827Y10521913D01*
X21902320Y10878420D01*
X21572707Y11098662D01*
X21508200Y11111493D01*
X21196040Y11173585D01*
X21196040Y11176000D01*
X21151762Y11411317D01*
X21012690Y11627441D01*
X20800490Y11772431D01*
X20548600Y11823440D01*
X18821400Y11823440D01*
X18586083Y11779162D01*
X18369959Y11640090D01*
X18224969Y11427890D01*
X18216600Y11386561D01*
X18204670Y11404415D01*
X18161000Y11433594D01*
X18161000Y12442406D01*
X18204670Y12471585D01*
X18214243Y12485913D01*
X18218238Y12464683D01*
X18357310Y12248559D01*
X18569510Y12103569D01*
X18821400Y12052560D01*
X20548600Y12052560D01*
X20783917Y12096838D01*
X21000041Y12235910D01*
X21145031Y12448110D01*
X21196040Y12700000D01*
X21196040Y14732000D01*
X21151762Y14967317D01*
X21012690Y15183441D01*
X20800490Y15328431D01*
X20548600Y15379440D01*
X18821400Y15379440D01*
X18586083Y15335162D01*
X18484038Y15269498D01*
X22046900Y18832359D01*
X22547679Y18331580D01*
X22877293Y18111338D01*
X22941800Y18098507D01*
X23253960Y18036415D01*
X23253960Y18034000D01*
X23298238Y17798683D01*
X23437310Y17582559D01*
X23649510Y17437569D01*
X23901400Y17386560D01*
X25628600Y17386560D01*
X25863917Y17430838D01*
X26080041Y17569910D01*
X26225031Y17782110D01*
X26244232Y17876927D01*
X26402964Y17699268D01*
X26930209Y17445291D01*
X26945974Y17442642D01*
X27178000Y17563783D01*
X27178000Y18923000D01*
X27158000Y18923000D01*
X27158000Y19177000D01*
X27178000Y19177000D01*
X27178000Y20536217D01*
X26945974Y20657358D01*
X26930209Y20654709D01*
X26402964Y20400732D01*
X26246093Y20225155D01*
X26231762Y20301317D01*
X26092690Y20517441D01*
X25880490Y20662431D01*
X25628600Y20713440D01*
X23901400Y20713440D01*
X23666083Y20669162D01*
X23449959Y20530090D01*
X23357771Y20395169D01*
X22963200Y20789740D01*
X22963200Y27051000D01*
X29591000Y27051000D01*
X29602000Y27053070D01*
X29602000Y23821323D01*
X29602000Y23821323D01*
G37*
X29602000Y23821323D02*
X29591786Y23831555D01*
X29229888Y23981828D01*
X28838031Y23982170D01*
X28475871Y23832529D01*
X28198545Y23555686D01*
X28048272Y23193788D01*
X28048210Y23122268D01*
X28017821Y23091879D01*
X27847655Y22837207D01*
X27808270Y22639207D01*
X27787900Y22536800D01*
X27787900Y20602632D01*
X27679791Y20654709D01*
X27664026Y20657358D01*
X27432000Y20536217D01*
X27432000Y19177000D01*
X27452000Y19177000D01*
X27452000Y18923000D01*
X27432000Y18923000D01*
X27432000Y17563783D01*
X27664026Y17442642D01*
X27679791Y17445291D01*
X27787900Y17497368D01*
X27787900Y11747290D01*
X27305000Y11843345D01*
X26731511Y11729271D01*
X26245330Y11404415D01*
X26038539Y11094931D01*
X25667036Y11510732D01*
X25139791Y11764709D01*
X25124026Y11767358D01*
X24892000Y11646217D01*
X24892000Y10287000D01*
X24912000Y10287000D01*
X24912000Y10033000D01*
X24892000Y10033000D01*
X24892000Y8673783D01*
X25124026Y8552642D01*
X25139791Y8555291D01*
X25667036Y8809268D01*
X26038539Y9225069D01*
X26245330Y8915585D01*
X26731511Y8590729D01*
X27305000Y8476655D01*
X27878489Y8590729D01*
X28364670Y8915585D01*
X28575000Y9230366D01*
X28785330Y8915585D01*
X29271511Y8590729D01*
X29845000Y8476655D01*
X30418489Y8590729D01*
X30904670Y8915585D01*
X30914243Y8929913D01*
X30918238Y8908683D01*
X31057310Y8692559D01*
X31269510Y8547569D01*
X31521400Y8496560D01*
X33248600Y8496560D01*
X33464040Y8537098D01*
X33099921Y8172979D01*
X32929755Y7918307D01*
X32929755Y7918306D01*
X32870000Y7617900D01*
X32870000Y5876487D01*
X32385000Y5972959D01*
X31811511Y5858885D01*
X31325330Y5534029D01*
X31115000Y5219248D01*
X30904670Y5534029D01*
X30418489Y5858885D01*
X29845000Y5972959D01*
X29271511Y5858885D01*
X28785330Y5534029D01*
X28575000Y5219248D01*
X28364670Y5534029D01*
X27878489Y5858885D01*
X27305000Y5972959D01*
X26731511Y5858885D01*
X26245330Y5534029D01*
X26035000Y5219248D01*
X25824670Y5534029D01*
X25781000Y5563208D01*
X25781000Y6578900D01*
X25703662Y6967706D01*
X25591879Y7135000D01*
X25483420Y7297321D01*
X24072321Y8708419D01*
X24390209Y8555291D01*
X24405974Y8552642D01*
X24638000Y8673783D01*
X24638000Y10033000D01*
X23424076Y10033000D01*
X23279816Y9798087D01*
X23439683Y9341057D01*
X22258827Y10521913D01*
X23279816Y10521913D01*
X23424076Y10287000D01*
X24638000Y10287000D01*
X24638000Y11646217D01*
X24405974Y11767358D01*
X24390209Y11764709D01*
X23862964Y11510732D01*
X23473046Y11074320D01*
X23279816Y10521913D01*
X22258827Y10521913D01*
X21902320Y10878420D01*
X21572707Y11098662D01*
X21508200Y11111493D01*
X21196040Y11173585D01*
X21196040Y11176000D01*
X21151762Y11411317D01*
X21012690Y11627441D01*
X20800490Y11772431D01*
X20548600Y11823440D01*
X18821400Y11823440D01*
X18586083Y11779162D01*
X18369959Y11640090D01*
X18224969Y11427890D01*
X18216600Y11386561D01*
X18204670Y11404415D01*
X18161000Y11433594D01*
X18161000Y12442406D01*
X18204670Y12471585D01*
X18214243Y12485913D01*
X18218238Y12464683D01*
X18357310Y12248559D01*
X18569510Y12103569D01*
X18821400Y12052560D01*
X20548600Y12052560D01*
X20783917Y12096838D01*
X21000041Y12235910D01*
X21145031Y12448110D01*
X21196040Y12700000D01*
X21196040Y14732000D01*
X21151762Y14967317D01*
X21012690Y15183441D01*
X20800490Y15328431D01*
X20548600Y15379440D01*
X18821400Y15379440D01*
X18586083Y15335162D01*
X18484038Y15269498D01*
X22046900Y18832359D01*
X22547679Y18331580D01*
X22877293Y18111338D01*
X22941800Y18098507D01*
X23253960Y18036415D01*
X23253960Y18034000D01*
X23298238Y17798683D01*
X23437310Y17582559D01*
X23649510Y17437569D01*
X23901400Y17386560D01*
X25628600Y17386560D01*
X25863917Y17430838D01*
X26080041Y17569910D01*
X26225031Y17782110D01*
X26244232Y17876927D01*
X26402964Y17699268D01*
X26930209Y17445291D01*
X26945974Y17442642D01*
X27178000Y17563783D01*
X27178000Y18923000D01*
X27158000Y18923000D01*
X27158000Y19177000D01*
X27178000Y19177000D01*
X27178000Y20536217D01*
X26945974Y20657358D01*
X26930209Y20654709D01*
X26402964Y20400732D01*
X26246093Y20225155D01*
X26231762Y20301317D01*
X26092690Y20517441D01*
X25880490Y20662431D01*
X25628600Y20713440D01*
X23901400Y20713440D01*
X23666083Y20669162D01*
X23449959Y20530090D01*
X23357771Y20395169D01*
X22963200Y20789740D01*
X22963200Y27051000D01*
X29591000Y27051000D01*
X29602000Y27053070D01*
X29602000Y23821323D01*
G36*
X66117821Y17227021D02*
X68432100Y14912742D01*
X68432100Y11746455D01*
X67945000Y11843345D01*
X67371511Y11729271D01*
X66885330Y11404415D01*
X66678539Y11094931D01*
X66307036Y11510732D01*
X65779791Y11764709D01*
X65764026Y11767358D01*
X65532000Y11646217D01*
X65532000Y10287000D01*
X65552000Y10287000D01*
X65552000Y10033000D01*
X65532000Y10033000D01*
X65532000Y10013000D01*
X65278000Y10013000D01*
X65278000Y10033000D01*
X65258000Y10033000D01*
X65258000Y10287000D01*
X65278000Y10287000D01*
X65278000Y11646217D01*
X65206400Y11683599D01*
X65206400Y11926600D01*
X65146645Y12227006D01*
X64976479Y12481679D01*
X64920000Y12538158D01*
X64920000Y17463127D01*
X65405000Y17366655D01*
X65951841Y17475428D01*
X66117821Y17227021D01*
X66117821Y17227021D01*
G37*
X66117821Y17227021D02*
X68432100Y14912742D01*
X68432100Y11746455D01*
X67945000Y11843345D01*
X67371511Y11729271D01*
X66885330Y11404415D01*
X66678539Y11094931D01*
X66307036Y11510732D01*
X65779791Y11764709D01*
X65764026Y11767358D01*
X65532000Y11646217D01*
X65532000Y10287000D01*
X65552000Y10287000D01*
X65552000Y10033000D01*
X65532000Y10033000D01*
X65532000Y10013000D01*
X65278000Y10013000D01*
X65278000Y10033000D01*
X65258000Y10033000D01*
X65258000Y10287000D01*
X65278000Y10287000D01*
X65278000Y11646217D01*
X65206400Y11683599D01*
X65206400Y11926600D01*
X65146645Y12227006D01*
X64976479Y12481679D01*
X64920000Y12538158D01*
X64920000Y17463127D01*
X65405000Y17366655D01*
X65951841Y17475428D01*
X66117821Y17227021D01*
G36*
X47752000Y19177000D02*
X47772000Y19177000D01*
X47772000Y18923000D01*
X47752000Y18923000D01*
X47752000Y17563783D01*
X47984026Y17442642D01*
X47999791Y17445291D01*
X48110200Y17498476D01*
X48110200Y17057458D01*
X43259921Y12207179D01*
X43089755Y11952507D01*
X43051729Y11761338D01*
X43040804Y11706416D01*
X42919791Y11764709D01*
X42904026Y11767358D01*
X42672000Y11646217D01*
X42672000Y10287000D01*
X42692000Y10287000D01*
X42692000Y10033000D01*
X42672000Y10033000D01*
X42672000Y10013000D01*
X42418000Y10013000D01*
X42418000Y10033000D01*
X42398000Y10033000D01*
X42398000Y10287000D01*
X42418000Y10287000D01*
X42418000Y11646217D01*
X42185974Y11767358D01*
X42170209Y11764709D01*
X42062100Y11712632D01*
X42062100Y17462710D01*
X42545000Y17366655D01*
X43118489Y17480729D01*
X43604670Y17805585D01*
X43815000Y18120366D01*
X44025330Y17805585D01*
X44511511Y17480729D01*
X45085000Y17366655D01*
X45658489Y17480729D01*
X46144670Y17805585D01*
X46351461Y18115069D01*
X46722964Y17699268D01*
X47250209Y17445291D01*
X47265974Y17442642D01*
X47498000Y17563783D01*
X47498000Y18923000D01*
X47478000Y18923000D01*
X47478000Y19177000D01*
X47498000Y19177000D01*
X47498000Y19197000D01*
X47752000Y19197000D01*
X47752000Y19177000D01*
X47752000Y19177000D01*
G37*
X47752000Y19177000D02*
X47772000Y19177000D01*
X47772000Y18923000D01*
X47752000Y18923000D01*
X47752000Y17563783D01*
X47984026Y17442642D01*
X47999791Y17445291D01*
X48110200Y17498476D01*
X48110200Y17057458D01*
X43259921Y12207179D01*
X43089755Y11952507D01*
X43051729Y11761338D01*
X43040804Y11706416D01*
X42919791Y11764709D01*
X42904026Y11767358D01*
X42672000Y11646217D01*
X42672000Y10287000D01*
X42692000Y10287000D01*
X42692000Y10033000D01*
X42672000Y10033000D01*
X42672000Y10013000D01*
X42418000Y10013000D01*
X42418000Y10033000D01*
X42398000Y10033000D01*
X42398000Y10287000D01*
X42418000Y10287000D01*
X42418000Y11646217D01*
X42185974Y11767358D01*
X42170209Y11764709D01*
X42062100Y11712632D01*
X42062100Y17462710D01*
X42545000Y17366655D01*
X43118489Y17480729D01*
X43604670Y17805585D01*
X43815000Y18120366D01*
X44025330Y17805585D01*
X44511511Y17480729D01*
X45085000Y17366655D01*
X45658489Y17480729D01*
X46144670Y17805585D01*
X46351461Y18115069D01*
X46722964Y17699268D01*
X47250209Y17445291D01*
X47265974Y17442642D01*
X47498000Y17563783D01*
X47498000Y18923000D01*
X47478000Y18923000D01*
X47478000Y19177000D01*
X47498000Y19177000D01*
X47498000Y19197000D01*
X47752000Y19197000D01*
X47752000Y19177000D01*
G36*
X69192110Y40297569D02*
X69444000Y40246560D01*
X71095400Y40246560D01*
X71095400Y38493440D01*
X69596400Y38493440D01*
X69361083Y38449162D01*
X69144959Y38310090D01*
X68999969Y38097890D01*
X68991600Y38056561D01*
X68979670Y38074415D01*
X68493489Y38399271D01*
X67920000Y38513345D01*
X67346511Y38399271D01*
X66860330Y38074415D01*
X66653539Y37764931D01*
X66282036Y38180732D01*
X65754791Y38434709D01*
X65739026Y38437358D01*
X65507000Y38316217D01*
X65507000Y36957000D01*
X65527000Y36957000D01*
X65527000Y36703000D01*
X65507000Y36703000D01*
X65507000Y35343783D01*
X65739026Y35222642D01*
X65754791Y35225291D01*
X66282036Y35479268D01*
X66653539Y35895069D01*
X66860330Y35585585D01*
X67346511Y35260729D01*
X67920000Y35146655D01*
X68493489Y35260729D01*
X68979670Y35585585D01*
X68989243Y35599913D01*
X68993238Y35578683D01*
X69132310Y35362559D01*
X69344510Y35217569D01*
X69596400Y35166560D01*
X71095400Y35166560D01*
X71095400Y35000200D01*
X71155155Y34699793D01*
X71325321Y34445121D01*
X74728200Y31042242D01*
X74728200Y26676900D01*
X74787955Y26376493D01*
X74958121Y26121821D01*
X77361277Y23718665D01*
X77170729Y23433489D01*
X77056655Y22860000D01*
X77170729Y22286511D01*
X77495585Y21800330D01*
X77810366Y21590000D01*
X77495585Y21379670D01*
X77170729Y20893489D01*
X77056655Y20320000D01*
X77170729Y19746511D01*
X77495585Y19260330D01*
X77810366Y19050000D01*
X77495585Y18839670D01*
X77170729Y18353489D01*
X77098714Y17991444D01*
X73106879Y21983279D01*
X72852207Y22153445D01*
X72551800Y22213200D01*
X68573458Y22213200D01*
X66402658Y24384000D01*
X72771000Y24384000D01*
X72817159Y24392685D01*
X72859553Y24419965D01*
X72887994Y24461590D01*
X72898000Y24511000D01*
X72898000Y31496000D01*
X72889315Y31542159D01*
X72862035Y31584553D01*
X72820410Y31612994D01*
X72771000Y31623000D01*
X66310266Y31623000D01*
X66525755Y31838114D01*
X66676028Y32200012D01*
X66676370Y32591869D01*
X66526729Y32954029D01*
X66476200Y33004646D01*
X66476200Y33636200D01*
X66416445Y33936606D01*
X66416445Y33936607D01*
X66246279Y34191279D01*
X65148391Y35289167D01*
X65253000Y35343783D01*
X65253000Y36703000D01*
X65233000Y36703000D01*
X65233000Y36957000D01*
X65253000Y36957000D01*
X65253000Y38316217D01*
X65020974Y38437358D01*
X65005209Y38434709D01*
X64725100Y38299779D01*
X64725100Y40246560D01*
X66396000Y40246560D01*
X66631317Y40290838D01*
X66647099Y40300993D01*
X66652110Y40297569D01*
X66904000Y40246560D01*
X68936000Y40246560D01*
X69171317Y40290838D01*
X69187099Y40300993D01*
X69192110Y40297569D01*
X69192110Y40297569D01*
G37*
X69192110Y40297569D02*
X69444000Y40246560D01*
X71095400Y40246560D01*
X71095400Y38493440D01*
X69596400Y38493440D01*
X69361083Y38449162D01*
X69144959Y38310090D01*
X68999969Y38097890D01*
X68991600Y38056561D01*
X68979670Y38074415D01*
X68493489Y38399271D01*
X67920000Y38513345D01*
X67346511Y38399271D01*
X66860330Y38074415D01*
X66653539Y37764931D01*
X66282036Y38180732D01*
X65754791Y38434709D01*
X65739026Y38437358D01*
X65507000Y38316217D01*
X65507000Y36957000D01*
X65527000Y36957000D01*
X65527000Y36703000D01*
X65507000Y36703000D01*
X65507000Y35343783D01*
X65739026Y35222642D01*
X65754791Y35225291D01*
X66282036Y35479268D01*
X66653539Y35895069D01*
X66860330Y35585585D01*
X67346511Y35260729D01*
X67920000Y35146655D01*
X68493489Y35260729D01*
X68979670Y35585585D01*
X68989243Y35599913D01*
X68993238Y35578683D01*
X69132310Y35362559D01*
X69344510Y35217569D01*
X69596400Y35166560D01*
X71095400Y35166560D01*
X71095400Y35000200D01*
X71155155Y34699793D01*
X71325321Y34445121D01*
X74728200Y31042242D01*
X74728200Y26676900D01*
X74787955Y26376493D01*
X74958121Y26121821D01*
X77361277Y23718665D01*
X77170729Y23433489D01*
X77056655Y22860000D01*
X77170729Y22286511D01*
X77495585Y21800330D01*
X77810366Y21590000D01*
X77495585Y21379670D01*
X77170729Y20893489D01*
X77056655Y20320000D01*
X77170729Y19746511D01*
X77495585Y19260330D01*
X77810366Y19050000D01*
X77495585Y18839670D01*
X77170729Y18353489D01*
X77098714Y17991444D01*
X73106879Y21983279D01*
X72852207Y22153445D01*
X72551800Y22213200D01*
X68573458Y22213200D01*
X66402658Y24384000D01*
X72771000Y24384000D01*
X72817159Y24392685D01*
X72859553Y24419965D01*
X72887994Y24461590D01*
X72898000Y24511000D01*
X72898000Y31496000D01*
X72889315Y31542159D01*
X72862035Y31584553D01*
X72820410Y31612994D01*
X72771000Y31623000D01*
X66310266Y31623000D01*
X66525755Y31838114D01*
X66676028Y32200012D01*
X66676370Y32591869D01*
X66526729Y32954029D01*
X66476200Y33004646D01*
X66476200Y33636200D01*
X66416445Y33936606D01*
X66416445Y33936607D01*
X66246279Y34191279D01*
X65148391Y35289167D01*
X65253000Y35343783D01*
X65253000Y36703000D01*
X65233000Y36703000D01*
X65233000Y36957000D01*
X65253000Y36957000D01*
X65253000Y38316217D01*
X65020974Y38437358D01*
X65005209Y38434709D01*
X64725100Y38299779D01*
X64725100Y40246560D01*
X66396000Y40246560D01*
X66631317Y40290838D01*
X66647099Y40300993D01*
X66652110Y40297569D01*
X66904000Y40246560D01*
X68936000Y40246560D01*
X69171317Y40290838D01*
X69187099Y40300993D01*
X69192110Y40297569D01*
G36*
X55275600Y35164743D02*
X54859623Y35149341D01*
X54371042Y34946965D01*
X54272443Y34680163D01*
X55245000Y33707605D01*
X55259143Y33721747D01*
X55438748Y33542142D01*
X55424605Y33528000D01*
X56397163Y32555443D01*
X56433099Y32568724D01*
X56857927Y32143154D01*
X57458453Y31893794D01*
X58108694Y31893226D01*
X58709655Y32141538D01*
X59055199Y32486480D01*
X59397927Y32143154D01*
X59998453Y31893794D01*
X60648694Y31893226D01*
X60790870Y31951972D01*
X63527500Y29215342D01*
X63527500Y24862706D01*
X63191547Y25002206D01*
X62541306Y25002774D01*
X61940345Y24754462D01*
X61512599Y24327461D01*
X61477163Y24340557D01*
X60504605Y23368000D01*
X61477163Y22395443D01*
X61513099Y22408724D01*
X61937927Y21983154D01*
X62538453Y21733794D01*
X63188694Y21733226D01*
X63380358Y21812420D01*
X63368300Y21751800D01*
X63350000Y21659800D01*
X63350000Y20636873D01*
X62865000Y20733345D01*
X62291511Y20619271D01*
X62276885Y20609499D01*
X62216380Y20700052D01*
X62216470Y20802969D01*
X62066829Y21165129D01*
X61789986Y21442455D01*
X61428088Y21592728D01*
X61036231Y21593070D01*
X60674071Y21443429D01*
X60396745Y21166586D01*
X60246472Y20804688D01*
X60246396Y20717710D01*
X59841563Y20637184D01*
X59615686Y20863455D01*
X59253788Y21013728D01*
X58861931Y21014070D01*
X58499771Y20864429D01*
X58247407Y20612504D01*
X58159791Y20654709D01*
X58144026Y20657358D01*
X57912000Y20536217D01*
X57912000Y19177000D01*
X57932000Y19177000D01*
X57932000Y18923000D01*
X57912000Y18923000D01*
X57912000Y18903000D01*
X57658000Y18903000D01*
X57658000Y18923000D01*
X57638000Y18923000D01*
X57638000Y19177000D01*
X57658000Y19177000D01*
X57658000Y20536217D01*
X57425974Y20657358D01*
X57410209Y20654709D01*
X57242099Y20573730D01*
X57238245Y20593106D01*
X57068079Y20847779D01*
X56271879Y21643979D01*
X56017207Y21814145D01*
X55846643Y21848072D01*
X56169655Y21981538D01*
X56515199Y22326480D01*
X56857927Y21983154D01*
X57458453Y21733794D01*
X58108694Y21733226D01*
X58709655Y21981538D01*
X58944362Y22215837D01*
X59352443Y22215837D01*
X59451042Y21949035D01*
X60060582Y21722599D01*
X60710377Y21746659D01*
X61198958Y21949035D01*
X61297557Y22215837D01*
X60325000Y23188395D01*
X59352443Y22215837D01*
X58944362Y22215837D01*
X59137401Y22408539D01*
X59172837Y22395443D01*
X60145395Y23368000D01*
X59172837Y24340557D01*
X59136901Y24327276D01*
X58944351Y24520163D01*
X59352443Y24520163D01*
X60325000Y23547605D01*
X61297557Y24520163D01*
X61198958Y24786965D01*
X60589418Y25013401D01*
X59939623Y24989341D01*
X59451042Y24786965D01*
X59352443Y24520163D01*
X58944351Y24520163D01*
X58712073Y24752846D01*
X58111547Y25002206D01*
X57461306Y25002774D01*
X56860345Y24754462D01*
X56514801Y24409520D01*
X56172073Y24752846D01*
X55571547Y25002206D01*
X54921306Y25002774D01*
X54320345Y24754462D01*
X53974801Y24409520D01*
X53632073Y24752846D01*
X53031547Y25002206D01*
X52381306Y25002774D01*
X51886900Y24798490D01*
X51886900Y32097904D01*
X52378453Y31893794D01*
X53028694Y31893226D01*
X53629655Y32141538D01*
X53864362Y32375837D01*
X54272443Y32375837D01*
X54371042Y32109035D01*
X54980582Y31882599D01*
X55630377Y31906659D01*
X56118958Y32109035D01*
X56217557Y32375837D01*
X55245000Y33348395D01*
X54272443Y32375837D01*
X53864362Y32375837D01*
X54057401Y32568539D01*
X54092837Y32555443D01*
X55065395Y33528000D01*
X54092837Y34500557D01*
X54056901Y34487276D01*
X53632073Y34912846D01*
X53031547Y35162206D01*
X52381306Y35162774D01*
X51780345Y34914462D01*
X51405344Y34540114D01*
X50509955Y35435503D01*
X50714151Y35476120D01*
X51179698Y35787189D01*
X51369412Y36071115D01*
X51500700Y36045000D01*
X51518038Y36045000D01*
X51690302Y35787189D01*
X52155849Y35476120D01*
X52705000Y35366887D01*
X53254151Y35476120D01*
X53719698Y35787189D01*
X54030767Y36252736D01*
X54056788Y36383554D01*
X55275600Y35164743D01*
X55275600Y35164743D01*
G37*
X55275600Y35164743D02*
X54859623Y35149341D01*
X54371042Y34946965D01*
X54272443Y34680163D01*
X55245000Y33707605D01*
X55259143Y33721747D01*
X55438748Y33542142D01*
X55424605Y33528000D01*
X56397163Y32555443D01*
X56433099Y32568724D01*
X56857927Y32143154D01*
X57458453Y31893794D01*
X58108694Y31893226D01*
X58709655Y32141538D01*
X59055199Y32486480D01*
X59397927Y32143154D01*
X59998453Y31893794D01*
X60648694Y31893226D01*
X60790870Y31951972D01*
X63527500Y29215342D01*
X63527500Y24862706D01*
X63191547Y25002206D01*
X62541306Y25002774D01*
X61940345Y24754462D01*
X61512599Y24327461D01*
X61477163Y24340557D01*
X60504605Y23368000D01*
X61477163Y22395443D01*
X61513099Y22408724D01*
X61937927Y21983154D01*
X62538453Y21733794D01*
X63188694Y21733226D01*
X63380358Y21812420D01*
X63368300Y21751800D01*
X63350000Y21659800D01*
X63350000Y20636873D01*
X62865000Y20733345D01*
X62291511Y20619271D01*
X62276885Y20609499D01*
X62216380Y20700052D01*
X62216470Y20802969D01*
X62066829Y21165129D01*
X61789986Y21442455D01*
X61428088Y21592728D01*
X61036231Y21593070D01*
X60674071Y21443429D01*
X60396745Y21166586D01*
X60246472Y20804688D01*
X60246396Y20717710D01*
X59841563Y20637184D01*
X59615686Y20863455D01*
X59253788Y21013728D01*
X58861931Y21014070D01*
X58499771Y20864429D01*
X58247407Y20612504D01*
X58159791Y20654709D01*
X58144026Y20657358D01*
X57912000Y20536217D01*
X57912000Y19177000D01*
X57932000Y19177000D01*
X57932000Y18923000D01*
X57912000Y18923000D01*
X57912000Y18903000D01*
X57658000Y18903000D01*
X57658000Y18923000D01*
X57638000Y18923000D01*
X57638000Y19177000D01*
X57658000Y19177000D01*
X57658000Y20536217D01*
X57425974Y20657358D01*
X57410209Y20654709D01*
X57242099Y20573730D01*
X57238245Y20593106D01*
X57068079Y20847779D01*
X56271879Y21643979D01*
X56017207Y21814145D01*
X55846643Y21848072D01*
X56169655Y21981538D01*
X56515199Y22326480D01*
X56857927Y21983154D01*
X57458453Y21733794D01*
X58108694Y21733226D01*
X58709655Y21981538D01*
X58944362Y22215837D01*
X59352443Y22215837D01*
X59451042Y21949035D01*
X60060582Y21722599D01*
X60710377Y21746659D01*
X61198958Y21949035D01*
X61297557Y22215837D01*
X60325000Y23188395D01*
X59352443Y22215837D01*
X58944362Y22215837D01*
X59137401Y22408539D01*
X59172837Y22395443D01*
X60145395Y23368000D01*
X59172837Y24340557D01*
X59136901Y24327276D01*
X58944351Y24520163D01*
X59352443Y24520163D01*
X60325000Y23547605D01*
X61297557Y24520163D01*
X61198958Y24786965D01*
X60589418Y25013401D01*
X59939623Y24989341D01*
X59451042Y24786965D01*
X59352443Y24520163D01*
X58944351Y24520163D01*
X58712073Y24752846D01*
X58111547Y25002206D01*
X57461306Y25002774D01*
X56860345Y24754462D01*
X56514801Y24409520D01*
X56172073Y24752846D01*
X55571547Y25002206D01*
X54921306Y25002774D01*
X54320345Y24754462D01*
X53974801Y24409520D01*
X53632073Y24752846D01*
X53031547Y25002206D01*
X52381306Y25002774D01*
X51886900Y24798490D01*
X51886900Y32097904D01*
X52378453Y31893794D01*
X53028694Y31893226D01*
X53629655Y32141538D01*
X53864362Y32375837D01*
X54272443Y32375837D01*
X54371042Y32109035D01*
X54980582Y31882599D01*
X55630377Y31906659D01*
X56118958Y32109035D01*
X56217557Y32375837D01*
X55245000Y33348395D01*
X54272443Y32375837D01*
X53864362Y32375837D01*
X54057401Y32568539D01*
X54092837Y32555443D01*
X55065395Y33528000D01*
X54092837Y34500557D01*
X54056901Y34487276D01*
X53632073Y34912846D01*
X53031547Y35162206D01*
X52381306Y35162774D01*
X51780345Y34914462D01*
X51405344Y34540114D01*
X50509955Y35435503D01*
X50714151Y35476120D01*
X51179698Y35787189D01*
X51369412Y36071115D01*
X51500700Y36045000D01*
X51518038Y36045000D01*
X51690302Y35787189D01*
X52155849Y35476120D01*
X52705000Y35366887D01*
X53254151Y35476120D01*
X53719698Y35787189D01*
X54030767Y36252736D01*
X54056788Y36383554D01*
X55275600Y35164743D01*
G36*
X36197100Y49380000D02*
X36202184Y49380000D01*
X36405330Y49075971D01*
X36891511Y48751115D01*
X37465000Y48637041D01*
X37950000Y48733513D01*
X37950000Y48081458D01*
X35720563Y45852021D01*
X35299791Y46054709D01*
X35284026Y46057358D01*
X35052000Y45936217D01*
X35052000Y44577000D01*
X35072000Y44577000D01*
X35072000Y44323000D01*
X35052000Y44323000D01*
X35052000Y42963783D01*
X35284026Y42842642D01*
X35299791Y42845291D01*
X35410000Y42898379D01*
X35410000Y38393458D01*
X35189418Y38475401D01*
X34539623Y38451341D01*
X34051042Y38248965D01*
X33952443Y37982163D01*
X34925000Y37009605D01*
X34939142Y37023748D01*
X35118748Y36844142D01*
X35104605Y36830000D01*
X36077163Y35857443D01*
X36113099Y35870724D01*
X36537927Y35445154D01*
X37138453Y35195794D01*
X37788694Y35195226D01*
X38389655Y35443538D01*
X38735199Y35788480D01*
X39077927Y35445154D01*
X39678453Y35195794D01*
X40328694Y35195226D01*
X40929655Y35443538D01*
X41389846Y35902927D01*
X41639206Y36503453D01*
X41639774Y37153694D01*
X41391462Y37754655D01*
X40932073Y38214846D01*
X40331547Y38464206D01*
X39681306Y38464774D01*
X39080345Y38216462D01*
X38734801Y37871520D01*
X38392073Y38214846D01*
X37791547Y38464206D01*
X37141306Y38464774D01*
X36999130Y38406028D01*
X36980000Y38425158D01*
X36980000Y41924313D01*
X37076194Y41860038D01*
X37465000Y41782700D01*
X41354000Y41782700D01*
X41678300Y41847207D01*
X41742807Y41860038D01*
X42072420Y42080280D01*
X43821588Y43829447D01*
X43932611Y43594866D01*
X44347577Y43218959D01*
X44735961Y43058096D01*
X44958000Y43180085D01*
X44958000Y44323000D01*
X44938000Y44323000D01*
X44938000Y44577000D01*
X44958000Y44577000D01*
X44958000Y44597000D01*
X45212000Y44597000D01*
X45212000Y44577000D01*
X45232000Y44577000D01*
X45232000Y44323000D01*
X45212000Y44323000D01*
X45212000Y43180085D01*
X45434039Y43058096D01*
X45822423Y43218959D01*
X46237389Y43594866D01*
X46340014Y43811703D01*
X46610302Y43407189D01*
X47075849Y43096120D01*
X47625000Y42986887D01*
X48174151Y43096120D01*
X48639698Y43407189D01*
X48895000Y43789275D01*
X49150302Y43407189D01*
X49380000Y43253709D01*
X49380000Y41385500D01*
X49439755Y41085093D01*
X49609921Y40830421D01*
X52239770Y38200573D01*
X52155849Y38183880D01*
X51842591Y37974567D01*
X51214079Y38603079D01*
X50959407Y38773245D01*
X50659000Y38833000D01*
X44594000Y38833000D01*
X44293593Y38773245D01*
X44038921Y38603079D01*
X42084021Y36648179D01*
X41913855Y36393507D01*
X41871541Y36180779D01*
X41854100Y36093100D01*
X41854100Y26611400D01*
X41913855Y26310993D01*
X42084021Y26056321D01*
X47497998Y20642345D01*
X47497998Y20536218D01*
X47265974Y20657358D01*
X47250209Y20654709D01*
X46722964Y20400732D01*
X46351461Y19984931D01*
X46144670Y20294415D01*
X45658489Y20619271D01*
X45085000Y20733345D01*
X44511511Y20619271D01*
X44025330Y20294415D01*
X43815000Y19979634D01*
X43604670Y20294415D01*
X43118489Y20619271D01*
X42545000Y20733345D01*
X41971511Y20619271D01*
X41485330Y20294415D01*
X41275000Y19979634D01*
X41064670Y20294415D01*
X40578489Y20619271D01*
X40005000Y20733345D01*
X39431511Y20619271D01*
X38945330Y20294415D01*
X38735000Y19979634D01*
X38524670Y20294415D01*
X38038489Y20619271D01*
X37465000Y20733345D01*
X36891511Y20619271D01*
X36405330Y20294415D01*
X36195000Y19979634D01*
X35984670Y20294415D01*
X35498489Y20619271D01*
X34925000Y20733345D01*
X34351511Y20619271D01*
X33865330Y20294415D01*
X33655000Y19979634D01*
X33444670Y20294415D01*
X32958489Y20619271D01*
X32385000Y20733345D01*
X31897900Y20636455D01*
X31897900Y22564895D01*
X31897901Y22564900D01*
X31838145Y22865306D01*
X31667979Y23119979D01*
X31172000Y23615958D01*
X31172000Y25571580D01*
X31457927Y25285154D01*
X32058453Y25035794D01*
X32708694Y25035226D01*
X33309655Y25283538D01*
X33655199Y25628480D01*
X33997927Y25285154D01*
X34598453Y25035794D01*
X35248694Y25035226D01*
X35849655Y25283538D01*
X36084362Y25517837D01*
X36492443Y25517837D01*
X36591042Y25251035D01*
X37200582Y25024599D01*
X37850377Y25048659D01*
X38338958Y25251035D01*
X38437557Y25517837D01*
X37465000Y26490395D01*
X36492443Y25517837D01*
X36084362Y25517837D01*
X36277401Y25710539D01*
X36312837Y25697443D01*
X37285395Y26670000D01*
X37644605Y26670000D01*
X38617163Y25697443D01*
X38653099Y25710724D01*
X39077927Y25285154D01*
X39678453Y25035794D01*
X40328694Y25035226D01*
X40929655Y25283538D01*
X41389846Y25742927D01*
X41639206Y26343453D01*
X41639774Y26993694D01*
X41391462Y27594655D01*
X40932073Y28054846D01*
X40331547Y28304206D01*
X39681306Y28304774D01*
X39080345Y28056462D01*
X38652599Y27629461D01*
X38617163Y27642557D01*
X37644605Y26670000D01*
X37285395Y26670000D01*
X36312837Y27642557D01*
X36276901Y27629276D01*
X36084351Y27822163D01*
X36492443Y27822163D01*
X37465000Y26849605D01*
X38437557Y27822163D01*
X38338958Y28088965D01*
X37729418Y28315401D01*
X37079623Y28291341D01*
X36591042Y28088965D01*
X36492443Y27822163D01*
X36084351Y27822163D01*
X35852073Y28054846D01*
X35251547Y28304206D01*
X34601306Y28304774D01*
X34000345Y28056462D01*
X33654801Y27711520D01*
X33312073Y28054846D01*
X32711547Y28304206D01*
X32061306Y28304774D01*
X31919130Y28246028D01*
X31726400Y28438758D01*
X31726400Y35333674D01*
X32058453Y35195794D01*
X32708694Y35195226D01*
X33309655Y35443538D01*
X33544362Y35677837D01*
X33952443Y35677837D01*
X34051042Y35411035D01*
X34660582Y35184599D01*
X35310377Y35208659D01*
X35798958Y35411035D01*
X35897557Y35677837D01*
X34925000Y36650395D01*
X33952443Y35677837D01*
X33544362Y35677837D01*
X33737401Y35870539D01*
X33772837Y35857443D01*
X34745395Y36830000D01*
X33772837Y37802557D01*
X33736901Y37789276D01*
X33312073Y38214846D01*
X33017091Y38337333D01*
X34212079Y39532321D01*
X34382245Y39786993D01*
X34442000Y40087400D01*
X34442000Y42897416D01*
X34550209Y42845291D01*
X34565974Y42842642D01*
X34798000Y42963783D01*
X34798000Y44323000D01*
X34778000Y44323000D01*
X34778000Y44577000D01*
X34798000Y44577000D01*
X34798000Y45936217D01*
X34565974Y46057358D01*
X34550209Y46054709D01*
X34442000Y46002584D01*
X34442000Y48733116D01*
X34925000Y48637041D01*
X35498489Y48751115D01*
X35984670Y49075971D01*
X36188905Y49381630D01*
X36197100Y49380000D01*
X36197100Y49380000D01*
G37*
X36197100Y49380000D02*
X36202184Y49380000D01*
X36405330Y49075971D01*
X36891511Y48751115D01*
X37465000Y48637041D01*
X37950000Y48733513D01*
X37950000Y48081458D01*
X35720563Y45852021D01*
X35299791Y46054709D01*
X35284026Y46057358D01*
X35052000Y45936217D01*
X35052000Y44577000D01*
X35072000Y44577000D01*
X35072000Y44323000D01*
X35052000Y44323000D01*
X35052000Y42963783D01*
X35284026Y42842642D01*
X35299791Y42845291D01*
X35410000Y42898379D01*
X35410000Y38393458D01*
X35189418Y38475401D01*
X34539623Y38451341D01*
X34051042Y38248965D01*
X33952443Y37982163D01*
X34925000Y37009605D01*
X34939142Y37023748D01*
X35118748Y36844142D01*
X35104605Y36830000D01*
X36077163Y35857443D01*
X36113099Y35870724D01*
X36537927Y35445154D01*
X37138453Y35195794D01*
X37788694Y35195226D01*
X38389655Y35443538D01*
X38735199Y35788480D01*
X39077927Y35445154D01*
X39678453Y35195794D01*
X40328694Y35195226D01*
X40929655Y35443538D01*
X41389846Y35902927D01*
X41639206Y36503453D01*
X41639774Y37153694D01*
X41391462Y37754655D01*
X40932073Y38214846D01*
X40331547Y38464206D01*
X39681306Y38464774D01*
X39080345Y38216462D01*
X38734801Y37871520D01*
X38392073Y38214846D01*
X37791547Y38464206D01*
X37141306Y38464774D01*
X36999130Y38406028D01*
X36980000Y38425158D01*
X36980000Y41924313D01*
X37076194Y41860038D01*
X37465000Y41782700D01*
X41354000Y41782700D01*
X41678300Y41847207D01*
X41742807Y41860038D01*
X42072420Y42080280D01*
X43821588Y43829447D01*
X43932611Y43594866D01*
X44347577Y43218959D01*
X44735961Y43058096D01*
X44958000Y43180085D01*
X44958000Y44323000D01*
X44938000Y44323000D01*
X44938000Y44577000D01*
X44958000Y44577000D01*
X44958000Y44597000D01*
X45212000Y44597000D01*
X45212000Y44577000D01*
X45232000Y44577000D01*
X45232000Y44323000D01*
X45212000Y44323000D01*
X45212000Y43180085D01*
X45434039Y43058096D01*
X45822423Y43218959D01*
X46237389Y43594866D01*
X46340014Y43811703D01*
X46610302Y43407189D01*
X47075849Y43096120D01*
X47625000Y42986887D01*
X48174151Y43096120D01*
X48639698Y43407189D01*
X48895000Y43789275D01*
X49150302Y43407189D01*
X49380000Y43253709D01*
X49380000Y41385500D01*
X49439755Y41085093D01*
X49609921Y40830421D01*
X52239770Y38200573D01*
X52155849Y38183880D01*
X51842591Y37974567D01*
X51214079Y38603079D01*
X50959407Y38773245D01*
X50659000Y38833000D01*
X44594000Y38833000D01*
X44293593Y38773245D01*
X44038921Y38603079D01*
X42084021Y36648179D01*
X41913855Y36393507D01*
X41871541Y36180779D01*
X41854100Y36093100D01*
X41854100Y26611400D01*
X41913855Y26310993D01*
X42084021Y26056321D01*
X47497998Y20642345D01*
X47497998Y20536218D01*
X47265974Y20657358D01*
X47250209Y20654709D01*
X46722964Y20400732D01*
X46351461Y19984931D01*
X46144670Y20294415D01*
X45658489Y20619271D01*
X45085000Y20733345D01*
X44511511Y20619271D01*
X44025330Y20294415D01*
X43815000Y19979634D01*
X43604670Y20294415D01*
X43118489Y20619271D01*
X42545000Y20733345D01*
X41971511Y20619271D01*
X41485330Y20294415D01*
X41275000Y19979634D01*
X41064670Y20294415D01*
X40578489Y20619271D01*
X40005000Y20733345D01*
X39431511Y20619271D01*
X38945330Y20294415D01*
X38735000Y19979634D01*
X38524670Y20294415D01*
X38038489Y20619271D01*
X37465000Y20733345D01*
X36891511Y20619271D01*
X36405330Y20294415D01*
X36195000Y19979634D01*
X35984670Y20294415D01*
X35498489Y20619271D01*
X34925000Y20733345D01*
X34351511Y20619271D01*
X33865330Y20294415D01*
X33655000Y19979634D01*
X33444670Y20294415D01*
X32958489Y20619271D01*
X32385000Y20733345D01*
X31897900Y20636455D01*
X31897900Y22564895D01*
X31897901Y22564900D01*
X31838145Y22865306D01*
X31667979Y23119979D01*
X31172000Y23615958D01*
X31172000Y25571580D01*
X31457927Y25285154D01*
X32058453Y25035794D01*
X32708694Y25035226D01*
X33309655Y25283538D01*
X33655199Y25628480D01*
X33997927Y25285154D01*
X34598453Y25035794D01*
X35248694Y25035226D01*
X35849655Y25283538D01*
X36084362Y25517837D01*
X36492443Y25517837D01*
X36591042Y25251035D01*
X37200582Y25024599D01*
X37850377Y25048659D01*
X38338958Y25251035D01*
X38437557Y25517837D01*
X37465000Y26490395D01*
X36492443Y25517837D01*
X36084362Y25517837D01*
X36277401Y25710539D01*
X36312837Y25697443D01*
X37285395Y26670000D01*
X37644605Y26670000D01*
X38617163Y25697443D01*
X38653099Y25710724D01*
X39077927Y25285154D01*
X39678453Y25035794D01*
X40328694Y25035226D01*
X40929655Y25283538D01*
X41389846Y25742927D01*
X41639206Y26343453D01*
X41639774Y26993694D01*
X41391462Y27594655D01*
X40932073Y28054846D01*
X40331547Y28304206D01*
X39681306Y28304774D01*
X39080345Y28056462D01*
X38652599Y27629461D01*
X38617163Y27642557D01*
X37644605Y26670000D01*
X37285395Y26670000D01*
X36312837Y27642557D01*
X36276901Y27629276D01*
X36084351Y27822163D01*
X36492443Y27822163D01*
X37465000Y26849605D01*
X38437557Y27822163D01*
X38338958Y28088965D01*
X37729418Y28315401D01*
X37079623Y28291341D01*
X36591042Y28088965D01*
X36492443Y27822163D01*
X36084351Y27822163D01*
X35852073Y28054846D01*
X35251547Y28304206D01*
X34601306Y28304774D01*
X34000345Y28056462D01*
X33654801Y27711520D01*
X33312073Y28054846D01*
X32711547Y28304206D01*
X32061306Y28304774D01*
X31919130Y28246028D01*
X31726400Y28438758D01*
X31726400Y35333674D01*
X32058453Y35195794D01*
X32708694Y35195226D01*
X33309655Y35443538D01*
X33544362Y35677837D01*
X33952443Y35677837D01*
X34051042Y35411035D01*
X34660582Y35184599D01*
X35310377Y35208659D01*
X35798958Y35411035D01*
X35897557Y35677837D01*
X34925000Y36650395D01*
X33952443Y35677837D01*
X33544362Y35677837D01*
X33737401Y35870539D01*
X33772837Y35857443D01*
X34745395Y36830000D01*
X33772837Y37802557D01*
X33736901Y37789276D01*
X33312073Y38214846D01*
X33017091Y38337333D01*
X34212079Y39532321D01*
X34382245Y39786993D01*
X34442000Y40087400D01*
X34442000Y42897416D01*
X34550209Y42845291D01*
X34565974Y42842642D01*
X34798000Y42963783D01*
X34798000Y44323000D01*
X34778000Y44323000D01*
X34778000Y44577000D01*
X34798000Y44577000D01*
X34798000Y45936217D01*
X34565974Y46057358D01*
X34550209Y46054709D01*
X34442000Y46002584D01*
X34442000Y48733116D01*
X34925000Y48637041D01*
X35498489Y48751115D01*
X35984670Y49075971D01*
X36188905Y49381630D01*
X36197100Y49380000D01*
G36*
X18478179Y53593490D02*
X18230032Y53064027D01*
X18350531Y52832000D01*
X19558000Y52832000D01*
X19558000Y52852000D01*
X19812000Y52852000D01*
X19812000Y52832000D01*
X19832000Y52832000D01*
X19832000Y52578000D01*
X19812000Y52578000D01*
X19812000Y50292000D01*
X19832000Y50292000D01*
X19832000Y50038000D01*
X19812000Y50038000D01*
X19812000Y48825150D01*
X19970750Y48666400D01*
X20674910Y48666400D01*
X20908299Y48763073D01*
X21086927Y48941702D01*
X21151263Y49097023D01*
X21165330Y49075971D01*
X21651511Y48751115D01*
X22225000Y48637041D01*
X22798489Y48751115D01*
X23284670Y49075971D01*
X23495000Y49390752D01*
X23705330Y49075971D01*
X24191511Y48751115D01*
X24765000Y48637041D01*
X25338489Y48751115D01*
X25824670Y49075971D01*
X26035000Y49390752D01*
X26245330Y49075971D01*
X26731511Y48751115D01*
X27305000Y48637041D01*
X27878489Y48751115D01*
X28364670Y49075971D01*
X28575000Y49390752D01*
X28785330Y49075971D01*
X29271511Y48751115D01*
X29845000Y48637041D01*
X30330000Y48733513D01*
X30330000Y46036873D01*
X29845000Y46133345D01*
X29271511Y46019271D01*
X28785330Y45694415D01*
X28460474Y45208234D01*
X28346400Y44634745D01*
X28346400Y44265255D01*
X28460474Y43691766D01*
X28785330Y43205585D01*
X29271511Y42880729D01*
X29845000Y42766655D01*
X30330000Y42863127D01*
X30330000Y42045557D01*
X29831921Y41547479D01*
X29661755Y41292807D01*
X29636396Y41165321D01*
X29602000Y40992400D01*
X29602000Y36474758D01*
X29164834Y36656285D01*
X29120117Y36656324D01*
X25781000Y39995440D01*
X25781000Y42815236D01*
X25863917Y42830838D01*
X26080041Y42969910D01*
X26225031Y43182110D01*
X26276040Y43434000D01*
X26276040Y45466000D01*
X26231762Y45701317D01*
X26092690Y45917441D01*
X25880490Y46062431D01*
X25628600Y46113440D01*
X23901400Y46113440D01*
X23666083Y46069162D01*
X23449959Y45930090D01*
X23304969Y45717890D01*
X23296600Y45676561D01*
X23284670Y45694415D01*
X22798489Y46019271D01*
X22225000Y46133345D01*
X21651511Y46019271D01*
X21165330Y45694415D01*
X20958539Y45384931D01*
X20587036Y45800732D01*
X20059791Y46054709D01*
X20044026Y46057358D01*
X19812000Y45936217D01*
X19812000Y44577000D01*
X19832000Y44577000D01*
X19832000Y44323000D01*
X19812000Y44323000D01*
X19812000Y42963783D01*
X20044026Y42842642D01*
X20059791Y42845291D01*
X20587036Y43099268D01*
X20958539Y43515069D01*
X21165330Y43205585D01*
X21193612Y43186688D01*
X21008538Y42909707D01*
X21002774Y42880729D01*
X20931200Y42520900D01*
X20931200Y39029550D01*
X20804368Y39219368D01*
X20582138Y39367857D01*
X20320000Y39420000D01*
X6400000Y39420000D01*
X6400000Y46990000D01*
X6952655Y46990000D01*
X7066729Y46416511D01*
X7391585Y45930330D01*
X7706366Y45720000D01*
X7391585Y45509670D01*
X7066729Y45023489D01*
X6952655Y44450000D01*
X7066729Y43876511D01*
X7391585Y43390330D01*
X7877766Y43065474D01*
X8451255Y42951400D01*
X8820745Y42951400D01*
X9394234Y43065474D01*
X9880415Y43390330D01*
X10205271Y43876511D01*
X10319345Y44450000D01*
X10282597Y44634745D01*
X15646400Y44634745D01*
X15646400Y44265255D01*
X15760474Y43691766D01*
X16085330Y43205585D01*
X16571511Y42880729D01*
X17145000Y42766655D01*
X17718489Y42880729D01*
X18204670Y43205585D01*
X18411461Y43515069D01*
X18782964Y43099268D01*
X19310209Y42845291D01*
X19325974Y42842642D01*
X19558000Y42963783D01*
X19558000Y44323000D01*
X19538000Y44323000D01*
X19538000Y44577000D01*
X19558000Y44577000D01*
X19558000Y45936217D01*
X19325974Y46057358D01*
X19310209Y46054709D01*
X18782964Y45800732D01*
X18411461Y45384931D01*
X18204670Y45694415D01*
X17718489Y46019271D01*
X17145000Y46133345D01*
X16571511Y46019271D01*
X16085330Y45694415D01*
X15760474Y45208234D01*
X15646400Y44634745D01*
X10282597Y44634745D01*
X10205271Y45023489D01*
X9880415Y45509670D01*
X9565634Y45720000D01*
X9880415Y45930330D01*
X10205271Y46416511D01*
X10319345Y46990000D01*
X10205271Y47563489D01*
X9880415Y48049670D01*
X9858220Y48064500D01*
X10011698Y48128073D01*
X10190327Y48306701D01*
X10287000Y48540090D01*
X10287000Y49244250D01*
X10128250Y49403000D01*
X8763000Y49403000D01*
X8763000Y49383000D01*
X8509000Y49383000D01*
X8509000Y49403000D01*
X7143750Y49403000D01*
X6985000Y49244250D01*
X6985000Y48540090D01*
X7081673Y48306701D01*
X7260302Y48128073D01*
X7413780Y48064500D01*
X7391585Y48049670D01*
X7066729Y47563489D01*
X6952655Y46990000D01*
X6400000Y46990000D01*
X6400000Y50519910D01*
X6985000Y50519910D01*
X6985000Y49815750D01*
X7143750Y49657000D01*
X8509000Y49657000D01*
X8509000Y50869850D01*
X8763000Y50869850D01*
X8763000Y49657000D01*
X10128250Y49657000D01*
X10287000Y49815750D01*
X10287000Y49879250D01*
X18186400Y49879250D01*
X18186400Y49175091D01*
X18283073Y48941702D01*
X18461701Y48763073D01*
X18695090Y48666400D01*
X19399250Y48666400D01*
X19558000Y48825150D01*
X19558000Y50038000D01*
X18345150Y50038000D01*
X18186400Y49879250D01*
X10287000Y49879250D01*
X10287000Y50519910D01*
X10190327Y50753299D01*
X10011698Y50931927D01*
X9778309Y51028600D01*
X8921750Y51028600D01*
X8763000Y50869850D01*
X8509000Y50869850D01*
X8350250Y51028600D01*
X7493691Y51028600D01*
X7260302Y50931927D01*
X7081673Y50753299D01*
X6985000Y50519910D01*
X6400000Y50519910D01*
X6400000Y51154909D01*
X18186400Y51154909D01*
X18186400Y50450750D01*
X18345150Y50292000D01*
X19558000Y50292000D01*
X19558000Y52578000D01*
X18350531Y52578000D01*
X18230032Y52345973D01*
X18478179Y51816510D01*
X18661119Y51649529D01*
X18461701Y51566927D01*
X18283073Y51388298D01*
X18186400Y51154909D01*
X6400000Y51154909D01*
X6400000Y53925000D01*
X18841374Y53925000D01*
X18478179Y53593490D01*
X18478179Y53593490D01*
G37*
X18478179Y53593490D02*
X18230032Y53064027D01*
X18350531Y52832000D01*
X19558000Y52832000D01*
X19558000Y52852000D01*
X19812000Y52852000D01*
X19812000Y52832000D01*
X19832000Y52832000D01*
X19832000Y52578000D01*
X19812000Y52578000D01*
X19812000Y50292000D01*
X19832000Y50292000D01*
X19832000Y50038000D01*
X19812000Y50038000D01*
X19812000Y48825150D01*
X19970750Y48666400D01*
X20674910Y48666400D01*
X20908299Y48763073D01*
X21086927Y48941702D01*
X21151263Y49097023D01*
X21165330Y49075971D01*
X21651511Y48751115D01*
X22225000Y48637041D01*
X22798489Y48751115D01*
X23284670Y49075971D01*
X23495000Y49390752D01*
X23705330Y49075971D01*
X24191511Y48751115D01*
X24765000Y48637041D01*
X25338489Y48751115D01*
X25824670Y49075971D01*
X26035000Y49390752D01*
X26245330Y49075971D01*
X26731511Y48751115D01*
X27305000Y48637041D01*
X27878489Y48751115D01*
X28364670Y49075971D01*
X28575000Y49390752D01*
X28785330Y49075971D01*
X29271511Y48751115D01*
X29845000Y48637041D01*
X30330000Y48733513D01*
X30330000Y46036873D01*
X29845000Y46133345D01*
X29271511Y46019271D01*
X28785330Y45694415D01*
X28460474Y45208234D01*
X28346400Y44634745D01*
X28346400Y44265255D01*
X28460474Y43691766D01*
X28785330Y43205585D01*
X29271511Y42880729D01*
X29845000Y42766655D01*
X30330000Y42863127D01*
X30330000Y42045557D01*
X29831921Y41547479D01*
X29661755Y41292807D01*
X29636396Y41165321D01*
X29602000Y40992400D01*
X29602000Y36474758D01*
X29164834Y36656285D01*
X29120117Y36656324D01*
X25781000Y39995440D01*
X25781000Y42815236D01*
X25863917Y42830838D01*
X26080041Y42969910D01*
X26225031Y43182110D01*
X26276040Y43434000D01*
X26276040Y45466000D01*
X26231762Y45701317D01*
X26092690Y45917441D01*
X25880490Y46062431D01*
X25628600Y46113440D01*
X23901400Y46113440D01*
X23666083Y46069162D01*
X23449959Y45930090D01*
X23304969Y45717890D01*
X23296600Y45676561D01*
X23284670Y45694415D01*
X22798489Y46019271D01*
X22225000Y46133345D01*
X21651511Y46019271D01*
X21165330Y45694415D01*
X20958539Y45384931D01*
X20587036Y45800732D01*
X20059791Y46054709D01*
X20044026Y46057358D01*
X19812000Y45936217D01*
X19812000Y44577000D01*
X19832000Y44577000D01*
X19832000Y44323000D01*
X19812000Y44323000D01*
X19812000Y42963783D01*
X20044026Y42842642D01*
X20059791Y42845291D01*
X20587036Y43099268D01*
X20958539Y43515069D01*
X21165330Y43205585D01*
X21193612Y43186688D01*
X21008538Y42909707D01*
X21002774Y42880729D01*
X20931200Y42520900D01*
X20931200Y39029550D01*
X20804368Y39219368D01*
X20582138Y39367857D01*
X20320000Y39420000D01*
X6400000Y39420000D01*
X6400000Y46990000D01*
X6952655Y46990000D01*
X7066729Y46416511D01*
X7391585Y45930330D01*
X7706366Y45720000D01*
X7391585Y45509670D01*
X7066729Y45023489D01*
X6952655Y44450000D01*
X7066729Y43876511D01*
X7391585Y43390330D01*
X7877766Y43065474D01*
X8451255Y42951400D01*
X8820745Y42951400D01*
X9394234Y43065474D01*
X9880415Y43390330D01*
X10205271Y43876511D01*
X10319345Y44450000D01*
X10282597Y44634745D01*
X15646400Y44634745D01*
X15646400Y44265255D01*
X15760474Y43691766D01*
X16085330Y43205585D01*
X16571511Y42880729D01*
X17145000Y42766655D01*
X17718489Y42880729D01*
X18204670Y43205585D01*
X18411461Y43515069D01*
X18782964Y43099268D01*
X19310209Y42845291D01*
X19325974Y42842642D01*
X19558000Y42963783D01*
X19558000Y44323000D01*
X19538000Y44323000D01*
X19538000Y44577000D01*
X19558000Y44577000D01*
X19558000Y45936217D01*
X19325974Y46057358D01*
X19310209Y46054709D01*
X18782964Y45800732D01*
X18411461Y45384931D01*
X18204670Y45694415D01*
X17718489Y46019271D01*
X17145000Y46133345D01*
X16571511Y46019271D01*
X16085330Y45694415D01*
X15760474Y45208234D01*
X15646400Y44634745D01*
X10282597Y44634745D01*
X10205271Y45023489D01*
X9880415Y45509670D01*
X9565634Y45720000D01*
X9880415Y45930330D01*
X10205271Y46416511D01*
X10319345Y46990000D01*
X10205271Y47563489D01*
X9880415Y48049670D01*
X9858220Y48064500D01*
X10011698Y48128073D01*
X10190327Y48306701D01*
X10287000Y48540090D01*
X10287000Y49244250D01*
X10128250Y49403000D01*
X8763000Y49403000D01*
X8763000Y49383000D01*
X8509000Y49383000D01*
X8509000Y49403000D01*
X7143750Y49403000D01*
X6985000Y49244250D01*
X6985000Y48540090D01*
X7081673Y48306701D01*
X7260302Y48128073D01*
X7413780Y48064500D01*
X7391585Y48049670D01*
X7066729Y47563489D01*
X6952655Y46990000D01*
X6400000Y46990000D01*
X6400000Y50519910D01*
X6985000Y50519910D01*
X6985000Y49815750D01*
X7143750Y49657000D01*
X8509000Y49657000D01*
X8509000Y50869850D01*
X8763000Y50869850D01*
X8763000Y49657000D01*
X10128250Y49657000D01*
X10287000Y49815750D01*
X10287000Y49879250D01*
X18186400Y49879250D01*
X18186400Y49175091D01*
X18283073Y48941702D01*
X18461701Y48763073D01*
X18695090Y48666400D01*
X19399250Y48666400D01*
X19558000Y48825150D01*
X19558000Y50038000D01*
X18345150Y50038000D01*
X18186400Y49879250D01*
X10287000Y49879250D01*
X10287000Y50519910D01*
X10190327Y50753299D01*
X10011698Y50931927D01*
X9778309Y51028600D01*
X8921750Y51028600D01*
X8763000Y50869850D01*
X8509000Y50869850D01*
X8350250Y51028600D01*
X7493691Y51028600D01*
X7260302Y50931927D01*
X7081673Y50753299D01*
X6985000Y50519910D01*
X6400000Y50519910D01*
X6400000Y51154909D01*
X18186400Y51154909D01*
X18186400Y50450750D01*
X18345150Y50292000D01*
X19558000Y50292000D01*
X19558000Y52578000D01*
X18350531Y52578000D01*
X18230032Y52345973D01*
X18478179Y51816510D01*
X18661119Y51649529D01*
X18461701Y51566927D01*
X18283073Y51388298D01*
X18186400Y51154909D01*
X6400000Y51154909D01*
X6400000Y53925000D01*
X18841374Y53925000D01*
X18478179Y53593490D01*
G36*
X47752000Y36957000D02*
X47772000Y36957000D01*
X47772000Y36703000D01*
X47752000Y36703000D01*
X47752000Y36683000D01*
X47498000Y36683000D01*
X47498000Y36703000D01*
X47478000Y36703000D01*
X47478000Y36957000D01*
X47498000Y36957000D01*
X47498000Y36977000D01*
X47752000Y36977000D01*
X47752000Y36957000D01*
X47752000Y36957000D01*
G37*
X47752000Y36957000D02*
X47772000Y36957000D01*
X47772000Y36703000D01*
X47752000Y36703000D01*
X47752000Y36683000D01*
X47498000Y36683000D01*
X47498000Y36703000D01*
X47478000Y36703000D01*
X47478000Y36957000D01*
X47498000Y36957000D01*
X47498000Y36977000D01*
X47752000Y36977000D01*
X47752000Y36957000D01*
G36*
X56786902Y45695940D02*
X56702421Y45696014D01*
X56248343Y45508392D01*
X55900629Y45161285D01*
X55712215Y44707534D01*
X55711786Y44216221D01*
X55899408Y43762143D01*
X56246515Y43414429D01*
X56700266Y43226015D01*
X57191579Y43225586D01*
X57645657Y43413208D01*
X57993371Y43760315D01*
X58181785Y44214066D01*
X58181861Y44300981D01*
X59792800Y42690042D01*
X59792800Y42489355D01*
X59743245Y42439886D01*
X59592972Y42077988D01*
X59592630Y41686131D01*
X59742271Y41323971D01*
X59878482Y41187523D01*
X58137162Y39446202D01*
X58023252Y39446202D01*
X58182000Y39604950D01*
X58182000Y40045509D01*
X58085327Y40278898D01*
X57906699Y40457527D01*
X57673310Y40554200D01*
X57232750Y40554200D01*
X57074000Y40395450D01*
X57074000Y39446200D01*
X57094000Y39446200D01*
X57094000Y39192200D01*
X57074000Y39192200D01*
X57074000Y39172200D01*
X56820000Y39172200D01*
X56820000Y39192200D01*
X55870750Y39192200D01*
X55712000Y39033450D01*
X55712000Y38592891D01*
X55808673Y38359502D01*
X55987301Y38180873D01*
X56220690Y38084200D01*
X56661250Y38084200D01*
X56819998Y38242948D01*
X56819998Y38129039D01*
X56745336Y38054377D01*
X56702421Y38054414D01*
X56248343Y37866792D01*
X55912911Y37531946D01*
X54844400Y38600458D01*
X54844400Y40045509D01*
X55712000Y40045509D01*
X55712000Y39604950D01*
X55870750Y39446200D01*
X56820000Y39446200D01*
X56820000Y40395450D01*
X56661250Y40554200D01*
X56220690Y40554200D01*
X55987301Y40457527D01*
X55808673Y40278898D01*
X55712000Y40045509D01*
X54844400Y40045509D01*
X54844400Y41675050D01*
X55712000Y41675050D01*
X55712000Y41234491D01*
X55808673Y41001102D01*
X55987301Y40822473D01*
X56220690Y40725800D01*
X56661250Y40725800D01*
X56820000Y40884550D01*
X56820000Y41833800D01*
X57074000Y41833800D01*
X57074000Y40884550D01*
X57232750Y40725800D01*
X57673310Y40725800D01*
X57906699Y40822473D01*
X58085327Y41001102D01*
X58182000Y41234491D01*
X58182000Y41675050D01*
X58023250Y41833800D01*
X57074000Y41833800D01*
X56820000Y41833800D01*
X55870750Y41833800D01*
X55712000Y41675050D01*
X54844400Y41675050D01*
X54844400Y42687109D01*
X55712000Y42687109D01*
X55712000Y42246550D01*
X55870750Y42087800D01*
X56820000Y42087800D01*
X56820000Y43037050D01*
X57074000Y43037050D01*
X57074000Y42087800D01*
X58023250Y42087800D01*
X58182000Y42246550D01*
X58182000Y42687109D01*
X58085327Y42920498D01*
X57906699Y43099127D01*
X57673310Y43195800D01*
X57232750Y43195800D01*
X57074000Y43037050D01*
X56820000Y43037050D01*
X56661250Y43195800D01*
X56220690Y43195800D01*
X55987301Y43099127D01*
X55808673Y42920498D01*
X55712000Y42687109D01*
X54844400Y42687109D01*
X54844400Y45954900D01*
X54784645Y46255306D01*
X54614479Y46509979D01*
X53490000Y47634458D01*
X53490000Y48892442D01*
X53550185Y48932657D01*
X56786902Y45695940D01*
X56786902Y45695940D01*
G37*
X56786902Y45695940D02*
X56702421Y45696014D01*
X56248343Y45508392D01*
X55900629Y45161285D01*
X55712215Y44707534D01*
X55711786Y44216221D01*
X55899408Y43762143D01*
X56246515Y43414429D01*
X56700266Y43226015D01*
X57191579Y43225586D01*
X57645657Y43413208D01*
X57993371Y43760315D01*
X58181785Y44214066D01*
X58181861Y44300981D01*
X59792800Y42690042D01*
X59792800Y42489355D01*
X59743245Y42439886D01*
X59592972Y42077988D01*
X59592630Y41686131D01*
X59742271Y41323971D01*
X59878482Y41187523D01*
X58137162Y39446202D01*
X58023252Y39446202D01*
X58182000Y39604950D01*
X58182000Y40045509D01*
X58085327Y40278898D01*
X57906699Y40457527D01*
X57673310Y40554200D01*
X57232750Y40554200D01*
X57074000Y40395450D01*
X57074000Y39446200D01*
X57094000Y39446200D01*
X57094000Y39192200D01*
X57074000Y39192200D01*
X57074000Y39172200D01*
X56820000Y39172200D01*
X56820000Y39192200D01*
X55870750Y39192200D01*
X55712000Y39033450D01*
X55712000Y38592891D01*
X55808673Y38359502D01*
X55987301Y38180873D01*
X56220690Y38084200D01*
X56661250Y38084200D01*
X56819998Y38242948D01*
X56819998Y38129039D01*
X56745336Y38054377D01*
X56702421Y38054414D01*
X56248343Y37866792D01*
X55912911Y37531946D01*
X54844400Y38600458D01*
X54844400Y40045509D01*
X55712000Y40045509D01*
X55712000Y39604950D01*
X55870750Y39446200D01*
X56820000Y39446200D01*
X56820000Y40395450D01*
X56661250Y40554200D01*
X56220690Y40554200D01*
X55987301Y40457527D01*
X55808673Y40278898D01*
X55712000Y40045509D01*
X54844400Y40045509D01*
X54844400Y41675050D01*
X55712000Y41675050D01*
X55712000Y41234491D01*
X55808673Y41001102D01*
X55987301Y40822473D01*
X56220690Y40725800D01*
X56661250Y40725800D01*
X56820000Y40884550D01*
X56820000Y41833800D01*
X57074000Y41833800D01*
X57074000Y40884550D01*
X57232750Y40725800D01*
X57673310Y40725800D01*
X57906699Y40822473D01*
X58085327Y41001102D01*
X58182000Y41234491D01*
X58182000Y41675050D01*
X58023250Y41833800D01*
X57074000Y41833800D01*
X56820000Y41833800D01*
X55870750Y41833800D01*
X55712000Y41675050D01*
X54844400Y41675050D01*
X54844400Y42687109D01*
X55712000Y42687109D01*
X55712000Y42246550D01*
X55870750Y42087800D01*
X56820000Y42087800D01*
X56820000Y43037050D01*
X57074000Y43037050D01*
X57074000Y42087800D01*
X58023250Y42087800D01*
X58182000Y42246550D01*
X58182000Y42687109D01*
X58085327Y42920498D01*
X57906699Y43099127D01*
X57673310Y43195800D01*
X57232750Y43195800D01*
X57074000Y43037050D01*
X56820000Y43037050D01*
X56661250Y43195800D01*
X56220690Y43195800D01*
X55987301Y43099127D01*
X55808673Y42920498D01*
X55712000Y42687109D01*
X54844400Y42687109D01*
X54844400Y45954900D01*
X54784645Y46255306D01*
X54614479Y46509979D01*
X53490000Y47634458D01*
X53490000Y48892442D01*
X53550185Y48932657D01*
X56786902Y45695940D01*
M02*
