M48
;DRILL file {KiCad 0.201505262310+5684~23~ubuntu14.04.1-product} date Mo 08 Jun 2015 21:40:48 CEST
;FORMAT={-:-/ absolute / metric / decimal}
FMAT,2
METRIC,TZ
T1C0.305
T2C0.700
T3C0.813
T4C1.001
T5C1.016
T6C3.400
%
G90
G05
M71
T1
X52.329Y34.501
X52.653Y13.796
T2
X55.92Y44.45
X55.92Y36.83
X58.42Y44.45
X58.42Y36.83
T3
X44.45Y44.45
X44.45Y36.83
X46.99Y44.45
X46.99Y36.83
X49.53Y44.45
X49.53Y36.83
X52.07Y44.45
X52.07Y36.83
T4
X62.23Y44.45
X72.39Y44.45
T5
X2.921Y17.653
X2.921Y15.113
X2.921Y12.573
X8.636Y50.165
X8.636Y47.625
X8.636Y45.085
X13.97Y10.16
X13.97Y4.445
X13.97Y1.905
X16.51Y10.16
X19.05Y10.16
X19.685Y52.705
X19.685Y50.165
X19.685Y4.445
X19.685Y1.905
X21.336Y44.196
X21.59Y10.16
X22.225Y52.705
X22.225Y50.165
X22.225Y4.445
X22.225Y1.905
X23.495Y19.05
X23.876Y44.196
X24.13Y10.16
X24.765Y52.705
X24.765Y50.165
X24.765Y4.445
X24.765Y1.905
X26.035Y19.05
X26.416Y44.196
X27.305Y52.705
X27.305Y50.165
X27.305Y4.445
X27.305Y1.905
X28.575Y19.05
X29.845Y52.705
X29.845Y50.165
X29.845Y4.445
X29.845Y1.905
X31.115Y19.05
X31.115Y10.16
X31.496Y44.196
X32.385Y52.705
X32.385Y50.165
X32.385Y4.445
X32.385Y1.905
X33.655Y19.05
X33.655Y10.16
X34.036Y44.196
X34.925Y52.705
X34.925Y50.165
X34.925Y4.445
X34.925Y1.905
X36.195Y19.05
X36.195Y10.16
X36.576Y44.196
X37.465Y52.705
X37.465Y50.165
X37.465Y4.445
X37.465Y1.905
X38.735Y19.05
X38.735Y10.16
X39.116Y44.196
X40.005Y52.705
X40.005Y50.165
X40.005Y4.445
X40.005Y1.905
X41.275Y19.05
X41.275Y10.16
X42.545Y52.705
X42.545Y50.165
X42.545Y4.445
X42.545Y1.905
X43.815Y19.05
X45.085Y52.705
X45.085Y50.165
X45.085Y4.445
X45.085Y1.905
X46.355Y19.05
X47.625Y52.705
X47.625Y50.165
X47.625Y4.445
X47.625Y1.905
X48.26Y10.16
X50.165Y52.705
X50.165Y50.165
X50.165Y4.445
X50.165Y1.905
X50.8Y10.16
X52.705Y52.705
X52.705Y50.165
X52.705Y4.445
X52.705Y1.905
X53.34Y19.05
X53.34Y10.16
X55.245Y52.705
X55.245Y50.165
X55.245Y4.445
X55.245Y1.905
X55.88Y19.05
X55.88Y10.16
X57.785Y52.705
X57.785Y50.165
X57.785Y4.445
X57.785Y1.905
X58.42Y19.05
X58.42Y10.16
X60.325Y52.705
X60.325Y50.165
X60.325Y4.445
X60.325Y1.905
X60.96Y19.05
X60.96Y10.16
X62.23Y39.37
X62.23Y36.83
X62.865Y52.705
X62.865Y50.165
X62.865Y4.445
X62.865Y1.905
X63.5Y19.05
X63.5Y10.16
X65.405Y52.705
X65.405Y50.165
X65.405Y4.445
X65.405Y1.905
X66.04Y39.37
X66.04Y36.83
X66.04Y19.05
X67.945Y52.705
X67.945Y50.165
X67.945Y4.445
X67.945Y1.905
X68.072Y10.16
X68.58Y19.05
X70.485Y52.705
X70.485Y50.165
X70.485Y4.445
X70.485Y1.905
X70.612Y10.16
X73.025Y52.705
X73.025Y50.165
X73.025Y4.445
X73.025Y1.905
X75.565Y52.705
X75.565Y50.165
X75.565Y4.445
X75.565Y1.905
X78.74Y49.53
X78.74Y46.99
X78.74Y44.45
X78.74Y40.64
X78.74Y38.1
X78.74Y35.56
X78.74Y33.02
X78.74Y30.48
X78.74Y27.94
X78.74Y25.4
X78.74Y22.86
X78.74Y20.32
X78.74Y17.78
X78.74Y15.24
X78.74Y12.7
X81.28Y40.64
X81.28Y38.1
X81.28Y35.56
X81.28Y33.02
X81.28Y30.48
X81.28Y27.94
X81.28Y25.4
X81.28Y22.86
X81.28Y20.32
X81.28Y17.78
X81.28Y15.24
X81.28Y12.7
X83.82Y40.64
X83.82Y38.1
X83.82Y35.56
X83.82Y33.02
X83.82Y30.48
X83.82Y27.94
X83.82Y25.4
X83.82Y22.86
X83.82Y20.32
X83.82Y17.78
X83.82Y15.24
X83.82Y12.7
T6
X24.765Y30.734
X45.212Y30.734
X67.31Y28.067
T0
M30
