G04 #@! TF.FileFunction,Copper,L1,Top,Signal*
%FSLAX46Y46*%
G04 Gerber Fmt 4.6, Leading zero omitted, Abs format (unit mm)*
G04 Created by KiCad (PCBNEW 0.201506172246+5766~23~ubuntu14.04.1-product) date Do 09 Jul 2015 22:59:30 CEST*
%MOMM*%
G01*
G04 APERTURE LIST*
%ADD10C,0.100000*%
%ADD11C,4.064000*%
%ADD12R,2.032000X1.727200*%
%ADD13O,2.032000X1.727200*%
%ADD14R,1.727200X1.727200*%
%ADD15O,1.727200X1.727200*%
%ADD16R,2.032000X2.032000*%
%ADD17O,2.032000X2.032000*%
%ADD18R,1.727200X2.032000*%
%ADD19O,1.727200X2.032000*%
%ADD20C,1.998980*%
%ADD21R,1.200000X1.200000*%
%ADD22C,1.200000*%
%ADD23O,1.600000X1.600000*%
%ADD24C,0.914400*%
%ADD25C,0.660400*%
%ADD26C,0.254000*%
%ADD27C,0.762000*%
G04 APERTURE END LIST*
D10*
D11*
X26035000Y30734000D03*
D12*
X78740000Y12700000D03*
D13*
X78740000Y15240000D03*
X78740000Y17780000D03*
X78740000Y20320000D03*
X78740000Y22860000D03*
X78740000Y25400000D03*
X78740000Y27940000D03*
X78740000Y30480000D03*
X78740000Y33020000D03*
X78740000Y35560000D03*
X78740000Y38100000D03*
X78740000Y40640000D03*
D14*
X83820000Y12700000D03*
D15*
X81280000Y12700000D03*
X83820000Y15240000D03*
X81280000Y15240000D03*
X83820000Y17780000D03*
X81280000Y17780000D03*
X83820000Y20320000D03*
X81280000Y20320000D03*
X83820000Y22860000D03*
X81280000Y22860000D03*
X83820000Y25400000D03*
X81280000Y25400000D03*
X83820000Y27940000D03*
X81280000Y27940000D03*
X83820000Y30480000D03*
X81280000Y30480000D03*
X83820000Y33020000D03*
X81280000Y33020000D03*
X83820000Y35560000D03*
X81280000Y35560000D03*
X83820000Y38100000D03*
X81280000Y38100000D03*
X83820000Y40640000D03*
X81280000Y40640000D03*
D16*
X25400000Y36830000D03*
D17*
X22860000Y36830000D03*
D18*
X24765000Y19050000D03*
D19*
X27305000Y19050000D03*
X29845000Y19050000D03*
X32385000Y19050000D03*
X34925000Y19050000D03*
X37465000Y19050000D03*
X40005000Y19050000D03*
X42545000Y19050000D03*
X45085000Y19050000D03*
X47625000Y19050000D03*
D18*
X55245000Y19050000D03*
D19*
X57785000Y19050000D03*
X60325000Y19050000D03*
X62865000Y19050000D03*
X65405000Y19050000D03*
X67945000Y19050000D03*
X70485000Y19050000D03*
D14*
X19685000Y50165000D03*
D15*
X19685000Y52705000D03*
X22225000Y50165000D03*
X22225000Y52705000D03*
X24765000Y50165000D03*
X24765000Y52705000D03*
X27305000Y50165000D03*
X27305000Y52705000D03*
X29845000Y50165000D03*
X29845000Y52705000D03*
X32385000Y50165000D03*
X32385000Y52705000D03*
X34925000Y50165000D03*
X34925000Y52705000D03*
X37465000Y50165000D03*
X37465000Y52705000D03*
X40005000Y50165000D03*
X40005000Y52705000D03*
X42545000Y50165000D03*
X42545000Y52705000D03*
X45085000Y50165000D03*
X45085000Y52705000D03*
X47625000Y50165000D03*
X47625000Y52705000D03*
X50165000Y50165000D03*
X50165000Y52705000D03*
X52705000Y50165000D03*
X52705000Y52705000D03*
X55245000Y50165000D03*
X55245000Y52705000D03*
X57785000Y50165000D03*
X57785000Y52705000D03*
X60325000Y50165000D03*
X60325000Y52705000D03*
X62865000Y50165000D03*
X62865000Y52705000D03*
X65405000Y50165000D03*
X65405000Y52705000D03*
X67945000Y50165000D03*
X67945000Y52705000D03*
X70485000Y50165000D03*
X70485000Y52705000D03*
X73025000Y50165000D03*
X73025000Y52705000D03*
X75565000Y50165000D03*
X75565000Y52705000D03*
D14*
X19685000Y1905000D03*
D15*
X19685000Y4445000D03*
X22225000Y1905000D03*
X22225000Y4445000D03*
X24765000Y1905000D03*
X24765000Y4445000D03*
X27305000Y1905000D03*
X27305000Y4445000D03*
X29845000Y1905000D03*
X29845000Y4445000D03*
X32385000Y1905000D03*
X32385000Y4445000D03*
X34925000Y1905000D03*
X34925000Y4445000D03*
X37465000Y1905000D03*
X37465000Y4445000D03*
X40005000Y1905000D03*
X40005000Y4445000D03*
X42545000Y1905000D03*
X42545000Y4445000D03*
X45085000Y1905000D03*
X45085000Y4445000D03*
X47625000Y1905000D03*
X47625000Y4445000D03*
X50165000Y1905000D03*
X50165000Y4445000D03*
X52705000Y1905000D03*
X52705000Y4445000D03*
X55245000Y1905000D03*
X55245000Y4445000D03*
X57785000Y1905000D03*
X57785000Y4445000D03*
X60325000Y1905000D03*
X60325000Y4445000D03*
X62865000Y1905000D03*
X62865000Y4445000D03*
X65405000Y1905000D03*
X65405000Y4445000D03*
X67945000Y1905000D03*
X67945000Y4445000D03*
X70485000Y1905000D03*
X70485000Y4445000D03*
X73025000Y1905000D03*
X73025000Y4445000D03*
X75565000Y1905000D03*
X75565000Y4445000D03*
D16*
X12065000Y4445000D03*
D17*
X12065000Y1905000D03*
D18*
X70485000Y10160000D03*
D19*
X67945000Y10160000D03*
X65405000Y10160000D03*
X62865000Y10160000D03*
X60325000Y10160000D03*
X57785000Y10160000D03*
X55245000Y10160000D03*
D16*
X66675000Y36830000D03*
D17*
X66675000Y39370000D03*
D16*
X62865000Y36830000D03*
D17*
X62865000Y39370000D03*
D20*
X62865000Y44450000D03*
X73025000Y44450000D03*
D21*
X59436000Y44450000D03*
D22*
X56936000Y44450000D03*
D21*
X59436000Y36830000D03*
D22*
X56936000Y36830000D03*
D18*
X34925000Y10160000D03*
D19*
X32385000Y10160000D03*
X29845000Y10160000D03*
X27305000Y10160000D03*
X24765000Y10160000D03*
D18*
X50165000Y10160000D03*
D19*
X47625000Y10160000D03*
X45085000Y10160000D03*
X42545000Y10160000D03*
X40005000Y10160000D03*
D11*
X69215000Y28067000D03*
X46482000Y30734000D03*
D12*
X8636000Y50165000D03*
D13*
X8636000Y47625000D03*
X8636000Y45085000D03*
D12*
X2921000Y15240000D03*
D13*
X2921000Y12700000D03*
X2921000Y10160000D03*
D12*
X78740000Y49530000D03*
D13*
X78740000Y46990000D03*
X78740000Y44450000D03*
D18*
X40132000Y44450000D03*
D19*
X37592000Y44450000D03*
X35052000Y44450000D03*
X32512000Y44450000D03*
X29972000Y44450000D03*
D18*
X19685000Y10160000D03*
D19*
X17145000Y10160000D03*
X14605000Y10160000D03*
X12065000Y10160000D03*
D20*
X40132000Y26670000D03*
X40132000Y36830000D03*
X37211000Y36830000D03*
X37211000Y26670000D03*
X31369000Y36830000D03*
X31369000Y26670000D03*
X34290000Y26670000D03*
X34290000Y36830000D03*
D23*
X45085000Y36830000D03*
X47625000Y36830000D03*
X50165000Y36830000D03*
X52705000Y36830000D03*
X52705000Y44450000D03*
X50165000Y44450000D03*
X47625000Y44450000D03*
X45085000Y44450000D03*
D18*
X25400000Y44450000D03*
D19*
X22860000Y44450000D03*
X20320000Y44450000D03*
X17780000Y44450000D03*
D24*
X56005000Y14375500D03*
D25*
X36057200Y47372700D03*
X45453400Y6614400D03*
X52264900Y16882300D03*
D26*
X51460100Y52189200D02*
X51460100Y52705000D01*
X50680900Y51410000D02*
X51460100Y52189200D01*
X14961000Y51410000D02*
X50680900Y51410000D01*
X9880900Y46329900D02*
X14961000Y51410000D01*
X8636000Y46329900D02*
X9880900Y46329900D01*
X8636000Y45085000D02*
X8636000Y46329900D01*
X52705000Y52705000D02*
X51460100Y52705000D01*
X81806300Y16484900D02*
X78740000Y16484900D01*
X82525000Y17203600D02*
X81806300Y16484900D01*
X82525000Y41207800D02*
X82525000Y17203600D01*
X80589500Y43143300D02*
X82525000Y41207800D01*
X76355300Y43143300D02*
X80589500Y43143300D01*
X72674300Y46824300D02*
X76355300Y43143300D01*
X56823800Y46824300D02*
X72674300Y46824300D01*
X53949900Y49698200D02*
X56823800Y46824300D01*
X53949900Y50165000D02*
X53949900Y49698200D01*
X52705000Y50165000D02*
X53949900Y50165000D01*
X78740000Y15240000D02*
X78740000Y16484900D01*
X77495100Y19024900D02*
X78740000Y19024900D01*
X75027100Y21492900D02*
X77495100Y19024900D01*
X23464400Y21492900D02*
X75027100Y21492900D01*
X18392700Y16421200D02*
X23464400Y21492900D01*
X9182200Y16421200D02*
X18392700Y16421200D01*
X4165900Y11404900D02*
X9182200Y16421200D01*
X2921000Y11404900D02*
X4165900Y11404900D01*
X2921000Y10160000D02*
X2921000Y11404900D01*
X78740000Y17780000D02*
X78740000Y19024900D01*
X55245000Y50165000D02*
X56489900Y50165000D01*
X56489900Y49649200D02*
X56489900Y50165000D01*
X57620400Y48518700D02*
X56489900Y49649200D01*
X74671300Y48518700D02*
X57620400Y48518700D01*
X77495100Y45694900D02*
X74671300Y48518700D01*
X78740000Y45694900D02*
X77495100Y45694900D01*
X78740000Y44450000D02*
X78740000Y45694900D01*
D27*
X19685000Y4445000D02*
X19685000Y1905000D01*
X73025000Y1905000D02*
X73025000Y2654500D01*
X73025000Y2654500D02*
X73025000Y3403900D01*
X73316600Y2654500D02*
X74066100Y1905000D01*
X73025000Y2654500D02*
X73316600Y2654500D01*
X75565000Y1905000D02*
X74066100Y1905000D01*
X75565000Y4445000D02*
X73025000Y4445000D01*
X73025000Y4445000D02*
X73025000Y3403900D01*
X21208600Y7467500D02*
X19685000Y5943900D01*
X21208600Y11302300D02*
X21208600Y7467500D01*
X27305000Y17398700D02*
X21208600Y11302300D01*
X27305000Y19050000D02*
X27305000Y17398700D01*
X19685000Y4445000D02*
X19685000Y5943900D01*
X47625000Y36830000D02*
X47625000Y38265300D01*
X45085000Y44450000D02*
X45085000Y40805300D01*
X45085000Y40805300D02*
X47625000Y38265300D01*
X47625000Y19050000D02*
X49123900Y19050000D01*
X57785000Y19050000D02*
X57785000Y17398700D01*
X68833700Y17398700D02*
X57785000Y17398700D01*
X70485000Y19050000D02*
X68833700Y17398700D01*
X51988000Y19050000D02*
X49123900Y19050000D01*
X53639300Y17398700D02*
X51988000Y19050000D01*
X57785000Y17398700D02*
X53639300Y17398700D01*
X41186300Y40805300D02*
X37211000Y36830000D01*
X45085000Y40805300D02*
X41186300Y40805300D01*
X37211000Y36830000D02*
X34290000Y36830000D01*
X19685000Y50165000D02*
X19685000Y48666100D01*
X20320000Y44450000D02*
X20320000Y46101300D01*
X33400700Y46101300D02*
X35052000Y44450000D01*
X20320000Y46101300D02*
X33400700Y46101300D01*
X20320000Y48031100D02*
X19685000Y48666100D01*
X20320000Y46101300D02*
X20320000Y48031100D01*
X68831200Y11813800D02*
X70485000Y10160000D01*
X53317700Y11813800D02*
X68831200Y11813800D01*
X51663900Y10160000D02*
X53317700Y11813800D01*
X50165000Y10160000D02*
X51663900Y10160000D01*
X34925000Y10160000D02*
X36423900Y10160000D01*
X13970000Y4445000D02*
X12065000Y4445000D01*
X19685000Y10160000D02*
X13970000Y4445000D01*
X38080000Y8503900D02*
X36423900Y10160000D01*
X48508900Y8503900D02*
X38080000Y8503900D01*
X50165000Y10160000D02*
X48508900Y8503900D01*
X34163300Y38481300D02*
X22860000Y38481300D01*
X40132000Y44450000D02*
X34163300Y38481300D01*
X22860000Y36830000D02*
X22860000Y38481300D01*
X50751300Y38265300D02*
X56936000Y44450000D01*
X50165000Y38265300D02*
X50751300Y38265300D01*
X50165000Y36830000D02*
X50165000Y38265300D01*
X22860000Y44450000D02*
X22860000Y42798700D01*
X35940700Y42798700D02*
X37592000Y44450000D01*
X22860000Y42798700D02*
X35940700Y42798700D01*
X32385000Y10160000D02*
X32385000Y11811300D01*
X22225000Y9902700D02*
X22225000Y4445000D01*
X24133600Y11811300D02*
X22225000Y9902700D01*
X32385000Y11811300D02*
X24133600Y11811300D01*
X47625000Y10160000D02*
X47625000Y11557200D01*
X51053700Y46101300D02*
X37592000Y46101300D01*
X52705000Y44450000D02*
X51053700Y46101300D01*
X37592000Y44450000D02*
X37592000Y46101300D01*
X47625000Y11557200D02*
X47625000Y11811300D01*
X47625000Y11811300D02*
X32385000Y11811300D01*
X50189200Y14375500D02*
X56005000Y14375500D01*
X47625000Y11811300D02*
X50189200Y14375500D01*
X71633000Y8508700D02*
X67945000Y8508700D01*
X71984000Y8859700D02*
X71633000Y8508700D01*
X71984000Y11439000D02*
X71984000Y8859700D01*
X69047500Y14375500D02*
X71984000Y11439000D01*
X56005000Y14375500D02*
X69047500Y14375500D01*
X67945000Y10160000D02*
X67945000Y8508700D01*
D26*
X62865000Y19050000D02*
X61620100Y19050000D01*
X32385000Y19050000D02*
X33629900Y19050000D01*
X61620100Y19672400D02*
X61620100Y19050000D01*
X60322800Y20969700D02*
X61620100Y19672400D01*
X34881400Y20969700D02*
X60322800Y20969700D01*
X33629900Y19718200D02*
X34881400Y20969700D01*
X33629900Y19050000D02*
X33629900Y19718200D01*
X67945000Y19050000D02*
X69189900Y19050000D01*
X40005000Y19050000D02*
X41249900Y19050000D01*
X55245000Y1905000D02*
X56489900Y1905000D01*
X72769700Y12765700D02*
X69454300Y16081100D01*
X72769700Y8567200D02*
X72769700Y12765700D01*
X71247500Y7045000D02*
X72769700Y8567200D01*
X61083600Y7045000D02*
X71247500Y7045000D01*
X59055000Y5016400D02*
X61083600Y7045000D01*
X59055000Y3893600D02*
X59055000Y5016400D01*
X58311300Y3149900D02*
X59055000Y3893600D01*
X57267900Y3149900D02*
X58311300Y3149900D01*
X56489900Y2371900D02*
X57267900Y3149900D01*
X56489900Y1905000D02*
X56489900Y2371900D01*
X43550600Y16081100D02*
X69454300Y16081100D01*
X41249900Y18381800D02*
X43550600Y16081100D01*
X41249900Y19050000D02*
X41249900Y18381800D01*
X69189900Y19672400D02*
X69189900Y19050000D01*
X69964900Y20447400D02*
X69189900Y19672400D01*
X71006400Y20447400D02*
X69964900Y20447400D01*
X71764400Y19689400D02*
X71006400Y20447400D01*
X71764400Y18391200D02*
X71764400Y19689400D01*
X69454300Y16081100D02*
X71764400Y18391200D01*
X65405000Y50165000D02*
X64160100Y50165000D01*
X49164300Y47372700D02*
X36057200Y47372700D01*
X51435000Y49643400D02*
X49164300Y47372700D01*
X51435000Y50681700D02*
X51435000Y49643400D01*
X52188300Y51435000D02*
X51435000Y50681700D01*
X63405900Y51435000D02*
X52188300Y51435000D01*
X64160100Y50680800D02*
X63405900Y51435000D01*
X64160100Y50165000D02*
X64160100Y50680800D01*
X40005000Y4445000D02*
X41249900Y4445000D01*
X60325000Y10160000D02*
X59080100Y10160000D01*
X41249900Y4911800D02*
X41249900Y4445000D01*
X42241000Y5902900D02*
X41249900Y4911800D01*
X45748000Y5902900D02*
X42241000Y5902900D01*
X46253900Y6408800D02*
X45748000Y5902900D01*
X55997100Y6408800D02*
X46253900Y6408800D01*
X59080100Y9491800D02*
X55997100Y6408800D01*
X59080100Y10160000D02*
X59080100Y9491800D01*
X61620100Y9491800D02*
X61620100Y10160000D01*
X57818200Y5689900D02*
X61620100Y9491800D01*
X47107900Y5689900D02*
X57818200Y5689900D01*
X46329900Y4911900D02*
X47107900Y5689900D01*
X46329900Y4445000D02*
X46329900Y4911900D01*
X45085000Y4445000D02*
X46329900Y4445000D01*
X62865000Y10160000D02*
X61620100Y10160000D01*
X47625000Y44450000D02*
X47625000Y43268700D01*
X62865000Y36830000D02*
X66675000Y36830000D01*
X48895000Y41998700D02*
X47625000Y43268700D01*
X48895000Y36426300D02*
X48895000Y41998700D01*
X49693000Y35628300D02*
X48895000Y36426300D01*
X60266000Y35628300D02*
X49693000Y35628300D01*
X61467700Y36830000D02*
X60266000Y35628300D01*
X62865000Y36830000D02*
X61467700Y36830000D01*
X68072300Y39497300D02*
X73025000Y44450000D01*
X68072300Y39370000D02*
X68072300Y39497300D01*
X66675000Y39370000D02*
X68072300Y39370000D01*
X63629800Y41017900D02*
X65277700Y39370000D01*
X61128400Y41017900D02*
X63629800Y41017900D01*
X58365800Y43780500D02*
X61128400Y41017900D01*
X58365800Y44491900D02*
X58365800Y43780500D01*
X57424500Y45433200D02*
X58365800Y44491900D01*
X56465000Y45433200D02*
X57424500Y45433200D01*
X54299600Y43267800D02*
X56465000Y45433200D01*
X52159300Y43267800D02*
X54299600Y43267800D01*
X51346300Y44080800D02*
X52159300Y43267800D01*
X51346300Y44450000D02*
X51346300Y44080800D01*
X50165000Y44450000D02*
X51346300Y44450000D01*
X66675000Y39370000D02*
X65277700Y39370000D01*
X41300100Y2420800D02*
X41300100Y1905000D01*
X40545900Y3175000D02*
X41300100Y2420800D01*
X34434200Y3175000D02*
X40545900Y3175000D01*
X33655000Y3954200D02*
X34434200Y3175000D01*
X33655000Y4977800D02*
X33655000Y3954200D01*
X32532500Y6100300D02*
X33655000Y4977800D01*
X31948600Y6100300D02*
X32532500Y6100300D01*
X28549900Y9499000D02*
X31948600Y6100300D01*
X28549900Y10160000D02*
X28549900Y9499000D01*
X27305000Y10160000D02*
X28549900Y10160000D01*
X42545000Y1905000D02*
X41300100Y1905000D01*
X43060800Y3200100D02*
X42545000Y3200100D01*
X43815000Y2445900D02*
X43060800Y3200100D01*
X43815000Y1330800D02*
X43815000Y2445900D01*
X43126800Y642600D02*
X43815000Y1330800D01*
X34333700Y642600D02*
X43126800Y642600D01*
X33655000Y1321300D02*
X34333700Y642600D01*
X33655000Y2423600D02*
X33655000Y1321300D01*
X32903600Y3175000D02*
X33655000Y2423600D01*
X31833600Y3175000D02*
X32903600Y3175000D01*
X31140000Y3868600D02*
X31833600Y3175000D01*
X31140000Y4942200D02*
X31140000Y3868600D01*
X30252600Y5829600D02*
X31140000Y4942200D01*
X29674000Y5829600D02*
X30252600Y5829600D01*
X26009900Y9493700D02*
X29674000Y5829600D01*
X26009900Y10160000D02*
X26009900Y9493700D01*
X24765000Y10160000D02*
X26009900Y10160000D01*
X42545000Y4445000D02*
X42545000Y3200100D01*
X55245000Y10160000D02*
X54000100Y10160000D01*
X45883300Y7044300D02*
X45453400Y6614400D01*
X50884400Y7044300D02*
X45883300Y7044300D01*
X54000100Y10160000D02*
X50884400Y7044300D01*
D27*
X81280000Y20320000D02*
X81280000Y17780000D01*
X79757900Y42162100D02*
X81280000Y40640000D01*
X75312900Y42162100D02*
X79757900Y42162100D01*
X59672100Y26521300D02*
X75312900Y42162100D01*
X42682400Y26521300D02*
X59672100Y26521300D01*
X37094200Y32109500D02*
X42682400Y26521300D01*
X33224600Y32109500D02*
X37094200Y32109500D01*
X28504100Y36830000D02*
X33224600Y32109500D01*
X25400000Y36830000D02*
X28504100Y36830000D01*
D26*
X31089900Y18381800D02*
X31089900Y19050000D01*
X31830100Y17641600D02*
X31089900Y18381800D01*
X37980500Y17641600D02*
X31830100Y17641600D01*
X38735000Y18396100D02*
X37980500Y17641600D01*
X38735000Y19744200D02*
X38735000Y18396100D01*
X39438200Y20447400D02*
X38735000Y19744200D01*
X58305100Y20447400D02*
X39438200Y20447400D01*
X59080100Y19672400D02*
X58305100Y20447400D01*
X59080100Y19050000D02*
X59080100Y19672400D01*
X60325000Y19050000D02*
X59080100Y19050000D01*
X29845000Y19050000D02*
X31089900Y19050000D01*
X46329900Y18381800D02*
X46329900Y19050000D01*
X47829400Y16882300D02*
X46329900Y18381800D01*
X52264900Y16882300D02*
X47829400Y16882300D01*
X45085000Y19050000D02*
X46329900Y19050000D01*
X37211000Y26670000D02*
X40132000Y26670000D01*
G36*
X18478179Y53593490D02*
X18478179Y53593490D01*
X18230032Y53064027D01*
X18350531Y52832000D01*
X19558000Y52832000D01*
X19558000Y52852000D01*
X19812000Y52852000D01*
X19812000Y52832000D01*
X19832000Y52832000D01*
X19832000Y52578000D01*
X19812000Y52578000D01*
X19812000Y52558000D01*
X19558000Y52558000D01*
X19558000Y52578000D01*
X18350531Y52578000D01*
X18230032Y52345973D01*
X18311569Y52172000D01*
X14961000Y52172000D01*
X14669395Y52113996D01*
X14422184Y51948815D01*
X10282683Y47809313D01*
X10205271Y48198489D01*
X9880415Y48684670D01*
X9858220Y48699500D01*
X10011698Y48763073D01*
X10190327Y48941701D01*
X10287000Y49175090D01*
X10287000Y49879250D01*
X10128250Y50038000D01*
X8763000Y50038000D01*
X8763000Y50018000D01*
X8509000Y50018000D01*
X8509000Y50038000D01*
X7143750Y50038000D01*
X6985000Y49879250D01*
X6985000Y49175090D01*
X7081673Y48941701D01*
X7260302Y48763073D01*
X7413780Y48699500D01*
X7391585Y48684670D01*
X7066729Y48198489D01*
X6952655Y47625000D01*
X7066729Y47051511D01*
X7391585Y46565330D01*
X7706366Y46355000D01*
X7391585Y46144670D01*
X7066729Y45658489D01*
X6952655Y45085000D01*
X7066729Y44511511D01*
X7391585Y44025330D01*
X7877766Y43700474D01*
X8451255Y43586400D01*
X8820745Y43586400D01*
X9394234Y43700474D01*
X9880415Y44025330D01*
X10205271Y44511511D01*
X10319345Y45085000D01*
X10207148Y45649052D01*
X10419715Y45791085D01*
X10761975Y46133345D01*
X17780000Y46133345D01*
X17206511Y46019271D01*
X16720330Y45694415D01*
X16395474Y45208234D01*
X16281400Y44634745D01*
X16281400Y44265255D01*
X16395474Y43691766D01*
X16720330Y43205585D01*
X17206511Y42880729D01*
X17780000Y42766655D01*
X18353489Y42880729D01*
X18839670Y43205585D01*
X19046461Y43515069D01*
X19417964Y43099268D01*
X19945209Y42845291D01*
X19960974Y42842642D01*
X20193000Y42963783D01*
X20193000Y44323000D01*
X20173000Y44323000D01*
X20173000Y44577000D01*
X20193000Y44577000D01*
X20193000Y45936217D01*
X19960974Y46057358D01*
X19945209Y46054709D01*
X19417964Y45800732D01*
X19046461Y45384931D01*
X18839670Y45694415D01*
X18353489Y46019271D01*
X17780000Y46133345D01*
X10761975Y46133345D01*
X14666630Y50038000D01*
X18345150Y50038000D01*
X18186400Y49879250D01*
X18186400Y49175091D01*
X18283073Y48941702D01*
X18461701Y48763073D01*
X18695090Y48666400D01*
X19399250Y48666400D01*
X19558000Y48825150D01*
X19558000Y50038000D01*
X18345150Y50038000D01*
X14666630Y50038000D01*
X15276631Y50648000D01*
X18186400Y50648000D01*
X18186400Y50450750D01*
X18345150Y50292000D01*
X19558000Y50292000D01*
X19558000Y50312000D01*
X19812000Y50312000D01*
X19812000Y50292000D01*
X19832000Y50292000D01*
X19832000Y50038000D01*
X19812000Y50038000D01*
X19812000Y48825150D01*
X19970750Y48666400D01*
X20674910Y48666400D01*
X20908299Y48763073D01*
X21086927Y48941702D01*
X21151263Y49097023D01*
X21165330Y49075971D01*
X21651511Y48751115D01*
X22225000Y48637041D01*
X22798489Y48751115D01*
X23284670Y49075971D01*
X23495000Y49390752D01*
X23705330Y49075971D01*
X24191511Y48751115D01*
X24765000Y48637041D01*
X25338489Y48751115D01*
X25824670Y49075971D01*
X26035000Y49390752D01*
X26245330Y49075971D01*
X26731511Y48751115D01*
X27305000Y48637041D01*
X27878489Y48751115D01*
X28364670Y49075971D01*
X28575000Y49390752D01*
X28785330Y49075971D01*
X29271511Y48751115D01*
X29845000Y48637041D01*
X30418489Y48751115D01*
X30904670Y49075971D01*
X31115000Y49390752D01*
X31325330Y49075971D01*
X31811511Y48751115D01*
X32385000Y48637041D01*
X32958489Y48751115D01*
X33444670Y49075971D01*
X33655000Y49390752D01*
X33865330Y49075971D01*
X34351511Y48751115D01*
X34925000Y48637041D01*
X35498489Y48751115D01*
X35984670Y49075971D01*
X36195000Y49390752D01*
X36405330Y49075971D01*
X36891511Y48751115D01*
X37465000Y48637041D01*
X38038489Y48751115D01*
X38524670Y49075971D01*
X38735000Y49390752D01*
X38945330Y49075971D01*
X39431511Y48751115D01*
X40005000Y48637041D01*
X40578489Y48751115D01*
X41064670Y49075971D01*
X41275000Y49390752D01*
X41485330Y49075971D01*
X41971511Y48751115D01*
X42545000Y48637041D01*
X43118489Y48751115D01*
X43604670Y49075971D01*
X43815000Y49390752D01*
X44025330Y49075971D01*
X44511511Y48751115D01*
X45085000Y48637041D01*
X45658489Y48751115D01*
X46144670Y49075971D01*
X46355000Y49390752D01*
X46565330Y49075971D01*
X47051511Y48751115D01*
X47625000Y48637041D01*
X48198489Y48751115D01*
X48684670Y49075971D01*
X48895000Y49390752D01*
X49105330Y49075971D01*
X49515724Y48801754D01*
X48848670Y48134700D01*
X36660338Y48134700D01*
X36604656Y48190479D01*
X36250032Y48337732D01*
X35866052Y48338067D01*
X35511173Y48191434D01*
X35239421Y47920156D01*
X35092168Y47565532D01*
X35091833Y47181552D01*
X35238466Y46826673D01*
X35509744Y46554921D01*
X35864368Y46407668D01*
X36248348Y46407333D01*
X36603227Y46553966D01*
X36660060Y46610700D01*
X36733917Y46610700D01*
X36653338Y46490106D01*
X36576000Y46101300D01*
X36576000Y45723594D01*
X36532330Y45694415D01*
X36325539Y45384931D01*
X35954036Y45800732D01*
X35426791Y46054709D01*
X35411026Y46057358D01*
X35179000Y45936217D01*
X35179000Y44577000D01*
X35199000Y44577000D01*
X35199000Y44323000D01*
X35179000Y44323000D01*
X35179000Y44303000D01*
X34925000Y44303000D01*
X34925000Y44323000D01*
X34905000Y44323000D01*
X34905000Y44577000D01*
X34925000Y44577000D01*
X34925000Y45936217D01*
X34692974Y46057358D01*
X34677209Y46054709D01*
X34149964Y45800732D01*
X33778461Y45384931D01*
X33571670Y45694415D01*
X33085489Y46019271D01*
X32512000Y46133345D01*
X31938511Y46019271D01*
X31452330Y45694415D01*
X31242000Y45379634D01*
X31031670Y45694415D01*
X30545489Y46019271D01*
X29972000Y46133345D01*
X29398511Y46019271D01*
X28912330Y45694415D01*
X28587474Y45208234D01*
X28473400Y44634745D01*
X28473400Y44265255D01*
X28563021Y43814700D01*
X26911040Y43814700D01*
X26911040Y45466000D01*
X26864063Y45708123D01*
X26724273Y45920927D01*
X26513240Y46063377D01*
X26263600Y46113440D01*
X24536400Y46113440D01*
X24294277Y46066463D01*
X24081473Y45926673D01*
X23939023Y45715640D01*
X23931282Y45677037D01*
X23919670Y45694415D01*
X23433489Y46019271D01*
X22860000Y46133345D01*
X22286511Y46019271D01*
X21800330Y45694415D01*
X21593539Y45384931D01*
X21222036Y45800732D01*
X20694791Y46054709D01*
X20679026Y46057358D01*
X20447000Y45936217D01*
X20447000Y44577000D01*
X20467000Y44577000D01*
X20467000Y44323000D01*
X20447000Y44323000D01*
X20447000Y42963783D01*
X20679026Y42842642D01*
X20694791Y42845291D01*
X21222036Y43099268D01*
X21593539Y43515069D01*
X21800330Y43205585D01*
X21844000Y43176406D01*
X21844000Y42798700D01*
X21921338Y42409894D01*
X22141580Y42080280D01*
X22471194Y41860038D01*
X22860000Y41782700D01*
X35940700Y41782700D01*
X36049501Y41804342D01*
X33742460Y39497300D01*
X22860000Y39497300D01*
X22471194Y39419962D01*
X22141580Y39199720D01*
X21921338Y38870106D01*
X21844000Y38481300D01*
X21844000Y38130962D01*
X21692567Y38029778D01*
X21334675Y37494155D01*
X21209000Y36862345D01*
X21209000Y36797655D01*
X21334675Y36165845D01*
X21692567Y35630222D01*
X22228190Y35272330D01*
X22860000Y35146655D01*
X23491810Y35272330D01*
X23831299Y35499169D01*
X23923327Y35359073D01*
X24134360Y35216623D01*
X24384000Y35166560D01*
X26416000Y35166560D01*
X26658123Y35213537D01*
X26870927Y35353327D01*
X27013377Y35564360D01*
X27063440Y35814000D01*
X28083260Y35814000D01*
X29611297Y34285963D01*
X29591000Y34290000D01*
X22606000Y34290000D01*
X22557399Y34280333D01*
X22516197Y34252803D01*
X22488667Y34211601D01*
X22479000Y34163000D01*
X22479000Y27178000D01*
X22488667Y27129399D01*
X22516197Y27088197D01*
X22557399Y27060667D01*
X22606000Y27051000D01*
X29591000Y27051000D01*
X29639601Y27060667D01*
X29680803Y27088197D01*
X29708333Y27129399D01*
X29718000Y27178000D01*
X29718000Y34163000D01*
X29713963Y34183297D01*
X32506179Y31391080D01*
X32835793Y31170838D01*
X32900300Y31158007D01*
X33224600Y31093500D01*
X36673360Y31093500D01*
X39563314Y28203545D01*
X39207345Y28056462D01*
X38747154Y27597073D01*
X38678610Y27432000D01*
X38664670Y27432000D01*
X38597462Y27594655D01*
X38138073Y28054846D01*
X37537547Y28304206D01*
X36887306Y28304774D01*
X36286345Y28056462D01*
X35826154Y27597073D01*
X35750623Y27415173D01*
X35676462Y27594655D01*
X35217073Y28054846D01*
X34616547Y28304206D01*
X33966306Y28304774D01*
X33365345Y28056462D01*
X32905154Y27597073D01*
X32829623Y27415173D01*
X32755462Y27594655D01*
X32296073Y28054846D01*
X31695547Y28304206D01*
X31045306Y28304774D01*
X30444345Y28056462D01*
X29984154Y27597073D01*
X29734794Y26996547D01*
X29734226Y26346306D01*
X29982538Y25745345D01*
X30441927Y25285154D01*
X31042453Y25035794D01*
X31692694Y25035226D01*
X32293655Y25283538D01*
X32753846Y25742927D01*
X32829377Y25924827D01*
X32903538Y25745345D01*
X33362927Y25285154D01*
X33963453Y25035794D01*
X34613694Y25035226D01*
X35214655Y25283538D01*
X35674846Y25742927D01*
X35750377Y25924827D01*
X35824538Y25745345D01*
X36283927Y25285154D01*
X36884453Y25035794D01*
X37534694Y25035226D01*
X38135655Y25283538D01*
X38595846Y25742927D01*
X38664390Y25908000D01*
X38678330Y25908000D01*
X38745538Y25745345D01*
X39204927Y25285154D01*
X39805453Y25035794D01*
X40455694Y25035226D01*
X41056655Y25283538D01*
X41516846Y25742927D01*
X41665627Y26101232D01*
X41963979Y25802880D01*
X42184221Y25655719D01*
X42293594Y25582638D01*
X42682400Y25505300D01*
X59672100Y25505300D01*
X59996400Y25569807D01*
X60060907Y25582638D01*
X60390520Y25802880D01*
X65659000Y31071360D01*
X65659000Y24511000D01*
X65668667Y24462399D01*
X65696197Y24421197D01*
X65737399Y24393667D01*
X65786000Y24384000D01*
X72771000Y24384000D01*
X72819601Y24393667D01*
X72860803Y24421197D01*
X72888333Y24462399D01*
X72898000Y24511000D01*
X72898000Y31496000D01*
X72888333Y31544601D01*
X72860803Y31585803D01*
X72819601Y31613333D01*
X72771000Y31623000D01*
X66210640Y31623000D01*
X75733741Y41146100D01*
X77157325Y41146100D01*
X77056655Y40640000D01*
X77170729Y40066511D01*
X77495585Y39580330D01*
X77810366Y39370000D01*
X77495585Y39159670D01*
X77170729Y38673489D01*
X77056655Y38100000D01*
X77170729Y37526511D01*
X77495585Y37040330D01*
X77810366Y36830000D01*
X77495585Y36619670D01*
X77170729Y36133489D01*
X77056655Y35560000D01*
X77170729Y34986511D01*
X77495585Y34500330D01*
X77810366Y34290000D01*
X77495585Y34079670D01*
X77170729Y33593489D01*
X77056655Y33020000D01*
X77170729Y32446511D01*
X77495585Y31960330D01*
X77810366Y31750000D01*
X77495585Y31539670D01*
X77170729Y31053489D01*
X77056655Y30480000D01*
X77170729Y29906511D01*
X77495585Y29420330D01*
X77810366Y29210000D01*
X77495585Y28999670D01*
X77170729Y28513489D01*
X77056655Y27940000D01*
X77170729Y27366511D01*
X77495585Y26880330D01*
X77810366Y26670000D01*
X77495585Y26459670D01*
X77170729Y25973489D01*
X77056655Y25400000D01*
X77170729Y24826511D01*
X77495585Y24340330D01*
X77810366Y24130000D01*
X77495585Y23919670D01*
X77170729Y23433489D01*
X77056655Y22860000D01*
X77170729Y22286511D01*
X77495585Y21800330D01*
X77810366Y21590000D01*
X77495585Y21379670D01*
X77170729Y20893489D01*
X77093317Y20504313D01*
X75565915Y22031715D01*
X75486089Y22085053D01*
X75318705Y22196896D01*
X75027100Y22254900D01*
X23464400Y22254900D01*
X23172795Y22196896D01*
X23005411Y22085053D01*
X22925585Y22031715D01*
X18077070Y17183200D01*
X9182200Y17183200D01*
X8890595Y17125196D01*
X8643384Y16960015D01*
X4567683Y12884313D01*
X4490271Y13273489D01*
X4165415Y13759670D01*
X4143220Y13774500D01*
X4296698Y13838073D01*
X4475327Y14016701D01*
X4572000Y14250090D01*
X4572000Y14954250D01*
X4413250Y15113000D01*
X3048000Y15113000D01*
X3048000Y15093000D01*
X2794000Y15093000D01*
X2794000Y15113000D01*
X1428750Y15113000D01*
X1270000Y14954250D01*
X1270000Y14250090D01*
X1366673Y14016701D01*
X1545302Y13838073D01*
X1698780Y13774500D01*
X1676585Y13759670D01*
X1351729Y13273489D01*
X1237655Y12700000D01*
X1351729Y12126511D01*
X1676585Y11640330D01*
X1991366Y11430000D01*
X1676585Y11219670D01*
X1351729Y10733489D01*
X1237655Y10160000D01*
X1351729Y9586511D01*
X1676585Y9100330D01*
X2162766Y8775474D01*
X2736255Y8661400D01*
X3105745Y8661400D01*
X3679234Y8775474D01*
X4165415Y9100330D01*
X4490271Y9586511D01*
X4579083Y10033000D01*
X10724076Y10033000D01*
X10579816Y9798087D01*
X10773046Y9245680D01*
X11162964Y8809268D01*
X11690209Y8555291D01*
X11705974Y8552642D01*
X11938000Y8673783D01*
X11938000Y10033000D01*
X10724076Y10033000D01*
X4579083Y10033000D01*
X4604345Y10160000D01*
X4492148Y10724052D01*
X4704715Y10866085D01*
X5605988Y11767358D01*
X11705974Y11767358D01*
X11690209Y11764709D01*
X11162964Y11510732D01*
X10773046Y11074320D01*
X10579816Y10521913D01*
X10724076Y10287000D01*
X11938000Y10287000D01*
X11938000Y11646217D01*
X11705974Y11767358D01*
X5605988Y11767358D01*
X5681975Y11843345D01*
X14605000Y11843345D01*
X14031511Y11729271D01*
X13545330Y11404415D01*
X13338539Y11094931D01*
X12967036Y11510732D01*
X12439791Y11764709D01*
X12424026Y11767358D01*
X12192000Y11646217D01*
X12192000Y10287000D01*
X12212000Y10287000D01*
X12212000Y10033000D01*
X12192000Y10033000D01*
X12192000Y8673783D01*
X12424026Y8552642D01*
X12439791Y8555291D01*
X12967036Y8809268D01*
X13338539Y9225069D01*
X13545330Y8915585D01*
X14031511Y8590729D01*
X14605000Y8476655D01*
X15178489Y8590729D01*
X15664670Y8915585D01*
X15875000Y9230366D01*
X16085330Y8915585D01*
X16571511Y8590729D01*
X16661073Y8572914D01*
X13699308Y5611148D01*
X13681463Y5703123D01*
X13541673Y5915927D01*
X13330640Y6058377D01*
X13081000Y6108440D01*
X11049000Y6108440D01*
X10806877Y6061463D01*
X10594073Y5921673D01*
X10451623Y5710640D01*
X10401560Y5461000D01*
X10401560Y3429000D01*
X10448537Y3186877D01*
X10588327Y2974073D01*
X10748043Y2866262D01*
X10658615Y2769818D01*
X10459025Y2287944D01*
X10578164Y2032000D01*
X11938000Y2032000D01*
X11938000Y2052000D01*
X12192000Y2052000D01*
X12192000Y2032000D01*
X13551836Y2032000D01*
X13670975Y2287944D01*
X13471385Y2769818D01*
X13381425Y2866836D01*
X13535927Y2968327D01*
X13678377Y3179360D01*
X13728440Y3429000D01*
X13970000Y3429000D01*
X14294300Y3493507D01*
X14358807Y3506338D01*
X14688420Y3726580D01*
X15279840Y4318000D01*
X18350531Y4318000D01*
X18230032Y4085973D01*
X18478179Y3556510D01*
X18661119Y3389529D01*
X18461701Y3306927D01*
X18283073Y3128298D01*
X18186400Y2894909D01*
X18186400Y2190750D01*
X18345150Y2032000D01*
X19558000Y2032000D01*
X19558000Y4318000D01*
X18350531Y4318000D01*
X15279840Y4318000D01*
X16861798Y5899958D01*
X19325974Y5899958D01*
X18910053Y5727688D01*
X18478179Y5333490D01*
X18230032Y4804027D01*
X18350531Y4572000D01*
X19558000Y4572000D01*
X19558000Y5778817D01*
X19325974Y5899958D01*
X16861798Y5899958D01*
X19458401Y8496560D01*
X20548600Y8496560D01*
X20790723Y8543537D01*
X21003527Y8683327D01*
X21145977Y8894360D01*
X21196040Y9144000D01*
X21196040Y11176000D01*
X21149063Y11418123D01*
X21009273Y11630927D01*
X20798240Y11773377D01*
X20548600Y11823440D01*
X18821400Y11823440D01*
X18579277Y11776463D01*
X18366473Y11636673D01*
X18224023Y11425640D01*
X18216282Y11387037D01*
X18204670Y11404415D01*
X17718489Y11729271D01*
X17145000Y11843345D01*
X16571511Y11729271D01*
X16085330Y11404415D01*
X15875000Y11089634D01*
X15664670Y11404415D01*
X15178489Y11729271D01*
X14605000Y11843345D01*
X5681975Y11843345D01*
X9497831Y15659200D01*
X18392700Y15659200D01*
X18684305Y15717204D01*
X18931515Y15882385D01*
X23288785Y20239655D01*
X23253960Y20066000D01*
X23253960Y18034000D01*
X23300937Y17791877D01*
X23440727Y17579073D01*
X23651760Y17436623D01*
X23901400Y17386560D01*
X25628600Y17386560D01*
X25870723Y17433537D01*
X26083527Y17573327D01*
X26225977Y17784360D01*
X26244484Y17876645D01*
X26402964Y17699268D01*
X26930209Y17445291D01*
X26945974Y17442642D01*
X27178000Y17563783D01*
X27178000Y18923000D01*
X27158000Y18923000D01*
X27158000Y19177000D01*
X27178000Y19177000D01*
X27178000Y20536217D01*
X26945974Y20657358D01*
X26930209Y20654709D01*
X26402964Y20400732D01*
X26245327Y20224298D01*
X26229063Y20308123D01*
X26089273Y20520927D01*
X25878240Y20663377D01*
X25628600Y20713440D01*
X23901400Y20713440D01*
X23729150Y20680020D01*
X23780030Y20730900D01*
X29832708Y20730900D01*
X29271511Y20619271D01*
X28785330Y20294415D01*
X28578539Y19984931D01*
X28207036Y20400732D01*
X27679791Y20654709D01*
X27664026Y20657358D01*
X27432000Y20536217D01*
X27432000Y19177000D01*
X27452000Y19177000D01*
X27452000Y18923000D01*
X27432000Y18923000D01*
X27432000Y17563783D01*
X27664026Y17442642D01*
X27679791Y17445291D01*
X28207036Y17699268D01*
X28578539Y18115069D01*
X28785330Y17805585D01*
X29271511Y17480729D01*
X29845000Y17366655D01*
X30418489Y17480729D01*
X30715131Y17678939D01*
X31291285Y17102785D01*
X31538495Y16937604D01*
X31830100Y16879600D01*
X37980500Y16879600D01*
X38272105Y16937604D01*
X38519315Y17102785D01*
X39111250Y17694720D01*
X39431511Y17480729D01*
X40005000Y17366655D01*
X40578489Y17480729D01*
X40875131Y17678939D01*
X43011785Y15542285D01*
X43258995Y15377104D01*
X43550600Y15319100D01*
X49825219Y15319100D01*
X49800394Y15314162D01*
X49691021Y15241081D01*
X49470779Y15093920D01*
X47204160Y12827300D01*
X24133600Y12827300D01*
X23823915Y12765700D01*
X23744793Y12749962D01*
X23415180Y12529720D01*
X21506580Y10621120D01*
X21286338Y10291507D01*
X21278838Y10253800D01*
X21209000Y9902700D01*
X21209000Y5563208D01*
X21165330Y5534029D01*
X20949336Y5210772D01*
X20891821Y5333490D01*
X20459947Y5727688D01*
X20044026Y5899958D01*
X19812000Y5778817D01*
X19812000Y4572000D01*
X19832000Y4572000D01*
X19832000Y4318000D01*
X19812000Y4318000D01*
X19812000Y2032000D01*
X19832000Y2032000D01*
X19832000Y1778000D01*
X19812000Y1778000D01*
X19812000Y1758000D01*
X19558000Y1758000D01*
X19558000Y1778000D01*
X18345150Y1778000D01*
X18186400Y1619250D01*
X18186400Y915091D01*
X18281707Y685000D01*
X13142042Y685000D01*
X13471385Y1040182D01*
X13670975Y1522056D01*
X13551836Y1778000D01*
X12192000Y1778000D01*
X12192000Y1758000D01*
X11938000Y1758000D01*
X11938000Y1778000D01*
X10578164Y1778000D01*
X10459025Y1522056D01*
X10658615Y1040182D01*
X10987958Y685000D01*
X6417467Y685000D01*
X4187235Y1128621D01*
X2353730Y2353730D01*
X1128621Y4187235D01*
X685000Y6417467D01*
X685000Y16738600D01*
X1778691Y16738600D01*
X1545302Y16641927D01*
X1366673Y16463299D01*
X1270000Y16229910D01*
X1270000Y15525750D01*
X1428750Y15367000D01*
X2794000Y15367000D01*
X2794000Y16579850D01*
X2635250Y16738600D01*
X3206750Y16738600D01*
X3048000Y16579850D01*
X3048000Y15367000D01*
X4413250Y15367000D01*
X4572000Y15525750D01*
X4572000Y16229910D01*
X4475327Y16463299D01*
X4296698Y16641927D01*
X4063309Y16738600D01*
X3206750Y16738600D01*
X2635250Y16738600D01*
X2635250Y16738600D01*
X1778691Y16738600D01*
X685000Y16738600D01*
X685000Y20270000D01*
X20320000Y20270000D01*
X20582138Y20322143D01*
X20804368Y20470632D01*
X20952857Y20692862D01*
X21005000Y20955000D01*
X21005000Y38735000D01*
X20952857Y38997138D01*
X20804368Y39219368D01*
X20582138Y39367857D01*
X20320000Y39420000D01*
X6400000Y39420000D01*
X6400000Y51663600D01*
X7493691Y51663600D01*
X7260302Y51566927D01*
X7081673Y51388299D01*
X6985000Y51154910D01*
X6985000Y50450750D01*
X7143750Y50292000D01*
X8509000Y50292000D01*
X8509000Y51504850D01*
X8350250Y51663600D01*
X8921750Y51663600D01*
X8763000Y51504850D01*
X8763000Y50292000D01*
X10128250Y50292000D01*
X10287000Y50450750D01*
X10287000Y51154910D01*
X10190327Y51388299D01*
X10011698Y51566927D01*
X9778309Y51663600D01*
X8921750Y51663600D01*
X8350250Y51663600D01*
X8350250Y51663600D01*
X7493691Y51663600D01*
X6400000Y51663600D01*
X6400000Y53925000D01*
X18841374Y53925000D01*
X18478179Y53593490D01*
X18478179Y53593490D01*
G37*
X18478179Y53593490D02*
X18478179Y53593490D01*
X18230032Y53064027D01*
X18350531Y52832000D01*
X19558000Y52832000D01*
X19558000Y52852000D01*
X19812000Y52852000D01*
X19812000Y52832000D01*
X19832000Y52832000D01*
X19832000Y52578000D01*
X19812000Y52578000D01*
X19812000Y52558000D01*
X19558000Y52558000D01*
X19558000Y52578000D01*
X18350531Y52578000D01*
X18230032Y52345973D01*
X18311569Y52172000D01*
X14961000Y52172000D01*
X14669395Y52113996D01*
X14422184Y51948815D01*
X10282683Y47809313D01*
X10205271Y48198489D01*
X9880415Y48684670D01*
X9858220Y48699500D01*
X10011698Y48763073D01*
X10190327Y48941701D01*
X10287000Y49175090D01*
X10287000Y49879250D01*
X10128250Y50038000D01*
X8763000Y50038000D01*
X8763000Y50018000D01*
X8509000Y50018000D01*
X8509000Y50038000D01*
X7143750Y50038000D01*
X6985000Y49879250D01*
X6985000Y49175090D01*
X7081673Y48941701D01*
X7260302Y48763073D01*
X7413780Y48699500D01*
X7391585Y48684670D01*
X7066729Y48198489D01*
X6952655Y47625000D01*
X7066729Y47051511D01*
X7391585Y46565330D01*
X7706366Y46355000D01*
X7391585Y46144670D01*
X7066729Y45658489D01*
X6952655Y45085000D01*
X7066729Y44511511D01*
X7391585Y44025330D01*
X7877766Y43700474D01*
X8451255Y43586400D01*
X8820745Y43586400D01*
X9394234Y43700474D01*
X9880415Y44025330D01*
X10205271Y44511511D01*
X10319345Y45085000D01*
X10207148Y45649052D01*
X10419715Y45791085D01*
X10761975Y46133345D01*
X17780000Y46133345D01*
X17206511Y46019271D01*
X16720330Y45694415D01*
X16395474Y45208234D01*
X16281400Y44634745D01*
X16281400Y44265255D01*
X16395474Y43691766D01*
X16720330Y43205585D01*
X17206511Y42880729D01*
X17780000Y42766655D01*
X18353489Y42880729D01*
X18839670Y43205585D01*
X19046461Y43515069D01*
X19417964Y43099268D01*
X19945209Y42845291D01*
X19960974Y42842642D01*
X20193000Y42963783D01*
X20193000Y44323000D01*
X20173000Y44323000D01*
X20173000Y44577000D01*
X20193000Y44577000D01*
X20193000Y45936217D01*
X19960974Y46057358D01*
X19945209Y46054709D01*
X19417964Y45800732D01*
X19046461Y45384931D01*
X18839670Y45694415D01*
X18353489Y46019271D01*
X17780000Y46133345D01*
X10761975Y46133345D01*
X14666630Y50038000D01*
X18345150Y50038000D01*
X18186400Y49879250D01*
X18186400Y49175091D01*
X18283073Y48941702D01*
X18461701Y48763073D01*
X18695090Y48666400D01*
X19399250Y48666400D01*
X19558000Y48825150D01*
X19558000Y50038000D01*
X18345150Y50038000D01*
X14666630Y50038000D01*
X15276631Y50648000D01*
X18186400Y50648000D01*
X18186400Y50450750D01*
X18345150Y50292000D01*
X19558000Y50292000D01*
X19558000Y50312000D01*
X19812000Y50312000D01*
X19812000Y50292000D01*
X19832000Y50292000D01*
X19832000Y50038000D01*
X19812000Y50038000D01*
X19812000Y48825150D01*
X19970750Y48666400D01*
X20674910Y48666400D01*
X20908299Y48763073D01*
X21086927Y48941702D01*
X21151263Y49097023D01*
X21165330Y49075971D01*
X21651511Y48751115D01*
X22225000Y48637041D01*
X22798489Y48751115D01*
X23284670Y49075971D01*
X23495000Y49390752D01*
X23705330Y49075971D01*
X24191511Y48751115D01*
X24765000Y48637041D01*
X25338489Y48751115D01*
X25824670Y49075971D01*
X26035000Y49390752D01*
X26245330Y49075971D01*
X26731511Y48751115D01*
X27305000Y48637041D01*
X27878489Y48751115D01*
X28364670Y49075971D01*
X28575000Y49390752D01*
X28785330Y49075971D01*
X29271511Y48751115D01*
X29845000Y48637041D01*
X30418489Y48751115D01*
X30904670Y49075971D01*
X31115000Y49390752D01*
X31325330Y49075971D01*
X31811511Y48751115D01*
X32385000Y48637041D01*
X32958489Y48751115D01*
X33444670Y49075971D01*
X33655000Y49390752D01*
X33865330Y49075971D01*
X34351511Y48751115D01*
X34925000Y48637041D01*
X35498489Y48751115D01*
X35984670Y49075971D01*
X36195000Y49390752D01*
X36405330Y49075971D01*
X36891511Y48751115D01*
X37465000Y48637041D01*
X38038489Y48751115D01*
X38524670Y49075971D01*
X38735000Y49390752D01*
X38945330Y49075971D01*
X39431511Y48751115D01*
X40005000Y48637041D01*
X40578489Y48751115D01*
X41064670Y49075971D01*
X41275000Y49390752D01*
X41485330Y49075971D01*
X41971511Y48751115D01*
X42545000Y48637041D01*
X43118489Y48751115D01*
X43604670Y49075971D01*
X43815000Y49390752D01*
X44025330Y49075971D01*
X44511511Y48751115D01*
X45085000Y48637041D01*
X45658489Y48751115D01*
X46144670Y49075971D01*
X46355000Y49390752D01*
X46565330Y49075971D01*
X47051511Y48751115D01*
X47625000Y48637041D01*
X48198489Y48751115D01*
X48684670Y49075971D01*
X48895000Y49390752D01*
X49105330Y49075971D01*
X49515724Y48801754D01*
X48848670Y48134700D01*
X36660338Y48134700D01*
X36604656Y48190479D01*
X36250032Y48337732D01*
X35866052Y48338067D01*
X35511173Y48191434D01*
X35239421Y47920156D01*
X35092168Y47565532D01*
X35091833Y47181552D01*
X35238466Y46826673D01*
X35509744Y46554921D01*
X35864368Y46407668D01*
X36248348Y46407333D01*
X36603227Y46553966D01*
X36660060Y46610700D01*
X36733917Y46610700D01*
X36653338Y46490106D01*
X36576000Y46101300D01*
X36576000Y45723594D01*
X36532330Y45694415D01*
X36325539Y45384931D01*
X35954036Y45800732D01*
X35426791Y46054709D01*
X35411026Y46057358D01*
X35179000Y45936217D01*
X35179000Y44577000D01*
X35199000Y44577000D01*
X35199000Y44323000D01*
X35179000Y44323000D01*
X35179000Y44303000D01*
X34925000Y44303000D01*
X34925000Y44323000D01*
X34905000Y44323000D01*
X34905000Y44577000D01*
X34925000Y44577000D01*
X34925000Y45936217D01*
X34692974Y46057358D01*
X34677209Y46054709D01*
X34149964Y45800732D01*
X33778461Y45384931D01*
X33571670Y45694415D01*
X33085489Y46019271D01*
X32512000Y46133345D01*
X31938511Y46019271D01*
X31452330Y45694415D01*
X31242000Y45379634D01*
X31031670Y45694415D01*
X30545489Y46019271D01*
X29972000Y46133345D01*
X29398511Y46019271D01*
X28912330Y45694415D01*
X28587474Y45208234D01*
X28473400Y44634745D01*
X28473400Y44265255D01*
X28563021Y43814700D01*
X26911040Y43814700D01*
X26911040Y45466000D01*
X26864063Y45708123D01*
X26724273Y45920927D01*
X26513240Y46063377D01*
X26263600Y46113440D01*
X24536400Y46113440D01*
X24294277Y46066463D01*
X24081473Y45926673D01*
X23939023Y45715640D01*
X23931282Y45677037D01*
X23919670Y45694415D01*
X23433489Y46019271D01*
X22860000Y46133345D01*
X22286511Y46019271D01*
X21800330Y45694415D01*
X21593539Y45384931D01*
X21222036Y45800732D01*
X20694791Y46054709D01*
X20679026Y46057358D01*
X20447000Y45936217D01*
X20447000Y44577000D01*
X20467000Y44577000D01*
X20467000Y44323000D01*
X20447000Y44323000D01*
X20447000Y42963783D01*
X20679026Y42842642D01*
X20694791Y42845291D01*
X21222036Y43099268D01*
X21593539Y43515069D01*
X21800330Y43205585D01*
X21844000Y43176406D01*
X21844000Y42798700D01*
X21921338Y42409894D01*
X22141580Y42080280D01*
X22471194Y41860038D01*
X22860000Y41782700D01*
X35940700Y41782700D01*
X36049501Y41804342D01*
X33742460Y39497300D01*
X22860000Y39497300D01*
X22471194Y39419962D01*
X22141580Y39199720D01*
X21921338Y38870106D01*
X21844000Y38481300D01*
X21844000Y38130962D01*
X21692567Y38029778D01*
X21334675Y37494155D01*
X21209000Y36862345D01*
X21209000Y36797655D01*
X21334675Y36165845D01*
X21692567Y35630222D01*
X22228190Y35272330D01*
X22860000Y35146655D01*
X23491810Y35272330D01*
X23831299Y35499169D01*
X23923327Y35359073D01*
X24134360Y35216623D01*
X24384000Y35166560D01*
X26416000Y35166560D01*
X26658123Y35213537D01*
X26870927Y35353327D01*
X27013377Y35564360D01*
X27063440Y35814000D01*
X28083260Y35814000D01*
X29611297Y34285963D01*
X29591000Y34290000D01*
X22606000Y34290000D01*
X22557399Y34280333D01*
X22516197Y34252803D01*
X22488667Y34211601D01*
X22479000Y34163000D01*
X22479000Y27178000D01*
X22488667Y27129399D01*
X22516197Y27088197D01*
X22557399Y27060667D01*
X22606000Y27051000D01*
X29591000Y27051000D01*
X29639601Y27060667D01*
X29680803Y27088197D01*
X29708333Y27129399D01*
X29718000Y27178000D01*
X29718000Y34163000D01*
X29713963Y34183297D01*
X32506179Y31391080D01*
X32835793Y31170838D01*
X32900300Y31158007D01*
X33224600Y31093500D01*
X36673360Y31093500D01*
X39563314Y28203545D01*
X39207345Y28056462D01*
X38747154Y27597073D01*
X38678610Y27432000D01*
X38664670Y27432000D01*
X38597462Y27594655D01*
X38138073Y28054846D01*
X37537547Y28304206D01*
X36887306Y28304774D01*
X36286345Y28056462D01*
X35826154Y27597073D01*
X35750623Y27415173D01*
X35676462Y27594655D01*
X35217073Y28054846D01*
X34616547Y28304206D01*
X33966306Y28304774D01*
X33365345Y28056462D01*
X32905154Y27597073D01*
X32829623Y27415173D01*
X32755462Y27594655D01*
X32296073Y28054846D01*
X31695547Y28304206D01*
X31045306Y28304774D01*
X30444345Y28056462D01*
X29984154Y27597073D01*
X29734794Y26996547D01*
X29734226Y26346306D01*
X29982538Y25745345D01*
X30441927Y25285154D01*
X31042453Y25035794D01*
X31692694Y25035226D01*
X32293655Y25283538D01*
X32753846Y25742927D01*
X32829377Y25924827D01*
X32903538Y25745345D01*
X33362927Y25285154D01*
X33963453Y25035794D01*
X34613694Y25035226D01*
X35214655Y25283538D01*
X35674846Y25742927D01*
X35750377Y25924827D01*
X35824538Y25745345D01*
X36283927Y25285154D01*
X36884453Y25035794D01*
X37534694Y25035226D01*
X38135655Y25283538D01*
X38595846Y25742927D01*
X38664390Y25908000D01*
X38678330Y25908000D01*
X38745538Y25745345D01*
X39204927Y25285154D01*
X39805453Y25035794D01*
X40455694Y25035226D01*
X41056655Y25283538D01*
X41516846Y25742927D01*
X41665627Y26101232D01*
X41963979Y25802880D01*
X42184221Y25655719D01*
X42293594Y25582638D01*
X42682400Y25505300D01*
X59672100Y25505300D01*
X59996400Y25569807D01*
X60060907Y25582638D01*
X60390520Y25802880D01*
X65659000Y31071360D01*
X65659000Y24511000D01*
X65668667Y24462399D01*
X65696197Y24421197D01*
X65737399Y24393667D01*
X65786000Y24384000D01*
X72771000Y24384000D01*
X72819601Y24393667D01*
X72860803Y24421197D01*
X72888333Y24462399D01*
X72898000Y24511000D01*
X72898000Y31496000D01*
X72888333Y31544601D01*
X72860803Y31585803D01*
X72819601Y31613333D01*
X72771000Y31623000D01*
X66210640Y31623000D01*
X75733741Y41146100D01*
X77157325Y41146100D01*
X77056655Y40640000D01*
X77170729Y40066511D01*
X77495585Y39580330D01*
X77810366Y39370000D01*
X77495585Y39159670D01*
X77170729Y38673489D01*
X77056655Y38100000D01*
X77170729Y37526511D01*
X77495585Y37040330D01*
X77810366Y36830000D01*
X77495585Y36619670D01*
X77170729Y36133489D01*
X77056655Y35560000D01*
X77170729Y34986511D01*
X77495585Y34500330D01*
X77810366Y34290000D01*
X77495585Y34079670D01*
X77170729Y33593489D01*
X77056655Y33020000D01*
X77170729Y32446511D01*
X77495585Y31960330D01*
X77810366Y31750000D01*
X77495585Y31539670D01*
X77170729Y31053489D01*
X77056655Y30480000D01*
X77170729Y29906511D01*
X77495585Y29420330D01*
X77810366Y29210000D01*
X77495585Y28999670D01*
X77170729Y28513489D01*
X77056655Y27940000D01*
X77170729Y27366511D01*
X77495585Y26880330D01*
X77810366Y26670000D01*
X77495585Y26459670D01*
X77170729Y25973489D01*
X77056655Y25400000D01*
X77170729Y24826511D01*
X77495585Y24340330D01*
X77810366Y24130000D01*
X77495585Y23919670D01*
X77170729Y23433489D01*
X77056655Y22860000D01*
X77170729Y22286511D01*
X77495585Y21800330D01*
X77810366Y21590000D01*
X77495585Y21379670D01*
X77170729Y20893489D01*
X77093317Y20504313D01*
X75565915Y22031715D01*
X75486089Y22085053D01*
X75318705Y22196896D01*
X75027100Y22254900D01*
X23464400Y22254900D01*
X23172795Y22196896D01*
X23005411Y22085053D01*
X22925585Y22031715D01*
X18077070Y17183200D01*
X9182200Y17183200D01*
X8890595Y17125196D01*
X8643384Y16960015D01*
X4567683Y12884313D01*
X4490271Y13273489D01*
X4165415Y13759670D01*
X4143220Y13774500D01*
X4296698Y13838073D01*
X4475327Y14016701D01*
X4572000Y14250090D01*
X4572000Y14954250D01*
X4413250Y15113000D01*
X3048000Y15113000D01*
X3048000Y15093000D01*
X2794000Y15093000D01*
X2794000Y15113000D01*
X1428750Y15113000D01*
X1270000Y14954250D01*
X1270000Y14250090D01*
X1366673Y14016701D01*
X1545302Y13838073D01*
X1698780Y13774500D01*
X1676585Y13759670D01*
X1351729Y13273489D01*
X1237655Y12700000D01*
X1351729Y12126511D01*
X1676585Y11640330D01*
X1991366Y11430000D01*
X1676585Y11219670D01*
X1351729Y10733489D01*
X1237655Y10160000D01*
X1351729Y9586511D01*
X1676585Y9100330D01*
X2162766Y8775474D01*
X2736255Y8661400D01*
X3105745Y8661400D01*
X3679234Y8775474D01*
X4165415Y9100330D01*
X4490271Y9586511D01*
X4579083Y10033000D01*
X10724076Y10033000D01*
X10579816Y9798087D01*
X10773046Y9245680D01*
X11162964Y8809268D01*
X11690209Y8555291D01*
X11705974Y8552642D01*
X11938000Y8673783D01*
X11938000Y10033000D01*
X10724076Y10033000D01*
X4579083Y10033000D01*
X4604345Y10160000D01*
X4492148Y10724052D01*
X4704715Y10866085D01*
X5605988Y11767358D01*
X11705974Y11767358D01*
X11690209Y11764709D01*
X11162964Y11510732D01*
X10773046Y11074320D01*
X10579816Y10521913D01*
X10724076Y10287000D01*
X11938000Y10287000D01*
X11938000Y11646217D01*
X11705974Y11767358D01*
X5605988Y11767358D01*
X5681975Y11843345D01*
X14605000Y11843345D01*
X14031511Y11729271D01*
X13545330Y11404415D01*
X13338539Y11094931D01*
X12967036Y11510732D01*
X12439791Y11764709D01*
X12424026Y11767358D01*
X12192000Y11646217D01*
X12192000Y10287000D01*
X12212000Y10287000D01*
X12212000Y10033000D01*
X12192000Y10033000D01*
X12192000Y8673783D01*
X12424026Y8552642D01*
X12439791Y8555291D01*
X12967036Y8809268D01*
X13338539Y9225069D01*
X13545330Y8915585D01*
X14031511Y8590729D01*
X14605000Y8476655D01*
X15178489Y8590729D01*
X15664670Y8915585D01*
X15875000Y9230366D01*
X16085330Y8915585D01*
X16571511Y8590729D01*
X16661073Y8572914D01*
X13699308Y5611148D01*
X13681463Y5703123D01*
X13541673Y5915927D01*
X13330640Y6058377D01*
X13081000Y6108440D01*
X11049000Y6108440D01*
X10806877Y6061463D01*
X10594073Y5921673D01*
X10451623Y5710640D01*
X10401560Y5461000D01*
X10401560Y3429000D01*
X10448537Y3186877D01*
X10588327Y2974073D01*
X10748043Y2866262D01*
X10658615Y2769818D01*
X10459025Y2287944D01*
X10578164Y2032000D01*
X11938000Y2032000D01*
X11938000Y2052000D01*
X12192000Y2052000D01*
X12192000Y2032000D01*
X13551836Y2032000D01*
X13670975Y2287944D01*
X13471385Y2769818D01*
X13381425Y2866836D01*
X13535927Y2968327D01*
X13678377Y3179360D01*
X13728440Y3429000D01*
X13970000Y3429000D01*
X14294300Y3493507D01*
X14358807Y3506338D01*
X14688420Y3726580D01*
X15279840Y4318000D01*
X18350531Y4318000D01*
X18230032Y4085973D01*
X18478179Y3556510D01*
X18661119Y3389529D01*
X18461701Y3306927D01*
X18283073Y3128298D01*
X18186400Y2894909D01*
X18186400Y2190750D01*
X18345150Y2032000D01*
X19558000Y2032000D01*
X19558000Y4318000D01*
X18350531Y4318000D01*
X15279840Y4318000D01*
X16861798Y5899958D01*
X19325974Y5899958D01*
X18910053Y5727688D01*
X18478179Y5333490D01*
X18230032Y4804027D01*
X18350531Y4572000D01*
X19558000Y4572000D01*
X19558000Y5778817D01*
X19325974Y5899958D01*
X16861798Y5899958D01*
X19458401Y8496560D01*
X20548600Y8496560D01*
X20790723Y8543537D01*
X21003527Y8683327D01*
X21145977Y8894360D01*
X21196040Y9144000D01*
X21196040Y11176000D01*
X21149063Y11418123D01*
X21009273Y11630927D01*
X20798240Y11773377D01*
X20548600Y11823440D01*
X18821400Y11823440D01*
X18579277Y11776463D01*
X18366473Y11636673D01*
X18224023Y11425640D01*
X18216282Y11387037D01*
X18204670Y11404415D01*
X17718489Y11729271D01*
X17145000Y11843345D01*
X16571511Y11729271D01*
X16085330Y11404415D01*
X15875000Y11089634D01*
X15664670Y11404415D01*
X15178489Y11729271D01*
X14605000Y11843345D01*
X5681975Y11843345D01*
X9497831Y15659200D01*
X18392700Y15659200D01*
X18684305Y15717204D01*
X18931515Y15882385D01*
X23288785Y20239655D01*
X23253960Y20066000D01*
X23253960Y18034000D01*
X23300937Y17791877D01*
X23440727Y17579073D01*
X23651760Y17436623D01*
X23901400Y17386560D01*
X25628600Y17386560D01*
X25870723Y17433537D01*
X26083527Y17573327D01*
X26225977Y17784360D01*
X26244484Y17876645D01*
X26402964Y17699268D01*
X26930209Y17445291D01*
X26945974Y17442642D01*
X27178000Y17563783D01*
X27178000Y18923000D01*
X27158000Y18923000D01*
X27158000Y19177000D01*
X27178000Y19177000D01*
X27178000Y20536217D01*
X26945974Y20657358D01*
X26930209Y20654709D01*
X26402964Y20400732D01*
X26245327Y20224298D01*
X26229063Y20308123D01*
X26089273Y20520927D01*
X25878240Y20663377D01*
X25628600Y20713440D01*
X23901400Y20713440D01*
X23729150Y20680020D01*
X23780030Y20730900D01*
X29832708Y20730900D01*
X29271511Y20619271D01*
X28785330Y20294415D01*
X28578539Y19984931D01*
X28207036Y20400732D01*
X27679791Y20654709D01*
X27664026Y20657358D01*
X27432000Y20536217D01*
X27432000Y19177000D01*
X27452000Y19177000D01*
X27452000Y18923000D01*
X27432000Y18923000D01*
X27432000Y17563783D01*
X27664026Y17442642D01*
X27679791Y17445291D01*
X28207036Y17699268D01*
X28578539Y18115069D01*
X28785330Y17805585D01*
X29271511Y17480729D01*
X29845000Y17366655D01*
X30418489Y17480729D01*
X30715131Y17678939D01*
X31291285Y17102785D01*
X31538495Y16937604D01*
X31830100Y16879600D01*
X37980500Y16879600D01*
X38272105Y16937604D01*
X38519315Y17102785D01*
X39111250Y17694720D01*
X39431511Y17480729D01*
X40005000Y17366655D01*
X40578489Y17480729D01*
X40875131Y17678939D01*
X43011785Y15542285D01*
X43258995Y15377104D01*
X43550600Y15319100D01*
X49825219Y15319100D01*
X49800394Y15314162D01*
X49691021Y15241081D01*
X49470779Y15093920D01*
X47204160Y12827300D01*
X24133600Y12827300D01*
X23823915Y12765700D01*
X23744793Y12749962D01*
X23415180Y12529720D01*
X21506580Y10621120D01*
X21286338Y10291507D01*
X21278838Y10253800D01*
X21209000Y9902700D01*
X21209000Y5563208D01*
X21165330Y5534029D01*
X20949336Y5210772D01*
X20891821Y5333490D01*
X20459947Y5727688D01*
X20044026Y5899958D01*
X19812000Y5778817D01*
X19812000Y4572000D01*
X19832000Y4572000D01*
X19832000Y4318000D01*
X19812000Y4318000D01*
X19812000Y2032000D01*
X19832000Y2032000D01*
X19832000Y1778000D01*
X19812000Y1778000D01*
X19812000Y1758000D01*
X19558000Y1758000D01*
X19558000Y1778000D01*
X18345150Y1778000D01*
X18186400Y1619250D01*
X18186400Y915091D01*
X18281707Y685000D01*
X13142042Y685000D01*
X13471385Y1040182D01*
X13670975Y1522056D01*
X13551836Y1778000D01*
X12192000Y1778000D01*
X12192000Y1758000D01*
X11938000Y1758000D01*
X11938000Y1778000D01*
X10578164Y1778000D01*
X10459025Y1522056D01*
X10658615Y1040182D01*
X10987958Y685000D01*
X6417467Y685000D01*
X4187235Y1128621D01*
X2353730Y2353730D01*
X1128621Y4187235D01*
X685000Y6417467D01*
X685000Y16738600D01*
X1778691Y16738600D01*
X1545302Y16641927D01*
X1366673Y16463299D01*
X1270000Y16229910D01*
X1270000Y15525750D01*
X1428750Y15367000D01*
X2794000Y15367000D01*
X2794000Y16579850D01*
X2635250Y16738600D01*
X3206750Y16738600D01*
X3048000Y16579850D01*
X3048000Y15367000D01*
X4413250Y15367000D01*
X4572000Y15525750D01*
X4572000Y16229910D01*
X4475327Y16463299D01*
X4296698Y16641927D01*
X4063309Y16738600D01*
X3206750Y16738600D01*
X2635250Y16738600D01*
X2635250Y16738600D01*
X1778691Y16738600D01*
X685000Y16738600D01*
X685000Y20270000D01*
X20320000Y20270000D01*
X20582138Y20322143D01*
X20804368Y20470632D01*
X20952857Y20692862D01*
X21005000Y20955000D01*
X21005000Y38735000D01*
X20952857Y38997138D01*
X20804368Y39219368D01*
X20582138Y39367857D01*
X20320000Y39420000D01*
X6400000Y39420000D01*
X6400000Y51663600D01*
X7493691Y51663600D01*
X7260302Y51566927D01*
X7081673Y51388299D01*
X6985000Y51154910D01*
X6985000Y50450750D01*
X7143750Y50292000D01*
X8509000Y50292000D01*
X8509000Y51504850D01*
X8350250Y51663600D01*
X8921750Y51663600D01*
X8763000Y51504850D01*
X8763000Y50292000D01*
X10128250Y50292000D01*
X10287000Y50450750D01*
X10287000Y51154910D01*
X10190327Y51388299D01*
X10011698Y51566927D01*
X9778309Y51663600D01*
X8921750Y51663600D01*
X8350250Y51663600D01*
X8350250Y51663600D01*
X7493691Y51663600D01*
X6400000Y51663600D01*
X6400000Y53925000D01*
X18841374Y53925000D01*
X18478179Y53593490D01*
G36*
X78252805Y52998014D02*
X78252805Y52998014D01*
X82146397Y50396399D01*
X84748014Y46502805D01*
X85675000Y41842533D01*
X85675000Y12767467D01*
X84748014Y8107195D01*
X82146397Y4213601D01*
X78252805Y1611986D01*
X76927339Y1348334D01*
X77019968Y1545973D01*
X76899469Y1778000D01*
X75692000Y1778000D01*
X75692000Y1758000D01*
X75438000Y1758000D01*
X75438000Y1778000D01*
X73152000Y1778000D01*
X73152000Y1758000D01*
X72898000Y1758000D01*
X72898000Y1778000D01*
X72878000Y1778000D01*
X72878000Y2032000D01*
X72898000Y2032000D01*
X72898000Y4318000D01*
X73152000Y4318000D01*
X73152000Y2032000D01*
X75438000Y2032000D01*
X75438000Y4318000D01*
X75692000Y4318000D01*
X75692000Y2032000D01*
X76899469Y2032000D01*
X77019968Y2264027D01*
X76771821Y2793490D01*
X76353848Y3175000D01*
X76771821Y3556510D01*
X77019968Y4085973D01*
X76899469Y4318000D01*
X75692000Y4318000D01*
X75438000Y4318000D01*
X75438000Y4318000D01*
X73152000Y4318000D01*
X72898000Y4318000D01*
X72898000Y4318000D01*
X72878000Y4318000D01*
X72878000Y4572000D01*
X72898000Y4572000D01*
X72898000Y5778817D01*
X72665974Y5899958D01*
X73384026Y5899958D01*
X73152000Y5778817D01*
X73152000Y4572000D01*
X75438000Y4572000D01*
X75438000Y5778817D01*
X75205974Y5899958D01*
X75924026Y5899958D01*
X75692000Y5778817D01*
X75692000Y4572000D01*
X76899469Y4572000D01*
X77019968Y4804027D01*
X76771821Y5333490D01*
X76339947Y5727688D01*
X75924026Y5899958D01*
X75205974Y5899958D01*
X75205974Y5899958D01*
X74790053Y5727688D01*
X74358179Y5333490D01*
X74295000Y5198687D01*
X74231821Y5333490D01*
X73799947Y5727688D01*
X73384026Y5899958D01*
X72665974Y5899958D01*
X72665974Y5899958D01*
X72250053Y5727688D01*
X71818179Y5333490D01*
X71760664Y5210772D01*
X71544670Y5534029D01*
X71058489Y5858885D01*
X70485000Y5972959D01*
X69911511Y5858885D01*
X69425330Y5534029D01*
X69215000Y5219248D01*
X69004670Y5534029D01*
X68518489Y5858885D01*
X67945000Y5972959D01*
X67371511Y5858885D01*
X66885330Y5534029D01*
X66675000Y5219248D01*
X66464670Y5534029D01*
X65978489Y5858885D01*
X65405000Y5972959D01*
X64831511Y5858885D01*
X64345330Y5534029D01*
X64135000Y5219248D01*
X63924670Y5534029D01*
X63438489Y5858885D01*
X62865000Y5972959D01*
X62291511Y5858885D01*
X61805330Y5534029D01*
X61595000Y5219248D01*
X61384670Y5534029D01*
X60944423Y5828193D01*
X61399231Y6283000D01*
X71247500Y6283000D01*
X71539105Y6341004D01*
X71786315Y6506185D01*
X73308515Y8028385D01*
X73473696Y8275595D01*
X73531700Y8567200D01*
X73531700Y12765700D01*
X73473696Y13057305D01*
X73407534Y13156323D01*
X73308516Y13304515D01*
X70531930Y16081100D01*
X72303216Y17852385D01*
X72402234Y18000577D01*
X72468396Y18099595D01*
X72526400Y18391200D01*
X72526400Y19689400D01*
X72468396Y19981005D01*
X72303215Y20228215D01*
X71800530Y20730900D01*
X74711470Y20730900D01*
X76956285Y18486085D01*
X77168852Y18344052D01*
X77056655Y17780000D01*
X77170729Y17206511D01*
X77495585Y16720330D01*
X77810366Y16510000D01*
X77495585Y16299670D01*
X77170729Y15813489D01*
X77056655Y15240000D01*
X77170729Y14666511D01*
X77495585Y14180330D01*
X77511367Y14169785D01*
X77481877Y14164063D01*
X77269073Y14024273D01*
X77126623Y13813240D01*
X77076560Y13563600D01*
X77076560Y11836400D01*
X77123537Y11594277D01*
X77263327Y11381473D01*
X77474360Y11239023D01*
X77724000Y11188960D01*
X79756000Y11188960D01*
X79998123Y11235937D01*
X80210927Y11375727D01*
X80327816Y11548893D01*
X80677152Y11315474D01*
X81250641Y11201400D01*
X81309359Y11201400D01*
X81882848Y11315474D01*
X82354356Y11630526D01*
X82418073Y11476701D01*
X82596702Y11298073D01*
X82830091Y11201400D01*
X83534250Y11201400D01*
X83693000Y11360150D01*
X83693000Y12573000D01*
X83947000Y12573000D01*
X83947000Y11360150D01*
X84105750Y11201400D01*
X84809909Y11201400D01*
X85043298Y11298073D01*
X85221927Y11476701D01*
X85318600Y11710090D01*
X85318600Y12414250D01*
X85159850Y12573000D01*
X83947000Y12573000D01*
X83693000Y12573000D01*
X83693000Y12573000D01*
X83673000Y12573000D01*
X83673000Y12827000D01*
X83693000Y12827000D01*
X83693000Y15113000D01*
X83947000Y15113000D01*
X83947000Y12827000D01*
X85159850Y12827000D01*
X85318600Y12985750D01*
X85318600Y13689910D01*
X85221927Y13923299D01*
X85043298Y14101927D01*
X84845880Y14183700D01*
X85102688Y14465053D01*
X85274958Y14880974D01*
X85153817Y15113000D01*
X83947000Y15113000D01*
X83693000Y15113000D01*
X83693000Y15113000D01*
X83673000Y15113000D01*
X83673000Y15367000D01*
X83693000Y15367000D01*
X83693000Y17653000D01*
X83947000Y17653000D01*
X83947000Y15367000D01*
X85153817Y15367000D01*
X85274958Y15599026D01*
X85102688Y16014947D01*
X84708490Y16446821D01*
X84573687Y16510000D01*
X84708490Y16573179D01*
X85102688Y17005053D01*
X85274958Y17420974D01*
X85153817Y17653000D01*
X83947000Y17653000D01*
X83693000Y17653000D01*
X83693000Y17653000D01*
X83673000Y17653000D01*
X83673000Y17907000D01*
X83693000Y17907000D01*
X83693000Y20193000D01*
X83947000Y20193000D01*
X83947000Y17907000D01*
X85153817Y17907000D01*
X85274958Y18139026D01*
X85102688Y18554947D01*
X84708490Y18986821D01*
X84573687Y19050000D01*
X84708490Y19113179D01*
X85102688Y19545053D01*
X85274958Y19960974D01*
X85153817Y20193000D01*
X83947000Y20193000D01*
X83693000Y20193000D01*
X83693000Y20193000D01*
X83673000Y20193000D01*
X83673000Y20447000D01*
X83693000Y20447000D01*
X83693000Y22733000D01*
X83947000Y22733000D01*
X83947000Y20447000D01*
X85153817Y20447000D01*
X85274958Y20679026D01*
X85102688Y21094947D01*
X84708490Y21526821D01*
X84573687Y21590000D01*
X84708490Y21653179D01*
X85102688Y22085053D01*
X85274958Y22500974D01*
X85153817Y22733000D01*
X83947000Y22733000D01*
X83693000Y22733000D01*
X83693000Y22733000D01*
X83673000Y22733000D01*
X83673000Y22987000D01*
X83693000Y22987000D01*
X83693000Y25273000D01*
X83947000Y25273000D01*
X83947000Y22987000D01*
X85153817Y22987000D01*
X85274958Y23219026D01*
X85102688Y23634947D01*
X84708490Y24066821D01*
X84573687Y24130000D01*
X84708490Y24193179D01*
X85102688Y24625053D01*
X85274958Y25040974D01*
X85153817Y25273000D01*
X83947000Y25273000D01*
X83693000Y25273000D01*
X83693000Y25273000D01*
X83673000Y25273000D01*
X83673000Y25527000D01*
X83693000Y25527000D01*
X83693000Y27813000D01*
X83947000Y27813000D01*
X83947000Y25527000D01*
X85153817Y25527000D01*
X85274958Y25759026D01*
X85102688Y26174947D01*
X84708490Y26606821D01*
X84573687Y26670000D01*
X84708490Y26733179D01*
X85102688Y27165053D01*
X85274958Y27580974D01*
X85153817Y27813000D01*
X83947000Y27813000D01*
X83693000Y27813000D01*
X83693000Y27813000D01*
X83673000Y27813000D01*
X83673000Y28067000D01*
X83693000Y28067000D01*
X83693000Y30353000D01*
X83947000Y30353000D01*
X83947000Y28067000D01*
X85153817Y28067000D01*
X85274958Y28299026D01*
X85102688Y28714947D01*
X84708490Y29146821D01*
X84573687Y29210000D01*
X84708490Y29273179D01*
X85102688Y29705053D01*
X85274958Y30120974D01*
X85153817Y30353000D01*
X83947000Y30353000D01*
X83693000Y30353000D01*
X83693000Y30353000D01*
X83673000Y30353000D01*
X83673000Y30607000D01*
X83693000Y30607000D01*
X83693000Y32893000D01*
X83947000Y32893000D01*
X83947000Y30607000D01*
X85153817Y30607000D01*
X85274958Y30839026D01*
X85102688Y31254947D01*
X84708490Y31686821D01*
X84573687Y31750000D01*
X84708490Y31813179D01*
X85102688Y32245053D01*
X85274958Y32660974D01*
X85153817Y32893000D01*
X83947000Y32893000D01*
X83693000Y32893000D01*
X83693000Y32893000D01*
X83673000Y32893000D01*
X83673000Y33147000D01*
X83693000Y33147000D01*
X83693000Y35433000D01*
X83947000Y35433000D01*
X83947000Y33147000D01*
X85153817Y33147000D01*
X85274958Y33379026D01*
X85102688Y33794947D01*
X84708490Y34226821D01*
X84573687Y34290000D01*
X84708490Y34353179D01*
X85102688Y34785053D01*
X85274958Y35200974D01*
X85153817Y35433000D01*
X83947000Y35433000D01*
X83693000Y35433000D01*
X83693000Y35433000D01*
X83673000Y35433000D01*
X83673000Y35687000D01*
X83693000Y35687000D01*
X83693000Y37973000D01*
X83947000Y37973000D01*
X83947000Y35687000D01*
X85153817Y35687000D01*
X85274958Y35919026D01*
X85102688Y36334947D01*
X84708490Y36766821D01*
X84573687Y36830000D01*
X84708490Y36893179D01*
X85102688Y37325053D01*
X85274958Y37740974D01*
X85153817Y37973000D01*
X83947000Y37973000D01*
X83693000Y37973000D01*
X83693000Y37973000D01*
X83673000Y37973000D01*
X83673000Y38227000D01*
X83693000Y38227000D01*
X83693000Y40513000D01*
X83947000Y40513000D01*
X83947000Y38227000D01*
X85153817Y38227000D01*
X85274958Y38459026D01*
X85102688Y38874947D01*
X84708490Y39306821D01*
X84573687Y39370000D01*
X84708490Y39433179D01*
X85102688Y39865053D01*
X85274958Y40280974D01*
X85153817Y40513000D01*
X83947000Y40513000D01*
X83693000Y40513000D01*
X83693000Y40513000D01*
X83673000Y40513000D01*
X83673000Y40767000D01*
X83693000Y40767000D01*
X83693000Y41974469D01*
X83460973Y42094968D01*
X84179027Y42094968D01*
X83947000Y41974469D01*
X83947000Y40767000D01*
X85153817Y40767000D01*
X85274958Y40999026D01*
X85102688Y41414947D01*
X84708490Y41846821D01*
X84179027Y42094968D01*
X83460973Y42094968D01*
X83460973Y42094968D01*
X82953366Y41857065D01*
X81128315Y43682115D01*
X80881105Y43847296D01*
X80589500Y43905300D01*
X80314997Y43905300D01*
X80423345Y44450000D01*
X80309271Y45023489D01*
X79984415Y45509670D01*
X79669634Y45720000D01*
X79984415Y45930330D01*
X80309271Y46416511D01*
X80423345Y46990000D01*
X80309271Y47563489D01*
X79984415Y48049670D01*
X79962220Y48064500D01*
X80115698Y48128073D01*
X80294327Y48306701D01*
X80391000Y48540090D01*
X80391000Y49244250D01*
X80232250Y49403000D01*
X78867000Y49403000D01*
X78867000Y49383000D01*
X78613000Y49383000D01*
X78613000Y49403000D01*
X77247750Y49403000D01*
X77089000Y49244250D01*
X77089000Y48540090D01*
X77185673Y48306701D01*
X77364302Y48128073D01*
X77517780Y48064500D01*
X77495585Y48049670D01*
X77170729Y47563489D01*
X77093317Y47174313D01*
X75619707Y48647923D01*
X76138489Y48751115D01*
X76624670Y49075971D01*
X76949526Y49562152D01*
X77063600Y50135641D01*
X77063600Y50194359D01*
X76949526Y50767848D01*
X76775297Y51028600D01*
X77597691Y51028600D01*
X77364302Y50931927D01*
X77185673Y50753299D01*
X77089000Y50519910D01*
X77089000Y49815750D01*
X77247750Y49657000D01*
X78613000Y49657000D01*
X78613000Y50869850D01*
X78454250Y51028600D01*
X79025750Y51028600D01*
X78867000Y50869850D01*
X78867000Y49657000D01*
X80232250Y49657000D01*
X80391000Y49815750D01*
X80391000Y50519910D01*
X80294327Y50753299D01*
X80115698Y50931927D01*
X79882309Y51028600D01*
X79025750Y51028600D01*
X78454250Y51028600D01*
X78454250Y51028600D01*
X77597691Y51028600D01*
X76775297Y51028600D01*
X76624670Y51254029D01*
X76353828Y51435000D01*
X76624670Y51615971D01*
X76949526Y52102152D01*
X77063600Y52675641D01*
X77063600Y52734359D01*
X76960005Y53255168D01*
X78252805Y52998014D01*
X78252805Y52998014D01*
G37*
X78252805Y52998014D02*
X78252805Y52998014D01*
X82146397Y50396399D01*
X84748014Y46502805D01*
X85675000Y41842533D01*
X85675000Y12767467D01*
X84748014Y8107195D01*
X82146397Y4213601D01*
X78252805Y1611986D01*
X76927339Y1348334D01*
X77019968Y1545973D01*
X76899469Y1778000D01*
X75692000Y1778000D01*
X75692000Y1758000D01*
X75438000Y1758000D01*
X75438000Y1778000D01*
X73152000Y1778000D01*
X73152000Y1758000D01*
X72898000Y1758000D01*
X72898000Y1778000D01*
X72878000Y1778000D01*
X72878000Y2032000D01*
X72898000Y2032000D01*
X72898000Y4318000D01*
X73152000Y4318000D01*
X73152000Y2032000D01*
X75438000Y2032000D01*
X75438000Y4318000D01*
X75692000Y4318000D01*
X75692000Y2032000D01*
X76899469Y2032000D01*
X77019968Y2264027D01*
X76771821Y2793490D01*
X76353848Y3175000D01*
X76771821Y3556510D01*
X77019968Y4085973D01*
X76899469Y4318000D01*
X75692000Y4318000D01*
X75438000Y4318000D01*
X75438000Y4318000D01*
X73152000Y4318000D01*
X72898000Y4318000D01*
X72898000Y4318000D01*
X72878000Y4318000D01*
X72878000Y4572000D01*
X72898000Y4572000D01*
X72898000Y5778817D01*
X72665974Y5899958D01*
X73384026Y5899958D01*
X73152000Y5778817D01*
X73152000Y4572000D01*
X75438000Y4572000D01*
X75438000Y5778817D01*
X75205974Y5899958D01*
X75924026Y5899958D01*
X75692000Y5778817D01*
X75692000Y4572000D01*
X76899469Y4572000D01*
X77019968Y4804027D01*
X76771821Y5333490D01*
X76339947Y5727688D01*
X75924026Y5899958D01*
X75205974Y5899958D01*
X75205974Y5899958D01*
X74790053Y5727688D01*
X74358179Y5333490D01*
X74295000Y5198687D01*
X74231821Y5333490D01*
X73799947Y5727688D01*
X73384026Y5899958D01*
X72665974Y5899958D01*
X72665974Y5899958D01*
X72250053Y5727688D01*
X71818179Y5333490D01*
X71760664Y5210772D01*
X71544670Y5534029D01*
X71058489Y5858885D01*
X70485000Y5972959D01*
X69911511Y5858885D01*
X69425330Y5534029D01*
X69215000Y5219248D01*
X69004670Y5534029D01*
X68518489Y5858885D01*
X67945000Y5972959D01*
X67371511Y5858885D01*
X66885330Y5534029D01*
X66675000Y5219248D01*
X66464670Y5534029D01*
X65978489Y5858885D01*
X65405000Y5972959D01*
X64831511Y5858885D01*
X64345330Y5534029D01*
X64135000Y5219248D01*
X63924670Y5534029D01*
X63438489Y5858885D01*
X62865000Y5972959D01*
X62291511Y5858885D01*
X61805330Y5534029D01*
X61595000Y5219248D01*
X61384670Y5534029D01*
X60944423Y5828193D01*
X61399231Y6283000D01*
X71247500Y6283000D01*
X71539105Y6341004D01*
X71786315Y6506185D01*
X73308515Y8028385D01*
X73473696Y8275595D01*
X73531700Y8567200D01*
X73531700Y12765700D01*
X73473696Y13057305D01*
X73407534Y13156323D01*
X73308516Y13304515D01*
X70531930Y16081100D01*
X72303216Y17852385D01*
X72402234Y18000577D01*
X72468396Y18099595D01*
X72526400Y18391200D01*
X72526400Y19689400D01*
X72468396Y19981005D01*
X72303215Y20228215D01*
X71800530Y20730900D01*
X74711470Y20730900D01*
X76956285Y18486085D01*
X77168852Y18344052D01*
X77056655Y17780000D01*
X77170729Y17206511D01*
X77495585Y16720330D01*
X77810366Y16510000D01*
X77495585Y16299670D01*
X77170729Y15813489D01*
X77056655Y15240000D01*
X77170729Y14666511D01*
X77495585Y14180330D01*
X77511367Y14169785D01*
X77481877Y14164063D01*
X77269073Y14024273D01*
X77126623Y13813240D01*
X77076560Y13563600D01*
X77076560Y11836400D01*
X77123537Y11594277D01*
X77263327Y11381473D01*
X77474360Y11239023D01*
X77724000Y11188960D01*
X79756000Y11188960D01*
X79998123Y11235937D01*
X80210927Y11375727D01*
X80327816Y11548893D01*
X80677152Y11315474D01*
X81250641Y11201400D01*
X81309359Y11201400D01*
X81882848Y11315474D01*
X82354356Y11630526D01*
X82418073Y11476701D01*
X82596702Y11298073D01*
X82830091Y11201400D01*
X83534250Y11201400D01*
X83693000Y11360150D01*
X83693000Y12573000D01*
X83947000Y12573000D01*
X83947000Y11360150D01*
X84105750Y11201400D01*
X84809909Y11201400D01*
X85043298Y11298073D01*
X85221927Y11476701D01*
X85318600Y11710090D01*
X85318600Y12414250D01*
X85159850Y12573000D01*
X83947000Y12573000D01*
X83693000Y12573000D01*
X83693000Y12573000D01*
X83673000Y12573000D01*
X83673000Y12827000D01*
X83693000Y12827000D01*
X83693000Y15113000D01*
X83947000Y15113000D01*
X83947000Y12827000D01*
X85159850Y12827000D01*
X85318600Y12985750D01*
X85318600Y13689910D01*
X85221927Y13923299D01*
X85043298Y14101927D01*
X84845880Y14183700D01*
X85102688Y14465053D01*
X85274958Y14880974D01*
X85153817Y15113000D01*
X83947000Y15113000D01*
X83693000Y15113000D01*
X83693000Y15113000D01*
X83673000Y15113000D01*
X83673000Y15367000D01*
X83693000Y15367000D01*
X83693000Y17653000D01*
X83947000Y17653000D01*
X83947000Y15367000D01*
X85153817Y15367000D01*
X85274958Y15599026D01*
X85102688Y16014947D01*
X84708490Y16446821D01*
X84573687Y16510000D01*
X84708490Y16573179D01*
X85102688Y17005053D01*
X85274958Y17420974D01*
X85153817Y17653000D01*
X83947000Y17653000D01*
X83693000Y17653000D01*
X83693000Y17653000D01*
X83673000Y17653000D01*
X83673000Y17907000D01*
X83693000Y17907000D01*
X83693000Y20193000D01*
X83947000Y20193000D01*
X83947000Y17907000D01*
X85153817Y17907000D01*
X85274958Y18139026D01*
X85102688Y18554947D01*
X84708490Y18986821D01*
X84573687Y19050000D01*
X84708490Y19113179D01*
X85102688Y19545053D01*
X85274958Y19960974D01*
X85153817Y20193000D01*
X83947000Y20193000D01*
X83693000Y20193000D01*
X83693000Y20193000D01*
X83673000Y20193000D01*
X83673000Y20447000D01*
X83693000Y20447000D01*
X83693000Y22733000D01*
X83947000Y22733000D01*
X83947000Y20447000D01*
X85153817Y20447000D01*
X85274958Y20679026D01*
X85102688Y21094947D01*
X84708490Y21526821D01*
X84573687Y21590000D01*
X84708490Y21653179D01*
X85102688Y22085053D01*
X85274958Y22500974D01*
X85153817Y22733000D01*
X83947000Y22733000D01*
X83693000Y22733000D01*
X83693000Y22733000D01*
X83673000Y22733000D01*
X83673000Y22987000D01*
X83693000Y22987000D01*
X83693000Y25273000D01*
X83947000Y25273000D01*
X83947000Y22987000D01*
X85153817Y22987000D01*
X85274958Y23219026D01*
X85102688Y23634947D01*
X84708490Y24066821D01*
X84573687Y24130000D01*
X84708490Y24193179D01*
X85102688Y24625053D01*
X85274958Y25040974D01*
X85153817Y25273000D01*
X83947000Y25273000D01*
X83693000Y25273000D01*
X83693000Y25273000D01*
X83673000Y25273000D01*
X83673000Y25527000D01*
X83693000Y25527000D01*
X83693000Y27813000D01*
X83947000Y27813000D01*
X83947000Y25527000D01*
X85153817Y25527000D01*
X85274958Y25759026D01*
X85102688Y26174947D01*
X84708490Y26606821D01*
X84573687Y26670000D01*
X84708490Y26733179D01*
X85102688Y27165053D01*
X85274958Y27580974D01*
X85153817Y27813000D01*
X83947000Y27813000D01*
X83693000Y27813000D01*
X83693000Y27813000D01*
X83673000Y27813000D01*
X83673000Y28067000D01*
X83693000Y28067000D01*
X83693000Y30353000D01*
X83947000Y30353000D01*
X83947000Y28067000D01*
X85153817Y28067000D01*
X85274958Y28299026D01*
X85102688Y28714947D01*
X84708490Y29146821D01*
X84573687Y29210000D01*
X84708490Y29273179D01*
X85102688Y29705053D01*
X85274958Y30120974D01*
X85153817Y30353000D01*
X83947000Y30353000D01*
X83693000Y30353000D01*
X83693000Y30353000D01*
X83673000Y30353000D01*
X83673000Y30607000D01*
X83693000Y30607000D01*
X83693000Y32893000D01*
X83947000Y32893000D01*
X83947000Y30607000D01*
X85153817Y30607000D01*
X85274958Y30839026D01*
X85102688Y31254947D01*
X84708490Y31686821D01*
X84573687Y31750000D01*
X84708490Y31813179D01*
X85102688Y32245053D01*
X85274958Y32660974D01*
X85153817Y32893000D01*
X83947000Y32893000D01*
X83693000Y32893000D01*
X83693000Y32893000D01*
X83673000Y32893000D01*
X83673000Y33147000D01*
X83693000Y33147000D01*
X83693000Y35433000D01*
X83947000Y35433000D01*
X83947000Y33147000D01*
X85153817Y33147000D01*
X85274958Y33379026D01*
X85102688Y33794947D01*
X84708490Y34226821D01*
X84573687Y34290000D01*
X84708490Y34353179D01*
X85102688Y34785053D01*
X85274958Y35200974D01*
X85153817Y35433000D01*
X83947000Y35433000D01*
X83693000Y35433000D01*
X83693000Y35433000D01*
X83673000Y35433000D01*
X83673000Y35687000D01*
X83693000Y35687000D01*
X83693000Y37973000D01*
X83947000Y37973000D01*
X83947000Y35687000D01*
X85153817Y35687000D01*
X85274958Y35919026D01*
X85102688Y36334947D01*
X84708490Y36766821D01*
X84573687Y36830000D01*
X84708490Y36893179D01*
X85102688Y37325053D01*
X85274958Y37740974D01*
X85153817Y37973000D01*
X83947000Y37973000D01*
X83693000Y37973000D01*
X83693000Y37973000D01*
X83673000Y37973000D01*
X83673000Y38227000D01*
X83693000Y38227000D01*
X83693000Y40513000D01*
X83947000Y40513000D01*
X83947000Y38227000D01*
X85153817Y38227000D01*
X85274958Y38459026D01*
X85102688Y38874947D01*
X84708490Y39306821D01*
X84573687Y39370000D01*
X84708490Y39433179D01*
X85102688Y39865053D01*
X85274958Y40280974D01*
X85153817Y40513000D01*
X83947000Y40513000D01*
X83693000Y40513000D01*
X83693000Y40513000D01*
X83673000Y40513000D01*
X83673000Y40767000D01*
X83693000Y40767000D01*
X83693000Y41974469D01*
X83460973Y42094968D01*
X84179027Y42094968D01*
X83947000Y41974469D01*
X83947000Y40767000D01*
X85153817Y40767000D01*
X85274958Y40999026D01*
X85102688Y41414947D01*
X84708490Y41846821D01*
X84179027Y42094968D01*
X83460973Y42094968D01*
X83460973Y42094968D01*
X82953366Y41857065D01*
X81128315Y43682115D01*
X80881105Y43847296D01*
X80589500Y43905300D01*
X80314997Y43905300D01*
X80423345Y44450000D01*
X80309271Y45023489D01*
X79984415Y45509670D01*
X79669634Y45720000D01*
X79984415Y45930330D01*
X80309271Y46416511D01*
X80423345Y46990000D01*
X80309271Y47563489D01*
X79984415Y48049670D01*
X79962220Y48064500D01*
X80115698Y48128073D01*
X80294327Y48306701D01*
X80391000Y48540090D01*
X80391000Y49244250D01*
X80232250Y49403000D01*
X78867000Y49403000D01*
X78867000Y49383000D01*
X78613000Y49383000D01*
X78613000Y49403000D01*
X77247750Y49403000D01*
X77089000Y49244250D01*
X77089000Y48540090D01*
X77185673Y48306701D01*
X77364302Y48128073D01*
X77517780Y48064500D01*
X77495585Y48049670D01*
X77170729Y47563489D01*
X77093317Y47174313D01*
X75619707Y48647923D01*
X76138489Y48751115D01*
X76624670Y49075971D01*
X76949526Y49562152D01*
X77063600Y50135641D01*
X77063600Y50194359D01*
X76949526Y50767848D01*
X76775297Y51028600D01*
X77597691Y51028600D01*
X77364302Y50931927D01*
X77185673Y50753299D01*
X77089000Y50519910D01*
X77089000Y49815750D01*
X77247750Y49657000D01*
X78613000Y49657000D01*
X78613000Y50869850D01*
X78454250Y51028600D01*
X79025750Y51028600D01*
X78867000Y50869850D01*
X78867000Y49657000D01*
X80232250Y49657000D01*
X80391000Y49815750D01*
X80391000Y50519910D01*
X80294327Y50753299D01*
X80115698Y50931927D01*
X79882309Y51028600D01*
X79025750Y51028600D01*
X78454250Y51028600D01*
X78454250Y51028600D01*
X77597691Y51028600D01*
X76775297Y51028600D01*
X76624670Y51254029D01*
X76353828Y51435000D01*
X76624670Y51615971D01*
X76949526Y52102152D01*
X77063600Y52675641D01*
X77063600Y52734359D01*
X76960005Y53255168D01*
X78252805Y52998014D01*
G36*
X65532000Y10287000D02*
X65552000Y10287000D01*
X65552000Y10033000D01*
X65532000Y10033000D01*
X65532000Y8673783D01*
X65764026Y8552642D01*
X65779791Y8555291D01*
X66307036Y8809268D01*
X66678539Y9225069D01*
X66885330Y8915585D01*
X66929000Y8886406D01*
X66929000Y8508700D01*
X67006338Y8119894D01*
X67215408Y7807000D01*
X61083600Y7807000D01*
X60995383Y7789453D01*
X61994870Y8788939D01*
X62291511Y8590729D01*
X62865000Y8476655D01*
X63438489Y8590729D01*
X63924670Y8915585D01*
X64131461Y9225069D01*
X64502964Y8809268D01*
X65030209Y8555291D01*
X65045974Y8552642D01*
X65278000Y8673783D01*
X65278000Y10033000D01*
X65258000Y10033000D01*
X65258000Y10287000D01*
X65278000Y10287000D01*
X65278000Y10307000D01*
X65532000Y10307000D01*
X65532000Y10287000D01*
X65532000Y10287000D01*
G37*
X65532000Y10287000D02*
X65552000Y10287000D01*
X65552000Y10033000D01*
X65532000Y10033000D01*
X65532000Y8673783D01*
X65764026Y8552642D01*
X65779791Y8555291D01*
X66307036Y8809268D01*
X66678539Y9225069D01*
X66885330Y8915585D01*
X66929000Y8886406D01*
X66929000Y8508700D01*
X67006338Y8119894D01*
X67215408Y7807000D01*
X61083600Y7807000D01*
X60995383Y7789453D01*
X61994870Y8788939D01*
X62291511Y8590729D01*
X62865000Y8476655D01*
X63438489Y8590729D01*
X63924670Y8915585D01*
X64131461Y9225069D01*
X64502964Y8809268D01*
X65030209Y8555291D01*
X65045974Y8552642D01*
X65278000Y8673783D01*
X65278000Y10033000D01*
X65258000Y10033000D01*
X65258000Y10287000D01*
X65278000Y10287000D01*
X65278000Y10307000D01*
X65532000Y10307000D01*
X65532000Y10287000D01*
G36*
X45212000Y10287000D02*
X45232000Y10287000D01*
X45232000Y10033000D01*
X45212000Y10033000D01*
X45212000Y10013000D01*
X44958000Y10013000D01*
X44958000Y10033000D01*
X44938000Y10033000D01*
X44938000Y10287000D01*
X44958000Y10287000D01*
X44958000Y10307000D01*
X45212000Y10307000D01*
X45212000Y10287000D01*
X45212000Y10287000D01*
G37*
X45212000Y10287000D02*
X45232000Y10287000D01*
X45232000Y10033000D01*
X45212000Y10033000D01*
X45212000Y10013000D01*
X44958000Y10013000D01*
X44958000Y10033000D01*
X44938000Y10033000D01*
X44938000Y10287000D01*
X44958000Y10287000D01*
X44958000Y10307000D01*
X45212000Y10307000D01*
X45212000Y10287000D01*
G36*
X29972000Y10287000D02*
X29992000Y10287000D01*
X29992000Y10033000D01*
X29972000Y10033000D01*
X29972000Y10013000D01*
X29718000Y10013000D01*
X29718000Y10033000D01*
X29698000Y10033000D01*
X29698000Y10287000D01*
X29718000Y10287000D01*
X29718000Y10307000D01*
X29972000Y10307000D01*
X29972000Y10287000D01*
X29972000Y10287000D01*
G37*
X29972000Y10287000D02*
X29992000Y10287000D01*
X29992000Y10033000D01*
X29972000Y10033000D01*
X29972000Y10013000D01*
X29718000Y10013000D01*
X29718000Y10033000D01*
X29698000Y10033000D01*
X29698000Y10287000D01*
X29718000Y10287000D01*
X29718000Y10307000D01*
X29972000Y10307000D01*
X29972000Y10287000D01*
G36*
X53733960Y18034000D02*
X53780937Y17791877D01*
X53920727Y17579073D01*
X54131760Y17436623D01*
X54381400Y17386560D01*
X56108600Y17386560D01*
X56350723Y17433537D01*
X56563527Y17573327D01*
X56705977Y17784360D01*
X56724484Y17876645D01*
X56882964Y17699268D01*
X57410209Y17445291D01*
X57425974Y17442642D01*
X57658000Y17563783D01*
X57658000Y18923000D01*
X57638000Y18923000D01*
X57638000Y19177000D01*
X57658000Y19177000D01*
X57658000Y19197000D01*
X57912000Y19197000D01*
X57912000Y19177000D01*
X57932000Y19177000D01*
X57932000Y18923000D01*
X57912000Y18923000D01*
X57912000Y17563783D01*
X58144026Y17442642D01*
X58159791Y17445291D01*
X58687036Y17699268D01*
X59058539Y18115069D01*
X59265330Y17805585D01*
X59751511Y17480729D01*
X60325000Y17366655D01*
X60898489Y17480729D01*
X61384670Y17805585D01*
X61595000Y18120366D01*
X61805330Y17805585D01*
X62291511Y17480729D01*
X62865000Y17366655D01*
X63438489Y17480729D01*
X63924670Y17805585D01*
X64135000Y18120366D01*
X64345330Y17805585D01*
X64831511Y17480729D01*
X65405000Y17366655D01*
X65978489Y17480729D01*
X66464670Y17805585D01*
X66675000Y18120366D01*
X66885330Y17805585D01*
X67371511Y17480729D01*
X67945000Y17366655D01*
X68518489Y17480729D01*
X69004670Y17805585D01*
X69211461Y18115069D01*
X69582964Y17699268D01*
X69860937Y17565367D01*
X69138670Y16843100D01*
X53230066Y16843100D01*
X53230267Y17073448D01*
X53083634Y17428327D01*
X52812356Y17700079D01*
X52457732Y17847332D01*
X52073752Y17847667D01*
X51718873Y17701034D01*
X51662040Y17644300D01*
X48412925Y17644300D01*
X48527036Y17699268D01*
X48916954Y18135680D01*
X49110184Y18688087D01*
X48965924Y18923000D01*
X47752000Y18923000D01*
X47752000Y18903000D01*
X47498000Y18903000D01*
X47498000Y18923000D01*
X47478000Y18923000D01*
X47478000Y19177000D01*
X47498000Y19177000D01*
X47498000Y19197000D01*
X47752000Y19197000D01*
X47752000Y19177000D01*
X48965924Y19177000D01*
X49110184Y19411913D01*
X49014519Y19685400D01*
X53733960Y19685400D01*
X53733960Y18034000D01*
X53733960Y18034000D01*
G37*
X53733960Y18034000D02*
X53780937Y17791877D01*
X53920727Y17579073D01*
X54131760Y17436623D01*
X54381400Y17386560D01*
X56108600Y17386560D01*
X56350723Y17433537D01*
X56563527Y17573327D01*
X56705977Y17784360D01*
X56724484Y17876645D01*
X56882964Y17699268D01*
X57410209Y17445291D01*
X57425974Y17442642D01*
X57658000Y17563783D01*
X57658000Y18923000D01*
X57638000Y18923000D01*
X57638000Y19177000D01*
X57658000Y19177000D01*
X57658000Y19197000D01*
X57912000Y19197000D01*
X57912000Y19177000D01*
X57932000Y19177000D01*
X57932000Y18923000D01*
X57912000Y18923000D01*
X57912000Y17563783D01*
X58144026Y17442642D01*
X58159791Y17445291D01*
X58687036Y17699268D01*
X59058539Y18115069D01*
X59265330Y17805585D01*
X59751511Y17480729D01*
X60325000Y17366655D01*
X60898489Y17480729D01*
X61384670Y17805585D01*
X61595000Y18120366D01*
X61805330Y17805585D01*
X62291511Y17480729D01*
X62865000Y17366655D01*
X63438489Y17480729D01*
X63924670Y17805585D01*
X64135000Y18120366D01*
X64345330Y17805585D01*
X64831511Y17480729D01*
X65405000Y17366655D01*
X65978489Y17480729D01*
X66464670Y17805585D01*
X66675000Y18120366D01*
X66885330Y17805585D01*
X67371511Y17480729D01*
X67945000Y17366655D01*
X68518489Y17480729D01*
X69004670Y17805585D01*
X69211461Y18115069D01*
X69582964Y17699268D01*
X69860937Y17565367D01*
X69138670Y16843100D01*
X53230066Y16843100D01*
X53230267Y17073448D01*
X53083634Y17428327D01*
X52812356Y17700079D01*
X52457732Y17847332D01*
X52073752Y17847667D01*
X51718873Y17701034D01*
X51662040Y17644300D01*
X48412925Y17644300D01*
X48527036Y17699268D01*
X48916954Y18135680D01*
X49110184Y18688087D01*
X48965924Y18923000D01*
X47752000Y18923000D01*
X47752000Y18903000D01*
X47498000Y18903000D01*
X47498000Y18923000D01*
X47478000Y18923000D01*
X47478000Y19177000D01*
X47498000Y19177000D01*
X47498000Y19197000D01*
X47752000Y19197000D01*
X47752000Y19177000D01*
X48965924Y19177000D01*
X49110184Y19411913D01*
X49014519Y19685400D01*
X53733960Y19685400D01*
X53733960Y18034000D01*
G36*
X70612000Y19177000D02*
X70632000Y19177000D01*
X70632000Y18923000D01*
X70612000Y18923000D01*
X70612000Y18903000D01*
X70358000Y18903000D01*
X70358000Y18923000D01*
X70338000Y18923000D01*
X70338000Y19177000D01*
X70358000Y19177000D01*
X70358000Y19197000D01*
X70612000Y19197000D01*
X70612000Y19177000D01*
X70612000Y19177000D01*
G37*
X70612000Y19177000D02*
X70632000Y19177000D01*
X70632000Y18923000D01*
X70612000Y18923000D01*
X70612000Y18903000D01*
X70358000Y18903000D01*
X70358000Y18923000D01*
X70338000Y18923000D01*
X70338000Y19177000D01*
X70358000Y19177000D01*
X70358000Y19197000D01*
X70612000Y19197000D01*
X70612000Y19177000D01*
G36*
X43693086Y44799041D02*
X43693086Y44799041D01*
X43814371Y44577000D01*
X44958000Y44577000D01*
X44958000Y44597000D01*
X45212000Y44597000D01*
X45212000Y44577000D01*
X45232000Y44577000D01*
X45232000Y44323000D01*
X45212000Y44323000D01*
X45212000Y43180085D01*
X45434039Y43058096D01*
X45822423Y43218959D01*
X46237389Y43594866D01*
X46340014Y43811703D01*
X46610302Y43407189D01*
X46869964Y43233688D01*
X46921004Y42977095D01*
X47004794Y42851695D01*
X47086185Y42729885D01*
X48133000Y41683069D01*
X48133000Y38156065D01*
X47974039Y38221904D01*
X47752000Y38099915D01*
X47752000Y36957000D01*
X47772000Y36957000D01*
X47772000Y36703000D01*
X47752000Y36703000D01*
X47752000Y35560085D01*
X47974039Y35438096D01*
X48362423Y35598959D01*
X48510538Y35733132D01*
X49154184Y35089485D01*
X49308296Y34986511D01*
X49401395Y34924304D01*
X49693000Y34866300D01*
X60266000Y34866300D01*
X60557605Y34924304D01*
X60804815Y35089485D01*
X61263868Y35548538D01*
X61388327Y35359073D01*
X61599360Y35216623D01*
X61849000Y35166560D01*
X63881000Y35166560D01*
X64123123Y35213537D01*
X64335927Y35353327D01*
X64478377Y35564360D01*
X64528440Y35814000D01*
X64528440Y36068000D01*
X65011560Y36068000D01*
X65011560Y35814000D01*
X65058537Y35571877D01*
X65198327Y35359073D01*
X65409360Y35216623D01*
X65659000Y35166560D01*
X66880519Y35166560D01*
X59251260Y27537300D01*
X50165000Y27537300D01*
X50165000Y34163000D01*
X50155333Y34211601D01*
X50127803Y34252803D01*
X50086601Y34280333D01*
X50038000Y34290000D01*
X43053000Y34290000D01*
X43004399Y34280333D01*
X42963197Y34252803D01*
X42935667Y34211601D01*
X42926000Y34163000D01*
X42926000Y27714541D01*
X37812620Y32827920D01*
X37483007Y33048162D01*
X37418500Y33060993D01*
X37094200Y33125500D01*
X33645441Y33125500D01*
X31575612Y35195328D01*
X31692694Y35195226D01*
X32293655Y35443538D01*
X32753846Y35902927D01*
X32823527Y36070737D01*
X32871035Y35956042D01*
X33137837Y35857443D01*
X33930789Y36650395D01*
X34290000Y36650395D01*
X33317443Y35677837D01*
X33416042Y35411035D01*
X34025582Y35184599D01*
X34675377Y35208659D01*
X35163958Y35411035D01*
X35262557Y35677837D01*
X34290000Y36650395D01*
X33930789Y36650395D01*
X34110395Y36830000D01*
X34096252Y36844142D01*
X34275858Y37023747D01*
X34290000Y37009605D01*
X35082951Y37802557D01*
X35442163Y37802557D01*
X34469605Y36830000D01*
X35442163Y35857443D01*
X35708965Y35956042D01*
X35748241Y36061770D01*
X35792035Y35956042D01*
X36058837Y35857443D01*
X36851789Y36650395D01*
X37211000Y36650395D01*
X36238443Y35677837D01*
X36337042Y35411035D01*
X36946582Y35184599D01*
X37596377Y35208659D01*
X38084958Y35411035D01*
X38183557Y35677837D01*
X37211000Y36650395D01*
X36851789Y36650395D01*
X37031395Y36830000D01*
X36058837Y37802557D01*
X35792035Y37703958D01*
X35752759Y37598230D01*
X35708965Y37703958D01*
X35442163Y37802557D01*
X35082951Y37802557D01*
X35262557Y37982163D01*
X35218964Y38100124D01*
X35594241Y38475401D01*
X37475418Y38475401D01*
X36825623Y38451341D01*
X36337042Y38248965D01*
X36238443Y37982163D01*
X37211000Y37009605D01*
X38183557Y37982163D01*
X38084958Y38248965D01*
X37504025Y38464774D01*
X39808306Y38464774D01*
X39207345Y38216462D01*
X38747154Y37757073D01*
X38677473Y37589263D01*
X38629965Y37703958D01*
X38363163Y37802557D01*
X37390605Y36830000D01*
X38363163Y35857443D01*
X38629965Y35956042D01*
X38674763Y36076633D01*
X38745538Y35905345D01*
X39204927Y35445154D01*
X39805453Y35195794D01*
X40455694Y35195226D01*
X41056655Y35443538D01*
X41516846Y35902927D01*
X41766206Y36503453D01*
X41766774Y37153694D01*
X41518462Y37754655D01*
X41059073Y38214846D01*
X40870585Y38293113D01*
X45085000Y38293113D01*
X44535849Y38183880D01*
X44070302Y37872811D01*
X43759233Y37407264D01*
X43650000Y36858113D01*
X43650000Y36801887D01*
X43759233Y36252736D01*
X44070302Y35787189D01*
X44535849Y35476120D01*
X45085000Y35366887D01*
X45634151Y35476120D01*
X46099698Y35787189D01*
X46369986Y36191703D01*
X46472611Y35974866D01*
X46887577Y35598959D01*
X47275961Y35438096D01*
X47498000Y35560085D01*
X47498000Y36703000D01*
X47478000Y36703000D01*
X47478000Y36957000D01*
X47498000Y36957000D01*
X47498000Y38099915D01*
X47275961Y38221904D01*
X46887577Y38061041D01*
X46472611Y37685134D01*
X46369986Y37468297D01*
X46099698Y37872811D01*
X45634151Y38183880D01*
X45085000Y38293113D01*
X40870585Y38293113D01*
X40458547Y38464206D01*
X39808306Y38464774D01*
X37504025Y38464774D01*
X37475418Y38475401D01*
X35594241Y38475401D01*
X39905401Y42786560D01*
X40995600Y42786560D01*
X41237723Y42833537D01*
X41450527Y42973327D01*
X41592977Y43184360D01*
X41643040Y43434000D01*
X41643040Y44323000D01*
X43814371Y44323000D01*
X43693086Y44100959D01*
X43932611Y43594866D01*
X44347577Y43218959D01*
X44735961Y43058096D01*
X44958000Y43180085D01*
X44958000Y44323000D01*
X43814371Y44323000D01*
X41643040Y44323000D01*
X41643040Y45085300D01*
X43828567Y45085300D01*
X43693086Y44799041D01*
X43693086Y44799041D01*
G37*
X43693086Y44799041D02*
X43693086Y44799041D01*
X43814371Y44577000D01*
X44958000Y44577000D01*
X44958000Y44597000D01*
X45212000Y44597000D01*
X45212000Y44577000D01*
X45232000Y44577000D01*
X45232000Y44323000D01*
X45212000Y44323000D01*
X45212000Y43180085D01*
X45434039Y43058096D01*
X45822423Y43218959D01*
X46237389Y43594866D01*
X46340014Y43811703D01*
X46610302Y43407189D01*
X46869964Y43233688D01*
X46921004Y42977095D01*
X47004794Y42851695D01*
X47086185Y42729885D01*
X48133000Y41683069D01*
X48133000Y38156065D01*
X47974039Y38221904D01*
X47752000Y38099915D01*
X47752000Y36957000D01*
X47772000Y36957000D01*
X47772000Y36703000D01*
X47752000Y36703000D01*
X47752000Y35560085D01*
X47974039Y35438096D01*
X48362423Y35598959D01*
X48510538Y35733132D01*
X49154184Y35089485D01*
X49308296Y34986511D01*
X49401395Y34924304D01*
X49693000Y34866300D01*
X60266000Y34866300D01*
X60557605Y34924304D01*
X60804815Y35089485D01*
X61263868Y35548538D01*
X61388327Y35359073D01*
X61599360Y35216623D01*
X61849000Y35166560D01*
X63881000Y35166560D01*
X64123123Y35213537D01*
X64335927Y35353327D01*
X64478377Y35564360D01*
X64528440Y35814000D01*
X64528440Y36068000D01*
X65011560Y36068000D01*
X65011560Y35814000D01*
X65058537Y35571877D01*
X65198327Y35359073D01*
X65409360Y35216623D01*
X65659000Y35166560D01*
X66880519Y35166560D01*
X59251260Y27537300D01*
X50165000Y27537300D01*
X50165000Y34163000D01*
X50155333Y34211601D01*
X50127803Y34252803D01*
X50086601Y34280333D01*
X50038000Y34290000D01*
X43053000Y34290000D01*
X43004399Y34280333D01*
X42963197Y34252803D01*
X42935667Y34211601D01*
X42926000Y34163000D01*
X42926000Y27714541D01*
X37812620Y32827920D01*
X37483007Y33048162D01*
X37418500Y33060993D01*
X37094200Y33125500D01*
X33645441Y33125500D01*
X31575612Y35195328D01*
X31692694Y35195226D01*
X32293655Y35443538D01*
X32753846Y35902927D01*
X32823527Y36070737D01*
X32871035Y35956042D01*
X33137837Y35857443D01*
X33930789Y36650395D01*
X34290000Y36650395D01*
X33317443Y35677837D01*
X33416042Y35411035D01*
X34025582Y35184599D01*
X34675377Y35208659D01*
X35163958Y35411035D01*
X35262557Y35677837D01*
X34290000Y36650395D01*
X33930789Y36650395D01*
X34110395Y36830000D01*
X34096252Y36844142D01*
X34275858Y37023747D01*
X34290000Y37009605D01*
X35082951Y37802557D01*
X35442163Y37802557D01*
X34469605Y36830000D01*
X35442163Y35857443D01*
X35708965Y35956042D01*
X35748241Y36061770D01*
X35792035Y35956042D01*
X36058837Y35857443D01*
X36851789Y36650395D01*
X37211000Y36650395D01*
X36238443Y35677837D01*
X36337042Y35411035D01*
X36946582Y35184599D01*
X37596377Y35208659D01*
X38084958Y35411035D01*
X38183557Y35677837D01*
X37211000Y36650395D01*
X36851789Y36650395D01*
X37031395Y36830000D01*
X36058837Y37802557D01*
X35792035Y37703958D01*
X35752759Y37598230D01*
X35708965Y37703958D01*
X35442163Y37802557D01*
X35082951Y37802557D01*
X35262557Y37982163D01*
X35218964Y38100124D01*
X35594241Y38475401D01*
X37475418Y38475401D01*
X36825623Y38451341D01*
X36337042Y38248965D01*
X36238443Y37982163D01*
X37211000Y37009605D01*
X38183557Y37982163D01*
X38084958Y38248965D01*
X37504025Y38464774D01*
X39808306Y38464774D01*
X39207345Y38216462D01*
X38747154Y37757073D01*
X38677473Y37589263D01*
X38629965Y37703958D01*
X38363163Y37802557D01*
X37390605Y36830000D01*
X38363163Y35857443D01*
X38629965Y35956042D01*
X38674763Y36076633D01*
X38745538Y35905345D01*
X39204927Y35445154D01*
X39805453Y35195794D01*
X40455694Y35195226D01*
X41056655Y35443538D01*
X41516846Y35902927D01*
X41766206Y36503453D01*
X41766774Y37153694D01*
X41518462Y37754655D01*
X41059073Y38214846D01*
X40870585Y38293113D01*
X45085000Y38293113D01*
X44535849Y38183880D01*
X44070302Y37872811D01*
X43759233Y37407264D01*
X43650000Y36858113D01*
X43650000Y36801887D01*
X43759233Y36252736D01*
X44070302Y35787189D01*
X44535849Y35476120D01*
X45085000Y35366887D01*
X45634151Y35476120D01*
X46099698Y35787189D01*
X46369986Y36191703D01*
X46472611Y35974866D01*
X46887577Y35598959D01*
X47275961Y35438096D01*
X47498000Y35560085D01*
X47498000Y36703000D01*
X47478000Y36703000D01*
X47478000Y36957000D01*
X47498000Y36957000D01*
X47498000Y38099915D01*
X47275961Y38221904D01*
X46887577Y38061041D01*
X46472611Y37685134D01*
X46369986Y37468297D01*
X46099698Y37872811D01*
X45634151Y38183880D01*
X45085000Y38293113D01*
X40870585Y38293113D01*
X40458547Y38464206D01*
X39808306Y38464774D01*
X37504025Y38464774D01*
X37475418Y38475401D01*
X35594241Y38475401D01*
X39905401Y42786560D01*
X40995600Y42786560D01*
X41237723Y42833537D01*
X41450527Y42973327D01*
X41592977Y43184360D01*
X41643040Y43434000D01*
X41643040Y44323000D01*
X43814371Y44323000D01*
X43693086Y44100959D01*
X43932611Y43594866D01*
X44347577Y43218959D01*
X44735961Y43058096D01*
X44958000Y43180085D01*
X44958000Y44323000D01*
X43814371Y44323000D01*
X41643040Y44323000D01*
X41643040Y45085300D01*
X43828567Y45085300D01*
X43693086Y44799041D01*
G36*
X57826985Y43241685D02*
X57826985Y43241685D01*
X60589584Y40479085D01*
X60836795Y40313904D01*
X61128400Y40255900D01*
X61477108Y40255900D01*
X61307330Y40001810D01*
X61181655Y39370000D01*
X61307330Y38738190D01*
X61534169Y38398701D01*
X61394073Y38306673D01*
X61251623Y38095640D01*
X61201560Y37846000D01*
X61201560Y37539061D01*
X61176095Y37533996D01*
X60928884Y37368815D01*
X60517072Y36957002D01*
X60512252Y36957002D01*
X60671000Y37115750D01*
X60671000Y37556310D01*
X60574327Y37789699D01*
X60395698Y37968327D01*
X60162309Y38065000D01*
X59721750Y38065000D01*
X59563000Y37906250D01*
X59563000Y36957000D01*
X59583000Y36957000D01*
X59583000Y36703000D01*
X59563000Y36703000D01*
X59563000Y36683000D01*
X59309000Y36683000D01*
X59309000Y36703000D01*
X58359750Y36703000D01*
X58201000Y36544250D01*
X58201000Y36390300D01*
X58090658Y36390300D01*
X58170785Y36583266D01*
X58171214Y37074579D01*
X57983592Y37528657D01*
X57636485Y37876371D01*
X57182734Y38064785D01*
X56936505Y38065000D01*
X58709691Y38065000D01*
X58476302Y37968327D01*
X58297673Y37789699D01*
X58201000Y37556310D01*
X58201000Y37115750D01*
X58359750Y36957000D01*
X59309000Y36957000D01*
X59309000Y37906250D01*
X59150250Y38065000D01*
X58709691Y38065000D01*
X56936505Y38065000D01*
X56691421Y38065214D01*
X56237343Y37877592D01*
X55889629Y37530485D01*
X55701215Y37076734D01*
X55700786Y36585421D01*
X55781409Y36390300D01*
X54058130Y36390300D01*
X54140000Y36801887D01*
X54140000Y36858113D01*
X54030767Y37407264D01*
X53719698Y37872811D01*
X53254151Y38183880D01*
X52705000Y38293113D01*
X52155849Y38183880D01*
X52007790Y38084950D01*
X57137664Y43214823D01*
X57180579Y43214786D01*
X57634657Y43402408D01*
X57685608Y43453270D01*
X57826985Y43241685D01*
X57826985Y43241685D01*
G37*
X57826985Y43241685D02*
X57826985Y43241685D01*
X60589584Y40479085D01*
X60836795Y40313904D01*
X61128400Y40255900D01*
X61477108Y40255900D01*
X61307330Y40001810D01*
X61181655Y39370000D01*
X61307330Y38738190D01*
X61534169Y38398701D01*
X61394073Y38306673D01*
X61251623Y38095640D01*
X61201560Y37846000D01*
X61201560Y37539061D01*
X61176095Y37533996D01*
X60928884Y37368815D01*
X60517072Y36957002D01*
X60512252Y36957002D01*
X60671000Y37115750D01*
X60671000Y37556310D01*
X60574327Y37789699D01*
X60395698Y37968327D01*
X60162309Y38065000D01*
X59721750Y38065000D01*
X59563000Y37906250D01*
X59563000Y36957000D01*
X59583000Y36957000D01*
X59583000Y36703000D01*
X59563000Y36703000D01*
X59563000Y36683000D01*
X59309000Y36683000D01*
X59309000Y36703000D01*
X58359750Y36703000D01*
X58201000Y36544250D01*
X58201000Y36390300D01*
X58090658Y36390300D01*
X58170785Y36583266D01*
X58171214Y37074579D01*
X57983592Y37528657D01*
X57636485Y37876371D01*
X57182734Y38064785D01*
X56936505Y38065000D01*
X58709691Y38065000D01*
X58476302Y37968327D01*
X58297673Y37789699D01*
X58201000Y37556310D01*
X58201000Y37115750D01*
X58359750Y36957000D01*
X59309000Y36957000D01*
X59309000Y37906250D01*
X59150250Y38065000D01*
X58709691Y38065000D01*
X56936505Y38065000D01*
X56691421Y38065214D01*
X56237343Y37877592D01*
X55889629Y37530485D01*
X55701215Y37076734D01*
X55700786Y36585421D01*
X55781409Y36390300D01*
X54058130Y36390300D01*
X54140000Y36801887D01*
X54140000Y36858113D01*
X54030767Y37407264D01*
X53719698Y37872811D01*
X53254151Y38183880D01*
X52705000Y38293113D01*
X52155849Y38183880D01*
X52007790Y38084950D01*
X57137664Y43214823D01*
X57180579Y43214786D01*
X57634657Y43402408D01*
X57685608Y43453270D01*
X57826985Y43241685D01*
G36*
X61940345Y45836462D02*
X61940345Y45836462D01*
X61480154Y45377073D01*
X61230794Y44776547D01*
X61230226Y44126306D01*
X61478538Y43525345D01*
X61937927Y43065154D01*
X62538453Y42815794D01*
X63188694Y42815226D01*
X63789655Y43063538D01*
X64249846Y43522927D01*
X64499206Y44123453D01*
X64499774Y44773694D01*
X64251462Y45374655D01*
X63792073Y45834846D01*
X63244303Y46062300D01*
X72358670Y46062300D01*
X72442948Y45978022D01*
X72100345Y45836462D01*
X71640154Y45377073D01*
X71390794Y44776547D01*
X71390226Y44126306D01*
X71458482Y43961113D01*
X67938875Y40441505D01*
X67874778Y40537433D01*
X67339155Y40895325D01*
X66707345Y41021000D01*
X66642655Y41021000D01*
X66010845Y40895325D01*
X65475222Y40537433D01*
X65360136Y40365195D01*
X64168615Y41556715D01*
X63954668Y41699670D01*
X63921405Y41721896D01*
X63629800Y41779900D01*
X61444031Y41779900D01*
X60008930Y43215000D01*
X60162309Y43215000D01*
X60395698Y43311673D01*
X60574327Y43490301D01*
X60671000Y43723690D01*
X60671000Y44164250D01*
X60512250Y44323000D01*
X59563000Y44323000D01*
X59563000Y44303000D01*
X59309000Y44303000D01*
X59309000Y44323000D01*
X59289000Y44323000D01*
X59289000Y44577000D01*
X59309000Y44577000D01*
X59309000Y45526250D01*
X59150250Y45685000D01*
X59721750Y45685000D01*
X59563000Y45526250D01*
X59563000Y44577000D01*
X60512250Y44577000D01*
X60671000Y44735750D01*
X60671000Y45176310D01*
X60574327Y45409699D01*
X60395698Y45588327D01*
X60162309Y45685000D01*
X59721750Y45685000D01*
X59150250Y45685000D01*
X59150250Y45685000D01*
X58709691Y45685000D01*
X58476302Y45588327D01*
X58411653Y45523678D01*
X57963315Y45972015D01*
X57941629Y45986505D01*
X57828194Y46062300D01*
X62486915Y46062300D01*
X61940345Y45836462D01*
X61940345Y45836462D01*
G37*
X61940345Y45836462D02*
X61940345Y45836462D01*
X61480154Y45377073D01*
X61230794Y44776547D01*
X61230226Y44126306D01*
X61478538Y43525345D01*
X61937927Y43065154D01*
X62538453Y42815794D01*
X63188694Y42815226D01*
X63789655Y43063538D01*
X64249846Y43522927D01*
X64499206Y44123453D01*
X64499774Y44773694D01*
X64251462Y45374655D01*
X63792073Y45834846D01*
X63244303Y46062300D01*
X72358670Y46062300D01*
X72442948Y45978022D01*
X72100345Y45836462D01*
X71640154Y45377073D01*
X71390794Y44776547D01*
X71390226Y44126306D01*
X71458482Y43961113D01*
X67938875Y40441505D01*
X67874778Y40537433D01*
X67339155Y40895325D01*
X66707345Y41021000D01*
X66642655Y41021000D01*
X66010845Y40895325D01*
X65475222Y40537433D01*
X65360136Y40365195D01*
X64168615Y41556715D01*
X63954668Y41699670D01*
X63921405Y41721896D01*
X63629800Y41779900D01*
X61444031Y41779900D01*
X60008930Y43215000D01*
X60162309Y43215000D01*
X60395698Y43311673D01*
X60574327Y43490301D01*
X60671000Y43723690D01*
X60671000Y44164250D01*
X60512250Y44323000D01*
X59563000Y44323000D01*
X59563000Y44303000D01*
X59309000Y44303000D01*
X59309000Y44323000D01*
X59289000Y44323000D01*
X59289000Y44577000D01*
X59309000Y44577000D01*
X59309000Y45526250D01*
X59150250Y45685000D01*
X59721750Y45685000D01*
X59563000Y45526250D01*
X59563000Y44577000D01*
X60512250Y44577000D01*
X60671000Y44735750D01*
X60671000Y45176310D01*
X60574327Y45409699D01*
X60395698Y45588327D01*
X60162309Y45685000D01*
X59721750Y45685000D01*
X59150250Y45685000D01*
X59150250Y45685000D01*
X58709691Y45685000D01*
X58476302Y45588327D01*
X58411653Y45523678D01*
X57963315Y45972015D01*
X57941629Y45986505D01*
X57828194Y46062300D01*
X62486915Y46062300D01*
X61940345Y45836462D01*
M02*
