G04 #@! TF.FileFunction,Copper,L2,Bot,Signal*
%FSLAX46Y46*%
G04 Gerber Fmt 4.6, Leading zero omitted, Abs format (unit mm)*
G04 Created by KiCad (PCBNEW 0.201506172246+5766~23~ubuntu14.04.1-product) date Do 09 Jul 2015 22:59:30 CEST*
%MOMM*%
G01*
G04 APERTURE LIST*
%ADD10C,0.100000*%
%ADD11C,4.064000*%
%ADD12R,2.032000X1.727200*%
%ADD13O,2.032000X1.727200*%
%ADD14R,1.727200X1.727200*%
%ADD15O,1.727200X1.727200*%
%ADD16R,2.032000X2.032000*%
%ADD17O,2.032000X2.032000*%
%ADD18R,1.727200X2.032000*%
%ADD19O,1.727200X2.032000*%
%ADD20C,1.998980*%
%ADD21R,1.200000X1.200000*%
%ADD22C,1.200000*%
%ADD23O,1.600000X1.600000*%
%ADD24C,0.914400*%
%ADD25C,0.660400*%
%ADD26C,0.254000*%
%ADD27C,0.762000*%
G04 APERTURE END LIST*
D10*
D11*
X26035000Y30734000D03*
D12*
X78740000Y12700000D03*
D13*
X78740000Y15240000D03*
X78740000Y17780000D03*
X78740000Y20320000D03*
X78740000Y22860000D03*
X78740000Y25400000D03*
X78740000Y27940000D03*
X78740000Y30480000D03*
X78740000Y33020000D03*
X78740000Y35560000D03*
X78740000Y38100000D03*
X78740000Y40640000D03*
D14*
X83820000Y12700000D03*
D15*
X81280000Y12700000D03*
X83820000Y15240000D03*
X81280000Y15240000D03*
X83820000Y17780000D03*
X81280000Y17780000D03*
X83820000Y20320000D03*
X81280000Y20320000D03*
X83820000Y22860000D03*
X81280000Y22860000D03*
X83820000Y25400000D03*
X81280000Y25400000D03*
X83820000Y27940000D03*
X81280000Y27940000D03*
X83820000Y30480000D03*
X81280000Y30480000D03*
X83820000Y33020000D03*
X81280000Y33020000D03*
X83820000Y35560000D03*
X81280000Y35560000D03*
X83820000Y38100000D03*
X81280000Y38100000D03*
X83820000Y40640000D03*
X81280000Y40640000D03*
D16*
X25400000Y36830000D03*
D17*
X22860000Y36830000D03*
D18*
X24765000Y19050000D03*
D19*
X27305000Y19050000D03*
X29845000Y19050000D03*
X32385000Y19050000D03*
X34925000Y19050000D03*
X37465000Y19050000D03*
X40005000Y19050000D03*
X42545000Y19050000D03*
X45085000Y19050000D03*
X47625000Y19050000D03*
D18*
X55245000Y19050000D03*
D19*
X57785000Y19050000D03*
X60325000Y19050000D03*
X62865000Y19050000D03*
X65405000Y19050000D03*
X67945000Y19050000D03*
X70485000Y19050000D03*
D14*
X19685000Y50165000D03*
D15*
X19685000Y52705000D03*
X22225000Y50165000D03*
X22225000Y52705000D03*
X24765000Y50165000D03*
X24765000Y52705000D03*
X27305000Y50165000D03*
X27305000Y52705000D03*
X29845000Y50165000D03*
X29845000Y52705000D03*
X32385000Y50165000D03*
X32385000Y52705000D03*
X34925000Y50165000D03*
X34925000Y52705000D03*
X37465000Y50165000D03*
X37465000Y52705000D03*
X40005000Y50165000D03*
X40005000Y52705000D03*
X42545000Y50165000D03*
X42545000Y52705000D03*
X45085000Y50165000D03*
X45085000Y52705000D03*
X47625000Y50165000D03*
X47625000Y52705000D03*
X50165000Y50165000D03*
X50165000Y52705000D03*
X52705000Y50165000D03*
X52705000Y52705000D03*
X55245000Y50165000D03*
X55245000Y52705000D03*
X57785000Y50165000D03*
X57785000Y52705000D03*
X60325000Y50165000D03*
X60325000Y52705000D03*
X62865000Y50165000D03*
X62865000Y52705000D03*
X65405000Y50165000D03*
X65405000Y52705000D03*
X67945000Y50165000D03*
X67945000Y52705000D03*
X70485000Y50165000D03*
X70485000Y52705000D03*
X73025000Y50165000D03*
X73025000Y52705000D03*
X75565000Y50165000D03*
X75565000Y52705000D03*
D14*
X19685000Y1905000D03*
D15*
X19685000Y4445000D03*
X22225000Y1905000D03*
X22225000Y4445000D03*
X24765000Y1905000D03*
X24765000Y4445000D03*
X27305000Y1905000D03*
X27305000Y4445000D03*
X29845000Y1905000D03*
X29845000Y4445000D03*
X32385000Y1905000D03*
X32385000Y4445000D03*
X34925000Y1905000D03*
X34925000Y4445000D03*
X37465000Y1905000D03*
X37465000Y4445000D03*
X40005000Y1905000D03*
X40005000Y4445000D03*
X42545000Y1905000D03*
X42545000Y4445000D03*
X45085000Y1905000D03*
X45085000Y4445000D03*
X47625000Y1905000D03*
X47625000Y4445000D03*
X50165000Y1905000D03*
X50165000Y4445000D03*
X52705000Y1905000D03*
X52705000Y4445000D03*
X55245000Y1905000D03*
X55245000Y4445000D03*
X57785000Y1905000D03*
X57785000Y4445000D03*
X60325000Y1905000D03*
X60325000Y4445000D03*
X62865000Y1905000D03*
X62865000Y4445000D03*
X65405000Y1905000D03*
X65405000Y4445000D03*
X67945000Y1905000D03*
X67945000Y4445000D03*
X70485000Y1905000D03*
X70485000Y4445000D03*
X73025000Y1905000D03*
X73025000Y4445000D03*
X75565000Y1905000D03*
X75565000Y4445000D03*
D16*
X12065000Y4445000D03*
D17*
X12065000Y1905000D03*
D18*
X70485000Y10160000D03*
D19*
X67945000Y10160000D03*
X65405000Y10160000D03*
X62865000Y10160000D03*
X60325000Y10160000D03*
X57785000Y10160000D03*
X55245000Y10160000D03*
D16*
X66675000Y36830000D03*
D17*
X66675000Y39370000D03*
D16*
X62865000Y36830000D03*
D17*
X62865000Y39370000D03*
D20*
X62865000Y44450000D03*
X73025000Y44450000D03*
D21*
X59436000Y44450000D03*
D22*
X56936000Y44450000D03*
D21*
X59436000Y36830000D03*
D22*
X56936000Y36830000D03*
D18*
X34925000Y10160000D03*
D19*
X32385000Y10160000D03*
X29845000Y10160000D03*
X27305000Y10160000D03*
X24765000Y10160000D03*
D18*
X50165000Y10160000D03*
D19*
X47625000Y10160000D03*
X45085000Y10160000D03*
X42545000Y10160000D03*
X40005000Y10160000D03*
D11*
X69215000Y28067000D03*
X46482000Y30734000D03*
D12*
X8636000Y50165000D03*
D13*
X8636000Y47625000D03*
X8636000Y45085000D03*
D12*
X2921000Y15240000D03*
D13*
X2921000Y12700000D03*
X2921000Y10160000D03*
D12*
X78740000Y49530000D03*
D13*
X78740000Y46990000D03*
X78740000Y44450000D03*
D18*
X40132000Y44450000D03*
D19*
X37592000Y44450000D03*
X35052000Y44450000D03*
X32512000Y44450000D03*
X29972000Y44450000D03*
D18*
X19685000Y10160000D03*
D19*
X17145000Y10160000D03*
X14605000Y10160000D03*
X12065000Y10160000D03*
D20*
X40132000Y26670000D03*
X40132000Y36830000D03*
X37211000Y36830000D03*
X37211000Y26670000D03*
X31369000Y36830000D03*
X31369000Y26670000D03*
X34290000Y26670000D03*
X34290000Y36830000D03*
D23*
X45085000Y36830000D03*
X47625000Y36830000D03*
X50165000Y36830000D03*
X52705000Y36830000D03*
X52705000Y44450000D03*
X50165000Y44450000D03*
X47625000Y44450000D03*
X45085000Y44450000D03*
D18*
X25400000Y44450000D03*
D19*
X22860000Y44450000D03*
X20320000Y44450000D03*
X17780000Y44450000D03*
D24*
X56005000Y14375500D03*
D25*
X36057200Y47372700D03*
X45453400Y6614400D03*
X52264900Y16882300D03*
D26*
X52705000Y52705000D02*
X52705000Y51460100D01*
X78740000Y12700000D02*
X78740000Y13944900D01*
X53171900Y51460100D02*
X52705000Y51460100D01*
X53949900Y50682100D02*
X53171900Y51460100D01*
X53949900Y49632200D02*
X53949900Y50682100D01*
X56302100Y47280000D02*
X53949900Y49632200D01*
X58354100Y47280000D02*
X56302100Y47280000D01*
X60478500Y45155600D02*
X58354100Y47280000D01*
X60478500Y28558800D02*
X60478500Y45155600D01*
X67705500Y21331800D02*
X60478500Y28558800D01*
X70152300Y21331800D02*
X67705500Y21331800D01*
X77539200Y13944900D02*
X70152300Y21331800D01*
X78740000Y13944900D02*
X77539200Y13944900D01*
X55760800Y51460100D02*
X55245000Y51460100D01*
X56515000Y50705900D02*
X55760800Y51460100D01*
X56515000Y49648400D02*
X56515000Y50705900D01*
X57841700Y48321700D02*
X56515000Y49648400D01*
X58031400Y48321700D02*
X57841700Y48321700D01*
X61415300Y44937800D02*
X58031400Y48321700D01*
X61415300Y28342400D02*
X61415300Y44937800D01*
X66952600Y22805100D02*
X61415300Y28342400D01*
X73714900Y22805100D02*
X66952600Y22805100D01*
X78740000Y17780000D02*
X73714900Y22805100D01*
X55245000Y52705000D02*
X55245000Y51460100D01*
X81856500Y19075100D02*
X78740000Y19075100D01*
X82525000Y19743600D02*
X81856500Y19075100D01*
X82525000Y42062300D02*
X82525000Y19743600D01*
X80137300Y44450000D02*
X82525000Y42062300D01*
X78740000Y44450000D02*
X80137300Y44450000D01*
X78740000Y20320000D02*
X78740000Y19075100D01*
X67945000Y52705000D02*
X67945000Y51460100D01*
X78740000Y22860000D02*
X78740000Y24104900D01*
X67478100Y51460100D02*
X67945000Y51460100D01*
X66700100Y50682100D02*
X67478100Y51460100D01*
X66700100Y42511900D02*
X66700100Y50682100D01*
X65225000Y41036800D02*
X66700100Y42511900D01*
X65225000Y35654300D02*
X65225000Y41036800D01*
X65498400Y35380900D02*
X65225000Y35654300D01*
X69435800Y35380900D02*
X65498400Y35380900D01*
X74355400Y30461300D02*
X69435800Y35380900D01*
X74355400Y27821300D02*
X74355400Y30461300D01*
X78071800Y24104900D02*
X74355400Y27821300D01*
X78740000Y24104900D02*
X78071800Y24104900D01*
X78071800Y26644900D02*
X78740000Y26644900D01*
X76882100Y27834600D02*
X78071800Y26644900D01*
X76882100Y29434100D02*
X76882100Y27834600D01*
X69189900Y37126300D02*
X76882100Y29434100D01*
X69189900Y47675200D02*
X69189900Y37126300D01*
X67945000Y48920100D02*
X69189900Y47675200D01*
X67945000Y50165000D02*
X67945000Y48920100D01*
X78740000Y25400000D02*
X78740000Y26644900D01*
X70485000Y52705000D02*
X70485000Y51460100D01*
X78740000Y27940000D02*
X78740000Y29184900D01*
X78122100Y29184900D02*
X78740000Y29184900D01*
X70526500Y36780500D02*
X78122100Y29184900D01*
X70526500Y47633300D02*
X70526500Y36780500D01*
X69215000Y48944800D02*
X70526500Y47633300D01*
X69215000Y50656900D02*
X69215000Y48944800D01*
X70018200Y51460100D02*
X69215000Y50656900D01*
X70485000Y51460100D02*
X70018200Y51460100D01*
X78071800Y31724900D02*
X78740000Y31724900D01*
X71159700Y38637000D02*
X78071800Y31724900D01*
X71159700Y48245400D02*
X71159700Y38637000D01*
X70485000Y48920100D02*
X71159700Y48245400D01*
X78740000Y30480000D02*
X78740000Y31724900D01*
X70485000Y50165000D02*
X70485000Y48920100D01*
X73025000Y52705000D02*
X73025000Y51460100D01*
X78740000Y33020000D02*
X78740000Y34264900D01*
X78071800Y34264900D02*
X78740000Y34264900D01*
X75422500Y36914200D02*
X78071800Y34264900D01*
X75422500Y45227500D02*
X75422500Y36914200D01*
X71759600Y48890400D02*
X75422500Y45227500D01*
X71759600Y50661500D02*
X71759600Y48890400D01*
X72558200Y51460100D02*
X71759600Y50661500D01*
X73025000Y51460100D02*
X72558200Y51460100D01*
X78071800Y36804900D02*
X78740000Y36804900D01*
X76200700Y38676000D02*
X78071800Y36804900D01*
X76200700Y45744400D02*
X76200700Y38676000D01*
X73025000Y48920100D02*
X76200700Y45744400D01*
X78740000Y35560000D02*
X78740000Y36804900D01*
X73025000Y50165000D02*
X73025000Y48920100D01*
X78071800Y39344900D02*
X78740000Y39344900D01*
X76711100Y40705600D02*
X78071800Y39344900D01*
X76711100Y46386900D02*
X76711100Y40705600D01*
X74295000Y48803000D02*
X76711100Y46386900D01*
X74295000Y50656900D02*
X74295000Y48803000D01*
X75098200Y51460100D02*
X74295000Y50656900D01*
X75565000Y51460100D02*
X75098200Y51460100D01*
X75565000Y52705000D02*
X75565000Y51460100D01*
X78740000Y38100000D02*
X78740000Y39344900D01*
X75565000Y50165000D02*
X75565000Y48920100D01*
X78740000Y40640000D02*
X78740000Y41884900D01*
X77341200Y47143900D02*
X75565000Y48920100D01*
X77341200Y43283700D02*
X77341200Y47143900D01*
X78740000Y41884900D02*
X77341200Y43283700D01*
D27*
X12065000Y1905000D02*
X13716300Y1905000D01*
X5486100Y15240000D02*
X10566100Y10160000D01*
X2921000Y15240000D02*
X5486100Y15240000D01*
X12065000Y10160000D02*
X10566100Y10160000D01*
X83820000Y44450000D02*
X83820000Y40640000D01*
X78740000Y49530000D02*
X83820000Y44450000D01*
X83820000Y40640000D02*
X83820000Y38100000D01*
X83820000Y38100000D02*
X83820000Y35560000D01*
X83820000Y35560000D02*
X83820000Y33020000D01*
X83820000Y33020000D02*
X83820000Y30480000D01*
X83820000Y30480000D02*
X83820000Y27940000D01*
X83820000Y27940000D02*
X83820000Y25400000D01*
X83820000Y25400000D02*
X83820000Y22860000D01*
X83820000Y22860000D02*
X83820000Y20320000D01*
X83820000Y20320000D02*
X83820000Y17780000D01*
X77063900Y5943900D02*
X75565000Y5943900D01*
X83820000Y12700000D02*
X77063900Y5943900D01*
X75565000Y4445000D02*
X75565000Y5943900D01*
X19685000Y4445000D02*
X18186100Y4445000D01*
X13716300Y4445000D02*
X18186100Y4445000D01*
X13716300Y8508700D02*
X13716300Y4445000D01*
X12065000Y10160000D02*
X13716300Y8508700D01*
X13716300Y4445000D02*
X13716300Y1905000D01*
X8636000Y50165000D02*
X10287300Y50165000D01*
X19685000Y52705000D02*
X19685000Y51206100D01*
X10287300Y50165000D02*
X19685000Y50165000D01*
X19685000Y50165000D02*
X19685000Y51206100D01*
X83820000Y12700000D02*
X83820000Y15240000D01*
X83820000Y15240000D02*
X83820000Y17780000D01*
X59436000Y44450000D02*
X59436000Y36830000D01*
X69476200Y6325300D02*
X65523300Y10278300D01*
X71144700Y6325300D02*
X69476200Y6325300D01*
X73025000Y4445000D02*
X71144700Y6325300D01*
X70485000Y15240000D02*
X65523300Y10278300D01*
X70485000Y19050000D02*
X70485000Y15240000D01*
X65523300Y10278300D02*
X65405000Y10160000D01*
X45085000Y16510000D02*
X47625000Y19050000D01*
X45085000Y10160000D02*
X45085000Y16510000D01*
X58200700Y44990400D02*
X58200700Y44450000D01*
X57280800Y45910300D02*
X58200700Y44990400D01*
X46545300Y45910300D02*
X57280800Y45910300D01*
X45085000Y44450000D02*
X46545300Y45910300D01*
X59436000Y44450000D02*
X58200700Y44450000D01*
X34290000Y42036700D02*
X34290000Y36830000D01*
X35052000Y42798700D02*
X34290000Y42036700D01*
X35052000Y44450000D02*
X35052000Y42798700D01*
X41777000Y32264000D02*
X37211000Y36830000D01*
X41777000Y23552400D02*
X41777000Y32264000D01*
X43122600Y23552400D02*
X41777000Y23552400D01*
X47625000Y19050000D02*
X43122600Y23552400D01*
X27438900Y19050000D02*
X27305000Y19050000D01*
X31941300Y23552400D02*
X27438900Y19050000D01*
X41777000Y23552400D02*
X31941300Y23552400D01*
X27438900Y12566100D02*
X29845000Y10160000D01*
X27438900Y19050000D02*
X27438900Y12566100D01*
X19685000Y10160000D02*
X21183900Y10160000D01*
X24765000Y4445000D02*
X24765000Y1905000D01*
X30708900Y5943900D02*
X24765000Y5943900D01*
X34925000Y10160000D02*
X30708900Y5943900D01*
X24765000Y4445000D02*
X24765000Y5943900D01*
X21183900Y9525000D02*
X21183900Y10160000D01*
X24765000Y5943900D02*
X21183900Y9525000D01*
X22860000Y41910000D02*
X25400000Y44450000D01*
X22860000Y36830000D02*
X22860000Y41910000D01*
X42545000Y44450000D02*
X40132000Y44450000D01*
X50165000Y36830000D02*
X42545000Y44450000D01*
X50673400Y34886300D02*
X50165000Y35394700D01*
X50673400Y12319700D02*
X50673400Y34886300D01*
X50165000Y11811300D02*
X50673400Y12319700D01*
X50165000Y10160000D02*
X50165000Y11811300D01*
X50165000Y36830000D02*
X50165000Y35394700D01*
X52705000Y44450000D02*
X52705000Y43014700D01*
X22225000Y4445000D02*
X22225000Y1905000D01*
X56936000Y38783700D02*
X56936000Y36830000D01*
X52705000Y43014700D02*
X56936000Y38783700D01*
X23266100Y9319400D02*
X23266100Y19050000D01*
X24125700Y8459800D02*
X23266100Y9319400D01*
X30684800Y8459800D02*
X24125700Y8459800D01*
X32385000Y10160000D02*
X30684800Y8459800D01*
X24765000Y19050000D02*
X23266100Y19050000D01*
X55245000Y35139000D02*
X55245000Y19050000D01*
X56936000Y36830000D02*
X55245000Y35139000D01*
X56005000Y16638700D02*
X56005000Y14375500D01*
X55245000Y17398700D02*
X56005000Y16638700D01*
X55245000Y19050000D02*
X55245000Y17398700D01*
D26*
X34290000Y26670000D02*
X32829500Y28130500D01*
X31369000Y26670000D02*
X32829500Y28130500D01*
X36220100Y49649200D02*
X36220100Y50165000D01*
X34655200Y48084300D02*
X36220100Y49649200D01*
X34182600Y48084300D02*
X34655200Y48084300D01*
X31242000Y45143700D02*
X34182600Y48084300D01*
X31242000Y41850600D02*
X31242000Y45143700D01*
X32829500Y40263100D02*
X31242000Y41850600D01*
X32829500Y28130500D02*
X32829500Y40263100D01*
X37465000Y50165000D02*
X36220100Y50165000D01*
X61620100Y17805100D02*
X61620100Y19050000D01*
X59029900Y15214900D02*
X61620100Y17805100D01*
X59029900Y9474800D02*
X59029900Y15214900D01*
X55245000Y5689900D02*
X59029900Y9474800D01*
X55245000Y4445000D02*
X55245000Y5689900D01*
X62865000Y19050000D02*
X61620100Y19050000D01*
X35440800Y3149900D02*
X34925000Y3149900D01*
X36195000Y3904100D02*
X35440800Y3149900D01*
X36195000Y5004000D02*
X36195000Y3904100D01*
X37351100Y6160100D02*
X36195000Y5004000D01*
X37948100Y6160100D02*
X37351100Y6160100D01*
X41300100Y9512100D02*
X37948100Y6160100D01*
X41300100Y10160000D02*
X41300100Y9512100D01*
X42545000Y10160000D02*
X41300100Y10160000D01*
X34925000Y1905000D02*
X34925000Y3149900D01*
X32900800Y3149900D02*
X32385000Y3149900D01*
X33655000Y3904100D02*
X32900800Y3149900D01*
X33655000Y5054900D02*
X33655000Y3904100D01*
X38760100Y10160000D02*
X33655000Y5054900D01*
X40005000Y10160000D02*
X38760100Y10160000D01*
X32385000Y1905000D02*
X32385000Y3149900D01*
X32512000Y44450000D02*
X33756900Y44450000D01*
X33756900Y45072400D02*
X36057200Y47372700D01*
X33756900Y44450000D02*
X33756900Y45072400D01*
X64160100Y53220800D02*
X64160100Y52705000D01*
X63397800Y53983100D02*
X64160100Y53220800D01*
X36901700Y53983100D02*
X63397800Y53983100D01*
X36195000Y53276400D02*
X36901700Y53983100D01*
X36195000Y52153600D02*
X36195000Y53276400D01*
X35501400Y51460000D02*
X36195000Y52153600D01*
X34398600Y51460000D02*
X35501400Y51460000D01*
X33680000Y50741400D02*
X34398600Y51460000D01*
X33680000Y49555300D02*
X33680000Y50741400D01*
X29972000Y45847300D02*
X33680000Y49555300D01*
X29972000Y44450000D02*
X29972000Y45847300D01*
X65405000Y52705000D02*
X64160100Y52705000D01*
X56540100Y8915100D02*
X56540100Y10160000D01*
X54000100Y6375100D02*
X56540100Y8915100D01*
X54000100Y3918700D02*
X54000100Y6375100D01*
X53281400Y3200000D02*
X54000100Y3918700D01*
X52178600Y3200000D02*
X53281400Y3200000D01*
X51460000Y2481400D02*
X52178600Y3200000D01*
X51460000Y1355800D02*
X51460000Y2481400D01*
X50749200Y645000D02*
X51460000Y1355800D01*
X47123100Y645000D02*
X50749200Y645000D01*
X46329900Y1438200D02*
X47123100Y645000D01*
X46329900Y1905000D02*
X46329900Y1438200D01*
X45085000Y1905000D02*
X46329900Y1905000D01*
X57785000Y10160000D02*
X56540100Y10160000D01*
X48869900Y3929200D02*
X48869900Y4445000D01*
X49624100Y3175000D02*
X48869900Y3929200D01*
X50662400Y3175000D02*
X49624100Y3175000D01*
X51460000Y3972600D02*
X50662400Y3175000D01*
X51460000Y34403700D02*
X51460000Y3972600D01*
X52705000Y35648700D02*
X51460000Y34403700D01*
X52705000Y36830000D02*
X52705000Y35648700D01*
X47625000Y4445000D02*
X48869900Y4445000D01*
X48920000Y6934900D02*
X50165000Y5689900D01*
X48920000Y20742900D02*
X48920000Y6934900D01*
X42605500Y27057400D02*
X48920000Y20742900D01*
X42605500Y34276700D02*
X42605500Y27057400D01*
X43977500Y35648700D02*
X42605500Y34276700D01*
X45085000Y35648700D02*
X43977500Y35648700D01*
X45085000Y36830000D02*
X45085000Y35648700D01*
X50165000Y4445000D02*
X50165000Y5689900D01*
X62865000Y44450000D02*
X62865000Y39370000D01*
X43815000Y4976000D02*
X45453400Y6614400D01*
X43815000Y3893600D02*
X43815000Y4976000D01*
X43071300Y3149900D02*
X43815000Y3893600D01*
X42027900Y3149900D02*
X43071300Y3149900D01*
X41249900Y2371900D02*
X42027900Y3149900D01*
X41249900Y1905000D02*
X41249900Y2371900D01*
X40005000Y1905000D02*
X41249900Y1905000D01*
D27*
X81280000Y40640000D02*
X81280000Y38100000D01*
X81280000Y38100000D02*
X81280000Y35560000D01*
X81280000Y35560000D02*
X81280000Y33020000D01*
X81280000Y33020000D02*
X81280000Y30480000D01*
X81280000Y30480000D02*
X81280000Y27940000D01*
X81280000Y27940000D02*
X81280000Y25400000D01*
X81280000Y25400000D02*
X81280000Y22860000D01*
X81280000Y22860000D02*
X81280000Y20320000D01*
X81280000Y17780000D02*
X81280000Y15240000D01*
X81280000Y15240000D02*
X81280000Y12700000D01*
D26*
X61726400Y20451400D02*
X60325000Y19050000D01*
X63381500Y20451400D02*
X61726400Y20451400D01*
X64135000Y19697900D02*
X63381500Y20451400D01*
X64135000Y17206100D02*
X64135000Y19697900D01*
X61595000Y14666100D02*
X64135000Y17206100D01*
X61595000Y8316100D02*
X61595000Y14666100D01*
X59029900Y5751000D02*
X61595000Y8316100D01*
X59029900Y3927900D02*
X59029900Y5751000D01*
X58251900Y3149900D02*
X59029900Y3927900D01*
X57785000Y3149900D02*
X58251900Y3149900D01*
X57785000Y1905000D02*
X57785000Y3149900D01*
X50165000Y1905000D02*
X48920100Y1905000D01*
X42545000Y19050000D02*
X43789900Y19050000D01*
X43789900Y9392900D02*
X43789900Y19050000D01*
X46355000Y6827800D02*
X43789900Y9392900D01*
X46355000Y3893600D02*
X46355000Y6827800D01*
X47098700Y3149900D02*
X46355000Y3893600D01*
X48142100Y3149900D02*
X47098700Y3149900D01*
X48920100Y2371900D02*
X48142100Y3149900D01*
X48920100Y1905000D02*
X48920100Y2371900D01*
X52264900Y6130000D02*
X52264900Y16882300D01*
X52705000Y5689900D02*
X52264900Y6130000D01*
X52705000Y4445000D02*
X52705000Y5689900D01*
X65405000Y12319000D02*
X65405000Y19050000D01*
X64135000Y11049000D02*
X65405000Y12319000D01*
X64135000Y9495100D02*
X64135000Y11049000D01*
X66378800Y7251300D02*
X64135000Y9495100D01*
X66916300Y7251300D02*
X66378800Y7251300D01*
X69240100Y4927500D02*
X66916300Y7251300D01*
X69240100Y4445000D02*
X69240100Y4927500D01*
X70485000Y4445000D02*
X69240100Y4445000D01*
X17145000Y15940700D02*
X17145000Y10160000D01*
X21336400Y20132100D02*
X17145000Y15940700D01*
X21336400Y39534900D02*
X21336400Y20132100D01*
X19393700Y41477600D02*
X21336400Y39534900D01*
X18831900Y41477600D02*
X19393700Y41477600D01*
X16533100Y43776400D02*
X18831900Y41477600D01*
X16533100Y45193100D02*
X16533100Y43776400D01*
X18147900Y46807900D02*
X16533100Y45193100D01*
X28339700Y46807900D02*
X18147900Y46807900D01*
X31140100Y49608300D02*
X28339700Y46807900D01*
X31140100Y50682100D02*
X31140100Y49608300D01*
X31918100Y51460100D02*
X31140100Y50682100D01*
X32385000Y51460100D02*
X31918100Y51460100D01*
X32385000Y52705000D02*
X32385000Y51460100D01*
X37465000Y52705000D02*
X37465000Y51460100D01*
X37980800Y51460100D02*
X37465000Y51460100D01*
X38724900Y50716000D02*
X37980800Y51460100D01*
X38724900Y49593900D02*
X38724900Y50716000D01*
X38887100Y49431700D02*
X38724900Y49593900D01*
X38887100Y38074900D02*
X38887100Y49431700D01*
X40132000Y36830000D02*
X38887100Y38074900D01*
X14605000Y10160000D02*
X15849900Y10160000D01*
X35238600Y24697600D02*
X37211000Y26670000D01*
X27786100Y24697600D02*
X35238600Y24697600D01*
X18440000Y15351500D02*
X27786100Y24697600D01*
X18440000Y9539300D02*
X18440000Y15351500D01*
X17652800Y8752100D02*
X18440000Y9539300D01*
X16635400Y8752100D02*
X17652800Y8752100D01*
X15849900Y9537600D02*
X16635400Y8752100D01*
X15849900Y10160000D02*
X15849900Y9537600D01*
X31369000Y40914700D02*
X31369000Y36830000D01*
X26398900Y45884800D02*
X31369000Y40914700D01*
X19837300Y45884800D02*
X26398900Y45884800D01*
X19024900Y45072400D02*
X19837300Y45884800D01*
X19024900Y44450000D02*
X19024900Y45072400D01*
X17780000Y44450000D02*
X19024900Y44450000D01*
G36*
X16606185Y16479515D02*
X16606185Y16479515D01*
X16441004Y16232305D01*
X16383000Y15940700D01*
X16383000Y11603312D01*
X16085330Y11404415D01*
X15875000Y11089634D01*
X15664670Y11404415D01*
X15178489Y11729271D01*
X14605000Y11843345D01*
X14031511Y11729271D01*
X13545330Y11404415D01*
X13338539Y11094931D01*
X12967036Y11510732D01*
X12439791Y11764709D01*
X12424026Y11767358D01*
X12192000Y11646217D01*
X12192000Y10287000D01*
X12212000Y10287000D01*
X12212000Y10033000D01*
X12192000Y10033000D01*
X12192000Y8673783D01*
X12424026Y8552642D01*
X12439791Y8555291D01*
X12967036Y8809268D01*
X13338539Y9225069D01*
X13545330Y8915585D01*
X14031511Y8590729D01*
X14605000Y8476655D01*
X15178489Y8590729D01*
X15502586Y8807284D01*
X16096585Y8213284D01*
X16244777Y8114266D01*
X16343795Y8048104D01*
X16635400Y7990100D01*
X17652800Y7990100D01*
X17944405Y8048104D01*
X18191615Y8213285D01*
X18543816Y8565486D01*
X18571760Y8546623D01*
X18821400Y8496560D01*
X20548600Y8496560D01*
X20738630Y8533430D01*
X23724932Y5547127D01*
X23705330Y5534029D01*
X23495000Y5219248D01*
X23284670Y5534029D01*
X22798489Y5858885D01*
X22225000Y5972959D01*
X21651511Y5858885D01*
X21165330Y5534029D01*
X20949336Y5210772D01*
X20891821Y5333490D01*
X20459947Y5727688D01*
X20044026Y5899958D01*
X19812000Y5778817D01*
X19812000Y4572000D01*
X19832000Y4572000D01*
X19832000Y4318000D01*
X19812000Y4318000D01*
X19812000Y2032000D01*
X19832000Y2032000D01*
X19832000Y1778000D01*
X19812000Y1778000D01*
X19812000Y1758000D01*
X19558000Y1758000D01*
X19558000Y1778000D01*
X18345150Y1778000D01*
X18186400Y1619250D01*
X18186400Y915091D01*
X18281707Y685000D01*
X13142042Y685000D01*
X13471385Y1040182D01*
X13670975Y1522056D01*
X13551836Y1778000D01*
X12192000Y1778000D01*
X12192000Y1758000D01*
X11938000Y1758000D01*
X11938000Y1778000D01*
X10578164Y1778000D01*
X10459025Y1522056D01*
X10658615Y1040182D01*
X10987958Y685000D01*
X6417467Y685000D01*
X4187235Y1128621D01*
X2353730Y2353730D01*
X1128621Y4187235D01*
X746470Y6108440D01*
X11049000Y6108440D01*
X10806877Y6061463D01*
X10594073Y5921673D01*
X10451623Y5710640D01*
X10401560Y5461000D01*
X10401560Y3429000D01*
X10448537Y3186877D01*
X10588327Y2974073D01*
X10748043Y2866262D01*
X10658615Y2769818D01*
X10459025Y2287944D01*
X10578164Y2032000D01*
X11938000Y2032000D01*
X11938000Y2052000D01*
X12192000Y2052000D01*
X12192000Y2032000D01*
X13551836Y2032000D01*
X13670975Y2287944D01*
X13471385Y2769818D01*
X13381425Y2866836D01*
X13535927Y2968327D01*
X13678377Y3179360D01*
X13728440Y3429000D01*
X13728440Y4318000D01*
X18350531Y4318000D01*
X18230032Y4085973D01*
X18478179Y3556510D01*
X18661119Y3389529D01*
X18461701Y3306927D01*
X18283073Y3128298D01*
X18186400Y2894909D01*
X18186400Y2190750D01*
X18345150Y2032000D01*
X19558000Y2032000D01*
X19558000Y4318000D01*
X18350531Y4318000D01*
X13728440Y4318000D01*
X13728440Y5461000D01*
X13681463Y5703123D01*
X13552163Y5899958D01*
X19325974Y5899958D01*
X18910053Y5727688D01*
X18478179Y5333490D01*
X18230032Y4804027D01*
X18350531Y4572000D01*
X19558000Y4572000D01*
X19558000Y5778817D01*
X19325974Y5899958D01*
X13552163Y5899958D01*
X13541673Y5915927D01*
X13330640Y6058377D01*
X13081000Y6108440D01*
X11049000Y6108440D01*
X746470Y6108440D01*
X685000Y6417467D01*
X685000Y15113000D01*
X1428750Y15113000D01*
X1270000Y14954250D01*
X1270000Y14250090D01*
X1366673Y14016701D01*
X1545302Y13838073D01*
X1698780Y13774500D01*
X1676585Y13759670D01*
X1351729Y13273489D01*
X1237655Y12700000D01*
X1351729Y12126511D01*
X1676585Y11640330D01*
X1991366Y11430000D01*
X1676585Y11219670D01*
X1351729Y10733489D01*
X1237655Y10160000D01*
X1351729Y9586511D01*
X1676585Y9100330D01*
X2162766Y8775474D01*
X2736255Y8661400D01*
X3105745Y8661400D01*
X3679234Y8775474D01*
X4165415Y9100330D01*
X4490271Y9586511D01*
X4579083Y10033000D01*
X10724076Y10033000D01*
X10579816Y9798087D01*
X10773046Y9245680D01*
X11162964Y8809268D01*
X11690209Y8555291D01*
X11705974Y8552642D01*
X11938000Y8673783D01*
X11938000Y10033000D01*
X10724076Y10033000D01*
X4579083Y10033000D01*
X4604345Y10160000D01*
X4490271Y10733489D01*
X4165415Y11219670D01*
X3850634Y11430000D01*
X4165415Y11640330D01*
X4250292Y11767358D01*
X11705974Y11767358D01*
X11690209Y11764709D01*
X11162964Y11510732D01*
X10773046Y11074320D01*
X10579816Y10521913D01*
X10724076Y10287000D01*
X11938000Y10287000D01*
X11938000Y11646217D01*
X11705974Y11767358D01*
X4250292Y11767358D01*
X4490271Y12126511D01*
X4604345Y12700000D01*
X4490271Y13273489D01*
X4165415Y13759670D01*
X4143220Y13774500D01*
X4296698Y13838073D01*
X4475327Y14016701D01*
X4572000Y14250090D01*
X4572000Y14954250D01*
X4413250Y15113000D01*
X3048000Y15113000D01*
X3048000Y15093000D01*
X2794000Y15093000D01*
X2794000Y15113000D01*
X1428750Y15113000D01*
X685000Y15113000D01*
X685000Y16738600D01*
X1778691Y16738600D01*
X1545302Y16641927D01*
X1366673Y16463299D01*
X1270000Y16229910D01*
X1270000Y15525750D01*
X1428750Y15367000D01*
X2794000Y15367000D01*
X2794000Y16579850D01*
X2635250Y16738600D01*
X3206750Y16738600D01*
X3048000Y16579850D01*
X3048000Y15367000D01*
X4413250Y15367000D01*
X4572000Y15525750D01*
X4572000Y16229910D01*
X4475327Y16463299D01*
X4296698Y16641927D01*
X4063309Y16738600D01*
X3206750Y16738600D01*
X2635250Y16738600D01*
X2635250Y16738600D01*
X1778691Y16738600D01*
X685000Y16738600D01*
X685000Y20270000D01*
X20320000Y20270000D01*
X20415706Y20289037D01*
X16606185Y16479515D01*
X16606185Y16479515D01*
G37*
X16606185Y16479515D02*
X16606185Y16479515D01*
X16441004Y16232305D01*
X16383000Y15940700D01*
X16383000Y11603312D01*
X16085330Y11404415D01*
X15875000Y11089634D01*
X15664670Y11404415D01*
X15178489Y11729271D01*
X14605000Y11843345D01*
X14031511Y11729271D01*
X13545330Y11404415D01*
X13338539Y11094931D01*
X12967036Y11510732D01*
X12439791Y11764709D01*
X12424026Y11767358D01*
X12192000Y11646217D01*
X12192000Y10287000D01*
X12212000Y10287000D01*
X12212000Y10033000D01*
X12192000Y10033000D01*
X12192000Y8673783D01*
X12424026Y8552642D01*
X12439791Y8555291D01*
X12967036Y8809268D01*
X13338539Y9225069D01*
X13545330Y8915585D01*
X14031511Y8590729D01*
X14605000Y8476655D01*
X15178489Y8590729D01*
X15502586Y8807284D01*
X16096585Y8213284D01*
X16244777Y8114266D01*
X16343795Y8048104D01*
X16635400Y7990100D01*
X17652800Y7990100D01*
X17944405Y8048104D01*
X18191615Y8213285D01*
X18543816Y8565486D01*
X18571760Y8546623D01*
X18821400Y8496560D01*
X20548600Y8496560D01*
X20738630Y8533430D01*
X23724932Y5547127D01*
X23705330Y5534029D01*
X23495000Y5219248D01*
X23284670Y5534029D01*
X22798489Y5858885D01*
X22225000Y5972959D01*
X21651511Y5858885D01*
X21165330Y5534029D01*
X20949336Y5210772D01*
X20891821Y5333490D01*
X20459947Y5727688D01*
X20044026Y5899958D01*
X19812000Y5778817D01*
X19812000Y4572000D01*
X19832000Y4572000D01*
X19832000Y4318000D01*
X19812000Y4318000D01*
X19812000Y2032000D01*
X19832000Y2032000D01*
X19832000Y1778000D01*
X19812000Y1778000D01*
X19812000Y1758000D01*
X19558000Y1758000D01*
X19558000Y1778000D01*
X18345150Y1778000D01*
X18186400Y1619250D01*
X18186400Y915091D01*
X18281707Y685000D01*
X13142042Y685000D01*
X13471385Y1040182D01*
X13670975Y1522056D01*
X13551836Y1778000D01*
X12192000Y1778000D01*
X12192000Y1758000D01*
X11938000Y1758000D01*
X11938000Y1778000D01*
X10578164Y1778000D01*
X10459025Y1522056D01*
X10658615Y1040182D01*
X10987958Y685000D01*
X6417467Y685000D01*
X4187235Y1128621D01*
X2353730Y2353730D01*
X1128621Y4187235D01*
X746470Y6108440D01*
X11049000Y6108440D01*
X10806877Y6061463D01*
X10594073Y5921673D01*
X10451623Y5710640D01*
X10401560Y5461000D01*
X10401560Y3429000D01*
X10448537Y3186877D01*
X10588327Y2974073D01*
X10748043Y2866262D01*
X10658615Y2769818D01*
X10459025Y2287944D01*
X10578164Y2032000D01*
X11938000Y2032000D01*
X11938000Y2052000D01*
X12192000Y2052000D01*
X12192000Y2032000D01*
X13551836Y2032000D01*
X13670975Y2287944D01*
X13471385Y2769818D01*
X13381425Y2866836D01*
X13535927Y2968327D01*
X13678377Y3179360D01*
X13728440Y3429000D01*
X13728440Y4318000D01*
X18350531Y4318000D01*
X18230032Y4085973D01*
X18478179Y3556510D01*
X18661119Y3389529D01*
X18461701Y3306927D01*
X18283073Y3128298D01*
X18186400Y2894909D01*
X18186400Y2190750D01*
X18345150Y2032000D01*
X19558000Y2032000D01*
X19558000Y4318000D01*
X18350531Y4318000D01*
X13728440Y4318000D01*
X13728440Y5461000D01*
X13681463Y5703123D01*
X13552163Y5899958D01*
X19325974Y5899958D01*
X18910053Y5727688D01*
X18478179Y5333490D01*
X18230032Y4804027D01*
X18350531Y4572000D01*
X19558000Y4572000D01*
X19558000Y5778817D01*
X19325974Y5899958D01*
X13552163Y5899958D01*
X13541673Y5915927D01*
X13330640Y6058377D01*
X13081000Y6108440D01*
X11049000Y6108440D01*
X746470Y6108440D01*
X685000Y6417467D01*
X685000Y15113000D01*
X1428750Y15113000D01*
X1270000Y14954250D01*
X1270000Y14250090D01*
X1366673Y14016701D01*
X1545302Y13838073D01*
X1698780Y13774500D01*
X1676585Y13759670D01*
X1351729Y13273489D01*
X1237655Y12700000D01*
X1351729Y12126511D01*
X1676585Y11640330D01*
X1991366Y11430000D01*
X1676585Y11219670D01*
X1351729Y10733489D01*
X1237655Y10160000D01*
X1351729Y9586511D01*
X1676585Y9100330D01*
X2162766Y8775474D01*
X2736255Y8661400D01*
X3105745Y8661400D01*
X3679234Y8775474D01*
X4165415Y9100330D01*
X4490271Y9586511D01*
X4579083Y10033000D01*
X10724076Y10033000D01*
X10579816Y9798087D01*
X10773046Y9245680D01*
X11162964Y8809268D01*
X11690209Y8555291D01*
X11705974Y8552642D01*
X11938000Y8673783D01*
X11938000Y10033000D01*
X10724076Y10033000D01*
X4579083Y10033000D01*
X4604345Y10160000D01*
X4490271Y10733489D01*
X4165415Y11219670D01*
X3850634Y11430000D01*
X4165415Y11640330D01*
X4250292Y11767358D01*
X11705974Y11767358D01*
X11690209Y11764709D01*
X11162964Y11510732D01*
X10773046Y11074320D01*
X10579816Y10521913D01*
X10724076Y10287000D01*
X11938000Y10287000D01*
X11938000Y11646217D01*
X11705974Y11767358D01*
X4250292Y11767358D01*
X4490271Y12126511D01*
X4604345Y12700000D01*
X4490271Y13273489D01*
X4165415Y13759670D01*
X4143220Y13774500D01*
X4296698Y13838073D01*
X4475327Y14016701D01*
X4572000Y14250090D01*
X4572000Y14954250D01*
X4413250Y15113000D01*
X3048000Y15113000D01*
X3048000Y15093000D01*
X2794000Y15093000D01*
X2794000Y15113000D01*
X1428750Y15113000D01*
X685000Y15113000D01*
X685000Y16738600D01*
X1778691Y16738600D01*
X1545302Y16641927D01*
X1366673Y16463299D01*
X1270000Y16229910D01*
X1270000Y15525750D01*
X1428750Y15367000D01*
X2794000Y15367000D01*
X2794000Y16579850D01*
X2635250Y16738600D01*
X3206750Y16738600D01*
X3048000Y16579850D01*
X3048000Y15367000D01*
X4413250Y15367000D01*
X4572000Y15525750D01*
X4572000Y16229910D01*
X4475327Y16463299D01*
X4296698Y16641927D01*
X4063309Y16738600D01*
X3206750Y16738600D01*
X2635250Y16738600D01*
X2635250Y16738600D01*
X1778691Y16738600D01*
X685000Y16738600D01*
X685000Y20270000D01*
X20320000Y20270000D01*
X20415706Y20289037D01*
X16606185Y16479515D01*
G36*
X78252805Y52998014D02*
X78252805Y52998014D01*
X82146397Y50396399D01*
X84748014Y46502805D01*
X85675000Y41842533D01*
X85675000Y12767467D01*
X84748014Y8107195D01*
X82146397Y4213601D01*
X78252805Y1611986D01*
X76927339Y1348334D01*
X77019968Y1545973D01*
X76899469Y1778000D01*
X75692000Y1778000D01*
X75692000Y1758000D01*
X75438000Y1758000D01*
X75438000Y1778000D01*
X73152000Y1778000D01*
X73152000Y1758000D01*
X72898000Y1758000D01*
X72898000Y1778000D01*
X72878000Y1778000D01*
X72878000Y2032000D01*
X72898000Y2032000D01*
X72898000Y4318000D01*
X73152000Y4318000D01*
X73152000Y2032000D01*
X75438000Y2032000D01*
X75438000Y4318000D01*
X75692000Y4318000D01*
X75692000Y2032000D01*
X76899469Y2032000D01*
X77019968Y2264027D01*
X76771821Y2793490D01*
X76353848Y3175000D01*
X76771821Y3556510D01*
X77019968Y4085973D01*
X76899469Y4318000D01*
X75692000Y4318000D01*
X75438000Y4318000D01*
X75438000Y4318000D01*
X73152000Y4318000D01*
X72898000Y4318000D01*
X72898000Y4318000D01*
X72878000Y4318000D01*
X72878000Y4572000D01*
X72898000Y4572000D01*
X72898000Y5778817D01*
X72665974Y5899958D01*
X73384026Y5899958D01*
X73152000Y5778817D01*
X73152000Y4572000D01*
X75438000Y4572000D01*
X75438000Y5778817D01*
X75205974Y5899958D01*
X75924026Y5899958D01*
X75692000Y5778817D01*
X75692000Y4572000D01*
X76899469Y4572000D01*
X77019968Y4804027D01*
X76771821Y5333490D01*
X76339947Y5727688D01*
X75924026Y5899958D01*
X75205974Y5899958D01*
X75205974Y5899958D01*
X74790053Y5727688D01*
X74358179Y5333490D01*
X74295000Y5198687D01*
X74231821Y5333490D01*
X73799947Y5727688D01*
X73384026Y5899958D01*
X72665974Y5899958D01*
X72665974Y5899958D01*
X72250053Y5727688D01*
X71818179Y5333490D01*
X71760664Y5210772D01*
X71544670Y5534029D01*
X71058489Y5858885D01*
X70485000Y5972959D01*
X69911511Y5858885D01*
X69596698Y5648533D01*
X67455115Y7790115D01*
X67455114Y7790116D01*
X67207905Y7955296D01*
X66916300Y8013300D01*
X66694431Y8013300D01*
X66031291Y8676440D01*
X66307036Y8809268D01*
X66678539Y9225069D01*
X66885330Y8915585D01*
X67371511Y8590729D01*
X67945000Y8476655D01*
X68518489Y8590729D01*
X69004670Y8915585D01*
X69015215Y8931367D01*
X69020937Y8901877D01*
X69160727Y8689073D01*
X69371760Y8546623D01*
X69621400Y8496560D01*
X71348600Y8496560D01*
X71590723Y8543537D01*
X71803527Y8683327D01*
X71945977Y8894360D01*
X71996040Y9144000D01*
X71996040Y11176000D01*
X71949063Y11418123D01*
X71809273Y11630927D01*
X71598240Y11773377D01*
X71348600Y11823440D01*
X69621400Y11823440D01*
X69379277Y11776463D01*
X69166473Y11636673D01*
X69024023Y11425640D01*
X69016282Y11387037D01*
X69004670Y11404415D01*
X68518489Y11729271D01*
X67945000Y11843345D01*
X67371511Y11729271D01*
X66885330Y11404415D01*
X66678539Y11094931D01*
X66307036Y11510732D01*
X65880046Y11716415D01*
X65943815Y11780184D01*
X66108996Y12027395D01*
X66128711Y12126511D01*
X66167000Y12319000D01*
X66167000Y17606688D01*
X66464670Y17805585D01*
X66675000Y18120366D01*
X66885330Y17805585D01*
X67371511Y17480729D01*
X67945000Y17366655D01*
X68518489Y17480729D01*
X69004670Y17805585D01*
X69211461Y18115069D01*
X69582964Y17699268D01*
X70110209Y17445291D01*
X70125974Y17442642D01*
X70358000Y17563783D01*
X70358000Y18923000D01*
X70338000Y18923000D01*
X70338000Y19177000D01*
X70358000Y19177000D01*
X70358000Y19197000D01*
X70612000Y19197000D01*
X70612000Y19177000D01*
X70632000Y19177000D01*
X70632000Y18923000D01*
X70612000Y18923000D01*
X70612000Y17563783D01*
X70844026Y17442642D01*
X70859791Y17445291D01*
X71387036Y17699268D01*
X71776954Y18135680D01*
X71904930Y18501540D01*
X77000385Y13406085D01*
X77076560Y13355186D01*
X77076560Y11836400D01*
X77123537Y11594277D01*
X77263327Y11381473D01*
X77474360Y11239023D01*
X77724000Y11188960D01*
X79756000Y11188960D01*
X79998123Y11235937D01*
X80210927Y11375727D01*
X80327816Y11548893D01*
X80677152Y11315474D01*
X81250641Y11201400D01*
X81309359Y11201400D01*
X81882848Y11315474D01*
X82354356Y11630526D01*
X82418073Y11476701D01*
X82596702Y11298073D01*
X82830091Y11201400D01*
X83534250Y11201400D01*
X83693000Y11360150D01*
X83693000Y12573000D01*
X83947000Y12573000D01*
X83947000Y11360150D01*
X84105750Y11201400D01*
X84809909Y11201400D01*
X85043298Y11298073D01*
X85221927Y11476701D01*
X85318600Y11710090D01*
X85318600Y12414250D01*
X85159850Y12573000D01*
X83947000Y12573000D01*
X83693000Y12573000D01*
X83693000Y12573000D01*
X83673000Y12573000D01*
X83673000Y12827000D01*
X83693000Y12827000D01*
X83693000Y15113000D01*
X83947000Y15113000D01*
X83947000Y12827000D01*
X85159850Y12827000D01*
X85318600Y12985750D01*
X85318600Y13689910D01*
X85221927Y13923299D01*
X85043298Y14101927D01*
X84845880Y14183700D01*
X85102688Y14465053D01*
X85274958Y14880974D01*
X85153817Y15113000D01*
X83947000Y15113000D01*
X83693000Y15113000D01*
X83693000Y15113000D01*
X83673000Y15113000D01*
X83673000Y15367000D01*
X83693000Y15367000D01*
X83693000Y17653000D01*
X83947000Y17653000D01*
X83947000Y15367000D01*
X85153817Y15367000D01*
X85274958Y15599026D01*
X85102688Y16014947D01*
X84708490Y16446821D01*
X84573687Y16510000D01*
X84708490Y16573179D01*
X85102688Y17005053D01*
X85274958Y17420974D01*
X85153817Y17653000D01*
X83947000Y17653000D01*
X83693000Y17653000D01*
X83693000Y17653000D01*
X83673000Y17653000D01*
X83673000Y17907000D01*
X83693000Y17907000D01*
X83693000Y20193000D01*
X83947000Y20193000D01*
X83947000Y17907000D01*
X85153817Y17907000D01*
X85274958Y18139026D01*
X85102688Y18554947D01*
X84708490Y18986821D01*
X84573687Y19050000D01*
X84708490Y19113179D01*
X85102688Y19545053D01*
X85274958Y19960974D01*
X85153817Y20193000D01*
X83947000Y20193000D01*
X83693000Y20193000D01*
X83693000Y20193000D01*
X83673000Y20193000D01*
X83673000Y20447000D01*
X83693000Y20447000D01*
X83693000Y22733000D01*
X83947000Y22733000D01*
X83947000Y20447000D01*
X85153817Y20447000D01*
X85274958Y20679026D01*
X85102688Y21094947D01*
X84708490Y21526821D01*
X84573687Y21590000D01*
X84708490Y21653179D01*
X85102688Y22085053D01*
X85274958Y22500974D01*
X85153817Y22733000D01*
X83947000Y22733000D01*
X83693000Y22733000D01*
X83693000Y22733000D01*
X83673000Y22733000D01*
X83673000Y22987000D01*
X83693000Y22987000D01*
X83693000Y25273000D01*
X83947000Y25273000D01*
X83947000Y22987000D01*
X85153817Y22987000D01*
X85274958Y23219026D01*
X85102688Y23634947D01*
X84708490Y24066821D01*
X84573687Y24130000D01*
X84708490Y24193179D01*
X85102688Y24625053D01*
X85274958Y25040974D01*
X85153817Y25273000D01*
X83947000Y25273000D01*
X83693000Y25273000D01*
X83693000Y25273000D01*
X83673000Y25273000D01*
X83673000Y25527000D01*
X83693000Y25527000D01*
X83693000Y27813000D01*
X83947000Y27813000D01*
X83947000Y25527000D01*
X85153817Y25527000D01*
X85274958Y25759026D01*
X85102688Y26174947D01*
X84708490Y26606821D01*
X84573687Y26670000D01*
X84708490Y26733179D01*
X85102688Y27165053D01*
X85274958Y27580974D01*
X85153817Y27813000D01*
X83947000Y27813000D01*
X83693000Y27813000D01*
X83693000Y27813000D01*
X83673000Y27813000D01*
X83673000Y28067000D01*
X83693000Y28067000D01*
X83693000Y30353000D01*
X83947000Y30353000D01*
X83947000Y28067000D01*
X85153817Y28067000D01*
X85274958Y28299026D01*
X85102688Y28714947D01*
X84708490Y29146821D01*
X84573687Y29210000D01*
X84708490Y29273179D01*
X85102688Y29705053D01*
X85274958Y30120974D01*
X85153817Y30353000D01*
X83947000Y30353000D01*
X83693000Y30353000D01*
X83693000Y30353000D01*
X83673000Y30353000D01*
X83673000Y30607000D01*
X83693000Y30607000D01*
X83693000Y32893000D01*
X83947000Y32893000D01*
X83947000Y30607000D01*
X85153817Y30607000D01*
X85274958Y30839026D01*
X85102688Y31254947D01*
X84708490Y31686821D01*
X84573687Y31750000D01*
X84708490Y31813179D01*
X85102688Y32245053D01*
X85274958Y32660974D01*
X85153817Y32893000D01*
X83947000Y32893000D01*
X83693000Y32893000D01*
X83693000Y32893000D01*
X83673000Y32893000D01*
X83673000Y33147000D01*
X83693000Y33147000D01*
X83693000Y35433000D01*
X83947000Y35433000D01*
X83947000Y33147000D01*
X85153817Y33147000D01*
X85274958Y33379026D01*
X85102688Y33794947D01*
X84708490Y34226821D01*
X84573687Y34290000D01*
X84708490Y34353179D01*
X85102688Y34785053D01*
X85274958Y35200974D01*
X85153817Y35433000D01*
X83947000Y35433000D01*
X83693000Y35433000D01*
X83693000Y35433000D01*
X83673000Y35433000D01*
X83673000Y35687000D01*
X83693000Y35687000D01*
X83693000Y37973000D01*
X83947000Y37973000D01*
X83947000Y35687000D01*
X85153817Y35687000D01*
X85274958Y35919026D01*
X85102688Y36334947D01*
X84708490Y36766821D01*
X84573687Y36830000D01*
X84708490Y36893179D01*
X85102688Y37325053D01*
X85274958Y37740974D01*
X85153817Y37973000D01*
X83947000Y37973000D01*
X83693000Y37973000D01*
X83693000Y37973000D01*
X83673000Y37973000D01*
X83673000Y38227000D01*
X83693000Y38227000D01*
X83693000Y40513000D01*
X83947000Y40513000D01*
X83947000Y38227000D01*
X85153817Y38227000D01*
X85274958Y38459026D01*
X85102688Y38874947D01*
X84708490Y39306821D01*
X84573687Y39370000D01*
X84708490Y39433179D01*
X85102688Y39865053D01*
X85274958Y40280974D01*
X85153817Y40513000D01*
X83947000Y40513000D01*
X83693000Y40513000D01*
X83693000Y40513000D01*
X83673000Y40513000D01*
X83673000Y40767000D01*
X83693000Y40767000D01*
X83693000Y41974469D01*
X83460973Y42094968D01*
X84179027Y42094968D01*
X83947000Y41974469D01*
X83947000Y40767000D01*
X85153817Y40767000D01*
X85274958Y40999026D01*
X85102688Y41414947D01*
X84708490Y41846821D01*
X84179027Y42094968D01*
X83460973Y42094968D01*
X83460973Y42094968D01*
X83287000Y42013431D01*
X83287000Y42062300D01*
X83228996Y42353905D01*
X83102742Y42542857D01*
X83063816Y42601115D01*
X80676115Y44988815D01*
X80598907Y45040404D01*
X80428905Y45153996D01*
X80190365Y45201445D01*
X79984415Y45509670D01*
X79669634Y45720000D01*
X79984415Y45930330D01*
X80309271Y46416511D01*
X80423345Y46990000D01*
X80309271Y47563489D01*
X79984415Y48049670D01*
X79962220Y48064500D01*
X80115698Y48128073D01*
X80294327Y48306701D01*
X80391000Y48540090D01*
X80391000Y49244250D01*
X80232250Y49403000D01*
X78867000Y49403000D01*
X78867000Y49383000D01*
X78613000Y49383000D01*
X78613000Y49403000D01*
X77247750Y49403000D01*
X77089000Y49244250D01*
X77089000Y48540090D01*
X77135924Y48426806D01*
X76541998Y49020732D01*
X76624670Y49075971D01*
X76949526Y49562152D01*
X77063600Y50135641D01*
X77063600Y50194359D01*
X76949526Y50767848D01*
X76775297Y51028600D01*
X77597691Y51028600D01*
X77364302Y50931927D01*
X77185673Y50753299D01*
X77089000Y50519910D01*
X77089000Y49815750D01*
X77247750Y49657000D01*
X78613000Y49657000D01*
X78613000Y50869850D01*
X78454250Y51028600D01*
X79025750Y51028600D01*
X78867000Y50869850D01*
X78867000Y49657000D01*
X80232250Y49657000D01*
X80391000Y49815750D01*
X80391000Y50519910D01*
X80294327Y50753299D01*
X80115698Y50931927D01*
X79882309Y51028600D01*
X79025750Y51028600D01*
X78454250Y51028600D01*
X78454250Y51028600D01*
X77597691Y51028600D01*
X76775297Y51028600D01*
X76624670Y51254029D01*
X76353828Y51435000D01*
X76624670Y51615971D01*
X76949526Y52102152D01*
X77063600Y52675641D01*
X77063600Y52734359D01*
X76960005Y53255168D01*
X78252805Y52998014D01*
X78252805Y52998014D01*
G37*
X78252805Y52998014D02*
X78252805Y52998014D01*
X82146397Y50396399D01*
X84748014Y46502805D01*
X85675000Y41842533D01*
X85675000Y12767467D01*
X84748014Y8107195D01*
X82146397Y4213601D01*
X78252805Y1611986D01*
X76927339Y1348334D01*
X77019968Y1545973D01*
X76899469Y1778000D01*
X75692000Y1778000D01*
X75692000Y1758000D01*
X75438000Y1758000D01*
X75438000Y1778000D01*
X73152000Y1778000D01*
X73152000Y1758000D01*
X72898000Y1758000D01*
X72898000Y1778000D01*
X72878000Y1778000D01*
X72878000Y2032000D01*
X72898000Y2032000D01*
X72898000Y4318000D01*
X73152000Y4318000D01*
X73152000Y2032000D01*
X75438000Y2032000D01*
X75438000Y4318000D01*
X75692000Y4318000D01*
X75692000Y2032000D01*
X76899469Y2032000D01*
X77019968Y2264027D01*
X76771821Y2793490D01*
X76353848Y3175000D01*
X76771821Y3556510D01*
X77019968Y4085973D01*
X76899469Y4318000D01*
X75692000Y4318000D01*
X75438000Y4318000D01*
X75438000Y4318000D01*
X73152000Y4318000D01*
X72898000Y4318000D01*
X72898000Y4318000D01*
X72878000Y4318000D01*
X72878000Y4572000D01*
X72898000Y4572000D01*
X72898000Y5778817D01*
X72665974Y5899958D01*
X73384026Y5899958D01*
X73152000Y5778817D01*
X73152000Y4572000D01*
X75438000Y4572000D01*
X75438000Y5778817D01*
X75205974Y5899958D01*
X75924026Y5899958D01*
X75692000Y5778817D01*
X75692000Y4572000D01*
X76899469Y4572000D01*
X77019968Y4804027D01*
X76771821Y5333490D01*
X76339947Y5727688D01*
X75924026Y5899958D01*
X75205974Y5899958D01*
X75205974Y5899958D01*
X74790053Y5727688D01*
X74358179Y5333490D01*
X74295000Y5198687D01*
X74231821Y5333490D01*
X73799947Y5727688D01*
X73384026Y5899958D01*
X72665974Y5899958D01*
X72665974Y5899958D01*
X72250053Y5727688D01*
X71818179Y5333490D01*
X71760664Y5210772D01*
X71544670Y5534029D01*
X71058489Y5858885D01*
X70485000Y5972959D01*
X69911511Y5858885D01*
X69596698Y5648533D01*
X67455115Y7790115D01*
X67455114Y7790116D01*
X67207905Y7955296D01*
X66916300Y8013300D01*
X66694431Y8013300D01*
X66031291Y8676440D01*
X66307036Y8809268D01*
X66678539Y9225069D01*
X66885330Y8915585D01*
X67371511Y8590729D01*
X67945000Y8476655D01*
X68518489Y8590729D01*
X69004670Y8915585D01*
X69015215Y8931367D01*
X69020937Y8901877D01*
X69160727Y8689073D01*
X69371760Y8546623D01*
X69621400Y8496560D01*
X71348600Y8496560D01*
X71590723Y8543537D01*
X71803527Y8683327D01*
X71945977Y8894360D01*
X71996040Y9144000D01*
X71996040Y11176000D01*
X71949063Y11418123D01*
X71809273Y11630927D01*
X71598240Y11773377D01*
X71348600Y11823440D01*
X69621400Y11823440D01*
X69379277Y11776463D01*
X69166473Y11636673D01*
X69024023Y11425640D01*
X69016282Y11387037D01*
X69004670Y11404415D01*
X68518489Y11729271D01*
X67945000Y11843345D01*
X67371511Y11729271D01*
X66885330Y11404415D01*
X66678539Y11094931D01*
X66307036Y11510732D01*
X65880046Y11716415D01*
X65943815Y11780184D01*
X66108996Y12027395D01*
X66128711Y12126511D01*
X66167000Y12319000D01*
X66167000Y17606688D01*
X66464670Y17805585D01*
X66675000Y18120366D01*
X66885330Y17805585D01*
X67371511Y17480729D01*
X67945000Y17366655D01*
X68518489Y17480729D01*
X69004670Y17805585D01*
X69211461Y18115069D01*
X69582964Y17699268D01*
X70110209Y17445291D01*
X70125974Y17442642D01*
X70358000Y17563783D01*
X70358000Y18923000D01*
X70338000Y18923000D01*
X70338000Y19177000D01*
X70358000Y19177000D01*
X70358000Y19197000D01*
X70612000Y19197000D01*
X70612000Y19177000D01*
X70632000Y19177000D01*
X70632000Y18923000D01*
X70612000Y18923000D01*
X70612000Y17563783D01*
X70844026Y17442642D01*
X70859791Y17445291D01*
X71387036Y17699268D01*
X71776954Y18135680D01*
X71904930Y18501540D01*
X77000385Y13406085D01*
X77076560Y13355186D01*
X77076560Y11836400D01*
X77123537Y11594277D01*
X77263327Y11381473D01*
X77474360Y11239023D01*
X77724000Y11188960D01*
X79756000Y11188960D01*
X79998123Y11235937D01*
X80210927Y11375727D01*
X80327816Y11548893D01*
X80677152Y11315474D01*
X81250641Y11201400D01*
X81309359Y11201400D01*
X81882848Y11315474D01*
X82354356Y11630526D01*
X82418073Y11476701D01*
X82596702Y11298073D01*
X82830091Y11201400D01*
X83534250Y11201400D01*
X83693000Y11360150D01*
X83693000Y12573000D01*
X83947000Y12573000D01*
X83947000Y11360150D01*
X84105750Y11201400D01*
X84809909Y11201400D01*
X85043298Y11298073D01*
X85221927Y11476701D01*
X85318600Y11710090D01*
X85318600Y12414250D01*
X85159850Y12573000D01*
X83947000Y12573000D01*
X83693000Y12573000D01*
X83693000Y12573000D01*
X83673000Y12573000D01*
X83673000Y12827000D01*
X83693000Y12827000D01*
X83693000Y15113000D01*
X83947000Y15113000D01*
X83947000Y12827000D01*
X85159850Y12827000D01*
X85318600Y12985750D01*
X85318600Y13689910D01*
X85221927Y13923299D01*
X85043298Y14101927D01*
X84845880Y14183700D01*
X85102688Y14465053D01*
X85274958Y14880974D01*
X85153817Y15113000D01*
X83947000Y15113000D01*
X83693000Y15113000D01*
X83693000Y15113000D01*
X83673000Y15113000D01*
X83673000Y15367000D01*
X83693000Y15367000D01*
X83693000Y17653000D01*
X83947000Y17653000D01*
X83947000Y15367000D01*
X85153817Y15367000D01*
X85274958Y15599026D01*
X85102688Y16014947D01*
X84708490Y16446821D01*
X84573687Y16510000D01*
X84708490Y16573179D01*
X85102688Y17005053D01*
X85274958Y17420974D01*
X85153817Y17653000D01*
X83947000Y17653000D01*
X83693000Y17653000D01*
X83693000Y17653000D01*
X83673000Y17653000D01*
X83673000Y17907000D01*
X83693000Y17907000D01*
X83693000Y20193000D01*
X83947000Y20193000D01*
X83947000Y17907000D01*
X85153817Y17907000D01*
X85274958Y18139026D01*
X85102688Y18554947D01*
X84708490Y18986821D01*
X84573687Y19050000D01*
X84708490Y19113179D01*
X85102688Y19545053D01*
X85274958Y19960974D01*
X85153817Y20193000D01*
X83947000Y20193000D01*
X83693000Y20193000D01*
X83693000Y20193000D01*
X83673000Y20193000D01*
X83673000Y20447000D01*
X83693000Y20447000D01*
X83693000Y22733000D01*
X83947000Y22733000D01*
X83947000Y20447000D01*
X85153817Y20447000D01*
X85274958Y20679026D01*
X85102688Y21094947D01*
X84708490Y21526821D01*
X84573687Y21590000D01*
X84708490Y21653179D01*
X85102688Y22085053D01*
X85274958Y22500974D01*
X85153817Y22733000D01*
X83947000Y22733000D01*
X83693000Y22733000D01*
X83693000Y22733000D01*
X83673000Y22733000D01*
X83673000Y22987000D01*
X83693000Y22987000D01*
X83693000Y25273000D01*
X83947000Y25273000D01*
X83947000Y22987000D01*
X85153817Y22987000D01*
X85274958Y23219026D01*
X85102688Y23634947D01*
X84708490Y24066821D01*
X84573687Y24130000D01*
X84708490Y24193179D01*
X85102688Y24625053D01*
X85274958Y25040974D01*
X85153817Y25273000D01*
X83947000Y25273000D01*
X83693000Y25273000D01*
X83693000Y25273000D01*
X83673000Y25273000D01*
X83673000Y25527000D01*
X83693000Y25527000D01*
X83693000Y27813000D01*
X83947000Y27813000D01*
X83947000Y25527000D01*
X85153817Y25527000D01*
X85274958Y25759026D01*
X85102688Y26174947D01*
X84708490Y26606821D01*
X84573687Y26670000D01*
X84708490Y26733179D01*
X85102688Y27165053D01*
X85274958Y27580974D01*
X85153817Y27813000D01*
X83947000Y27813000D01*
X83693000Y27813000D01*
X83693000Y27813000D01*
X83673000Y27813000D01*
X83673000Y28067000D01*
X83693000Y28067000D01*
X83693000Y30353000D01*
X83947000Y30353000D01*
X83947000Y28067000D01*
X85153817Y28067000D01*
X85274958Y28299026D01*
X85102688Y28714947D01*
X84708490Y29146821D01*
X84573687Y29210000D01*
X84708490Y29273179D01*
X85102688Y29705053D01*
X85274958Y30120974D01*
X85153817Y30353000D01*
X83947000Y30353000D01*
X83693000Y30353000D01*
X83693000Y30353000D01*
X83673000Y30353000D01*
X83673000Y30607000D01*
X83693000Y30607000D01*
X83693000Y32893000D01*
X83947000Y32893000D01*
X83947000Y30607000D01*
X85153817Y30607000D01*
X85274958Y30839026D01*
X85102688Y31254947D01*
X84708490Y31686821D01*
X84573687Y31750000D01*
X84708490Y31813179D01*
X85102688Y32245053D01*
X85274958Y32660974D01*
X85153817Y32893000D01*
X83947000Y32893000D01*
X83693000Y32893000D01*
X83693000Y32893000D01*
X83673000Y32893000D01*
X83673000Y33147000D01*
X83693000Y33147000D01*
X83693000Y35433000D01*
X83947000Y35433000D01*
X83947000Y33147000D01*
X85153817Y33147000D01*
X85274958Y33379026D01*
X85102688Y33794947D01*
X84708490Y34226821D01*
X84573687Y34290000D01*
X84708490Y34353179D01*
X85102688Y34785053D01*
X85274958Y35200974D01*
X85153817Y35433000D01*
X83947000Y35433000D01*
X83693000Y35433000D01*
X83693000Y35433000D01*
X83673000Y35433000D01*
X83673000Y35687000D01*
X83693000Y35687000D01*
X83693000Y37973000D01*
X83947000Y37973000D01*
X83947000Y35687000D01*
X85153817Y35687000D01*
X85274958Y35919026D01*
X85102688Y36334947D01*
X84708490Y36766821D01*
X84573687Y36830000D01*
X84708490Y36893179D01*
X85102688Y37325053D01*
X85274958Y37740974D01*
X85153817Y37973000D01*
X83947000Y37973000D01*
X83693000Y37973000D01*
X83693000Y37973000D01*
X83673000Y37973000D01*
X83673000Y38227000D01*
X83693000Y38227000D01*
X83693000Y40513000D01*
X83947000Y40513000D01*
X83947000Y38227000D01*
X85153817Y38227000D01*
X85274958Y38459026D01*
X85102688Y38874947D01*
X84708490Y39306821D01*
X84573687Y39370000D01*
X84708490Y39433179D01*
X85102688Y39865053D01*
X85274958Y40280974D01*
X85153817Y40513000D01*
X83947000Y40513000D01*
X83693000Y40513000D01*
X83693000Y40513000D01*
X83673000Y40513000D01*
X83673000Y40767000D01*
X83693000Y40767000D01*
X83693000Y41974469D01*
X83460973Y42094968D01*
X84179027Y42094968D01*
X83947000Y41974469D01*
X83947000Y40767000D01*
X85153817Y40767000D01*
X85274958Y40999026D01*
X85102688Y41414947D01*
X84708490Y41846821D01*
X84179027Y42094968D01*
X83460973Y42094968D01*
X83460973Y42094968D01*
X83287000Y42013431D01*
X83287000Y42062300D01*
X83228996Y42353905D01*
X83102742Y42542857D01*
X83063816Y42601115D01*
X80676115Y44988815D01*
X80598907Y45040404D01*
X80428905Y45153996D01*
X80190365Y45201445D01*
X79984415Y45509670D01*
X79669634Y45720000D01*
X79984415Y45930330D01*
X80309271Y46416511D01*
X80423345Y46990000D01*
X80309271Y47563489D01*
X79984415Y48049670D01*
X79962220Y48064500D01*
X80115698Y48128073D01*
X80294327Y48306701D01*
X80391000Y48540090D01*
X80391000Y49244250D01*
X80232250Y49403000D01*
X78867000Y49403000D01*
X78867000Y49383000D01*
X78613000Y49383000D01*
X78613000Y49403000D01*
X77247750Y49403000D01*
X77089000Y49244250D01*
X77089000Y48540090D01*
X77135924Y48426806D01*
X76541998Y49020732D01*
X76624670Y49075971D01*
X76949526Y49562152D01*
X77063600Y50135641D01*
X77063600Y50194359D01*
X76949526Y50767848D01*
X76775297Y51028600D01*
X77597691Y51028600D01*
X77364302Y50931927D01*
X77185673Y50753299D01*
X77089000Y50519910D01*
X77089000Y49815750D01*
X77247750Y49657000D01*
X78613000Y49657000D01*
X78613000Y50869850D01*
X78454250Y51028600D01*
X79025750Y51028600D01*
X78867000Y50869850D01*
X78867000Y49657000D01*
X80232250Y49657000D01*
X80391000Y49815750D01*
X80391000Y50519910D01*
X80294327Y50753299D01*
X80115698Y50931927D01*
X79882309Y51028600D01*
X79025750Y51028600D01*
X78454250Y51028600D01*
X78454250Y51028600D01*
X77597691Y51028600D01*
X76775297Y51028600D01*
X76624670Y51254029D01*
X76353828Y51435000D01*
X76624670Y51615971D01*
X76949526Y52102152D01*
X77063600Y52675641D01*
X77063600Y52734359D01*
X76960005Y53255168D01*
X78252805Y52998014D01*
G36*
X51645330Y49075971D02*
X51645330Y49075971D01*
X52131511Y48751115D01*
X52705000Y48637041D01*
X53278489Y48751115D01*
X53563150Y48941320D01*
X55763285Y46741185D01*
X56010495Y46576004D01*
X56302100Y46518000D01*
X58038470Y46518000D01*
X58871470Y45685000D01*
X58709691Y45685000D01*
X58476302Y45588327D01*
X58297673Y45409699D01*
X58201000Y45176310D01*
X58201000Y44735750D01*
X58359750Y44577000D01*
X59309000Y44577000D01*
X59309000Y44597000D01*
X59563000Y44597000D01*
X59563000Y44577000D01*
X59583000Y44577000D01*
X59583000Y44323000D01*
X59563000Y44323000D01*
X59563000Y43373750D01*
X59716500Y43220250D01*
X59716500Y38059750D01*
X59563000Y37906250D01*
X59563000Y36957000D01*
X59583000Y36957000D01*
X59583000Y36703000D01*
X59563000Y36703000D01*
X59563000Y35753750D01*
X59716500Y35600250D01*
X59716500Y28558800D01*
X59774504Y28267195D01*
X59908579Y28066538D01*
X59939685Y28019985D01*
X67166684Y20792985D01*
X67356038Y20666463D01*
X67413895Y20627804D01*
X67414152Y20627753D01*
X67371511Y20619271D01*
X66885330Y20294415D01*
X66675000Y19979634D01*
X66464670Y20294415D01*
X65978489Y20619271D01*
X65405000Y20733345D01*
X64831511Y20619271D01*
X64507654Y20402876D01*
X63920315Y20990215D01*
X63854032Y21034504D01*
X63673105Y21155396D01*
X63381500Y21213400D01*
X61726400Y21213400D01*
X61434795Y21155396D01*
X61253868Y21034504D01*
X61187585Y20990215D01*
X60830220Y20632850D01*
X60325000Y20733345D01*
X59751511Y20619271D01*
X59265330Y20294415D01*
X59058539Y19984931D01*
X58687036Y20400732D01*
X58159791Y20654709D01*
X58144026Y20657358D01*
X57912000Y20536217D01*
X57912000Y19177000D01*
X57932000Y19177000D01*
X57932000Y18923000D01*
X57912000Y18923000D01*
X57912000Y17563783D01*
X58144026Y17442642D01*
X58159791Y17445291D01*
X58687036Y17699268D01*
X59058539Y18115069D01*
X59265330Y17805585D01*
X59751511Y17480729D01*
X60140687Y17403317D01*
X58491085Y15753715D01*
X58325904Y15506505D01*
X58267900Y15214900D01*
X58267900Y11747290D01*
X57785000Y11843345D01*
X57211511Y11729271D01*
X56725330Y11404415D01*
X56515000Y11089634D01*
X56304670Y11404415D01*
X55818489Y11729271D01*
X55245000Y11843345D01*
X54671511Y11729271D01*
X54185330Y11404415D01*
X53860474Y10918234D01*
X53746400Y10344745D01*
X53746400Y9975255D01*
X53860474Y9401766D01*
X54185330Y8915585D01*
X54671511Y8590729D01*
X55060687Y8513317D01*
X53461285Y6913915D01*
X53296104Y6666705D01*
X53238100Y6375100D01*
X53238100Y6234431D01*
X53026900Y6445631D01*
X53026900Y16279162D01*
X53082679Y16334844D01*
X53229932Y16689468D01*
X53230267Y17073448D01*
X53083634Y17428327D01*
X52812356Y17700079D01*
X52457732Y17847332D01*
X52222000Y17847538D01*
X52222000Y34088070D01*
X53243815Y35109885D01*
X53268384Y35146655D01*
X53408996Y35357095D01*
X53460036Y35613688D01*
X53719698Y35787189D01*
X54030767Y36252736D01*
X54140000Y36801887D01*
X54140000Y36858113D01*
X54030767Y37407264D01*
X53719698Y37872811D01*
X53254151Y38183880D01*
X52705000Y38293113D01*
X52155849Y38183880D01*
X51690302Y37872811D01*
X51435000Y37490725D01*
X51179698Y37872811D01*
X50714151Y38183880D01*
X50165000Y38293113D01*
X50143087Y38288754D01*
X45300228Y43131612D01*
X45434039Y43058096D01*
X45822423Y43218959D01*
X46237389Y43594866D01*
X46340014Y43811703D01*
X46610302Y43407189D01*
X47075849Y43096120D01*
X47625000Y42986887D01*
X48174151Y43096120D01*
X48639698Y43407189D01*
X48895000Y43789275D01*
X49150302Y43407189D01*
X49615849Y43096120D01*
X50165000Y42986887D01*
X50714151Y43096120D01*
X51179698Y43407189D01*
X51435000Y43789275D01*
X51689000Y43409138D01*
X51689000Y43014700D01*
X51742669Y42744885D01*
X51766338Y42625893D01*
X51986580Y42296280D01*
X55920000Y38362859D01*
X55920000Y37560803D01*
X55889629Y37530485D01*
X55701215Y37076734D01*
X55701176Y37032017D01*
X54526580Y35857420D01*
X54306338Y35527807D01*
X54306338Y35527806D01*
X54229000Y35139000D01*
X54229000Y20683871D01*
X54139277Y20666463D01*
X53926473Y20526673D01*
X53784023Y20315640D01*
X53733960Y20066000D01*
X53733960Y18034000D01*
X53780937Y17791877D01*
X53920727Y17579073D01*
X54131760Y17436623D01*
X54229000Y17417122D01*
X54229000Y17398700D01*
X54288195Y17101104D01*
X54306338Y17009893D01*
X54526580Y16680280D01*
X54989000Y16217859D01*
X54989000Y14776757D01*
X54912990Y14593705D01*
X54912611Y14159201D01*
X55078538Y13757627D01*
X55385511Y13450118D01*
X55786795Y13283490D01*
X56221299Y13283111D01*
X56622873Y13449038D01*
X56930382Y13756011D01*
X57097010Y14157295D01*
X57097389Y14591799D01*
X57021000Y14776674D01*
X57021000Y16638700D01*
X56943662Y17027506D01*
X56824054Y17206511D01*
X56723420Y17357121D01*
X56529540Y17551001D01*
X56563527Y17573327D01*
X56705977Y17784360D01*
X56724484Y17876645D01*
X56882964Y17699268D01*
X57410209Y17445291D01*
X57425974Y17442642D01*
X57658000Y17563783D01*
X57658000Y18923000D01*
X57638000Y18923000D01*
X57638000Y19177000D01*
X57658000Y19177000D01*
X57658000Y20536217D01*
X57425974Y20657358D01*
X57410209Y20654709D01*
X56882964Y20400732D01*
X56725327Y20224298D01*
X56709063Y20308123D01*
X56569273Y20520927D01*
X56358240Y20663377D01*
X56261000Y20682878D01*
X56261000Y34718160D01*
X57137664Y35594823D01*
X57180579Y35594786D01*
X57634657Y35782408D01*
X57982371Y36129515D01*
X58170785Y36583266D01*
X58170889Y36703000D01*
X58359750Y36703000D01*
X58201000Y36544250D01*
X58201000Y36103690D01*
X58297673Y35870301D01*
X58476302Y35691673D01*
X58709691Y35595000D01*
X59150250Y35595000D01*
X59309000Y35753750D01*
X59309000Y36703000D01*
X58359750Y36703000D01*
X58170889Y36703000D01*
X58171214Y37074579D01*
X57983592Y37528657D01*
X57952000Y37560304D01*
X57952000Y38065000D01*
X58709691Y38065000D01*
X58476302Y37968327D01*
X58297673Y37789699D01*
X58201000Y37556310D01*
X58201000Y37115750D01*
X58359750Y36957000D01*
X59309000Y36957000D01*
X59309000Y37906250D01*
X59150250Y38065000D01*
X58709691Y38065000D01*
X57952000Y38065000D01*
X57952000Y38783700D01*
X57901285Y39038662D01*
X57874662Y39172507D01*
X57654421Y39502120D01*
X53731575Y43424965D01*
X54030767Y43872736D01*
X54140000Y44421887D01*
X54140000Y44478113D01*
X54030767Y45027264D01*
X53719698Y45492811D01*
X53431747Y45685214D01*
X56691421Y45685214D01*
X56237343Y45497592D01*
X55889629Y45150485D01*
X55701215Y44696734D01*
X55700786Y44205421D01*
X55888408Y43751343D01*
X56235515Y43403629D01*
X56689266Y43215215D01*
X57180579Y43214786D01*
X57634657Y43402408D01*
X57982371Y43749515D01*
X58170785Y44203266D01*
X58170889Y44323000D01*
X58359750Y44323000D01*
X58201000Y44164250D01*
X58201000Y43723690D01*
X58297673Y43490301D01*
X58476302Y43311673D01*
X58709691Y43215000D01*
X59150250Y43215000D01*
X59309000Y43373750D01*
X59309000Y44323000D01*
X58359750Y44323000D01*
X58170889Y44323000D01*
X58171214Y44694579D01*
X57983592Y45148657D01*
X57636485Y45496371D01*
X57182734Y45684785D01*
X56691421Y45685214D01*
X53431747Y45685214D01*
X53254151Y45803880D01*
X52705000Y45913113D01*
X52155849Y45803880D01*
X51690302Y45492811D01*
X51435000Y45110725D01*
X51179698Y45492811D01*
X50714151Y45803880D01*
X50165000Y45913113D01*
X49615849Y45803880D01*
X49150302Y45492811D01*
X48895000Y45110725D01*
X48639698Y45492811D01*
X48174151Y45803880D01*
X47625000Y45913113D01*
X47075849Y45803880D01*
X46610302Y45492811D01*
X46340014Y45088297D01*
X46237389Y45305134D01*
X45822423Y45681041D01*
X45434039Y45841904D01*
X45212000Y45719915D01*
X45212000Y44577000D01*
X45232000Y44577000D01*
X45232000Y44323000D01*
X45212000Y44323000D01*
X45212000Y44303000D01*
X44958000Y44303000D01*
X44958000Y44323000D01*
X44938000Y44323000D01*
X44938000Y44577000D01*
X44958000Y44577000D01*
X44958000Y45719915D01*
X44735961Y45841904D01*
X44347577Y45681041D01*
X43932611Y45305134D01*
X43693086Y44799041D01*
X43765656Y44666184D01*
X43263420Y45168420D01*
X42933807Y45388662D01*
X42828045Y45409699D01*
X42545000Y45466000D01*
X41643040Y45466000D01*
X41596063Y45708123D01*
X41456273Y45920927D01*
X41245240Y46063377D01*
X40995600Y46113440D01*
X39649100Y46113440D01*
X39649100Y48707834D01*
X40005000Y48637041D01*
X40578489Y48751115D01*
X41064670Y49075971D01*
X41275000Y49390752D01*
X41485330Y49075971D01*
X41971511Y48751115D01*
X42545000Y48637041D01*
X43118489Y48751115D01*
X43604670Y49075971D01*
X43815000Y49390752D01*
X44025330Y49075971D01*
X44511511Y48751115D01*
X45085000Y48637041D01*
X45658489Y48751115D01*
X46144670Y49075971D01*
X46355000Y49390752D01*
X46565330Y49075971D01*
X47051511Y48751115D01*
X47625000Y48637041D01*
X48198489Y48751115D01*
X48684670Y49075971D01*
X48895000Y49390752D01*
X49105330Y49075971D01*
X49591511Y48751115D01*
X50165000Y48637041D01*
X50738489Y48751115D01*
X51224670Y49075971D01*
X51435000Y49390752D01*
X51645330Y49075971D01*
X51645330Y49075971D01*
G37*
X51645330Y49075971D02*
X51645330Y49075971D01*
X52131511Y48751115D01*
X52705000Y48637041D01*
X53278489Y48751115D01*
X53563150Y48941320D01*
X55763285Y46741185D01*
X56010495Y46576004D01*
X56302100Y46518000D01*
X58038470Y46518000D01*
X58871470Y45685000D01*
X58709691Y45685000D01*
X58476302Y45588327D01*
X58297673Y45409699D01*
X58201000Y45176310D01*
X58201000Y44735750D01*
X58359750Y44577000D01*
X59309000Y44577000D01*
X59309000Y44597000D01*
X59563000Y44597000D01*
X59563000Y44577000D01*
X59583000Y44577000D01*
X59583000Y44323000D01*
X59563000Y44323000D01*
X59563000Y43373750D01*
X59716500Y43220250D01*
X59716500Y38059750D01*
X59563000Y37906250D01*
X59563000Y36957000D01*
X59583000Y36957000D01*
X59583000Y36703000D01*
X59563000Y36703000D01*
X59563000Y35753750D01*
X59716500Y35600250D01*
X59716500Y28558800D01*
X59774504Y28267195D01*
X59908579Y28066538D01*
X59939685Y28019985D01*
X67166684Y20792985D01*
X67356038Y20666463D01*
X67413895Y20627804D01*
X67414152Y20627753D01*
X67371511Y20619271D01*
X66885330Y20294415D01*
X66675000Y19979634D01*
X66464670Y20294415D01*
X65978489Y20619271D01*
X65405000Y20733345D01*
X64831511Y20619271D01*
X64507654Y20402876D01*
X63920315Y20990215D01*
X63854032Y21034504D01*
X63673105Y21155396D01*
X63381500Y21213400D01*
X61726400Y21213400D01*
X61434795Y21155396D01*
X61253868Y21034504D01*
X61187585Y20990215D01*
X60830220Y20632850D01*
X60325000Y20733345D01*
X59751511Y20619271D01*
X59265330Y20294415D01*
X59058539Y19984931D01*
X58687036Y20400732D01*
X58159791Y20654709D01*
X58144026Y20657358D01*
X57912000Y20536217D01*
X57912000Y19177000D01*
X57932000Y19177000D01*
X57932000Y18923000D01*
X57912000Y18923000D01*
X57912000Y17563783D01*
X58144026Y17442642D01*
X58159791Y17445291D01*
X58687036Y17699268D01*
X59058539Y18115069D01*
X59265330Y17805585D01*
X59751511Y17480729D01*
X60140687Y17403317D01*
X58491085Y15753715D01*
X58325904Y15506505D01*
X58267900Y15214900D01*
X58267900Y11747290D01*
X57785000Y11843345D01*
X57211511Y11729271D01*
X56725330Y11404415D01*
X56515000Y11089634D01*
X56304670Y11404415D01*
X55818489Y11729271D01*
X55245000Y11843345D01*
X54671511Y11729271D01*
X54185330Y11404415D01*
X53860474Y10918234D01*
X53746400Y10344745D01*
X53746400Y9975255D01*
X53860474Y9401766D01*
X54185330Y8915585D01*
X54671511Y8590729D01*
X55060687Y8513317D01*
X53461285Y6913915D01*
X53296104Y6666705D01*
X53238100Y6375100D01*
X53238100Y6234431D01*
X53026900Y6445631D01*
X53026900Y16279162D01*
X53082679Y16334844D01*
X53229932Y16689468D01*
X53230267Y17073448D01*
X53083634Y17428327D01*
X52812356Y17700079D01*
X52457732Y17847332D01*
X52222000Y17847538D01*
X52222000Y34088070D01*
X53243815Y35109885D01*
X53268384Y35146655D01*
X53408996Y35357095D01*
X53460036Y35613688D01*
X53719698Y35787189D01*
X54030767Y36252736D01*
X54140000Y36801887D01*
X54140000Y36858113D01*
X54030767Y37407264D01*
X53719698Y37872811D01*
X53254151Y38183880D01*
X52705000Y38293113D01*
X52155849Y38183880D01*
X51690302Y37872811D01*
X51435000Y37490725D01*
X51179698Y37872811D01*
X50714151Y38183880D01*
X50165000Y38293113D01*
X50143087Y38288754D01*
X45300228Y43131612D01*
X45434039Y43058096D01*
X45822423Y43218959D01*
X46237389Y43594866D01*
X46340014Y43811703D01*
X46610302Y43407189D01*
X47075849Y43096120D01*
X47625000Y42986887D01*
X48174151Y43096120D01*
X48639698Y43407189D01*
X48895000Y43789275D01*
X49150302Y43407189D01*
X49615849Y43096120D01*
X50165000Y42986887D01*
X50714151Y43096120D01*
X51179698Y43407189D01*
X51435000Y43789275D01*
X51689000Y43409138D01*
X51689000Y43014700D01*
X51742669Y42744885D01*
X51766338Y42625893D01*
X51986580Y42296280D01*
X55920000Y38362859D01*
X55920000Y37560803D01*
X55889629Y37530485D01*
X55701215Y37076734D01*
X55701176Y37032017D01*
X54526580Y35857420D01*
X54306338Y35527807D01*
X54306338Y35527806D01*
X54229000Y35139000D01*
X54229000Y20683871D01*
X54139277Y20666463D01*
X53926473Y20526673D01*
X53784023Y20315640D01*
X53733960Y20066000D01*
X53733960Y18034000D01*
X53780937Y17791877D01*
X53920727Y17579073D01*
X54131760Y17436623D01*
X54229000Y17417122D01*
X54229000Y17398700D01*
X54288195Y17101104D01*
X54306338Y17009893D01*
X54526580Y16680280D01*
X54989000Y16217859D01*
X54989000Y14776757D01*
X54912990Y14593705D01*
X54912611Y14159201D01*
X55078538Y13757627D01*
X55385511Y13450118D01*
X55786795Y13283490D01*
X56221299Y13283111D01*
X56622873Y13449038D01*
X56930382Y13756011D01*
X57097010Y14157295D01*
X57097389Y14591799D01*
X57021000Y14776674D01*
X57021000Y16638700D01*
X56943662Y17027506D01*
X56824054Y17206511D01*
X56723420Y17357121D01*
X56529540Y17551001D01*
X56563527Y17573327D01*
X56705977Y17784360D01*
X56724484Y17876645D01*
X56882964Y17699268D01*
X57410209Y17445291D01*
X57425974Y17442642D01*
X57658000Y17563783D01*
X57658000Y18923000D01*
X57638000Y18923000D01*
X57638000Y19177000D01*
X57658000Y19177000D01*
X57658000Y20536217D01*
X57425974Y20657358D01*
X57410209Y20654709D01*
X56882964Y20400732D01*
X56725327Y20224298D01*
X56709063Y20308123D01*
X56569273Y20520927D01*
X56358240Y20663377D01*
X56261000Y20682878D01*
X56261000Y34718160D01*
X57137664Y35594823D01*
X57180579Y35594786D01*
X57634657Y35782408D01*
X57982371Y36129515D01*
X58170785Y36583266D01*
X58170889Y36703000D01*
X58359750Y36703000D01*
X58201000Y36544250D01*
X58201000Y36103690D01*
X58297673Y35870301D01*
X58476302Y35691673D01*
X58709691Y35595000D01*
X59150250Y35595000D01*
X59309000Y35753750D01*
X59309000Y36703000D01*
X58359750Y36703000D01*
X58170889Y36703000D01*
X58171214Y37074579D01*
X57983592Y37528657D01*
X57952000Y37560304D01*
X57952000Y38065000D01*
X58709691Y38065000D01*
X58476302Y37968327D01*
X58297673Y37789699D01*
X58201000Y37556310D01*
X58201000Y37115750D01*
X58359750Y36957000D01*
X59309000Y36957000D01*
X59309000Y37906250D01*
X59150250Y38065000D01*
X58709691Y38065000D01*
X57952000Y38065000D01*
X57952000Y38783700D01*
X57901285Y39038662D01*
X57874662Y39172507D01*
X57654421Y39502120D01*
X53731575Y43424965D01*
X54030767Y43872736D01*
X54140000Y44421887D01*
X54140000Y44478113D01*
X54030767Y45027264D01*
X53719698Y45492811D01*
X53431747Y45685214D01*
X56691421Y45685214D01*
X56237343Y45497592D01*
X55889629Y45150485D01*
X55701215Y44696734D01*
X55700786Y44205421D01*
X55888408Y43751343D01*
X56235515Y43403629D01*
X56689266Y43215215D01*
X57180579Y43214786D01*
X57634657Y43402408D01*
X57982371Y43749515D01*
X58170785Y44203266D01*
X58170889Y44323000D01*
X58359750Y44323000D01*
X58201000Y44164250D01*
X58201000Y43723690D01*
X58297673Y43490301D01*
X58476302Y43311673D01*
X58709691Y43215000D01*
X59150250Y43215000D01*
X59309000Y43373750D01*
X59309000Y44323000D01*
X58359750Y44323000D01*
X58170889Y44323000D01*
X58171214Y44694579D01*
X57983592Y45148657D01*
X57636485Y45496371D01*
X57182734Y45684785D01*
X56691421Y45685214D01*
X53431747Y45685214D01*
X53254151Y45803880D01*
X52705000Y45913113D01*
X52155849Y45803880D01*
X51690302Y45492811D01*
X51435000Y45110725D01*
X51179698Y45492811D01*
X50714151Y45803880D01*
X50165000Y45913113D01*
X49615849Y45803880D01*
X49150302Y45492811D01*
X48895000Y45110725D01*
X48639698Y45492811D01*
X48174151Y45803880D01*
X47625000Y45913113D01*
X47075849Y45803880D01*
X46610302Y45492811D01*
X46340014Y45088297D01*
X46237389Y45305134D01*
X45822423Y45681041D01*
X45434039Y45841904D01*
X45212000Y45719915D01*
X45212000Y44577000D01*
X45232000Y44577000D01*
X45232000Y44323000D01*
X45212000Y44323000D01*
X45212000Y44303000D01*
X44958000Y44303000D01*
X44958000Y44323000D01*
X44938000Y44323000D01*
X44938000Y44577000D01*
X44958000Y44577000D01*
X44958000Y45719915D01*
X44735961Y45841904D01*
X44347577Y45681041D01*
X43932611Y45305134D01*
X43693086Y44799041D01*
X43765656Y44666184D01*
X43263420Y45168420D01*
X42933807Y45388662D01*
X42828045Y45409699D01*
X42545000Y45466000D01*
X41643040Y45466000D01*
X41596063Y45708123D01*
X41456273Y45920927D01*
X41245240Y46063377D01*
X40995600Y46113440D01*
X39649100Y46113440D01*
X39649100Y48707834D01*
X40005000Y48637041D01*
X40578489Y48751115D01*
X41064670Y49075971D01*
X41275000Y49390752D01*
X41485330Y49075971D01*
X41971511Y48751115D01*
X42545000Y48637041D01*
X43118489Y48751115D01*
X43604670Y49075971D01*
X43815000Y49390752D01*
X44025330Y49075971D01*
X44511511Y48751115D01*
X45085000Y48637041D01*
X45658489Y48751115D01*
X46144670Y49075971D01*
X46355000Y49390752D01*
X46565330Y49075971D01*
X47051511Y48751115D01*
X47625000Y48637041D01*
X48198489Y48751115D01*
X48684670Y49075971D01*
X48895000Y49390752D01*
X49105330Y49075971D01*
X49591511Y48751115D01*
X50165000Y48637041D01*
X50738489Y48751115D01*
X51224670Y49075971D01*
X51435000Y49390752D01*
X51645330Y49075971D01*
G36*
X35179000Y44577000D02*
X35179000Y44577000D01*
X35199000Y44577000D01*
X35199000Y44323000D01*
X35179000Y44323000D01*
X35179000Y42963783D01*
X35411026Y42842642D01*
X35426791Y42845291D01*
X35954036Y43099268D01*
X36325539Y43515069D01*
X36532330Y43205585D01*
X37018511Y42880729D01*
X37592000Y42766655D01*
X38125100Y42872695D01*
X38125100Y38140344D01*
X38084958Y38248965D01*
X37475418Y38475401D01*
X36825623Y38451341D01*
X36337042Y38248965D01*
X36238443Y37982163D01*
X37211000Y37009605D01*
X37225142Y37023748D01*
X37404748Y36844142D01*
X37390605Y36830000D01*
X38363163Y35857443D01*
X38629965Y35956042D01*
X38674763Y36076633D01*
X38745538Y35905345D01*
X39204927Y35445154D01*
X39805453Y35195794D01*
X40455694Y35195226D01*
X41056655Y35443538D01*
X41516846Y35902927D01*
X41766206Y36503453D01*
X41766774Y37153694D01*
X41518462Y37754655D01*
X41059073Y38214846D01*
X40458547Y38464206D01*
X39808306Y38464774D01*
X39649100Y38398991D01*
X39649100Y42786560D01*
X40995600Y42786560D01*
X41237723Y42833537D01*
X41450527Y42973327D01*
X41592977Y43184360D01*
X41643040Y43434000D01*
X42124160Y43434000D01*
X47409771Y38148388D01*
X47275961Y38221904D01*
X46887577Y38061041D01*
X46472611Y37685134D01*
X46369986Y37468297D01*
X46099698Y37872811D01*
X45634151Y38183880D01*
X45085000Y38293113D01*
X44535849Y38183880D01*
X44070302Y37872811D01*
X43759233Y37407264D01*
X43650000Y36858113D01*
X43650000Y36801887D01*
X43737315Y36362924D01*
X43685895Y36352696D01*
X43447066Y36193115D01*
X43438685Y36187515D01*
X42066685Y34815515D01*
X41901504Y34568305D01*
X41843500Y34276700D01*
X41843500Y27057400D01*
X41901504Y26765795D01*
X42042826Y26554293D01*
X42066685Y26518585D01*
X47947159Y20638110D01*
X47752000Y20536217D01*
X47752000Y19177000D01*
X47772000Y19177000D01*
X47772000Y18923000D01*
X47752000Y18923000D01*
X47752000Y17563783D01*
X47984026Y17442642D01*
X47999791Y17445291D01*
X48158000Y17521501D01*
X48158000Y11737325D01*
X47625000Y11843345D01*
X47051511Y11729271D01*
X46565330Y11404415D01*
X46358539Y11094931D01*
X45987036Y11510732D01*
X45459791Y11764709D01*
X45444026Y11767358D01*
X45212000Y11646217D01*
X45212000Y10287000D01*
X45232000Y10287000D01*
X45232000Y10033000D01*
X45212000Y10033000D01*
X45212000Y10013000D01*
X44958000Y10013000D01*
X44958000Y10033000D01*
X44938000Y10033000D01*
X44938000Y10287000D01*
X44958000Y10287000D01*
X44958000Y11646217D01*
X44725974Y11767358D01*
X44710209Y11764709D01*
X44551900Y11688451D01*
X44551900Y17472695D01*
X45085000Y17366655D01*
X45658489Y17480729D01*
X46144670Y17805585D01*
X46351461Y18115069D01*
X46722964Y17699268D01*
X47250209Y17445291D01*
X47265974Y17442642D01*
X47498000Y17563783D01*
X47498000Y18923000D01*
X47478000Y18923000D01*
X47478000Y19177000D01*
X47498000Y19177000D01*
X47498000Y20536217D01*
X47265974Y20657358D01*
X47250209Y20654709D01*
X46722964Y20400732D01*
X46351461Y19984931D01*
X46144670Y20294415D01*
X45658489Y20619271D01*
X45085000Y20733345D01*
X44511511Y20619271D01*
X44025330Y20294415D01*
X43815000Y19979634D01*
X43604670Y20294415D01*
X43118489Y20619271D01*
X42545000Y20733345D01*
X41971511Y20619271D01*
X41485330Y20294415D01*
X41275000Y19979634D01*
X41064670Y20294415D01*
X40578489Y20619271D01*
X40005000Y20733345D01*
X39431511Y20619271D01*
X38945330Y20294415D01*
X38735000Y19979634D01*
X38524670Y20294415D01*
X38038489Y20619271D01*
X37465000Y20733345D01*
X36891511Y20619271D01*
X36405330Y20294415D01*
X36195000Y19979634D01*
X35984670Y20294415D01*
X35498489Y20619271D01*
X34925000Y20733345D01*
X34351511Y20619271D01*
X33865330Y20294415D01*
X33655000Y19979634D01*
X33444670Y20294415D01*
X32958489Y20619271D01*
X32385000Y20733345D01*
X31811511Y20619271D01*
X31325330Y20294415D01*
X31115000Y19979634D01*
X30904670Y20294415D01*
X30418489Y20619271D01*
X29845000Y20733345D01*
X29271511Y20619271D01*
X28785330Y20294415D01*
X28578539Y19984931D01*
X28207036Y20400732D01*
X27679791Y20654709D01*
X27664026Y20657358D01*
X27432000Y20536217D01*
X27432000Y19177000D01*
X27452000Y19177000D01*
X27452000Y18923000D01*
X27432000Y18923000D01*
X27432000Y17563783D01*
X27664026Y17442642D01*
X27679791Y17445291D01*
X28207036Y17699268D01*
X28578539Y18115069D01*
X28785330Y17805585D01*
X29271511Y17480729D01*
X29845000Y17366655D01*
X30418489Y17480729D01*
X30904670Y17805585D01*
X31115000Y18120366D01*
X31325330Y17805585D01*
X31811511Y17480729D01*
X32385000Y17366655D01*
X32958489Y17480729D01*
X33444670Y17805585D01*
X33655000Y18120366D01*
X33865330Y17805585D01*
X34351511Y17480729D01*
X34925000Y17366655D01*
X35498489Y17480729D01*
X35984670Y17805585D01*
X36195000Y18120366D01*
X36405330Y17805585D01*
X36891511Y17480729D01*
X37465000Y17366655D01*
X38038489Y17480729D01*
X38524670Y17805585D01*
X38735000Y18120366D01*
X38945330Y17805585D01*
X39431511Y17480729D01*
X40005000Y17366655D01*
X40578489Y17480729D01*
X41064670Y17805585D01*
X41275000Y18120366D01*
X41485330Y17805585D01*
X41971511Y17480729D01*
X42545000Y17366655D01*
X43027900Y17462710D01*
X43027900Y11747290D01*
X42545000Y11843345D01*
X41971511Y11729271D01*
X41485330Y11404415D01*
X41275000Y11089634D01*
X41064670Y11404415D01*
X40578489Y11729271D01*
X40005000Y11843345D01*
X39431511Y11729271D01*
X38945330Y11404415D01*
X38620474Y10918234D01*
X38615502Y10893238D01*
X38468495Y10863996D01*
X38369477Y10797834D01*
X38221285Y10698816D01*
X36321895Y8799426D01*
X36385977Y8894360D01*
X36436040Y9144000D01*
X36436040Y11176000D01*
X36389063Y11418123D01*
X36249273Y11630927D01*
X36038240Y11773377D01*
X35788600Y11823440D01*
X34061400Y11823440D01*
X33819277Y11776463D01*
X33606473Y11636673D01*
X33464023Y11425640D01*
X33456282Y11387037D01*
X33444670Y11404415D01*
X32958489Y11729271D01*
X32385000Y11843345D01*
X31811511Y11729271D01*
X31325330Y11404415D01*
X31118539Y11094931D01*
X30747036Y11510732D01*
X30219791Y11764709D01*
X30204026Y11767358D01*
X29972000Y11646217D01*
X29972000Y10287000D01*
X29992000Y10287000D01*
X29992000Y10033000D01*
X29972000Y10033000D01*
X29972000Y10013000D01*
X29718000Y10013000D01*
X29718000Y10033000D01*
X29698000Y10033000D01*
X29698000Y10287000D01*
X29718000Y10287000D01*
X29718000Y11646217D01*
X29485974Y11767358D01*
X29470209Y11764709D01*
X28942964Y11510732D01*
X28571461Y11094931D01*
X28364670Y11404415D01*
X27878489Y11729271D01*
X27305000Y11843345D01*
X26731511Y11729271D01*
X26245330Y11404415D01*
X26035000Y11089634D01*
X25824670Y11404415D01*
X25338489Y11729271D01*
X24765000Y11843345D01*
X24282100Y11747290D01*
X24282100Y17386560D01*
X25628600Y17386560D01*
X25870723Y17433537D01*
X26083527Y17573327D01*
X26225977Y17784360D01*
X26244484Y17876645D01*
X26402964Y17699268D01*
X26930209Y17445291D01*
X26945974Y17442642D01*
X27178000Y17563783D01*
X27178000Y18923000D01*
X27158000Y18923000D01*
X27158000Y19177000D01*
X27178000Y19177000D01*
X27178000Y20536217D01*
X26945974Y20657358D01*
X26930209Y20654709D01*
X26402964Y20400732D01*
X26245327Y20224298D01*
X26229063Y20308123D01*
X26089273Y20520927D01*
X25878240Y20663377D01*
X25628600Y20713440D01*
X24879571Y20713440D01*
X28101731Y23935600D01*
X35238600Y23935600D01*
X35530205Y23993604D01*
X35777415Y24158785D01*
X36721915Y25103285D01*
X36884453Y25035794D01*
X37534694Y25035226D01*
X38135655Y25283538D01*
X38595846Y25742927D01*
X38671377Y25924827D01*
X38745538Y25745345D01*
X39204927Y25285154D01*
X39805453Y25035794D01*
X40455694Y25035226D01*
X41056655Y25283538D01*
X41516846Y25742927D01*
X41766206Y26343453D01*
X41766774Y26993694D01*
X41518462Y27594655D01*
X41059073Y28054846D01*
X40458547Y28304206D01*
X39808306Y28304774D01*
X39207345Y28056462D01*
X38747154Y27597073D01*
X38671623Y27415173D01*
X38597462Y27594655D01*
X38138073Y28054846D01*
X37537547Y28304206D01*
X36887306Y28304774D01*
X36286345Y28056462D01*
X35826154Y27597073D01*
X35750623Y27415173D01*
X35676462Y27594655D01*
X35217073Y28054846D01*
X34616547Y28304206D01*
X33966306Y28304774D01*
X33801113Y28236517D01*
X33591500Y28446130D01*
X33591500Y35345855D01*
X34025582Y35184599D01*
X34675377Y35208659D01*
X35163958Y35411035D01*
X35262557Y35677837D01*
X34290000Y36650395D01*
X34275858Y36636252D01*
X34096252Y36815858D01*
X34110395Y36830000D01*
X34096252Y36844142D01*
X34275858Y37023748D01*
X34290000Y37009605D01*
X35082951Y37802557D01*
X35442163Y37802557D01*
X34469605Y36830000D01*
X35442163Y35857443D01*
X35708965Y35956042D01*
X35748241Y36061770D01*
X35792035Y35956042D01*
X36058837Y35857443D01*
X36851789Y36650395D01*
X37211000Y36650395D01*
X36238443Y35677837D01*
X36337042Y35411035D01*
X36946582Y35184599D01*
X37596377Y35208659D01*
X38084958Y35411035D01*
X38183557Y35677837D01*
X37211000Y36650395D01*
X36851789Y36650395D01*
X37031395Y36830000D01*
X36058837Y37802557D01*
X35792035Y37703958D01*
X35752759Y37598230D01*
X35708965Y37703958D01*
X35442163Y37802557D01*
X35082951Y37802557D01*
X35262557Y37982163D01*
X35163958Y38248965D01*
X34554418Y38475401D01*
X33904623Y38451341D01*
X33591500Y38321642D01*
X33591500Y40263100D01*
X33533496Y40554705D01*
X33368315Y40801915D01*
X32004000Y42166230D01*
X32004000Y42867702D01*
X32512000Y42766655D01*
X33085489Y42880729D01*
X33571670Y43205585D01*
X33778461Y43515069D01*
X34149964Y43099268D01*
X34677209Y42845291D01*
X34692974Y42842642D01*
X34925000Y42963783D01*
X34925000Y44323000D01*
X34905000Y44323000D01*
X34905000Y44577000D01*
X34925000Y44577000D01*
X34925000Y44597000D01*
X35179000Y44597000D01*
X35179000Y44577000D01*
X35179000Y44577000D01*
G37*
X35179000Y44577000D02*
X35179000Y44577000D01*
X35199000Y44577000D01*
X35199000Y44323000D01*
X35179000Y44323000D01*
X35179000Y42963783D01*
X35411026Y42842642D01*
X35426791Y42845291D01*
X35954036Y43099268D01*
X36325539Y43515069D01*
X36532330Y43205585D01*
X37018511Y42880729D01*
X37592000Y42766655D01*
X38125100Y42872695D01*
X38125100Y38140344D01*
X38084958Y38248965D01*
X37475418Y38475401D01*
X36825623Y38451341D01*
X36337042Y38248965D01*
X36238443Y37982163D01*
X37211000Y37009605D01*
X37225142Y37023748D01*
X37404748Y36844142D01*
X37390605Y36830000D01*
X38363163Y35857443D01*
X38629965Y35956042D01*
X38674763Y36076633D01*
X38745538Y35905345D01*
X39204927Y35445154D01*
X39805453Y35195794D01*
X40455694Y35195226D01*
X41056655Y35443538D01*
X41516846Y35902927D01*
X41766206Y36503453D01*
X41766774Y37153694D01*
X41518462Y37754655D01*
X41059073Y38214846D01*
X40458547Y38464206D01*
X39808306Y38464774D01*
X39649100Y38398991D01*
X39649100Y42786560D01*
X40995600Y42786560D01*
X41237723Y42833537D01*
X41450527Y42973327D01*
X41592977Y43184360D01*
X41643040Y43434000D01*
X42124160Y43434000D01*
X47409771Y38148388D01*
X47275961Y38221904D01*
X46887577Y38061041D01*
X46472611Y37685134D01*
X46369986Y37468297D01*
X46099698Y37872811D01*
X45634151Y38183880D01*
X45085000Y38293113D01*
X44535849Y38183880D01*
X44070302Y37872811D01*
X43759233Y37407264D01*
X43650000Y36858113D01*
X43650000Y36801887D01*
X43737315Y36362924D01*
X43685895Y36352696D01*
X43447066Y36193115D01*
X43438685Y36187515D01*
X42066685Y34815515D01*
X41901504Y34568305D01*
X41843500Y34276700D01*
X41843500Y27057400D01*
X41901504Y26765795D01*
X42042826Y26554293D01*
X42066685Y26518585D01*
X47947159Y20638110D01*
X47752000Y20536217D01*
X47752000Y19177000D01*
X47772000Y19177000D01*
X47772000Y18923000D01*
X47752000Y18923000D01*
X47752000Y17563783D01*
X47984026Y17442642D01*
X47999791Y17445291D01*
X48158000Y17521501D01*
X48158000Y11737325D01*
X47625000Y11843345D01*
X47051511Y11729271D01*
X46565330Y11404415D01*
X46358539Y11094931D01*
X45987036Y11510732D01*
X45459791Y11764709D01*
X45444026Y11767358D01*
X45212000Y11646217D01*
X45212000Y10287000D01*
X45232000Y10287000D01*
X45232000Y10033000D01*
X45212000Y10033000D01*
X45212000Y10013000D01*
X44958000Y10013000D01*
X44958000Y10033000D01*
X44938000Y10033000D01*
X44938000Y10287000D01*
X44958000Y10287000D01*
X44958000Y11646217D01*
X44725974Y11767358D01*
X44710209Y11764709D01*
X44551900Y11688451D01*
X44551900Y17472695D01*
X45085000Y17366655D01*
X45658489Y17480729D01*
X46144670Y17805585D01*
X46351461Y18115069D01*
X46722964Y17699268D01*
X47250209Y17445291D01*
X47265974Y17442642D01*
X47498000Y17563783D01*
X47498000Y18923000D01*
X47478000Y18923000D01*
X47478000Y19177000D01*
X47498000Y19177000D01*
X47498000Y20536217D01*
X47265974Y20657358D01*
X47250209Y20654709D01*
X46722964Y20400732D01*
X46351461Y19984931D01*
X46144670Y20294415D01*
X45658489Y20619271D01*
X45085000Y20733345D01*
X44511511Y20619271D01*
X44025330Y20294415D01*
X43815000Y19979634D01*
X43604670Y20294415D01*
X43118489Y20619271D01*
X42545000Y20733345D01*
X41971511Y20619271D01*
X41485330Y20294415D01*
X41275000Y19979634D01*
X41064670Y20294415D01*
X40578489Y20619271D01*
X40005000Y20733345D01*
X39431511Y20619271D01*
X38945330Y20294415D01*
X38735000Y19979634D01*
X38524670Y20294415D01*
X38038489Y20619271D01*
X37465000Y20733345D01*
X36891511Y20619271D01*
X36405330Y20294415D01*
X36195000Y19979634D01*
X35984670Y20294415D01*
X35498489Y20619271D01*
X34925000Y20733345D01*
X34351511Y20619271D01*
X33865330Y20294415D01*
X33655000Y19979634D01*
X33444670Y20294415D01*
X32958489Y20619271D01*
X32385000Y20733345D01*
X31811511Y20619271D01*
X31325330Y20294415D01*
X31115000Y19979634D01*
X30904670Y20294415D01*
X30418489Y20619271D01*
X29845000Y20733345D01*
X29271511Y20619271D01*
X28785330Y20294415D01*
X28578539Y19984931D01*
X28207036Y20400732D01*
X27679791Y20654709D01*
X27664026Y20657358D01*
X27432000Y20536217D01*
X27432000Y19177000D01*
X27452000Y19177000D01*
X27452000Y18923000D01*
X27432000Y18923000D01*
X27432000Y17563783D01*
X27664026Y17442642D01*
X27679791Y17445291D01*
X28207036Y17699268D01*
X28578539Y18115069D01*
X28785330Y17805585D01*
X29271511Y17480729D01*
X29845000Y17366655D01*
X30418489Y17480729D01*
X30904670Y17805585D01*
X31115000Y18120366D01*
X31325330Y17805585D01*
X31811511Y17480729D01*
X32385000Y17366655D01*
X32958489Y17480729D01*
X33444670Y17805585D01*
X33655000Y18120366D01*
X33865330Y17805585D01*
X34351511Y17480729D01*
X34925000Y17366655D01*
X35498489Y17480729D01*
X35984670Y17805585D01*
X36195000Y18120366D01*
X36405330Y17805585D01*
X36891511Y17480729D01*
X37465000Y17366655D01*
X38038489Y17480729D01*
X38524670Y17805585D01*
X38735000Y18120366D01*
X38945330Y17805585D01*
X39431511Y17480729D01*
X40005000Y17366655D01*
X40578489Y17480729D01*
X41064670Y17805585D01*
X41275000Y18120366D01*
X41485330Y17805585D01*
X41971511Y17480729D01*
X42545000Y17366655D01*
X43027900Y17462710D01*
X43027900Y11747290D01*
X42545000Y11843345D01*
X41971511Y11729271D01*
X41485330Y11404415D01*
X41275000Y11089634D01*
X41064670Y11404415D01*
X40578489Y11729271D01*
X40005000Y11843345D01*
X39431511Y11729271D01*
X38945330Y11404415D01*
X38620474Y10918234D01*
X38615502Y10893238D01*
X38468495Y10863996D01*
X38369477Y10797834D01*
X38221285Y10698816D01*
X36321895Y8799426D01*
X36385977Y8894360D01*
X36436040Y9144000D01*
X36436040Y11176000D01*
X36389063Y11418123D01*
X36249273Y11630927D01*
X36038240Y11773377D01*
X35788600Y11823440D01*
X34061400Y11823440D01*
X33819277Y11776463D01*
X33606473Y11636673D01*
X33464023Y11425640D01*
X33456282Y11387037D01*
X33444670Y11404415D01*
X32958489Y11729271D01*
X32385000Y11843345D01*
X31811511Y11729271D01*
X31325330Y11404415D01*
X31118539Y11094931D01*
X30747036Y11510732D01*
X30219791Y11764709D01*
X30204026Y11767358D01*
X29972000Y11646217D01*
X29972000Y10287000D01*
X29992000Y10287000D01*
X29992000Y10033000D01*
X29972000Y10033000D01*
X29972000Y10013000D01*
X29718000Y10013000D01*
X29718000Y10033000D01*
X29698000Y10033000D01*
X29698000Y10287000D01*
X29718000Y10287000D01*
X29718000Y11646217D01*
X29485974Y11767358D01*
X29470209Y11764709D01*
X28942964Y11510732D01*
X28571461Y11094931D01*
X28364670Y11404415D01*
X27878489Y11729271D01*
X27305000Y11843345D01*
X26731511Y11729271D01*
X26245330Y11404415D01*
X26035000Y11089634D01*
X25824670Y11404415D01*
X25338489Y11729271D01*
X24765000Y11843345D01*
X24282100Y11747290D01*
X24282100Y17386560D01*
X25628600Y17386560D01*
X25870723Y17433537D01*
X26083527Y17573327D01*
X26225977Y17784360D01*
X26244484Y17876645D01*
X26402964Y17699268D01*
X26930209Y17445291D01*
X26945974Y17442642D01*
X27178000Y17563783D01*
X27178000Y18923000D01*
X27158000Y18923000D01*
X27158000Y19177000D01*
X27178000Y19177000D01*
X27178000Y20536217D01*
X26945974Y20657358D01*
X26930209Y20654709D01*
X26402964Y20400732D01*
X26245327Y20224298D01*
X26229063Y20308123D01*
X26089273Y20520927D01*
X25878240Y20663377D01*
X25628600Y20713440D01*
X24879571Y20713440D01*
X28101731Y23935600D01*
X35238600Y23935600D01*
X35530205Y23993604D01*
X35777415Y24158785D01*
X36721915Y25103285D01*
X36884453Y25035794D01*
X37534694Y25035226D01*
X38135655Y25283538D01*
X38595846Y25742927D01*
X38671377Y25924827D01*
X38745538Y25745345D01*
X39204927Y25285154D01*
X39805453Y25035794D01*
X40455694Y25035226D01*
X41056655Y25283538D01*
X41516846Y25742927D01*
X41766206Y26343453D01*
X41766774Y26993694D01*
X41518462Y27594655D01*
X41059073Y28054846D01*
X40458547Y28304206D01*
X39808306Y28304774D01*
X39207345Y28056462D01*
X38747154Y27597073D01*
X38671623Y27415173D01*
X38597462Y27594655D01*
X38138073Y28054846D01*
X37537547Y28304206D01*
X36887306Y28304774D01*
X36286345Y28056462D01*
X35826154Y27597073D01*
X35750623Y27415173D01*
X35676462Y27594655D01*
X35217073Y28054846D01*
X34616547Y28304206D01*
X33966306Y28304774D01*
X33801113Y28236517D01*
X33591500Y28446130D01*
X33591500Y35345855D01*
X34025582Y35184599D01*
X34675377Y35208659D01*
X35163958Y35411035D01*
X35262557Y35677837D01*
X34290000Y36650395D01*
X34275858Y36636252D01*
X34096252Y36815858D01*
X34110395Y36830000D01*
X34096252Y36844142D01*
X34275858Y37023748D01*
X34290000Y37009605D01*
X35082951Y37802557D01*
X35442163Y37802557D01*
X34469605Y36830000D01*
X35442163Y35857443D01*
X35708965Y35956042D01*
X35748241Y36061770D01*
X35792035Y35956042D01*
X36058837Y35857443D01*
X36851789Y36650395D01*
X37211000Y36650395D01*
X36238443Y35677837D01*
X36337042Y35411035D01*
X36946582Y35184599D01*
X37596377Y35208659D01*
X38084958Y35411035D01*
X38183557Y35677837D01*
X37211000Y36650395D01*
X36851789Y36650395D01*
X37031395Y36830000D01*
X36058837Y37802557D01*
X35792035Y37703958D01*
X35752759Y37598230D01*
X35708965Y37703958D01*
X35442163Y37802557D01*
X35082951Y37802557D01*
X35262557Y37982163D01*
X35163958Y38248965D01*
X34554418Y38475401D01*
X33904623Y38451341D01*
X33591500Y38321642D01*
X33591500Y40263100D01*
X33533496Y40554705D01*
X33368315Y40801915D01*
X32004000Y42166230D01*
X32004000Y42867702D01*
X32512000Y42766655D01*
X33085489Y42880729D01*
X33571670Y43205585D01*
X33778461Y43515069D01*
X34149964Y43099268D01*
X34677209Y42845291D01*
X34692974Y42842642D01*
X34925000Y42963783D01*
X34925000Y44323000D01*
X34905000Y44323000D01*
X34905000Y44577000D01*
X34925000Y44577000D01*
X34925000Y44597000D01*
X35179000Y44597000D01*
X35179000Y44577000D01*
G36*
X65532000Y10287000D02*
X65552000Y10287000D01*
X65552000Y10033000D01*
X65532000Y10033000D01*
X65532000Y10013000D01*
X65278000Y10013000D01*
X65278000Y10033000D01*
X65258000Y10033000D01*
X65258000Y10287000D01*
X65278000Y10287000D01*
X65278000Y10307000D01*
X65532000Y10307000D01*
X65532000Y10287000D01*
X65532000Y10287000D01*
G37*
X65532000Y10287000D02*
X65552000Y10287000D01*
X65552000Y10033000D01*
X65532000Y10033000D01*
X65532000Y10013000D01*
X65278000Y10013000D01*
X65278000Y10033000D01*
X65258000Y10033000D01*
X65258000Y10287000D01*
X65278000Y10287000D01*
X65278000Y10307000D01*
X65532000Y10307000D01*
X65532000Y10287000D01*
G36*
X47752000Y36957000D02*
X47772000Y36957000D01*
X47772000Y36703000D01*
X47752000Y36703000D01*
X47752000Y35560085D01*
X47974039Y35438096D01*
X48362423Y35598959D01*
X48777389Y35974866D01*
X48880014Y36191703D01*
X49149000Y35789138D01*
X49149000Y35394700D01*
X49209748Y35089296D01*
X49226338Y35005893D01*
X49446580Y34676280D01*
X49657400Y34465460D01*
X49657400Y34290000D01*
X43696430Y34290000D01*
X44293130Y34886700D01*
X45085000Y34886700D01*
X45376605Y34944704D01*
X45623815Y35109885D01*
X45788996Y35357095D01*
X45840036Y35613688D01*
X46099698Y35787189D01*
X46369986Y36191703D01*
X46472611Y35974866D01*
X46887577Y35598959D01*
X47275961Y35438096D01*
X47498000Y35560085D01*
X47498000Y36703000D01*
X47478000Y36703000D01*
X47478000Y36957000D01*
X47498000Y36957000D01*
X47498000Y36977000D01*
X47752000Y36977000D01*
X47752000Y36957000D01*
X47752000Y36957000D01*
G37*
X47752000Y36957000D02*
X47772000Y36957000D01*
X47772000Y36703000D01*
X47752000Y36703000D01*
X47752000Y35560085D01*
X47974039Y35438096D01*
X48362423Y35598959D01*
X48777389Y35974866D01*
X48880014Y36191703D01*
X49149000Y35789138D01*
X49149000Y35394700D01*
X49209748Y35089296D01*
X49226338Y35005893D01*
X49446580Y34676280D01*
X49657400Y34465460D01*
X49657400Y34290000D01*
X43696430Y34290000D01*
X44293130Y34886700D01*
X45085000Y34886700D01*
X45376605Y34944704D01*
X45623815Y35109885D01*
X45788996Y35357095D01*
X45840036Y35613688D01*
X46099698Y35787189D01*
X46369986Y36191703D01*
X46472611Y35974866D01*
X46887577Y35598959D01*
X47275961Y35438096D01*
X47498000Y35560085D01*
X47498000Y36703000D01*
X47478000Y36703000D01*
X47478000Y36957000D01*
X47498000Y36957000D01*
X47498000Y36977000D01*
X47752000Y36977000D01*
X47752000Y36957000D01*
G36*
X18478179Y53593490D02*
X18478179Y53593490D01*
X18230032Y53064027D01*
X18350531Y52832000D01*
X19558000Y52832000D01*
X19558000Y52852000D01*
X19812000Y52852000D01*
X19812000Y52832000D01*
X19832000Y52832000D01*
X19832000Y52578000D01*
X19812000Y52578000D01*
X19812000Y50292000D01*
X19832000Y50292000D01*
X19832000Y50038000D01*
X19812000Y50038000D01*
X19812000Y48825150D01*
X19970750Y48666400D01*
X20674910Y48666400D01*
X20908299Y48763073D01*
X21086927Y48941702D01*
X21151263Y49097023D01*
X21165330Y49075971D01*
X21651511Y48751115D01*
X22225000Y48637041D01*
X22798489Y48751115D01*
X23284670Y49075971D01*
X23495000Y49390752D01*
X23705330Y49075971D01*
X24191511Y48751115D01*
X24765000Y48637041D01*
X25338489Y48751115D01*
X25824670Y49075971D01*
X26035000Y49390752D01*
X26245330Y49075971D01*
X26731511Y48751115D01*
X27305000Y48637041D01*
X27878489Y48751115D01*
X28364670Y49075971D01*
X28575000Y49390752D01*
X28785330Y49075971D01*
X29231811Y48777642D01*
X28024070Y47569900D01*
X18147900Y47569900D01*
X17856295Y47511896D01*
X17609085Y47346715D01*
X15994285Y45731915D01*
X15829104Y45484705D01*
X15771100Y45193100D01*
X15771100Y43776400D01*
X15829104Y43484795D01*
X15944781Y43311673D01*
X15994285Y43237585D01*
X18293085Y40938785D01*
X18540295Y40773604D01*
X18831900Y40715600D01*
X19078070Y40715600D01*
X20386996Y39406674D01*
X20320000Y39420000D01*
X6400000Y39420000D01*
X6400000Y50038000D01*
X7143750Y50038000D01*
X6985000Y49879250D01*
X6985000Y49175090D01*
X7081673Y48941701D01*
X7260302Y48763073D01*
X7413780Y48699500D01*
X7391585Y48684670D01*
X7066729Y48198489D01*
X6952655Y47625000D01*
X7066729Y47051511D01*
X7391585Y46565330D01*
X7706366Y46355000D01*
X7391585Y46144670D01*
X7066729Y45658489D01*
X6952655Y45085000D01*
X7066729Y44511511D01*
X7391585Y44025330D01*
X7877766Y43700474D01*
X8451255Y43586400D01*
X8820745Y43586400D01*
X9394234Y43700474D01*
X9880415Y44025330D01*
X10205271Y44511511D01*
X10319345Y45085000D01*
X10205271Y45658489D01*
X9880415Y46144670D01*
X9565634Y46355000D01*
X9880415Y46565330D01*
X10205271Y47051511D01*
X10319345Y47625000D01*
X10205271Y48198489D01*
X9880415Y48684670D01*
X9858220Y48699500D01*
X10011698Y48763073D01*
X10190327Y48941701D01*
X10287000Y49175090D01*
X10287000Y49879250D01*
X10128250Y50038000D01*
X18345150Y50038000D01*
X18186400Y49879250D01*
X18186400Y49175091D01*
X18283073Y48941702D01*
X18461701Y48763073D01*
X18695090Y48666400D01*
X19399250Y48666400D01*
X19558000Y48825150D01*
X19558000Y50038000D01*
X18345150Y50038000D01*
X10128250Y50038000D01*
X10128250Y50038000D01*
X8763000Y50038000D01*
X8763000Y50018000D01*
X8509000Y50018000D01*
X8509000Y50038000D01*
X7143750Y50038000D01*
X6400000Y50038000D01*
X6400000Y51663600D01*
X7493691Y51663600D01*
X7260302Y51566927D01*
X7081673Y51388299D01*
X6985000Y51154910D01*
X6985000Y50450750D01*
X7143750Y50292000D01*
X8509000Y50292000D01*
X8509000Y51504850D01*
X8350250Y51663600D01*
X8921750Y51663600D01*
X8763000Y51504850D01*
X8763000Y50292000D01*
X10128250Y50292000D01*
X10287000Y50450750D01*
X10287000Y51154910D01*
X10190327Y51388299D01*
X10011698Y51566927D01*
X9778309Y51663600D01*
X8921750Y51663600D01*
X8350250Y51663600D01*
X8350250Y51663600D01*
X7493691Y51663600D01*
X6400000Y51663600D01*
X6400000Y52578000D01*
X18350531Y52578000D01*
X18230032Y52345973D01*
X18478179Y51816510D01*
X18661119Y51649529D01*
X18461701Y51566927D01*
X18283073Y51388298D01*
X18186400Y51154909D01*
X18186400Y50450750D01*
X18345150Y50292000D01*
X19558000Y50292000D01*
X19558000Y52578000D01*
X18350531Y52578000D01*
X6400000Y52578000D01*
X6400000Y53925000D01*
X18841374Y53925000D01*
X18478179Y53593490D01*
X18478179Y53593490D01*
G37*
X18478179Y53593490D02*
X18478179Y53593490D01*
X18230032Y53064027D01*
X18350531Y52832000D01*
X19558000Y52832000D01*
X19558000Y52852000D01*
X19812000Y52852000D01*
X19812000Y52832000D01*
X19832000Y52832000D01*
X19832000Y52578000D01*
X19812000Y52578000D01*
X19812000Y50292000D01*
X19832000Y50292000D01*
X19832000Y50038000D01*
X19812000Y50038000D01*
X19812000Y48825150D01*
X19970750Y48666400D01*
X20674910Y48666400D01*
X20908299Y48763073D01*
X21086927Y48941702D01*
X21151263Y49097023D01*
X21165330Y49075971D01*
X21651511Y48751115D01*
X22225000Y48637041D01*
X22798489Y48751115D01*
X23284670Y49075971D01*
X23495000Y49390752D01*
X23705330Y49075971D01*
X24191511Y48751115D01*
X24765000Y48637041D01*
X25338489Y48751115D01*
X25824670Y49075971D01*
X26035000Y49390752D01*
X26245330Y49075971D01*
X26731511Y48751115D01*
X27305000Y48637041D01*
X27878489Y48751115D01*
X28364670Y49075971D01*
X28575000Y49390752D01*
X28785330Y49075971D01*
X29231811Y48777642D01*
X28024070Y47569900D01*
X18147900Y47569900D01*
X17856295Y47511896D01*
X17609085Y47346715D01*
X15994285Y45731915D01*
X15829104Y45484705D01*
X15771100Y45193100D01*
X15771100Y43776400D01*
X15829104Y43484795D01*
X15944781Y43311673D01*
X15994285Y43237585D01*
X18293085Y40938785D01*
X18540295Y40773604D01*
X18831900Y40715600D01*
X19078070Y40715600D01*
X20386996Y39406674D01*
X20320000Y39420000D01*
X6400000Y39420000D01*
X6400000Y50038000D01*
X7143750Y50038000D01*
X6985000Y49879250D01*
X6985000Y49175090D01*
X7081673Y48941701D01*
X7260302Y48763073D01*
X7413780Y48699500D01*
X7391585Y48684670D01*
X7066729Y48198489D01*
X6952655Y47625000D01*
X7066729Y47051511D01*
X7391585Y46565330D01*
X7706366Y46355000D01*
X7391585Y46144670D01*
X7066729Y45658489D01*
X6952655Y45085000D01*
X7066729Y44511511D01*
X7391585Y44025330D01*
X7877766Y43700474D01*
X8451255Y43586400D01*
X8820745Y43586400D01*
X9394234Y43700474D01*
X9880415Y44025330D01*
X10205271Y44511511D01*
X10319345Y45085000D01*
X10205271Y45658489D01*
X9880415Y46144670D01*
X9565634Y46355000D01*
X9880415Y46565330D01*
X10205271Y47051511D01*
X10319345Y47625000D01*
X10205271Y48198489D01*
X9880415Y48684670D01*
X9858220Y48699500D01*
X10011698Y48763073D01*
X10190327Y48941701D01*
X10287000Y49175090D01*
X10287000Y49879250D01*
X10128250Y50038000D01*
X18345150Y50038000D01*
X18186400Y49879250D01*
X18186400Y49175091D01*
X18283073Y48941702D01*
X18461701Y48763073D01*
X18695090Y48666400D01*
X19399250Y48666400D01*
X19558000Y48825150D01*
X19558000Y50038000D01*
X18345150Y50038000D01*
X10128250Y50038000D01*
X10128250Y50038000D01*
X8763000Y50038000D01*
X8763000Y50018000D01*
X8509000Y50018000D01*
X8509000Y50038000D01*
X7143750Y50038000D01*
X6400000Y50038000D01*
X6400000Y51663600D01*
X7493691Y51663600D01*
X7260302Y51566927D01*
X7081673Y51388299D01*
X6985000Y51154910D01*
X6985000Y50450750D01*
X7143750Y50292000D01*
X8509000Y50292000D01*
X8509000Y51504850D01*
X8350250Y51663600D01*
X8921750Y51663600D01*
X8763000Y51504850D01*
X8763000Y50292000D01*
X10128250Y50292000D01*
X10287000Y50450750D01*
X10287000Y51154910D01*
X10190327Y51388299D01*
X10011698Y51566927D01*
X9778309Y51663600D01*
X8921750Y51663600D01*
X8350250Y51663600D01*
X8350250Y51663600D01*
X7493691Y51663600D01*
X6400000Y51663600D01*
X6400000Y52578000D01*
X18350531Y52578000D01*
X18230032Y52345973D01*
X18478179Y51816510D01*
X18661119Y51649529D01*
X18461701Y51566927D01*
X18283073Y51388298D01*
X18186400Y51154909D01*
X18186400Y50450750D01*
X18345150Y50292000D01*
X19558000Y50292000D01*
X19558000Y52578000D01*
X18350531Y52578000D01*
X6400000Y52578000D01*
X6400000Y53925000D01*
X18841374Y53925000D01*
X18478179Y53593490D01*
G36*
X20447000Y44577000D02*
X20467000Y44577000D01*
X20467000Y44323000D01*
X20447000Y44323000D01*
X20447000Y42963783D01*
X20679026Y42842642D01*
X20694791Y42845291D01*
X21222036Y43099268D01*
X21593539Y43515069D01*
X21800330Y43205585D01*
X22286511Y42880729D01*
X22376074Y42862914D01*
X22141580Y42628420D01*
X21921338Y42298807D01*
X21909561Y42239600D01*
X21844000Y41910000D01*
X21844000Y40104931D01*
X19932515Y42016415D01*
X19843283Y42076038D01*
X19685305Y42181596D01*
X19393700Y42239600D01*
X19147530Y42239600D01*
X18445153Y42941977D01*
X18839670Y43205585D01*
X19046461Y43515069D01*
X19417964Y43099268D01*
X19945209Y42845291D01*
X19960974Y42842642D01*
X20193000Y42963783D01*
X20193000Y44323000D01*
X20173000Y44323000D01*
X20173000Y44577000D01*
X20193000Y44577000D01*
X20193000Y44597000D01*
X20447000Y44597000D01*
X20447000Y44577000D01*
X20447000Y44577000D01*
G37*
X20447000Y44577000D02*
X20467000Y44577000D01*
X20467000Y44323000D01*
X20447000Y44323000D01*
X20447000Y42963783D01*
X20679026Y42842642D01*
X20694791Y42845291D01*
X21222036Y43099268D01*
X21593539Y43515069D01*
X21800330Y43205585D01*
X22286511Y42880729D01*
X22376074Y42862914D01*
X22141580Y42628420D01*
X21921338Y42298807D01*
X21909561Y42239600D01*
X21844000Y41910000D01*
X21844000Y40104931D01*
X19932515Y42016415D01*
X19843283Y42076038D01*
X19685305Y42181596D01*
X19393700Y42239600D01*
X19147530Y42239600D01*
X18445153Y42941977D01*
X18839670Y43205585D01*
X19046461Y43515069D01*
X19417964Y43099268D01*
X19945209Y42845291D01*
X19960974Y42842642D01*
X20193000Y42963783D01*
X20193000Y44323000D01*
X20173000Y44323000D01*
X20173000Y44577000D01*
X20193000Y44577000D01*
X20193000Y44597000D01*
X20447000Y44597000D01*
X20447000Y44577000D01*
M02*
