G04 #@! TF.FileFunction,Copper,L1,Top,Signal*
%FSLAX46Y46*%
G04 Gerber Fmt 4.6, Leading zero omitted, Abs format (unit mm)*
G04 Created by KiCad (PCBNEW 0.201601051410+6422~40~ubuntu14.04.1-stable) date Mo 18 Jan 2016 21:21:09 CET*
%MOMM*%
G01*
G04 APERTURE LIST*
%ADD10C,0.100000*%
%ADD11C,4.064000*%
%ADD12R,2.032000X1.727200*%
%ADD13O,2.032000X1.727200*%
%ADD14R,1.727200X1.727200*%
%ADD15O,1.727200X1.727200*%
%ADD16R,2.032000X2.032000*%
%ADD17O,2.032000X2.032000*%
%ADD18R,1.727200X2.032000*%
%ADD19O,1.727200X2.032000*%
%ADD20C,1.998980*%
%ADD21R,1.200000X1.200000*%
%ADD22C,1.200000*%
%ADD23O,1.600000X1.600000*%
%ADD24C,0.700000*%
%ADD25C,0.300000*%
%ADD26C,0.762000*%
%ADD27C,0.254000*%
G04 APERTURE END LIST*
D10*
D11*
X26035000Y30734000D03*
D12*
X78740000Y12700000D03*
D13*
X78740000Y15240000D03*
X78740000Y17780000D03*
X78740000Y20320000D03*
X78740000Y22860000D03*
X78740000Y25400000D03*
X78740000Y27940000D03*
X78740000Y30480000D03*
X78740000Y33020000D03*
X78740000Y35560000D03*
X78740000Y38100000D03*
X78740000Y40640000D03*
D14*
X83820000Y12700000D03*
D15*
X81280000Y12700000D03*
X83820000Y15240000D03*
X81280000Y15240000D03*
X83820000Y17780000D03*
X81280000Y17780000D03*
X83820000Y20320000D03*
X81280000Y20320000D03*
X83820000Y22860000D03*
X81280000Y22860000D03*
X83820000Y25400000D03*
X81280000Y25400000D03*
X83820000Y27940000D03*
X81280000Y27940000D03*
X83820000Y30480000D03*
X81280000Y30480000D03*
X83820000Y33020000D03*
X81280000Y33020000D03*
X83820000Y35560000D03*
X81280000Y35560000D03*
X83820000Y38100000D03*
X81280000Y38100000D03*
X83820000Y40640000D03*
X81280000Y40640000D03*
D16*
X70460000Y41910000D03*
D17*
X70460000Y44450000D03*
D18*
X24765000Y19050000D03*
D19*
X27305000Y19050000D03*
X29845000Y19050000D03*
X32385000Y19050000D03*
X34925000Y19050000D03*
X37465000Y19050000D03*
X40005000Y19050000D03*
X42545000Y19050000D03*
X45085000Y19050000D03*
X47625000Y19050000D03*
D18*
X55245000Y19050000D03*
D19*
X57785000Y19050000D03*
X60325000Y19050000D03*
X62865000Y19050000D03*
X65405000Y19050000D03*
X67945000Y19050000D03*
X70485000Y19050000D03*
D14*
X19685000Y50165000D03*
D15*
X19685000Y52705000D03*
X22225000Y50165000D03*
X22225000Y52705000D03*
X24765000Y50165000D03*
X24765000Y52705000D03*
X27305000Y50165000D03*
X27305000Y52705000D03*
X29845000Y50165000D03*
X29845000Y52705000D03*
X32385000Y50165000D03*
X32385000Y52705000D03*
X34925000Y50165000D03*
X34925000Y52705000D03*
X37465000Y50165000D03*
X37465000Y52705000D03*
X40005000Y50165000D03*
X40005000Y52705000D03*
X42545000Y50165000D03*
X42545000Y52705000D03*
X45085000Y50165000D03*
X45085000Y52705000D03*
X47625000Y50165000D03*
X47625000Y52705000D03*
X50165000Y50165000D03*
X50165000Y52705000D03*
X52705000Y50165000D03*
X52705000Y52705000D03*
X55245000Y50165000D03*
X55245000Y52705000D03*
X57785000Y50165000D03*
X57785000Y52705000D03*
X60325000Y50165000D03*
X60325000Y52705000D03*
X62865000Y50165000D03*
X62865000Y52705000D03*
X65405000Y50165000D03*
X65405000Y52705000D03*
X67945000Y50165000D03*
X67945000Y52705000D03*
X70485000Y50165000D03*
X70485000Y52705000D03*
X73025000Y50165000D03*
X73025000Y52705000D03*
X75565000Y50165000D03*
X75565000Y52705000D03*
D14*
X19685000Y1905000D03*
D15*
X19685000Y4445000D03*
X22225000Y1905000D03*
X22225000Y4445000D03*
X24765000Y1905000D03*
X24765000Y4445000D03*
X27305000Y1905000D03*
X27305000Y4445000D03*
X29845000Y1905000D03*
X29845000Y4445000D03*
X32385000Y1905000D03*
X32385000Y4445000D03*
X34925000Y1905000D03*
X34925000Y4445000D03*
X37465000Y1905000D03*
X37465000Y4445000D03*
X40005000Y1905000D03*
X40005000Y4445000D03*
X42545000Y1905000D03*
X42545000Y4445000D03*
X45085000Y1905000D03*
X45085000Y4445000D03*
X47625000Y1905000D03*
X47625000Y4445000D03*
X50165000Y1905000D03*
X50165000Y4445000D03*
X52705000Y1905000D03*
X52705000Y4445000D03*
X55245000Y1905000D03*
X55245000Y4445000D03*
X57785000Y1905000D03*
X57785000Y4445000D03*
X60325000Y1905000D03*
X60325000Y4445000D03*
X62865000Y1905000D03*
X62865000Y4445000D03*
X65405000Y1905000D03*
X65405000Y4445000D03*
X67945000Y1905000D03*
X67945000Y4445000D03*
X70485000Y1905000D03*
X70485000Y4445000D03*
X73025000Y1905000D03*
X73025000Y4445000D03*
X75565000Y1905000D03*
X75565000Y4445000D03*
D16*
X12065000Y4445000D03*
D17*
X12065000Y1905000D03*
D18*
X70485000Y10160000D03*
D19*
X67945000Y10160000D03*
X65405000Y10160000D03*
X62865000Y10160000D03*
X60325000Y10160000D03*
X57785000Y10160000D03*
X55245000Y10160000D03*
D16*
X67920000Y41910000D03*
D17*
X67920000Y44450000D03*
D16*
X65380000Y41910000D03*
D17*
X65380000Y44450000D03*
D20*
X62865000Y23368000D03*
X62865000Y33528000D03*
D21*
X56947000Y39319200D03*
D22*
X56947000Y36819200D03*
D21*
X56947000Y41960800D03*
D22*
X56947000Y44460800D03*
D18*
X19685000Y10160000D03*
D19*
X17145000Y10160000D03*
X14605000Y10160000D03*
X12065000Y10160000D03*
X9525000Y10160000D03*
D18*
X47625000Y10160000D03*
D19*
X45085000Y10160000D03*
X42545000Y10160000D03*
X40005000Y10160000D03*
X37465000Y10160000D03*
D11*
X69215000Y28067000D03*
X46482000Y30734000D03*
D12*
X8636000Y49530000D03*
D13*
X8636000Y46990000D03*
X8636000Y44450000D03*
D12*
X2921000Y15240000D03*
D13*
X2921000Y12700000D03*
X2921000Y10160000D03*
D12*
X78740000Y49530000D03*
D13*
X78740000Y46990000D03*
X78740000Y44450000D03*
D18*
X40005000Y44450000D03*
D19*
X37465000Y44450000D03*
X34925000Y44450000D03*
X32385000Y44450000D03*
X29845000Y44450000D03*
D18*
X32385000Y10160000D03*
D19*
X29845000Y10160000D03*
X27305000Y10160000D03*
X24765000Y10160000D03*
D20*
X40005000Y26670000D03*
X40005000Y36830000D03*
X37465000Y36830000D03*
X37465000Y26670000D03*
X32385000Y36830000D03*
X32385000Y26670000D03*
X34925000Y26670000D03*
X34925000Y36830000D03*
D23*
X45085000Y36830000D03*
X47625000Y36830000D03*
X50165000Y36830000D03*
X52705000Y36830000D03*
X52705000Y44450000D03*
X50165000Y44450000D03*
X47625000Y44450000D03*
X45085000Y44450000D03*
D18*
X24765000Y44450000D03*
D19*
X22225000Y44450000D03*
X19685000Y44450000D03*
X17145000Y44450000D03*
D18*
X19685000Y13716000D03*
D19*
X17145000Y13716000D03*
X14605000Y13716000D03*
X12065000Y13716000D03*
X9525000Y13716000D03*
D18*
X70460000Y36830000D03*
D19*
X67920000Y36830000D03*
X65380000Y36830000D03*
D20*
X52705000Y33528000D03*
X52705000Y23368000D03*
X55245000Y23368000D03*
X55245000Y33528000D03*
X57785000Y23368000D03*
X57785000Y33528000D03*
X60325000Y33528000D03*
X60325000Y23368000D03*
D24*
X60577800Y41881200D03*
X62765800Y47179800D03*
D22*
X28918100Y35421500D03*
X53135000Y12748400D03*
D24*
X63667100Y11614200D03*
X62865000Y16853200D03*
X65691200Y32396800D03*
X59055000Y15644200D03*
X59057000Y20028900D03*
X29033100Y22997000D03*
X61231300Y20607900D03*
D25*
X51437100Y52179600D02*
X51437100Y52705000D01*
X50690500Y51433000D02*
X51437100Y52179600D01*
X15619000Y51433000D02*
X50690500Y51433000D01*
X9903900Y45717900D02*
X15619000Y51433000D01*
X8636000Y45717900D02*
X9903900Y45717900D01*
X8636000Y44450000D02*
X8636000Y45717900D01*
X52705000Y52705000D02*
X51437100Y52705000D01*
X78740000Y12700000D02*
X78740000Y13967900D01*
X78026800Y13967900D02*
X78740000Y13967900D01*
X74404800Y17589900D02*
X78026800Y13967900D01*
X74404800Y35354100D02*
X74404800Y17589900D01*
X69892400Y39866500D02*
X74404800Y35354100D01*
X62592500Y39866500D02*
X69892400Y39866500D01*
X60577800Y41881200D02*
X62592500Y39866500D01*
X53977100Y53230400D02*
X53977100Y52705000D01*
X53221300Y53986200D02*
X53977100Y53230400D01*
X16437000Y53986200D02*
X53221300Y53986200D01*
X10712800Y48262000D02*
X16437000Y53986200D01*
X7899500Y48262000D02*
X10712800Y48262000D01*
X7156600Y47519100D02*
X7899500Y48262000D01*
X7156600Y43937500D02*
X7156600Y47519100D01*
X9217000Y41877100D02*
X7156600Y43937500D01*
X19083400Y41877100D02*
X9217000Y41877100D01*
X21410500Y39550000D02*
X19083400Y41877100D01*
X21410500Y20183000D02*
X21410500Y39550000D01*
X20795000Y19567500D02*
X21410500Y20183000D01*
X12328500Y19567500D02*
X20795000Y19567500D01*
X4188900Y11427900D02*
X12328500Y19567500D01*
X2921000Y11427900D02*
X4188900Y11427900D01*
X2921000Y10160000D02*
X2921000Y11427900D01*
X55245000Y52705000D02*
X54675500Y52705000D01*
X54675500Y52705000D02*
X53977100Y52705000D01*
X84353100Y19047900D02*
X78740000Y19047900D01*
X85088000Y19782800D02*
X84353100Y19047900D01*
X85088000Y45633300D02*
X85088000Y19782800D01*
X79286300Y51435000D02*
X85088000Y45633300D01*
X75000600Y51435000D02*
X79286300Y51435000D01*
X74297000Y52138600D02*
X75000600Y51435000D01*
X74297000Y53283000D02*
X74297000Y52138600D01*
X73579300Y54000700D02*
X74297000Y53283000D01*
X55971200Y54000700D02*
X73579300Y54000700D01*
X54675500Y52705000D02*
X55971200Y54000700D01*
X78740000Y17780000D02*
X78740000Y19047900D01*
X76010200Y47179800D02*
X62765800Y47179800D01*
X77472100Y45717900D02*
X76010200Y47179800D01*
X78740000Y45717900D02*
X77472100Y45717900D01*
X78740000Y44450000D02*
X78740000Y45717900D01*
X81842300Y34287900D02*
X78740000Y34287900D01*
X82548000Y34993600D02*
X81842300Y34287900D01*
X82548000Y45145400D02*
X82548000Y34993600D01*
X79431400Y48262000D02*
X82548000Y45145400D01*
X75620700Y48262000D02*
X79431400Y48262000D01*
X74295000Y49587700D02*
X75620700Y48262000D01*
X74295000Y50733400D02*
X74295000Y49587700D01*
X73591300Y51437100D02*
X74295000Y50733400D01*
X73025000Y51437100D02*
X73591300Y51437100D01*
X73025000Y52705000D02*
X73025000Y51437100D01*
X78740000Y33020000D02*
X78740000Y34287900D01*
D26*
X65380000Y36830000D02*
X64059000Y36830000D01*
X64059000Y36830000D02*
X58215500Y36830000D01*
X58215500Y37364100D02*
X58215500Y36830000D01*
X57495700Y38083900D02*
X58215500Y37364100D01*
X56947000Y38083900D02*
X57495700Y38083900D01*
X55422800Y33528000D02*
X55245000Y33528000D01*
X58215500Y36320700D02*
X55422800Y33528000D01*
X58215500Y36830000D02*
X58215500Y36320700D01*
X12065000Y1905000D02*
X13716300Y1905000D01*
X19685000Y1905000D02*
X13716300Y1905000D01*
X56947000Y39319200D02*
X56947000Y38083900D01*
X65405000Y8267300D02*
X65405000Y10160000D01*
X64147300Y8267300D02*
X65405000Y8267300D01*
X60325000Y4445000D02*
X64147300Y8267300D01*
X69202700Y8267300D02*
X73025000Y4445000D01*
X65405000Y8267300D02*
X69202700Y8267300D01*
X27305000Y19050000D02*
X27305000Y17398700D01*
X28964100Y20709100D02*
X27305000Y19050000D01*
X45965900Y20709100D02*
X28964100Y20709100D01*
X47625000Y19050000D02*
X45965900Y20709100D01*
X14605000Y13716000D02*
X14605000Y10160000D01*
X19685000Y5014500D02*
X19685000Y5943900D01*
X19685000Y5014500D02*
X19685000Y4445000D01*
X19685000Y4445000D02*
X19685000Y1905000D01*
X24765000Y14858700D02*
X24765000Y10160000D01*
X27305000Y17398700D02*
X24765000Y14858700D01*
X23266100Y9525000D02*
X19685000Y5943900D01*
X23266100Y10160000D02*
X23266100Y9525000D01*
X24765000Y10160000D02*
X23266100Y10160000D01*
X19685000Y50165000D02*
X19685000Y48666100D01*
X19685000Y44450000D02*
X21425300Y46190300D01*
X21425300Y46925800D02*
X19685000Y48666100D01*
X21425300Y46190300D02*
X21425300Y46925800D01*
X47625000Y36830000D02*
X47625000Y38011200D01*
X45085000Y42913100D02*
X48678900Y39319200D01*
X45085000Y44450000D02*
X45085000Y42913100D01*
X47625000Y38265300D02*
X48678900Y39319200D01*
X47625000Y38011200D02*
X47625000Y38265300D01*
X48678900Y39319200D02*
X56947000Y39319200D01*
X33267600Y42792600D02*
X34925000Y44450000D01*
X29150600Y42792600D02*
X33267600Y42792600D01*
X27133800Y44809400D02*
X29150600Y42792600D01*
X27133800Y44890100D02*
X27133800Y44809400D01*
X25833600Y46190300D02*
X27133800Y44890100D01*
X21425300Y46190300D02*
X25833600Y46190300D01*
X41998300Y46101400D02*
X43649700Y44450000D01*
X36576400Y46101400D02*
X41998300Y46101400D01*
X34925000Y44450000D02*
X36576400Y46101400D01*
X45085000Y44450000D02*
X43649700Y44450000D01*
X67841600Y21693400D02*
X70485000Y19050000D01*
X61999600Y21693400D02*
X67841600Y21693400D01*
X60325000Y23368000D02*
X61999600Y21693400D01*
X73025000Y4445000D02*
X73025000Y2946100D01*
X75565000Y1905000D02*
X73025000Y1905000D01*
X73025000Y1905000D02*
X73025000Y2946100D01*
X13970000Y4445000D02*
X12065000Y4445000D01*
X19685000Y10160000D02*
X13970000Y4445000D01*
X40005000Y44450000D02*
X40005000Y42798700D01*
X29296000Y35421500D02*
X28918100Y35421500D01*
X32526500Y32191000D02*
X29296000Y35421500D01*
X29091900Y6866900D02*
X32385000Y10160000D01*
X27186900Y6866900D02*
X29091900Y6866900D01*
X24765000Y4445000D02*
X27186900Y6866900D01*
X32385000Y10160000D02*
X33883900Y10160000D01*
X37678100Y32191000D02*
X41644500Y36157400D01*
X32526500Y32191000D02*
X37678100Y32191000D01*
X41644500Y41159200D02*
X40005000Y42798700D01*
X41644500Y36157400D02*
X41644500Y41159200D01*
X19685000Y16751900D02*
X19685000Y13716000D01*
X28984800Y26051700D02*
X19685000Y16751900D01*
X29454600Y26051700D02*
X28984800Y26051700D01*
X32526500Y29123600D02*
X29454600Y26051700D01*
X32526500Y32191000D02*
X32526500Y29123600D01*
X19685000Y13716000D02*
X19685000Y10160000D01*
X50165000Y36830000D02*
X50165000Y35394700D01*
X42407200Y35394700D02*
X50165000Y35394700D01*
X41644500Y36157400D02*
X42407200Y35394700D01*
X55522500Y35394700D02*
X56947000Y36819200D01*
X50165000Y35394700D02*
X55522500Y35394700D01*
X45973600Y11811400D02*
X47625000Y10160000D01*
X35535300Y11811400D02*
X45973600Y11811400D01*
X33883900Y10160000D02*
X35535300Y11811400D01*
X49123900Y10534700D02*
X49123900Y10160000D01*
X52600300Y14011100D02*
X49123900Y10534700D01*
X66633900Y14011100D02*
X52600300Y14011100D01*
X70485000Y10160000D02*
X66633900Y14011100D01*
X47625000Y10160000D02*
X49123900Y10160000D01*
X23281800Y41741900D02*
X22225000Y42798700D01*
X34756900Y41741900D02*
X23281800Y41741900D01*
X37465000Y44450000D02*
X34756900Y41741900D01*
X22225000Y44450000D02*
X22225000Y42798700D01*
X51063000Y21733100D02*
X53746100Y19050000D01*
X27448100Y21733100D02*
X51063000Y21733100D01*
X24765000Y19050000D02*
X27448100Y21733100D01*
X55245000Y19050000D02*
X53746100Y19050000D01*
X65356600Y12748400D02*
X53135000Y12748400D01*
X67945000Y10160000D02*
X65356600Y12748400D01*
X56936200Y44450000D02*
X56947000Y44460800D01*
X52705000Y44450000D02*
X56936200Y44450000D01*
D25*
X34925000Y26670000D02*
X32385000Y26670000D01*
X64133000Y11148300D02*
X63667100Y11614200D01*
X64133000Y9397100D02*
X64133000Y11148300D01*
X60448800Y5712900D02*
X64133000Y9397100D01*
X57226000Y5712900D02*
X60448800Y5712900D01*
X56512900Y4999800D02*
X57226000Y5712900D01*
X56512900Y4445000D02*
X56512900Y4999800D01*
X55245000Y4445000D02*
X56512900Y4445000D01*
X32385000Y19050000D02*
X33652900Y19050000D01*
X62532800Y16521000D02*
X62865000Y16853200D01*
X35504100Y16521000D02*
X62532800Y16521000D01*
X33652900Y18372200D02*
X35504100Y16521000D01*
X33652900Y19050000D02*
X33652900Y18372200D01*
X67945000Y19050000D02*
X66677100Y19050000D01*
X40005000Y19050000D02*
X41272900Y19050000D01*
X66677100Y18336800D02*
X66677100Y19050000D01*
X65970000Y17629700D02*
X66677100Y18336800D01*
X59840700Y17629700D02*
X65970000Y17629700D01*
X59286300Y17075300D02*
X59840700Y17629700D01*
X42569800Y17075300D02*
X59286300Y17075300D01*
X41272900Y18372200D02*
X42569800Y17075300D01*
X41272900Y19050000D02*
X41272900Y18372200D01*
X64137100Y49643900D02*
X64137100Y50165000D01*
X61845400Y47352200D02*
X64137100Y49643900D01*
X35841900Y47352200D02*
X61845400Y47352200D01*
X33652900Y45163200D02*
X35841900Y47352200D01*
X33652900Y44450000D02*
X33652900Y45163200D01*
X32385000Y44450000D02*
X33652900Y44450000D01*
X65405000Y50165000D02*
X64137100Y50165000D01*
X64137100Y52179600D02*
X64137100Y52705000D01*
X63392500Y51435000D02*
X64137100Y52179600D01*
X52149400Y51435000D02*
X63392500Y51435000D01*
X51435000Y50720600D02*
X52149400Y51435000D01*
X51435000Y49637100D02*
X51435000Y50720600D01*
X49777700Y47979800D02*
X51435000Y49637100D01*
X33929500Y47979800D02*
X49777700Y47979800D01*
X31112900Y45163200D02*
X33929500Y47979800D01*
X31112900Y44450000D02*
X31112900Y45163200D01*
X29845000Y44450000D02*
X31112900Y44450000D01*
X65405000Y52705000D02*
X64137100Y52705000D01*
X59057100Y10837800D02*
X59057100Y10160000D01*
X58309500Y11585400D02*
X59057100Y10837800D01*
X54536600Y11585400D02*
X58309500Y11585400D01*
X51058100Y8106900D02*
X54536600Y11585400D01*
X44380100Y8106900D02*
X51058100Y8106900D01*
X41272900Y4999700D02*
X44380100Y8106900D01*
X41272900Y4445000D02*
X41272900Y4999700D01*
X40005000Y4445000D02*
X41272900Y4445000D01*
X60325000Y10160000D02*
X59057100Y10160000D01*
X45085000Y4445000D02*
X46352900Y4445000D01*
X62865000Y10160000D02*
X61597100Y10160000D01*
X46352900Y4999700D02*
X46352900Y4445000D01*
X47850100Y6496900D02*
X46352900Y4999700D01*
X58607500Y6496900D02*
X47850100Y6496900D01*
X61597100Y9486500D02*
X58607500Y6496900D01*
X61597100Y10160000D02*
X61597100Y9486500D01*
X67920000Y41910000D02*
X65380000Y41910000D01*
X47625000Y44450000D02*
X48829300Y44450000D01*
X65380000Y41910000D02*
X63959700Y41910000D01*
X48829300Y44073600D02*
X48829300Y44450000D01*
X49657200Y43245700D02*
X48829300Y44073600D01*
X62624000Y43245700D02*
X49657200Y43245700D01*
X63959700Y41910000D02*
X62624000Y43245700D01*
X66499600Y45870400D02*
X67920000Y44450000D01*
X52413400Y45870400D02*
X66499600Y45870400D01*
X51369300Y44826300D02*
X52413400Y45870400D01*
X51369300Y44450000D02*
X51369300Y44826300D01*
X50165000Y44450000D02*
X51369300Y44450000D01*
X62865000Y29570600D02*
X62865000Y23368000D01*
X65691200Y32396800D02*
X62865000Y29570600D01*
X41110100Y470100D02*
X42545000Y1905000D01*
X11471400Y470100D02*
X41110100Y470100D01*
X10631200Y1310300D02*
X11471400Y470100D01*
X10631200Y8726200D02*
X10631200Y1310300D01*
X10797100Y8892100D02*
X10631200Y8726200D01*
X10797100Y10160000D02*
X10797100Y8892100D01*
X12065000Y10160000D02*
X10797100Y10160000D01*
X51369600Y7552500D02*
X53977100Y10160000D01*
X46362600Y7552500D02*
X51369600Y7552500D01*
X43815000Y5004900D02*
X46362600Y7552500D01*
X43815000Y3880600D02*
X43815000Y5004900D01*
X43107300Y3172900D02*
X43815000Y3880600D01*
X41986000Y3172900D02*
X43107300Y3172900D01*
X41272900Y2459800D02*
X41986000Y3172900D01*
X41272900Y1905000D02*
X41272900Y2459800D01*
X40005000Y1905000D02*
X41272900Y1905000D01*
X55245000Y10160000D02*
X53977100Y10160000D01*
D26*
X81280000Y22860000D02*
X81280000Y20320000D01*
X79771900Y42148100D02*
X81280000Y40640000D01*
X72349400Y42148100D02*
X79771900Y42148100D01*
X72111300Y41910000D02*
X72349400Y42148100D01*
X70460000Y41910000D02*
X72111300Y41910000D01*
D25*
X29845000Y19050000D02*
X31112900Y19050000D01*
X33840900Y15644200D02*
X59055000Y15644200D01*
X31112900Y18372200D02*
X33840900Y15644200D01*
X31112900Y19050000D02*
X31112900Y18372200D01*
X46352900Y18372200D02*
X46352900Y19050000D01*
X47095400Y17629700D02*
X46352900Y18372200D01*
X58408900Y17629700D02*
X47095400Y17629700D01*
X59057000Y18277800D02*
X58408900Y17629700D01*
X59057000Y20028900D02*
X59057000Y18277800D01*
X45085000Y19050000D02*
X46352900Y19050000D01*
X37465000Y36830000D02*
X40005000Y36830000D01*
X36332000Y22997000D02*
X40005000Y26670000D01*
X29033100Y22997000D02*
X36332000Y22997000D01*
X25334000Y36830000D02*
X32385000Y36830000D01*
X18412900Y43751100D02*
X25334000Y36830000D01*
X18412900Y44450000D02*
X18412900Y43751100D01*
X17145000Y44450000D02*
X18412900Y44450000D01*
X52705000Y23368000D02*
X55245000Y23368000D01*
X59900800Y21938400D02*
X61231300Y20607900D01*
X56674600Y21938400D02*
X59900800Y21938400D01*
X55245000Y23368000D02*
X56674600Y21938400D01*
X60325000Y33528000D02*
X57785000Y33528000D01*
X70460000Y36830000D02*
X69192100Y36830000D01*
X54109500Y32123500D02*
X52705000Y33528000D01*
X63451900Y32123500D02*
X54109500Y32123500D01*
X66650100Y35321700D02*
X63451900Y32123500D01*
X66650100Y37515800D02*
X66650100Y35321700D01*
X67431100Y38296800D02*
X66650100Y37515800D01*
X68438500Y38296800D02*
X67431100Y38296800D01*
X69192100Y37543200D02*
X68438500Y38296800D01*
X69192100Y36830000D02*
X69192100Y37543200D01*
X57785000Y25573100D02*
X57785000Y23368000D01*
X67621600Y35409700D02*
X57785000Y25573100D01*
X67920000Y35409700D02*
X67621600Y35409700D01*
X67920000Y36830000D02*
X67920000Y35409700D01*
D27*
G36*
X11773421Y20122579D02*
X4562286Y12911444D01*
X4490271Y13273489D01*
X4165415Y13759670D01*
X4143220Y13774500D01*
X4296698Y13838073D01*
X4475327Y14016701D01*
X4572000Y14250090D01*
X4572000Y14954250D01*
X4413250Y15113000D01*
X3048000Y15113000D01*
X3048000Y15093000D01*
X2794000Y15093000D01*
X2794000Y15113000D01*
X1428750Y15113000D01*
X1270000Y14954250D01*
X1270000Y14250090D01*
X1366673Y14016701D01*
X1545302Y13838073D01*
X1698780Y13774500D01*
X1676585Y13759670D01*
X1351729Y13273489D01*
X1237655Y12700000D01*
X1351729Y12126511D01*
X1676585Y11640330D01*
X1991366Y11430000D01*
X1676585Y11219670D01*
X1351729Y10733489D01*
X1237655Y10160000D01*
X1351729Y9586511D01*
X1676585Y9100330D01*
X2162766Y8775474D01*
X2736255Y8661400D01*
X3105745Y8661400D01*
X3679234Y8775474D01*
X4165415Y9100330D01*
X4490271Y9586511D01*
X4604345Y10160000D01*
X4495572Y10706841D01*
X4743979Y10872821D01*
X8089592Y14218434D01*
X8026400Y13900745D01*
X8026400Y13531255D01*
X8140474Y12957766D01*
X8465330Y12471585D01*
X8951511Y12146729D01*
X9525000Y12032655D01*
X10098489Y12146729D01*
X10584670Y12471585D01*
X10795000Y12786366D01*
X11005330Y12471585D01*
X11491511Y12146729D01*
X12065000Y12032655D01*
X12638489Y12146729D01*
X13124670Y12471585D01*
X13331461Y12781069D01*
X13702964Y12365268D01*
X14230209Y12111291D01*
X14245974Y12108642D01*
X14478000Y12229783D01*
X14478000Y13589000D01*
X14458000Y13589000D01*
X14458000Y13843000D01*
X14478000Y13843000D01*
X14478000Y15202217D01*
X14245974Y15323358D01*
X14230209Y15320709D01*
X13702964Y15066732D01*
X13331461Y14650931D01*
X13124670Y14960415D01*
X12638489Y15285271D01*
X12065000Y15399345D01*
X11491511Y15285271D01*
X11005330Y14960415D01*
X10795000Y14645634D01*
X10584670Y14960415D01*
X10098489Y15285271D01*
X9525000Y15399345D01*
X9207311Y15336153D01*
X12653658Y18782500D01*
X20278760Y18782500D01*
X18966580Y17470320D01*
X18746338Y17140707D01*
X18746338Y17140706D01*
X18669000Y16751900D01*
X18669000Y15350764D01*
X18586083Y15335162D01*
X18369959Y15196090D01*
X18224969Y14983890D01*
X18216600Y14942561D01*
X18204670Y14960415D01*
X17718489Y15285271D01*
X17145000Y15399345D01*
X16571511Y15285271D01*
X16085330Y14960415D01*
X15878539Y14650931D01*
X15507036Y15066732D01*
X14979791Y15320709D01*
X14964026Y15323358D01*
X14732000Y15202217D01*
X14732000Y13843000D01*
X14752000Y13843000D01*
X14752000Y13589000D01*
X14732000Y13589000D01*
X14732000Y12229783D01*
X14964026Y12108642D01*
X14979791Y12111291D01*
X15507036Y12365268D01*
X15878539Y12781069D01*
X16085330Y12471585D01*
X16571511Y12146729D01*
X17145000Y12032655D01*
X17718489Y12146729D01*
X18204670Y12471585D01*
X18214243Y12485913D01*
X18218238Y12464683D01*
X18357310Y12248559D01*
X18569510Y12103569D01*
X18669000Y12083422D01*
X18669000Y11794764D01*
X18586083Y11779162D01*
X18369959Y11640090D01*
X18224969Y11427890D01*
X18216600Y11386561D01*
X18204670Y11404415D01*
X17718489Y11729271D01*
X17145000Y11843345D01*
X16571511Y11729271D01*
X16085330Y11404415D01*
X15878539Y11094931D01*
X15507036Y11510732D01*
X14979791Y11764709D01*
X14964026Y11767358D01*
X14732000Y11646217D01*
X14732000Y10287000D01*
X14752000Y10287000D01*
X14752000Y10033000D01*
X14732000Y10033000D01*
X14732000Y8673783D01*
X14964026Y8552642D01*
X14979791Y8555291D01*
X15507036Y8809268D01*
X15878539Y9225069D01*
X16085330Y8915585D01*
X16571511Y8590729D01*
X16661073Y8572914D01*
X13700048Y5611888D01*
X13684162Y5696317D01*
X13545090Y5912441D01*
X13332890Y6057431D01*
X13081000Y6108440D01*
X11416200Y6108440D01*
X11416200Y8432835D01*
X11518159Y8585428D01*
X12065000Y8476655D01*
X12638489Y8590729D01*
X13124670Y8915585D01*
X13331461Y9225069D01*
X13702964Y8809268D01*
X14230209Y8555291D01*
X14245974Y8552642D01*
X14478000Y8673783D01*
X14478000Y10033000D01*
X14458000Y10033000D01*
X14458000Y10287000D01*
X14478000Y10287000D01*
X14478000Y11646217D01*
X14245974Y11767358D01*
X14230209Y11764709D01*
X13702964Y11510732D01*
X13331461Y11094931D01*
X13124670Y11404415D01*
X12638489Y11729271D01*
X12065000Y11843345D01*
X11491511Y11729271D01*
X11005330Y11404415D01*
X10795000Y11089634D01*
X10584670Y11404415D01*
X10098489Y11729271D01*
X9525000Y11843345D01*
X8951511Y11729271D01*
X8465330Y11404415D01*
X8140474Y10918234D01*
X8026400Y10344745D01*
X8026400Y9975255D01*
X8140474Y9401766D01*
X8465330Y8915585D01*
X8951511Y8590729D01*
X9525000Y8476655D01*
X9846200Y8540546D01*
X9846200Y1310300D01*
X9905955Y1009893D01*
X10076121Y755221D01*
X10146342Y685000D01*
X6417467Y685000D01*
X4187235Y1128621D01*
X2353730Y2353730D01*
X1128621Y4187235D01*
X685000Y6417467D01*
X685000Y16229910D01*
X1270000Y16229910D01*
X1270000Y15525750D01*
X1428750Y15367000D01*
X2794000Y15367000D01*
X2794000Y16579850D01*
X3048000Y16579850D01*
X3048000Y15367000D01*
X4413250Y15367000D01*
X4572000Y15525750D01*
X4572000Y16229910D01*
X4475327Y16463299D01*
X4296698Y16641927D01*
X4063309Y16738600D01*
X3206750Y16738600D01*
X3048000Y16579850D01*
X2794000Y16579850D01*
X2635250Y16738600D01*
X1778691Y16738600D01*
X1545302Y16641927D01*
X1366673Y16463299D01*
X1270000Y16229910D01*
X685000Y16229910D01*
X685000Y20270000D01*
X11994053Y20270000D01*
X11773421Y20122579D01*
X11773421Y20122579D01*
G37*
X11773421Y20122579D02*
X4562286Y12911444D01*
X4490271Y13273489D01*
X4165415Y13759670D01*
X4143220Y13774500D01*
X4296698Y13838073D01*
X4475327Y14016701D01*
X4572000Y14250090D01*
X4572000Y14954250D01*
X4413250Y15113000D01*
X3048000Y15113000D01*
X3048000Y15093000D01*
X2794000Y15093000D01*
X2794000Y15113000D01*
X1428750Y15113000D01*
X1270000Y14954250D01*
X1270000Y14250090D01*
X1366673Y14016701D01*
X1545302Y13838073D01*
X1698780Y13774500D01*
X1676585Y13759670D01*
X1351729Y13273489D01*
X1237655Y12700000D01*
X1351729Y12126511D01*
X1676585Y11640330D01*
X1991366Y11430000D01*
X1676585Y11219670D01*
X1351729Y10733489D01*
X1237655Y10160000D01*
X1351729Y9586511D01*
X1676585Y9100330D01*
X2162766Y8775474D01*
X2736255Y8661400D01*
X3105745Y8661400D01*
X3679234Y8775474D01*
X4165415Y9100330D01*
X4490271Y9586511D01*
X4604345Y10160000D01*
X4495572Y10706841D01*
X4743979Y10872821D01*
X8089592Y14218434D01*
X8026400Y13900745D01*
X8026400Y13531255D01*
X8140474Y12957766D01*
X8465330Y12471585D01*
X8951511Y12146729D01*
X9525000Y12032655D01*
X10098489Y12146729D01*
X10584670Y12471585D01*
X10795000Y12786366D01*
X11005330Y12471585D01*
X11491511Y12146729D01*
X12065000Y12032655D01*
X12638489Y12146729D01*
X13124670Y12471585D01*
X13331461Y12781069D01*
X13702964Y12365268D01*
X14230209Y12111291D01*
X14245974Y12108642D01*
X14478000Y12229783D01*
X14478000Y13589000D01*
X14458000Y13589000D01*
X14458000Y13843000D01*
X14478000Y13843000D01*
X14478000Y15202217D01*
X14245974Y15323358D01*
X14230209Y15320709D01*
X13702964Y15066732D01*
X13331461Y14650931D01*
X13124670Y14960415D01*
X12638489Y15285271D01*
X12065000Y15399345D01*
X11491511Y15285271D01*
X11005330Y14960415D01*
X10795000Y14645634D01*
X10584670Y14960415D01*
X10098489Y15285271D01*
X9525000Y15399345D01*
X9207311Y15336153D01*
X12653658Y18782500D01*
X20278760Y18782500D01*
X18966580Y17470320D01*
X18746338Y17140707D01*
X18746338Y17140706D01*
X18669000Y16751900D01*
X18669000Y15350764D01*
X18586083Y15335162D01*
X18369959Y15196090D01*
X18224969Y14983890D01*
X18216600Y14942561D01*
X18204670Y14960415D01*
X17718489Y15285271D01*
X17145000Y15399345D01*
X16571511Y15285271D01*
X16085330Y14960415D01*
X15878539Y14650931D01*
X15507036Y15066732D01*
X14979791Y15320709D01*
X14964026Y15323358D01*
X14732000Y15202217D01*
X14732000Y13843000D01*
X14752000Y13843000D01*
X14752000Y13589000D01*
X14732000Y13589000D01*
X14732000Y12229783D01*
X14964026Y12108642D01*
X14979791Y12111291D01*
X15507036Y12365268D01*
X15878539Y12781069D01*
X16085330Y12471585D01*
X16571511Y12146729D01*
X17145000Y12032655D01*
X17718489Y12146729D01*
X18204670Y12471585D01*
X18214243Y12485913D01*
X18218238Y12464683D01*
X18357310Y12248559D01*
X18569510Y12103569D01*
X18669000Y12083422D01*
X18669000Y11794764D01*
X18586083Y11779162D01*
X18369959Y11640090D01*
X18224969Y11427890D01*
X18216600Y11386561D01*
X18204670Y11404415D01*
X17718489Y11729271D01*
X17145000Y11843345D01*
X16571511Y11729271D01*
X16085330Y11404415D01*
X15878539Y11094931D01*
X15507036Y11510732D01*
X14979791Y11764709D01*
X14964026Y11767358D01*
X14732000Y11646217D01*
X14732000Y10287000D01*
X14752000Y10287000D01*
X14752000Y10033000D01*
X14732000Y10033000D01*
X14732000Y8673783D01*
X14964026Y8552642D01*
X14979791Y8555291D01*
X15507036Y8809268D01*
X15878539Y9225069D01*
X16085330Y8915585D01*
X16571511Y8590729D01*
X16661073Y8572914D01*
X13700048Y5611888D01*
X13684162Y5696317D01*
X13545090Y5912441D01*
X13332890Y6057431D01*
X13081000Y6108440D01*
X11416200Y6108440D01*
X11416200Y8432835D01*
X11518159Y8585428D01*
X12065000Y8476655D01*
X12638489Y8590729D01*
X13124670Y8915585D01*
X13331461Y9225069D01*
X13702964Y8809268D01*
X14230209Y8555291D01*
X14245974Y8552642D01*
X14478000Y8673783D01*
X14478000Y10033000D01*
X14458000Y10033000D01*
X14458000Y10287000D01*
X14478000Y10287000D01*
X14478000Y11646217D01*
X14245974Y11767358D01*
X14230209Y11764709D01*
X13702964Y11510732D01*
X13331461Y11094931D01*
X13124670Y11404415D01*
X12638489Y11729271D01*
X12065000Y11843345D01*
X11491511Y11729271D01*
X11005330Y11404415D01*
X10795000Y11089634D01*
X10584670Y11404415D01*
X10098489Y11729271D01*
X9525000Y11843345D01*
X8951511Y11729271D01*
X8465330Y11404415D01*
X8140474Y10918234D01*
X8026400Y10344745D01*
X8026400Y9975255D01*
X8140474Y9401766D01*
X8465330Y8915585D01*
X8951511Y8590729D01*
X9525000Y8476655D01*
X9846200Y8540546D01*
X9846200Y1310300D01*
X9905955Y1009893D01*
X10076121Y755221D01*
X10146342Y685000D01*
X6417467Y685000D01*
X4187235Y1128621D01*
X2353730Y2353730D01*
X1128621Y4187235D01*
X685000Y6417467D01*
X685000Y16229910D01*
X1270000Y16229910D01*
X1270000Y15525750D01*
X1428750Y15367000D01*
X2794000Y15367000D01*
X2794000Y16579850D01*
X3048000Y16579850D01*
X3048000Y15367000D01*
X4413250Y15367000D01*
X4572000Y15525750D01*
X4572000Y16229910D01*
X4475327Y16463299D01*
X4296698Y16641927D01*
X4063309Y16738600D01*
X3206750Y16738600D01*
X3048000Y16579850D01*
X2794000Y16579850D01*
X2635250Y16738600D01*
X1778691Y16738600D01*
X1545302Y16641927D01*
X1366673Y16463299D01*
X1270000Y16229910D01*
X685000Y16229910D01*
X685000Y20270000D01*
X11994053Y20270000D01*
X11773421Y20122579D01*
G36*
X27432000Y19177000D02*
X27452000Y19177000D01*
X27452000Y18923000D01*
X27432000Y18923000D01*
X27432000Y17563783D01*
X27664026Y17442642D01*
X27679791Y17445291D01*
X28207036Y17699268D01*
X28578539Y18115069D01*
X28785330Y17805585D01*
X29271511Y17480729D01*
X29845000Y17366655D01*
X30418489Y17480729D01*
X30703665Y17671277D01*
X33285821Y15089121D01*
X33540494Y14918955D01*
X33840900Y14859199D01*
X33840905Y14859200D01*
X52075958Y14859200D01*
X51881879Y14729520D01*
X48849980Y11697620D01*
X48740490Y11772431D01*
X48488600Y11823440D01*
X47398400Y11823440D01*
X46692020Y12529820D01*
X46362407Y12750062D01*
X46297900Y12762893D01*
X45973600Y12827400D01*
X35535300Y12827400D01*
X35146494Y12750062D01*
X35146492Y12750061D01*
X35146493Y12750061D01*
X34816879Y12529820D01*
X33791706Y11504646D01*
X33712690Y11627441D01*
X33500490Y11772431D01*
X33248600Y11823440D01*
X31521400Y11823440D01*
X31286083Y11779162D01*
X31069959Y11640090D01*
X30924969Y11427890D01*
X30916600Y11386561D01*
X30904670Y11404415D01*
X30418489Y11729271D01*
X29845000Y11843345D01*
X29271511Y11729271D01*
X28785330Y11404415D01*
X28575000Y11089634D01*
X28364670Y11404415D01*
X27878489Y11729271D01*
X27305000Y11843345D01*
X26731511Y11729271D01*
X26245330Y11404415D01*
X26038539Y11094931D01*
X25667036Y11510732D01*
X25139791Y11764709D01*
X25124026Y11767358D01*
X24892000Y11646217D01*
X24892000Y10287000D01*
X24912000Y10287000D01*
X24912000Y10033000D01*
X24892000Y10033000D01*
X24892000Y8673783D01*
X25124026Y8552642D01*
X25139791Y8555291D01*
X25667036Y8809268D01*
X26038539Y9225069D01*
X26245330Y8915585D01*
X26731511Y8590729D01*
X27305000Y8476655D01*
X27878489Y8590729D01*
X28364670Y8915585D01*
X28575000Y9230366D01*
X28785330Y8915585D01*
X29271511Y8590729D01*
X29361074Y8572914D01*
X28671060Y7882900D01*
X27186900Y7882900D01*
X26862600Y7818393D01*
X26798093Y7805562D01*
X26468480Y7585321D01*
X24841001Y5957841D01*
X24765000Y5972959D01*
X24191511Y5858885D01*
X23705330Y5534029D01*
X23495000Y5219248D01*
X23284670Y5534029D01*
X22798489Y5858885D01*
X22225000Y5972959D01*
X21651511Y5858885D01*
X21165330Y5534029D01*
X20949336Y5210772D01*
X20891821Y5333490D01*
X20459947Y5727688D01*
X20044026Y5899958D01*
X19812000Y5778817D01*
X19812000Y4572000D01*
X19832000Y4572000D01*
X19832000Y4318000D01*
X19812000Y4318000D01*
X19812000Y2032000D01*
X19832000Y2032000D01*
X19832000Y1778000D01*
X19812000Y1778000D01*
X19812000Y1758000D01*
X19558000Y1758000D01*
X19558000Y1778000D01*
X18345150Y1778000D01*
X18186400Y1619250D01*
X18186400Y1255100D01*
X13560403Y1255100D01*
X13670975Y1522056D01*
X13551836Y1778000D01*
X12192000Y1778000D01*
X12192000Y1758000D01*
X11938000Y1758000D01*
X11938000Y1778000D01*
X11918000Y1778000D01*
X11918000Y2032000D01*
X11938000Y2032000D01*
X11938000Y2052000D01*
X12192000Y2052000D01*
X12192000Y2032000D01*
X13551836Y2032000D01*
X13670975Y2287944D01*
X13471385Y2769818D01*
X13380903Y2867398D01*
X13423656Y2894909D01*
X18186400Y2894909D01*
X18186400Y2190750D01*
X18345150Y2032000D01*
X19558000Y2032000D01*
X19558000Y4318000D01*
X18350531Y4318000D01*
X18230032Y4085973D01*
X18478179Y3556510D01*
X18661119Y3389529D01*
X18461701Y3306927D01*
X18283073Y3128298D01*
X18186400Y2894909D01*
X13423656Y2894909D01*
X13532441Y2964910D01*
X13677431Y3177110D01*
X13728440Y3429000D01*
X13970000Y3429000D01*
X14294300Y3493507D01*
X14358807Y3506338D01*
X14688420Y3726580D01*
X15765867Y4804027D01*
X18230032Y4804027D01*
X18350531Y4572000D01*
X19558000Y4572000D01*
X19558000Y5778817D01*
X19325974Y5899958D01*
X18910053Y5727688D01*
X18478179Y5333490D01*
X18230032Y4804027D01*
X15765867Y4804027D01*
X19458401Y8496560D01*
X20548600Y8496560D01*
X20783917Y8540838D01*
X21000041Y8679910D01*
X21145031Y8892110D01*
X21196040Y9144000D01*
X21196040Y9798087D01*
X23279816Y9798087D01*
X23473046Y9245680D01*
X23862964Y8809268D01*
X24390209Y8555291D01*
X24405974Y8552642D01*
X24638000Y8673783D01*
X24638000Y10033000D01*
X23424076Y10033000D01*
X23279816Y9798087D01*
X21196040Y9798087D01*
X21196040Y10521913D01*
X23279816Y10521913D01*
X23424076Y10287000D01*
X24638000Y10287000D01*
X24638000Y11646217D01*
X24405974Y11767358D01*
X24390209Y11764709D01*
X23862964Y11510732D01*
X23473046Y11074320D01*
X23279816Y10521913D01*
X21196040Y10521913D01*
X21196040Y11176000D01*
X21151762Y11411317D01*
X21012690Y11627441D01*
X20800490Y11772431D01*
X20701000Y11792578D01*
X20701000Y12081236D01*
X20783917Y12096838D01*
X21000041Y12235910D01*
X21145031Y12448110D01*
X21196040Y12700000D01*
X21196040Y14732000D01*
X21151762Y14967317D01*
X21012690Y15183441D01*
X20800490Y15328431D01*
X20701000Y15348578D01*
X20701000Y16331060D01*
X23253960Y18884020D01*
X23253960Y18034000D01*
X23298238Y17798683D01*
X23437310Y17582559D01*
X23649510Y17437569D01*
X23901400Y17386560D01*
X25628600Y17386560D01*
X25863917Y17430838D01*
X26080041Y17569910D01*
X26225031Y17782110D01*
X26244232Y17876927D01*
X26402964Y17699268D01*
X26930209Y17445291D01*
X26945974Y17442642D01*
X27178000Y17563783D01*
X27178000Y18923000D01*
X27158000Y18923000D01*
X27158000Y19177000D01*
X27178000Y19177000D01*
X27178000Y19197000D01*
X27432000Y19197000D01*
X27432000Y19177000D01*
X27432000Y19177000D01*
G37*
X27432000Y19177000D02*
X27452000Y19177000D01*
X27452000Y18923000D01*
X27432000Y18923000D01*
X27432000Y17563783D01*
X27664026Y17442642D01*
X27679791Y17445291D01*
X28207036Y17699268D01*
X28578539Y18115069D01*
X28785330Y17805585D01*
X29271511Y17480729D01*
X29845000Y17366655D01*
X30418489Y17480729D01*
X30703665Y17671277D01*
X33285821Y15089121D01*
X33540494Y14918955D01*
X33840900Y14859199D01*
X33840905Y14859200D01*
X52075958Y14859200D01*
X51881879Y14729520D01*
X48849980Y11697620D01*
X48740490Y11772431D01*
X48488600Y11823440D01*
X47398400Y11823440D01*
X46692020Y12529820D01*
X46362407Y12750062D01*
X46297900Y12762893D01*
X45973600Y12827400D01*
X35535300Y12827400D01*
X35146494Y12750062D01*
X35146492Y12750061D01*
X35146493Y12750061D01*
X34816879Y12529820D01*
X33791706Y11504646D01*
X33712690Y11627441D01*
X33500490Y11772431D01*
X33248600Y11823440D01*
X31521400Y11823440D01*
X31286083Y11779162D01*
X31069959Y11640090D01*
X30924969Y11427890D01*
X30916600Y11386561D01*
X30904670Y11404415D01*
X30418489Y11729271D01*
X29845000Y11843345D01*
X29271511Y11729271D01*
X28785330Y11404415D01*
X28575000Y11089634D01*
X28364670Y11404415D01*
X27878489Y11729271D01*
X27305000Y11843345D01*
X26731511Y11729271D01*
X26245330Y11404415D01*
X26038539Y11094931D01*
X25667036Y11510732D01*
X25139791Y11764709D01*
X25124026Y11767358D01*
X24892000Y11646217D01*
X24892000Y10287000D01*
X24912000Y10287000D01*
X24912000Y10033000D01*
X24892000Y10033000D01*
X24892000Y8673783D01*
X25124026Y8552642D01*
X25139791Y8555291D01*
X25667036Y8809268D01*
X26038539Y9225069D01*
X26245330Y8915585D01*
X26731511Y8590729D01*
X27305000Y8476655D01*
X27878489Y8590729D01*
X28364670Y8915585D01*
X28575000Y9230366D01*
X28785330Y8915585D01*
X29271511Y8590729D01*
X29361074Y8572914D01*
X28671060Y7882900D01*
X27186900Y7882900D01*
X26862600Y7818393D01*
X26798093Y7805562D01*
X26468480Y7585321D01*
X24841001Y5957841D01*
X24765000Y5972959D01*
X24191511Y5858885D01*
X23705330Y5534029D01*
X23495000Y5219248D01*
X23284670Y5534029D01*
X22798489Y5858885D01*
X22225000Y5972959D01*
X21651511Y5858885D01*
X21165330Y5534029D01*
X20949336Y5210772D01*
X20891821Y5333490D01*
X20459947Y5727688D01*
X20044026Y5899958D01*
X19812000Y5778817D01*
X19812000Y4572000D01*
X19832000Y4572000D01*
X19832000Y4318000D01*
X19812000Y4318000D01*
X19812000Y2032000D01*
X19832000Y2032000D01*
X19832000Y1778000D01*
X19812000Y1778000D01*
X19812000Y1758000D01*
X19558000Y1758000D01*
X19558000Y1778000D01*
X18345150Y1778000D01*
X18186400Y1619250D01*
X18186400Y1255100D01*
X13560403Y1255100D01*
X13670975Y1522056D01*
X13551836Y1778000D01*
X12192000Y1778000D01*
X12192000Y1758000D01*
X11938000Y1758000D01*
X11938000Y1778000D01*
X11918000Y1778000D01*
X11918000Y2032000D01*
X11938000Y2032000D01*
X11938000Y2052000D01*
X12192000Y2052000D01*
X12192000Y2032000D01*
X13551836Y2032000D01*
X13670975Y2287944D01*
X13471385Y2769818D01*
X13380903Y2867398D01*
X13423656Y2894909D01*
X18186400Y2894909D01*
X18186400Y2190750D01*
X18345150Y2032000D01*
X19558000Y2032000D01*
X19558000Y4318000D01*
X18350531Y4318000D01*
X18230032Y4085973D01*
X18478179Y3556510D01*
X18661119Y3389529D01*
X18461701Y3306927D01*
X18283073Y3128298D01*
X18186400Y2894909D01*
X13423656Y2894909D01*
X13532441Y2964910D01*
X13677431Y3177110D01*
X13728440Y3429000D01*
X13970000Y3429000D01*
X14294300Y3493507D01*
X14358807Y3506338D01*
X14688420Y3726580D01*
X15765867Y4804027D01*
X18230032Y4804027D01*
X18350531Y4572000D01*
X19558000Y4572000D01*
X19558000Y5778817D01*
X19325974Y5899958D01*
X18910053Y5727688D01*
X18478179Y5333490D01*
X18230032Y4804027D01*
X15765867Y4804027D01*
X19458401Y8496560D01*
X20548600Y8496560D01*
X20783917Y8540838D01*
X21000041Y8679910D01*
X21145031Y8892110D01*
X21196040Y9144000D01*
X21196040Y9798087D01*
X23279816Y9798087D01*
X23473046Y9245680D01*
X23862964Y8809268D01*
X24390209Y8555291D01*
X24405974Y8552642D01*
X24638000Y8673783D01*
X24638000Y10033000D01*
X23424076Y10033000D01*
X23279816Y9798087D01*
X21196040Y9798087D01*
X21196040Y10521913D01*
X23279816Y10521913D01*
X23424076Y10287000D01*
X24638000Y10287000D01*
X24638000Y11646217D01*
X24405974Y11767358D01*
X24390209Y11764709D01*
X23862964Y11510732D01*
X23473046Y11074320D01*
X23279816Y10521913D01*
X21196040Y10521913D01*
X21196040Y11176000D01*
X21151762Y11411317D01*
X21012690Y11627441D01*
X20800490Y11772431D01*
X20701000Y11792578D01*
X20701000Y12081236D01*
X20783917Y12096838D01*
X21000041Y12235910D01*
X21145031Y12448110D01*
X21196040Y12700000D01*
X21196040Y14732000D01*
X21151762Y14967317D01*
X21012690Y15183441D01*
X20800490Y15328431D01*
X20701000Y15348578D01*
X20701000Y16331060D01*
X23253960Y18884020D01*
X23253960Y18034000D01*
X23298238Y17798683D01*
X23437310Y17582559D01*
X23649510Y17437569D01*
X23901400Y17386560D01*
X25628600Y17386560D01*
X25863917Y17430838D01*
X26080041Y17569910D01*
X26225031Y17782110D01*
X26244232Y17876927D01*
X26402964Y17699268D01*
X26930209Y17445291D01*
X26945974Y17442642D01*
X27178000Y17563783D01*
X27178000Y18923000D01*
X27158000Y18923000D01*
X27158000Y19177000D01*
X27178000Y19177000D01*
X27178000Y19197000D01*
X27432000Y19197000D01*
X27432000Y19177000D01*
G36*
X73619800Y35028942D02*
X73619800Y17589900D01*
X73679555Y17289493D01*
X73849721Y17034821D01*
X77117715Y13766828D01*
X77076560Y13563600D01*
X77076560Y11836400D01*
X77120838Y11601083D01*
X77259910Y11384959D01*
X77472110Y11239969D01*
X77724000Y11188960D01*
X79756000Y11188960D01*
X79991317Y11233238D01*
X80207441Y11372310D01*
X80328008Y11548765D01*
X80677152Y11315474D01*
X81250641Y11201400D01*
X81309359Y11201400D01*
X81882848Y11315474D01*
X82354356Y11630526D01*
X82418073Y11476701D01*
X82596702Y11298073D01*
X82830091Y11201400D01*
X83534250Y11201400D01*
X83693000Y11360150D01*
X83693000Y12573000D01*
X83947000Y12573000D01*
X83947000Y11360150D01*
X84105750Y11201400D01*
X84809909Y11201400D01*
X85043298Y11298073D01*
X85221927Y11476701D01*
X85318600Y11710090D01*
X85318600Y12414250D01*
X85159850Y12573000D01*
X83947000Y12573000D01*
X83693000Y12573000D01*
X83673000Y12573000D01*
X83673000Y12827000D01*
X83693000Y12827000D01*
X83693000Y15113000D01*
X83947000Y15113000D01*
X83947000Y12827000D01*
X85159850Y12827000D01*
X85318600Y12985750D01*
X85318600Y13689910D01*
X85221927Y13923299D01*
X85043298Y14101927D01*
X84845880Y14183700D01*
X85102688Y14465053D01*
X85274958Y14880974D01*
X85153817Y15113000D01*
X83947000Y15113000D01*
X83693000Y15113000D01*
X83673000Y15113000D01*
X83673000Y15367000D01*
X83693000Y15367000D01*
X83693000Y17653000D01*
X83947000Y17653000D01*
X83947000Y15367000D01*
X85153817Y15367000D01*
X85274958Y15599026D01*
X85102688Y16014947D01*
X84708490Y16446821D01*
X84573687Y16510000D01*
X84708490Y16573179D01*
X85102688Y17005053D01*
X85274958Y17420974D01*
X85153817Y17653000D01*
X83947000Y17653000D01*
X83693000Y17653000D01*
X83673000Y17653000D01*
X83673000Y17907000D01*
X83693000Y17907000D01*
X83693000Y17927000D01*
X83947000Y17927000D01*
X83947000Y17907000D01*
X85153817Y17907000D01*
X85274958Y18139026D01*
X85102688Y18554947D01*
X85039515Y18624157D01*
X85643079Y19227721D01*
X85675000Y19275494D01*
X85675000Y12767467D01*
X84748014Y8107195D01*
X82146397Y4213601D01*
X78252805Y1611986D01*
X76927339Y1348334D01*
X77019968Y1545973D01*
X76899469Y1778000D01*
X75692000Y1778000D01*
X75692000Y1758000D01*
X75438000Y1758000D01*
X75438000Y1778000D01*
X73152000Y1778000D01*
X73152000Y1758000D01*
X72898000Y1758000D01*
X72898000Y1778000D01*
X72878000Y1778000D01*
X72878000Y2032000D01*
X72898000Y2032000D01*
X72898000Y4318000D01*
X73152000Y4318000D01*
X73152000Y2032000D01*
X75438000Y2032000D01*
X75438000Y4318000D01*
X75692000Y4318000D01*
X75692000Y2032000D01*
X76899469Y2032000D01*
X77019968Y2264027D01*
X76771821Y2793490D01*
X76353848Y3175000D01*
X76771821Y3556510D01*
X77019968Y4085973D01*
X76899469Y4318000D01*
X75692000Y4318000D01*
X75438000Y4318000D01*
X73152000Y4318000D01*
X72898000Y4318000D01*
X72878000Y4318000D01*
X72878000Y4572000D01*
X72898000Y4572000D01*
X72898000Y5778817D01*
X73152000Y5778817D01*
X73152000Y4572000D01*
X75438000Y4572000D01*
X75438000Y5778817D01*
X75692000Y5778817D01*
X75692000Y4572000D01*
X76899469Y4572000D01*
X77019968Y4804027D01*
X76771821Y5333490D01*
X76339947Y5727688D01*
X75924026Y5899958D01*
X75692000Y5778817D01*
X75438000Y5778817D01*
X75205974Y5899958D01*
X74790053Y5727688D01*
X74358179Y5333490D01*
X74295000Y5198687D01*
X74231821Y5333490D01*
X73799947Y5727688D01*
X73384026Y5899958D01*
X73152000Y5778817D01*
X72898000Y5778817D01*
X72665974Y5899958D01*
X72250053Y5727688D01*
X71818179Y5333490D01*
X71760664Y5210772D01*
X71544670Y5534029D01*
X71058489Y5858885D01*
X70485000Y5972959D01*
X69911511Y5858885D01*
X69425330Y5534029D01*
X69215000Y5219248D01*
X69004670Y5534029D01*
X68518489Y5858885D01*
X67945000Y5972959D01*
X67371511Y5858885D01*
X66885330Y5534029D01*
X66675000Y5219248D01*
X66464670Y5534029D01*
X65978489Y5858885D01*
X65405000Y5972959D01*
X64831511Y5858885D01*
X64345330Y5534029D01*
X64135000Y5219248D01*
X63924670Y5534029D01*
X63438489Y5858885D01*
X62865000Y5972959D01*
X62291511Y5858885D01*
X61805330Y5534029D01*
X61589336Y5210772D01*
X61531821Y5333490D01*
X61347651Y5501593D01*
X64605793Y8759735D01*
X65030209Y8555291D01*
X65045974Y8552642D01*
X65278000Y8673783D01*
X65278000Y10033000D01*
X65258000Y10033000D01*
X65258000Y10287000D01*
X65278000Y10287000D01*
X65278000Y10307000D01*
X65532000Y10307000D01*
X65532000Y10287000D01*
X65552000Y10287000D01*
X65552000Y10033000D01*
X65532000Y10033000D01*
X65532000Y8673783D01*
X65764026Y8552642D01*
X65779791Y8555291D01*
X66307036Y8809268D01*
X66678539Y9225069D01*
X66885330Y8915585D01*
X67371511Y8590729D01*
X67945000Y8476655D01*
X68518489Y8590729D01*
X69004670Y8915585D01*
X69014243Y8929913D01*
X69018238Y8908683D01*
X69157310Y8692559D01*
X69369510Y8547569D01*
X69621400Y8496560D01*
X71348600Y8496560D01*
X71583917Y8540838D01*
X71800041Y8679910D01*
X71945031Y8892110D01*
X71996040Y9144000D01*
X71996040Y11176000D01*
X71951762Y11411317D01*
X71812690Y11627441D01*
X71600490Y11772431D01*
X71348600Y11823440D01*
X70258401Y11823440D01*
X67352320Y14729520D01*
X67022707Y14949762D01*
X66958200Y14962593D01*
X66633900Y15027100D01*
X59831039Y15027100D01*
X59889555Y15085514D01*
X60039828Y15447412D01*
X60040080Y15736000D01*
X62532800Y15736000D01*
X62833207Y15795755D01*
X62941529Y15868133D01*
X63060069Y15868030D01*
X63422229Y16017671D01*
X63699555Y16294514D01*
X63849828Y16656412D01*
X63849992Y16844700D01*
X65970000Y16844700D01*
X66270407Y16904455D01*
X66525079Y17074621D01*
X67107556Y17657098D01*
X67371511Y17480729D01*
X67945000Y17366655D01*
X68518489Y17480729D01*
X69004670Y17805585D01*
X69211461Y18115069D01*
X69582964Y17699268D01*
X70110209Y17445291D01*
X70125974Y17442642D01*
X70358000Y17563783D01*
X70358000Y18923000D01*
X70612000Y18923000D01*
X70612000Y17563783D01*
X70844026Y17442642D01*
X70859791Y17445291D01*
X71387036Y17699268D01*
X71776954Y18135680D01*
X71970184Y18688087D01*
X71825924Y18923000D01*
X70612000Y18923000D01*
X70358000Y18923000D01*
X70338000Y18923000D01*
X70338000Y19177000D01*
X70358000Y19177000D01*
X70358000Y20536217D01*
X70612000Y20536217D01*
X70612000Y19177000D01*
X71825924Y19177000D01*
X71970184Y19411913D01*
X71776954Y19964320D01*
X71387036Y20400732D01*
X70859791Y20654709D01*
X70844026Y20657358D01*
X70612000Y20536217D01*
X70358000Y20536217D01*
X70125974Y20657358D01*
X70110209Y20654709D01*
X69582964Y20400732D01*
X69211461Y19984931D01*
X69004670Y20294415D01*
X68518489Y20619271D01*
X67945000Y20733345D01*
X67371511Y20619271D01*
X66885330Y20294415D01*
X66675000Y19979634D01*
X66464670Y20294415D01*
X65978489Y20619271D01*
X65405000Y20733345D01*
X64831511Y20619271D01*
X64345330Y20294415D01*
X64135000Y19979634D01*
X63924670Y20294415D01*
X63438489Y20619271D01*
X62865000Y20733345D01*
X62291511Y20619271D01*
X62216266Y20568994D01*
X62216470Y20802969D01*
X62066829Y21165129D01*
X61789986Y21442455D01*
X61428088Y21592728D01*
X61356568Y21592790D01*
X61058502Y21890856D01*
X61198958Y21949035D01*
X61297557Y22215837D01*
X60325000Y23188395D01*
X60310858Y23174252D01*
X60131252Y23353858D01*
X60145395Y23368000D01*
X59172837Y24340557D01*
X59136901Y24327276D01*
X58944351Y24520163D01*
X59352443Y24520163D01*
X60325000Y23547605D01*
X61297557Y24520163D01*
X61198958Y24786965D01*
X60589418Y25013401D01*
X59939623Y24989341D01*
X59451042Y24786965D01*
X59352443Y24520163D01*
X58944351Y24520163D01*
X58712073Y24752846D01*
X58570000Y24811840D01*
X58570000Y25247942D01*
X62080000Y28757942D01*
X62080000Y24812166D01*
X61940345Y24754462D01*
X61512599Y24327461D01*
X61477163Y24340557D01*
X60504605Y23368000D01*
X61477163Y22395443D01*
X61513099Y22408724D01*
X61937927Y21983154D01*
X62538453Y21733794D01*
X63188694Y21733226D01*
X63789655Y21981538D01*
X64249846Y22440927D01*
X64499206Y23041453D01*
X64499774Y23691694D01*
X64251462Y24292655D01*
X63792073Y24752846D01*
X63650000Y24811840D01*
X63650000Y29245442D01*
X65659000Y31254442D01*
X65659000Y24511000D01*
X65667685Y24464841D01*
X65694965Y24422447D01*
X65736590Y24394006D01*
X65786000Y24384000D01*
X72771000Y24384000D01*
X72817159Y24392685D01*
X72859553Y24419965D01*
X72887994Y24461590D01*
X72898000Y24511000D01*
X72898000Y31496000D01*
X72889315Y31542159D01*
X72862035Y31584553D01*
X72820410Y31612994D01*
X72771000Y31623000D01*
X66310266Y31623000D01*
X66525755Y31838114D01*
X66676028Y32200012D01*
X66676370Y32591869D01*
X66526729Y32954029D01*
X66401517Y33079459D01*
X67953402Y34631344D01*
X68220406Y34684455D01*
X68475079Y34854621D01*
X68645245Y35109294D01*
X68703246Y35400885D01*
X68979670Y35585585D01*
X68989243Y35599913D01*
X68993238Y35578683D01*
X69132310Y35362559D01*
X69344510Y35217569D01*
X69596400Y35166560D01*
X71323600Y35166560D01*
X71558917Y35210838D01*
X71775041Y35349910D01*
X71920031Y35562110D01*
X71971040Y35814000D01*
X71971040Y36677702D01*
X73619800Y35028942D01*
X73619800Y35028942D01*
G37*
X73619800Y35028942D02*
X73619800Y17589900D01*
X73679555Y17289493D01*
X73849721Y17034821D01*
X77117715Y13766828D01*
X77076560Y13563600D01*
X77076560Y11836400D01*
X77120838Y11601083D01*
X77259910Y11384959D01*
X77472110Y11239969D01*
X77724000Y11188960D01*
X79756000Y11188960D01*
X79991317Y11233238D01*
X80207441Y11372310D01*
X80328008Y11548765D01*
X80677152Y11315474D01*
X81250641Y11201400D01*
X81309359Y11201400D01*
X81882848Y11315474D01*
X82354356Y11630526D01*
X82418073Y11476701D01*
X82596702Y11298073D01*
X82830091Y11201400D01*
X83534250Y11201400D01*
X83693000Y11360150D01*
X83693000Y12573000D01*
X83947000Y12573000D01*
X83947000Y11360150D01*
X84105750Y11201400D01*
X84809909Y11201400D01*
X85043298Y11298073D01*
X85221927Y11476701D01*
X85318600Y11710090D01*
X85318600Y12414250D01*
X85159850Y12573000D01*
X83947000Y12573000D01*
X83693000Y12573000D01*
X83673000Y12573000D01*
X83673000Y12827000D01*
X83693000Y12827000D01*
X83693000Y15113000D01*
X83947000Y15113000D01*
X83947000Y12827000D01*
X85159850Y12827000D01*
X85318600Y12985750D01*
X85318600Y13689910D01*
X85221927Y13923299D01*
X85043298Y14101927D01*
X84845880Y14183700D01*
X85102688Y14465053D01*
X85274958Y14880974D01*
X85153817Y15113000D01*
X83947000Y15113000D01*
X83693000Y15113000D01*
X83673000Y15113000D01*
X83673000Y15367000D01*
X83693000Y15367000D01*
X83693000Y17653000D01*
X83947000Y17653000D01*
X83947000Y15367000D01*
X85153817Y15367000D01*
X85274958Y15599026D01*
X85102688Y16014947D01*
X84708490Y16446821D01*
X84573687Y16510000D01*
X84708490Y16573179D01*
X85102688Y17005053D01*
X85274958Y17420974D01*
X85153817Y17653000D01*
X83947000Y17653000D01*
X83693000Y17653000D01*
X83673000Y17653000D01*
X83673000Y17907000D01*
X83693000Y17907000D01*
X83693000Y17927000D01*
X83947000Y17927000D01*
X83947000Y17907000D01*
X85153817Y17907000D01*
X85274958Y18139026D01*
X85102688Y18554947D01*
X85039515Y18624157D01*
X85643079Y19227721D01*
X85675000Y19275494D01*
X85675000Y12767467D01*
X84748014Y8107195D01*
X82146397Y4213601D01*
X78252805Y1611986D01*
X76927339Y1348334D01*
X77019968Y1545973D01*
X76899469Y1778000D01*
X75692000Y1778000D01*
X75692000Y1758000D01*
X75438000Y1758000D01*
X75438000Y1778000D01*
X73152000Y1778000D01*
X73152000Y1758000D01*
X72898000Y1758000D01*
X72898000Y1778000D01*
X72878000Y1778000D01*
X72878000Y2032000D01*
X72898000Y2032000D01*
X72898000Y4318000D01*
X73152000Y4318000D01*
X73152000Y2032000D01*
X75438000Y2032000D01*
X75438000Y4318000D01*
X75692000Y4318000D01*
X75692000Y2032000D01*
X76899469Y2032000D01*
X77019968Y2264027D01*
X76771821Y2793490D01*
X76353848Y3175000D01*
X76771821Y3556510D01*
X77019968Y4085973D01*
X76899469Y4318000D01*
X75692000Y4318000D01*
X75438000Y4318000D01*
X73152000Y4318000D01*
X72898000Y4318000D01*
X72878000Y4318000D01*
X72878000Y4572000D01*
X72898000Y4572000D01*
X72898000Y5778817D01*
X73152000Y5778817D01*
X73152000Y4572000D01*
X75438000Y4572000D01*
X75438000Y5778817D01*
X75692000Y5778817D01*
X75692000Y4572000D01*
X76899469Y4572000D01*
X77019968Y4804027D01*
X76771821Y5333490D01*
X76339947Y5727688D01*
X75924026Y5899958D01*
X75692000Y5778817D01*
X75438000Y5778817D01*
X75205974Y5899958D01*
X74790053Y5727688D01*
X74358179Y5333490D01*
X74295000Y5198687D01*
X74231821Y5333490D01*
X73799947Y5727688D01*
X73384026Y5899958D01*
X73152000Y5778817D01*
X72898000Y5778817D01*
X72665974Y5899958D01*
X72250053Y5727688D01*
X71818179Y5333490D01*
X71760664Y5210772D01*
X71544670Y5534029D01*
X71058489Y5858885D01*
X70485000Y5972959D01*
X69911511Y5858885D01*
X69425330Y5534029D01*
X69215000Y5219248D01*
X69004670Y5534029D01*
X68518489Y5858885D01*
X67945000Y5972959D01*
X67371511Y5858885D01*
X66885330Y5534029D01*
X66675000Y5219248D01*
X66464670Y5534029D01*
X65978489Y5858885D01*
X65405000Y5972959D01*
X64831511Y5858885D01*
X64345330Y5534029D01*
X64135000Y5219248D01*
X63924670Y5534029D01*
X63438489Y5858885D01*
X62865000Y5972959D01*
X62291511Y5858885D01*
X61805330Y5534029D01*
X61589336Y5210772D01*
X61531821Y5333490D01*
X61347651Y5501593D01*
X64605793Y8759735D01*
X65030209Y8555291D01*
X65045974Y8552642D01*
X65278000Y8673783D01*
X65278000Y10033000D01*
X65258000Y10033000D01*
X65258000Y10287000D01*
X65278000Y10287000D01*
X65278000Y10307000D01*
X65532000Y10307000D01*
X65532000Y10287000D01*
X65552000Y10287000D01*
X65552000Y10033000D01*
X65532000Y10033000D01*
X65532000Y8673783D01*
X65764026Y8552642D01*
X65779791Y8555291D01*
X66307036Y8809268D01*
X66678539Y9225069D01*
X66885330Y8915585D01*
X67371511Y8590729D01*
X67945000Y8476655D01*
X68518489Y8590729D01*
X69004670Y8915585D01*
X69014243Y8929913D01*
X69018238Y8908683D01*
X69157310Y8692559D01*
X69369510Y8547569D01*
X69621400Y8496560D01*
X71348600Y8496560D01*
X71583917Y8540838D01*
X71800041Y8679910D01*
X71945031Y8892110D01*
X71996040Y9144000D01*
X71996040Y11176000D01*
X71951762Y11411317D01*
X71812690Y11627441D01*
X71600490Y11772431D01*
X71348600Y11823440D01*
X70258401Y11823440D01*
X67352320Y14729520D01*
X67022707Y14949762D01*
X66958200Y14962593D01*
X66633900Y15027100D01*
X59831039Y15027100D01*
X59889555Y15085514D01*
X60039828Y15447412D01*
X60040080Y15736000D01*
X62532800Y15736000D01*
X62833207Y15795755D01*
X62941529Y15868133D01*
X63060069Y15868030D01*
X63422229Y16017671D01*
X63699555Y16294514D01*
X63849828Y16656412D01*
X63849992Y16844700D01*
X65970000Y16844700D01*
X66270407Y16904455D01*
X66525079Y17074621D01*
X67107556Y17657098D01*
X67371511Y17480729D01*
X67945000Y17366655D01*
X68518489Y17480729D01*
X69004670Y17805585D01*
X69211461Y18115069D01*
X69582964Y17699268D01*
X70110209Y17445291D01*
X70125974Y17442642D01*
X70358000Y17563783D01*
X70358000Y18923000D01*
X70612000Y18923000D01*
X70612000Y17563783D01*
X70844026Y17442642D01*
X70859791Y17445291D01*
X71387036Y17699268D01*
X71776954Y18135680D01*
X71970184Y18688087D01*
X71825924Y18923000D01*
X70612000Y18923000D01*
X70358000Y18923000D01*
X70338000Y18923000D01*
X70338000Y19177000D01*
X70358000Y19177000D01*
X70358000Y20536217D01*
X70612000Y20536217D01*
X70612000Y19177000D01*
X71825924Y19177000D01*
X71970184Y19411913D01*
X71776954Y19964320D01*
X71387036Y20400732D01*
X70859791Y20654709D01*
X70844026Y20657358D01*
X70612000Y20536217D01*
X70358000Y20536217D01*
X70125974Y20657358D01*
X70110209Y20654709D01*
X69582964Y20400732D01*
X69211461Y19984931D01*
X69004670Y20294415D01*
X68518489Y20619271D01*
X67945000Y20733345D01*
X67371511Y20619271D01*
X66885330Y20294415D01*
X66675000Y19979634D01*
X66464670Y20294415D01*
X65978489Y20619271D01*
X65405000Y20733345D01*
X64831511Y20619271D01*
X64345330Y20294415D01*
X64135000Y19979634D01*
X63924670Y20294415D01*
X63438489Y20619271D01*
X62865000Y20733345D01*
X62291511Y20619271D01*
X62216266Y20568994D01*
X62216470Y20802969D01*
X62066829Y21165129D01*
X61789986Y21442455D01*
X61428088Y21592728D01*
X61356568Y21592790D01*
X61058502Y21890856D01*
X61198958Y21949035D01*
X61297557Y22215837D01*
X60325000Y23188395D01*
X60310858Y23174252D01*
X60131252Y23353858D01*
X60145395Y23368000D01*
X59172837Y24340557D01*
X59136901Y24327276D01*
X58944351Y24520163D01*
X59352443Y24520163D01*
X60325000Y23547605D01*
X61297557Y24520163D01*
X61198958Y24786965D01*
X60589418Y25013401D01*
X59939623Y24989341D01*
X59451042Y24786965D01*
X59352443Y24520163D01*
X58944351Y24520163D01*
X58712073Y24752846D01*
X58570000Y24811840D01*
X58570000Y25247942D01*
X62080000Y28757942D01*
X62080000Y24812166D01*
X61940345Y24754462D01*
X61512599Y24327461D01*
X61477163Y24340557D01*
X60504605Y23368000D01*
X61477163Y22395443D01*
X61513099Y22408724D01*
X61937927Y21983154D01*
X62538453Y21733794D01*
X63188694Y21733226D01*
X63789655Y21981538D01*
X64249846Y22440927D01*
X64499206Y23041453D01*
X64499774Y23691694D01*
X64251462Y24292655D01*
X63792073Y24752846D01*
X63650000Y24811840D01*
X63650000Y29245442D01*
X65659000Y31254442D01*
X65659000Y24511000D01*
X65667685Y24464841D01*
X65694965Y24422447D01*
X65736590Y24394006D01*
X65786000Y24384000D01*
X72771000Y24384000D01*
X72817159Y24392685D01*
X72859553Y24419965D01*
X72887994Y24461590D01*
X72898000Y24511000D01*
X72898000Y31496000D01*
X72889315Y31542159D01*
X72862035Y31584553D01*
X72820410Y31612994D01*
X72771000Y31623000D01*
X66310266Y31623000D01*
X66525755Y31838114D01*
X66676028Y32200012D01*
X66676370Y32591869D01*
X66526729Y32954029D01*
X66401517Y33079459D01*
X67953402Y34631344D01*
X68220406Y34684455D01*
X68475079Y34854621D01*
X68645245Y35109294D01*
X68703246Y35400885D01*
X68979670Y35585585D01*
X68989243Y35599913D01*
X68993238Y35578683D01*
X69132310Y35362559D01*
X69344510Y35217569D01*
X69596400Y35166560D01*
X71323600Y35166560D01*
X71558917Y35210838D01*
X71775041Y35349910D01*
X71920031Y35562110D01*
X71971040Y35814000D01*
X71971040Y36677702D01*
X73619800Y35028942D01*
G36*
X60452000Y4572000D02*
X60472000Y4572000D01*
X60472000Y4318000D01*
X60452000Y4318000D01*
X60452000Y4298000D01*
X60198000Y4298000D01*
X60198000Y4318000D01*
X60178000Y4318000D01*
X60178000Y4572000D01*
X60198000Y4572000D01*
X60198000Y4592000D01*
X60452000Y4592000D01*
X60452000Y4572000D01*
X60452000Y4572000D01*
G37*
X60452000Y4572000D02*
X60472000Y4572000D01*
X60472000Y4318000D01*
X60452000Y4318000D01*
X60452000Y4298000D01*
X60198000Y4298000D01*
X60198000Y4318000D01*
X60178000Y4318000D01*
X60178000Y4572000D01*
X60198000Y4572000D01*
X60198000Y4592000D01*
X60452000Y4592000D01*
X60452000Y4572000D01*
G36*
X35966400Y10344745D02*
X35966400Y9975255D01*
X36080474Y9401766D01*
X36405330Y8915585D01*
X36891511Y8590729D01*
X37465000Y8476655D01*
X38038489Y8590729D01*
X38524670Y8915585D01*
X38735000Y9230366D01*
X38945330Y8915585D01*
X39431511Y8590729D01*
X40005000Y8476655D01*
X40578489Y8590729D01*
X41064670Y8915585D01*
X41271461Y9225069D01*
X41642964Y8809268D01*
X42170209Y8555291D01*
X42185974Y8552642D01*
X42418000Y8673783D01*
X42418000Y10033000D01*
X42398000Y10033000D01*
X42398000Y10287000D01*
X42418000Y10287000D01*
X42418000Y10307000D01*
X42672000Y10307000D01*
X42672000Y10287000D01*
X42692000Y10287000D01*
X42692000Y10033000D01*
X42672000Y10033000D01*
X42672000Y8673783D01*
X42904026Y8552642D01*
X42919791Y8555291D01*
X43447036Y8809268D01*
X43818539Y9225069D01*
X44025330Y8915585D01*
X44134031Y8842953D01*
X44079693Y8832145D01*
X43825021Y8661979D01*
X40844311Y5681269D01*
X40578489Y5858885D01*
X40005000Y5972959D01*
X39431511Y5858885D01*
X38945330Y5534029D01*
X38735000Y5219248D01*
X38524670Y5534029D01*
X38038489Y5858885D01*
X37465000Y5972959D01*
X36891511Y5858885D01*
X36405330Y5534029D01*
X36195000Y5219248D01*
X35984670Y5534029D01*
X35498489Y5858885D01*
X34925000Y5972959D01*
X34351511Y5858885D01*
X33865330Y5534029D01*
X33655000Y5219248D01*
X33444670Y5534029D01*
X32958489Y5858885D01*
X32385000Y5972959D01*
X31811511Y5858885D01*
X31325330Y5534029D01*
X31115000Y5219248D01*
X30904670Y5534029D01*
X30418489Y5858885D01*
X29845000Y5972959D01*
X29271511Y5858885D01*
X28785330Y5534029D01*
X28575000Y5219248D01*
X28364670Y5534029D01*
X27890439Y5850900D01*
X29091900Y5850900D01*
X29416200Y5915407D01*
X29480707Y5928238D01*
X29810320Y6148480D01*
X32158401Y8496560D01*
X33248600Y8496560D01*
X33483917Y8540838D01*
X33700041Y8679910D01*
X33845031Y8892110D01*
X33896040Y9144000D01*
X33896040Y9146415D01*
X34208200Y9208507D01*
X34272707Y9221338D01*
X34602320Y9441580D01*
X35956141Y10795400D01*
X36056041Y10795400D01*
X35966400Y10344745D01*
X35966400Y10344745D01*
G37*
X35966400Y10344745D02*
X35966400Y9975255D01*
X36080474Y9401766D01*
X36405330Y8915585D01*
X36891511Y8590729D01*
X37465000Y8476655D01*
X38038489Y8590729D01*
X38524670Y8915585D01*
X38735000Y9230366D01*
X38945330Y8915585D01*
X39431511Y8590729D01*
X40005000Y8476655D01*
X40578489Y8590729D01*
X41064670Y8915585D01*
X41271461Y9225069D01*
X41642964Y8809268D01*
X42170209Y8555291D01*
X42185974Y8552642D01*
X42418000Y8673783D01*
X42418000Y10033000D01*
X42398000Y10033000D01*
X42398000Y10287000D01*
X42418000Y10287000D01*
X42418000Y10307000D01*
X42672000Y10307000D01*
X42672000Y10287000D01*
X42692000Y10287000D01*
X42692000Y10033000D01*
X42672000Y10033000D01*
X42672000Y8673783D01*
X42904026Y8552642D01*
X42919791Y8555291D01*
X43447036Y8809268D01*
X43818539Y9225069D01*
X44025330Y8915585D01*
X44134031Y8842953D01*
X44079693Y8832145D01*
X43825021Y8661979D01*
X40844311Y5681269D01*
X40578489Y5858885D01*
X40005000Y5972959D01*
X39431511Y5858885D01*
X38945330Y5534029D01*
X38735000Y5219248D01*
X38524670Y5534029D01*
X38038489Y5858885D01*
X37465000Y5972959D01*
X36891511Y5858885D01*
X36405330Y5534029D01*
X36195000Y5219248D01*
X35984670Y5534029D01*
X35498489Y5858885D01*
X34925000Y5972959D01*
X34351511Y5858885D01*
X33865330Y5534029D01*
X33655000Y5219248D01*
X33444670Y5534029D01*
X32958489Y5858885D01*
X32385000Y5972959D01*
X31811511Y5858885D01*
X31325330Y5534029D01*
X31115000Y5219248D01*
X30904670Y5534029D01*
X30418489Y5858885D01*
X29845000Y5972959D01*
X29271511Y5858885D01*
X28785330Y5534029D01*
X28575000Y5219248D01*
X28364670Y5534029D01*
X27890439Y5850900D01*
X29091900Y5850900D01*
X29416200Y5915407D01*
X29480707Y5928238D01*
X29810320Y6148480D01*
X32158401Y8496560D01*
X33248600Y8496560D01*
X33483917Y8540838D01*
X33700041Y8679910D01*
X33845031Y8892110D01*
X33896040Y9144000D01*
X33896040Y9146415D01*
X34208200Y9208507D01*
X34272707Y9221338D01*
X34602320Y9441580D01*
X35956141Y10795400D01*
X36056041Y10795400D01*
X35966400Y10344745D01*
G36*
X52944559Y18414700D02*
X49014554Y18414700D01*
X49110184Y18688087D01*
X48965924Y18923000D01*
X47752000Y18923000D01*
X47752000Y18903000D01*
X47498000Y18903000D01*
X47498000Y18923000D01*
X47478000Y18923000D01*
X47478000Y19177000D01*
X47498000Y19177000D01*
X47498000Y20536217D01*
X47752000Y20536217D01*
X47752000Y19177000D01*
X48965924Y19177000D01*
X49110184Y19411913D01*
X48916954Y19964320D01*
X48527036Y20400732D01*
X47999791Y20654709D01*
X47984026Y20657358D01*
X47752000Y20536217D01*
X47498000Y20536217D01*
X47265974Y20657358D01*
X47250209Y20654709D01*
X46722964Y20400732D01*
X46351461Y19984931D01*
X46144670Y20294415D01*
X45658489Y20619271D01*
X45166669Y20717100D01*
X50642160Y20717100D01*
X52944559Y18414700D01*
X52944559Y18414700D01*
G37*
X52944559Y18414700D02*
X49014554Y18414700D01*
X49110184Y18688087D01*
X48965924Y18923000D01*
X47752000Y18923000D01*
X47752000Y18903000D01*
X47498000Y18903000D01*
X47498000Y18923000D01*
X47478000Y18923000D01*
X47478000Y19177000D01*
X47498000Y19177000D01*
X47498000Y20536217D01*
X47752000Y20536217D01*
X47752000Y19177000D01*
X48965924Y19177000D01*
X49110184Y19411913D01*
X48916954Y19964320D01*
X48527036Y20400732D01*
X47999791Y20654709D01*
X47984026Y20657358D01*
X47752000Y20536217D01*
X47498000Y20536217D01*
X47265974Y20657358D01*
X47250209Y20654709D01*
X46722964Y20400732D01*
X46351461Y19984931D01*
X46144670Y20294415D01*
X45658489Y20619271D01*
X45166669Y20717100D01*
X50642160Y20717100D01*
X52944559Y18414700D01*
G36*
X54317927Y21983154D02*
X54918453Y21733794D01*
X55568694Y21733226D01*
X55710870Y21791972D01*
X56119521Y21383321D01*
X56374194Y21213155D01*
X56674600Y21153400D01*
X59575642Y21153400D01*
X60050332Y20678710D01*
X59841563Y20637184D01*
X59615686Y20863455D01*
X59253788Y21013728D01*
X58861931Y21014070D01*
X58499771Y20864429D01*
X58247407Y20612504D01*
X58159791Y20654709D01*
X58144026Y20657358D01*
X57912000Y20536217D01*
X57912000Y19177000D01*
X57932000Y19177000D01*
X57932000Y18923000D01*
X57912000Y18923000D01*
X57912000Y18903000D01*
X57658000Y18903000D01*
X57658000Y18923000D01*
X57638000Y18923000D01*
X57638000Y19177000D01*
X57658000Y19177000D01*
X57658000Y20536217D01*
X57425974Y20657358D01*
X57410209Y20654709D01*
X56882964Y20400732D01*
X56726093Y20225155D01*
X56711762Y20301317D01*
X56572690Y20517441D01*
X56360490Y20662431D01*
X56108600Y20713440D01*
X54381400Y20713440D01*
X54146083Y20669162D01*
X53929959Y20530090D01*
X53837772Y20395169D01*
X52499252Y21733688D01*
X53028694Y21733226D01*
X53629655Y21981538D01*
X53975199Y22326480D01*
X54317927Y21983154D01*
X54317927Y21983154D01*
G37*
X54317927Y21983154D02*
X54918453Y21733794D01*
X55568694Y21733226D01*
X55710870Y21791972D01*
X56119521Y21383321D01*
X56374194Y21213155D01*
X56674600Y21153400D01*
X59575642Y21153400D01*
X60050332Y20678710D01*
X59841563Y20637184D01*
X59615686Y20863455D01*
X59253788Y21013728D01*
X58861931Y21014070D01*
X58499771Y20864429D01*
X58247407Y20612504D01*
X58159791Y20654709D01*
X58144026Y20657358D01*
X57912000Y20536217D01*
X57912000Y19177000D01*
X57932000Y19177000D01*
X57932000Y18923000D01*
X57912000Y18923000D01*
X57912000Y18903000D01*
X57658000Y18903000D01*
X57658000Y18923000D01*
X57638000Y18923000D01*
X57638000Y19177000D01*
X57658000Y19177000D01*
X57658000Y20536217D01*
X57425974Y20657358D01*
X57410209Y20654709D01*
X56882964Y20400732D01*
X56726093Y20225155D01*
X56711762Y20301317D01*
X56572690Y20517441D01*
X56360490Y20662431D01*
X56108600Y20713440D01*
X54381400Y20713440D01*
X54146083Y20669162D01*
X53929959Y20530090D01*
X53837772Y20395169D01*
X52499252Y21733688D01*
X53028694Y21733226D01*
X53629655Y21981538D01*
X53975199Y22326480D01*
X54317927Y21983154D01*
G36*
X29271511Y20619271D02*
X28785330Y20294415D01*
X28578539Y19984931D01*
X28207036Y20400732D01*
X27765340Y20613499D01*
X27868941Y20717100D01*
X29763331Y20717100D01*
X29271511Y20619271D01*
X29271511Y20619271D01*
G37*
X29271511Y20619271D02*
X28785330Y20294415D01*
X28578539Y19984931D01*
X28207036Y20400732D01*
X27765340Y20613499D01*
X27868941Y20717100D01*
X29763331Y20717100D01*
X29271511Y20619271D01*
G36*
X84303000Y45308142D02*
X84303000Y42036865D01*
X84179027Y42094968D01*
X83947000Y41974469D01*
X83947000Y40767000D01*
X83967000Y40767000D01*
X83967000Y40513000D01*
X83947000Y40513000D01*
X83947000Y38227000D01*
X83967000Y38227000D01*
X83967000Y37973000D01*
X83947000Y37973000D01*
X83947000Y35687000D01*
X83967000Y35687000D01*
X83967000Y35433000D01*
X83947000Y35433000D01*
X83947000Y33147000D01*
X83967000Y33147000D01*
X83967000Y32893000D01*
X83947000Y32893000D01*
X83947000Y30607000D01*
X83967000Y30607000D01*
X83967000Y30353000D01*
X83947000Y30353000D01*
X83947000Y28067000D01*
X83967000Y28067000D01*
X83967000Y27813000D01*
X83947000Y27813000D01*
X83947000Y25527000D01*
X83967000Y25527000D01*
X83967000Y25273000D01*
X83947000Y25273000D01*
X83947000Y22987000D01*
X83967000Y22987000D01*
X83967000Y22733000D01*
X83947000Y22733000D01*
X83947000Y20447000D01*
X83967000Y20447000D01*
X83967000Y20193000D01*
X83947000Y20193000D01*
X83947000Y20173000D01*
X83693000Y20173000D01*
X83693000Y20193000D01*
X83673000Y20193000D01*
X83673000Y20447000D01*
X83693000Y20447000D01*
X83693000Y22733000D01*
X83673000Y22733000D01*
X83673000Y22987000D01*
X83693000Y22987000D01*
X83693000Y25273000D01*
X83673000Y25273000D01*
X83673000Y25527000D01*
X83693000Y25527000D01*
X83693000Y27813000D01*
X83673000Y27813000D01*
X83673000Y28067000D01*
X83693000Y28067000D01*
X83693000Y30353000D01*
X83673000Y30353000D01*
X83673000Y30607000D01*
X83693000Y30607000D01*
X83693000Y32893000D01*
X83673000Y32893000D01*
X83673000Y33147000D01*
X83693000Y33147000D01*
X83693000Y35433000D01*
X83673000Y35433000D01*
X83673000Y35687000D01*
X83693000Y35687000D01*
X83693000Y37973000D01*
X83673000Y37973000D01*
X83673000Y38227000D01*
X83693000Y38227000D01*
X83693000Y40513000D01*
X83673000Y40513000D01*
X83673000Y40767000D01*
X83693000Y40767000D01*
X83693000Y41974469D01*
X83460973Y42094968D01*
X83333000Y42034990D01*
X83333000Y45145400D01*
X83289454Y45364320D01*
X83273245Y45445807D01*
X83103079Y45700479D01*
X80353647Y48449911D01*
X80391000Y48540090D01*
X80391000Y49220142D01*
X84303000Y45308142D01*
X84303000Y45308142D01*
G37*
X84303000Y45308142D02*
X84303000Y42036865D01*
X84179027Y42094968D01*
X83947000Y41974469D01*
X83947000Y40767000D01*
X83967000Y40767000D01*
X83967000Y40513000D01*
X83947000Y40513000D01*
X83947000Y38227000D01*
X83967000Y38227000D01*
X83967000Y37973000D01*
X83947000Y37973000D01*
X83947000Y35687000D01*
X83967000Y35687000D01*
X83967000Y35433000D01*
X83947000Y35433000D01*
X83947000Y33147000D01*
X83967000Y33147000D01*
X83967000Y32893000D01*
X83947000Y32893000D01*
X83947000Y30607000D01*
X83967000Y30607000D01*
X83967000Y30353000D01*
X83947000Y30353000D01*
X83947000Y28067000D01*
X83967000Y28067000D01*
X83967000Y27813000D01*
X83947000Y27813000D01*
X83947000Y25527000D01*
X83967000Y25527000D01*
X83967000Y25273000D01*
X83947000Y25273000D01*
X83947000Y22987000D01*
X83967000Y22987000D01*
X83967000Y22733000D01*
X83947000Y22733000D01*
X83947000Y20447000D01*
X83967000Y20447000D01*
X83967000Y20193000D01*
X83947000Y20193000D01*
X83947000Y20173000D01*
X83693000Y20173000D01*
X83693000Y20193000D01*
X83673000Y20193000D01*
X83673000Y20447000D01*
X83693000Y20447000D01*
X83693000Y22733000D01*
X83673000Y22733000D01*
X83673000Y22987000D01*
X83693000Y22987000D01*
X83693000Y25273000D01*
X83673000Y25273000D01*
X83673000Y25527000D01*
X83693000Y25527000D01*
X83693000Y27813000D01*
X83673000Y27813000D01*
X83673000Y28067000D01*
X83693000Y28067000D01*
X83693000Y30353000D01*
X83673000Y30353000D01*
X83673000Y30607000D01*
X83693000Y30607000D01*
X83693000Y32893000D01*
X83673000Y32893000D01*
X83673000Y33147000D01*
X83693000Y33147000D01*
X83693000Y35433000D01*
X83673000Y35433000D01*
X83673000Y35687000D01*
X83693000Y35687000D01*
X83693000Y37973000D01*
X83673000Y37973000D01*
X83673000Y38227000D01*
X83693000Y38227000D01*
X83693000Y40513000D01*
X83673000Y40513000D01*
X83673000Y40767000D01*
X83693000Y40767000D01*
X83693000Y41974469D01*
X83460973Y42094968D01*
X83333000Y42034990D01*
X83333000Y45145400D01*
X83289454Y45364320D01*
X83273245Y45445807D01*
X83103079Y45700479D01*
X80353647Y48449911D01*
X80391000Y48540090D01*
X80391000Y49220142D01*
X84303000Y45308142D01*
G36*
X41688780Y34676279D02*
X42018393Y34456038D01*
X42407200Y34378700D01*
X51288441Y34378700D01*
X51070794Y33854547D01*
X51070226Y33204306D01*
X51318538Y32603345D01*
X51777927Y32143154D01*
X52378453Y31893794D01*
X53028694Y31893226D01*
X53170870Y31951972D01*
X53554421Y31568421D01*
X53809093Y31398255D01*
X54109500Y31338500D01*
X62440242Y31338500D01*
X57229921Y26128179D01*
X57059755Y25873507D01*
X57017861Y25662894D01*
X57000000Y25573100D01*
X57000000Y24812166D01*
X56860345Y24754462D01*
X56514801Y24409520D01*
X56172073Y24752846D01*
X55571547Y25002206D01*
X54921306Y25002774D01*
X54320345Y24754462D01*
X53974801Y24409520D01*
X53632073Y24752846D01*
X53031547Y25002206D01*
X52381306Y25002774D01*
X51780345Y24754462D01*
X51320154Y24295073D01*
X51070794Y23694547D01*
X51070226Y23044306D01*
X51203773Y22721099D01*
X51063000Y22749100D01*
X37194258Y22749100D01*
X39538900Y25093742D01*
X39678453Y25035794D01*
X40328694Y25035226D01*
X40929655Y25283538D01*
X41389846Y25742927D01*
X41639206Y26343453D01*
X41639774Y26993694D01*
X41391462Y27594655D01*
X40932073Y28054846D01*
X40331547Y28304206D01*
X39681306Y28304774D01*
X39080345Y28056462D01*
X38652599Y27629461D01*
X38617163Y27642557D01*
X37644605Y26670000D01*
X37658748Y26655858D01*
X37479142Y26476252D01*
X37465000Y26490395D01*
X36492443Y25517837D01*
X36591042Y25251035D01*
X37200582Y25024599D01*
X37251320Y25026478D01*
X36006842Y23782000D01*
X29641255Y23782000D01*
X29591786Y23831555D01*
X29229888Y23981828D01*
X28838031Y23982170D01*
X28475871Y23832529D01*
X28198545Y23555686D01*
X28048272Y23193788D01*
X28047930Y22801931D01*
X28069759Y22749100D01*
X27448100Y22749100D01*
X27059294Y22671762D01*
X27015882Y22642755D01*
X27006279Y22636338D01*
X29405641Y25035700D01*
X29454600Y25035700D01*
X29778900Y25100207D01*
X29843407Y25113038D01*
X30173020Y25333280D01*
X30877652Y26037912D01*
X30998538Y25745345D01*
X31457927Y25285154D01*
X32058453Y25035794D01*
X32708694Y25035226D01*
X33309655Y25283538D01*
X33655199Y25628480D01*
X33997927Y25285154D01*
X34598453Y25035794D01*
X35248694Y25035226D01*
X35849655Y25283538D01*
X36277401Y25710539D01*
X36312837Y25697443D01*
X37285395Y26670000D01*
X36312837Y27642557D01*
X36276901Y27629276D01*
X36084351Y27822163D01*
X36492443Y27822163D01*
X37465000Y26849605D01*
X38437557Y27822163D01*
X38338958Y28088965D01*
X37729418Y28315401D01*
X37079623Y28291341D01*
X36591042Y28088965D01*
X36492443Y27822163D01*
X36084351Y27822163D01*
X35852073Y28054846D01*
X35251547Y28304206D01*
X34601306Y28304774D01*
X34000345Y28056462D01*
X33654801Y27711520D01*
X33312073Y28054846D01*
X33017079Y28177338D01*
X33244921Y28405180D01*
X33465162Y28734793D01*
X33542500Y29123600D01*
X33542500Y31175000D01*
X37678100Y31175000D01*
X38002400Y31239507D01*
X38066907Y31252338D01*
X38396520Y31472580D01*
X41086940Y34163000D01*
X42926000Y34163000D01*
X42926000Y27178000D01*
X42934685Y27131841D01*
X42961965Y27089447D01*
X43003590Y27061006D01*
X43053000Y27051000D01*
X50038000Y27051000D01*
X50084159Y27059685D01*
X50126553Y27086965D01*
X50154994Y27128590D01*
X50165000Y27178000D01*
X50165000Y34163000D01*
X50156315Y34209159D01*
X50129035Y34251553D01*
X50087410Y34279994D01*
X50038000Y34290000D01*
X43053000Y34290000D01*
X43006841Y34281315D01*
X42964447Y34254035D01*
X42936006Y34212410D01*
X42926000Y34163000D01*
X41086940Y34163000D01*
X41644500Y34720559D01*
X41688780Y34676279D01*
X41688780Y34676279D01*
G37*
X41688780Y34676279D02*
X42018393Y34456038D01*
X42407200Y34378700D01*
X51288441Y34378700D01*
X51070794Y33854547D01*
X51070226Y33204306D01*
X51318538Y32603345D01*
X51777927Y32143154D01*
X52378453Y31893794D01*
X53028694Y31893226D01*
X53170870Y31951972D01*
X53554421Y31568421D01*
X53809093Y31398255D01*
X54109500Y31338500D01*
X62440242Y31338500D01*
X57229921Y26128179D01*
X57059755Y25873507D01*
X57017861Y25662894D01*
X57000000Y25573100D01*
X57000000Y24812166D01*
X56860345Y24754462D01*
X56514801Y24409520D01*
X56172073Y24752846D01*
X55571547Y25002206D01*
X54921306Y25002774D01*
X54320345Y24754462D01*
X53974801Y24409520D01*
X53632073Y24752846D01*
X53031547Y25002206D01*
X52381306Y25002774D01*
X51780345Y24754462D01*
X51320154Y24295073D01*
X51070794Y23694547D01*
X51070226Y23044306D01*
X51203773Y22721099D01*
X51063000Y22749100D01*
X37194258Y22749100D01*
X39538900Y25093742D01*
X39678453Y25035794D01*
X40328694Y25035226D01*
X40929655Y25283538D01*
X41389846Y25742927D01*
X41639206Y26343453D01*
X41639774Y26993694D01*
X41391462Y27594655D01*
X40932073Y28054846D01*
X40331547Y28304206D01*
X39681306Y28304774D01*
X39080345Y28056462D01*
X38652599Y27629461D01*
X38617163Y27642557D01*
X37644605Y26670000D01*
X37658748Y26655858D01*
X37479142Y26476252D01*
X37465000Y26490395D01*
X36492443Y25517837D01*
X36591042Y25251035D01*
X37200582Y25024599D01*
X37251320Y25026478D01*
X36006842Y23782000D01*
X29641255Y23782000D01*
X29591786Y23831555D01*
X29229888Y23981828D01*
X28838031Y23982170D01*
X28475871Y23832529D01*
X28198545Y23555686D01*
X28048272Y23193788D01*
X28047930Y22801931D01*
X28069759Y22749100D01*
X27448100Y22749100D01*
X27059294Y22671762D01*
X27015882Y22642755D01*
X27006279Y22636338D01*
X29405641Y25035700D01*
X29454600Y25035700D01*
X29778900Y25100207D01*
X29843407Y25113038D01*
X30173020Y25333280D01*
X30877652Y26037912D01*
X30998538Y25745345D01*
X31457927Y25285154D01*
X32058453Y25035794D01*
X32708694Y25035226D01*
X33309655Y25283538D01*
X33655199Y25628480D01*
X33997927Y25285154D01*
X34598453Y25035794D01*
X35248694Y25035226D01*
X35849655Y25283538D01*
X36277401Y25710539D01*
X36312837Y25697443D01*
X37285395Y26670000D01*
X36312837Y27642557D01*
X36276901Y27629276D01*
X36084351Y27822163D01*
X36492443Y27822163D01*
X37465000Y26849605D01*
X38437557Y27822163D01*
X38338958Y28088965D01*
X37729418Y28315401D01*
X37079623Y28291341D01*
X36591042Y28088965D01*
X36492443Y27822163D01*
X36084351Y27822163D01*
X35852073Y28054846D01*
X35251547Y28304206D01*
X34601306Y28304774D01*
X34000345Y28056462D01*
X33654801Y27711520D01*
X33312073Y28054846D01*
X33017079Y28177338D01*
X33244921Y28405180D01*
X33465162Y28734793D01*
X33542500Y29123600D01*
X33542500Y31175000D01*
X37678100Y31175000D01*
X38002400Y31239507D01*
X38066907Y31252338D01*
X38396520Y31472580D01*
X41086940Y34163000D01*
X42926000Y34163000D01*
X42926000Y27178000D01*
X42934685Y27131841D01*
X42961965Y27089447D01*
X43003590Y27061006D01*
X43053000Y27051000D01*
X50038000Y27051000D01*
X50084159Y27059685D01*
X50126553Y27086965D01*
X50154994Y27128590D01*
X50165000Y27178000D01*
X50165000Y34163000D01*
X50156315Y34209159D01*
X50129035Y34251553D01*
X50087410Y34279994D01*
X50038000Y34290000D01*
X43053000Y34290000D01*
X43006841Y34281315D01*
X42964447Y34254035D01*
X42936006Y34212410D01*
X42926000Y34163000D01*
X41086940Y34163000D01*
X41644500Y34720559D01*
X41688780Y34676279D01*
G36*
X21165330Y43205585D02*
X21209000Y43176406D01*
X21209000Y42798700D01*
X21259890Y42542857D01*
X21286338Y42409893D01*
X21506580Y42080280D01*
X22563380Y41023479D01*
X22892993Y40803238D01*
X22957500Y40790407D01*
X23281800Y40725900D01*
X34756900Y40725900D01*
X35081200Y40790407D01*
X35145707Y40803238D01*
X35475320Y41023480D01*
X37259393Y42807553D01*
X37465000Y42766655D01*
X38038489Y42880729D01*
X38524670Y43205585D01*
X38534243Y43219913D01*
X38538238Y43198683D01*
X38677310Y42982559D01*
X38889510Y42837569D01*
X38989000Y42817422D01*
X38989000Y42798700D01*
X39039890Y42542857D01*
X39066338Y42409893D01*
X39286580Y42080280D01*
X40628500Y40738359D01*
X40628500Y38340900D01*
X40331547Y38464206D01*
X39681306Y38464774D01*
X39080345Y38216462D01*
X38734801Y37871520D01*
X38392073Y38214846D01*
X37791547Y38464206D01*
X37141306Y38464774D01*
X36540345Y38216462D01*
X36112599Y37789461D01*
X36077163Y37802557D01*
X35104605Y36830000D01*
X36077163Y35857443D01*
X36113099Y35870724D01*
X36537927Y35445154D01*
X37138453Y35195794D01*
X37788694Y35195226D01*
X38389655Y35443538D01*
X38735199Y35788480D01*
X39077927Y35445154D01*
X39372921Y35322662D01*
X37257260Y33207000D01*
X32947341Y33207000D01*
X30109340Y36045000D01*
X30940834Y36045000D01*
X30998538Y35905345D01*
X31457927Y35445154D01*
X32058453Y35195794D01*
X32708694Y35195226D01*
X33309655Y35443538D01*
X33544362Y35677837D01*
X33952443Y35677837D01*
X34051042Y35411035D01*
X34660582Y35184599D01*
X35310377Y35208659D01*
X35798958Y35411035D01*
X35897557Y35677837D01*
X34925000Y36650395D01*
X33952443Y35677837D01*
X33544362Y35677837D01*
X33737401Y35870539D01*
X33772837Y35857443D01*
X34745395Y36830000D01*
X33772837Y37802557D01*
X33736901Y37789276D01*
X33544351Y37982163D01*
X33952443Y37982163D01*
X34925000Y37009605D01*
X35897557Y37982163D01*
X35798958Y38248965D01*
X35189418Y38475401D01*
X34539623Y38451341D01*
X34051042Y38248965D01*
X33952443Y37982163D01*
X33544351Y37982163D01*
X33312073Y38214846D01*
X32711547Y38464206D01*
X32061306Y38464774D01*
X31460345Y38216462D01*
X31000154Y37757073D01*
X30941160Y37615000D01*
X25659157Y37615000D01*
X20308879Y42965278D01*
X20587036Y43099268D01*
X20958539Y43515069D01*
X21165330Y43205585D01*
X21165330Y43205585D01*
G37*
X21165330Y43205585D02*
X21209000Y43176406D01*
X21209000Y42798700D01*
X21259890Y42542857D01*
X21286338Y42409893D01*
X21506580Y42080280D01*
X22563380Y41023479D01*
X22892993Y40803238D01*
X22957500Y40790407D01*
X23281800Y40725900D01*
X34756900Y40725900D01*
X35081200Y40790407D01*
X35145707Y40803238D01*
X35475320Y41023480D01*
X37259393Y42807553D01*
X37465000Y42766655D01*
X38038489Y42880729D01*
X38524670Y43205585D01*
X38534243Y43219913D01*
X38538238Y43198683D01*
X38677310Y42982559D01*
X38889510Y42837569D01*
X38989000Y42817422D01*
X38989000Y42798700D01*
X39039890Y42542857D01*
X39066338Y42409893D01*
X39286580Y42080280D01*
X40628500Y40738359D01*
X40628500Y38340900D01*
X40331547Y38464206D01*
X39681306Y38464774D01*
X39080345Y38216462D01*
X38734801Y37871520D01*
X38392073Y38214846D01*
X37791547Y38464206D01*
X37141306Y38464774D01*
X36540345Y38216462D01*
X36112599Y37789461D01*
X36077163Y37802557D01*
X35104605Y36830000D01*
X36077163Y35857443D01*
X36113099Y35870724D01*
X36537927Y35445154D01*
X37138453Y35195794D01*
X37788694Y35195226D01*
X38389655Y35443538D01*
X38735199Y35788480D01*
X39077927Y35445154D01*
X39372921Y35322662D01*
X37257260Y33207000D01*
X32947341Y33207000D01*
X30109340Y36045000D01*
X30940834Y36045000D01*
X30998538Y35905345D01*
X31457927Y35445154D01*
X32058453Y35195794D01*
X32708694Y35195226D01*
X33309655Y35443538D01*
X33544362Y35677837D01*
X33952443Y35677837D01*
X34051042Y35411035D01*
X34660582Y35184599D01*
X35310377Y35208659D01*
X35798958Y35411035D01*
X35897557Y35677837D01*
X34925000Y36650395D01*
X33952443Y35677837D01*
X33544362Y35677837D01*
X33737401Y35870539D01*
X33772837Y35857443D01*
X34745395Y36830000D01*
X33772837Y37802557D01*
X33736901Y37789276D01*
X33544351Y37982163D01*
X33952443Y37982163D01*
X34925000Y37009605D01*
X35897557Y37982163D01*
X35798958Y38248965D01*
X35189418Y38475401D01*
X34539623Y38451341D01*
X34051042Y38248965D01*
X33952443Y37982163D01*
X33544351Y37982163D01*
X33312073Y38214846D01*
X32711547Y38464206D01*
X32061306Y38464774D01*
X31460345Y38216462D01*
X31000154Y37757073D01*
X30941160Y37615000D01*
X25659157Y37615000D01*
X20308879Y42965278D01*
X20587036Y43099268D01*
X20958539Y43515069D01*
X21165330Y43205585D01*
G36*
X51858321Y46425479D02*
X51027409Y45594567D01*
X50714151Y45803880D01*
X50165000Y45913113D01*
X49615849Y45803880D01*
X49150302Y45492811D01*
X48960588Y45208885D01*
X48829300Y45235000D01*
X48811962Y45235000D01*
X48639698Y45492811D01*
X48174151Y45803880D01*
X47625000Y45913113D01*
X47075849Y45803880D01*
X46610302Y45492811D01*
X46340014Y45088297D01*
X46237389Y45305134D01*
X45822423Y45681041D01*
X45434039Y45841904D01*
X45212000Y45719915D01*
X45212000Y44577000D01*
X45232000Y44577000D01*
X45232000Y44323000D01*
X45212000Y44323000D01*
X45212000Y43180085D01*
X45434039Y43058096D01*
X45822423Y43218959D01*
X46237389Y43594866D01*
X46340014Y43811703D01*
X46610302Y43407189D01*
X47075849Y43096120D01*
X47625000Y42986887D01*
X48174151Y43096120D01*
X48487349Y43305393D01*
X49102121Y42690621D01*
X49356794Y42520455D01*
X49657200Y42460700D01*
X55712000Y42460700D01*
X55712000Y42246550D01*
X55870750Y42087800D01*
X56820000Y42087800D01*
X56820000Y42107800D01*
X57074000Y42107800D01*
X57074000Y42087800D01*
X58023250Y42087800D01*
X58182000Y42246550D01*
X58182000Y42460700D01*
X59764095Y42460700D01*
X59743245Y42439886D01*
X59592972Y42077988D01*
X59592630Y41686131D01*
X59742271Y41323971D01*
X60019114Y41046645D01*
X60381012Y40896372D01*
X60452532Y40896310D01*
X62037421Y39311421D01*
X62292093Y39141255D01*
X62592500Y39081500D01*
X67429592Y39081500D01*
X67130694Y39022045D01*
X66876021Y38851879D01*
X66229960Y38205818D01*
X65754791Y38434709D01*
X65739026Y38437358D01*
X65507000Y38316217D01*
X65507000Y36957000D01*
X65527000Y36957000D01*
X65527000Y36703000D01*
X65507000Y36703000D01*
X65507000Y35343783D01*
X65543151Y35324909D01*
X64374097Y34155855D01*
X64251462Y34452655D01*
X63792073Y34912846D01*
X63191547Y35162206D01*
X62541306Y35162774D01*
X61940345Y34914462D01*
X61594801Y34569520D01*
X61252073Y34912846D01*
X60651547Y35162206D01*
X60001306Y35162774D01*
X59400345Y34914462D01*
X59054801Y34569520D01*
X58712073Y34912846D01*
X58111547Y35162206D01*
X57461306Y35162774D01*
X56860345Y34914462D01*
X56432599Y34487461D01*
X56397163Y34500557D01*
X55424605Y33528000D01*
X55438748Y33513858D01*
X55259143Y33334252D01*
X55245000Y33348395D01*
X55230858Y33334252D01*
X55051252Y33513858D01*
X55065395Y33528000D01*
X55051252Y33542142D01*
X55230858Y33721748D01*
X55245000Y33707605D01*
X56158809Y34621414D01*
X56240920Y34676280D01*
X57148664Y35584023D01*
X57191579Y35583986D01*
X57645657Y35771608D01*
X57993371Y36118715D01*
X58138443Y36468087D01*
X63894816Y36468087D01*
X64088046Y35915680D01*
X64477964Y35479268D01*
X65005209Y35225291D01*
X65020974Y35222642D01*
X65253000Y35343783D01*
X65253000Y36703000D01*
X64039076Y36703000D01*
X63894816Y36468087D01*
X58138443Y36468087D01*
X58181785Y36572466D01*
X58182214Y37063779D01*
X58129270Y37191913D01*
X63894816Y37191913D01*
X64039076Y36957000D01*
X65253000Y36957000D01*
X65253000Y38316217D01*
X65020974Y38437358D01*
X65005209Y38434709D01*
X64477964Y38180732D01*
X64088046Y37744320D01*
X63894816Y37191913D01*
X58129270Y37191913D01*
X57994592Y37517857D01*
X57647485Y37865571D01*
X57193734Y38053985D01*
X56702421Y38054414D01*
X56248343Y37866792D01*
X55900629Y37519685D01*
X55712215Y37065934D01*
X55712176Y37021217D01*
X55101660Y36410700D01*
X54062188Y36410700D01*
X54140000Y36801887D01*
X54140000Y36858113D01*
X54030767Y37407264D01*
X53719698Y37872811D01*
X53254151Y38183880D01*
X52705000Y38293113D01*
X52155849Y38183880D01*
X51690302Y37872811D01*
X51435000Y37490725D01*
X51179698Y37872811D01*
X50714151Y38183880D01*
X50165000Y38293113D01*
X49615849Y38183880D01*
X49150302Y37872811D01*
X48880014Y37468297D01*
X48777389Y37685134D01*
X48362423Y38061041D01*
X47974039Y38221904D01*
X47752000Y38099915D01*
X47752000Y36957000D01*
X47772000Y36957000D01*
X47772000Y36703000D01*
X47752000Y36703000D01*
X47752000Y36683000D01*
X47498000Y36683000D01*
X47498000Y36703000D01*
X47478000Y36703000D01*
X47478000Y36957000D01*
X47498000Y36957000D01*
X47498000Y38099915D01*
X47275961Y38221904D01*
X46887577Y38061041D01*
X46472611Y37685134D01*
X46369986Y37468297D01*
X46099698Y37872811D01*
X45634151Y38183880D01*
X45085000Y38293113D01*
X44535849Y38183880D01*
X44070302Y37872811D01*
X43759233Y37407264D01*
X43650000Y36858113D01*
X43650000Y36801887D01*
X43727812Y36410700D01*
X42828041Y36410700D01*
X42660500Y36578240D01*
X42660500Y39033450D01*
X55712000Y39033450D01*
X55712000Y38592891D01*
X55808673Y38359502D01*
X55987301Y38180873D01*
X56220690Y38084200D01*
X56661250Y38084200D01*
X56820000Y38242950D01*
X56820000Y39192200D01*
X57074000Y39192200D01*
X57074000Y38242950D01*
X57232750Y38084200D01*
X57673310Y38084200D01*
X57906699Y38180873D01*
X58085327Y38359502D01*
X58182000Y38592891D01*
X58182000Y39033450D01*
X58023250Y39192200D01*
X57074000Y39192200D01*
X56820000Y39192200D01*
X55870750Y39192200D01*
X55712000Y39033450D01*
X42660500Y39033450D01*
X42660500Y40045509D01*
X55712000Y40045509D01*
X55712000Y39604950D01*
X55870750Y39446200D01*
X56820000Y39446200D01*
X56820000Y40395450D01*
X57074000Y40395450D01*
X57074000Y39446200D01*
X58023250Y39446200D01*
X58182000Y39604950D01*
X58182000Y40045509D01*
X58085327Y40278898D01*
X57906699Y40457527D01*
X57673310Y40554200D01*
X57232750Y40554200D01*
X57074000Y40395450D01*
X56820000Y40395450D01*
X56661250Y40554200D01*
X56220690Y40554200D01*
X55987301Y40457527D01*
X55808673Y40278898D01*
X55712000Y40045509D01*
X42660500Y40045509D01*
X42660500Y41159200D01*
X42595993Y41483500D01*
X42583162Y41548007D01*
X42498275Y41675050D01*
X55712000Y41675050D01*
X55712000Y41234491D01*
X55808673Y41001102D01*
X55987301Y40822473D01*
X56220690Y40725800D01*
X56661250Y40725800D01*
X56820000Y40884550D01*
X56820000Y41833800D01*
X57074000Y41833800D01*
X57074000Y40884550D01*
X57232750Y40725800D01*
X57673310Y40725800D01*
X57906699Y40822473D01*
X58085327Y41001102D01*
X58182000Y41234491D01*
X58182000Y41675050D01*
X58023250Y41833800D01*
X57074000Y41833800D01*
X56820000Y41833800D01*
X55870750Y41833800D01*
X55712000Y41675050D01*
X42498275Y41675050D01*
X42362920Y41877621D01*
X41289976Y42950564D01*
X41320041Y42969910D01*
X41465031Y43182110D01*
X41516040Y43434000D01*
X41516040Y44100959D01*
X43693086Y44100959D01*
X43932611Y43594866D01*
X44347577Y43218959D01*
X44735961Y43058096D01*
X44958000Y43180085D01*
X44958000Y44323000D01*
X43814371Y44323000D01*
X43693086Y44100959D01*
X41516040Y44100959D01*
X41516040Y44799041D01*
X43693086Y44799041D01*
X43814371Y44577000D01*
X44958000Y44577000D01*
X44958000Y45719915D01*
X44735961Y45841904D01*
X44347577Y45681041D01*
X43932611Y45305134D01*
X43693086Y44799041D01*
X41516040Y44799041D01*
X41516040Y45466000D01*
X41471762Y45701317D01*
X41332690Y45917441D01*
X41120490Y46062431D01*
X40868600Y46113440D01*
X39141400Y46113440D01*
X38906083Y46069162D01*
X38689959Y45930090D01*
X38544969Y45717890D01*
X38536600Y45676561D01*
X38524670Y45694415D01*
X38038489Y46019271D01*
X37465000Y46133345D01*
X36891511Y46019271D01*
X36405330Y45694415D01*
X36198539Y45384931D01*
X35827036Y45800732D01*
X35539228Y45939371D01*
X36167057Y46567200D01*
X52070422Y46567200D01*
X51858321Y46425479D01*
X51858321Y46425479D01*
G37*
X51858321Y46425479D02*
X51027409Y45594567D01*
X50714151Y45803880D01*
X50165000Y45913113D01*
X49615849Y45803880D01*
X49150302Y45492811D01*
X48960588Y45208885D01*
X48829300Y45235000D01*
X48811962Y45235000D01*
X48639698Y45492811D01*
X48174151Y45803880D01*
X47625000Y45913113D01*
X47075849Y45803880D01*
X46610302Y45492811D01*
X46340014Y45088297D01*
X46237389Y45305134D01*
X45822423Y45681041D01*
X45434039Y45841904D01*
X45212000Y45719915D01*
X45212000Y44577000D01*
X45232000Y44577000D01*
X45232000Y44323000D01*
X45212000Y44323000D01*
X45212000Y43180085D01*
X45434039Y43058096D01*
X45822423Y43218959D01*
X46237389Y43594866D01*
X46340014Y43811703D01*
X46610302Y43407189D01*
X47075849Y43096120D01*
X47625000Y42986887D01*
X48174151Y43096120D01*
X48487349Y43305393D01*
X49102121Y42690621D01*
X49356794Y42520455D01*
X49657200Y42460700D01*
X55712000Y42460700D01*
X55712000Y42246550D01*
X55870750Y42087800D01*
X56820000Y42087800D01*
X56820000Y42107800D01*
X57074000Y42107800D01*
X57074000Y42087800D01*
X58023250Y42087800D01*
X58182000Y42246550D01*
X58182000Y42460700D01*
X59764095Y42460700D01*
X59743245Y42439886D01*
X59592972Y42077988D01*
X59592630Y41686131D01*
X59742271Y41323971D01*
X60019114Y41046645D01*
X60381012Y40896372D01*
X60452532Y40896310D01*
X62037421Y39311421D01*
X62292093Y39141255D01*
X62592500Y39081500D01*
X67429592Y39081500D01*
X67130694Y39022045D01*
X66876021Y38851879D01*
X66229960Y38205818D01*
X65754791Y38434709D01*
X65739026Y38437358D01*
X65507000Y38316217D01*
X65507000Y36957000D01*
X65527000Y36957000D01*
X65527000Y36703000D01*
X65507000Y36703000D01*
X65507000Y35343783D01*
X65543151Y35324909D01*
X64374097Y34155855D01*
X64251462Y34452655D01*
X63792073Y34912846D01*
X63191547Y35162206D01*
X62541306Y35162774D01*
X61940345Y34914462D01*
X61594801Y34569520D01*
X61252073Y34912846D01*
X60651547Y35162206D01*
X60001306Y35162774D01*
X59400345Y34914462D01*
X59054801Y34569520D01*
X58712073Y34912846D01*
X58111547Y35162206D01*
X57461306Y35162774D01*
X56860345Y34914462D01*
X56432599Y34487461D01*
X56397163Y34500557D01*
X55424605Y33528000D01*
X55438748Y33513858D01*
X55259143Y33334252D01*
X55245000Y33348395D01*
X55230858Y33334252D01*
X55051252Y33513858D01*
X55065395Y33528000D01*
X55051252Y33542142D01*
X55230858Y33721748D01*
X55245000Y33707605D01*
X56158809Y34621414D01*
X56240920Y34676280D01*
X57148664Y35584023D01*
X57191579Y35583986D01*
X57645657Y35771608D01*
X57993371Y36118715D01*
X58138443Y36468087D01*
X63894816Y36468087D01*
X64088046Y35915680D01*
X64477964Y35479268D01*
X65005209Y35225291D01*
X65020974Y35222642D01*
X65253000Y35343783D01*
X65253000Y36703000D01*
X64039076Y36703000D01*
X63894816Y36468087D01*
X58138443Y36468087D01*
X58181785Y36572466D01*
X58182214Y37063779D01*
X58129270Y37191913D01*
X63894816Y37191913D01*
X64039076Y36957000D01*
X65253000Y36957000D01*
X65253000Y38316217D01*
X65020974Y38437358D01*
X65005209Y38434709D01*
X64477964Y38180732D01*
X64088046Y37744320D01*
X63894816Y37191913D01*
X58129270Y37191913D01*
X57994592Y37517857D01*
X57647485Y37865571D01*
X57193734Y38053985D01*
X56702421Y38054414D01*
X56248343Y37866792D01*
X55900629Y37519685D01*
X55712215Y37065934D01*
X55712176Y37021217D01*
X55101660Y36410700D01*
X54062188Y36410700D01*
X54140000Y36801887D01*
X54140000Y36858113D01*
X54030767Y37407264D01*
X53719698Y37872811D01*
X53254151Y38183880D01*
X52705000Y38293113D01*
X52155849Y38183880D01*
X51690302Y37872811D01*
X51435000Y37490725D01*
X51179698Y37872811D01*
X50714151Y38183880D01*
X50165000Y38293113D01*
X49615849Y38183880D01*
X49150302Y37872811D01*
X48880014Y37468297D01*
X48777389Y37685134D01*
X48362423Y38061041D01*
X47974039Y38221904D01*
X47752000Y38099915D01*
X47752000Y36957000D01*
X47772000Y36957000D01*
X47772000Y36703000D01*
X47752000Y36703000D01*
X47752000Y36683000D01*
X47498000Y36683000D01*
X47498000Y36703000D01*
X47478000Y36703000D01*
X47478000Y36957000D01*
X47498000Y36957000D01*
X47498000Y38099915D01*
X47275961Y38221904D01*
X46887577Y38061041D01*
X46472611Y37685134D01*
X46369986Y37468297D01*
X46099698Y37872811D01*
X45634151Y38183880D01*
X45085000Y38293113D01*
X44535849Y38183880D01*
X44070302Y37872811D01*
X43759233Y37407264D01*
X43650000Y36858113D01*
X43650000Y36801887D01*
X43727812Y36410700D01*
X42828041Y36410700D01*
X42660500Y36578240D01*
X42660500Y39033450D01*
X55712000Y39033450D01*
X55712000Y38592891D01*
X55808673Y38359502D01*
X55987301Y38180873D01*
X56220690Y38084200D01*
X56661250Y38084200D01*
X56820000Y38242950D01*
X56820000Y39192200D01*
X57074000Y39192200D01*
X57074000Y38242950D01*
X57232750Y38084200D01*
X57673310Y38084200D01*
X57906699Y38180873D01*
X58085327Y38359502D01*
X58182000Y38592891D01*
X58182000Y39033450D01*
X58023250Y39192200D01*
X57074000Y39192200D01*
X56820000Y39192200D01*
X55870750Y39192200D01*
X55712000Y39033450D01*
X42660500Y39033450D01*
X42660500Y40045509D01*
X55712000Y40045509D01*
X55712000Y39604950D01*
X55870750Y39446200D01*
X56820000Y39446200D01*
X56820000Y40395450D01*
X57074000Y40395450D01*
X57074000Y39446200D01*
X58023250Y39446200D01*
X58182000Y39604950D01*
X58182000Y40045509D01*
X58085327Y40278898D01*
X57906699Y40457527D01*
X57673310Y40554200D01*
X57232750Y40554200D01*
X57074000Y40395450D01*
X56820000Y40395450D01*
X56661250Y40554200D01*
X56220690Y40554200D01*
X55987301Y40457527D01*
X55808673Y40278898D01*
X55712000Y40045509D01*
X42660500Y40045509D01*
X42660500Y41159200D01*
X42595993Y41483500D01*
X42583162Y41548007D01*
X42498275Y41675050D01*
X55712000Y41675050D01*
X55712000Y41234491D01*
X55808673Y41001102D01*
X55987301Y40822473D01*
X56220690Y40725800D01*
X56661250Y40725800D01*
X56820000Y40884550D01*
X56820000Y41833800D01*
X57074000Y41833800D01*
X57074000Y40884550D01*
X57232750Y40725800D01*
X57673310Y40725800D01*
X57906699Y40822473D01*
X58085327Y41001102D01*
X58182000Y41234491D01*
X58182000Y41675050D01*
X58023250Y41833800D01*
X57074000Y41833800D01*
X56820000Y41833800D01*
X55870750Y41833800D01*
X55712000Y41675050D01*
X42498275Y41675050D01*
X42362920Y41877621D01*
X41289976Y42950564D01*
X41320041Y42969910D01*
X41465031Y43182110D01*
X41516040Y43434000D01*
X41516040Y44100959D01*
X43693086Y44100959D01*
X43932611Y43594866D01*
X44347577Y43218959D01*
X44735961Y43058096D01*
X44958000Y43180085D01*
X44958000Y44323000D01*
X43814371Y44323000D01*
X43693086Y44100959D01*
X41516040Y44100959D01*
X41516040Y44799041D01*
X43693086Y44799041D01*
X43814371Y44577000D01*
X44958000Y44577000D01*
X44958000Y45719915D01*
X44735961Y45841904D01*
X44347577Y45681041D01*
X43932611Y45305134D01*
X43693086Y44799041D01*
X41516040Y44799041D01*
X41516040Y45466000D01*
X41471762Y45701317D01*
X41332690Y45917441D01*
X41120490Y46062431D01*
X40868600Y46113440D01*
X39141400Y46113440D01*
X38906083Y46069162D01*
X38689959Y45930090D01*
X38544969Y45717890D01*
X38536600Y45676561D01*
X38524670Y45694415D01*
X38038489Y46019271D01*
X37465000Y46133345D01*
X36891511Y46019271D01*
X36405330Y45694415D01*
X36198539Y45384931D01*
X35827036Y45800732D01*
X35539228Y45939371D01*
X36167057Y46567200D01*
X52070422Y46567200D01*
X51858321Y46425479D01*
G36*
X18186400Y50450750D02*
X18345150Y50292000D01*
X19558000Y50292000D01*
X19558000Y50312000D01*
X19812000Y50312000D01*
X19812000Y50292000D01*
X19832000Y50292000D01*
X19832000Y50038000D01*
X19812000Y50038000D01*
X19812000Y48825150D01*
X19970750Y48666400D01*
X20674910Y48666400D01*
X20908299Y48763073D01*
X21086927Y48941702D01*
X21151263Y49097023D01*
X21165330Y49075971D01*
X21651511Y48751115D01*
X22225000Y48637041D01*
X22798489Y48751115D01*
X23284670Y49075971D01*
X23495000Y49390752D01*
X23705330Y49075971D01*
X24191511Y48751115D01*
X24765000Y48637041D01*
X25338489Y48751115D01*
X25824670Y49075971D01*
X26035000Y49390752D01*
X26245330Y49075971D01*
X26731511Y48751115D01*
X27305000Y48637041D01*
X27878489Y48751115D01*
X28364670Y49075971D01*
X28575000Y49390752D01*
X28785330Y49075971D01*
X29271511Y48751115D01*
X29845000Y48637041D01*
X30418489Y48751115D01*
X30904670Y49075971D01*
X31115000Y49390752D01*
X31325330Y49075971D01*
X31811511Y48751115D01*
X32385000Y48637041D01*
X32958489Y48751115D01*
X33444670Y49075971D01*
X33655000Y49390752D01*
X33865330Y49075971D01*
X34331030Y48764800D01*
X33929500Y48764800D01*
X33629094Y48705045D01*
X33374421Y48534879D01*
X30682444Y45842902D01*
X30418489Y46019271D01*
X29845000Y46133345D01*
X29271511Y46019271D01*
X28785330Y45694415D01*
X28460474Y45208234D01*
X28346400Y44634745D01*
X28346400Y44265255D01*
X28460474Y43691766D01*
X28785330Y43205585D01*
X29271511Y42880729D01*
X29845000Y42766655D01*
X30418489Y42880729D01*
X30904670Y43205585D01*
X31115000Y43520366D01*
X31325330Y43205585D01*
X31811511Y42880729D01*
X32385000Y42766655D01*
X32958489Y42880729D01*
X33444670Y43205585D01*
X33651461Y43515069D01*
X34022964Y43099268D01*
X34464660Y42886500D01*
X34336060Y42757900D01*
X23702641Y42757900D01*
X23565721Y42894819D01*
X23649510Y42837569D01*
X23901400Y42786560D01*
X25628600Y42786560D01*
X25863917Y42830838D01*
X26080041Y42969910D01*
X26225031Y43182110D01*
X26276040Y43434000D01*
X26276040Y45466000D01*
X26231762Y45701317D01*
X26092690Y45917441D01*
X25880490Y46062431D01*
X25628600Y46113440D01*
X23901400Y46113440D01*
X23666083Y46069162D01*
X23449959Y45930090D01*
X23304969Y45717890D01*
X23296600Y45676561D01*
X23284670Y45694415D01*
X22798489Y46019271D01*
X22225000Y46133345D01*
X21651511Y46019271D01*
X21165330Y45694415D01*
X20958539Y45384931D01*
X20587036Y45800732D01*
X20059791Y46054709D01*
X20044026Y46057358D01*
X19812000Y45936217D01*
X19812000Y44577000D01*
X19832000Y44577000D01*
X19832000Y44323000D01*
X19812000Y44323000D01*
X19812000Y44303000D01*
X19558000Y44303000D01*
X19558000Y44323000D01*
X19538000Y44323000D01*
X19538000Y44577000D01*
X19558000Y44577000D01*
X19558000Y45936217D01*
X19325974Y46057358D01*
X19310209Y46054709D01*
X18782964Y45800732D01*
X18411461Y45384931D01*
X18204670Y45694415D01*
X17718489Y46019271D01*
X17145000Y46133345D01*
X16571511Y46019271D01*
X16085330Y45694415D01*
X15760474Y45208234D01*
X15646400Y44634745D01*
X15646400Y44265255D01*
X15760474Y43691766D01*
X16085330Y43205585D01*
X16571511Y42880729D01*
X17145000Y42766655D01*
X17718489Y42880729D01*
X17991016Y43062826D01*
X18391742Y42662100D01*
X9542158Y42662100D01*
X9181166Y43023092D01*
X9394234Y43065474D01*
X9880415Y43390330D01*
X10205271Y43876511D01*
X10319345Y44450000D01*
X10210572Y44996841D01*
X10458979Y45162821D01*
X15175408Y49879250D01*
X18186400Y49879250D01*
X18186400Y49175091D01*
X18283073Y48941702D01*
X18461701Y48763073D01*
X18695090Y48666400D01*
X19399250Y48666400D01*
X19558000Y48825150D01*
X19558000Y50038000D01*
X18345150Y50038000D01*
X18186400Y49879250D01*
X15175408Y49879250D01*
X15944158Y50648000D01*
X18186400Y50648000D01*
X18186400Y50450750D01*
X18186400Y50450750D01*
G37*
X18186400Y50450750D02*
X18345150Y50292000D01*
X19558000Y50292000D01*
X19558000Y50312000D01*
X19812000Y50312000D01*
X19812000Y50292000D01*
X19832000Y50292000D01*
X19832000Y50038000D01*
X19812000Y50038000D01*
X19812000Y48825150D01*
X19970750Y48666400D01*
X20674910Y48666400D01*
X20908299Y48763073D01*
X21086927Y48941702D01*
X21151263Y49097023D01*
X21165330Y49075971D01*
X21651511Y48751115D01*
X22225000Y48637041D01*
X22798489Y48751115D01*
X23284670Y49075971D01*
X23495000Y49390752D01*
X23705330Y49075971D01*
X24191511Y48751115D01*
X24765000Y48637041D01*
X25338489Y48751115D01*
X25824670Y49075971D01*
X26035000Y49390752D01*
X26245330Y49075971D01*
X26731511Y48751115D01*
X27305000Y48637041D01*
X27878489Y48751115D01*
X28364670Y49075971D01*
X28575000Y49390752D01*
X28785330Y49075971D01*
X29271511Y48751115D01*
X29845000Y48637041D01*
X30418489Y48751115D01*
X30904670Y49075971D01*
X31115000Y49390752D01*
X31325330Y49075971D01*
X31811511Y48751115D01*
X32385000Y48637041D01*
X32958489Y48751115D01*
X33444670Y49075971D01*
X33655000Y49390752D01*
X33865330Y49075971D01*
X34331030Y48764800D01*
X33929500Y48764800D01*
X33629094Y48705045D01*
X33374421Y48534879D01*
X30682444Y45842902D01*
X30418489Y46019271D01*
X29845000Y46133345D01*
X29271511Y46019271D01*
X28785330Y45694415D01*
X28460474Y45208234D01*
X28346400Y44634745D01*
X28346400Y44265255D01*
X28460474Y43691766D01*
X28785330Y43205585D01*
X29271511Y42880729D01*
X29845000Y42766655D01*
X30418489Y42880729D01*
X30904670Y43205585D01*
X31115000Y43520366D01*
X31325330Y43205585D01*
X31811511Y42880729D01*
X32385000Y42766655D01*
X32958489Y42880729D01*
X33444670Y43205585D01*
X33651461Y43515069D01*
X34022964Y43099268D01*
X34464660Y42886500D01*
X34336060Y42757900D01*
X23702641Y42757900D01*
X23565721Y42894819D01*
X23649510Y42837569D01*
X23901400Y42786560D01*
X25628600Y42786560D01*
X25863917Y42830838D01*
X26080041Y42969910D01*
X26225031Y43182110D01*
X26276040Y43434000D01*
X26276040Y45466000D01*
X26231762Y45701317D01*
X26092690Y45917441D01*
X25880490Y46062431D01*
X25628600Y46113440D01*
X23901400Y46113440D01*
X23666083Y46069162D01*
X23449959Y45930090D01*
X23304969Y45717890D01*
X23296600Y45676561D01*
X23284670Y45694415D01*
X22798489Y46019271D01*
X22225000Y46133345D01*
X21651511Y46019271D01*
X21165330Y45694415D01*
X20958539Y45384931D01*
X20587036Y45800732D01*
X20059791Y46054709D01*
X20044026Y46057358D01*
X19812000Y45936217D01*
X19812000Y44577000D01*
X19832000Y44577000D01*
X19832000Y44323000D01*
X19812000Y44323000D01*
X19812000Y44303000D01*
X19558000Y44303000D01*
X19558000Y44323000D01*
X19538000Y44323000D01*
X19538000Y44577000D01*
X19558000Y44577000D01*
X19558000Y45936217D01*
X19325974Y46057358D01*
X19310209Y46054709D01*
X18782964Y45800732D01*
X18411461Y45384931D01*
X18204670Y45694415D01*
X17718489Y46019271D01*
X17145000Y46133345D01*
X16571511Y46019271D01*
X16085330Y45694415D01*
X15760474Y45208234D01*
X15646400Y44634745D01*
X15646400Y44265255D01*
X15760474Y43691766D01*
X16085330Y43205585D01*
X16571511Y42880729D01*
X17145000Y42766655D01*
X17718489Y42880729D01*
X17991016Y43062826D01*
X18391742Y42662100D01*
X9542158Y42662100D01*
X9181166Y43023092D01*
X9394234Y43065474D01*
X9880415Y43390330D01*
X10205271Y43876511D01*
X10319345Y44450000D01*
X10210572Y44996841D01*
X10458979Y45162821D01*
X15175408Y49879250D01*
X18186400Y49879250D01*
X18186400Y49175091D01*
X18283073Y48941702D01*
X18461701Y48763073D01*
X18695090Y48666400D01*
X19399250Y48666400D01*
X19558000Y48825150D01*
X19558000Y50038000D01*
X18345150Y50038000D01*
X18186400Y49879250D01*
X15175408Y49879250D01*
X15944158Y50648000D01*
X18186400Y50648000D01*
X18186400Y50450750D01*
G36*
X35052000Y44577000D02*
X35072000Y44577000D01*
X35072000Y44323000D01*
X35052000Y44323000D01*
X35052000Y44303000D01*
X34798000Y44303000D01*
X34798000Y44323000D01*
X34778000Y44323000D01*
X34778000Y44577000D01*
X34798000Y44577000D01*
X34798000Y44597000D01*
X35052000Y44597000D01*
X35052000Y44577000D01*
X35052000Y44577000D01*
G37*
X35052000Y44577000D02*
X35072000Y44577000D01*
X35072000Y44323000D01*
X35052000Y44323000D01*
X35052000Y44303000D01*
X34798000Y44303000D01*
X34798000Y44323000D01*
X34778000Y44323000D01*
X34778000Y44577000D01*
X34798000Y44577000D01*
X34798000Y44597000D01*
X35052000Y44597000D01*
X35052000Y44577000D01*
G36*
X10387642Y49047000D02*
X10287000Y49047000D01*
X10287000Y49244250D01*
X10128250Y49403000D01*
X8763000Y49403000D01*
X8763000Y49383000D01*
X8509000Y49383000D01*
X8509000Y49403000D01*
X7143750Y49403000D01*
X6985000Y49244250D01*
X6985000Y48540090D01*
X7009144Y48481802D01*
X6601521Y48074179D01*
X6431355Y47819507D01*
X6400000Y47661876D01*
X6400000Y50519910D01*
X6985000Y50519910D01*
X6985000Y49815750D01*
X7143750Y49657000D01*
X8509000Y49657000D01*
X8509000Y50869850D01*
X8763000Y50869850D01*
X8763000Y49657000D01*
X10128250Y49657000D01*
X10287000Y49815750D01*
X10287000Y50519910D01*
X10190327Y50753299D01*
X10011698Y50931927D01*
X9778309Y51028600D01*
X8921750Y51028600D01*
X8763000Y50869850D01*
X8509000Y50869850D01*
X8350250Y51028600D01*
X7493691Y51028600D01*
X7260302Y50931927D01*
X7081673Y50753299D01*
X6985000Y50519910D01*
X6400000Y50519910D01*
X6400000Y53925000D01*
X15265642Y53925000D01*
X10387642Y49047000D01*
X10387642Y49047000D01*
G37*
X10387642Y49047000D02*
X10287000Y49047000D01*
X10287000Y49244250D01*
X10128250Y49403000D01*
X8763000Y49403000D01*
X8763000Y49383000D01*
X8509000Y49383000D01*
X8509000Y49403000D01*
X7143750Y49403000D01*
X6985000Y49244250D01*
X6985000Y48540090D01*
X7009144Y48481802D01*
X6601521Y48074179D01*
X6431355Y47819507D01*
X6400000Y47661876D01*
X6400000Y50519910D01*
X6985000Y50519910D01*
X6985000Y49815750D01*
X7143750Y49657000D01*
X8509000Y49657000D01*
X8509000Y50869850D01*
X8763000Y50869850D01*
X8763000Y49657000D01*
X10128250Y49657000D01*
X10287000Y49815750D01*
X10287000Y50519910D01*
X10190327Y50753299D01*
X10011698Y50931927D01*
X9778309Y51028600D01*
X8921750Y51028600D01*
X8763000Y50869850D01*
X8509000Y50869850D01*
X8350250Y51028600D01*
X7493691Y51028600D01*
X7260302Y50931927D01*
X7081673Y50753299D01*
X6985000Y50519910D01*
X6400000Y50519910D01*
X6400000Y53925000D01*
X15265642Y53925000D01*
X10387642Y49047000D01*
G36*
X77089000Y50519910D02*
X77089000Y49815750D01*
X77247750Y49657000D01*
X78613000Y49657000D01*
X78613000Y49677000D01*
X78867000Y49677000D01*
X78867000Y49657000D01*
X78887000Y49657000D01*
X78887000Y49403000D01*
X78867000Y49403000D01*
X78867000Y49383000D01*
X78613000Y49383000D01*
X78613000Y49403000D01*
X77247750Y49403000D01*
X77089000Y49244250D01*
X77089000Y49047000D01*
X76581312Y49047000D01*
X76624670Y49075971D01*
X76949526Y49562152D01*
X77063600Y50135641D01*
X77063600Y50194359D01*
X76972967Y50650000D01*
X77142885Y50650000D01*
X77089000Y50519910D01*
X77089000Y50519910D01*
G37*
X77089000Y50519910D02*
X77089000Y49815750D01*
X77247750Y49657000D01*
X78613000Y49657000D01*
X78613000Y49677000D01*
X78867000Y49677000D01*
X78867000Y49657000D01*
X78887000Y49657000D01*
X78887000Y49403000D01*
X78867000Y49403000D01*
X78867000Y49383000D01*
X78613000Y49383000D01*
X78613000Y49403000D01*
X77247750Y49403000D01*
X77089000Y49244250D01*
X77089000Y49047000D01*
X76581312Y49047000D01*
X76624670Y49075971D01*
X76949526Y49562152D01*
X77063600Y50135641D01*
X77063600Y50194359D01*
X76972967Y50650000D01*
X77142885Y50650000D01*
X77089000Y50519910D01*
G36*
X18230032Y53064027D02*
X18350531Y52832000D01*
X19558000Y52832000D01*
X19558000Y52852000D01*
X19812000Y52852000D01*
X19812000Y52832000D01*
X19832000Y52832000D01*
X19832000Y52578000D01*
X19812000Y52578000D01*
X19812000Y52558000D01*
X19558000Y52558000D01*
X19558000Y52578000D01*
X18350531Y52578000D01*
X18230032Y52345973D01*
X18290010Y52218000D01*
X15778958Y52218000D01*
X16762158Y53201200D01*
X18294322Y53201200D01*
X18230032Y53064027D01*
X18230032Y53064027D01*
G37*
X18230032Y53064027D02*
X18350531Y52832000D01*
X19558000Y52832000D01*
X19558000Y52852000D01*
X19812000Y52852000D01*
X19812000Y52832000D01*
X19832000Y52832000D01*
X19832000Y52578000D01*
X19812000Y52578000D01*
X19812000Y52558000D01*
X19558000Y52558000D01*
X19558000Y52578000D01*
X18350531Y52578000D01*
X18230032Y52345973D01*
X18290010Y52218000D01*
X15778958Y52218000D01*
X16762158Y53201200D01*
X18294322Y53201200D01*
X18230032Y53064027D01*
M02*
