M48
;DRILL file {KiCad 0.201506172246+5766~23~ubuntu14.04.1-product} date Do 09 Jul 2015 22:59:05 CEST
;FORMAT={-:-/ absolute / metric / decimal}
FMAT,2
METRIC,TZ
T1C0.305
T2C0.559
T3C0.700
T4C0.800
T5C1.001
T6C1.016
T7C3.400
%
G90
G05
M71
T1
X36.057Y47.373
X45.453Y6.614
X52.265Y16.882
T2
X56.005Y14.375
T3
X56.936Y44.45
X56.936Y36.83
X59.436Y44.45
X59.436Y36.83
T4
X45.085Y44.45
X45.085Y36.83
X47.625Y44.45
X47.625Y36.83
X50.165Y44.45
X50.165Y36.83
X52.705Y44.45
X52.705Y36.83
T5
X31.369Y36.83
X31.369Y26.67
X34.29Y36.83
X34.29Y26.67
X37.211Y36.83
X37.211Y26.67
X40.132Y36.83
X40.132Y26.67
X62.865Y44.45
X73.025Y44.45
T6
X2.921Y15.24
X2.921Y12.7
X2.921Y10.16
X8.636Y50.165
X8.636Y47.625
X8.636Y45.085
X12.065Y10.16
X12.065Y4.445
X12.065Y1.905
X14.605Y10.16
X17.145Y10.16
X17.78Y44.45
X19.685Y52.705
X19.685Y50.165
X19.685Y10.16
X19.685Y4.445
X19.685Y1.905
X20.32Y44.45
X22.225Y52.705
X22.225Y50.165
X22.225Y4.445
X22.225Y1.905
X22.86Y44.45
X22.86Y36.83
X24.765Y52.705
X24.765Y50.165
X24.765Y19.05
X24.765Y10.16
X24.765Y4.445
X24.765Y1.905
X25.4Y44.45
X25.4Y36.83
X27.305Y52.705
X27.305Y50.165
X27.305Y19.05
X27.305Y10.16
X27.305Y4.445
X27.305Y1.905
X29.845Y52.705
X29.845Y50.165
X29.845Y19.05
X29.845Y10.16
X29.845Y4.445
X29.845Y1.905
X29.972Y44.45
X32.385Y52.705
X32.385Y50.165
X32.385Y19.05
X32.385Y10.16
X32.385Y4.445
X32.385Y1.905
X32.512Y44.45
X34.925Y52.705
X34.925Y50.165
X34.925Y19.05
X34.925Y10.16
X34.925Y4.445
X34.925Y1.905
X35.052Y44.45
X37.465Y52.705
X37.465Y50.165
X37.465Y19.05
X37.465Y4.445
X37.465Y1.905
X37.592Y44.45
X40.005Y52.705
X40.005Y50.165
X40.005Y19.05
X40.005Y10.16
X40.005Y4.445
X40.005Y1.905
X40.132Y44.45
X42.545Y52.705
X42.545Y50.165
X42.545Y19.05
X42.545Y10.16
X42.545Y4.445
X42.545Y1.905
X45.085Y52.705
X45.085Y50.165
X45.085Y19.05
X45.085Y10.16
X45.085Y4.445
X45.085Y1.905
X47.625Y52.705
X47.625Y50.165
X47.625Y19.05
X47.625Y10.16
X47.625Y4.445
X47.625Y1.905
X50.165Y52.705
X50.165Y50.165
X50.165Y10.16
X50.165Y4.445
X50.165Y1.905
X52.705Y52.705
X52.705Y50.165
X52.705Y4.445
X52.705Y1.905
X55.245Y52.705
X55.245Y50.165
X55.245Y19.05
X55.245Y10.16
X55.245Y4.445
X55.245Y1.905
X57.785Y52.705
X57.785Y50.165
X57.785Y19.05
X57.785Y10.16
X57.785Y4.445
X57.785Y1.905
X60.325Y52.705
X60.325Y50.165
X60.325Y19.05
X60.325Y10.16
X60.325Y4.445
X60.325Y1.905
X62.865Y52.705
X62.865Y50.165
X62.865Y39.37
X62.865Y36.83
X62.865Y19.05
X62.865Y10.16
X62.865Y4.445
X62.865Y1.905
X65.405Y52.705
X65.405Y50.165
X65.405Y19.05
X65.405Y10.16
X65.405Y4.445
X65.405Y1.905
X66.675Y39.37
X66.675Y36.83
X67.945Y52.705
X67.945Y50.165
X67.945Y19.05
X67.945Y10.16
X67.945Y4.445
X67.945Y1.905
X70.485Y52.705
X70.485Y50.165
X70.485Y19.05
X70.485Y10.16
X70.485Y4.445
X70.485Y1.905
X73.025Y52.705
X73.025Y50.165
X73.025Y4.445
X73.025Y1.905
X75.565Y52.705
X75.565Y50.165
X75.565Y4.445
X75.565Y1.905
X78.74Y49.53
X78.74Y46.99
X78.74Y44.45
X78.74Y40.64
X78.74Y38.1
X78.74Y35.56
X78.74Y33.02
X78.74Y30.48
X78.74Y27.94
X78.74Y25.4
X78.74Y22.86
X78.74Y20.32
X78.74Y17.78
X78.74Y15.24
X78.74Y12.7
X81.28Y40.64
X81.28Y38.1
X81.28Y35.56
X81.28Y33.02
X81.28Y30.48
X81.28Y27.94
X81.28Y25.4
X81.28Y22.86
X81.28Y20.32
X81.28Y17.78
X81.28Y15.24
X81.28Y12.7
X83.82Y40.64
X83.82Y38.1
X83.82Y35.56
X83.82Y33.02
X83.82Y30.48
X83.82Y27.94
X83.82Y25.4
X83.82Y22.86
X83.82Y20.32
X83.82Y17.78
X83.82Y15.24
X83.82Y12.7
T7
X26.035Y30.734
X46.482Y30.734
X69.215Y28.067
T0
M30
