G04 #@! TF.FileFunction,Soldermask,Top*
%FSLAX46Y46*%
G04 Gerber Fmt 4.6, Leading zero omitted, Abs format (unit mm)*
G04 Created by KiCad (PCBNEW 0.201601051410+6422~40~ubuntu14.04.1-stable) date Mo 18 Jan 2016 21:21:09 CET*
%MOMM*%
G01*
G04 APERTURE LIST*
%ADD10C,0.100000*%
%ADD11C,4.064000*%
%ADD12R,2.032000X1.727200*%
%ADD13O,2.032000X1.727200*%
%ADD14R,1.727200X1.727200*%
%ADD15O,1.727200X1.727200*%
%ADD16R,2.032000X2.032000*%
%ADD17O,2.032000X2.032000*%
%ADD18R,1.727200X2.032000*%
%ADD19O,1.727200X2.032000*%
%ADD20C,1.998980*%
%ADD21R,1.200000X1.200000*%
%ADD22C,1.200000*%
%ADD23O,1.600000X1.600000*%
G04 APERTURE END LIST*
D10*
D11*
X26035000Y30734000D03*
D12*
X78740000Y12700000D03*
D13*
X78740000Y15240000D03*
X78740000Y17780000D03*
X78740000Y20320000D03*
X78740000Y22860000D03*
X78740000Y25400000D03*
X78740000Y27940000D03*
X78740000Y30480000D03*
X78740000Y33020000D03*
X78740000Y35560000D03*
X78740000Y38100000D03*
X78740000Y40640000D03*
D14*
X83820000Y12700000D03*
D15*
X81280000Y12700000D03*
X83820000Y15240000D03*
X81280000Y15240000D03*
X83820000Y17780000D03*
X81280000Y17780000D03*
X83820000Y20320000D03*
X81280000Y20320000D03*
X83820000Y22860000D03*
X81280000Y22860000D03*
X83820000Y25400000D03*
X81280000Y25400000D03*
X83820000Y27940000D03*
X81280000Y27940000D03*
X83820000Y30480000D03*
X81280000Y30480000D03*
X83820000Y33020000D03*
X81280000Y33020000D03*
X83820000Y35560000D03*
X81280000Y35560000D03*
X83820000Y38100000D03*
X81280000Y38100000D03*
X83820000Y40640000D03*
X81280000Y40640000D03*
D16*
X70460000Y41910000D03*
D17*
X70460000Y44450000D03*
D18*
X24765000Y19050000D03*
D19*
X27305000Y19050000D03*
X29845000Y19050000D03*
X32385000Y19050000D03*
X34925000Y19050000D03*
X37465000Y19050000D03*
X40005000Y19050000D03*
X42545000Y19050000D03*
X45085000Y19050000D03*
X47625000Y19050000D03*
D18*
X55245000Y19050000D03*
D19*
X57785000Y19050000D03*
X60325000Y19050000D03*
X62865000Y19050000D03*
X65405000Y19050000D03*
X67945000Y19050000D03*
X70485000Y19050000D03*
D14*
X19685000Y50165000D03*
D15*
X19685000Y52705000D03*
X22225000Y50165000D03*
X22225000Y52705000D03*
X24765000Y50165000D03*
X24765000Y52705000D03*
X27305000Y50165000D03*
X27305000Y52705000D03*
X29845000Y50165000D03*
X29845000Y52705000D03*
X32385000Y50165000D03*
X32385000Y52705000D03*
X34925000Y50165000D03*
X34925000Y52705000D03*
X37465000Y50165000D03*
X37465000Y52705000D03*
X40005000Y50165000D03*
X40005000Y52705000D03*
X42545000Y50165000D03*
X42545000Y52705000D03*
X45085000Y50165000D03*
X45085000Y52705000D03*
X47625000Y50165000D03*
X47625000Y52705000D03*
X50165000Y50165000D03*
X50165000Y52705000D03*
X52705000Y50165000D03*
X52705000Y52705000D03*
X55245000Y50165000D03*
X55245000Y52705000D03*
X57785000Y50165000D03*
X57785000Y52705000D03*
X60325000Y50165000D03*
X60325000Y52705000D03*
X62865000Y50165000D03*
X62865000Y52705000D03*
X65405000Y50165000D03*
X65405000Y52705000D03*
X67945000Y50165000D03*
X67945000Y52705000D03*
X70485000Y50165000D03*
X70485000Y52705000D03*
X73025000Y50165000D03*
X73025000Y52705000D03*
X75565000Y50165000D03*
X75565000Y52705000D03*
D14*
X19685000Y1905000D03*
D15*
X19685000Y4445000D03*
X22225000Y1905000D03*
X22225000Y4445000D03*
X24765000Y1905000D03*
X24765000Y4445000D03*
X27305000Y1905000D03*
X27305000Y4445000D03*
X29845000Y1905000D03*
X29845000Y4445000D03*
X32385000Y1905000D03*
X32385000Y4445000D03*
X34925000Y1905000D03*
X34925000Y4445000D03*
X37465000Y1905000D03*
X37465000Y4445000D03*
X40005000Y1905000D03*
X40005000Y4445000D03*
X42545000Y1905000D03*
X42545000Y4445000D03*
X45085000Y1905000D03*
X45085000Y4445000D03*
X47625000Y1905000D03*
X47625000Y4445000D03*
X50165000Y1905000D03*
X50165000Y4445000D03*
X52705000Y1905000D03*
X52705000Y4445000D03*
X55245000Y1905000D03*
X55245000Y4445000D03*
X57785000Y1905000D03*
X57785000Y4445000D03*
X60325000Y1905000D03*
X60325000Y4445000D03*
X62865000Y1905000D03*
X62865000Y4445000D03*
X65405000Y1905000D03*
X65405000Y4445000D03*
X67945000Y1905000D03*
X67945000Y4445000D03*
X70485000Y1905000D03*
X70485000Y4445000D03*
X73025000Y1905000D03*
X73025000Y4445000D03*
X75565000Y1905000D03*
X75565000Y4445000D03*
D16*
X12065000Y4445000D03*
D17*
X12065000Y1905000D03*
D18*
X70485000Y10160000D03*
D19*
X67945000Y10160000D03*
X65405000Y10160000D03*
X62865000Y10160000D03*
X60325000Y10160000D03*
X57785000Y10160000D03*
X55245000Y10160000D03*
D16*
X67920000Y41910000D03*
D17*
X67920000Y44450000D03*
D16*
X65380000Y41910000D03*
D17*
X65380000Y44450000D03*
D20*
X62865000Y23368000D03*
X62865000Y33528000D03*
D21*
X56947000Y39319200D03*
D22*
X56947000Y36819200D03*
D21*
X56947000Y41960800D03*
D22*
X56947000Y44460800D03*
D18*
X19685000Y10160000D03*
D19*
X17145000Y10160000D03*
X14605000Y10160000D03*
X12065000Y10160000D03*
X9525000Y10160000D03*
D18*
X47625000Y10160000D03*
D19*
X45085000Y10160000D03*
X42545000Y10160000D03*
X40005000Y10160000D03*
X37465000Y10160000D03*
D11*
X69215000Y28067000D03*
X46482000Y30734000D03*
D12*
X8636000Y49530000D03*
D13*
X8636000Y46990000D03*
X8636000Y44450000D03*
D12*
X2921000Y15240000D03*
D13*
X2921000Y12700000D03*
X2921000Y10160000D03*
D12*
X78740000Y49530000D03*
D13*
X78740000Y46990000D03*
X78740000Y44450000D03*
D18*
X40005000Y44450000D03*
D19*
X37465000Y44450000D03*
X34925000Y44450000D03*
X32385000Y44450000D03*
X29845000Y44450000D03*
D18*
X32385000Y10160000D03*
D19*
X29845000Y10160000D03*
X27305000Y10160000D03*
X24765000Y10160000D03*
D20*
X40005000Y26670000D03*
X40005000Y36830000D03*
X37465000Y36830000D03*
X37465000Y26670000D03*
X32385000Y36830000D03*
X32385000Y26670000D03*
X34925000Y26670000D03*
X34925000Y36830000D03*
D23*
X45085000Y36830000D03*
X47625000Y36830000D03*
X50165000Y36830000D03*
X52705000Y36830000D03*
X52705000Y44450000D03*
X50165000Y44450000D03*
X47625000Y44450000D03*
X45085000Y44450000D03*
D18*
X24765000Y44450000D03*
D19*
X22225000Y44450000D03*
X19685000Y44450000D03*
X17145000Y44450000D03*
D18*
X19685000Y13716000D03*
D19*
X17145000Y13716000D03*
X14605000Y13716000D03*
X12065000Y13716000D03*
X9525000Y13716000D03*
D18*
X70460000Y36830000D03*
D19*
X67920000Y36830000D03*
X65380000Y36830000D03*
D20*
X52705000Y33528000D03*
X52705000Y23368000D03*
X55245000Y23368000D03*
X55245000Y33528000D03*
X57785000Y23368000D03*
X57785000Y33528000D03*
X60325000Y33528000D03*
X60325000Y23368000D03*
M02*
