G04 #@! TF.FileFunction,Legend,Top*
%FSLAX46Y46*%
G04 Gerber Fmt 4.6, Leading zero omitted, Abs format (unit mm)*
G04 Created by KiCad (PCBNEW 0.201601051410+6422~40~ubuntu14.04.1-stable) date Mo 18 Jan 2016 21:21:09 CET*
%MOMM*%
G01*
G04 APERTURE LIST*
%ADD10C,0.100000*%
%ADD11C,0.200000*%
%ADD12C,0.300000*%
%ADD13C,0.150000*%
%ADD14C,4.064000*%
%ADD15R,2.032000X1.727200*%
%ADD16O,2.032000X1.727200*%
%ADD17R,1.727200X1.727200*%
%ADD18O,1.727200X1.727200*%
%ADD19R,2.032000X2.032000*%
%ADD20O,2.032000X2.032000*%
%ADD21R,1.727200X2.032000*%
%ADD22O,1.727200X2.032000*%
%ADD23C,1.998980*%
%ADD24R,1.200000X1.200000*%
%ADD25C,1.200000*%
%ADD26O,1.600000X1.600000*%
G04 APERTURE END LIST*
D10*
D11*
X64160400Y21945600D02*
X64160400Y24688800D01*
X62839600Y21945600D02*
X64160000Y21945600D01*
X60350400Y21945600D02*
X61569600Y21945600D01*
X61569600Y21945600D02*
X61569600Y24688800D01*
X59029600Y21945600D02*
X59029600Y24688800D01*
X57810400Y21945600D02*
X59029600Y21945600D01*
X56489600Y21945600D02*
X56489600Y24688800D01*
X55219600Y21945600D02*
X56489600Y21945600D01*
X19659600Y12395200D02*
X19659600Y11480800D01*
X17119600Y12395200D02*
X17119600Y11480800D01*
X14579600Y12395200D02*
X14579600Y11480800D01*
X12039600Y12395200D02*
X12039600Y11480800D01*
X9499600Y12395200D02*
X9499600Y11480800D01*
X21945600Y36830000D02*
X22656800Y36118800D01*
X21945600Y36830000D02*
X22656800Y37541200D01*
X62839600Y21945600D02*
X62839600Y20360000D01*
X60299600Y21945600D02*
X60299600Y20360000D01*
X57810400Y21945600D02*
X57810400Y20360000D01*
X55219600Y21945600D02*
X55219600Y20320000D01*
X69962781Y32316895D02*
X70962781Y32650228D01*
X69962781Y32983562D01*
X69962781Y33507371D02*
X69962781Y33697848D01*
X70010400Y33793086D01*
X70105638Y33888324D01*
X70296114Y33935943D01*
X70629448Y33935943D01*
X70819924Y33888324D01*
X70915162Y33793086D01*
X70962781Y33697848D01*
X70962781Y33507371D01*
X70915162Y33412133D01*
X70819924Y33316895D01*
X70629448Y33269276D01*
X70296114Y33269276D01*
X70105638Y33316895D01*
X70010400Y33412133D01*
X69962781Y33507371D01*
X70962781Y34840705D02*
X70962781Y34364514D01*
X69962781Y34364514D01*
X68429143Y32813715D02*
X68476762Y32766096D01*
X68524381Y32623239D01*
X68524381Y32528001D01*
X68476762Y32385143D01*
X68381524Y32289905D01*
X68286286Y32242286D01*
X68095810Y32194667D01*
X67952952Y32194667D01*
X67762476Y32242286D01*
X67667238Y32289905D01*
X67572000Y32385143D01*
X67524381Y32528001D01*
X67524381Y32623239D01*
X67572000Y32766096D01*
X67619619Y32813715D01*
X67524381Y33242286D02*
X68333905Y33242286D01*
X68429143Y33289905D01*
X68476762Y33337524D01*
X68524381Y33432762D01*
X68524381Y33623239D01*
X68476762Y33718477D01*
X68429143Y33766096D01*
X68333905Y33813715D01*
X67524381Y33813715D01*
X68524381Y34861334D02*
X68048190Y34528000D01*
X68524381Y34289905D02*
X67524381Y34289905D01*
X67524381Y34670858D01*
X67572000Y34766096D01*
X67619619Y34813715D01*
X67714857Y34861334D01*
X67857714Y34861334D01*
X67952952Y34813715D01*
X68000571Y34766096D01*
X68048190Y34670858D01*
X68048190Y34289905D01*
X64930400Y32766096D02*
X64882781Y32670858D01*
X64882781Y32528001D01*
X64930400Y32385143D01*
X65025638Y32289905D01*
X65120876Y32242286D01*
X65311352Y32194667D01*
X65454210Y32194667D01*
X65644686Y32242286D01*
X65739924Y32289905D01*
X65835162Y32385143D01*
X65882781Y32528001D01*
X65882781Y32623239D01*
X65835162Y32766096D01*
X65787543Y32813715D01*
X65454210Y32813715D01*
X65454210Y32623239D01*
X65882781Y33242286D02*
X64882781Y33242286D01*
X65882781Y33813715D01*
X64882781Y33813715D01*
X65882781Y34289905D02*
X64882781Y34289905D01*
X64882781Y34528000D01*
X64930400Y34670858D01*
X65025638Y34766096D01*
X65120876Y34813715D01*
X65311352Y34861334D01*
X65454210Y34861334D01*
X65644686Y34813715D01*
X65739924Y34766096D01*
X65835162Y34670858D01*
X65882781Y34528000D01*
X65882781Y34289905D01*
X62937237Y46410619D02*
X62937237Y47410619D01*
X62937237Y47029667D02*
X63032475Y47077286D01*
X63222952Y47077286D01*
X63318190Y47029667D01*
X63365809Y46982048D01*
X63413428Y46886810D01*
X63413428Y46601095D01*
X63365809Y46505857D01*
X63318190Y46458238D01*
X63222952Y46410619D01*
X63032475Y46410619D01*
X62937237Y46458238D01*
X63746761Y47077286D02*
X63984856Y46410619D01*
X64222952Y47077286D02*
X63984856Y46410619D01*
X63889618Y46172524D01*
X63841999Y46124905D01*
X63746761Y46077286D01*
X65365809Y46410619D02*
X65365809Y47410619D01*
X65699143Y46696333D01*
X66032476Y47410619D01*
X66032476Y46410619D01*
X66508666Y46410619D02*
X66508666Y47077286D01*
X66508666Y47410619D02*
X66461047Y47363000D01*
X66508666Y47315381D01*
X66556285Y47363000D01*
X66508666Y47410619D01*
X66508666Y47315381D01*
X66984856Y46410619D02*
X66984856Y47077286D01*
X66984856Y46886810D02*
X67032475Y46982048D01*
X67080094Y47029667D01*
X67175332Y47077286D01*
X67270571Y47077286D01*
X67603904Y46410619D02*
X67603904Y47410619D01*
X67699142Y46791571D02*
X67984857Y46410619D01*
X67984857Y47077286D02*
X67603904Y46696333D01*
X68556285Y46410619D02*
X68461047Y46458238D01*
X68413428Y46505857D01*
X68365809Y46601095D01*
X68365809Y46886810D01*
X68413428Y46982048D01*
X68461047Y47029667D01*
X68556285Y47077286D01*
X68699143Y47077286D01*
X68794381Y47029667D01*
X68842000Y46982048D01*
X68889619Y46886810D01*
X68889619Y46601095D01*
X68842000Y46505857D01*
X68794381Y46458238D01*
X68699143Y46410619D01*
X68556285Y46410619D01*
X70080095Y46410619D02*
X70080095Y47410619D01*
X70318190Y47410619D01*
X70461048Y47363000D01*
X70556286Y47267762D01*
X70603905Y47172524D01*
X70651524Y46982048D01*
X70651524Y46839190D01*
X70603905Y46648714D01*
X70556286Y46553476D01*
X70461048Y46458238D01*
X70318190Y46410619D01*
X70080095Y46410619D01*
X71461048Y46458238D02*
X71365810Y46410619D01*
X71175333Y46410619D01*
X71080095Y46458238D01*
X71032476Y46553476D01*
X71032476Y46934429D01*
X71080095Y47029667D01*
X71175333Y47077286D01*
X71365810Y47077286D01*
X71461048Y47029667D01*
X71508667Y46934429D01*
X71508667Y46839190D01*
X71032476Y46743952D01*
X71937238Y47077286D02*
X71937238Y46410619D01*
X71937238Y46982048D02*
X71984857Y47029667D01*
X72080095Y47077286D01*
X72222953Y47077286D01*
X72318191Y47029667D01*
X72365810Y46934429D01*
X72365810Y46410619D01*
X73222953Y46458238D02*
X73127715Y46410619D01*
X72937238Y46410619D01*
X72842000Y46458238D01*
X72794381Y46553476D01*
X72794381Y46934429D01*
X72842000Y47029667D01*
X72937238Y47077286D01*
X73127715Y47077286D01*
X73222953Y47029667D01*
X73270572Y46934429D01*
X73270572Y46839190D01*
X72794381Y46743952D01*
X74127715Y46458238D02*
X74032477Y46410619D01*
X73842000Y46410619D01*
X73746762Y46458238D01*
X73699143Y46505857D01*
X73651524Y46601095D01*
X73651524Y46886810D01*
X73699143Y46982048D01*
X73746762Y47029667D01*
X73842000Y47077286D01*
X74032477Y47077286D01*
X74127715Y47029667D01*
X74556286Y46410619D02*
X74556286Y47410619D01*
X74651524Y46791571D02*
X74937239Y46410619D01*
X74937239Y47077286D02*
X74556286Y46696333D01*
X75746763Y46458238D02*
X75651525Y46410619D01*
X75461048Y46410619D01*
X75365810Y46458238D01*
X75318191Y46553476D01*
X75318191Y46934429D01*
X75365810Y47029667D01*
X75461048Y47077286D01*
X75651525Y47077286D01*
X75746763Y47029667D01*
X75794382Y46934429D01*
X75794382Y46839190D01*
X75318191Y46743952D01*
X53086000Y31369000D02*
X53086000Y17145000D01*
X72771000Y31369000D02*
X53086000Y31369000D01*
X72771000Y17145000D02*
X72771000Y31369000D01*
X53086000Y17145000D02*
X72771000Y17145000D01*
X49911000Y34290000D02*
X22606000Y34290000D01*
X22606000Y17145000D02*
X49911000Y17145000D01*
X22606000Y34290000D02*
X22606000Y17145000D01*
X49911000Y34290000D02*
X49911000Y17145000D01*
X12390619Y7040619D02*
X12390619Y8040619D01*
X12819190Y7945381D02*
X12866809Y7993000D01*
X12962047Y8040619D01*
X13200143Y8040619D01*
X13295381Y7993000D01*
X13343000Y7945381D01*
X13390619Y7850143D01*
X13390619Y7754905D01*
X13343000Y7612048D01*
X12771571Y7040619D01*
X13390619Y7040619D01*
X14390619Y7135857D02*
X14343000Y7088238D01*
X14200143Y7040619D01*
X14104905Y7040619D01*
X13962047Y7088238D01*
X13866809Y7183476D01*
X13819190Y7278714D01*
X13771571Y7469190D01*
X13771571Y7612048D01*
X13819190Y7802524D01*
X13866809Y7897762D01*
X13962047Y7993000D01*
X14104905Y8040619D01*
X14200143Y8040619D01*
X14343000Y7993000D01*
X14390619Y7945381D01*
X14771571Y7945381D02*
X14819190Y7993000D01*
X14914428Y8040619D01*
X15152524Y8040619D01*
X15247762Y7993000D01*
X15295381Y7945381D01*
X15343000Y7850143D01*
X15343000Y7754905D01*
X15295381Y7612048D01*
X14723952Y7040619D01*
X15343000Y7040619D01*
X27019667Y7040619D02*
X27019667Y8040619D01*
X27019667Y7564429D02*
X27591096Y7564429D01*
X27591096Y7040619D02*
X27591096Y8040619D01*
X28638715Y7135857D02*
X28591096Y7088238D01*
X28448239Y7040619D01*
X28353001Y7040619D01*
X28210143Y7088238D01*
X28114905Y7183476D01*
X28067286Y7278714D01*
X28019667Y7469190D01*
X28019667Y7612048D01*
X28067286Y7802524D01*
X28114905Y7897762D01*
X28210143Y7993000D01*
X28353001Y8040619D01*
X28448239Y8040619D01*
X28591096Y7993000D01*
X28638715Y7945381D01*
X29067286Y7421571D02*
X29829191Y7421571D01*
X30257762Y7088238D02*
X30400619Y7040619D01*
X30638715Y7040619D01*
X30733953Y7088238D01*
X30781572Y7135857D01*
X30829191Y7231095D01*
X30829191Y7326333D01*
X30781572Y7421571D01*
X30733953Y7469190D01*
X30638715Y7516810D01*
X30448238Y7564429D01*
X30353000Y7612048D01*
X30305381Y7659667D01*
X30257762Y7754905D01*
X30257762Y7850143D01*
X30305381Y7945381D01*
X30353000Y7993000D01*
X30448238Y8040619D01*
X30686334Y8040619D01*
X30829191Y7993000D01*
X31829191Y7040619D02*
X31495857Y7516810D01*
X31257762Y7040619D02*
X31257762Y8040619D01*
X31638715Y8040619D01*
X31733953Y7993000D01*
X31781572Y7945381D01*
X31829191Y7850143D01*
X31829191Y7707286D01*
X31781572Y7612048D01*
X31733953Y7564429D01*
X31638715Y7516810D01*
X31257762Y7516810D01*
X32448238Y8040619D02*
X32543477Y8040619D01*
X32638715Y7993000D01*
X32686334Y7945381D01*
X32733953Y7850143D01*
X32781572Y7659667D01*
X32781572Y7421571D01*
X32733953Y7231095D01*
X32686334Y7135857D01*
X32638715Y7088238D01*
X32543477Y7040619D01*
X32448238Y7040619D01*
X32353000Y7088238D01*
X32305381Y7135857D01*
X32257762Y7231095D01*
X32210143Y7421571D01*
X32210143Y7659667D01*
X32257762Y7850143D01*
X32305381Y7945381D01*
X32353000Y7993000D01*
X32448238Y8040619D01*
X33638715Y7707286D02*
X33638715Y7040619D01*
X33400619Y8088238D02*
X33162524Y7373952D01*
X33781572Y7373952D01*
X24265000Y12827096D02*
X24217381Y12731858D01*
X24217381Y12589001D01*
X24265000Y12446143D01*
X24360238Y12350905D01*
X24455476Y12303286D01*
X24645952Y12255667D01*
X24788810Y12255667D01*
X24979286Y12303286D01*
X25074524Y12350905D01*
X25169762Y12446143D01*
X25217381Y12589001D01*
X25217381Y12684239D01*
X25169762Y12827096D01*
X25122143Y12874715D01*
X24788810Y12874715D01*
X24788810Y12684239D01*
X25217381Y13303286D02*
X24217381Y13303286D01*
X25217381Y13874715D01*
X24217381Y13874715D01*
X25217381Y14350905D02*
X24217381Y14350905D01*
X24217381Y14589000D01*
X24265000Y14731858D01*
X24360238Y14827096D01*
X24455476Y14874715D01*
X24645952Y14922334D01*
X24788810Y14922334D01*
X24979286Y14874715D01*
X25074524Y14827096D01*
X25169762Y14731858D01*
X25217381Y14589000D01*
X25217381Y14350905D01*
X27360571Y12335095D02*
X27360571Y12668429D01*
X27884381Y12811286D02*
X27884381Y12335095D01*
X26884381Y12335095D01*
X26884381Y12811286D01*
X27789143Y13811286D02*
X27836762Y13763667D01*
X27884381Y13620810D01*
X27884381Y13525572D01*
X27836762Y13382714D01*
X27741524Y13287476D01*
X27646286Y13239857D01*
X27455810Y13192238D01*
X27312952Y13192238D01*
X27122476Y13239857D01*
X27027238Y13287476D01*
X26932000Y13382714D01*
X26884381Y13525572D01*
X26884381Y13620810D01*
X26932000Y13763667D01*
X26979619Y13811286D01*
X27884381Y14239857D02*
X26884381Y14239857D01*
X27360571Y14239857D02*
X27360571Y14811286D01*
X27884381Y14811286D02*
X26884381Y14811286D01*
X26884381Y15477952D02*
X26884381Y15668429D01*
X26932000Y15763667D01*
X27027238Y15858905D01*
X27217714Y15906524D01*
X27551048Y15906524D01*
X27741524Y15858905D01*
X27836762Y15763667D01*
X27884381Y15668429D01*
X27884381Y15477952D01*
X27836762Y15382714D01*
X27741524Y15287476D01*
X27551048Y15239857D01*
X27217714Y15239857D01*
X27027238Y15287476D01*
X26932000Y15382714D01*
X26884381Y15477952D01*
X29424381Y12319191D02*
X29424381Y12890620D01*
X30424381Y12604905D02*
X29424381Y12604905D01*
X30424381Y13795382D02*
X29948190Y13462048D01*
X30424381Y13223953D02*
X29424381Y13223953D01*
X29424381Y13604906D01*
X29472000Y13700144D01*
X29519619Y13747763D01*
X29614857Y13795382D01*
X29757714Y13795382D01*
X29852952Y13747763D01*
X29900571Y13700144D01*
X29948190Y13604906D01*
X29948190Y13223953D01*
X30424381Y14223953D02*
X29424381Y14223953D01*
X29472000Y15223953D02*
X29424381Y15128715D01*
X29424381Y14985858D01*
X29472000Y14843000D01*
X29567238Y14747762D01*
X29662476Y14700143D01*
X29852952Y14652524D01*
X29995810Y14652524D01*
X30186286Y14700143D01*
X30281524Y14747762D01*
X30376762Y14843000D01*
X30424381Y14985858D01*
X30424381Y15081096D01*
X30376762Y15223953D01*
X30329143Y15271572D01*
X29995810Y15271572D01*
X29995810Y15081096D01*
X32091381Y12763524D02*
X32091381Y12287333D01*
X32567571Y12239714D01*
X32519952Y12287333D01*
X32472333Y12382571D01*
X32472333Y12620667D01*
X32519952Y12715905D01*
X32567571Y12763524D01*
X32662810Y12811143D01*
X32900905Y12811143D01*
X32996143Y12763524D01*
X33043762Y12715905D01*
X33091381Y12620667D01*
X33091381Y12382571D01*
X33043762Y12287333D01*
X32996143Y12239714D01*
X32091381Y13096857D02*
X33091381Y13430190D01*
X32091381Y13763524D01*
X21945600Y36830000D02*
X24485600Y36830000D01*
X24344381Y41465524D02*
X24344381Y40989333D01*
X24820571Y40941714D01*
X24772952Y40989333D01*
X24725333Y41084571D01*
X24725333Y41322667D01*
X24772952Y41417905D01*
X24820571Y41465524D01*
X24915810Y41513143D01*
X25153905Y41513143D01*
X25249143Y41465524D01*
X25296762Y41417905D01*
X25344381Y41322667D01*
X25344381Y41084571D01*
X25296762Y40989333D01*
X25249143Y40941714D01*
X24344381Y41798857D02*
X25344381Y42132190D01*
X24344381Y42465524D01*
X39711381Y41211524D02*
X39711381Y40735333D01*
X40187571Y40687714D01*
X40139952Y40735333D01*
X40092333Y40830571D01*
X40092333Y41068667D01*
X40139952Y41163905D01*
X40187571Y41211524D01*
X40282810Y41259143D01*
X40520905Y41259143D01*
X40616143Y41211524D01*
X40663762Y41163905D01*
X40711381Y41068667D01*
X40711381Y40830571D01*
X40663762Y40735333D01*
X40616143Y40687714D01*
X39711381Y41544857D02*
X40711381Y41878190D01*
X39711381Y42211524D01*
X43124381Y21320238D02*
X42124381Y21320238D01*
X43124381Y21796428D02*
X42124381Y21796428D01*
X43124381Y22367857D01*
X42124381Y22367857D01*
X42124381Y22701190D02*
X42124381Y23272619D01*
X43124381Y22986904D02*
X42124381Y22986904D01*
X47252000Y21844096D02*
X47204381Y21748858D01*
X47204381Y21606001D01*
X47252000Y21463143D01*
X47347238Y21367905D01*
X47442476Y21320286D01*
X47632952Y21272667D01*
X47775810Y21272667D01*
X47966286Y21320286D01*
X48061524Y21367905D01*
X48156762Y21463143D01*
X48204381Y21606001D01*
X48204381Y21701239D01*
X48156762Y21844096D01*
X48109143Y21891715D01*
X47775810Y21891715D01*
X47775810Y21701239D01*
X48204381Y22320286D02*
X47204381Y22320286D01*
X48204381Y22891715D01*
X47204381Y22891715D01*
X48204381Y23367905D02*
X47204381Y23367905D01*
X47204381Y23606000D01*
X47252000Y23748858D01*
X47347238Y23844096D01*
X47442476Y23891715D01*
X47632952Y23939334D01*
X47775810Y23939334D01*
X47966286Y23891715D01*
X48061524Y23844096D01*
X48156762Y23748858D01*
X48204381Y23606000D01*
X48204381Y23367905D01*
X69985000Y21844096D02*
X69937381Y21748858D01*
X69937381Y21606001D01*
X69985000Y21463143D01*
X70080238Y21367905D01*
X70175476Y21320286D01*
X70365952Y21272667D01*
X70508810Y21272667D01*
X70699286Y21320286D01*
X70794524Y21367905D01*
X70889762Y21463143D01*
X70937381Y21606001D01*
X70937381Y21701239D01*
X70889762Y21844096D01*
X70842143Y21891715D01*
X70508810Y21891715D01*
X70508810Y21701239D01*
X70937381Y22320286D02*
X69937381Y22320286D01*
X70937381Y22891715D01*
X69937381Y22891715D01*
X70937381Y23367905D02*
X69937381Y23367905D01*
X69937381Y23606000D01*
X69985000Y23748858D01*
X70080238Y23844096D01*
X70175476Y23891715D01*
X70365952Y23939334D01*
X70508810Y23939334D01*
X70699286Y23891715D01*
X70794524Y23844096D01*
X70889762Y23748858D01*
X70937381Y23606000D01*
X70937381Y23367905D01*
X68397381Y21288572D02*
X67397381Y21288572D01*
X68111667Y21621906D01*
X67397381Y21955239D01*
X68397381Y21955239D01*
X68397381Y22431429D02*
X67397381Y22431429D01*
X68349762Y22860000D02*
X68397381Y23002857D01*
X68397381Y23240953D01*
X68349762Y23336191D01*
X68302143Y23383810D01*
X68206905Y23431429D01*
X68111667Y23431429D01*
X68016429Y23383810D01*
X67968810Y23336191D01*
X67921190Y23240953D01*
X67873571Y23050476D01*
X67825952Y22955238D01*
X67778333Y22907619D01*
X67683095Y22860000D01*
X67587857Y22860000D01*
X67492619Y22907619D01*
X67445000Y22955238D01*
X67397381Y23050476D01*
X67397381Y23288572D01*
X67445000Y23431429D01*
X67397381Y24050476D02*
X67397381Y24240953D01*
X67445000Y24336191D01*
X67540238Y24431429D01*
X67730714Y24479048D01*
X68064048Y24479048D01*
X68254524Y24431429D01*
X68349762Y24336191D01*
X68397381Y24240953D01*
X68397381Y24050476D01*
X68349762Y23955238D01*
X68254524Y23860000D01*
X68064048Y23812381D01*
X67730714Y23812381D01*
X67540238Y23860000D01*
X67445000Y23955238D01*
X67397381Y24050476D01*
X65762143Y21931334D02*
X65809762Y21883715D01*
X65857381Y21740858D01*
X65857381Y21645620D01*
X65809762Y21502762D01*
X65714524Y21407524D01*
X65619286Y21359905D01*
X65428810Y21312286D01*
X65285952Y21312286D01*
X65095476Y21359905D01*
X65000238Y21407524D01*
X64905000Y21502762D01*
X64857381Y21645620D01*
X64857381Y21740858D01*
X64905000Y21883715D01*
X64952619Y21931334D01*
X65809762Y22312286D02*
X65857381Y22455143D01*
X65857381Y22693239D01*
X65809762Y22788477D01*
X65762143Y22836096D01*
X65666905Y22883715D01*
X65571667Y22883715D01*
X65476429Y22836096D01*
X65428810Y22788477D01*
X65381190Y22693239D01*
X65333571Y22502762D01*
X65285952Y22407524D01*
X65238333Y22359905D01*
X65143095Y22312286D01*
X65047857Y22312286D01*
X64952619Y22359905D01*
X64905000Y22407524D01*
X64857381Y22502762D01*
X64857381Y22740858D01*
X64905000Y22883715D01*
X64663581Y25098572D02*
X63663581Y25098572D01*
X64377867Y25431906D01*
X63663581Y25765239D01*
X64663581Y25765239D01*
X63663581Y26431905D02*
X63663581Y26622382D01*
X63711200Y26717620D01*
X63806438Y26812858D01*
X63996914Y26860477D01*
X64330248Y26860477D01*
X64520724Y26812858D01*
X64615962Y26717620D01*
X64663581Y26622382D01*
X64663581Y26431905D01*
X64615962Y26336667D01*
X64520724Y26241429D01*
X64330248Y26193810D01*
X63996914Y26193810D01*
X63806438Y26241429D01*
X63711200Y26336667D01*
X63663581Y26431905D01*
X64615962Y27241429D02*
X64663581Y27384286D01*
X64663581Y27622382D01*
X64615962Y27717620D01*
X64568343Y27765239D01*
X64473105Y27812858D01*
X64377867Y27812858D01*
X64282629Y27765239D01*
X64235010Y27717620D01*
X64187390Y27622382D01*
X64139771Y27431905D01*
X64092152Y27336667D01*
X64044533Y27289048D01*
X63949295Y27241429D01*
X63854057Y27241429D01*
X63758819Y27289048D01*
X63711200Y27336667D01*
X63663581Y27431905D01*
X63663581Y27670001D01*
X63711200Y27812858D01*
X64663581Y28241429D02*
X63663581Y28241429D01*
X62025162Y25081124D02*
X62072781Y25223981D01*
X62072781Y25462077D01*
X62025162Y25557315D01*
X61977543Y25604934D01*
X61882305Y25652553D01*
X61787067Y25652553D01*
X61691829Y25604934D01*
X61644210Y25557315D01*
X61596590Y25462077D01*
X61548971Y25271600D01*
X61501352Y25176362D01*
X61453733Y25128743D01*
X61358495Y25081124D01*
X61263257Y25081124D01*
X61168019Y25128743D01*
X61120400Y25176362D01*
X61072781Y25271600D01*
X61072781Y25509696D01*
X61120400Y25652553D01*
X61977543Y26652553D02*
X62025162Y26604934D01*
X62072781Y26462077D01*
X62072781Y26366839D01*
X62025162Y26223981D01*
X61929924Y26128743D01*
X61834686Y26081124D01*
X61644210Y26033505D01*
X61501352Y26033505D01*
X61310876Y26081124D01*
X61215638Y26128743D01*
X61120400Y26223981D01*
X61072781Y26366839D01*
X61072781Y26462077D01*
X61120400Y26604934D01*
X61168019Y26652553D01*
X62072781Y27557315D02*
X62072781Y27081124D01*
X61072781Y27081124D01*
X62072781Y27890648D02*
X61072781Y27890648D01*
X62072781Y28462077D02*
X61501352Y28033505D01*
X61072781Y28462077D02*
X61644210Y27890648D01*
X58580400Y25654096D02*
X58532781Y25558858D01*
X58532781Y25416001D01*
X58580400Y25273143D01*
X58675638Y25177905D01*
X58770876Y25130286D01*
X58961352Y25082667D01*
X59104210Y25082667D01*
X59294686Y25130286D01*
X59389924Y25177905D01*
X59485162Y25273143D01*
X59532781Y25416001D01*
X59532781Y25511239D01*
X59485162Y25654096D01*
X59437543Y25701715D01*
X59104210Y25701715D01*
X59104210Y25511239D01*
X59532781Y26130286D02*
X58532781Y26130286D01*
X59532781Y26701715D01*
X58532781Y26701715D01*
X59532781Y27177905D02*
X58532781Y27177905D01*
X58532781Y27416000D01*
X58580400Y27558858D01*
X58675638Y27654096D01*
X58770876Y27701715D01*
X58961352Y27749334D01*
X59104210Y27749334D01*
X59294686Y27701715D01*
X59389924Y27654096D01*
X59485162Y27558858D01*
X59532781Y27416000D01*
X59532781Y27177905D01*
X55992781Y25092210D02*
X55992781Y25711258D01*
X56373733Y25377924D01*
X56373733Y25520782D01*
X56421352Y25616020D01*
X56468971Y25663639D01*
X56564210Y25711258D01*
X56802305Y25711258D01*
X56897543Y25663639D01*
X56945162Y25616020D01*
X56992781Y25520782D01*
X56992781Y25235067D01*
X56945162Y25139829D01*
X56897543Y25092210D01*
X56897543Y26139829D02*
X56945162Y26187448D01*
X56992781Y26139829D01*
X56945162Y26092210D01*
X56897543Y26139829D01*
X56992781Y26139829D01*
X55992781Y26520781D02*
X55992781Y27139829D01*
X56373733Y26806495D01*
X56373733Y26949353D01*
X56421352Y27044591D01*
X56468971Y27092210D01*
X56564210Y27139829D01*
X56802305Y27139829D01*
X56897543Y27092210D01*
X56945162Y27044591D01*
X56992781Y26949353D01*
X56992781Y26663638D01*
X56945162Y26568400D01*
X56897543Y26520781D01*
X55992781Y27425543D02*
X56992781Y27758876D01*
X55992781Y28092210D01*
X45442143Y21931334D02*
X45489762Y21883715D01*
X45537381Y21740858D01*
X45537381Y21645620D01*
X45489762Y21502762D01*
X45394524Y21407524D01*
X45299286Y21359905D01*
X45108810Y21312286D01*
X44965952Y21312286D01*
X44775476Y21359905D01*
X44680238Y21407524D01*
X44585000Y21502762D01*
X44537381Y21645620D01*
X44537381Y21740858D01*
X44585000Y21883715D01*
X44632619Y21931334D01*
X45489762Y22312286D02*
X45537381Y22455143D01*
X45537381Y22693239D01*
X45489762Y22788477D01*
X45442143Y22836096D01*
X45346905Y22883715D01*
X45251667Y22883715D01*
X45156429Y22836096D01*
X45108810Y22788477D01*
X45061190Y22693239D01*
X45013571Y22502762D01*
X44965952Y22407524D01*
X44918333Y22359905D01*
X44823095Y22312286D01*
X44727857Y22312286D01*
X44632619Y22359905D01*
X44585000Y22407524D01*
X44537381Y22502762D01*
X44537381Y22740858D01*
X44585000Y22883715D01*
X24217381Y21383810D02*
X24217381Y22002858D01*
X24598333Y21669524D01*
X24598333Y21812382D01*
X24645952Y21907620D01*
X24693571Y21955239D01*
X24788810Y22002858D01*
X25026905Y22002858D01*
X25122143Y21955239D01*
X25169762Y21907620D01*
X25217381Y21812382D01*
X25217381Y21526667D01*
X25169762Y21431429D01*
X25122143Y21383810D01*
X25122143Y22431429D02*
X25169762Y22479048D01*
X25217381Y22431429D01*
X25169762Y22383810D01*
X25122143Y22431429D01*
X25217381Y22431429D01*
X24217381Y22812381D02*
X24217381Y23431429D01*
X24598333Y23098095D01*
X24598333Y23240953D01*
X24645952Y23336191D01*
X24693571Y23383810D01*
X24788810Y23431429D01*
X25026905Y23431429D01*
X25122143Y23383810D01*
X25169762Y23336191D01*
X25217381Y23240953D01*
X25217381Y22955238D01*
X25169762Y22860000D01*
X25122143Y22812381D01*
X24217381Y23717143D02*
X25217381Y24050476D01*
X24217381Y24383810D01*
X26805000Y21717096D02*
X26757381Y21621858D01*
X26757381Y21479001D01*
X26805000Y21336143D01*
X26900238Y21240905D01*
X26995476Y21193286D01*
X27185952Y21145667D01*
X27328810Y21145667D01*
X27519286Y21193286D01*
X27614524Y21240905D01*
X27709762Y21336143D01*
X27757381Y21479001D01*
X27757381Y21574239D01*
X27709762Y21717096D01*
X27662143Y21764715D01*
X27328810Y21764715D01*
X27328810Y21574239D01*
X27757381Y22193286D02*
X26757381Y22193286D01*
X27757381Y22764715D01*
X26757381Y22764715D01*
X27757381Y23240905D02*
X26757381Y23240905D01*
X26757381Y23479000D01*
X26805000Y23621858D01*
X26900238Y23717096D01*
X26995476Y23764715D01*
X27185952Y23812334D01*
X27328810Y23812334D01*
X27519286Y23764715D01*
X27614524Y23717096D01*
X27709762Y23621858D01*
X27757381Y23479000D01*
X27757381Y23240905D01*
X30249762Y21169524D02*
X30297381Y21312381D01*
X30297381Y21550477D01*
X30249762Y21645715D01*
X30202143Y21693334D01*
X30106905Y21740953D01*
X30011667Y21740953D01*
X29916429Y21693334D01*
X29868810Y21645715D01*
X29821190Y21550477D01*
X29773571Y21360000D01*
X29725952Y21264762D01*
X29678333Y21217143D01*
X29583095Y21169524D01*
X29487857Y21169524D01*
X29392619Y21217143D01*
X29345000Y21264762D01*
X29297381Y21360000D01*
X29297381Y21598096D01*
X29345000Y21740953D01*
X30202143Y22740953D02*
X30249762Y22693334D01*
X30297381Y22550477D01*
X30297381Y22455239D01*
X30249762Y22312381D01*
X30154524Y22217143D01*
X30059286Y22169524D01*
X29868810Y22121905D01*
X29725952Y22121905D01*
X29535476Y22169524D01*
X29440238Y22217143D01*
X29345000Y22312381D01*
X29297381Y22455239D01*
X29297381Y22550477D01*
X29345000Y22693334D01*
X29392619Y22740953D01*
X30297381Y23645715D02*
X30297381Y23169524D01*
X29297381Y23169524D01*
X30297381Y23979048D02*
X29297381Y23979048D01*
X30297381Y24550477D02*
X29725952Y24121905D01*
X29297381Y24550477D02*
X29868810Y23979048D01*
X32837381Y21288572D02*
X31837381Y21288572D01*
X32551667Y21621906D01*
X31837381Y21955239D01*
X32837381Y21955239D01*
X31837381Y22621905D02*
X31837381Y22812382D01*
X31885000Y22907620D01*
X31980238Y23002858D01*
X32170714Y23050477D01*
X32504048Y23050477D01*
X32694524Y23002858D01*
X32789762Y22907620D01*
X32837381Y22812382D01*
X32837381Y22621905D01*
X32789762Y22526667D01*
X32694524Y22431429D01*
X32504048Y22383810D01*
X32170714Y22383810D01*
X31980238Y22431429D01*
X31885000Y22526667D01*
X31837381Y22621905D01*
X32789762Y23431429D02*
X32837381Y23574286D01*
X32837381Y23812382D01*
X32789762Y23907620D01*
X32742143Y23955239D01*
X32646905Y24002858D01*
X32551667Y24002858D01*
X32456429Y23955239D01*
X32408810Y23907620D01*
X32361190Y23812382D01*
X32313571Y23621905D01*
X32265952Y23526667D01*
X32218333Y23479048D01*
X32123095Y23431429D01*
X32027857Y23431429D01*
X31932619Y23479048D01*
X31885000Y23526667D01*
X31837381Y23621905D01*
X31837381Y23860001D01*
X31885000Y24002858D01*
X32837381Y24431429D02*
X31837381Y24431429D01*
X40457381Y21288572D02*
X39457381Y21288572D01*
X40171667Y21621906D01*
X39457381Y21955239D01*
X40457381Y21955239D01*
X40457381Y22431429D02*
X39457381Y22431429D01*
X40409762Y22860000D02*
X40457381Y23002857D01*
X40457381Y23240953D01*
X40409762Y23336191D01*
X40362143Y23383810D01*
X40266905Y23431429D01*
X40171667Y23431429D01*
X40076429Y23383810D01*
X40028810Y23336191D01*
X39981190Y23240953D01*
X39933571Y23050476D01*
X39885952Y22955238D01*
X39838333Y22907619D01*
X39743095Y22860000D01*
X39647857Y22860000D01*
X39552619Y22907619D01*
X39505000Y22955238D01*
X39457381Y23050476D01*
X39457381Y23288572D01*
X39505000Y23431429D01*
X39457381Y24050476D02*
X39457381Y24240953D01*
X39505000Y24336191D01*
X39600238Y24431429D01*
X39790714Y24479048D01*
X40124048Y24479048D01*
X40314524Y24431429D01*
X40409762Y24336191D01*
X40457381Y24240953D01*
X40457381Y24050476D01*
X40409762Y23955238D01*
X40314524Y23860000D01*
X40124048Y23812381D01*
X39790714Y23812381D01*
X39600238Y23860000D01*
X39505000Y23955238D01*
X39457381Y24050476D01*
X73787143Y40187619D02*
X73453809Y40663810D01*
X73215714Y40187619D02*
X73215714Y41187619D01*
X73596667Y41187619D01*
X73691905Y41140000D01*
X73739524Y41092381D01*
X73787143Y40997143D01*
X73787143Y40854286D01*
X73739524Y40759048D01*
X73691905Y40711429D01*
X73596667Y40663810D01*
X73215714Y40663810D01*
X74787143Y40282857D02*
X74739524Y40235238D01*
X74596667Y40187619D01*
X74501429Y40187619D01*
X74358571Y40235238D01*
X74263333Y40330476D01*
X74215714Y40425714D01*
X74168095Y40616190D01*
X74168095Y40759048D01*
X74215714Y40949524D01*
X74263333Y41044762D01*
X74358571Y41140000D01*
X74501429Y41187619D01*
X74596667Y41187619D01*
X74739524Y41140000D01*
X74787143Y41092381D01*
X75739524Y40187619D02*
X75168095Y40187619D01*
X75453809Y40187619D02*
X75453809Y41187619D01*
X75358571Y41044762D01*
X75263333Y40949524D01*
X75168095Y40901905D01*
X76120476Y41092381D02*
X76168095Y41140000D01*
X76263333Y41187619D01*
X76501429Y41187619D01*
X76596667Y41140000D01*
X76644286Y41092381D01*
X76691905Y40997143D01*
X76691905Y40901905D01*
X76644286Y40759048D01*
X76072857Y40187619D01*
X76691905Y40187619D01*
X73787143Y37647619D02*
X73453809Y38123810D01*
X73215714Y37647619D02*
X73215714Y38647619D01*
X73596667Y38647619D01*
X73691905Y38600000D01*
X73739524Y38552381D01*
X73787143Y38457143D01*
X73787143Y38314286D01*
X73739524Y38219048D01*
X73691905Y38171429D01*
X73596667Y38123810D01*
X73215714Y38123810D01*
X74787143Y37742857D02*
X74739524Y37695238D01*
X74596667Y37647619D01*
X74501429Y37647619D01*
X74358571Y37695238D01*
X74263333Y37790476D01*
X74215714Y37885714D01*
X74168095Y38076190D01*
X74168095Y38219048D01*
X74215714Y38409524D01*
X74263333Y38504762D01*
X74358571Y38600000D01*
X74501429Y38647619D01*
X74596667Y38647619D01*
X74739524Y38600000D01*
X74787143Y38552381D01*
X75739524Y37647619D02*
X75168095Y37647619D01*
X75453809Y37647619D02*
X75453809Y38647619D01*
X75358571Y38504762D01*
X75263333Y38409524D01*
X75168095Y38361905D01*
X76691905Y37647619D02*
X76120476Y37647619D01*
X76406190Y37647619D02*
X76406190Y38647619D01*
X76310952Y38504762D01*
X76215714Y38409524D01*
X76120476Y38361905D01*
X73787143Y35107619D02*
X73453809Y35583810D01*
X73215714Y35107619D02*
X73215714Y36107619D01*
X73596667Y36107619D01*
X73691905Y36060000D01*
X73739524Y36012381D01*
X73787143Y35917143D01*
X73787143Y35774286D01*
X73739524Y35679048D01*
X73691905Y35631429D01*
X73596667Y35583810D01*
X73215714Y35583810D01*
X74787143Y35202857D02*
X74739524Y35155238D01*
X74596667Y35107619D01*
X74501429Y35107619D01*
X74358571Y35155238D01*
X74263333Y35250476D01*
X74215714Y35345714D01*
X74168095Y35536190D01*
X74168095Y35679048D01*
X74215714Y35869524D01*
X74263333Y35964762D01*
X74358571Y36060000D01*
X74501429Y36107619D01*
X74596667Y36107619D01*
X74739524Y36060000D01*
X74787143Y36012381D01*
X75739524Y35107619D02*
X75168095Y35107619D01*
X75453809Y35107619D02*
X75453809Y36107619D01*
X75358571Y35964762D01*
X75263333Y35869524D01*
X75168095Y35821905D01*
X76358571Y36107619D02*
X76453810Y36107619D01*
X76549048Y36060000D01*
X76596667Y36012381D01*
X76644286Y35917143D01*
X76691905Y35726667D01*
X76691905Y35488571D01*
X76644286Y35298095D01*
X76596667Y35202857D01*
X76549048Y35155238D01*
X76453810Y35107619D01*
X76358571Y35107619D01*
X76263333Y35155238D01*
X76215714Y35202857D01*
X76168095Y35298095D01*
X76120476Y35488571D01*
X76120476Y35726667D01*
X76168095Y35917143D01*
X76215714Y36012381D01*
X76263333Y36060000D01*
X76358571Y36107619D01*
X73882381Y32567619D02*
X73549047Y33043810D01*
X73310952Y32567619D02*
X73310952Y33567619D01*
X73691905Y33567619D01*
X73787143Y33520000D01*
X73834762Y33472381D01*
X73882381Y33377143D01*
X73882381Y33234286D01*
X73834762Y33139048D01*
X73787143Y33091429D01*
X73691905Y33043810D01*
X73310952Y33043810D01*
X74882381Y32662857D02*
X74834762Y32615238D01*
X74691905Y32567619D01*
X74596667Y32567619D01*
X74453809Y32615238D01*
X74358571Y32710476D01*
X74310952Y32805714D01*
X74263333Y32996190D01*
X74263333Y33139048D01*
X74310952Y33329524D01*
X74358571Y33424762D01*
X74453809Y33520000D01*
X74596667Y33567619D01*
X74691905Y33567619D01*
X74834762Y33520000D01*
X74882381Y33472381D01*
X76120476Y32567619D02*
X76310952Y32567619D01*
X76406191Y32615238D01*
X76453810Y32662857D01*
X76549048Y32805714D01*
X76596667Y32996190D01*
X76596667Y33377143D01*
X76549048Y33472381D01*
X76501429Y33520000D01*
X76406191Y33567619D01*
X76215714Y33567619D01*
X76120476Y33520000D01*
X76072857Y33472381D01*
X76025238Y33377143D01*
X76025238Y33139048D01*
X76072857Y33043810D01*
X76120476Y32996190D01*
X76215714Y32948571D01*
X76406191Y32948571D01*
X76501429Y32996190D01*
X76549048Y33043810D01*
X76596667Y33139048D01*
X73882381Y30027619D02*
X73549047Y30503810D01*
X73310952Y30027619D02*
X73310952Y31027619D01*
X73691905Y31027619D01*
X73787143Y30980000D01*
X73834762Y30932381D01*
X73882381Y30837143D01*
X73882381Y30694286D01*
X73834762Y30599048D01*
X73787143Y30551429D01*
X73691905Y30503810D01*
X73310952Y30503810D01*
X74882381Y30122857D02*
X74834762Y30075238D01*
X74691905Y30027619D01*
X74596667Y30027619D01*
X74453809Y30075238D01*
X74358571Y30170476D01*
X74310952Y30265714D01*
X74263333Y30456190D01*
X74263333Y30599048D01*
X74310952Y30789524D01*
X74358571Y30884762D01*
X74453809Y30980000D01*
X74596667Y31027619D01*
X74691905Y31027619D01*
X74834762Y30980000D01*
X74882381Y30932381D01*
X76215714Y30599048D02*
X76120476Y30646667D01*
X76072857Y30694286D01*
X76025238Y30789524D01*
X76025238Y30837143D01*
X76072857Y30932381D01*
X76120476Y30980000D01*
X76215714Y31027619D01*
X76406191Y31027619D01*
X76501429Y30980000D01*
X76549048Y30932381D01*
X76596667Y30837143D01*
X76596667Y30789524D01*
X76549048Y30694286D01*
X76501429Y30646667D01*
X76406191Y30599048D01*
X76215714Y30599048D01*
X76120476Y30551429D01*
X76072857Y30503810D01*
X76025238Y30408571D01*
X76025238Y30218095D01*
X76072857Y30122857D01*
X76120476Y30075238D01*
X76215714Y30027619D01*
X76406191Y30027619D01*
X76501429Y30075238D01*
X76549048Y30122857D01*
X76596667Y30218095D01*
X76596667Y30408571D01*
X76549048Y30503810D01*
X76501429Y30551429D01*
X76406191Y30599048D01*
X73882381Y27487619D02*
X73549047Y27963810D01*
X73310952Y27487619D02*
X73310952Y28487619D01*
X73691905Y28487619D01*
X73787143Y28440000D01*
X73834762Y28392381D01*
X73882381Y28297143D01*
X73882381Y28154286D01*
X73834762Y28059048D01*
X73787143Y28011429D01*
X73691905Y27963810D01*
X73310952Y27963810D01*
X74882381Y27582857D02*
X74834762Y27535238D01*
X74691905Y27487619D01*
X74596667Y27487619D01*
X74453809Y27535238D01*
X74358571Y27630476D01*
X74310952Y27725714D01*
X74263333Y27916190D01*
X74263333Y28059048D01*
X74310952Y28249524D01*
X74358571Y28344762D01*
X74453809Y28440000D01*
X74596667Y28487619D01*
X74691905Y28487619D01*
X74834762Y28440000D01*
X74882381Y28392381D01*
X75977619Y28487619D02*
X76644286Y28487619D01*
X76215714Y27487619D01*
X73882381Y24947619D02*
X73549047Y25423810D01*
X73310952Y24947619D02*
X73310952Y25947619D01*
X73691905Y25947619D01*
X73787143Y25900000D01*
X73834762Y25852381D01*
X73882381Y25757143D01*
X73882381Y25614286D01*
X73834762Y25519048D01*
X73787143Y25471429D01*
X73691905Y25423810D01*
X73310952Y25423810D01*
X74882381Y25042857D02*
X74834762Y24995238D01*
X74691905Y24947619D01*
X74596667Y24947619D01*
X74453809Y24995238D01*
X74358571Y25090476D01*
X74310952Y25185714D01*
X74263333Y25376190D01*
X74263333Y25519048D01*
X74310952Y25709524D01*
X74358571Y25804762D01*
X74453809Y25900000D01*
X74596667Y25947619D01*
X74691905Y25947619D01*
X74834762Y25900000D01*
X74882381Y25852381D01*
X76501429Y25947619D02*
X76310952Y25947619D01*
X76215714Y25900000D01*
X76168095Y25852381D01*
X76072857Y25709524D01*
X76025238Y25519048D01*
X76025238Y25138095D01*
X76072857Y25042857D01*
X76120476Y24995238D01*
X76215714Y24947619D01*
X76406191Y24947619D01*
X76501429Y24995238D01*
X76549048Y25042857D01*
X76596667Y25138095D01*
X76596667Y25376190D01*
X76549048Y25471429D01*
X76501429Y25519048D01*
X76406191Y25566667D01*
X76215714Y25566667D01*
X76120476Y25519048D01*
X76072857Y25471429D01*
X76025238Y25376190D01*
X73882381Y22407619D02*
X73549047Y22883810D01*
X73310952Y22407619D02*
X73310952Y23407619D01*
X73691905Y23407619D01*
X73787143Y23360000D01*
X73834762Y23312381D01*
X73882381Y23217143D01*
X73882381Y23074286D01*
X73834762Y22979048D01*
X73787143Y22931429D01*
X73691905Y22883810D01*
X73310952Y22883810D01*
X74882381Y22502857D02*
X74834762Y22455238D01*
X74691905Y22407619D01*
X74596667Y22407619D01*
X74453809Y22455238D01*
X74358571Y22550476D01*
X74310952Y22645714D01*
X74263333Y22836190D01*
X74263333Y22979048D01*
X74310952Y23169524D01*
X74358571Y23264762D01*
X74453809Y23360000D01*
X74596667Y23407619D01*
X74691905Y23407619D01*
X74834762Y23360000D01*
X74882381Y23312381D01*
X76549048Y23407619D02*
X76072857Y23407619D01*
X76025238Y22931429D01*
X76072857Y22979048D01*
X76168095Y23026667D01*
X76406191Y23026667D01*
X76501429Y22979048D01*
X76549048Y22931429D01*
X76596667Y22836190D01*
X76596667Y22598095D01*
X76549048Y22502857D01*
X76501429Y22455238D01*
X76406191Y22407619D01*
X76168095Y22407619D01*
X76072857Y22455238D01*
X76025238Y22502857D01*
X73882381Y19867619D02*
X73549047Y20343810D01*
X73310952Y19867619D02*
X73310952Y20867619D01*
X73691905Y20867619D01*
X73787143Y20820000D01*
X73834762Y20772381D01*
X73882381Y20677143D01*
X73882381Y20534286D01*
X73834762Y20439048D01*
X73787143Y20391429D01*
X73691905Y20343810D01*
X73310952Y20343810D01*
X74882381Y19962857D02*
X74834762Y19915238D01*
X74691905Y19867619D01*
X74596667Y19867619D01*
X74453809Y19915238D01*
X74358571Y20010476D01*
X74310952Y20105714D01*
X74263333Y20296190D01*
X74263333Y20439048D01*
X74310952Y20629524D01*
X74358571Y20724762D01*
X74453809Y20820000D01*
X74596667Y20867619D01*
X74691905Y20867619D01*
X74834762Y20820000D01*
X74882381Y20772381D01*
X76501429Y20534286D02*
X76501429Y19867619D01*
X76263333Y20915238D02*
X76025238Y20200952D01*
X76644286Y20200952D01*
X73882381Y17327619D02*
X73549047Y17803810D01*
X73310952Y17327619D02*
X73310952Y18327619D01*
X73691905Y18327619D01*
X73787143Y18280000D01*
X73834762Y18232381D01*
X73882381Y18137143D01*
X73882381Y17994286D01*
X73834762Y17899048D01*
X73787143Y17851429D01*
X73691905Y17803810D01*
X73310952Y17803810D01*
X74882381Y17422857D02*
X74834762Y17375238D01*
X74691905Y17327619D01*
X74596667Y17327619D01*
X74453809Y17375238D01*
X74358571Y17470476D01*
X74310952Y17565714D01*
X74263333Y17756190D01*
X74263333Y17899048D01*
X74310952Y18089524D01*
X74358571Y18184762D01*
X74453809Y18280000D01*
X74596667Y18327619D01*
X74691905Y18327619D01*
X74834762Y18280000D01*
X74882381Y18232381D01*
X75977619Y18327619D02*
X76596667Y18327619D01*
X76263333Y17946667D01*
X76406191Y17946667D01*
X76501429Y17899048D01*
X76549048Y17851429D01*
X76596667Y17756190D01*
X76596667Y17518095D01*
X76549048Y17422857D01*
X76501429Y17375238D01*
X76406191Y17327619D01*
X76120476Y17327619D01*
X76025238Y17375238D01*
X75977619Y17422857D01*
X73882381Y15587619D02*
X73549047Y16063810D01*
X73310952Y15587619D02*
X73310952Y16587619D01*
X73691905Y16587619D01*
X73787143Y16540000D01*
X73834762Y16492381D01*
X73882381Y16397143D01*
X73882381Y16254286D01*
X73834762Y16159048D01*
X73787143Y16111429D01*
X73691905Y16063810D01*
X73310952Y16063810D01*
X74882381Y15682857D02*
X74834762Y15635238D01*
X74691905Y15587619D01*
X74596667Y15587619D01*
X74453809Y15635238D01*
X74358571Y15730476D01*
X74310952Y15825714D01*
X74263333Y16016190D01*
X74263333Y16159048D01*
X74310952Y16349524D01*
X74358571Y16444762D01*
X74453809Y16540000D01*
X74596667Y16587619D01*
X74691905Y16587619D01*
X74834762Y16540000D01*
X74882381Y16492381D01*
X76025238Y16492381D02*
X76072857Y16540000D01*
X76168095Y16587619D01*
X76406191Y16587619D01*
X76501429Y16540000D01*
X76549048Y16492381D01*
X76596667Y16397143D01*
X76596667Y16301905D01*
X76549048Y16159048D01*
X75977619Y15587619D01*
X76596667Y15587619D01*
X74168096Y14082857D02*
X74120477Y14035238D01*
X73977620Y13987619D01*
X73882382Y13987619D01*
X73739524Y14035238D01*
X73644286Y14130476D01*
X73596667Y14225714D01*
X73549048Y14416190D01*
X73549048Y14559048D01*
X73596667Y14749524D01*
X73644286Y14844762D01*
X73739524Y14940000D01*
X73882382Y14987619D01*
X73977620Y14987619D01*
X74120477Y14940000D01*
X74168096Y14892381D01*
X75168096Y14082857D02*
X75120477Y14035238D01*
X74977620Y13987619D01*
X74882382Y13987619D01*
X74739524Y14035238D01*
X74644286Y14130476D01*
X74596667Y14225714D01*
X74549048Y14416190D01*
X74549048Y14559048D01*
X74596667Y14749524D01*
X74644286Y14844762D01*
X74739524Y14940000D01*
X74882382Y14987619D01*
X74977620Y14987619D01*
X75120477Y14940000D01*
X75168096Y14892381D01*
X75501429Y14987619D02*
X75739524Y13987619D01*
X75930001Y14701905D01*
X76120477Y13987619D01*
X76358572Y14987619D01*
X73834524Y12247619D02*
X73501190Y12723810D01*
X73263095Y12247619D02*
X73263095Y13247619D01*
X73644048Y13247619D01*
X73739286Y13200000D01*
X73786905Y13152381D01*
X73834524Y13057143D01*
X73834524Y12914286D01*
X73786905Y12819048D01*
X73739286Y12771429D01*
X73644048Y12723810D01*
X73263095Y12723810D01*
X74834524Y12342857D02*
X74786905Y12295238D01*
X74644048Y12247619D01*
X74548810Y12247619D01*
X74405952Y12295238D01*
X74310714Y12390476D01*
X74263095Y12485714D01*
X74215476Y12676190D01*
X74215476Y12819048D01*
X74263095Y13009524D01*
X74310714Y13104762D01*
X74405952Y13200000D01*
X74548810Y13247619D01*
X74644048Y13247619D01*
X74786905Y13200000D01*
X74834524Y13152381D01*
X76548810Y12247619D02*
X75977381Y12247619D01*
X76263095Y12247619D02*
X76263095Y13247619D01*
X76167857Y13104762D01*
X76072619Y13009524D01*
X75977381Y12961905D01*
X80899000Y49530000D02*
X81534000Y48895000D01*
X80899000Y49530000D02*
X81534000Y50165000D01*
X82169000Y49530000D02*
X80899000Y49530000D01*
X82169000Y48260000D02*
X82169000Y49530000D01*
X81407096Y47490000D02*
X81311858Y47537619D01*
X81169001Y47537619D01*
X81026143Y47490000D01*
X80930905Y47394762D01*
X80883286Y47299524D01*
X80835667Y47109048D01*
X80835667Y46966190D01*
X80883286Y46775714D01*
X80930905Y46680476D01*
X81026143Y46585238D01*
X81169001Y46537619D01*
X81264239Y46537619D01*
X81407096Y46585238D01*
X81454715Y46632857D01*
X81454715Y46966190D01*
X81264239Y46966190D01*
X81883286Y46537619D02*
X81883286Y47537619D01*
X82454715Y46537619D01*
X82454715Y47537619D01*
X82930905Y46537619D02*
X82930905Y47537619D01*
X83169000Y47537619D01*
X83311858Y47490000D01*
X83407096Y47394762D01*
X83454715Y47299524D01*
X83502334Y47109048D01*
X83502334Y46966190D01*
X83454715Y46775714D01*
X83407096Y46680476D01*
X83311858Y46585238D01*
X83169000Y46537619D01*
X82930905Y46537619D01*
X81451581Y44645219D02*
X81118247Y45121410D01*
X80880152Y44645219D02*
X80880152Y45645219D01*
X81261105Y45645219D01*
X81356343Y45597600D01*
X81403962Y45549981D01*
X81451581Y45454743D01*
X81451581Y45311886D01*
X81403962Y45216648D01*
X81356343Y45169029D01*
X81261105Y45121410D01*
X80880152Y45121410D01*
X82451581Y44740457D02*
X82403962Y44692838D01*
X82261105Y44645219D01*
X82165867Y44645219D01*
X82023009Y44692838D01*
X81927771Y44788076D01*
X81880152Y44883314D01*
X81832533Y45073790D01*
X81832533Y45216648D01*
X81880152Y45407124D01*
X81927771Y45502362D01*
X82023009Y45597600D01*
X82165867Y45645219D01*
X82261105Y45645219D01*
X82403962Y45597600D01*
X82451581Y45549981D01*
X82642057Y44549981D02*
X83403962Y44549981D01*
X84070629Y45311886D02*
X84070629Y44645219D01*
X83832533Y45692838D02*
X83594438Y44978552D01*
X84213486Y44978552D01*
X82237296Y43140457D02*
X82189677Y43092838D01*
X82046820Y43045219D01*
X81951582Y43045219D01*
X81808724Y43092838D01*
X81713486Y43188076D01*
X81665867Y43283314D01*
X81618248Y43473790D01*
X81618248Y43616648D01*
X81665867Y43807124D01*
X81713486Y43902362D01*
X81808724Y43997600D01*
X81951582Y44045219D01*
X82046820Y44045219D01*
X82189677Y43997600D01*
X82237296Y43949981D01*
X82570629Y44045219D02*
X82808724Y43045219D01*
X82999201Y43759505D01*
X83189677Y43045219D01*
X83427772Y44045219D01*
X7689981Y41444819D02*
X7356647Y41921010D01*
X7118552Y41444819D02*
X7118552Y42444819D01*
X7499505Y42444819D01*
X7594743Y42397200D01*
X7642362Y42349581D01*
X7689981Y42254343D01*
X7689981Y42111486D01*
X7642362Y42016248D01*
X7594743Y41968629D01*
X7499505Y41921010D01*
X7118552Y41921010D01*
X8689981Y41540057D02*
X8642362Y41492438D01*
X8499505Y41444819D01*
X8404267Y41444819D01*
X8261409Y41492438D01*
X8166171Y41587676D01*
X8118552Y41682914D01*
X8070933Y41873390D01*
X8070933Y42016248D01*
X8118552Y42206724D01*
X8166171Y42301962D01*
X8261409Y42397200D01*
X8404267Y42444819D01*
X8499505Y42444819D01*
X8642362Y42397200D01*
X8689981Y42349581D01*
X8880457Y41349581D02*
X9642362Y41349581D01*
X10404267Y41444819D02*
X9832838Y41444819D01*
X10118552Y41444819D02*
X10118552Y42444819D01*
X10023314Y42301962D01*
X9928076Y42206724D01*
X9832838Y42159105D01*
X7975696Y39940057D02*
X7928077Y39892438D01*
X7785220Y39844819D01*
X7689982Y39844819D01*
X7547124Y39892438D01*
X7451886Y39987676D01*
X7404267Y40082914D01*
X7356648Y40273390D01*
X7356648Y40416248D01*
X7404267Y40606724D01*
X7451886Y40701962D01*
X7547124Y40797200D01*
X7689982Y40844819D01*
X7785220Y40844819D01*
X7928077Y40797200D01*
X7975696Y40749581D01*
X8975696Y39940057D02*
X8928077Y39892438D01*
X8785220Y39844819D01*
X8689982Y39844819D01*
X8547124Y39892438D01*
X8451886Y39987676D01*
X8404267Y40082914D01*
X8356648Y40273390D01*
X8356648Y40416248D01*
X8404267Y40606724D01*
X8451886Y40701962D01*
X8547124Y40797200D01*
X8689982Y40844819D01*
X8785220Y40844819D01*
X8928077Y40797200D01*
X8975696Y40749581D01*
X9309029Y40844819D02*
X9547124Y39844819D01*
X9737601Y40559105D01*
X9928077Y39844819D01*
X10166172Y40844819D01*
X7975505Y52468400D02*
X7880267Y52516019D01*
X7737410Y52516019D01*
X7594552Y52468400D01*
X7499314Y52373162D01*
X7451695Y52277924D01*
X7404076Y52087448D01*
X7404076Y51944590D01*
X7451695Y51754114D01*
X7499314Y51658876D01*
X7594552Y51563638D01*
X7737410Y51516019D01*
X7832648Y51516019D01*
X7975505Y51563638D01*
X8023124Y51611257D01*
X8023124Y51944590D01*
X7832648Y51944590D01*
X8451695Y51516019D02*
X8451695Y52516019D01*
X9023124Y51516019D01*
X9023124Y52516019D01*
X9499314Y51516019D02*
X9499314Y52516019D01*
X9737409Y52516019D01*
X9880267Y52468400D01*
X9975505Y52373162D01*
X10023124Y52277924D01*
X10070743Y52087448D01*
X10070743Y51944590D01*
X10023124Y51754114D01*
X9975505Y51658876D01*
X9880267Y51563638D01*
X9737409Y51516019D01*
X9499314Y51516019D01*
X1898781Y7104019D02*
X1565447Y7580210D01*
X1327352Y7104019D02*
X1327352Y8104019D01*
X1708305Y8104019D01*
X1803543Y8056400D01*
X1851162Y8008781D01*
X1898781Y7913543D01*
X1898781Y7770686D01*
X1851162Y7675448D01*
X1803543Y7627829D01*
X1708305Y7580210D01*
X1327352Y7580210D01*
X2898781Y7199257D02*
X2851162Y7151638D01*
X2708305Y7104019D01*
X2613067Y7104019D01*
X2470209Y7151638D01*
X2374971Y7246876D01*
X2327352Y7342114D01*
X2279733Y7532590D01*
X2279733Y7675448D01*
X2327352Y7865924D01*
X2374971Y7961162D01*
X2470209Y8056400D01*
X2613067Y8104019D01*
X2708305Y8104019D01*
X2851162Y8056400D01*
X2898781Y8008781D01*
X3089257Y7008781D02*
X3851162Y7008781D01*
X3994019Y8104019D02*
X4613067Y8104019D01*
X4279733Y7723067D01*
X4422591Y7723067D01*
X4517829Y7675448D01*
X4565448Y7627829D01*
X4613067Y7532590D01*
X4613067Y7294495D01*
X4565448Y7199257D01*
X4517829Y7151638D01*
X4422591Y7104019D01*
X4136876Y7104019D01*
X4041638Y7151638D01*
X3994019Y7199257D01*
X2684496Y5599257D02*
X2636877Y5551638D01*
X2494020Y5504019D01*
X2398782Y5504019D01*
X2255924Y5551638D01*
X2160686Y5646876D01*
X2113067Y5742114D01*
X2065448Y5932590D01*
X2065448Y6075448D01*
X2113067Y6265924D01*
X2160686Y6361162D01*
X2255924Y6456400D01*
X2398782Y6504019D01*
X2494020Y6504019D01*
X2636877Y6456400D01*
X2684496Y6408781D01*
X3017829Y6504019D02*
X3255924Y5504019D01*
X3446401Y6218305D01*
X3636877Y5504019D01*
X3874972Y6504019D01*
X2158905Y18280000D02*
X2063667Y18327619D01*
X1920810Y18327619D01*
X1777952Y18280000D01*
X1682714Y18184762D01*
X1635095Y18089524D01*
X1587476Y17899048D01*
X1587476Y17756190D01*
X1635095Y17565714D01*
X1682714Y17470476D01*
X1777952Y17375238D01*
X1920810Y17327619D01*
X2016048Y17327619D01*
X2158905Y17375238D01*
X2206524Y17422857D01*
X2206524Y17756190D01*
X2016048Y17756190D01*
X2635095Y17327619D02*
X2635095Y18327619D01*
X3206524Y17327619D01*
X3206524Y18327619D01*
X3682714Y17327619D02*
X3682714Y18327619D01*
X3920809Y18327619D01*
X4063667Y18280000D01*
X4158905Y18184762D01*
X4206524Y18089524D01*
X4254143Y17899048D01*
X4254143Y17756190D01*
X4206524Y17565714D01*
X4158905Y17470476D01*
X4063667Y17375238D01*
X3920809Y17327619D01*
X3682714Y17327619D01*
X25497886Y36835543D02*
X24997886Y36835543D01*
X24997886Y36049829D02*
X24997886Y37549829D01*
X25712172Y37549829D01*
X26283600Y36049829D02*
X26283600Y37049829D01*
X26283600Y36764114D02*
X26355028Y36906971D01*
X26426457Y36978400D01*
X26569314Y37049829D01*
X26712171Y37049829D01*
X27426457Y36049829D02*
X27283599Y36121257D01*
X27212171Y36192686D01*
X27140742Y36335543D01*
X27140742Y36764114D01*
X27212171Y36906971D01*
X27283599Y36978400D01*
X27426457Y37049829D01*
X27640742Y37049829D01*
X27783599Y36978400D01*
X27855028Y36906971D01*
X27926457Y36764114D01*
X27926457Y36335543D01*
X27855028Y36192686D01*
X27783599Y36121257D01*
X27640742Y36049829D01*
X27426457Y36049829D01*
X28569314Y37049829D02*
X28569314Y36049829D01*
X28569314Y36906971D02*
X28640742Y36978400D01*
X28783600Y37049829D01*
X28997885Y37049829D01*
X29140742Y36978400D01*
X29212171Y36835543D01*
X29212171Y36049829D01*
X29712171Y37049829D02*
X30283600Y37049829D01*
X29926457Y37549829D02*
X29926457Y36264114D01*
X29997885Y36121257D01*
X30140743Y36049829D01*
X30283600Y36049829D01*
X44537381Y12239810D02*
X44537381Y12858858D01*
X44918333Y12525524D01*
X44918333Y12668382D01*
X44965952Y12763620D01*
X45013571Y12811239D01*
X45108810Y12858858D01*
X45346905Y12858858D01*
X45442143Y12811239D01*
X45489762Y12763620D01*
X45537381Y12668382D01*
X45537381Y12382667D01*
X45489762Y12287429D01*
X45442143Y12239810D01*
X45442143Y13287429D02*
X45489762Y13335048D01*
X45537381Y13287429D01*
X45489762Y13239810D01*
X45442143Y13287429D01*
X45537381Y13287429D01*
X44537381Y13668381D02*
X44537381Y14287429D01*
X44918333Y13954095D01*
X44918333Y14096953D01*
X44965952Y14192191D01*
X45013571Y14239810D01*
X45108810Y14287429D01*
X45346905Y14287429D01*
X45442143Y14239810D01*
X45489762Y14192191D01*
X45537381Y14096953D01*
X45537381Y13811238D01*
X45489762Y13716000D01*
X45442143Y13668381D01*
X44537381Y14573143D02*
X45537381Y14906476D01*
X44537381Y15239810D01*
D12*
X43337393Y47224143D02*
X43542750Y47152714D01*
X43605250Y47081286D01*
X43658822Y46938429D01*
X43632036Y46724143D01*
X43542750Y46581286D01*
X43462393Y46509857D01*
X43310607Y46438429D01*
X42739179Y46438429D01*
X42926679Y47938429D01*
X43426679Y47938429D01*
X43560607Y47867000D01*
X43623107Y47795571D01*
X43676678Y47652714D01*
X43658821Y47509857D01*
X43569536Y47367000D01*
X43489178Y47295571D01*
X43337393Y47224143D01*
X42837393Y47224143D01*
X44837393Y47224143D02*
X45042750Y47152714D01*
X45105250Y47081286D01*
X45158822Y46938429D01*
X45132036Y46724143D01*
X45042750Y46581286D01*
X44962393Y46509857D01*
X44810607Y46438429D01*
X44239179Y46438429D01*
X44426679Y47938429D01*
X44926679Y47938429D01*
X45060607Y47867000D01*
X45123107Y47795571D01*
X45176678Y47652714D01*
X45158821Y47509857D01*
X45069536Y47367000D01*
X44989178Y47295571D01*
X44837393Y47224143D01*
X44337393Y47224143D01*
X46337393Y47224143D02*
X46542750Y47152714D01*
X46605250Y47081286D01*
X46658822Y46938429D01*
X46632036Y46724143D01*
X46542750Y46581286D01*
X46462393Y46509857D01*
X46310607Y46438429D01*
X45739179Y46438429D01*
X45926679Y47938429D01*
X46426679Y47938429D01*
X46560607Y47867000D01*
X46623107Y47795571D01*
X46676678Y47652714D01*
X46658821Y47509857D01*
X46569536Y47367000D01*
X46489178Y47295571D01*
X46337393Y47224143D01*
X45837393Y47224143D01*
X47239179Y46438429D02*
X47426679Y47938429D01*
X47792750Y46867000D01*
X48426679Y47938429D01*
X48239179Y46438429D01*
X48953465Y46438429D02*
X49140965Y47938429D01*
X49667751Y46438429D02*
X49855251Y47938429D01*
X50524894Y46438429D01*
X50712394Y47938429D01*
X51239180Y46438429D02*
X51426680Y47938429D01*
X53953466Y46438429D02*
X53542751Y47152714D01*
X53096323Y46438429D02*
X53283823Y47938429D01*
X53855251Y47938429D01*
X53989180Y47867000D01*
X54051679Y47795571D01*
X54105251Y47652714D01*
X54078466Y47438429D01*
X53989179Y47295571D01*
X53908823Y47224143D01*
X53757036Y47152714D01*
X53185608Y47152714D01*
X55176679Y46509857D02*
X55024894Y46438429D01*
X54739180Y46438429D01*
X54605251Y46509857D01*
X54551679Y46652714D01*
X54623108Y47224143D01*
X54712394Y47367000D01*
X54864180Y47438429D01*
X55149894Y47438429D01*
X55283822Y47367000D01*
X55337394Y47224143D01*
X55319537Y47081286D01*
X54587394Y46938429D01*
X55864180Y47438429D02*
X56096323Y46438429D01*
X56578465Y47438429D01*
X57042751Y46581286D02*
X57105250Y46509857D01*
X57024894Y46438429D01*
X56962393Y46509857D01*
X57042751Y46581286D01*
X57024894Y46438429D01*
X59667751Y46438429D02*
X58810608Y46438429D01*
X59239180Y46438429D02*
X59426680Y47938429D01*
X59257037Y47724143D01*
X59096322Y47581286D01*
X58944536Y47509857D01*
X60328465Y46581286D02*
X60390964Y46509857D01*
X60310608Y46438429D01*
X60248107Y46509857D01*
X60328465Y46581286D01*
X60310608Y46438429D01*
X61926680Y47938429D02*
X61212394Y47938429D01*
X61051679Y47224143D01*
X61132036Y47295571D01*
X61283822Y47367000D01*
X61640965Y47367000D01*
X61774893Y47295571D01*
X61837394Y47224143D01*
X61890965Y47081286D01*
X61846322Y46724143D01*
X61757037Y46581286D01*
X61676679Y46509857D01*
X61524894Y46438429D01*
X61167751Y46438429D01*
X61033822Y46509857D01*
X60971322Y46581286D01*
D11*
X6779048Y4992619D02*
X6302857Y4992619D01*
X6255238Y4516429D01*
X6302857Y4564048D01*
X6398095Y4611667D01*
X6636191Y4611667D01*
X6731429Y4564048D01*
X6779048Y4516429D01*
X6826667Y4421190D01*
X6826667Y4183095D01*
X6779048Y4087857D01*
X6731429Y4040238D01*
X6636191Y3992619D01*
X6398095Y3992619D01*
X6302857Y4040238D01*
X6255238Y4087857D01*
X7112381Y4992619D02*
X7445714Y3992619D01*
X7779048Y4992619D01*
X8874286Y3992619D02*
X8874286Y4992619D01*
X9350476Y3992619D02*
X9350476Y4992619D01*
X9921905Y3992619D01*
X9921905Y4992619D01*
X7874286Y2405000D02*
X7779048Y2452619D01*
X7636191Y2452619D01*
X7493333Y2405000D01*
X7398095Y2309762D01*
X7350476Y2214524D01*
X7302857Y2024048D01*
X7302857Y1881190D01*
X7350476Y1690714D01*
X7398095Y1595476D01*
X7493333Y1500238D01*
X7636191Y1452619D01*
X7731429Y1452619D01*
X7874286Y1500238D01*
X7921905Y1547857D01*
X7921905Y1881190D01*
X7731429Y1881190D01*
X8350476Y1452619D02*
X8350476Y2452619D01*
X8921905Y1452619D01*
X8921905Y2452619D01*
X9398095Y1452619D02*
X9398095Y2452619D01*
X9636190Y2452619D01*
X9779048Y2405000D01*
X9874286Y2309762D01*
X9921905Y2214524D01*
X9969524Y2024048D01*
X9969524Y1881190D01*
X9921905Y1690714D01*
X9874286Y1595476D01*
X9779048Y1500238D01*
X9636190Y1452619D01*
X9398095Y1452619D01*
X9929762Y15811476D02*
X9977381Y15954333D01*
X9977381Y16192429D01*
X9929762Y16287667D01*
X9882143Y16335286D01*
X9786905Y16382905D01*
X9691667Y16382905D01*
X9596429Y16335286D01*
X9548810Y16287667D01*
X9501190Y16192429D01*
X9453571Y16001952D01*
X9405952Y15906714D01*
X9358333Y15859095D01*
X9263095Y15811476D01*
X9167857Y15811476D01*
X9072619Y15859095D01*
X9025000Y15906714D01*
X8977381Y16001952D01*
X8977381Y16240048D01*
X9025000Y16382905D01*
X9977381Y16811476D02*
X8977381Y16811476D01*
X8977381Y17049571D01*
X9025000Y17192429D01*
X9120238Y17287667D01*
X9215476Y17335286D01*
X9405952Y17382905D01*
X9548810Y17382905D01*
X9739286Y17335286D01*
X9834524Y17287667D01*
X9929762Y17192429D01*
X9977381Y17049571D01*
X9977381Y16811476D01*
X9691667Y17763857D02*
X9691667Y18240048D01*
X9977381Y17668619D02*
X8977381Y18001952D01*
X9977381Y18335286D01*
X12469762Y15811476D02*
X12517381Y15954333D01*
X12517381Y16192429D01*
X12469762Y16287667D01*
X12422143Y16335286D01*
X12326905Y16382905D01*
X12231667Y16382905D01*
X12136429Y16335286D01*
X12088810Y16287667D01*
X12041190Y16192429D01*
X11993571Y16001952D01*
X11945952Y15906714D01*
X11898333Y15859095D01*
X11803095Y15811476D01*
X11707857Y15811476D01*
X11612619Y15859095D01*
X11565000Y15906714D01*
X11517381Y16001952D01*
X11517381Y16240048D01*
X11565000Y16382905D01*
X12422143Y17382905D02*
X12469762Y17335286D01*
X12517381Y17192429D01*
X12517381Y17097191D01*
X12469762Y16954333D01*
X12374524Y16859095D01*
X12279286Y16811476D01*
X12088810Y16763857D01*
X11945952Y16763857D01*
X11755476Y16811476D01*
X11660238Y16859095D01*
X11565000Y16954333D01*
X11517381Y17097191D01*
X11517381Y17192429D01*
X11565000Y17335286D01*
X11612619Y17382905D01*
X12517381Y18287667D02*
X12517381Y17811476D01*
X11517381Y17811476D01*
X14105000Y16382905D02*
X14057381Y16287667D01*
X14057381Y16144810D01*
X14105000Y16001952D01*
X14200238Y15906714D01*
X14295476Y15859095D01*
X14485952Y15811476D01*
X14628810Y15811476D01*
X14819286Y15859095D01*
X14914524Y15906714D01*
X15009762Y16001952D01*
X15057381Y16144810D01*
X15057381Y16240048D01*
X15009762Y16382905D01*
X14962143Y16430524D01*
X14628810Y16430524D01*
X14628810Y16240048D01*
X15057381Y16859095D02*
X14057381Y16859095D01*
X15057381Y17430524D01*
X14057381Y17430524D01*
X15057381Y17906714D02*
X14057381Y17906714D01*
X14057381Y18144809D01*
X14105000Y18287667D01*
X14200238Y18382905D01*
X14295476Y18430524D01*
X14485952Y18478143D01*
X14628810Y18478143D01*
X14819286Y18430524D01*
X14914524Y18382905D01*
X15009762Y18287667D01*
X15057381Y18144809D01*
X15057381Y17906714D01*
X16673581Y15789257D02*
X16673581Y16408305D01*
X17054533Y16074971D01*
X17054533Y16217829D01*
X17102152Y16313067D01*
X17149771Y16360686D01*
X17245010Y16408305D01*
X17483105Y16408305D01*
X17578343Y16360686D01*
X17625962Y16313067D01*
X17673581Y16217829D01*
X17673581Y15932114D01*
X17625962Y15836876D01*
X17578343Y15789257D01*
X17578343Y16836876D02*
X17625962Y16884495D01*
X17673581Y16836876D01*
X17625962Y16789257D01*
X17578343Y16836876D01*
X17673581Y16836876D01*
X16673581Y17217828D02*
X16673581Y17836876D01*
X17054533Y17503542D01*
X17054533Y17646400D01*
X17102152Y17741638D01*
X17149771Y17789257D01*
X17245010Y17836876D01*
X17483105Y17836876D01*
X17578343Y17789257D01*
X17625962Y17741638D01*
X17673581Y17646400D01*
X17673581Y17360685D01*
X17625962Y17265447D01*
X17578343Y17217828D01*
X16673581Y18122590D02*
X17673581Y18455923D01*
X16673581Y18789257D01*
X19162781Y16360686D02*
X19162781Y15884495D01*
X19638971Y15836876D01*
X19591352Y15884495D01*
X19543733Y15979733D01*
X19543733Y16217829D01*
X19591352Y16313067D01*
X19638971Y16360686D01*
X19734210Y16408305D01*
X19972305Y16408305D01*
X20067543Y16360686D01*
X20115162Y16313067D01*
X20162781Y16217829D01*
X20162781Y15979733D01*
X20115162Y15884495D01*
X20067543Y15836876D01*
X19162781Y16694019D02*
X20162781Y17027352D01*
X19162781Y17360686D01*
X30297381Y41275143D02*
X29821190Y40941809D01*
X30297381Y40703714D02*
X29297381Y40703714D01*
X29297381Y41084667D01*
X29345000Y41179905D01*
X29392619Y41227524D01*
X29487857Y41275143D01*
X29630714Y41275143D01*
X29725952Y41227524D01*
X29773571Y41179905D01*
X29821190Y41084667D01*
X29821190Y40703714D01*
X29297381Y41608476D02*
X30297381Y42275143D01*
X29297381Y42275143D02*
X30297381Y41608476D01*
X31837381Y40798952D02*
X31837381Y41370381D01*
X32837381Y41084666D02*
X31837381Y41084666D01*
X31837381Y41608476D02*
X32837381Y42275143D01*
X31837381Y42275143D02*
X32837381Y41608476D01*
X36917381Y39322762D02*
X36917381Y39941810D01*
X37298333Y39608476D01*
X37298333Y39751334D01*
X37345952Y39846572D01*
X37393571Y39894191D01*
X37488810Y39941810D01*
X37726905Y39941810D01*
X37822143Y39894191D01*
X37869762Y39846572D01*
X37917381Y39751334D01*
X37917381Y39465619D01*
X37869762Y39370381D01*
X37822143Y39322762D01*
X37822143Y40370381D02*
X37869762Y40418000D01*
X37917381Y40370381D01*
X37869762Y40322762D01*
X37822143Y40370381D01*
X37917381Y40370381D01*
X36917381Y40751333D02*
X36917381Y41370381D01*
X37298333Y41037047D01*
X37298333Y41179905D01*
X37345952Y41275143D01*
X37393571Y41322762D01*
X37488810Y41370381D01*
X37726905Y41370381D01*
X37822143Y41322762D01*
X37869762Y41275143D01*
X37917381Y41179905D01*
X37917381Y40894190D01*
X37869762Y40798952D01*
X37822143Y40751333D01*
X36917381Y41656095D02*
X37917381Y41989428D01*
X36917381Y42322762D01*
X34425000Y40132286D02*
X34377381Y40037048D01*
X34377381Y39894191D01*
X34425000Y39751333D01*
X34520238Y39656095D01*
X34615476Y39608476D01*
X34805952Y39560857D01*
X34948810Y39560857D01*
X35139286Y39608476D01*
X35234524Y39656095D01*
X35329762Y39751333D01*
X35377381Y39894191D01*
X35377381Y39989429D01*
X35329762Y40132286D01*
X35282143Y40179905D01*
X34948810Y40179905D01*
X34948810Y39989429D01*
X35377381Y40608476D02*
X34377381Y40608476D01*
X35377381Y41179905D01*
X34377381Y41179905D01*
X35377381Y41656095D02*
X34377381Y41656095D01*
X34377381Y41894190D01*
X34425000Y42037048D01*
X34520238Y42132286D01*
X34615476Y42179905D01*
X34805952Y42227524D01*
X34948810Y42227524D01*
X35139286Y42179905D01*
X35234524Y42132286D01*
X35329762Y42037048D01*
X35377381Y41894190D01*
X35377381Y41656095D01*
X17597381Y39957715D02*
X17121190Y39624381D01*
X17597381Y39386286D02*
X16597381Y39386286D01*
X16597381Y39767239D01*
X16645000Y39862477D01*
X16692619Y39910096D01*
X16787857Y39957715D01*
X16930714Y39957715D01*
X17025952Y39910096D01*
X17073571Y39862477D01*
X17121190Y39767239D01*
X17121190Y39386286D01*
X17502143Y40957715D02*
X17549762Y40910096D01*
X17597381Y40767239D01*
X17597381Y40672001D01*
X17549762Y40529143D01*
X17454524Y40433905D01*
X17359286Y40386286D01*
X17168810Y40338667D01*
X17025952Y40338667D01*
X16835476Y40386286D01*
X16740238Y40433905D01*
X16645000Y40529143D01*
X16597381Y40672001D01*
X16597381Y40767239D01*
X16645000Y40910096D01*
X16692619Y40957715D01*
X17597381Y41386286D02*
X16597381Y41386286D01*
X17597381Y41862476D02*
X16597381Y41862476D01*
X17597381Y42433905D01*
X16597381Y42433905D01*
X19185000Y40386286D02*
X19137381Y40291048D01*
X19137381Y40148191D01*
X19185000Y40005333D01*
X19280238Y39910095D01*
X19375476Y39862476D01*
X19565952Y39814857D01*
X19708810Y39814857D01*
X19899286Y39862476D01*
X19994524Y39910095D01*
X20089762Y40005333D01*
X20137381Y40148191D01*
X20137381Y40243429D01*
X20089762Y40386286D01*
X20042143Y40433905D01*
X19708810Y40433905D01*
X19708810Y40243429D01*
X20137381Y40862476D02*
X19137381Y40862476D01*
X20137381Y41433905D01*
X19137381Y41433905D01*
X20137381Y41910095D02*
X19137381Y41910095D01*
X19137381Y42148190D01*
X19185000Y42291048D01*
X19280238Y42386286D01*
X19375476Y42433905D01*
X19565952Y42481524D01*
X19708810Y42481524D01*
X19899286Y42433905D01*
X19994524Y42386286D01*
X20089762Y42291048D01*
X20137381Y42148190D01*
X20137381Y41910095D01*
X21804381Y39417810D02*
X21804381Y40036858D01*
X22185333Y39703524D01*
X22185333Y39846382D01*
X22232952Y39941620D01*
X22280571Y39989239D01*
X22375810Y40036858D01*
X22613905Y40036858D01*
X22709143Y39989239D01*
X22756762Y39941620D01*
X22804381Y39846382D01*
X22804381Y39560667D01*
X22756762Y39465429D01*
X22709143Y39417810D01*
X22709143Y40465429D02*
X22756762Y40513048D01*
X22804381Y40465429D01*
X22756762Y40417810D01*
X22709143Y40465429D01*
X22804381Y40465429D01*
X21804381Y40846381D02*
X21804381Y41465429D01*
X22185333Y41132095D01*
X22185333Y41274953D01*
X22232952Y41370191D01*
X22280571Y41417810D01*
X22375810Y41465429D01*
X22613905Y41465429D01*
X22709143Y41417810D01*
X22756762Y41370191D01*
X22804381Y41274953D01*
X22804381Y40989238D01*
X22756762Y40894000D01*
X22709143Y40846381D01*
X21804381Y41751143D02*
X22804381Y42084476D01*
X21804381Y42417810D01*
X37917381Y12874524D02*
X37441190Y12541190D01*
X37917381Y12303095D02*
X36917381Y12303095D01*
X36917381Y12684048D01*
X36965000Y12779286D01*
X37012619Y12826905D01*
X37107857Y12874524D01*
X37250714Y12874524D01*
X37345952Y12826905D01*
X37393571Y12779286D01*
X37441190Y12684048D01*
X37441190Y12303095D01*
X36917381Y13207857D02*
X37917381Y13874524D01*
X36917381Y13874524D02*
X37917381Y13207857D01*
X39711381Y12287238D02*
X39711381Y12858667D01*
X40711381Y12572952D02*
X39711381Y12572952D01*
X39711381Y13096762D02*
X40711381Y13763429D01*
X39711381Y13763429D02*
X40711381Y13096762D01*
X47077381Y12779286D02*
X47077381Y12303095D01*
X47553571Y12255476D01*
X47505952Y12303095D01*
X47458333Y12398333D01*
X47458333Y12636429D01*
X47505952Y12731667D01*
X47553571Y12779286D01*
X47648810Y12826905D01*
X47886905Y12826905D01*
X47982143Y12779286D01*
X48029762Y12731667D01*
X48077381Y12636429D01*
X48077381Y12398333D01*
X48029762Y12303095D01*
X47982143Y12255476D01*
X47077381Y13112619D02*
X48077381Y13445952D01*
X47077381Y13779286D01*
X42045000Y12826905D02*
X41997381Y12731667D01*
X41997381Y12588810D01*
X42045000Y12445952D01*
X42140238Y12350714D01*
X42235476Y12303095D01*
X42425952Y12255476D01*
X42568810Y12255476D01*
X42759286Y12303095D01*
X42854524Y12350714D01*
X42949762Y12445952D01*
X42997381Y12588810D01*
X42997381Y12684048D01*
X42949762Y12826905D01*
X42902143Y12874524D01*
X42568810Y12874524D01*
X42568810Y12684048D01*
X42997381Y13303095D02*
X41997381Y13303095D01*
X42997381Y13874524D01*
X41997381Y13874524D01*
X42997381Y14350714D02*
X41997381Y14350714D01*
X41997381Y14588809D01*
X42045000Y14731667D01*
X42140238Y14826905D01*
X42235476Y14874524D01*
X42425952Y14922143D01*
X42568810Y14922143D01*
X42759286Y14874524D01*
X42854524Y14826905D01*
X42949762Y14731667D01*
X42997381Y14588809D01*
X42997381Y14350714D01*
X69937381Y12779286D02*
X69937381Y12303095D01*
X70413571Y12255476D01*
X70365952Y12303095D01*
X70318333Y12398333D01*
X70318333Y12636429D01*
X70365952Y12731667D01*
X70413571Y12779286D01*
X70508810Y12826905D01*
X70746905Y12826905D01*
X70842143Y12779286D01*
X70889762Y12731667D01*
X70937381Y12636429D01*
X70937381Y12398333D01*
X70889762Y12303095D01*
X70842143Y12255476D01*
X69937381Y13112619D02*
X70937381Y13445952D01*
X69937381Y13779286D01*
X67397381Y12207857D02*
X67397381Y12826905D01*
X67778333Y12493571D01*
X67778333Y12636429D01*
X67825952Y12731667D01*
X67873571Y12779286D01*
X67968810Y12826905D01*
X68206905Y12826905D01*
X68302143Y12779286D01*
X68349762Y12731667D01*
X68397381Y12636429D01*
X68397381Y12350714D01*
X68349762Y12255476D01*
X68302143Y12207857D01*
X68302143Y13255476D02*
X68349762Y13303095D01*
X68397381Y13255476D01*
X68349762Y13207857D01*
X68302143Y13255476D01*
X68397381Y13255476D01*
X67397381Y13636428D02*
X67397381Y14255476D01*
X67778333Y13922142D01*
X67778333Y14065000D01*
X67825952Y14160238D01*
X67873571Y14207857D01*
X67968810Y14255476D01*
X68206905Y14255476D01*
X68302143Y14207857D01*
X68349762Y14160238D01*
X68397381Y14065000D01*
X68397381Y13779285D01*
X68349762Y13684047D01*
X68302143Y13636428D01*
X67397381Y14541190D02*
X68397381Y14874523D01*
X67397381Y15207857D01*
X64905000Y12826905D02*
X64857381Y12731667D01*
X64857381Y12588810D01*
X64905000Y12445952D01*
X65000238Y12350714D01*
X65095476Y12303095D01*
X65285952Y12255476D01*
X65428810Y12255476D01*
X65619286Y12303095D01*
X65714524Y12350714D01*
X65809762Y12445952D01*
X65857381Y12588810D01*
X65857381Y12684048D01*
X65809762Y12826905D01*
X65762143Y12874524D01*
X65428810Y12874524D01*
X65428810Y12684048D01*
X65857381Y13303095D02*
X64857381Y13303095D01*
X65857381Y13874524D01*
X64857381Y13874524D01*
X65857381Y14350714D02*
X64857381Y14350714D01*
X64857381Y14588809D01*
X64905000Y14731667D01*
X65000238Y14826905D01*
X65095476Y14874524D01*
X65285952Y14922143D01*
X65428810Y14922143D01*
X65619286Y14874524D01*
X65714524Y14826905D01*
X65809762Y14731667D01*
X65857381Y14588809D01*
X65857381Y14350714D01*
X63396762Y12255476D02*
X63444381Y12398333D01*
X63444381Y12636429D01*
X63396762Y12731667D01*
X63349143Y12779286D01*
X63253905Y12826905D01*
X63158667Y12826905D01*
X63063429Y12779286D01*
X63015810Y12731667D01*
X62968190Y12636429D01*
X62920571Y12445952D01*
X62872952Y12350714D01*
X62825333Y12303095D01*
X62730095Y12255476D01*
X62634857Y12255476D01*
X62539619Y12303095D01*
X62492000Y12350714D01*
X62444381Y12445952D01*
X62444381Y12684048D01*
X62492000Y12826905D01*
X63349143Y13826905D02*
X63396762Y13779286D01*
X63444381Y13636429D01*
X63444381Y13541191D01*
X63396762Y13398333D01*
X63301524Y13303095D01*
X63206286Y13255476D01*
X63015810Y13207857D01*
X62872952Y13207857D01*
X62682476Y13255476D01*
X62587238Y13303095D01*
X62492000Y13398333D01*
X62444381Y13541191D01*
X62444381Y13636429D01*
X62492000Y13779286D01*
X62539619Y13826905D01*
X63444381Y14731667D02*
X63444381Y14255476D01*
X62444381Y14255476D01*
X63444381Y15065000D02*
X62444381Y15065000D01*
X63444381Y15636429D02*
X62872952Y15207857D01*
X62444381Y15636429D02*
X63015810Y15065000D01*
X60904381Y12303095D02*
X59904381Y12303095D01*
X60618667Y12636429D01*
X59904381Y12969762D01*
X60904381Y12969762D01*
X59904381Y13636428D02*
X59904381Y13826905D01*
X59952000Y13922143D01*
X60047238Y14017381D01*
X60237714Y14065000D01*
X60571048Y14065000D01*
X60761524Y14017381D01*
X60856762Y13922143D01*
X60904381Y13826905D01*
X60904381Y13636428D01*
X60856762Y13541190D01*
X60761524Y13445952D01*
X60571048Y13398333D01*
X60237714Y13398333D01*
X60047238Y13445952D01*
X59952000Y13541190D01*
X59904381Y13636428D01*
X60856762Y14445952D02*
X60904381Y14588809D01*
X60904381Y14826905D01*
X60856762Y14922143D01*
X60809143Y14969762D01*
X60713905Y15017381D01*
X60618667Y15017381D01*
X60523429Y14969762D01*
X60475810Y14922143D01*
X60428190Y14826905D01*
X60380571Y14636428D01*
X60332952Y14541190D01*
X60285333Y14493571D01*
X60190095Y14445952D01*
X60094857Y14445952D01*
X59999619Y14493571D01*
X59952000Y14541190D01*
X59904381Y14636428D01*
X59904381Y14874524D01*
X59952000Y15017381D01*
X60904381Y15445952D02*
X59904381Y15445952D01*
X58237381Y12303095D02*
X57237381Y12303095D01*
X57951667Y12636429D01*
X57237381Y12969762D01*
X58237381Y12969762D01*
X58237381Y13445952D02*
X57237381Y13445952D01*
X58189762Y13874523D02*
X58237381Y14017380D01*
X58237381Y14255476D01*
X58189762Y14350714D01*
X58142143Y14398333D01*
X58046905Y14445952D01*
X57951667Y14445952D01*
X57856429Y14398333D01*
X57808810Y14350714D01*
X57761190Y14255476D01*
X57713571Y14064999D01*
X57665952Y13969761D01*
X57618333Y13922142D01*
X57523095Y13874523D01*
X57427857Y13874523D01*
X57332619Y13922142D01*
X57285000Y13969761D01*
X57237381Y14064999D01*
X57237381Y14303095D01*
X57285000Y14445952D01*
X57237381Y15064999D02*
X57237381Y15255476D01*
X57285000Y15350714D01*
X57380238Y15445952D01*
X57570714Y15493571D01*
X57904048Y15493571D01*
X58094524Y15445952D01*
X58189762Y15350714D01*
X58237381Y15255476D01*
X58237381Y15064999D01*
X58189762Y14969761D01*
X58094524Y14874523D01*
X57904048Y14826904D01*
X57570714Y14826904D01*
X57380238Y14874523D01*
X57285000Y14969761D01*
X57237381Y15064999D01*
X55602143Y12874524D02*
X55649762Y12826905D01*
X55697381Y12684048D01*
X55697381Y12588810D01*
X55649762Y12445952D01*
X55554524Y12350714D01*
X55459286Y12303095D01*
X55268810Y12255476D01*
X55125952Y12255476D01*
X54935476Y12303095D01*
X54840238Y12350714D01*
X54745000Y12445952D01*
X54697381Y12588810D01*
X54697381Y12684048D01*
X54745000Y12826905D01*
X54792619Y12874524D01*
X55649762Y13255476D02*
X55697381Y13398333D01*
X55697381Y13636429D01*
X55649762Y13731667D01*
X55602143Y13779286D01*
X55506905Y13826905D01*
X55411667Y13826905D01*
X55316429Y13779286D01*
X55268810Y13731667D01*
X55221190Y13636429D01*
X55173571Y13445952D01*
X55125952Y13350714D01*
X55078333Y13303095D01*
X54983095Y13255476D01*
X54887857Y13255476D01*
X54792619Y13303095D01*
X54745000Y13350714D01*
X54697381Y13445952D01*
X54697381Y13684048D01*
X54745000Y13826905D01*
X79144762Y8429905D02*
X79192381Y8572762D01*
X79192381Y8810858D01*
X79144762Y8906096D01*
X79097143Y8953715D01*
X79001905Y9001334D01*
X78906667Y9001334D01*
X78811429Y8953715D01*
X78763810Y8906096D01*
X78716190Y8810858D01*
X78668571Y8620381D01*
X78620952Y8525143D01*
X78573333Y8477524D01*
X78478095Y8429905D01*
X78382857Y8429905D01*
X78287619Y8477524D01*
X78240000Y8525143D01*
X78192381Y8620381D01*
X78192381Y8858477D01*
X78240000Y9001334D01*
X79192381Y9429905D02*
X78192381Y9429905D01*
X78240000Y10429905D02*
X78192381Y10334667D01*
X78192381Y10191810D01*
X78240000Y10048952D01*
X78335238Y9953714D01*
X78430476Y9906095D01*
X78620952Y9858476D01*
X78763810Y9858476D01*
X78954286Y9906095D01*
X79049524Y9953714D01*
X79144762Y10048952D01*
X79192381Y10191810D01*
X79192381Y10287048D01*
X79144762Y10429905D01*
X79097143Y10477524D01*
X78763810Y10477524D01*
X78763810Y10287048D01*
X80732381Y9445762D02*
X80732381Y8969571D01*
X81208571Y8921952D01*
X81160952Y8969571D01*
X81113333Y9064809D01*
X81113333Y9302905D01*
X81160952Y9398143D01*
X81208571Y9445762D01*
X81303810Y9493381D01*
X81541905Y9493381D01*
X81637143Y9445762D01*
X81684762Y9398143D01*
X81732381Y9302905D01*
X81732381Y9064809D01*
X81684762Y8969571D01*
X81637143Y8921952D01*
X80732381Y9779095D02*
X81732381Y10112428D01*
X80732381Y10445762D01*
X83447000Y8382286D02*
X83399381Y8287048D01*
X83399381Y8144191D01*
X83447000Y8001333D01*
X83542238Y7906095D01*
X83637476Y7858476D01*
X83827952Y7810857D01*
X83970810Y7810857D01*
X84161286Y7858476D01*
X84256524Y7906095D01*
X84351762Y8001333D01*
X84399381Y8144191D01*
X84399381Y8239429D01*
X84351762Y8382286D01*
X84304143Y8429905D01*
X83970810Y8429905D01*
X83970810Y8239429D01*
X84399381Y8858476D02*
X83399381Y8858476D01*
X84399381Y9429905D01*
X83399381Y9429905D01*
X84399381Y9906095D02*
X83399381Y9906095D01*
X83399381Y10144190D01*
X83447000Y10287048D01*
X83542238Y10382286D01*
X83637476Y10429905D01*
X83827952Y10477524D01*
X83970810Y10477524D01*
X84161286Y10429905D01*
X84256524Y10382286D01*
X84351762Y10287048D01*
X84399381Y10144190D01*
X84399381Y9906095D01*
X60555334Y41298857D02*
X60507715Y41251238D01*
X60364858Y41203619D01*
X60269620Y41203619D01*
X60126762Y41251238D01*
X60031524Y41346476D01*
X59983905Y41441714D01*
X59936286Y41632190D01*
X59936286Y41775048D01*
X59983905Y41965524D01*
X60031524Y42060762D01*
X60126762Y42156000D01*
X60269620Y42203619D01*
X60364858Y42203619D01*
X60507715Y42156000D01*
X60555334Y42108381D01*
X60936286Y41489333D02*
X61412477Y41489333D01*
X60841048Y41203619D02*
X61174381Y42203619D01*
X61507715Y41203619D01*
X61841048Y41203619D02*
X61841048Y42203619D01*
X62412477Y41203619D01*
X62412477Y42203619D01*
X62888667Y41203619D02*
X62888667Y42203619D01*
X62888667Y41727429D02*
X63460096Y41727429D01*
X63460096Y41203619D02*
X63460096Y42203619D01*
X60674381Y43991257D02*
X60626762Y43943638D01*
X60483905Y43896019D01*
X60388667Y43896019D01*
X60245809Y43943638D01*
X60150571Y44038876D01*
X60102952Y44134114D01*
X60055333Y44324590D01*
X60055333Y44467448D01*
X60102952Y44657924D01*
X60150571Y44753162D01*
X60245809Y44848400D01*
X60388667Y44896019D01*
X60483905Y44896019D01*
X60626762Y44848400D01*
X60674381Y44800781D01*
X61055333Y44181733D02*
X61531524Y44181733D01*
X60960095Y43896019D02*
X61293428Y44896019D01*
X61626762Y43896019D01*
X61960095Y43896019D02*
X61960095Y44896019D01*
X62531524Y43896019D01*
X62531524Y44896019D01*
X63483905Y43896019D02*
X63007714Y43896019D01*
X63007714Y44896019D01*
X20534619Y46537619D02*
X20201285Y47013810D01*
X19963190Y46537619D02*
X19963190Y47537619D01*
X20344143Y47537619D01*
X20439381Y47490000D01*
X20487000Y47442381D01*
X20534619Y47347143D01*
X20534619Y47204286D01*
X20487000Y47109048D01*
X20439381Y47061429D01*
X20344143Y47013810D01*
X19963190Y47013810D01*
X21534619Y46632857D02*
X21487000Y46585238D01*
X21344143Y46537619D01*
X21248905Y46537619D01*
X21106047Y46585238D01*
X21010809Y46680476D01*
X20963190Y46775714D01*
X20915571Y46966190D01*
X20915571Y47109048D01*
X20963190Y47299524D01*
X21010809Y47394762D01*
X21106047Y47490000D01*
X21248905Y47537619D01*
X21344143Y47537619D01*
X21487000Y47490000D01*
X21534619Y47442381D01*
X22725095Y46537619D02*
X22725095Y47537619D01*
X23201285Y47204286D02*
X23201285Y46537619D01*
X23201285Y47109048D02*
X23248904Y47156667D01*
X23344142Y47204286D01*
X23487000Y47204286D01*
X23582238Y47156667D01*
X23629857Y47061429D01*
X23629857Y46537619D01*
X24106047Y47204286D02*
X24106047Y46204286D01*
X24106047Y47156667D02*
X24201285Y47204286D01*
X24391762Y47204286D01*
X24487000Y47156667D01*
X24534619Y47109048D01*
X24582238Y47013810D01*
X24582238Y46728095D01*
X24534619Y46632857D01*
X24487000Y46585238D01*
X24391762Y46537619D01*
X24201285Y46537619D01*
X24106047Y46585238D01*
X25439381Y47204286D02*
X25439381Y46537619D01*
X25010809Y47204286D02*
X25010809Y46680476D01*
X25058428Y46585238D01*
X25153666Y46537619D01*
X25296524Y46537619D01*
X25391762Y46585238D01*
X25439381Y46632857D01*
X25772714Y47204286D02*
X26153666Y47204286D01*
X25915571Y47537619D02*
X25915571Y46680476D01*
X25963190Y46585238D01*
X26058428Y46537619D01*
X26153666Y46537619D01*
X33028381Y47490000D02*
X32933143Y47537619D01*
X32790286Y47537619D01*
X32647428Y47490000D01*
X32552190Y47394762D01*
X32504571Y47299524D01*
X32456952Y47109048D01*
X32456952Y46966190D01*
X32504571Y46775714D01*
X32552190Y46680476D01*
X32647428Y46585238D01*
X32790286Y46537619D01*
X32885524Y46537619D01*
X33028381Y46585238D01*
X33076000Y46632857D01*
X33076000Y46966190D01*
X32885524Y46966190D01*
X33504571Y46537619D02*
X33504571Y47537619D01*
X33885524Y47537619D01*
X33980762Y47490000D01*
X34028381Y47442381D01*
X34076000Y47347143D01*
X34076000Y47204286D01*
X34028381Y47109048D01*
X33980762Y47061429D01*
X33885524Y47013810D01*
X33504571Y47013810D01*
X34456952Y46585238D02*
X34599809Y46537619D01*
X34837905Y46537619D01*
X34933143Y46585238D01*
X34980762Y46632857D01*
X35028381Y46728095D01*
X35028381Y46823333D01*
X34980762Y46918571D01*
X34933143Y46966190D01*
X34837905Y47013810D01*
X34647428Y47061429D01*
X34552190Y47109048D01*
X34504571Y47156667D01*
X34456952Y47251905D01*
X34456952Y47347143D01*
X34504571Y47442381D01*
X34552190Y47490000D01*
X34647428Y47537619D01*
X34885524Y47537619D01*
X35028381Y47490000D01*
X36171238Y47585238D02*
X35314095Y46299524D01*
X36504571Y47537619D02*
X36504571Y46728095D01*
X36552190Y46632857D01*
X36599809Y46585238D01*
X36695047Y46537619D01*
X36885524Y46537619D01*
X36980762Y46585238D01*
X37028381Y46632857D01*
X37076000Y46728095D01*
X37076000Y47537619D01*
X37504571Y46823333D02*
X37980762Y46823333D01*
X37409333Y46537619D02*
X37742666Y47537619D01*
X38076000Y46537619D01*
X38980762Y46537619D02*
X38647428Y47013810D01*
X38409333Y46537619D02*
X38409333Y47537619D01*
X38790286Y47537619D01*
X38885524Y47490000D01*
X38933143Y47442381D01*
X38980762Y47347143D01*
X38980762Y47204286D01*
X38933143Y47109048D01*
X38885524Y47061429D01*
X38790286Y47013810D01*
X38409333Y47013810D01*
X39266476Y47537619D02*
X39837905Y47537619D01*
X39552190Y46537619D02*
X39552190Y47537619D01*
X40647429Y47537619D02*
X40171238Y47537619D01*
X40123619Y47061429D01*
X40171238Y47109048D01*
X40266476Y47156667D01*
X40504572Y47156667D01*
X40599810Y47109048D01*
X40647429Y47061429D01*
X40695048Y46966190D01*
X40695048Y46728095D01*
X40647429Y46632857D01*
X40599810Y46585238D01*
X40504572Y46537619D01*
X40266476Y46537619D01*
X40171238Y46585238D01*
X40123619Y46632857D01*
X62508000Y7088238D02*
X62650857Y7040619D01*
X62888953Y7040619D01*
X62984191Y7088238D01*
X63031810Y7135857D01*
X63079429Y7231095D01*
X63079429Y7326333D01*
X63031810Y7421571D01*
X62984191Y7469190D01*
X62888953Y7516810D01*
X62698476Y7564429D01*
X62603238Y7612048D01*
X62555619Y7659667D01*
X62508000Y7754905D01*
X62508000Y7850143D01*
X62555619Y7945381D01*
X62603238Y7993000D01*
X62698476Y8040619D01*
X62936572Y8040619D01*
X63079429Y7993000D01*
X63508000Y7040619D02*
X63508000Y8040619D01*
X63888953Y8040619D01*
X63984191Y7993000D01*
X64031810Y7945381D01*
X64079429Y7850143D01*
X64079429Y7707286D01*
X64031810Y7612048D01*
X63984191Y7564429D01*
X63888953Y7516810D01*
X63508000Y7516810D01*
X64508000Y7040619D02*
X64508000Y8040619D01*
X65174666Y8040619D02*
X65269905Y8040619D01*
X65365143Y7993000D01*
X65412762Y7945381D01*
X65460381Y7850143D01*
X65508000Y7659667D01*
X65508000Y7421571D01*
X65460381Y7231095D01*
X65412762Y7135857D01*
X65365143Y7088238D01*
X65269905Y7040619D01*
X65174666Y7040619D01*
X65079428Y7088238D01*
X65031809Y7135857D01*
X64984190Y7231095D01*
X64936571Y7421571D01*
X64936571Y7659667D01*
X64984190Y7850143D01*
X65031809Y7945381D01*
X65079428Y7993000D01*
X65174666Y8040619D01*
X37505475Y8040619D02*
X38076904Y8040619D01*
X37791189Y7040619D02*
X37791189Y8040619D01*
X38791190Y7088238D02*
X38695952Y7040619D01*
X38505475Y7040619D01*
X38410237Y7088238D01*
X38362618Y7183476D01*
X38362618Y7564429D01*
X38410237Y7659667D01*
X38505475Y7707286D01*
X38695952Y7707286D01*
X38791190Y7659667D01*
X38838809Y7564429D01*
X38838809Y7469190D01*
X38362618Y7373952D01*
X39410237Y7040619D02*
X39314999Y7088238D01*
X39267380Y7183476D01*
X39267380Y8040619D01*
X40172143Y7088238D02*
X40076905Y7040619D01*
X39886428Y7040619D01*
X39791190Y7088238D01*
X39743571Y7183476D01*
X39743571Y7564429D01*
X39791190Y7659667D01*
X39886428Y7707286D01*
X40076905Y7707286D01*
X40172143Y7659667D01*
X40219762Y7564429D01*
X40219762Y7469190D01*
X39743571Y7373952D01*
X40648333Y7040619D02*
X40648333Y7707286D01*
X40648333Y7612048D02*
X40695952Y7659667D01*
X40791190Y7707286D01*
X40934048Y7707286D01*
X41029286Y7659667D01*
X41076905Y7564429D01*
X41076905Y7040619D01*
X41076905Y7564429D02*
X41124524Y7659667D01*
X41219762Y7707286D01*
X41362619Y7707286D01*
X41457857Y7659667D01*
X41505476Y7564429D01*
X41505476Y7040619D01*
X42362619Y7088238D02*
X42267381Y7040619D01*
X42076904Y7040619D01*
X41981666Y7088238D01*
X41934047Y7183476D01*
X41934047Y7564429D01*
X41981666Y7659667D01*
X42076904Y7707286D01*
X42267381Y7707286D01*
X42362619Y7659667D01*
X42410238Y7564429D01*
X42410238Y7469190D01*
X41934047Y7373952D01*
X42695952Y7707286D02*
X43076904Y7707286D01*
X42838809Y8040619D02*
X42838809Y7183476D01*
X42886428Y7088238D01*
X42981666Y7040619D01*
X43076904Y7040619D01*
X43410238Y7040619D02*
X43410238Y7707286D01*
X43410238Y7516810D02*
X43457857Y7612048D01*
X43505476Y7659667D01*
X43600714Y7707286D01*
X43695953Y7707286D01*
X43934048Y7707286D02*
X44172143Y7040619D01*
X44410239Y7707286D02*
X44172143Y7040619D01*
X44076905Y6802524D01*
X44029286Y6754905D01*
X43934048Y6707286D01*
X45505477Y8088238D02*
X44648334Y6802524D01*
X45838810Y8040619D02*
X45838810Y7231095D01*
X45886429Y7135857D01*
X45934048Y7088238D01*
X46029286Y7040619D01*
X46219763Y7040619D01*
X46315001Y7088238D01*
X46362620Y7135857D01*
X46410239Y7231095D01*
X46410239Y8040619D01*
X46838810Y7326333D02*
X47315001Y7326333D01*
X46743572Y7040619D02*
X47076905Y8040619D01*
X47410239Y7040619D01*
X48315001Y7040619D02*
X47981667Y7516810D01*
X47743572Y7040619D02*
X47743572Y8040619D01*
X48124525Y8040619D01*
X48219763Y7993000D01*
X48267382Y7945381D01*
X48315001Y7850143D01*
X48315001Y7707286D01*
X48267382Y7612048D01*
X48219763Y7564429D01*
X48124525Y7516810D01*
X47743572Y7516810D01*
X48600715Y8040619D02*
X49172144Y8040619D01*
X48886429Y7040619D02*
X48886429Y8040619D01*
X49934049Y7707286D02*
X49934049Y7040619D01*
X49695953Y8088238D02*
X49457858Y7373952D01*
X50076906Y7373952D01*
X53713762Y29900619D02*
X53713762Y30900619D01*
X54047096Y30186333D01*
X54380429Y30900619D01*
X54380429Y29900619D01*
X54809000Y29948238D02*
X54951857Y29900619D01*
X55189953Y29900619D01*
X55285191Y29948238D01*
X55332810Y29995857D01*
X55380429Y30091095D01*
X55380429Y30186333D01*
X55332810Y30281571D01*
X55285191Y30329190D01*
X55189953Y30376810D01*
X54999476Y30424429D01*
X54904238Y30472048D01*
X54856619Y30519667D01*
X54809000Y30614905D01*
X54809000Y30710143D01*
X54856619Y30805381D01*
X54904238Y30853000D01*
X54999476Y30900619D01*
X55237572Y30900619D01*
X55380429Y30853000D01*
X56285191Y30900619D02*
X55809000Y30900619D01*
X55761381Y30424429D01*
X55809000Y30472048D01*
X55904238Y30519667D01*
X56142334Y30519667D01*
X56237572Y30472048D01*
X56285191Y30424429D01*
X56332810Y30329190D01*
X56332810Y30091095D01*
X56285191Y29995857D01*
X56237572Y29948238D01*
X56142334Y29900619D01*
X55904238Y29900619D01*
X55809000Y29948238D01*
X55761381Y29995857D01*
X57189953Y30900619D02*
X56999476Y30900619D01*
X56904238Y30853000D01*
X56856619Y30805381D01*
X56761381Y30662524D01*
X56713762Y30472048D01*
X56713762Y30091095D01*
X56761381Y29995857D01*
X56809000Y29948238D01*
X56904238Y29900619D01*
X57094715Y29900619D01*
X57189953Y29948238D01*
X57237572Y29995857D01*
X57285191Y30091095D01*
X57285191Y30329190D01*
X57237572Y30424429D01*
X57189953Y30472048D01*
X57094715Y30519667D01*
X56904238Y30519667D01*
X56809000Y30472048D01*
X56761381Y30424429D01*
X56713762Y30329190D01*
X58237572Y29900619D02*
X57666143Y29900619D01*
X57951857Y29900619D02*
X57951857Y30900619D01*
X57856619Y30757762D01*
X57761381Y30662524D01*
X57666143Y30614905D01*
X59189953Y29900619D02*
X58618524Y29900619D01*
X58904238Y29900619D02*
X58904238Y30900619D01*
X58809000Y30757762D01*
X58713762Y30662524D01*
X58618524Y30614905D01*
X60904239Y30853000D02*
X60809001Y30900619D01*
X60666144Y30900619D01*
X60523286Y30853000D01*
X60428048Y30757762D01*
X60380429Y30662524D01*
X60332810Y30472048D01*
X60332810Y30329190D01*
X60380429Y30138714D01*
X60428048Y30043476D01*
X60523286Y29948238D01*
X60666144Y29900619D01*
X60761382Y29900619D01*
X60904239Y29948238D01*
X60951858Y29995857D01*
X60951858Y30329190D01*
X60761382Y30329190D01*
X61570905Y30376810D02*
X61570905Y29900619D01*
X61237572Y30900619D02*
X61570905Y30376810D01*
X61904239Y30900619D01*
X62237572Y30281571D02*
X62999477Y30281571D01*
X63904239Y30900619D02*
X63713762Y30900619D01*
X63618524Y30853000D01*
X63570905Y30805381D01*
X63475667Y30662524D01*
X63428048Y30472048D01*
X63428048Y30091095D01*
X63475667Y29995857D01*
X63523286Y29948238D01*
X63618524Y29900619D01*
X63809001Y29900619D01*
X63904239Y29948238D01*
X63951858Y29995857D01*
X63999477Y30091095D01*
X63999477Y30329190D01*
X63951858Y30424429D01*
X63904239Y30472048D01*
X63809001Y30519667D01*
X63618524Y30519667D01*
X63523286Y30472048D01*
X63475667Y30424429D01*
X63428048Y30329190D01*
X64332810Y30900619D02*
X64951858Y30900619D01*
X64618524Y30519667D01*
X64761382Y30519667D01*
X64856620Y30472048D01*
X64904239Y30424429D01*
X64951858Y30329190D01*
X64951858Y30091095D01*
X64904239Y29995857D01*
X64856620Y29948238D01*
X64761382Y29900619D01*
X64475667Y29900619D01*
X64380429Y29948238D01*
X64332810Y29995857D01*
X32060048Y32605619D02*
X32060048Y33605619D01*
X32393382Y32891333D01*
X32726715Y33605619D01*
X32726715Y32605619D01*
X33202905Y32605619D02*
X33202905Y33605619D01*
X33583858Y33605619D01*
X33679096Y33558000D01*
X33726715Y33510381D01*
X33774334Y33415143D01*
X33774334Y33272286D01*
X33726715Y33177048D01*
X33679096Y33129429D01*
X33583858Y33081810D01*
X33202905Y33081810D01*
X34202905Y33605619D02*
X34202905Y32796095D01*
X34250524Y32700857D01*
X34298143Y32653238D01*
X34393381Y32605619D01*
X34583858Y32605619D01*
X34679096Y32653238D01*
X34726715Y32700857D01*
X34774334Y32796095D01*
X34774334Y33605619D01*
X35250524Y32986571D02*
X36012429Y32986571D01*
X36536238Y32605619D02*
X36726714Y32605619D01*
X36821953Y32653238D01*
X36869572Y32700857D01*
X36964810Y32843714D01*
X37012429Y33034190D01*
X37012429Y33415143D01*
X36964810Y33510381D01*
X36917191Y33558000D01*
X36821953Y33605619D01*
X36631476Y33605619D01*
X36536238Y33558000D01*
X36488619Y33510381D01*
X36441000Y33415143D01*
X36441000Y33177048D01*
X36488619Y33081810D01*
X36536238Y33034190D01*
X36631476Y32986571D01*
X36821953Y32986571D01*
X36917191Y33034190D01*
X36964810Y33081810D01*
X37012429Y33177048D01*
X37393381Y33510381D02*
X37441000Y33558000D01*
X37536238Y33605619D01*
X37774334Y33605619D01*
X37869572Y33558000D01*
X37917191Y33510381D01*
X37964810Y33415143D01*
X37964810Y33319905D01*
X37917191Y33177048D01*
X37345762Y32605619D01*
X37964810Y32605619D01*
X38869572Y33605619D02*
X38393381Y33605619D01*
X38345762Y33129429D01*
X38393381Y33177048D01*
X38488619Y33224667D01*
X38726715Y33224667D01*
X38821953Y33177048D01*
X38869572Y33129429D01*
X38917191Y33034190D01*
X38917191Y32796095D01*
X38869572Y32700857D01*
X38821953Y32653238D01*
X38726715Y32605619D01*
X38488619Y32605619D01*
X38393381Y32653238D01*
X38345762Y32700857D01*
X39536238Y33605619D02*
X39631477Y33605619D01*
X39726715Y33558000D01*
X39774334Y33510381D01*
X39821953Y33415143D01*
X39869572Y33224667D01*
X39869572Y32986571D01*
X39821953Y32796095D01*
X39774334Y32700857D01*
X39726715Y32653238D01*
X39631477Y32605619D01*
X39536238Y32605619D01*
X39441000Y32653238D01*
X39393381Y32700857D01*
X39345762Y32796095D01*
X39298143Y32986571D01*
X39298143Y33224667D01*
X39345762Y33415143D01*
X39393381Y33510381D01*
X39441000Y33558000D01*
X39536238Y33605619D01*
X33250524Y31958000D02*
X33155286Y32005619D01*
X33012429Y32005619D01*
X32869571Y31958000D01*
X32774333Y31862762D01*
X32726714Y31767524D01*
X32679095Y31577048D01*
X32679095Y31434190D01*
X32726714Y31243714D01*
X32774333Y31148476D01*
X32869571Y31053238D01*
X33012429Y31005619D01*
X33107667Y31005619D01*
X33250524Y31053238D01*
X33298143Y31100857D01*
X33298143Y31434190D01*
X33107667Y31434190D01*
X33917190Y31481810D02*
X33917190Y31005619D01*
X33583857Y32005619D02*
X33917190Y31481810D01*
X34250524Y32005619D01*
X34583857Y31386571D02*
X35345762Y31386571D01*
X35869571Y31005619D02*
X36060047Y31005619D01*
X36155286Y31053238D01*
X36202905Y31100857D01*
X36298143Y31243714D01*
X36345762Y31434190D01*
X36345762Y31815143D01*
X36298143Y31910381D01*
X36250524Y31958000D01*
X36155286Y32005619D01*
X35964809Y32005619D01*
X35869571Y31958000D01*
X35821952Y31910381D01*
X35774333Y31815143D01*
X35774333Y31577048D01*
X35821952Y31481810D01*
X35869571Y31434190D01*
X35964809Y31386571D01*
X36155286Y31386571D01*
X36250524Y31434190D01*
X36298143Y31481810D01*
X36345762Y31577048D01*
X36726714Y31910381D02*
X36774333Y31958000D01*
X36869571Y32005619D01*
X37107667Y32005619D01*
X37202905Y31958000D01*
X37250524Y31910381D01*
X37298143Y31815143D01*
X37298143Y31719905D01*
X37250524Y31577048D01*
X36679095Y31005619D01*
X37298143Y31005619D01*
X38202905Y32005619D02*
X37726714Y32005619D01*
X37679095Y31529429D01*
X37726714Y31577048D01*
X37821952Y31624667D01*
X38060048Y31624667D01*
X38155286Y31577048D01*
X38202905Y31529429D01*
X38250524Y31434190D01*
X38250524Y31196095D01*
X38202905Y31100857D01*
X38155286Y31053238D01*
X38060048Y31005619D01*
X37821952Y31005619D01*
X37726714Y31053238D01*
X37679095Y31100857D01*
X38869571Y32005619D02*
X38964810Y32005619D01*
X39060048Y31958000D01*
X39107667Y31910381D01*
X39155286Y31815143D01*
X39202905Y31624667D01*
X39202905Y31386571D01*
X39155286Y31196095D01*
X39107667Y31100857D01*
X39060048Y31053238D01*
X38964810Y31005619D01*
X38869571Y31005619D01*
X38774333Y31053238D01*
X38726714Y31100857D01*
X38679095Y31196095D01*
X38631476Y31386571D01*
X38631476Y31624667D01*
X38679095Y31815143D01*
X38726714Y31910381D01*
X38774333Y31958000D01*
X38869571Y32005619D01*
D13*
X28321000Y30734000D02*
G75*
G03X28321000Y30734000I-2286000J0D01*
G01*
X77470000Y13970000D02*
X77470000Y41910000D01*
X77470000Y41910000D02*
X80010000Y41910000D01*
X80010000Y41910000D02*
X80010000Y13970000D01*
X77190000Y11150000D02*
X77190000Y12700000D01*
X77470000Y13970000D02*
X80010000Y13970000D01*
X80290000Y12700000D02*
X80290000Y11150000D01*
X80290000Y11150000D02*
X77190000Y11150000D01*
X80010000Y41910000D02*
X80010000Y11430000D01*
X85090000Y13970000D02*
X85090000Y41910000D01*
X80010000Y41910000D02*
X85090000Y41910000D01*
X80010000Y11430000D02*
X82550000Y11430000D01*
X83820000Y11150000D02*
X85370000Y11150000D01*
X82550000Y11430000D02*
X82550000Y13970000D01*
X82550000Y13970000D02*
X85090000Y13970000D01*
X85370000Y11150000D02*
X85370000Y12700000D01*
X69190000Y43180000D02*
X69190000Y45720000D01*
X68910000Y40360000D02*
X68910000Y41910000D01*
X69190000Y43180000D02*
X71730000Y43180000D01*
X72010000Y41910000D02*
X72010000Y40360000D01*
X72010000Y40360000D02*
X68910000Y40360000D01*
X71730000Y43180000D02*
X71730000Y45720000D01*
X71730000Y45720000D02*
X69190000Y45720000D01*
X26035000Y20320000D02*
X48895000Y20320000D01*
X48895000Y20320000D02*
X48895000Y17780000D01*
X48895000Y17780000D02*
X26035000Y17780000D01*
X23215000Y20600000D02*
X24765000Y20600000D01*
X26035000Y20320000D02*
X26035000Y17780000D01*
X24765000Y17500000D02*
X23215000Y17500000D01*
X23215000Y17500000D02*
X23215000Y20600000D01*
X56515000Y20320000D02*
X71755000Y20320000D01*
X71755000Y20320000D02*
X71755000Y17780000D01*
X71755000Y17780000D02*
X56515000Y17780000D01*
X53695000Y20600000D02*
X55245000Y20600000D01*
X56515000Y20320000D02*
X56515000Y17780000D01*
X55245000Y17500000D02*
X53695000Y17500000D01*
X53695000Y17500000D02*
X53695000Y20600000D01*
X76835000Y53975000D02*
X18415000Y53975000D01*
X76835000Y48895000D02*
X20955000Y48895000D01*
X76835000Y53975000D02*
X76835000Y48895000D01*
X18415000Y53975000D02*
X18415000Y51435000D01*
X18135000Y50165000D02*
X18135000Y48615000D01*
X18415000Y51435000D02*
X20955000Y51435000D01*
X20955000Y51435000D02*
X20955000Y48895000D01*
X18135000Y48615000D02*
X19685000Y48615000D01*
X76835000Y5715000D02*
X18415000Y5715000D01*
X76835000Y635000D02*
X20955000Y635000D01*
X76835000Y5715000D02*
X76835000Y635000D01*
X18415000Y5715000D02*
X18415000Y3175000D01*
X18135000Y1905000D02*
X18135000Y355000D01*
X18415000Y3175000D02*
X20955000Y3175000D01*
X20955000Y3175000D02*
X20955000Y635000D01*
X18135000Y355000D02*
X19685000Y355000D01*
X13335000Y3175000D02*
X13335000Y635000D01*
X13615000Y5995000D02*
X13615000Y4445000D01*
X13335000Y3175000D02*
X10795000Y3175000D01*
X10515000Y4445000D02*
X10515000Y5995000D01*
X10515000Y5995000D02*
X13615000Y5995000D01*
X10795000Y3175000D02*
X10795000Y635000D01*
X10795000Y635000D02*
X13335000Y635000D01*
X69215000Y8890000D02*
X53975000Y8890000D01*
X53975000Y8890000D02*
X53975000Y11430000D01*
X53975000Y11430000D02*
X69215000Y11430000D01*
X72035000Y8610000D02*
X70485000Y8610000D01*
X69215000Y8890000D02*
X69215000Y11430000D01*
X70485000Y11710000D02*
X72035000Y11710000D01*
X72035000Y11710000D02*
X72035000Y8610000D01*
X66650000Y43180000D02*
X66650000Y45720000D01*
X66370000Y40360000D02*
X66370000Y41910000D01*
X66650000Y43180000D02*
X69190000Y43180000D01*
X69470000Y41910000D02*
X69470000Y40360000D01*
X69470000Y40360000D02*
X66370000Y40360000D01*
X69190000Y43180000D02*
X69190000Y45720000D01*
X69190000Y45720000D02*
X66650000Y45720000D01*
X64110000Y43180000D02*
X64110000Y45720000D01*
X63830000Y40360000D02*
X63830000Y41910000D01*
X64110000Y43180000D02*
X66650000Y43180000D01*
X66930000Y41910000D02*
X66930000Y40360000D01*
X66930000Y40360000D02*
X63830000Y40360000D01*
X66650000Y43180000D02*
X66650000Y45720000D01*
X66650000Y45720000D02*
X64110000Y45720000D01*
X58197000Y40069200D02*
X58197000Y36069200D01*
X55697000Y40069200D02*
X55697000Y36069200D01*
X55697000Y41210800D02*
X55697000Y45210800D01*
X58197000Y41210800D02*
X58197000Y45210800D01*
X19685000Y11710000D02*
X21235000Y11710000D01*
X21235000Y11710000D02*
X21235000Y8610000D01*
X21235000Y8610000D02*
X19685000Y8610000D01*
X18415000Y8890000D02*
X8255000Y8890000D01*
X8255000Y8890000D02*
X8255000Y11430000D01*
X8255000Y11430000D02*
X18415000Y11430000D01*
X18415000Y8890000D02*
X18415000Y11430000D01*
X47625000Y11710000D02*
X49175000Y11710000D01*
X49175000Y11710000D02*
X49175000Y8610000D01*
X49175000Y8610000D02*
X47625000Y8610000D01*
X46355000Y8890000D02*
X36195000Y8890000D01*
X36195000Y8890000D02*
X36195000Y11430000D01*
X36195000Y11430000D02*
X46355000Y11430000D01*
X46355000Y8890000D02*
X46355000Y11430000D01*
X71501000Y28067000D02*
G75*
G03X71501000Y28067000I-2286000J0D01*
G01*
X48768000Y30734000D02*
G75*
G03X48768000Y30734000I-2286000J0D01*
G01*
X7366000Y48260000D02*
X7366000Y43180000D01*
X7366000Y43180000D02*
X9906000Y43180000D01*
X9906000Y43180000D02*
X9906000Y48260000D01*
X10186000Y51080000D02*
X10186000Y49530000D01*
X9906000Y48260000D02*
X7366000Y48260000D01*
X7086000Y49530000D02*
X7086000Y51080000D01*
X7086000Y51080000D02*
X10186000Y51080000D01*
X1651000Y13970000D02*
X1651000Y8890000D01*
X1651000Y8890000D02*
X4191000Y8890000D01*
X4191000Y8890000D02*
X4191000Y13970000D01*
X4471000Y16790000D02*
X4471000Y15240000D01*
X4191000Y13970000D02*
X1651000Y13970000D01*
X1371000Y15240000D02*
X1371000Y16790000D01*
X1371000Y16790000D02*
X4471000Y16790000D01*
X77470000Y48260000D02*
X77470000Y43180000D01*
X77470000Y43180000D02*
X80010000Y43180000D01*
X80010000Y43180000D02*
X80010000Y48260000D01*
X80290000Y51080000D02*
X80290000Y49530000D01*
X80010000Y48260000D02*
X77470000Y48260000D01*
X77190000Y49530000D02*
X77190000Y51080000D01*
X77190000Y51080000D02*
X80290000Y51080000D01*
X40005000Y46000000D02*
X41555000Y46000000D01*
X41555000Y46000000D02*
X41555000Y42900000D01*
X41555000Y42900000D02*
X40005000Y42900000D01*
X38735000Y43180000D02*
X28575000Y43180000D01*
X28575000Y43180000D02*
X28575000Y45720000D01*
X28575000Y45720000D02*
X38735000Y45720000D01*
X38735000Y43180000D02*
X38735000Y45720000D01*
X31115000Y11430000D02*
X23495000Y11430000D01*
X31115000Y8890000D02*
X23495000Y8890000D01*
X33935000Y8610000D02*
X32385000Y8610000D01*
X23495000Y11430000D02*
X23495000Y8890000D01*
X31115000Y8890000D02*
X31115000Y11430000D01*
X32385000Y11710000D02*
X33935000Y11710000D01*
X33935000Y11710000D02*
X33935000Y8610000D01*
X42790000Y36965000D02*
X44060000Y36965000D01*
X42790000Y44315000D02*
X44060000Y44315000D01*
X55000000Y44315000D02*
X53730000Y44315000D01*
X55000000Y36965000D02*
X53730000Y36965000D01*
X42790000Y36965000D02*
X42790000Y44315000D01*
X55000000Y36965000D02*
X55000000Y44315000D01*
X44060000Y36965000D02*
X44060000Y36030000D01*
X23495000Y45720000D02*
X15875000Y45720000D01*
X23495000Y43180000D02*
X15875000Y43180000D01*
X26315000Y42900000D02*
X24765000Y42900000D01*
X15875000Y45720000D02*
X15875000Y43180000D01*
X23495000Y43180000D02*
X23495000Y45720000D01*
X24765000Y46000000D02*
X26315000Y46000000D01*
X26315000Y46000000D02*
X26315000Y42900000D01*
X19685000Y15266000D02*
X21235000Y15266000D01*
X21235000Y15266000D02*
X21235000Y12166000D01*
X21235000Y12166000D02*
X19685000Y12166000D01*
X18415000Y12446000D02*
X8255000Y12446000D01*
X8255000Y12446000D02*
X8255000Y14986000D01*
X8255000Y14986000D02*
X18415000Y14986000D01*
X18415000Y12446000D02*
X18415000Y14986000D01*
X69190000Y38100000D02*
X64110000Y38100000D01*
X64110000Y38100000D02*
X64110000Y35560000D01*
X64110000Y35560000D02*
X69190000Y35560000D01*
X72010000Y35280000D02*
X70460000Y35280000D01*
X69190000Y35560000D02*
X69190000Y38100000D01*
X70460000Y38380000D02*
X72010000Y38380000D01*
X72010000Y38380000D02*
X72010000Y35280000D01*
X15181780Y48008540D02*
X15542460Y46537880D01*
X15542460Y46537880D02*
X15821860Y47599600D01*
X15821860Y47599600D02*
X16131740Y46527720D01*
X16131740Y46527720D02*
X16472100Y47978060D01*
X13761920Y47317660D02*
X14551860Y47327820D01*
X14551860Y47327820D02*
X14562020Y47317660D01*
X14562020Y47317660D02*
X14562020Y47327820D01*
X14602660Y48039020D02*
X14602660Y46497240D01*
X13713660Y48049180D02*
X13713660Y46479460D01*
X13713660Y46479460D02*
X13723820Y46489620D01*
X13162480Y47947580D02*
X12811960Y48028860D01*
X12811960Y48028860D02*
X12491920Y48039020D01*
X12491920Y48039020D02*
X12253160Y47838360D01*
X12253160Y47838360D02*
X12222680Y47569120D01*
X12222680Y47569120D02*
X12463980Y47327820D01*
X12463980Y47327820D02*
X12852600Y47198280D01*
X12852600Y47198280D02*
X13032940Y47038260D01*
X13032940Y47038260D02*
X13073580Y46738540D01*
X13073580Y46738540D02*
X12842440Y46517560D01*
X12842440Y46517560D02*
X12522400Y46489620D01*
X12522400Y46489620D02*
X12171880Y46598840D01*
X11133020Y48049180D02*
X10884100Y48028860D01*
X10884100Y48028860D02*
X10642800Y47787560D01*
X10642800Y47787560D02*
X10553900Y47297340D01*
X10553900Y47297340D02*
X10581840Y46949360D01*
X10581840Y46949360D02*
X10782500Y46629320D01*
X10782500Y46629320D02*
X11033960Y46507400D01*
X11033960Y46507400D02*
X11343840Y46578520D01*
X11343840Y46578520D02*
X11562280Y46758860D01*
X11562280Y46758860D02*
X11633400Y47218600D01*
X11633400Y47218600D02*
X11582600Y47627540D01*
X11582600Y47627540D02*
X11473380Y47909480D01*
X11473380Y47909480D02*
X11112700Y48039020D01*
X11732460Y49768760D02*
X11473380Y49207420D01*
X11473380Y49207420D02*
X12011860Y48689260D01*
X12011860Y48689260D02*
X12532560Y48958500D01*
X12532560Y48958500D02*
X12811960Y48798480D01*
X14252140Y48818800D02*
X14582340Y49009300D01*
X14582340Y49009300D02*
X15021760Y48679100D01*
X15021760Y48679100D02*
X15494200Y49169320D01*
X15494200Y49169320D02*
X15212260Y49649380D01*
X15212260Y49649380D02*
X15402760Y50119280D01*
X15402760Y50119280D02*
X16012360Y50307240D01*
X16012360Y50307240D02*
X16012360Y50987960D01*
X16012360Y50987960D02*
X15453560Y51127660D01*
X15453560Y51127660D02*
X15252900Y51699160D01*
X15252900Y51699160D02*
X15522140Y52169060D01*
X15522140Y52169060D02*
X15052240Y52679600D01*
X15052240Y52679600D02*
X14534080Y52417980D01*
X14534080Y52417980D02*
X14064180Y52618640D01*
X14064180Y52618640D02*
X13894000Y53159660D01*
X13894000Y53159660D02*
X13203120Y53177440D01*
X13203120Y53177440D02*
X12992300Y52628800D01*
X12992300Y52628800D02*
X12573200Y52458620D01*
X12573200Y52458620D02*
X12022020Y52727860D01*
X12022020Y52727860D02*
X11503860Y52199540D01*
X11503860Y52199540D02*
X11752780Y51658520D01*
X11752780Y51658520D02*
X11582600Y51178460D01*
X11582600Y51178460D02*
X11033960Y51079400D01*
X11033960Y51079400D02*
X11023800Y50378360D01*
X11023800Y50378360D02*
X11582600Y50177700D01*
X11582600Y50177700D02*
X11722300Y49778920D01*
X13863520Y49799240D02*
X14163240Y49949100D01*
X14163240Y49949100D02*
X14363900Y50147220D01*
X14363900Y50147220D02*
X14513760Y50548540D01*
X14513760Y50548540D02*
X14513760Y50947320D01*
X14513760Y50947320D02*
X14363900Y51297840D01*
X14363900Y51297840D02*
X13911780Y51648360D01*
X13911780Y51648360D02*
X13462200Y51699160D01*
X13462200Y51699160D02*
X13063420Y51597560D01*
X13063420Y51597560D02*
X12662100Y51249580D01*
X12662100Y51249580D02*
X12512240Y50797460D01*
X12512240Y50797460D02*
X12563040Y50299620D01*
X12563040Y50299620D02*
X12811960Y49997360D01*
X12811960Y49997360D02*
X13162480Y49799240D01*
X13162480Y49799240D02*
X12811960Y48798480D01*
X13863520Y49799240D02*
X14262300Y48798480D01*
X78001905Y6151619D02*
X78001905Y7151619D01*
X78382858Y7151619D01*
X78478096Y7104000D01*
X78525715Y7056381D01*
X78573334Y6961143D01*
X78573334Y6818286D01*
X78525715Y6723048D01*
X78478096Y6675429D01*
X78382858Y6627810D01*
X78001905Y6627810D01*
X79525715Y6151619D02*
X78954286Y6151619D01*
X79240000Y6151619D02*
X79240000Y7151619D01*
X79144762Y7008762D01*
X79049524Y6913524D01*
X78954286Y6865905D01*
X81938905Y6151619D02*
X81938905Y7151619D01*
X82319858Y7151619D01*
X82415096Y7104000D01*
X82462715Y7056381D01*
X82510334Y6961143D01*
X82510334Y6818286D01*
X82462715Y6723048D01*
X82415096Y6675429D01*
X82319858Y6627810D01*
X81938905Y6627810D01*
X82891286Y7056381D02*
X82938905Y7104000D01*
X83034143Y7151619D01*
X83272239Y7151619D01*
X83367477Y7104000D01*
X83415096Y7056381D01*
X83462715Y6961143D01*
X83462715Y6865905D01*
X83415096Y6723048D01*
X82843667Y6151619D01*
X83462715Y6151619D01*
X70483905Y38968419D02*
X70483905Y39968419D01*
X70864858Y39968419D01*
X70960096Y39920800D01*
X71007715Y39873181D01*
X71055334Y39777943D01*
X71055334Y39635086D01*
X71007715Y39539848D01*
X70960096Y39492229D01*
X70864858Y39444610D01*
X70483905Y39444610D01*
X71388667Y39968419D02*
X72007715Y39968419D01*
X71674381Y39587467D01*
X71817239Y39587467D01*
X71912477Y39539848D01*
X71960096Y39492229D01*
X72007715Y39396990D01*
X72007715Y39158895D01*
X71960096Y39063657D01*
X71912477Y39016038D01*
X71817239Y38968419D01*
X71531524Y38968419D01*
X71436286Y39016038D01*
X71388667Y39063657D01*
X22296381Y18311905D02*
X21296381Y18311905D01*
X21296381Y18692858D01*
X21344000Y18788096D01*
X21391619Y18835715D01*
X21486857Y18883334D01*
X21629714Y18883334D01*
X21724952Y18835715D01*
X21772571Y18788096D01*
X21820190Y18692858D01*
X21820190Y18311905D01*
X21296381Y19788096D02*
X21296381Y19311905D01*
X21772571Y19264286D01*
X21724952Y19311905D01*
X21677333Y19407143D01*
X21677333Y19645239D01*
X21724952Y19740477D01*
X21772571Y19788096D01*
X21867810Y19835715D01*
X22105905Y19835715D01*
X22201143Y19788096D01*
X22248762Y19740477D01*
X22296381Y19645239D01*
X22296381Y19407143D01*
X22248762Y19311905D01*
X22201143Y19264286D01*
X52649381Y18311905D02*
X51649381Y18311905D01*
X51649381Y18692858D01*
X51697000Y18788096D01*
X51744619Y18835715D01*
X51839857Y18883334D01*
X51982714Y18883334D01*
X52077952Y18835715D01*
X52125571Y18788096D01*
X52173190Y18692858D01*
X52173190Y18311905D01*
X51649381Y19740477D02*
X51649381Y19550000D01*
X51697000Y19454762D01*
X51744619Y19407143D01*
X51887476Y19311905D01*
X52077952Y19264286D01*
X52458905Y19264286D01*
X52554143Y19311905D01*
X52601762Y19359524D01*
X52649381Y19454762D01*
X52649381Y19645239D01*
X52601762Y19740477D01*
X52554143Y19788096D01*
X52458905Y19835715D01*
X52220810Y19835715D01*
X52125571Y19788096D01*
X52077952Y19740477D01*
X52030333Y19645239D01*
X52030333Y19454762D01*
X52077952Y19359524D01*
X52125571Y19311905D01*
X52220810Y19264286D01*
X17825981Y50671505D02*
X16825981Y50671505D01*
X16825981Y51052458D01*
X16873600Y51147696D01*
X16921219Y51195315D01*
X17016457Y51242934D01*
X17159314Y51242934D01*
X17254552Y51195315D01*
X17302171Y51147696D01*
X17349790Y51052458D01*
X17349790Y50671505D01*
X17254552Y51814362D02*
X17206933Y51719124D01*
X17159314Y51671505D01*
X17064076Y51623886D01*
X17016457Y51623886D01*
X16921219Y51671505D01*
X16873600Y51719124D01*
X16825981Y51814362D01*
X16825981Y52004839D01*
X16873600Y52100077D01*
X16921219Y52147696D01*
X17016457Y52195315D01*
X17064076Y52195315D01*
X17159314Y52147696D01*
X17206933Y52100077D01*
X17254552Y52004839D01*
X17254552Y51814362D01*
X17302171Y51719124D01*
X17349790Y51671505D01*
X17445029Y51623886D01*
X17635505Y51623886D01*
X17730743Y51671505D01*
X17778362Y51719124D01*
X17825981Y51814362D01*
X17825981Y52004839D01*
X17778362Y52100077D01*
X17730743Y52147696D01*
X17635505Y52195315D01*
X17445029Y52195315D01*
X17349790Y52147696D01*
X17302171Y52100077D01*
X17254552Y52004839D01*
X17724381Y2462305D02*
X16724381Y2462305D01*
X16724381Y2843258D01*
X16772000Y2938496D01*
X16819619Y2986115D01*
X16914857Y3033734D01*
X17057714Y3033734D01*
X17152952Y2986115D01*
X17200571Y2938496D01*
X17248190Y2843258D01*
X17248190Y2462305D01*
X17724381Y3509924D02*
X17724381Y3700400D01*
X17676762Y3795639D01*
X17629143Y3843258D01*
X17486286Y3938496D01*
X17295810Y3986115D01*
X16914857Y3986115D01*
X16819619Y3938496D01*
X16772000Y3890877D01*
X16724381Y3795639D01*
X16724381Y3605162D01*
X16772000Y3509924D01*
X16819619Y3462305D01*
X16914857Y3414686D01*
X17152952Y3414686D01*
X17248190Y3462305D01*
X17295810Y3509924D01*
X17343429Y3605162D01*
X17343429Y3795639D01*
X17295810Y3890877D01*
X17248190Y3938496D01*
X17152952Y3986115D01*
X15057381Y1960714D02*
X14057381Y1960714D01*
X14057381Y2341667D01*
X14105000Y2436905D01*
X14152619Y2484524D01*
X14247857Y2532143D01*
X14390714Y2532143D01*
X14485952Y2484524D01*
X14533571Y2436905D01*
X14581190Y2341667D01*
X14581190Y1960714D01*
X15057381Y3484524D02*
X15057381Y2913095D01*
X15057381Y3198809D02*
X14057381Y3198809D01*
X14200238Y3103571D01*
X14295476Y3008333D01*
X14343095Y2913095D01*
X15057381Y4436905D02*
X15057381Y3865476D01*
X15057381Y4151190D02*
X14057381Y4151190D01*
X14200238Y4055952D01*
X14295476Y3960714D01*
X14343095Y3865476D01*
X59110714Y7040619D02*
X59110714Y8040619D01*
X59491667Y8040619D01*
X59586905Y7993000D01*
X59634524Y7945381D01*
X59682143Y7850143D01*
X59682143Y7707286D01*
X59634524Y7612048D01*
X59586905Y7564429D01*
X59491667Y7516810D01*
X59110714Y7516810D01*
X60634524Y7040619D02*
X60063095Y7040619D01*
X60348809Y7040619D02*
X60348809Y8040619D01*
X60253571Y7897762D01*
X60158333Y7802524D01*
X60063095Y7754905D01*
X61015476Y7945381D02*
X61063095Y7993000D01*
X61158333Y8040619D01*
X61396429Y8040619D01*
X61491667Y7993000D01*
X61539286Y7945381D01*
X61586905Y7850143D01*
X61586905Y7754905D01*
X61539286Y7612048D01*
X60967857Y7040619D01*
X61586905Y7040619D01*
X66959314Y38968419D02*
X66959314Y39968419D01*
X67340267Y39968419D01*
X67435505Y39920800D01*
X67483124Y39873181D01*
X67530743Y39777943D01*
X67530743Y39635086D01*
X67483124Y39539848D01*
X67435505Y39492229D01*
X67340267Y39444610D01*
X66959314Y39444610D01*
X68483124Y38968419D02*
X67911695Y38968419D01*
X68197409Y38968419D02*
X68197409Y39968419D01*
X68102171Y39825562D01*
X68006933Y39730324D01*
X67911695Y39682705D01*
X68816457Y39968419D02*
X69435505Y39968419D01*
X69102171Y39587467D01*
X69245029Y39587467D01*
X69340267Y39539848D01*
X69387886Y39492229D01*
X69435505Y39396990D01*
X69435505Y39158895D01*
X69387886Y39063657D01*
X69340267Y39016038D01*
X69245029Y38968419D01*
X68959314Y38968419D01*
X68864076Y39016038D01*
X68816457Y39063657D01*
X63810114Y38917619D02*
X63810114Y39917619D01*
X64191067Y39917619D01*
X64286305Y39870000D01*
X64333924Y39822381D01*
X64381543Y39727143D01*
X64381543Y39584286D01*
X64333924Y39489048D01*
X64286305Y39441429D01*
X64191067Y39393810D01*
X63810114Y39393810D01*
X65333924Y38917619D02*
X64762495Y38917619D01*
X65048209Y38917619D02*
X65048209Y39917619D01*
X64952971Y39774762D01*
X64857733Y39679524D01*
X64762495Y39631905D01*
X66191067Y39584286D02*
X66191067Y38917619D01*
X65952971Y39965238D02*
X65714876Y39250952D01*
X66333924Y39250952D01*
X59539343Y37984134D02*
X59586962Y37936515D01*
X59634581Y37793658D01*
X59634581Y37698420D01*
X59586962Y37555562D01*
X59491724Y37460324D01*
X59396486Y37412705D01*
X59206010Y37365086D01*
X59063152Y37365086D01*
X58872676Y37412705D01*
X58777438Y37460324D01*
X58682200Y37555562D01*
X58634581Y37698420D01*
X58634581Y37793658D01*
X58682200Y37936515D01*
X58729819Y37984134D01*
X59634581Y38936515D02*
X59634581Y38365086D01*
X59634581Y38650800D02*
X58634581Y38650800D01*
X58777438Y38555562D01*
X58872676Y38460324D01*
X58920295Y38365086D01*
X59539343Y43013334D02*
X59586962Y42965715D01*
X59634581Y42822858D01*
X59634581Y42727620D01*
X59586962Y42584762D01*
X59491724Y42489524D01*
X59396486Y42441905D01*
X59206010Y42394286D01*
X59063152Y42394286D01*
X58872676Y42441905D01*
X58777438Y42489524D01*
X58682200Y42584762D01*
X58634581Y42727620D01*
X58634581Y42822858D01*
X58682200Y42965715D01*
X58729819Y43013334D01*
X58729819Y43394286D02*
X58682200Y43441905D01*
X58634581Y43537143D01*
X58634581Y43775239D01*
X58682200Y43870477D01*
X58729819Y43918096D01*
X58825057Y43965715D01*
X58920295Y43965715D01*
X59063152Y43918096D01*
X59634581Y43346667D01*
X59634581Y43965715D01*
X7310381Y8945714D02*
X6310381Y8945714D01*
X6310381Y9326667D01*
X6358000Y9421905D01*
X6405619Y9469524D01*
X6500857Y9517143D01*
X6643714Y9517143D01*
X6738952Y9469524D01*
X6786571Y9421905D01*
X6834190Y9326667D01*
X6834190Y8945714D01*
X7310381Y10469524D02*
X7310381Y9898095D01*
X7310381Y10183809D02*
X6310381Y10183809D01*
X6453238Y10088571D01*
X6548476Y9993333D01*
X6596095Y9898095D01*
X6310381Y11374286D02*
X6310381Y10898095D01*
X6786571Y10850476D01*
X6738952Y10898095D01*
X6691333Y10993333D01*
X6691333Y11231429D01*
X6738952Y11326667D01*
X6786571Y11374286D01*
X6881810Y11421905D01*
X7119905Y11421905D01*
X7215143Y11374286D01*
X7262762Y11326667D01*
X7310381Y11231429D01*
X7310381Y10993333D01*
X7262762Y10898095D01*
X7215143Y10850476D01*
X35202905Y7040619D02*
X35202905Y8040619D01*
X35583858Y8040619D01*
X35679096Y7993000D01*
X35726715Y7945381D01*
X35774334Y7850143D01*
X35774334Y7707286D01*
X35726715Y7612048D01*
X35679096Y7564429D01*
X35583858Y7516810D01*
X35202905Y7516810D01*
X36107667Y8040619D02*
X36774334Y8040619D01*
X36345762Y7040619D01*
X7421714Y52989219D02*
X7421714Y53989219D01*
X7802667Y53989219D01*
X7897905Y53941600D01*
X7945524Y53893981D01*
X7993143Y53798743D01*
X7993143Y53655886D01*
X7945524Y53560648D01*
X7897905Y53513029D01*
X7802667Y53465410D01*
X7421714Y53465410D01*
X8945524Y52989219D02*
X8374095Y52989219D01*
X8659809Y52989219D02*
X8659809Y53989219D01*
X8564571Y53846362D01*
X8469333Y53751124D01*
X8374095Y53703505D01*
X9802667Y53989219D02*
X9612190Y53989219D01*
X9516952Y53941600D01*
X9469333Y53893981D01*
X9374095Y53751124D01*
X9326476Y53560648D01*
X9326476Y53179695D01*
X9374095Y53084457D01*
X9421714Y53036838D01*
X9516952Y52989219D01*
X9707429Y52989219D01*
X9802667Y53036838D01*
X9850286Y53084457D01*
X9897905Y53179695D01*
X9897905Y53417790D01*
X9850286Y53513029D01*
X9802667Y53560648D01*
X9707429Y53608267D01*
X9516952Y53608267D01*
X9421714Y53560648D01*
X9374095Y53513029D01*
X9326476Y53417790D01*
X1706714Y18851619D02*
X1706714Y19851619D01*
X2087667Y19851619D01*
X2182905Y19804000D01*
X2230524Y19756381D01*
X2278143Y19661143D01*
X2278143Y19518286D01*
X2230524Y19423048D01*
X2182905Y19375429D01*
X2087667Y19327810D01*
X1706714Y19327810D01*
X3230524Y18851619D02*
X2659095Y18851619D01*
X2944809Y18851619D02*
X2944809Y19851619D01*
X2849571Y19708762D01*
X2754333Y19613524D01*
X2659095Y19565905D01*
X3563857Y19851619D02*
X4230524Y19851619D01*
X3801952Y18851619D01*
X76753981Y43235714D02*
X75753981Y43235714D01*
X75753981Y43616667D01*
X75801600Y43711905D01*
X75849219Y43759524D01*
X75944457Y43807143D01*
X76087314Y43807143D01*
X76182552Y43759524D01*
X76230171Y43711905D01*
X76277790Y43616667D01*
X76277790Y43235714D01*
X76753981Y44759524D02*
X76753981Y44188095D01*
X76753981Y44473809D02*
X75753981Y44473809D01*
X75896838Y44378571D01*
X75992076Y44283333D01*
X76039695Y44188095D01*
X76182552Y45330952D02*
X76134933Y45235714D01*
X76087314Y45188095D01*
X75992076Y45140476D01*
X75944457Y45140476D01*
X75849219Y45188095D01*
X75801600Y45235714D01*
X75753981Y45330952D01*
X75753981Y45521429D01*
X75801600Y45616667D01*
X75849219Y45664286D01*
X75944457Y45711905D01*
X75992076Y45711905D01*
X76087314Y45664286D01*
X76134933Y45616667D01*
X76182552Y45521429D01*
X76182552Y45330952D01*
X76230171Y45235714D01*
X76277790Y45188095D01*
X76373029Y45140476D01*
X76563505Y45140476D01*
X76658743Y45188095D01*
X76706362Y45235714D01*
X76753981Y45330952D01*
X76753981Y45521429D01*
X76706362Y45616667D01*
X76658743Y45664286D01*
X76563505Y45711905D01*
X76373029Y45711905D01*
X76277790Y45664286D01*
X76230171Y45616667D01*
X76182552Y45521429D01*
X29138714Y46537619D02*
X29138714Y47537619D01*
X29519667Y47537619D01*
X29614905Y47490000D01*
X29662524Y47442381D01*
X29710143Y47347143D01*
X29710143Y47204286D01*
X29662524Y47109048D01*
X29614905Y47061429D01*
X29519667Y47013810D01*
X29138714Y47013810D01*
X30662524Y46537619D02*
X30091095Y46537619D01*
X30376809Y46537619D02*
X30376809Y47537619D01*
X30281571Y47394762D01*
X30186333Y47299524D01*
X30091095Y47251905D01*
X31281571Y47537619D02*
X31376810Y47537619D01*
X31472048Y47490000D01*
X31519667Y47442381D01*
X31567286Y47347143D01*
X31614905Y47156667D01*
X31614905Y46918571D01*
X31567286Y46728095D01*
X31519667Y46632857D01*
X31472048Y46585238D01*
X31376810Y46537619D01*
X31281571Y46537619D01*
X31186333Y46585238D01*
X31138714Y46632857D01*
X31091095Y46728095D01*
X31043476Y46918571D01*
X31043476Y47156667D01*
X31091095Y47347143D01*
X31138714Y47442381D01*
X31186333Y47490000D01*
X31281571Y47537619D01*
X23423714Y7040619D02*
X23423714Y8040619D01*
X23804667Y8040619D01*
X23899905Y7993000D01*
X23947524Y7945381D01*
X23995143Y7850143D01*
X23995143Y7707286D01*
X23947524Y7612048D01*
X23899905Y7564429D01*
X23804667Y7516810D01*
X23423714Y7516810D01*
X24947524Y7040619D02*
X24376095Y7040619D01*
X24661809Y7040619D02*
X24661809Y8040619D01*
X24566571Y7897762D01*
X24471333Y7802524D01*
X24376095Y7754905D01*
X25423714Y7040619D02*
X25614190Y7040619D01*
X25709429Y7088238D01*
X25757048Y7135857D01*
X25852286Y7278714D01*
X25899905Y7469190D01*
X25899905Y7850143D01*
X25852286Y7945381D01*
X25804667Y7993000D01*
X25709429Y8040619D01*
X25518952Y8040619D01*
X25423714Y7993000D01*
X25376095Y7945381D01*
X25328476Y7850143D01*
X25328476Y7612048D01*
X25376095Y7516810D01*
X25423714Y7469190D01*
X25518952Y7421571D01*
X25709429Y7421571D01*
X25804667Y7469190D01*
X25852286Y7516810D01*
X25899905Y7612048D01*
X41362381Y38608095D02*
X42171905Y38608095D01*
X42267143Y38655714D01*
X42314762Y38703333D01*
X42362381Y38798571D01*
X42362381Y38989048D01*
X42314762Y39084286D01*
X42267143Y39131905D01*
X42171905Y39179524D01*
X41362381Y39179524D01*
X42362381Y40179524D02*
X42362381Y39608095D01*
X42362381Y39893809D02*
X41362381Y39893809D01*
X41505238Y39798571D01*
X41600476Y39703333D01*
X41648095Y39608095D01*
X17600705Y46486819D02*
X17600705Y47486819D01*
X17981658Y47486819D01*
X18076896Y47439200D01*
X18124515Y47391581D01*
X18172134Y47296343D01*
X18172134Y47153486D01*
X18124515Y47058248D01*
X18076896Y47010629D01*
X17981658Y46963010D01*
X17600705Y46963010D01*
X19029277Y47153486D02*
X19029277Y46486819D01*
X18791181Y47534438D02*
X18553086Y46820152D01*
X19172134Y46820152D01*
X7310381Y12628714D02*
X6310381Y12628714D01*
X6310381Y13009667D01*
X6358000Y13104905D01*
X6405619Y13152524D01*
X6500857Y13200143D01*
X6643714Y13200143D01*
X6738952Y13152524D01*
X6786571Y13104905D01*
X6834190Y13009667D01*
X6834190Y12628714D01*
X6405619Y13581095D02*
X6358000Y13628714D01*
X6310381Y13723952D01*
X6310381Y13962048D01*
X6358000Y14057286D01*
X6405619Y14104905D01*
X6500857Y14152524D01*
X6596095Y14152524D01*
X6738952Y14104905D01*
X7310381Y13533476D01*
X7310381Y14152524D01*
X6310381Y14771571D02*
X6310381Y14866810D01*
X6358000Y14962048D01*
X6405619Y15009667D01*
X6500857Y15057286D01*
X6691333Y15104905D01*
X6929429Y15104905D01*
X7119905Y15057286D01*
X7215143Y15009667D01*
X7262762Y14962048D01*
X7310381Y14866810D01*
X7310381Y14771571D01*
X7262762Y14676333D01*
X7215143Y14628714D01*
X7119905Y14581095D01*
X6929429Y14533476D01*
X6691333Y14533476D01*
X6500857Y14581095D01*
X6405619Y14628714D01*
X6358000Y14676333D01*
X6310381Y14771571D01*
X60965314Y36377619D02*
X60965314Y37377619D01*
X61346267Y37377619D01*
X61441505Y37330000D01*
X61489124Y37282381D01*
X61536743Y37187143D01*
X61536743Y37044286D01*
X61489124Y36949048D01*
X61441505Y36901429D01*
X61346267Y36853810D01*
X60965314Y36853810D01*
X61917695Y37282381D02*
X61965314Y37330000D01*
X62060552Y37377619D01*
X62298648Y37377619D01*
X62393886Y37330000D01*
X62441505Y37282381D01*
X62489124Y37187143D01*
X62489124Y37091905D01*
X62441505Y36949048D01*
X61870076Y36377619D01*
X62489124Y36377619D01*
X63441505Y36377619D02*
X62870076Y36377619D01*
X63155790Y36377619D02*
X63155790Y37377619D01*
X63060552Y37234762D01*
X62965314Y37139524D01*
X62870076Y37091905D01*
%LPC*%
D14*
X26035000Y30734000D03*
D15*
X78740000Y12700000D03*
D16*
X78740000Y15240000D03*
X78740000Y17780000D03*
X78740000Y20320000D03*
X78740000Y22860000D03*
X78740000Y25400000D03*
X78740000Y27940000D03*
X78740000Y30480000D03*
X78740000Y33020000D03*
X78740000Y35560000D03*
X78740000Y38100000D03*
X78740000Y40640000D03*
D17*
X83820000Y12700000D03*
D18*
X81280000Y12700000D03*
X83820000Y15240000D03*
X81280000Y15240000D03*
X83820000Y17780000D03*
X81280000Y17780000D03*
X83820000Y20320000D03*
X81280000Y20320000D03*
X83820000Y22860000D03*
X81280000Y22860000D03*
X83820000Y25400000D03*
X81280000Y25400000D03*
X83820000Y27940000D03*
X81280000Y27940000D03*
X83820000Y30480000D03*
X81280000Y30480000D03*
X83820000Y33020000D03*
X81280000Y33020000D03*
X83820000Y35560000D03*
X81280000Y35560000D03*
X83820000Y38100000D03*
X81280000Y38100000D03*
X83820000Y40640000D03*
X81280000Y40640000D03*
D19*
X70460000Y41910000D03*
D20*
X70460000Y44450000D03*
D21*
X24765000Y19050000D03*
D22*
X27305000Y19050000D03*
X29845000Y19050000D03*
X32385000Y19050000D03*
X34925000Y19050000D03*
X37465000Y19050000D03*
X40005000Y19050000D03*
X42545000Y19050000D03*
X45085000Y19050000D03*
X47625000Y19050000D03*
D21*
X55245000Y19050000D03*
D22*
X57785000Y19050000D03*
X60325000Y19050000D03*
X62865000Y19050000D03*
X65405000Y19050000D03*
X67945000Y19050000D03*
X70485000Y19050000D03*
D17*
X19685000Y50165000D03*
D18*
X19685000Y52705000D03*
X22225000Y50165000D03*
X22225000Y52705000D03*
X24765000Y50165000D03*
X24765000Y52705000D03*
X27305000Y50165000D03*
X27305000Y52705000D03*
X29845000Y50165000D03*
X29845000Y52705000D03*
X32385000Y50165000D03*
X32385000Y52705000D03*
X34925000Y50165000D03*
X34925000Y52705000D03*
X37465000Y50165000D03*
X37465000Y52705000D03*
X40005000Y50165000D03*
X40005000Y52705000D03*
X42545000Y50165000D03*
X42545000Y52705000D03*
X45085000Y50165000D03*
X45085000Y52705000D03*
X47625000Y50165000D03*
X47625000Y52705000D03*
X50165000Y50165000D03*
X50165000Y52705000D03*
X52705000Y50165000D03*
X52705000Y52705000D03*
X55245000Y50165000D03*
X55245000Y52705000D03*
X57785000Y50165000D03*
X57785000Y52705000D03*
X60325000Y50165000D03*
X60325000Y52705000D03*
X62865000Y50165000D03*
X62865000Y52705000D03*
X65405000Y50165000D03*
X65405000Y52705000D03*
X67945000Y50165000D03*
X67945000Y52705000D03*
X70485000Y50165000D03*
X70485000Y52705000D03*
X73025000Y50165000D03*
X73025000Y52705000D03*
X75565000Y50165000D03*
X75565000Y52705000D03*
D17*
X19685000Y1905000D03*
D18*
X19685000Y4445000D03*
X22225000Y1905000D03*
X22225000Y4445000D03*
X24765000Y1905000D03*
X24765000Y4445000D03*
X27305000Y1905000D03*
X27305000Y4445000D03*
X29845000Y1905000D03*
X29845000Y4445000D03*
X32385000Y1905000D03*
X32385000Y4445000D03*
X34925000Y1905000D03*
X34925000Y4445000D03*
X37465000Y1905000D03*
X37465000Y4445000D03*
X40005000Y1905000D03*
X40005000Y4445000D03*
X42545000Y1905000D03*
X42545000Y4445000D03*
X45085000Y1905000D03*
X45085000Y4445000D03*
X47625000Y1905000D03*
X47625000Y4445000D03*
X50165000Y1905000D03*
X50165000Y4445000D03*
X52705000Y1905000D03*
X52705000Y4445000D03*
X55245000Y1905000D03*
X55245000Y4445000D03*
X57785000Y1905000D03*
X57785000Y4445000D03*
X60325000Y1905000D03*
X60325000Y4445000D03*
X62865000Y1905000D03*
X62865000Y4445000D03*
X65405000Y1905000D03*
X65405000Y4445000D03*
X67945000Y1905000D03*
X67945000Y4445000D03*
X70485000Y1905000D03*
X70485000Y4445000D03*
X73025000Y1905000D03*
X73025000Y4445000D03*
X75565000Y1905000D03*
X75565000Y4445000D03*
D19*
X12065000Y4445000D03*
D20*
X12065000Y1905000D03*
D21*
X70485000Y10160000D03*
D22*
X67945000Y10160000D03*
X65405000Y10160000D03*
X62865000Y10160000D03*
X60325000Y10160000D03*
X57785000Y10160000D03*
X55245000Y10160000D03*
D19*
X67920000Y41910000D03*
D20*
X67920000Y44450000D03*
D19*
X65380000Y41910000D03*
D20*
X65380000Y44450000D03*
D23*
X62865000Y23368000D03*
X62865000Y33528000D03*
D24*
X56947000Y39319200D03*
D25*
X56947000Y36819200D03*
D24*
X56947000Y41960800D03*
D25*
X56947000Y44460800D03*
D21*
X19685000Y10160000D03*
D22*
X17145000Y10160000D03*
X14605000Y10160000D03*
X12065000Y10160000D03*
X9525000Y10160000D03*
D21*
X47625000Y10160000D03*
D22*
X45085000Y10160000D03*
X42545000Y10160000D03*
X40005000Y10160000D03*
X37465000Y10160000D03*
D14*
X69215000Y28067000D03*
X46482000Y30734000D03*
D15*
X8636000Y49530000D03*
D16*
X8636000Y46990000D03*
X8636000Y44450000D03*
D15*
X2921000Y15240000D03*
D16*
X2921000Y12700000D03*
X2921000Y10160000D03*
D15*
X78740000Y49530000D03*
D16*
X78740000Y46990000D03*
X78740000Y44450000D03*
D21*
X40005000Y44450000D03*
D22*
X37465000Y44450000D03*
X34925000Y44450000D03*
X32385000Y44450000D03*
X29845000Y44450000D03*
D21*
X32385000Y10160000D03*
D22*
X29845000Y10160000D03*
X27305000Y10160000D03*
X24765000Y10160000D03*
D23*
X40005000Y26670000D03*
X40005000Y36830000D03*
X37465000Y36830000D03*
X37465000Y26670000D03*
X32385000Y36830000D03*
X32385000Y26670000D03*
X34925000Y26670000D03*
X34925000Y36830000D03*
D26*
X45085000Y36830000D03*
X47625000Y36830000D03*
X50165000Y36830000D03*
X52705000Y36830000D03*
X52705000Y44450000D03*
X50165000Y44450000D03*
X47625000Y44450000D03*
X45085000Y44450000D03*
D21*
X24765000Y44450000D03*
D22*
X22225000Y44450000D03*
X19685000Y44450000D03*
X17145000Y44450000D03*
D21*
X19685000Y13716000D03*
D22*
X17145000Y13716000D03*
X14605000Y13716000D03*
X12065000Y13716000D03*
X9525000Y13716000D03*
D21*
X70460000Y36830000D03*
D22*
X67920000Y36830000D03*
X65380000Y36830000D03*
D23*
X52705000Y33528000D03*
X52705000Y23368000D03*
X55245000Y23368000D03*
X55245000Y33528000D03*
X57785000Y23368000D03*
X57785000Y33528000D03*
X60325000Y33528000D03*
X60325000Y23368000D03*
M02*
