G04 #@! TF.FileFunction,Legend,Top*
%FSLAX46Y46*%
G04 Gerber Fmt 4.6, Leading zero omitted, Abs format (unit mm)*
G04 Created by KiCad (PCBNEW 0.201505262310+5684~23~ubuntu14.04.1-product) date Mo 08 Jun 2015 21:40:36 CEST*
%MOMM*%
G01*
G04 APERTURE LIST*
%ADD10C,0.100000*%
%ADD11C,0.200000*%
%ADD12C,0.300000*%
%ADD13C,0.150000*%
%ADD14C,4.064000*%
%ADD15R,2.032000X1.727200*%
%ADD16O,2.032000X1.727200*%
%ADD17R,1.727200X1.727200*%
%ADD18O,1.727200X1.727200*%
%ADD19R,2.032000X2.032000*%
%ADD20O,2.032000X2.032000*%
%ADD21R,1.727200X2.032000*%
%ADD22O,1.727200X2.032000*%
%ADD23C,1.998980*%
%ADD24R,1.397000X1.397000*%
%ADD25C,1.397000*%
%ADD26R,1.200000X1.200000*%
%ADD27C,1.200000*%
G04 APERTURE END LIST*
D10*
D11*
X48260000Y33274000D02*
X48260000Y17145000D01*
X21590000Y33274000D02*
X21590000Y17145000D01*
X45982000Y21844096D02*
X45934381Y21748858D01*
X45934381Y21606001D01*
X45982000Y21463143D01*
X46077238Y21367905D01*
X46172476Y21320286D01*
X46362952Y21272667D01*
X46505810Y21272667D01*
X46696286Y21320286D01*
X46791524Y21367905D01*
X46886762Y21463143D01*
X46934381Y21606001D01*
X46934381Y21701239D01*
X46886762Y21844096D01*
X46839143Y21891715D01*
X46505810Y21891715D01*
X46505810Y21701239D01*
X46934381Y22320286D02*
X45934381Y22320286D01*
X46934381Y22891715D01*
X45934381Y22891715D01*
X46934381Y23367905D02*
X45934381Y23367905D01*
X45934381Y23606000D01*
X45982000Y23748858D01*
X46077238Y23844096D01*
X46172476Y23891715D01*
X46362952Y23939334D01*
X46505810Y23939334D01*
X46696286Y23891715D01*
X46791524Y23844096D01*
X46886762Y23748858D01*
X46934381Y23606000D01*
X46934381Y23367905D01*
X68080000Y21844096D02*
X68032381Y21748858D01*
X68032381Y21606001D01*
X68080000Y21463143D01*
X68175238Y21367905D01*
X68270476Y21320286D01*
X68460952Y21272667D01*
X68603810Y21272667D01*
X68794286Y21320286D01*
X68889524Y21367905D01*
X68984762Y21463143D01*
X69032381Y21606001D01*
X69032381Y21701239D01*
X68984762Y21844096D01*
X68937143Y21891715D01*
X68603810Y21891715D01*
X68603810Y21701239D01*
X69032381Y22320286D02*
X68032381Y22320286D01*
X69032381Y22891715D01*
X68032381Y22891715D01*
X69032381Y23367905D02*
X68032381Y23367905D01*
X68032381Y23606000D01*
X68080000Y23748858D01*
X68175238Y23844096D01*
X68270476Y23891715D01*
X68460952Y23939334D01*
X68603810Y23939334D01*
X68794286Y23891715D01*
X68889524Y23844096D01*
X68984762Y23748858D01*
X69032381Y23606000D01*
X69032381Y23367905D01*
X66492381Y21288572D02*
X65492381Y21288572D01*
X66206667Y21621906D01*
X65492381Y21955239D01*
X66492381Y21955239D01*
X66492381Y22431429D02*
X65492381Y22431429D01*
X66444762Y22860000D02*
X66492381Y23002857D01*
X66492381Y23240953D01*
X66444762Y23336191D01*
X66397143Y23383810D01*
X66301905Y23431429D01*
X66206667Y23431429D01*
X66111429Y23383810D01*
X66063810Y23336191D01*
X66016190Y23240953D01*
X65968571Y23050476D01*
X65920952Y22955238D01*
X65873333Y22907619D01*
X65778095Y22860000D01*
X65682857Y22860000D01*
X65587619Y22907619D01*
X65540000Y22955238D01*
X65492381Y23050476D01*
X65492381Y23288572D01*
X65540000Y23431429D01*
X65492381Y24050476D02*
X65492381Y24240953D01*
X65540000Y24336191D01*
X65635238Y24431429D01*
X65825714Y24479048D01*
X66159048Y24479048D01*
X66349524Y24431429D01*
X66444762Y24336191D01*
X66492381Y24240953D01*
X66492381Y24050476D01*
X66444762Y23955238D01*
X66349524Y23860000D01*
X66159048Y23812381D01*
X65825714Y23812381D01*
X65635238Y23860000D01*
X65540000Y23955238D01*
X65492381Y24050476D01*
X63857143Y21931334D02*
X63904762Y21883715D01*
X63952381Y21740858D01*
X63952381Y21645620D01*
X63904762Y21502762D01*
X63809524Y21407524D01*
X63714286Y21359905D01*
X63523810Y21312286D01*
X63380952Y21312286D01*
X63190476Y21359905D01*
X63095238Y21407524D01*
X63000000Y21502762D01*
X62952381Y21645620D01*
X62952381Y21740858D01*
X63000000Y21883715D01*
X63047619Y21931334D01*
X63904762Y22312286D02*
X63952381Y22455143D01*
X63952381Y22693239D01*
X63904762Y22788477D01*
X63857143Y22836096D01*
X63761905Y22883715D01*
X63666667Y22883715D01*
X63571429Y22836096D01*
X63523810Y22788477D01*
X63476190Y22693239D01*
X63428571Y22502762D01*
X63380952Y22407524D01*
X63333333Y22359905D01*
X63238095Y22312286D01*
X63142857Y22312286D01*
X63047619Y22359905D01*
X63000000Y22407524D01*
X62952381Y22502762D01*
X62952381Y22740858D01*
X63000000Y22883715D01*
X61412381Y21288572D02*
X60412381Y21288572D01*
X61126667Y21621906D01*
X60412381Y21955239D01*
X61412381Y21955239D01*
X60412381Y22621905D02*
X60412381Y22812382D01*
X60460000Y22907620D01*
X60555238Y23002858D01*
X60745714Y23050477D01*
X61079048Y23050477D01*
X61269524Y23002858D01*
X61364762Y22907620D01*
X61412381Y22812382D01*
X61412381Y22621905D01*
X61364762Y22526667D01*
X61269524Y22431429D01*
X61079048Y22383810D01*
X60745714Y22383810D01*
X60555238Y22431429D01*
X60460000Y22526667D01*
X60412381Y22621905D01*
X61364762Y23431429D02*
X61412381Y23574286D01*
X61412381Y23812382D01*
X61364762Y23907620D01*
X61317143Y23955239D01*
X61221905Y24002858D01*
X61126667Y24002858D01*
X61031429Y23955239D01*
X60983810Y23907620D01*
X60936190Y23812382D01*
X60888571Y23621905D01*
X60840952Y23526667D01*
X60793333Y23479048D01*
X60698095Y23431429D01*
X60602857Y23431429D01*
X60507619Y23479048D01*
X60460000Y23526667D01*
X60412381Y23621905D01*
X60412381Y23860001D01*
X60460000Y24002858D01*
X61412381Y24431429D02*
X60412381Y24431429D01*
X58824762Y21169524D02*
X58872381Y21312381D01*
X58872381Y21550477D01*
X58824762Y21645715D01*
X58777143Y21693334D01*
X58681905Y21740953D01*
X58586667Y21740953D01*
X58491429Y21693334D01*
X58443810Y21645715D01*
X58396190Y21550477D01*
X58348571Y21360000D01*
X58300952Y21264762D01*
X58253333Y21217143D01*
X58158095Y21169524D01*
X58062857Y21169524D01*
X57967619Y21217143D01*
X57920000Y21264762D01*
X57872381Y21360000D01*
X57872381Y21598096D01*
X57920000Y21740953D01*
X58777143Y22740953D02*
X58824762Y22693334D01*
X58872381Y22550477D01*
X58872381Y22455239D01*
X58824762Y22312381D01*
X58729524Y22217143D01*
X58634286Y22169524D01*
X58443810Y22121905D01*
X58300952Y22121905D01*
X58110476Y22169524D01*
X58015238Y22217143D01*
X57920000Y22312381D01*
X57872381Y22455239D01*
X57872381Y22550477D01*
X57920000Y22693334D01*
X57967619Y22740953D01*
X58872381Y23645715D02*
X58872381Y23169524D01*
X57872381Y23169524D01*
X58872381Y23979048D02*
X57872381Y23979048D01*
X58872381Y24550477D02*
X58300952Y24121905D01*
X57872381Y24550477D02*
X58443810Y23979048D01*
X55380000Y21717096D02*
X55332381Y21621858D01*
X55332381Y21479001D01*
X55380000Y21336143D01*
X55475238Y21240905D01*
X55570476Y21193286D01*
X55760952Y21145667D01*
X55903810Y21145667D01*
X56094286Y21193286D01*
X56189524Y21240905D01*
X56284762Y21336143D01*
X56332381Y21479001D01*
X56332381Y21574239D01*
X56284762Y21717096D01*
X56237143Y21764715D01*
X55903810Y21764715D01*
X55903810Y21574239D01*
X56332381Y22193286D02*
X55332381Y22193286D01*
X56332381Y22764715D01*
X55332381Y22764715D01*
X56332381Y23240905D02*
X55332381Y23240905D01*
X55332381Y23479000D01*
X55380000Y23621858D01*
X55475238Y23717096D01*
X55570476Y23764715D01*
X55760952Y23812334D01*
X55903810Y23812334D01*
X56094286Y23764715D01*
X56189524Y23717096D01*
X56284762Y23621858D01*
X56332381Y23479000D01*
X56332381Y23240905D01*
X53411429Y21225095D02*
X53411429Y21987000D01*
X53792381Y21606048D02*
X53030476Y21606048D01*
X52792381Y22367952D02*
X52792381Y22987000D01*
X53173333Y22653666D01*
X53173333Y22796524D01*
X53220952Y22891762D01*
X53268571Y22939381D01*
X53363810Y22987000D01*
X53601905Y22987000D01*
X53697143Y22939381D01*
X53744762Y22891762D01*
X53792381Y22796524D01*
X53792381Y22510809D01*
X53744762Y22415571D01*
X53697143Y22367952D01*
X52792381Y23272714D02*
X53792381Y23606047D01*
X52792381Y23939381D01*
X52792381Y24177476D02*
X52792381Y24796524D01*
X53173333Y24463190D01*
X53173333Y24606048D01*
X53220952Y24701286D01*
X53268571Y24748905D01*
X53363810Y24796524D01*
X53601905Y24796524D01*
X53697143Y24748905D01*
X53744762Y24701286D01*
X53792381Y24606048D01*
X53792381Y24320333D01*
X53744762Y24225095D01*
X53697143Y24177476D01*
X44172143Y21931334D02*
X44219762Y21883715D01*
X44267381Y21740858D01*
X44267381Y21645620D01*
X44219762Y21502762D01*
X44124524Y21407524D01*
X44029286Y21359905D01*
X43838810Y21312286D01*
X43695952Y21312286D01*
X43505476Y21359905D01*
X43410238Y21407524D01*
X43315000Y21502762D01*
X43267381Y21645620D01*
X43267381Y21740858D01*
X43315000Y21883715D01*
X43362619Y21931334D01*
X44219762Y22312286D02*
X44267381Y22455143D01*
X44267381Y22693239D01*
X44219762Y22788477D01*
X44172143Y22836096D01*
X44076905Y22883715D01*
X43981667Y22883715D01*
X43886429Y22836096D01*
X43838810Y22788477D01*
X43791190Y22693239D01*
X43743571Y22502762D01*
X43695952Y22407524D01*
X43648333Y22359905D01*
X43553095Y22312286D01*
X43457857Y22312286D01*
X43362619Y22359905D01*
X43315000Y22407524D01*
X43267381Y22502762D01*
X43267381Y22740858D01*
X43315000Y22883715D01*
X23566429Y21098095D02*
X23566429Y21860000D01*
X23947381Y21479048D02*
X23185476Y21479048D01*
X22947381Y22240952D02*
X22947381Y22860000D01*
X23328333Y22526666D01*
X23328333Y22669524D01*
X23375952Y22764762D01*
X23423571Y22812381D01*
X23518810Y22860000D01*
X23756905Y22860000D01*
X23852143Y22812381D01*
X23899762Y22764762D01*
X23947381Y22669524D01*
X23947381Y22383809D01*
X23899762Y22288571D01*
X23852143Y22240952D01*
X22947381Y23145714D02*
X23947381Y23479047D01*
X22947381Y23812381D01*
X22947381Y24050476D02*
X22947381Y24669524D01*
X23328333Y24336190D01*
X23328333Y24479048D01*
X23375952Y24574286D01*
X23423571Y24621905D01*
X23518810Y24669524D01*
X23756905Y24669524D01*
X23852143Y24621905D01*
X23899762Y24574286D01*
X23947381Y24479048D01*
X23947381Y24193333D01*
X23899762Y24098095D01*
X23852143Y24050476D01*
X25535000Y21717096D02*
X25487381Y21621858D01*
X25487381Y21479001D01*
X25535000Y21336143D01*
X25630238Y21240905D01*
X25725476Y21193286D01*
X25915952Y21145667D01*
X26058810Y21145667D01*
X26249286Y21193286D01*
X26344524Y21240905D01*
X26439762Y21336143D01*
X26487381Y21479001D01*
X26487381Y21574239D01*
X26439762Y21717096D01*
X26392143Y21764715D01*
X26058810Y21764715D01*
X26058810Y21574239D01*
X26487381Y22193286D02*
X25487381Y22193286D01*
X26487381Y22764715D01*
X25487381Y22764715D01*
X26487381Y23240905D02*
X25487381Y23240905D01*
X25487381Y23479000D01*
X25535000Y23621858D01*
X25630238Y23717096D01*
X25725476Y23764715D01*
X25915952Y23812334D01*
X26058810Y23812334D01*
X26249286Y23764715D01*
X26344524Y23717096D01*
X26439762Y23621858D01*
X26487381Y23479000D01*
X26487381Y23240905D01*
X28979762Y21169524D02*
X29027381Y21312381D01*
X29027381Y21550477D01*
X28979762Y21645715D01*
X28932143Y21693334D01*
X28836905Y21740953D01*
X28741667Y21740953D01*
X28646429Y21693334D01*
X28598810Y21645715D01*
X28551190Y21550477D01*
X28503571Y21360000D01*
X28455952Y21264762D01*
X28408333Y21217143D01*
X28313095Y21169524D01*
X28217857Y21169524D01*
X28122619Y21217143D01*
X28075000Y21264762D01*
X28027381Y21360000D01*
X28027381Y21598096D01*
X28075000Y21740953D01*
X28932143Y22740953D02*
X28979762Y22693334D01*
X29027381Y22550477D01*
X29027381Y22455239D01*
X28979762Y22312381D01*
X28884524Y22217143D01*
X28789286Y22169524D01*
X28598810Y22121905D01*
X28455952Y22121905D01*
X28265476Y22169524D01*
X28170238Y22217143D01*
X28075000Y22312381D01*
X28027381Y22455239D01*
X28027381Y22550477D01*
X28075000Y22693334D01*
X28122619Y22740953D01*
X29027381Y23645715D02*
X29027381Y23169524D01*
X28027381Y23169524D01*
X29027381Y23979048D02*
X28027381Y23979048D01*
X29027381Y24550477D02*
X28455952Y24121905D01*
X28027381Y24550477D02*
X28598810Y23979048D01*
X31567381Y21288572D02*
X30567381Y21288572D01*
X31281667Y21621906D01*
X30567381Y21955239D01*
X31567381Y21955239D01*
X30567381Y22621905D02*
X30567381Y22812382D01*
X30615000Y22907620D01*
X30710238Y23002858D01*
X30900714Y23050477D01*
X31234048Y23050477D01*
X31424524Y23002858D01*
X31519762Y22907620D01*
X31567381Y22812382D01*
X31567381Y22621905D01*
X31519762Y22526667D01*
X31424524Y22431429D01*
X31234048Y22383810D01*
X30900714Y22383810D01*
X30710238Y22431429D01*
X30615000Y22526667D01*
X30567381Y22621905D01*
X31519762Y23431429D02*
X31567381Y23574286D01*
X31567381Y23812382D01*
X31519762Y23907620D01*
X31472143Y23955239D01*
X31376905Y24002858D01*
X31281667Y24002858D01*
X31186429Y23955239D01*
X31138810Y23907620D01*
X31091190Y23812382D01*
X31043571Y23621905D01*
X30995952Y23526667D01*
X30948333Y23479048D01*
X30853095Y23431429D01*
X30757857Y23431429D01*
X30662619Y23479048D01*
X30615000Y23526667D01*
X30567381Y23621905D01*
X30567381Y23860001D01*
X30615000Y24002858D01*
X31567381Y24431429D02*
X30567381Y24431429D01*
X39187381Y21288572D02*
X38187381Y21288572D01*
X38901667Y21621906D01*
X38187381Y21955239D01*
X39187381Y21955239D01*
X39187381Y22431429D02*
X38187381Y22431429D01*
X39139762Y22860000D02*
X39187381Y23002857D01*
X39187381Y23240953D01*
X39139762Y23336191D01*
X39092143Y23383810D01*
X38996905Y23431429D01*
X38901667Y23431429D01*
X38806429Y23383810D01*
X38758810Y23336191D01*
X38711190Y23240953D01*
X38663571Y23050476D01*
X38615952Y22955238D01*
X38568333Y22907619D01*
X38473095Y22860000D01*
X38377857Y22860000D01*
X38282619Y22907619D01*
X38235000Y22955238D01*
X38187381Y23050476D01*
X38187381Y23288572D01*
X38235000Y23431429D01*
X38187381Y24050476D02*
X38187381Y24240953D01*
X38235000Y24336191D01*
X38330238Y24431429D01*
X38520714Y24479048D01*
X38854048Y24479048D01*
X39044524Y24431429D01*
X39139762Y24336191D01*
X39187381Y24240953D01*
X39187381Y24050476D01*
X39139762Y23955238D01*
X39044524Y23860000D01*
X38854048Y23812381D01*
X38520714Y23812381D01*
X38330238Y23860000D01*
X38235000Y23955238D01*
X38187381Y24050476D01*
D12*
X21777857Y35310000D02*
X22492143Y35310000D01*
X21635000Y34881429D02*
X22135000Y36381429D01*
X22635000Y34881429D01*
X23849286Y34881429D02*
X23135000Y34881429D01*
X23135000Y36381429D01*
X25063572Y34881429D02*
X24349286Y34881429D01*
X24349286Y36381429D01*
X26706429Y34881429D02*
X26706429Y36381429D01*
X28492143Y36452857D02*
X27206429Y34524286D01*
X29277858Y36381429D02*
X29563572Y36381429D01*
X29706430Y36310000D01*
X29849287Y36167143D01*
X29920715Y35881429D01*
X29920715Y35381429D01*
X29849287Y35095714D01*
X29706430Y34952857D01*
X29563572Y34881429D01*
X29277858Y34881429D01*
X29135001Y34952857D01*
X28992144Y35095714D01*
X28920715Y35381429D01*
X28920715Y35881429D01*
X28992144Y36167143D01*
X29135001Y36310000D01*
X29277858Y36381429D01*
X31706430Y34881429D02*
X31706430Y36381429D01*
X32277858Y36381429D01*
X32420716Y36310000D01*
X32492144Y36238571D01*
X32563573Y36095714D01*
X32563573Y35881429D01*
X32492144Y35738571D01*
X32420716Y35667143D01*
X32277858Y35595714D01*
X31706430Y35595714D01*
X33206430Y34881429D02*
X33206430Y36381429D01*
X33920716Y34881429D02*
X33920716Y36381429D01*
X34777859Y34881429D01*
X34777859Y36381429D01*
X35420716Y34952857D02*
X35635002Y34881429D01*
X35992145Y34881429D01*
X36135002Y34952857D01*
X36206431Y35024286D01*
X36277859Y35167143D01*
X36277859Y35310000D01*
X36206431Y35452857D01*
X36135002Y35524286D01*
X35992145Y35595714D01*
X35706431Y35667143D01*
X35563573Y35738571D01*
X35492145Y35810000D01*
X35420716Y35952857D01*
X35420716Y36095714D01*
X35492145Y36238571D01*
X35563573Y36310000D01*
X35706431Y36381429D01*
X36063573Y36381429D01*
X36277859Y36310000D01*
X37920716Y36381429D02*
X38849287Y36381429D01*
X38349287Y35810000D01*
X38563573Y35810000D01*
X38706430Y35738571D01*
X38777859Y35667143D01*
X38849287Y35524286D01*
X38849287Y35167143D01*
X38777859Y35024286D01*
X38706430Y34952857D01*
X38563573Y34881429D01*
X38135001Y34881429D01*
X37992144Y34952857D01*
X37920716Y35024286D01*
X39492144Y35024286D02*
X39563572Y34952857D01*
X39492144Y34881429D01*
X39420715Y34952857D01*
X39492144Y35024286D01*
X39492144Y34881429D01*
X40063573Y36381429D02*
X40992144Y36381429D01*
X40492144Y35810000D01*
X40706430Y35810000D01*
X40849287Y35738571D01*
X40920716Y35667143D01*
X40992144Y35524286D01*
X40992144Y35167143D01*
X40920716Y35024286D01*
X40849287Y34952857D01*
X40706430Y34881429D01*
X40277858Y34881429D01*
X40135001Y34952857D01*
X40063573Y35024286D01*
X41420715Y36381429D02*
X41920715Y34881429D01*
X42420715Y36381429D01*
X42920715Y35024286D02*
X42992143Y34952857D01*
X42920715Y34881429D01*
X42849286Y34952857D01*
X42920715Y35024286D01*
X42920715Y34881429D01*
X42920715Y35452857D02*
X42849286Y36310000D01*
X42920715Y36381429D01*
X42992143Y36310000D01*
X42920715Y35452857D01*
X42920715Y36381429D01*
D11*
X73787143Y40187619D02*
X73453809Y40663810D01*
X73215714Y40187619D02*
X73215714Y41187619D01*
X73596667Y41187619D01*
X73691905Y41140000D01*
X73739524Y41092381D01*
X73787143Y40997143D01*
X73787143Y40854286D01*
X73739524Y40759048D01*
X73691905Y40711429D01*
X73596667Y40663810D01*
X73215714Y40663810D01*
X74787143Y40282857D02*
X74739524Y40235238D01*
X74596667Y40187619D01*
X74501429Y40187619D01*
X74358571Y40235238D01*
X74263333Y40330476D01*
X74215714Y40425714D01*
X74168095Y40616190D01*
X74168095Y40759048D01*
X74215714Y40949524D01*
X74263333Y41044762D01*
X74358571Y41140000D01*
X74501429Y41187619D01*
X74596667Y41187619D01*
X74739524Y41140000D01*
X74787143Y41092381D01*
X75739524Y40187619D02*
X75168095Y40187619D01*
X75453809Y40187619D02*
X75453809Y41187619D01*
X75358571Y41044762D01*
X75263333Y40949524D01*
X75168095Y40901905D01*
X76120476Y41092381D02*
X76168095Y41140000D01*
X76263333Y41187619D01*
X76501429Y41187619D01*
X76596667Y41140000D01*
X76644286Y41092381D01*
X76691905Y40997143D01*
X76691905Y40901905D01*
X76644286Y40759048D01*
X76072857Y40187619D01*
X76691905Y40187619D01*
X73787143Y37647619D02*
X73453809Y38123810D01*
X73215714Y37647619D02*
X73215714Y38647619D01*
X73596667Y38647619D01*
X73691905Y38600000D01*
X73739524Y38552381D01*
X73787143Y38457143D01*
X73787143Y38314286D01*
X73739524Y38219048D01*
X73691905Y38171429D01*
X73596667Y38123810D01*
X73215714Y38123810D01*
X74787143Y37742857D02*
X74739524Y37695238D01*
X74596667Y37647619D01*
X74501429Y37647619D01*
X74358571Y37695238D01*
X74263333Y37790476D01*
X74215714Y37885714D01*
X74168095Y38076190D01*
X74168095Y38219048D01*
X74215714Y38409524D01*
X74263333Y38504762D01*
X74358571Y38600000D01*
X74501429Y38647619D01*
X74596667Y38647619D01*
X74739524Y38600000D01*
X74787143Y38552381D01*
X75739524Y37647619D02*
X75168095Y37647619D01*
X75453809Y37647619D02*
X75453809Y38647619D01*
X75358571Y38504762D01*
X75263333Y38409524D01*
X75168095Y38361905D01*
X76691905Y37647619D02*
X76120476Y37647619D01*
X76406190Y37647619D02*
X76406190Y38647619D01*
X76310952Y38504762D01*
X76215714Y38409524D01*
X76120476Y38361905D01*
X73787143Y35107619D02*
X73453809Y35583810D01*
X73215714Y35107619D02*
X73215714Y36107619D01*
X73596667Y36107619D01*
X73691905Y36060000D01*
X73739524Y36012381D01*
X73787143Y35917143D01*
X73787143Y35774286D01*
X73739524Y35679048D01*
X73691905Y35631429D01*
X73596667Y35583810D01*
X73215714Y35583810D01*
X74787143Y35202857D02*
X74739524Y35155238D01*
X74596667Y35107619D01*
X74501429Y35107619D01*
X74358571Y35155238D01*
X74263333Y35250476D01*
X74215714Y35345714D01*
X74168095Y35536190D01*
X74168095Y35679048D01*
X74215714Y35869524D01*
X74263333Y35964762D01*
X74358571Y36060000D01*
X74501429Y36107619D01*
X74596667Y36107619D01*
X74739524Y36060000D01*
X74787143Y36012381D01*
X75739524Y35107619D02*
X75168095Y35107619D01*
X75453809Y35107619D02*
X75453809Y36107619D01*
X75358571Y35964762D01*
X75263333Y35869524D01*
X75168095Y35821905D01*
X76358571Y36107619D02*
X76453810Y36107619D01*
X76549048Y36060000D01*
X76596667Y36012381D01*
X76644286Y35917143D01*
X76691905Y35726667D01*
X76691905Y35488571D01*
X76644286Y35298095D01*
X76596667Y35202857D01*
X76549048Y35155238D01*
X76453810Y35107619D01*
X76358571Y35107619D01*
X76263333Y35155238D01*
X76215714Y35202857D01*
X76168095Y35298095D01*
X76120476Y35488571D01*
X76120476Y35726667D01*
X76168095Y35917143D01*
X76215714Y36012381D01*
X76263333Y36060000D01*
X76358571Y36107619D01*
X73882381Y32567619D02*
X73549047Y33043810D01*
X73310952Y32567619D02*
X73310952Y33567619D01*
X73691905Y33567619D01*
X73787143Y33520000D01*
X73834762Y33472381D01*
X73882381Y33377143D01*
X73882381Y33234286D01*
X73834762Y33139048D01*
X73787143Y33091429D01*
X73691905Y33043810D01*
X73310952Y33043810D01*
X74882381Y32662857D02*
X74834762Y32615238D01*
X74691905Y32567619D01*
X74596667Y32567619D01*
X74453809Y32615238D01*
X74358571Y32710476D01*
X74310952Y32805714D01*
X74263333Y32996190D01*
X74263333Y33139048D01*
X74310952Y33329524D01*
X74358571Y33424762D01*
X74453809Y33520000D01*
X74596667Y33567619D01*
X74691905Y33567619D01*
X74834762Y33520000D01*
X74882381Y33472381D01*
X76120476Y32567619D02*
X76310952Y32567619D01*
X76406191Y32615238D01*
X76453810Y32662857D01*
X76549048Y32805714D01*
X76596667Y32996190D01*
X76596667Y33377143D01*
X76549048Y33472381D01*
X76501429Y33520000D01*
X76406191Y33567619D01*
X76215714Y33567619D01*
X76120476Y33520000D01*
X76072857Y33472381D01*
X76025238Y33377143D01*
X76025238Y33139048D01*
X76072857Y33043810D01*
X76120476Y32996190D01*
X76215714Y32948571D01*
X76406191Y32948571D01*
X76501429Y32996190D01*
X76549048Y33043810D01*
X76596667Y33139048D01*
X73882381Y30027619D02*
X73549047Y30503810D01*
X73310952Y30027619D02*
X73310952Y31027619D01*
X73691905Y31027619D01*
X73787143Y30980000D01*
X73834762Y30932381D01*
X73882381Y30837143D01*
X73882381Y30694286D01*
X73834762Y30599048D01*
X73787143Y30551429D01*
X73691905Y30503810D01*
X73310952Y30503810D01*
X74882381Y30122857D02*
X74834762Y30075238D01*
X74691905Y30027619D01*
X74596667Y30027619D01*
X74453809Y30075238D01*
X74358571Y30170476D01*
X74310952Y30265714D01*
X74263333Y30456190D01*
X74263333Y30599048D01*
X74310952Y30789524D01*
X74358571Y30884762D01*
X74453809Y30980000D01*
X74596667Y31027619D01*
X74691905Y31027619D01*
X74834762Y30980000D01*
X74882381Y30932381D01*
X76215714Y30599048D02*
X76120476Y30646667D01*
X76072857Y30694286D01*
X76025238Y30789524D01*
X76025238Y30837143D01*
X76072857Y30932381D01*
X76120476Y30980000D01*
X76215714Y31027619D01*
X76406191Y31027619D01*
X76501429Y30980000D01*
X76549048Y30932381D01*
X76596667Y30837143D01*
X76596667Y30789524D01*
X76549048Y30694286D01*
X76501429Y30646667D01*
X76406191Y30599048D01*
X76215714Y30599048D01*
X76120476Y30551429D01*
X76072857Y30503810D01*
X76025238Y30408571D01*
X76025238Y30218095D01*
X76072857Y30122857D01*
X76120476Y30075238D01*
X76215714Y30027619D01*
X76406191Y30027619D01*
X76501429Y30075238D01*
X76549048Y30122857D01*
X76596667Y30218095D01*
X76596667Y30408571D01*
X76549048Y30503810D01*
X76501429Y30551429D01*
X76406191Y30599048D01*
X73882381Y27487619D02*
X73549047Y27963810D01*
X73310952Y27487619D02*
X73310952Y28487619D01*
X73691905Y28487619D01*
X73787143Y28440000D01*
X73834762Y28392381D01*
X73882381Y28297143D01*
X73882381Y28154286D01*
X73834762Y28059048D01*
X73787143Y28011429D01*
X73691905Y27963810D01*
X73310952Y27963810D01*
X74882381Y27582857D02*
X74834762Y27535238D01*
X74691905Y27487619D01*
X74596667Y27487619D01*
X74453809Y27535238D01*
X74358571Y27630476D01*
X74310952Y27725714D01*
X74263333Y27916190D01*
X74263333Y28059048D01*
X74310952Y28249524D01*
X74358571Y28344762D01*
X74453809Y28440000D01*
X74596667Y28487619D01*
X74691905Y28487619D01*
X74834762Y28440000D01*
X74882381Y28392381D01*
X75977619Y28487619D02*
X76644286Y28487619D01*
X76215714Y27487619D01*
X73882381Y24947619D02*
X73549047Y25423810D01*
X73310952Y24947619D02*
X73310952Y25947619D01*
X73691905Y25947619D01*
X73787143Y25900000D01*
X73834762Y25852381D01*
X73882381Y25757143D01*
X73882381Y25614286D01*
X73834762Y25519048D01*
X73787143Y25471429D01*
X73691905Y25423810D01*
X73310952Y25423810D01*
X74882381Y25042857D02*
X74834762Y24995238D01*
X74691905Y24947619D01*
X74596667Y24947619D01*
X74453809Y24995238D01*
X74358571Y25090476D01*
X74310952Y25185714D01*
X74263333Y25376190D01*
X74263333Y25519048D01*
X74310952Y25709524D01*
X74358571Y25804762D01*
X74453809Y25900000D01*
X74596667Y25947619D01*
X74691905Y25947619D01*
X74834762Y25900000D01*
X74882381Y25852381D01*
X76501429Y25947619D02*
X76310952Y25947619D01*
X76215714Y25900000D01*
X76168095Y25852381D01*
X76072857Y25709524D01*
X76025238Y25519048D01*
X76025238Y25138095D01*
X76072857Y25042857D01*
X76120476Y24995238D01*
X76215714Y24947619D01*
X76406191Y24947619D01*
X76501429Y24995238D01*
X76549048Y25042857D01*
X76596667Y25138095D01*
X76596667Y25376190D01*
X76549048Y25471429D01*
X76501429Y25519048D01*
X76406191Y25566667D01*
X76215714Y25566667D01*
X76120476Y25519048D01*
X76072857Y25471429D01*
X76025238Y25376190D01*
X73882381Y22407619D02*
X73549047Y22883810D01*
X73310952Y22407619D02*
X73310952Y23407619D01*
X73691905Y23407619D01*
X73787143Y23360000D01*
X73834762Y23312381D01*
X73882381Y23217143D01*
X73882381Y23074286D01*
X73834762Y22979048D01*
X73787143Y22931429D01*
X73691905Y22883810D01*
X73310952Y22883810D01*
X74882381Y22502857D02*
X74834762Y22455238D01*
X74691905Y22407619D01*
X74596667Y22407619D01*
X74453809Y22455238D01*
X74358571Y22550476D01*
X74310952Y22645714D01*
X74263333Y22836190D01*
X74263333Y22979048D01*
X74310952Y23169524D01*
X74358571Y23264762D01*
X74453809Y23360000D01*
X74596667Y23407619D01*
X74691905Y23407619D01*
X74834762Y23360000D01*
X74882381Y23312381D01*
X76549048Y23407619D02*
X76072857Y23407619D01*
X76025238Y22931429D01*
X76072857Y22979048D01*
X76168095Y23026667D01*
X76406191Y23026667D01*
X76501429Y22979048D01*
X76549048Y22931429D01*
X76596667Y22836190D01*
X76596667Y22598095D01*
X76549048Y22502857D01*
X76501429Y22455238D01*
X76406191Y22407619D01*
X76168095Y22407619D01*
X76072857Y22455238D01*
X76025238Y22502857D01*
X73882381Y19867619D02*
X73549047Y20343810D01*
X73310952Y19867619D02*
X73310952Y20867619D01*
X73691905Y20867619D01*
X73787143Y20820000D01*
X73834762Y20772381D01*
X73882381Y20677143D01*
X73882381Y20534286D01*
X73834762Y20439048D01*
X73787143Y20391429D01*
X73691905Y20343810D01*
X73310952Y20343810D01*
X74882381Y19962857D02*
X74834762Y19915238D01*
X74691905Y19867619D01*
X74596667Y19867619D01*
X74453809Y19915238D01*
X74358571Y20010476D01*
X74310952Y20105714D01*
X74263333Y20296190D01*
X74263333Y20439048D01*
X74310952Y20629524D01*
X74358571Y20724762D01*
X74453809Y20820000D01*
X74596667Y20867619D01*
X74691905Y20867619D01*
X74834762Y20820000D01*
X74882381Y20772381D01*
X76501429Y20534286D02*
X76501429Y19867619D01*
X76263333Y20915238D02*
X76025238Y20200952D01*
X76644286Y20200952D01*
X73882381Y17327619D02*
X73549047Y17803810D01*
X73310952Y17327619D02*
X73310952Y18327619D01*
X73691905Y18327619D01*
X73787143Y18280000D01*
X73834762Y18232381D01*
X73882381Y18137143D01*
X73882381Y17994286D01*
X73834762Y17899048D01*
X73787143Y17851429D01*
X73691905Y17803810D01*
X73310952Y17803810D01*
X74882381Y17422857D02*
X74834762Y17375238D01*
X74691905Y17327619D01*
X74596667Y17327619D01*
X74453809Y17375238D01*
X74358571Y17470476D01*
X74310952Y17565714D01*
X74263333Y17756190D01*
X74263333Y17899048D01*
X74310952Y18089524D01*
X74358571Y18184762D01*
X74453809Y18280000D01*
X74596667Y18327619D01*
X74691905Y18327619D01*
X74834762Y18280000D01*
X74882381Y18232381D01*
X75977619Y18327619D02*
X76596667Y18327619D01*
X76263333Y17946667D01*
X76406191Y17946667D01*
X76501429Y17899048D01*
X76549048Y17851429D01*
X76596667Y17756190D01*
X76596667Y17518095D01*
X76549048Y17422857D01*
X76501429Y17375238D01*
X76406191Y17327619D01*
X76120476Y17327619D01*
X76025238Y17375238D01*
X75977619Y17422857D01*
X73882381Y15587619D02*
X73549047Y16063810D01*
X73310952Y15587619D02*
X73310952Y16587619D01*
X73691905Y16587619D01*
X73787143Y16540000D01*
X73834762Y16492381D01*
X73882381Y16397143D01*
X73882381Y16254286D01*
X73834762Y16159048D01*
X73787143Y16111429D01*
X73691905Y16063810D01*
X73310952Y16063810D01*
X74882381Y15682857D02*
X74834762Y15635238D01*
X74691905Y15587619D01*
X74596667Y15587619D01*
X74453809Y15635238D01*
X74358571Y15730476D01*
X74310952Y15825714D01*
X74263333Y16016190D01*
X74263333Y16159048D01*
X74310952Y16349524D01*
X74358571Y16444762D01*
X74453809Y16540000D01*
X74596667Y16587619D01*
X74691905Y16587619D01*
X74834762Y16540000D01*
X74882381Y16492381D01*
X76025238Y16492381D02*
X76072857Y16540000D01*
X76168095Y16587619D01*
X76406191Y16587619D01*
X76501429Y16540000D01*
X76549048Y16492381D01*
X76596667Y16397143D01*
X76596667Y16301905D01*
X76549048Y16159048D01*
X75977619Y15587619D01*
X76596667Y15587619D01*
X74168096Y14082857D02*
X74120477Y14035238D01*
X73977620Y13987619D01*
X73882382Y13987619D01*
X73739524Y14035238D01*
X73644286Y14130476D01*
X73596667Y14225714D01*
X73549048Y14416190D01*
X73549048Y14559048D01*
X73596667Y14749524D01*
X73644286Y14844762D01*
X73739524Y14940000D01*
X73882382Y14987619D01*
X73977620Y14987619D01*
X74120477Y14940000D01*
X74168096Y14892381D01*
X75168096Y14082857D02*
X75120477Y14035238D01*
X74977620Y13987619D01*
X74882382Y13987619D01*
X74739524Y14035238D01*
X74644286Y14130476D01*
X74596667Y14225714D01*
X74549048Y14416190D01*
X74549048Y14559048D01*
X74596667Y14749524D01*
X74644286Y14844762D01*
X74739524Y14940000D01*
X74882382Y14987619D01*
X74977620Y14987619D01*
X75120477Y14940000D01*
X75168096Y14892381D01*
X75501429Y14987619D02*
X75739524Y13987619D01*
X75930001Y14701905D01*
X76120477Y13987619D01*
X76358572Y14987619D01*
X73834524Y12247619D02*
X73501190Y12723810D01*
X73263095Y12247619D02*
X73263095Y13247619D01*
X73644048Y13247619D01*
X73739286Y13200000D01*
X73786905Y13152381D01*
X73834524Y13057143D01*
X73834524Y12914286D01*
X73786905Y12819048D01*
X73739286Y12771429D01*
X73644048Y12723810D01*
X73263095Y12723810D01*
X74834524Y12342857D02*
X74786905Y12295238D01*
X74644048Y12247619D01*
X74548810Y12247619D01*
X74405952Y12295238D01*
X74310714Y12390476D01*
X74263095Y12485714D01*
X74215476Y12676190D01*
X74215476Y12819048D01*
X74263095Y13009524D01*
X74310714Y13104762D01*
X74405952Y13200000D01*
X74548810Y13247619D01*
X74644048Y13247619D01*
X74786905Y13200000D01*
X74834524Y13152381D01*
X76548810Y12247619D02*
X75977381Y12247619D01*
X76263095Y12247619D02*
X76263095Y13247619D01*
X76167857Y13104762D01*
X76072619Y13009524D01*
X75977381Y12961905D01*
X80899000Y49530000D02*
X81534000Y48895000D01*
X80899000Y49530000D02*
X81534000Y50165000D01*
X82169000Y49530000D02*
X80899000Y49530000D01*
X82169000Y48260000D02*
X82169000Y49530000D01*
X81407096Y47490000D02*
X81311858Y47537619D01*
X81169001Y47537619D01*
X81026143Y47490000D01*
X80930905Y47394762D01*
X80883286Y47299524D01*
X80835667Y47109048D01*
X80835667Y46966190D01*
X80883286Y46775714D01*
X80930905Y46680476D01*
X81026143Y46585238D01*
X81169001Y46537619D01*
X81264239Y46537619D01*
X81407096Y46585238D01*
X81454715Y46632857D01*
X81454715Y46966190D01*
X81264239Y46966190D01*
X81883286Y46537619D02*
X81883286Y47537619D01*
X82454715Y46537619D01*
X82454715Y47537619D01*
X82930905Y46537619D02*
X82930905Y47537619D01*
X83169000Y47537619D01*
X83311858Y47490000D01*
X83407096Y47394762D01*
X83454715Y47299524D01*
X83502334Y47109048D01*
X83502334Y46966190D01*
X83454715Y46775714D01*
X83407096Y46680476D01*
X83311858Y46585238D01*
X83169000Y46537619D01*
X82930905Y46537619D01*
X81454524Y44670619D02*
X81121190Y45146810D01*
X80883095Y44670619D02*
X80883095Y45670619D01*
X81264048Y45670619D01*
X81359286Y45623000D01*
X81406905Y45575381D01*
X81454524Y45480143D01*
X81454524Y45337286D01*
X81406905Y45242048D01*
X81359286Y45194429D01*
X81264048Y45146810D01*
X80883095Y45146810D01*
X82454524Y44765857D02*
X82406905Y44718238D01*
X82264048Y44670619D01*
X82168810Y44670619D01*
X82025952Y44718238D01*
X81930714Y44813476D01*
X81883095Y44908714D01*
X81835476Y45099190D01*
X81835476Y45242048D01*
X81883095Y45432524D01*
X81930714Y45527762D01*
X82025952Y45623000D01*
X82168810Y45670619D01*
X82264048Y45670619D01*
X82406905Y45623000D01*
X82454524Y45575381D01*
X82645000Y44575381D02*
X83406905Y44575381D01*
X84073572Y45337286D02*
X84073572Y44670619D01*
X83835476Y45718238D02*
X83597381Y45003952D01*
X84216429Y45003952D01*
X81454524Y43165857D02*
X81406905Y43118238D01*
X81264048Y43070619D01*
X81168810Y43070619D01*
X81025952Y43118238D01*
X80930714Y43213476D01*
X80883095Y43308714D01*
X80835476Y43499190D01*
X80835476Y43642048D01*
X80883095Y43832524D01*
X80930714Y43927762D01*
X81025952Y44023000D01*
X81168810Y44070619D01*
X81264048Y44070619D01*
X81406905Y44023000D01*
X81454524Y43975381D01*
X81787857Y44070619D02*
X82025952Y43070619D01*
X82216429Y43784905D01*
X82406905Y43070619D01*
X82645000Y44070619D01*
X11477524Y45178619D02*
X11144190Y45654810D01*
X10906095Y45178619D02*
X10906095Y46178619D01*
X11287048Y46178619D01*
X11382286Y46131000D01*
X11429905Y46083381D01*
X11477524Y45988143D01*
X11477524Y45845286D01*
X11429905Y45750048D01*
X11382286Y45702429D01*
X11287048Y45654810D01*
X10906095Y45654810D01*
X12477524Y45273857D02*
X12429905Y45226238D01*
X12287048Y45178619D01*
X12191810Y45178619D01*
X12048952Y45226238D01*
X11953714Y45321476D01*
X11906095Y45416714D01*
X11858476Y45607190D01*
X11858476Y45750048D01*
X11906095Y45940524D01*
X11953714Y46035762D01*
X12048952Y46131000D01*
X12191810Y46178619D01*
X12287048Y46178619D01*
X12429905Y46131000D01*
X12477524Y46083381D01*
X12668000Y45083381D02*
X13429905Y45083381D01*
X14191810Y45178619D02*
X13620381Y45178619D01*
X13906095Y45178619D02*
X13906095Y46178619D01*
X13810857Y46035762D01*
X13715619Y45940524D01*
X13620381Y45892905D01*
X11477524Y43673857D02*
X11429905Y43626238D01*
X11287048Y43578619D01*
X11191810Y43578619D01*
X11048952Y43626238D01*
X10953714Y43721476D01*
X10906095Y43816714D01*
X10858476Y44007190D01*
X10858476Y44150048D01*
X10906095Y44340524D01*
X10953714Y44435762D01*
X11048952Y44531000D01*
X11191810Y44578619D01*
X11287048Y44578619D01*
X11429905Y44531000D01*
X11477524Y44483381D01*
X12477524Y43673857D02*
X12429905Y43626238D01*
X12287048Y43578619D01*
X12191810Y43578619D01*
X12048952Y43626238D01*
X11953714Y43721476D01*
X11906095Y43816714D01*
X11858476Y44007190D01*
X11858476Y44150048D01*
X11906095Y44340524D01*
X11953714Y44435762D01*
X12048952Y44531000D01*
X12191810Y44578619D01*
X12287048Y44578619D01*
X12429905Y44531000D01*
X12477524Y44483381D01*
X12810857Y44578619D02*
X13048952Y43578619D01*
X13239429Y44292905D01*
X13429905Y43578619D01*
X13668000Y44578619D01*
X11429905Y50665000D02*
X11334667Y50712619D01*
X11191810Y50712619D01*
X11048952Y50665000D01*
X10953714Y50569762D01*
X10906095Y50474524D01*
X10858476Y50284048D01*
X10858476Y50141190D01*
X10906095Y49950714D01*
X10953714Y49855476D01*
X11048952Y49760238D01*
X11191810Y49712619D01*
X11287048Y49712619D01*
X11429905Y49760238D01*
X11477524Y49807857D01*
X11477524Y50141190D01*
X11287048Y50141190D01*
X11906095Y49712619D02*
X11906095Y50712619D01*
X12477524Y49712619D01*
X12477524Y50712619D01*
X12953714Y49712619D02*
X12953714Y50712619D01*
X13191809Y50712619D01*
X13334667Y50665000D01*
X13429905Y50569762D01*
X13477524Y50474524D01*
X13525143Y50284048D01*
X13525143Y50141190D01*
X13477524Y49950714D01*
X13429905Y49855476D01*
X13334667Y49760238D01*
X13191809Y49712619D01*
X12953714Y49712619D01*
X5762524Y12666619D02*
X5429190Y13142810D01*
X5191095Y12666619D02*
X5191095Y13666619D01*
X5572048Y13666619D01*
X5667286Y13619000D01*
X5714905Y13571381D01*
X5762524Y13476143D01*
X5762524Y13333286D01*
X5714905Y13238048D01*
X5667286Y13190429D01*
X5572048Y13142810D01*
X5191095Y13142810D01*
X6762524Y12761857D02*
X6714905Y12714238D01*
X6572048Y12666619D01*
X6476810Y12666619D01*
X6333952Y12714238D01*
X6238714Y12809476D01*
X6191095Y12904714D01*
X6143476Y13095190D01*
X6143476Y13238048D01*
X6191095Y13428524D01*
X6238714Y13523762D01*
X6333952Y13619000D01*
X6476810Y13666619D01*
X6572048Y13666619D01*
X6714905Y13619000D01*
X6762524Y13571381D01*
X6953000Y12571381D02*
X7714905Y12571381D01*
X7857762Y13666619D02*
X8476810Y13666619D01*
X8143476Y13285667D01*
X8286334Y13285667D01*
X8381572Y13238048D01*
X8429191Y13190429D01*
X8476810Y13095190D01*
X8476810Y12857095D01*
X8429191Y12761857D01*
X8381572Y12714238D01*
X8286334Y12666619D01*
X8000619Y12666619D01*
X7905381Y12714238D01*
X7857762Y12761857D01*
X5762524Y11161857D02*
X5714905Y11114238D01*
X5572048Y11066619D01*
X5476810Y11066619D01*
X5333952Y11114238D01*
X5238714Y11209476D01*
X5191095Y11304714D01*
X5143476Y11495190D01*
X5143476Y11638048D01*
X5191095Y11828524D01*
X5238714Y11923762D01*
X5333952Y12019000D01*
X5476810Y12066619D01*
X5572048Y12066619D01*
X5714905Y12019000D01*
X5762524Y11971381D01*
X6095857Y12066619D02*
X6333952Y11066619D01*
X6524429Y11780905D01*
X6714905Y11066619D01*
X6953000Y12066619D01*
X5841905Y18153000D02*
X5746667Y18200619D01*
X5603810Y18200619D01*
X5460952Y18153000D01*
X5365714Y18057762D01*
X5318095Y17962524D01*
X5270476Y17772048D01*
X5270476Y17629190D01*
X5318095Y17438714D01*
X5365714Y17343476D01*
X5460952Y17248238D01*
X5603810Y17200619D01*
X5699048Y17200619D01*
X5841905Y17248238D01*
X5889524Y17295857D01*
X5889524Y17629190D01*
X5699048Y17629190D01*
X6318095Y17200619D02*
X6318095Y18200619D01*
X6889524Y17200619D01*
X6889524Y18200619D01*
X7365714Y17200619D02*
X7365714Y18200619D01*
X7603809Y18200619D01*
X7746667Y18153000D01*
X7841905Y18057762D01*
X7889524Y17962524D01*
X7937143Y17772048D01*
X7937143Y17629190D01*
X7889524Y17438714D01*
X7841905Y17343476D01*
X7746667Y17248238D01*
X7603809Y17200619D01*
X7365714Y17200619D01*
X12823286Y41509143D02*
X12323286Y41509143D01*
X12323286Y40723429D02*
X12323286Y42223429D01*
X13037572Y42223429D01*
X13609000Y40723429D02*
X13609000Y41723429D01*
X13609000Y41437714D02*
X13680428Y41580571D01*
X13751857Y41652000D01*
X13894714Y41723429D01*
X14037571Y41723429D01*
X14751857Y40723429D02*
X14608999Y40794857D01*
X14537571Y40866286D01*
X14466142Y41009143D01*
X14466142Y41437714D01*
X14537571Y41580571D01*
X14608999Y41652000D01*
X14751857Y41723429D01*
X14966142Y41723429D01*
X15108999Y41652000D01*
X15180428Y41580571D01*
X15251857Y41437714D01*
X15251857Y41009143D01*
X15180428Y40866286D01*
X15108999Y40794857D01*
X14966142Y40723429D01*
X14751857Y40723429D01*
X15894714Y41723429D02*
X15894714Y40723429D01*
X15894714Y41580571D02*
X15966142Y41652000D01*
X16109000Y41723429D01*
X16323285Y41723429D01*
X16466142Y41652000D01*
X16537571Y41509143D01*
X16537571Y40723429D01*
X17037571Y41723429D02*
X17609000Y41723429D01*
X17251857Y42223429D02*
X17251857Y40937714D01*
X17323285Y40794857D01*
X17466143Y40723429D01*
X17609000Y40723429D01*
X7366000Y41402000D02*
X8636000Y42672000D01*
X7366000Y41402000D02*
X8636000Y40132000D01*
X11811000Y41402000D02*
X7366000Y41402000D01*
X38806429Y12208095D02*
X38806429Y12970000D01*
X39187381Y12589048D02*
X38425476Y12589048D01*
X38187381Y13350952D02*
X38187381Y13970000D01*
X38568333Y13636666D01*
X38568333Y13779524D01*
X38615952Y13874762D01*
X38663571Y13922381D01*
X38758810Y13970000D01*
X38996905Y13970000D01*
X39092143Y13922381D01*
X39139762Y13874762D01*
X39187381Y13779524D01*
X39187381Y13493809D01*
X39139762Y13398571D01*
X39092143Y13350952D01*
X38187381Y14255714D02*
X39187381Y14589047D01*
X38187381Y14922381D01*
X38187381Y15160476D02*
X38187381Y15779524D01*
X38568333Y15446190D01*
X38568333Y15589048D01*
X38615952Y15684286D01*
X38663571Y15731905D01*
X38758810Y15779524D01*
X38996905Y15779524D01*
X39092143Y15731905D01*
X39139762Y15684286D01*
X39187381Y15589048D01*
X39187381Y15303333D01*
X39139762Y15208095D01*
X39092143Y15160476D01*
D12*
X44353393Y47097143D02*
X44558750Y47025714D01*
X44621250Y46954286D01*
X44674822Y46811429D01*
X44648036Y46597143D01*
X44558750Y46454286D01*
X44478393Y46382857D01*
X44326607Y46311429D01*
X43755179Y46311429D01*
X43942679Y47811429D01*
X44442679Y47811429D01*
X44576607Y47740000D01*
X44639107Y47668571D01*
X44692678Y47525714D01*
X44674821Y47382857D01*
X44585536Y47240000D01*
X44505178Y47168571D01*
X44353393Y47097143D01*
X43853393Y47097143D01*
X45853393Y47097143D02*
X46058750Y47025714D01*
X46121250Y46954286D01*
X46174822Y46811429D01*
X46148036Y46597143D01*
X46058750Y46454286D01*
X45978393Y46382857D01*
X45826607Y46311429D01*
X45255179Y46311429D01*
X45442679Y47811429D01*
X45942679Y47811429D01*
X46076607Y47740000D01*
X46139107Y47668571D01*
X46192678Y47525714D01*
X46174821Y47382857D01*
X46085536Y47240000D01*
X46005178Y47168571D01*
X45853393Y47097143D01*
X45353393Y47097143D01*
X47353393Y47097143D02*
X47558750Y47025714D01*
X47621250Y46954286D01*
X47674822Y46811429D01*
X47648036Y46597143D01*
X47558750Y46454286D01*
X47478393Y46382857D01*
X47326607Y46311429D01*
X46755179Y46311429D01*
X46942679Y47811429D01*
X47442679Y47811429D01*
X47576607Y47740000D01*
X47639107Y47668571D01*
X47692678Y47525714D01*
X47674821Y47382857D01*
X47585536Y47240000D01*
X47505178Y47168571D01*
X47353393Y47097143D01*
X46853393Y47097143D01*
X48255179Y46311429D02*
X48442679Y47811429D01*
X48808750Y46740000D01*
X49442679Y47811429D01*
X49255179Y46311429D01*
X49969465Y46311429D02*
X50156965Y47811429D01*
X50683751Y46311429D02*
X50871251Y47811429D01*
X51540894Y46311429D01*
X51728394Y47811429D01*
X52255180Y46311429D02*
X52442680Y47811429D01*
X54969466Y46311429D02*
X54558751Y47025714D01*
X54112323Y46311429D02*
X54299823Y47811429D01*
X54871251Y47811429D01*
X55005180Y47740000D01*
X55067679Y47668571D01*
X55121251Y47525714D01*
X55094466Y47311429D01*
X55005179Y47168571D01*
X54924823Y47097143D01*
X54773036Y47025714D01*
X54201608Y47025714D01*
X56192679Y46382857D02*
X56040894Y46311429D01*
X55755180Y46311429D01*
X55621251Y46382857D01*
X55567679Y46525714D01*
X55639108Y47097143D01*
X55728394Y47240000D01*
X55880180Y47311429D01*
X56165894Y47311429D01*
X56299822Y47240000D01*
X56353394Y47097143D01*
X56335537Y46954286D01*
X55603394Y46811429D01*
X56880180Y47311429D02*
X57112323Y46311429D01*
X57594465Y47311429D01*
X58058751Y46454286D02*
X58121250Y46382857D01*
X58040894Y46311429D01*
X57978393Y46382857D01*
X58058751Y46454286D01*
X58040894Y46311429D01*
X60683751Y46311429D02*
X59826608Y46311429D01*
X60255180Y46311429D02*
X60442680Y47811429D01*
X60273037Y47597143D01*
X60112322Y47454286D01*
X59960536Y47382857D01*
X61344465Y46454286D02*
X61406964Y46382857D01*
X61326608Y46311429D01*
X61264107Y46382857D01*
X61344465Y46454286D01*
X61326608Y46311429D01*
X62139107Y47668571D02*
X62219465Y47740000D01*
X62371251Y47811429D01*
X62728394Y47811429D01*
X62862322Y47740000D01*
X62924822Y47668571D01*
X62978393Y47525714D01*
X62960536Y47382857D01*
X62862322Y47168571D01*
X61898037Y46311429D01*
X62826608Y46311429D01*
D11*
X6842762Y4246571D02*
X7604667Y4246571D01*
X7223715Y3865619D02*
X7223715Y4627524D01*
X8557048Y4865619D02*
X8080857Y4865619D01*
X8033238Y4389429D01*
X8080857Y4437048D01*
X8176095Y4484667D01*
X8414191Y4484667D01*
X8509429Y4437048D01*
X8557048Y4389429D01*
X8604667Y4294190D01*
X8604667Y4056095D01*
X8557048Y3960857D01*
X8509429Y3913238D01*
X8414191Y3865619D01*
X8176095Y3865619D01*
X8080857Y3913238D01*
X8033238Y3960857D01*
X8890381Y4865619D02*
X9223714Y3865619D01*
X9557048Y4865619D01*
X10652286Y3865619D02*
X10652286Y4865619D01*
X11128476Y3865619D02*
X11128476Y4865619D01*
X11699905Y3865619D01*
X11699905Y4865619D01*
X9652286Y2278000D02*
X9557048Y2325619D01*
X9414191Y2325619D01*
X9271333Y2278000D01*
X9176095Y2182762D01*
X9128476Y2087524D01*
X9080857Y1897048D01*
X9080857Y1754190D01*
X9128476Y1563714D01*
X9176095Y1468476D01*
X9271333Y1373238D01*
X9414191Y1325619D01*
X9509429Y1325619D01*
X9652286Y1373238D01*
X9699905Y1420857D01*
X9699905Y1754190D01*
X9509429Y1754190D01*
X10128476Y1325619D02*
X10128476Y2325619D01*
X10699905Y1325619D01*
X10699905Y2325619D01*
X11176095Y1325619D02*
X11176095Y2325619D01*
X11414190Y2325619D01*
X11557048Y2278000D01*
X11652286Y2182762D01*
X11699905Y2087524D01*
X11747524Y1897048D01*
X11747524Y1754190D01*
X11699905Y1563714D01*
X11652286Y1468476D01*
X11557048Y1373238D01*
X11414190Y1325619D01*
X11176095Y1325619D01*
X14374762Y12255476D02*
X14422381Y12398333D01*
X14422381Y12636429D01*
X14374762Y12731667D01*
X14327143Y12779286D01*
X14231905Y12826905D01*
X14136667Y12826905D01*
X14041429Y12779286D01*
X13993810Y12731667D01*
X13946190Y12636429D01*
X13898571Y12445952D01*
X13850952Y12350714D01*
X13803333Y12303095D01*
X13708095Y12255476D01*
X13612857Y12255476D01*
X13517619Y12303095D01*
X13470000Y12350714D01*
X13422381Y12445952D01*
X13422381Y12684048D01*
X13470000Y12826905D01*
X14422381Y13255476D02*
X13422381Y13255476D01*
X13422381Y13493571D01*
X13470000Y13636429D01*
X13565238Y13731667D01*
X13660476Y13779286D01*
X13850952Y13826905D01*
X13993810Y13826905D01*
X14184286Y13779286D01*
X14279524Y13731667D01*
X14374762Y13636429D01*
X14422381Y13493571D01*
X14422381Y13255476D01*
X14136667Y14207857D02*
X14136667Y14684048D01*
X14422381Y14112619D02*
X13422381Y14445952D01*
X14422381Y14779286D01*
X16914762Y12255476D02*
X16962381Y12398333D01*
X16962381Y12636429D01*
X16914762Y12731667D01*
X16867143Y12779286D01*
X16771905Y12826905D01*
X16676667Y12826905D01*
X16581429Y12779286D01*
X16533810Y12731667D01*
X16486190Y12636429D01*
X16438571Y12445952D01*
X16390952Y12350714D01*
X16343333Y12303095D01*
X16248095Y12255476D01*
X16152857Y12255476D01*
X16057619Y12303095D01*
X16010000Y12350714D01*
X15962381Y12445952D01*
X15962381Y12684048D01*
X16010000Y12826905D01*
X16867143Y13826905D02*
X16914762Y13779286D01*
X16962381Y13636429D01*
X16962381Y13541191D01*
X16914762Y13398333D01*
X16819524Y13303095D01*
X16724286Y13255476D01*
X16533810Y13207857D01*
X16390952Y13207857D01*
X16200476Y13255476D01*
X16105238Y13303095D01*
X16010000Y13398333D01*
X15962381Y13541191D01*
X15962381Y13636429D01*
X16010000Y13779286D01*
X16057619Y13826905D01*
X16962381Y14731667D02*
X16962381Y14255476D01*
X15962381Y14255476D01*
X18804000Y12953905D02*
X18756381Y12858667D01*
X18756381Y12715810D01*
X18804000Y12572952D01*
X18899238Y12477714D01*
X18994476Y12430095D01*
X19184952Y12382476D01*
X19327810Y12382476D01*
X19518286Y12430095D01*
X19613524Y12477714D01*
X19708762Y12572952D01*
X19756381Y12715810D01*
X19756381Y12811048D01*
X19708762Y12953905D01*
X19661143Y13001524D01*
X19327810Y13001524D01*
X19327810Y12811048D01*
X19756381Y13430095D02*
X18756381Y13430095D01*
X19756381Y14001524D01*
X18756381Y14001524D01*
X19756381Y14477714D02*
X18756381Y14477714D01*
X18756381Y14715809D01*
X18804000Y14858667D01*
X18899238Y14953905D01*
X18994476Y15001524D01*
X19184952Y15049143D01*
X19327810Y15049143D01*
X19518286Y15001524D01*
X19613524Y14953905D01*
X19708762Y14858667D01*
X19756381Y14715809D01*
X19756381Y14477714D01*
X21661429Y12303095D02*
X21661429Y13065000D01*
X22042381Y12684048D02*
X21280476Y12684048D01*
X21042381Y13445952D02*
X21042381Y14065000D01*
X21423333Y13731666D01*
X21423333Y13874524D01*
X21470952Y13969762D01*
X21518571Y14017381D01*
X21613810Y14065000D01*
X21851905Y14065000D01*
X21947143Y14017381D01*
X21994762Y13969762D01*
X22042381Y13874524D01*
X22042381Y13588809D01*
X21994762Y13493571D01*
X21947143Y13445952D01*
X21042381Y14350714D02*
X22042381Y14684047D01*
X21042381Y15017381D01*
X21042381Y15255476D02*
X21042381Y15874524D01*
X21423333Y15541190D01*
X21423333Y15684048D01*
X21470952Y15779286D01*
X21518571Y15826905D01*
X21613810Y15874524D01*
X21851905Y15874524D01*
X21947143Y15826905D01*
X21994762Y15779286D01*
X22042381Y15684048D01*
X22042381Y15398333D01*
X21994762Y15303095D01*
X21947143Y15255476D01*
X24201429Y12303095D02*
X24201429Y13065000D01*
X24582381Y12684048D02*
X23820476Y12684048D01*
X23582381Y14017381D02*
X23582381Y13541190D01*
X24058571Y13493571D01*
X24010952Y13541190D01*
X23963333Y13636428D01*
X23963333Y13874524D01*
X24010952Y13969762D01*
X24058571Y14017381D01*
X24153810Y14065000D01*
X24391905Y14065000D01*
X24487143Y14017381D01*
X24534762Y13969762D01*
X24582381Y13874524D01*
X24582381Y13636428D01*
X24534762Y13541190D01*
X24487143Y13493571D01*
X23582381Y14350714D02*
X24582381Y14684047D01*
X23582381Y15017381D01*
X17851619Y7167619D02*
X17851619Y8167619D01*
X18280190Y8072381D02*
X18327809Y8120000D01*
X18423047Y8167619D01*
X18661143Y8167619D01*
X18756381Y8120000D01*
X18804000Y8072381D01*
X18851619Y7977143D01*
X18851619Y7881905D01*
X18804000Y7739048D01*
X18232571Y7167619D01*
X18851619Y7167619D01*
X19851619Y7262857D02*
X19804000Y7215238D01*
X19661143Y7167619D01*
X19565905Y7167619D01*
X19423047Y7215238D01*
X19327809Y7310476D01*
X19280190Y7405714D01*
X19232571Y7596190D01*
X19232571Y7739048D01*
X19280190Y7929524D01*
X19327809Y8024762D01*
X19423047Y8120000D01*
X19565905Y8167619D01*
X19661143Y8167619D01*
X19804000Y8120000D01*
X19851619Y8072381D01*
X20232571Y8072381D02*
X20280190Y8120000D01*
X20375428Y8167619D01*
X20613524Y8167619D01*
X20708762Y8120000D01*
X20756381Y8072381D01*
X20804000Y7977143D01*
X20804000Y7881905D01*
X20756381Y7739048D01*
X20184952Y7167619D01*
X20804000Y7167619D01*
X31948381Y41021143D02*
X31472190Y40687809D01*
X31948381Y40449714D02*
X30948381Y40449714D01*
X30948381Y40830667D01*
X30996000Y40925905D01*
X31043619Y40973524D01*
X31138857Y41021143D01*
X31281714Y41021143D01*
X31376952Y40973524D01*
X31424571Y40925905D01*
X31472190Y40830667D01*
X31472190Y40449714D01*
X30948381Y41354476D02*
X31948381Y42021143D01*
X30948381Y42021143D02*
X31948381Y41354476D01*
X33488381Y40544952D02*
X33488381Y41116381D01*
X34488381Y40830666D02*
X33488381Y40830666D01*
X33488381Y41354476D02*
X34488381Y42021143D01*
X33488381Y42021143D02*
X34488381Y41354476D01*
X36647429Y38402095D02*
X36647429Y39164000D01*
X37028381Y38783048D02*
X36266476Y38783048D01*
X36028381Y39544952D02*
X36028381Y40164000D01*
X36409333Y39830666D01*
X36409333Y39973524D01*
X36456952Y40068762D01*
X36504571Y40116381D01*
X36599810Y40164000D01*
X36837905Y40164000D01*
X36933143Y40116381D01*
X36980762Y40068762D01*
X37028381Y39973524D01*
X37028381Y39687809D01*
X36980762Y39592571D01*
X36933143Y39544952D01*
X36028381Y40449714D02*
X37028381Y40783047D01*
X36028381Y41116381D01*
X36028381Y41354476D02*
X36028381Y41973524D01*
X36409333Y41640190D01*
X36409333Y41783048D01*
X36456952Y41878286D01*
X36504571Y41925905D01*
X36599810Y41973524D01*
X36837905Y41973524D01*
X36933143Y41925905D01*
X36980762Y41878286D01*
X37028381Y41783048D01*
X37028381Y41497333D01*
X36980762Y41402095D01*
X36933143Y41354476D01*
X38616000Y39878286D02*
X38568381Y39783048D01*
X38568381Y39640191D01*
X38616000Y39497333D01*
X38711238Y39402095D01*
X38806476Y39354476D01*
X38996952Y39306857D01*
X39139810Y39306857D01*
X39330286Y39354476D01*
X39425524Y39402095D01*
X39520762Y39497333D01*
X39568381Y39640191D01*
X39568381Y39735429D01*
X39520762Y39878286D01*
X39473143Y39925905D01*
X39139810Y39925905D01*
X39139810Y39735429D01*
X39568381Y40354476D02*
X38568381Y40354476D01*
X39568381Y40925905D01*
X38568381Y40925905D01*
X39568381Y41402095D02*
X38568381Y41402095D01*
X38568381Y41640190D01*
X38616000Y41783048D01*
X38711238Y41878286D01*
X38806476Y41925905D01*
X38996952Y41973524D01*
X39139810Y41973524D01*
X39330286Y41925905D01*
X39425524Y41878286D01*
X39520762Y41783048D01*
X39568381Y41640190D01*
X39568381Y41402095D01*
X60706191Y33932857D02*
X60658572Y33885238D01*
X60515715Y33837619D01*
X60420477Y33837619D01*
X60277619Y33885238D01*
X60182381Y33980476D01*
X60134762Y34075714D01*
X60087143Y34266190D01*
X60087143Y34409048D01*
X60134762Y34599524D01*
X60182381Y34694762D01*
X60277619Y34790000D01*
X60420477Y34837619D01*
X60515715Y34837619D01*
X60658572Y34790000D01*
X60706191Y34742381D01*
X61087143Y34123333D02*
X61563334Y34123333D01*
X60991905Y33837619D02*
X61325238Y34837619D01*
X61658572Y33837619D01*
X61991905Y33837619D02*
X61991905Y34837619D01*
X62563334Y33837619D01*
X62563334Y34837619D01*
X62801429Y33742381D02*
X63563334Y33742381D01*
X64372858Y33837619D02*
X64039524Y34313810D01*
X63801429Y33837619D02*
X63801429Y34837619D01*
X64182382Y34837619D01*
X64277620Y34790000D01*
X64325239Y34742381D01*
X64372858Y34647143D01*
X64372858Y34504286D01*
X64325239Y34409048D01*
X64277620Y34361429D01*
X64182382Y34313810D01*
X63801429Y34313810D01*
X26868381Y38687810D02*
X26392190Y38354476D01*
X26868381Y38116381D02*
X25868381Y38116381D01*
X25868381Y38497334D01*
X25916000Y38592572D01*
X25963619Y38640191D01*
X26058857Y38687810D01*
X26201714Y38687810D01*
X26296952Y38640191D01*
X26344571Y38592572D01*
X26392190Y38497334D01*
X26392190Y38116381D01*
X26773143Y39687810D02*
X26820762Y39640191D01*
X26868381Y39497334D01*
X26868381Y39402096D01*
X26820762Y39259238D01*
X26725524Y39164000D01*
X26630286Y39116381D01*
X26439810Y39068762D01*
X26296952Y39068762D01*
X26106476Y39116381D01*
X26011238Y39164000D01*
X25916000Y39259238D01*
X25868381Y39402096D01*
X25868381Y39497334D01*
X25916000Y39640191D01*
X25963619Y39687810D01*
X26963619Y39878286D02*
X26963619Y40640191D01*
X26868381Y40878286D02*
X25868381Y40878286D01*
X26868381Y41354476D02*
X25868381Y41354476D01*
X26868381Y41925905D01*
X25868381Y41925905D01*
X23376000Y39878286D02*
X23328381Y39783048D01*
X23328381Y39640191D01*
X23376000Y39497333D01*
X23471238Y39402095D01*
X23566476Y39354476D01*
X23756952Y39306857D01*
X23899810Y39306857D01*
X24090286Y39354476D01*
X24185524Y39402095D01*
X24280762Y39497333D01*
X24328381Y39640191D01*
X24328381Y39735429D01*
X24280762Y39878286D01*
X24233143Y39925905D01*
X23899810Y39925905D01*
X23899810Y39735429D01*
X24328381Y40354476D02*
X23328381Y40354476D01*
X24328381Y40925905D01*
X23328381Y40925905D01*
X24328381Y41402095D02*
X23328381Y41402095D01*
X23328381Y41640190D01*
X23376000Y41783048D01*
X23471238Y41878286D01*
X23566476Y41925905D01*
X23756952Y41973524D01*
X23899810Y41973524D01*
X24090286Y41925905D01*
X24185524Y41878286D01*
X24280762Y41783048D01*
X24328381Y41640190D01*
X24328381Y41402095D01*
X21407429Y38402095D02*
X21407429Y39164000D01*
X21788381Y38783048D02*
X21026476Y38783048D01*
X20788381Y39544952D02*
X20788381Y40164000D01*
X21169333Y39830666D01*
X21169333Y39973524D01*
X21216952Y40068762D01*
X21264571Y40116381D01*
X21359810Y40164000D01*
X21597905Y40164000D01*
X21693143Y40116381D01*
X21740762Y40068762D01*
X21788381Y39973524D01*
X21788381Y39687809D01*
X21740762Y39592571D01*
X21693143Y39544952D01*
X20788381Y40449714D02*
X21788381Y40783047D01*
X20788381Y41116381D01*
X20788381Y41354476D02*
X20788381Y41973524D01*
X21169333Y41640190D01*
X21169333Y41783048D01*
X21216952Y41878286D01*
X21264571Y41925905D01*
X21359810Y41973524D01*
X21597905Y41973524D01*
X21693143Y41925905D01*
X21740762Y41878286D01*
X21788381Y41783048D01*
X21788381Y41497333D01*
X21740762Y41402095D01*
X21693143Y41354476D01*
X31567381Y12874524D02*
X31091190Y12541190D01*
X31567381Y12303095D02*
X30567381Y12303095D01*
X30567381Y12684048D01*
X30615000Y12779286D01*
X30662619Y12826905D01*
X30757857Y12874524D01*
X30900714Y12874524D01*
X30995952Y12826905D01*
X31043571Y12779286D01*
X31091190Y12684048D01*
X31091190Y12303095D01*
X30567381Y13207857D02*
X31567381Y13874524D01*
X30567381Y13874524D02*
X31567381Y13207857D01*
X33107381Y12160238D02*
X33107381Y12731667D01*
X34107381Y12445952D02*
X33107381Y12445952D01*
X33107381Y12969762D02*
X34107381Y13636429D01*
X33107381Y13636429D02*
X34107381Y12969762D01*
X41346429Y12303095D02*
X41346429Y13065000D01*
X41727381Y12684048D02*
X40965476Y12684048D01*
X40727381Y14017381D02*
X40727381Y13541190D01*
X41203571Y13493571D01*
X41155952Y13541190D01*
X41108333Y13636428D01*
X41108333Y13874524D01*
X41155952Y13969762D01*
X41203571Y14017381D01*
X41298810Y14065000D01*
X41536905Y14065000D01*
X41632143Y14017381D01*
X41679762Y13969762D01*
X41727381Y13874524D01*
X41727381Y13636428D01*
X41679762Y13541190D01*
X41632143Y13493571D01*
X40727381Y14350714D02*
X41727381Y14684047D01*
X40727381Y15017381D01*
X35695000Y12826905D02*
X35647381Y12731667D01*
X35647381Y12588810D01*
X35695000Y12445952D01*
X35790238Y12350714D01*
X35885476Y12303095D01*
X36075952Y12255476D01*
X36218810Y12255476D01*
X36409286Y12303095D01*
X36504524Y12350714D01*
X36599762Y12445952D01*
X36647381Y12588810D01*
X36647381Y12684048D01*
X36599762Y12826905D01*
X36552143Y12874524D01*
X36218810Y12874524D01*
X36218810Y12684048D01*
X36647381Y13303095D02*
X35647381Y13303095D01*
X36647381Y13874524D01*
X35647381Y13874524D01*
X36647381Y14350714D02*
X35647381Y14350714D01*
X35647381Y14588809D01*
X35695000Y14731667D01*
X35790238Y14826905D01*
X35885476Y14874524D01*
X36075952Y14922143D01*
X36218810Y14922143D01*
X36409286Y14874524D01*
X36504524Y14826905D01*
X36599762Y14731667D01*
X36647381Y14588809D01*
X36647381Y14350714D01*
X63571429Y12303095D02*
X63571429Y13065000D01*
X63952381Y12684048D02*
X63190476Y12684048D01*
X62952381Y14017381D02*
X62952381Y13541190D01*
X63428571Y13493571D01*
X63380952Y13541190D01*
X63333333Y13636428D01*
X63333333Y13874524D01*
X63380952Y13969762D01*
X63428571Y14017381D01*
X63523810Y14065000D01*
X63761905Y14065000D01*
X63857143Y14017381D01*
X63904762Y13969762D01*
X63952381Y13874524D01*
X63952381Y13636428D01*
X63904762Y13541190D01*
X63857143Y13493571D01*
X62952381Y14350714D02*
X63952381Y14684047D01*
X62952381Y15017381D01*
X61031429Y12303095D02*
X61031429Y13065000D01*
X61412381Y12684048D02*
X60650476Y12684048D01*
X60412381Y13445952D02*
X60412381Y14065000D01*
X60793333Y13731666D01*
X60793333Y13874524D01*
X60840952Y13969762D01*
X60888571Y14017381D01*
X60983810Y14065000D01*
X61221905Y14065000D01*
X61317143Y14017381D01*
X61364762Y13969762D01*
X61412381Y13874524D01*
X61412381Y13588809D01*
X61364762Y13493571D01*
X61317143Y13445952D01*
X60412381Y14350714D02*
X61412381Y14684047D01*
X60412381Y15017381D01*
X60412381Y15255476D02*
X60412381Y15874524D01*
X60793333Y15541190D01*
X60793333Y15684048D01*
X60840952Y15779286D01*
X60888571Y15826905D01*
X60983810Y15874524D01*
X61221905Y15874524D01*
X61317143Y15826905D01*
X61364762Y15779286D01*
X61412381Y15684048D01*
X61412381Y15398333D01*
X61364762Y15303095D01*
X61317143Y15255476D01*
X57920000Y12826905D02*
X57872381Y12731667D01*
X57872381Y12588810D01*
X57920000Y12445952D01*
X58015238Y12350714D01*
X58110476Y12303095D01*
X58300952Y12255476D01*
X58443810Y12255476D01*
X58634286Y12303095D01*
X58729524Y12350714D01*
X58824762Y12445952D01*
X58872381Y12588810D01*
X58872381Y12684048D01*
X58824762Y12826905D01*
X58777143Y12874524D01*
X58443810Y12874524D01*
X58443810Y12684048D01*
X58872381Y13303095D02*
X57872381Y13303095D01*
X58872381Y13874524D01*
X57872381Y13874524D01*
X58872381Y14350714D02*
X57872381Y14350714D01*
X57872381Y14588809D01*
X57920000Y14731667D01*
X58015238Y14826905D01*
X58110476Y14874524D01*
X58300952Y14922143D01*
X58443810Y14922143D01*
X58634286Y14874524D01*
X58729524Y14826905D01*
X58824762Y14731667D01*
X58872381Y14588809D01*
X58872381Y14350714D01*
X56284762Y12255476D02*
X56332381Y12398333D01*
X56332381Y12636429D01*
X56284762Y12731667D01*
X56237143Y12779286D01*
X56141905Y12826905D01*
X56046667Y12826905D01*
X55951429Y12779286D01*
X55903810Y12731667D01*
X55856190Y12636429D01*
X55808571Y12445952D01*
X55760952Y12350714D01*
X55713333Y12303095D01*
X55618095Y12255476D01*
X55522857Y12255476D01*
X55427619Y12303095D01*
X55380000Y12350714D01*
X55332381Y12445952D01*
X55332381Y12684048D01*
X55380000Y12826905D01*
X56237143Y13826905D02*
X56284762Y13779286D01*
X56332381Y13636429D01*
X56332381Y13541191D01*
X56284762Y13398333D01*
X56189524Y13303095D01*
X56094286Y13255476D01*
X55903810Y13207857D01*
X55760952Y13207857D01*
X55570476Y13255476D01*
X55475238Y13303095D01*
X55380000Y13398333D01*
X55332381Y13541191D01*
X55332381Y13636429D01*
X55380000Y13779286D01*
X55427619Y13826905D01*
X56332381Y14731667D02*
X56332381Y14255476D01*
X55332381Y14255476D01*
X56332381Y15065000D02*
X55332381Y15065000D01*
X56332381Y15636429D02*
X55760952Y15207857D01*
X55332381Y15636429D02*
X55903810Y15065000D01*
X53792381Y12303095D02*
X52792381Y12303095D01*
X53506667Y12636429D01*
X52792381Y12969762D01*
X53792381Y12969762D01*
X52792381Y13636428D02*
X52792381Y13826905D01*
X52840000Y13922143D01*
X52935238Y14017381D01*
X53125714Y14065000D01*
X53459048Y14065000D01*
X53649524Y14017381D01*
X53744762Y13922143D01*
X53792381Y13826905D01*
X53792381Y13636428D01*
X53744762Y13541190D01*
X53649524Y13445952D01*
X53459048Y13398333D01*
X53125714Y13398333D01*
X52935238Y13445952D01*
X52840000Y13541190D01*
X52792381Y13636428D01*
X53744762Y14445952D02*
X53792381Y14588809D01*
X53792381Y14826905D01*
X53744762Y14922143D01*
X53697143Y14969762D01*
X53601905Y15017381D01*
X53506667Y15017381D01*
X53411429Y14969762D01*
X53363810Y14922143D01*
X53316190Y14826905D01*
X53268571Y14636428D01*
X53220952Y14541190D01*
X53173333Y14493571D01*
X53078095Y14445952D01*
X52982857Y14445952D01*
X52887619Y14493571D01*
X52840000Y14541190D01*
X52792381Y14636428D01*
X52792381Y14874524D01*
X52840000Y15017381D01*
X53792381Y15445952D02*
X52792381Y15445952D01*
X51252381Y12303095D02*
X50252381Y12303095D01*
X50966667Y12636429D01*
X50252381Y12969762D01*
X51252381Y12969762D01*
X51252381Y13445952D02*
X50252381Y13445952D01*
X51204762Y13874523D02*
X51252381Y14017380D01*
X51252381Y14255476D01*
X51204762Y14350714D01*
X51157143Y14398333D01*
X51061905Y14445952D01*
X50966667Y14445952D01*
X50871429Y14398333D01*
X50823810Y14350714D01*
X50776190Y14255476D01*
X50728571Y14064999D01*
X50680952Y13969761D01*
X50633333Y13922142D01*
X50538095Y13874523D01*
X50442857Y13874523D01*
X50347619Y13922142D01*
X50300000Y13969761D01*
X50252381Y14064999D01*
X50252381Y14303095D01*
X50300000Y14445952D01*
X50252381Y15064999D02*
X50252381Y15255476D01*
X50300000Y15350714D01*
X50395238Y15445952D01*
X50585714Y15493571D01*
X50919048Y15493571D01*
X51109524Y15445952D01*
X51204762Y15350714D01*
X51252381Y15255476D01*
X51252381Y15064999D01*
X51204762Y14969761D01*
X51109524Y14874523D01*
X50919048Y14826904D01*
X50585714Y14826904D01*
X50395238Y14874523D01*
X50300000Y14969761D01*
X50252381Y15064999D01*
X48617143Y12874524D02*
X48664762Y12826905D01*
X48712381Y12684048D01*
X48712381Y12588810D01*
X48664762Y12445952D01*
X48569524Y12350714D01*
X48474286Y12303095D01*
X48283810Y12255476D01*
X48140952Y12255476D01*
X47950476Y12303095D01*
X47855238Y12350714D01*
X47760000Y12445952D01*
X47712381Y12588810D01*
X47712381Y12684048D01*
X47760000Y12826905D01*
X47807619Y12874524D01*
X48664762Y13255476D02*
X48712381Y13398333D01*
X48712381Y13636429D01*
X48664762Y13731667D01*
X48617143Y13779286D01*
X48521905Y13826905D01*
X48426667Y13826905D01*
X48331429Y13779286D01*
X48283810Y13731667D01*
X48236190Y13636429D01*
X48188571Y13445952D01*
X48140952Y13350714D01*
X48093333Y13303095D01*
X47998095Y13255476D01*
X47902857Y13255476D01*
X47807619Y13303095D01*
X47760000Y13350714D01*
X47712381Y13445952D01*
X47712381Y13684048D01*
X47760000Y13826905D01*
X65794381Y8167619D02*
X65318190Y8167619D01*
X65270571Y7691429D01*
X65318190Y7739048D01*
X65413428Y7786667D01*
X65651524Y7786667D01*
X65746762Y7739048D01*
X65794381Y7691429D01*
X65842000Y7596190D01*
X65842000Y7358095D01*
X65794381Y7262857D01*
X65746762Y7215238D01*
X65651524Y7167619D01*
X65413428Y7167619D01*
X65318190Y7215238D01*
X65270571Y7262857D01*
X66127714Y8167619D02*
X66461047Y7167619D01*
X66794381Y8167619D01*
X67746762Y7834286D02*
X68127714Y7834286D01*
X67889619Y8167619D02*
X67889619Y7310476D01*
X67937238Y7215238D01*
X68032476Y7167619D01*
X68127714Y7167619D01*
X68603905Y7167619D02*
X68508667Y7215238D01*
X68461048Y7262857D01*
X68413429Y7358095D01*
X68413429Y7643810D01*
X68461048Y7739048D01*
X68508667Y7786667D01*
X68603905Y7834286D01*
X68746763Y7834286D01*
X68842001Y7786667D01*
X68889620Y7739048D01*
X68937239Y7643810D01*
X68937239Y7358095D01*
X68889620Y7262857D01*
X68842001Y7215238D01*
X68746763Y7167619D01*
X68603905Y7167619D01*
X70699144Y7167619D02*
X70365810Y7643810D01*
X70127715Y7167619D02*
X70127715Y8167619D01*
X70508668Y8167619D01*
X70603906Y8120000D01*
X70651525Y8072381D01*
X70699144Y7977143D01*
X70699144Y7834286D01*
X70651525Y7739048D01*
X70603906Y7691429D01*
X70508668Y7643810D01*
X70127715Y7643810D01*
X71699144Y7262857D02*
X71651525Y7215238D01*
X71508668Y7167619D01*
X71413430Y7167619D01*
X71270572Y7215238D01*
X71175334Y7310476D01*
X71127715Y7405714D01*
X71080096Y7596190D01*
X71080096Y7739048D01*
X71127715Y7929524D01*
X71175334Y8024762D01*
X71270572Y8120000D01*
X71413430Y8167619D01*
X71508668Y8167619D01*
X71651525Y8120000D01*
X71699144Y8072381D01*
X71889620Y7072381D02*
X72651525Y7072381D01*
X72794382Y8167619D02*
X73461049Y7167619D01*
X73461049Y8167619D02*
X72794382Y7167619D01*
X79144762Y8429905D02*
X79192381Y8572762D01*
X79192381Y8810858D01*
X79144762Y8906096D01*
X79097143Y8953715D01*
X79001905Y9001334D01*
X78906667Y9001334D01*
X78811429Y8953715D01*
X78763810Y8906096D01*
X78716190Y8810858D01*
X78668571Y8620381D01*
X78620952Y8525143D01*
X78573333Y8477524D01*
X78478095Y8429905D01*
X78382857Y8429905D01*
X78287619Y8477524D01*
X78240000Y8525143D01*
X78192381Y8620381D01*
X78192381Y8858477D01*
X78240000Y9001334D01*
X79192381Y9429905D02*
X78192381Y9429905D01*
X78240000Y10429905D02*
X78192381Y10334667D01*
X78192381Y10191810D01*
X78240000Y10048952D01*
X78335238Y9953714D01*
X78430476Y9906095D01*
X78620952Y9858476D01*
X78763810Y9858476D01*
X78954286Y9906095D01*
X79049524Y9953714D01*
X79144762Y10048952D01*
X79192381Y10191810D01*
X79192381Y10287048D01*
X79144762Y10429905D01*
X79097143Y10477524D01*
X78763810Y10477524D01*
X78763810Y10287048D01*
X81351429Y7731476D02*
X81351429Y8493381D01*
X81732381Y8112429D02*
X80970476Y8112429D01*
X80732381Y9445762D02*
X80732381Y8969571D01*
X81208571Y8921952D01*
X81160952Y8969571D01*
X81113333Y9064809D01*
X81113333Y9302905D01*
X81160952Y9398143D01*
X81208571Y9445762D01*
X81303810Y9493381D01*
X81541905Y9493381D01*
X81637143Y9445762D01*
X81684762Y9398143D01*
X81732381Y9302905D01*
X81732381Y9064809D01*
X81684762Y8969571D01*
X81637143Y8921952D01*
X80732381Y9779095D02*
X81732381Y10112428D01*
X80732381Y10445762D01*
X83447000Y8382286D02*
X83399381Y8287048D01*
X83399381Y8144191D01*
X83447000Y8001333D01*
X83542238Y7906095D01*
X83637476Y7858476D01*
X83827952Y7810857D01*
X83970810Y7810857D01*
X84161286Y7858476D01*
X84256524Y7906095D01*
X84351762Y8001333D01*
X84399381Y8144191D01*
X84399381Y8239429D01*
X84351762Y8382286D01*
X84304143Y8429905D01*
X83970810Y8429905D01*
X83970810Y8239429D01*
X84399381Y8858476D02*
X83399381Y8858476D01*
X84399381Y9429905D01*
X83399381Y9429905D01*
X84399381Y9906095D02*
X83399381Y9906095D01*
X83399381Y10144190D01*
X83447000Y10287048D01*
X83542238Y10382286D01*
X83637476Y10429905D01*
X83827952Y10477524D01*
X83970810Y10477524D01*
X84161286Y10429905D01*
X84256524Y10382286D01*
X84351762Y10287048D01*
X84399381Y10144190D01*
X84399381Y9906095D01*
X68683334Y36472857D02*
X68635715Y36425238D01*
X68492858Y36377619D01*
X68397620Y36377619D01*
X68254762Y36425238D01*
X68159524Y36520476D01*
X68111905Y36615714D01*
X68064286Y36806190D01*
X68064286Y36949048D01*
X68111905Y37139524D01*
X68159524Y37234762D01*
X68254762Y37330000D01*
X68397620Y37377619D01*
X68492858Y37377619D01*
X68635715Y37330000D01*
X68683334Y37282381D01*
X69064286Y36663333D02*
X69540477Y36663333D01*
X68969048Y36377619D02*
X69302381Y37377619D01*
X69635715Y36377619D01*
X69969048Y36377619D02*
X69969048Y37377619D01*
X70540477Y36377619D01*
X70540477Y37377619D01*
X71016667Y36377619D02*
X71016667Y37377619D01*
X71016667Y36901429D02*
X71588096Y36901429D01*
X71588096Y36377619D02*
X71588096Y37377619D01*
X68802381Y39012857D02*
X68754762Y38965238D01*
X68611905Y38917619D01*
X68516667Y38917619D01*
X68373809Y38965238D01*
X68278571Y39060476D01*
X68230952Y39155714D01*
X68183333Y39346190D01*
X68183333Y39489048D01*
X68230952Y39679524D01*
X68278571Y39774762D01*
X68373809Y39870000D01*
X68516667Y39917619D01*
X68611905Y39917619D01*
X68754762Y39870000D01*
X68802381Y39822381D01*
X69183333Y39203333D02*
X69659524Y39203333D01*
X69088095Y38917619D02*
X69421428Y39917619D01*
X69754762Y38917619D01*
X70088095Y38917619D02*
X70088095Y39917619D01*
X70659524Y38917619D01*
X70659524Y39917619D01*
X71611905Y38917619D02*
X71135714Y38917619D01*
X71135714Y39917619D01*
X6310619Y7532619D02*
X5834428Y7532619D01*
X5786809Y7056429D01*
X5834428Y7104048D01*
X5929666Y7151667D01*
X6167762Y7151667D01*
X6263000Y7104048D01*
X6310619Y7056429D01*
X6358238Y6961190D01*
X6358238Y6723095D01*
X6310619Y6627857D01*
X6263000Y6580238D01*
X6167762Y6532619D01*
X5929666Y6532619D01*
X5834428Y6580238D01*
X5786809Y6627857D01*
X6643952Y7532619D02*
X6977285Y6532619D01*
X7310619Y7532619D01*
X8405857Y6532619D02*
X8405857Y7532619D01*
X8882047Y7199286D02*
X8882047Y6532619D01*
X8882047Y7104048D02*
X8929666Y7151667D01*
X9024904Y7199286D01*
X9167762Y7199286D01*
X9263000Y7151667D01*
X9310619Y7056429D01*
X9310619Y6532619D01*
X9786809Y7199286D02*
X9786809Y6199286D01*
X9786809Y7151667D02*
X9882047Y7199286D01*
X10072524Y7199286D01*
X10167762Y7151667D01*
X10215381Y7104048D01*
X10263000Y7008810D01*
X10263000Y6723095D01*
X10215381Y6627857D01*
X10167762Y6580238D01*
X10072524Y6532619D01*
X9882047Y6532619D01*
X9786809Y6580238D01*
X11120143Y7199286D02*
X11120143Y6532619D01*
X10691571Y7199286D02*
X10691571Y6675476D01*
X10739190Y6580238D01*
X10834428Y6532619D01*
X10977286Y6532619D01*
X11072524Y6580238D01*
X11120143Y6627857D01*
X11453476Y7199286D02*
X11834428Y7199286D01*
X11596333Y7532619D02*
X11596333Y6675476D01*
X11643952Y6580238D01*
X11739190Y6532619D01*
X11834428Y6532619D01*
X21423619Y46283619D02*
X21090285Y46759810D01*
X20852190Y46283619D02*
X20852190Y47283619D01*
X21233143Y47283619D01*
X21328381Y47236000D01*
X21376000Y47188381D01*
X21423619Y47093143D01*
X21423619Y46950286D01*
X21376000Y46855048D01*
X21328381Y46807429D01*
X21233143Y46759810D01*
X20852190Y46759810D01*
X22423619Y46378857D02*
X22376000Y46331238D01*
X22233143Y46283619D01*
X22137905Y46283619D01*
X21995047Y46331238D01*
X21899809Y46426476D01*
X21852190Y46521714D01*
X21804571Y46712190D01*
X21804571Y46855048D01*
X21852190Y47045524D01*
X21899809Y47140762D01*
X21995047Y47236000D01*
X22137905Y47283619D01*
X22233143Y47283619D01*
X22376000Y47236000D01*
X22423619Y47188381D01*
X23614095Y46283619D02*
X23614095Y47283619D01*
X24090285Y46950286D02*
X24090285Y46283619D01*
X24090285Y46855048D02*
X24137904Y46902667D01*
X24233142Y46950286D01*
X24376000Y46950286D01*
X24471238Y46902667D01*
X24518857Y46807429D01*
X24518857Y46283619D01*
X24995047Y46950286D02*
X24995047Y45950286D01*
X24995047Y46902667D02*
X25090285Y46950286D01*
X25280762Y46950286D01*
X25376000Y46902667D01*
X25423619Y46855048D01*
X25471238Y46759810D01*
X25471238Y46474095D01*
X25423619Y46378857D01*
X25376000Y46331238D01*
X25280762Y46283619D01*
X25090285Y46283619D01*
X24995047Y46331238D01*
X26328381Y46950286D02*
X26328381Y46283619D01*
X25899809Y46950286D02*
X25899809Y46426476D01*
X25947428Y46331238D01*
X26042666Y46283619D01*
X26185524Y46283619D01*
X26280762Y46331238D01*
X26328381Y46378857D01*
X26661714Y46950286D02*
X27042666Y46950286D01*
X26804571Y47283619D02*
X26804571Y46426476D01*
X26852190Y46331238D01*
X26947428Y46283619D01*
X27042666Y46283619D01*
X31250476Y47236000D02*
X31155238Y47283619D01*
X31012381Y47283619D01*
X30869523Y47236000D01*
X30774285Y47140762D01*
X30726666Y47045524D01*
X30679047Y46855048D01*
X30679047Y46712190D01*
X30726666Y46521714D01*
X30774285Y46426476D01*
X30869523Y46331238D01*
X31012381Y46283619D01*
X31107619Y46283619D01*
X31250476Y46331238D01*
X31298095Y46378857D01*
X31298095Y46712190D01*
X31107619Y46712190D01*
X31726666Y46283619D02*
X31726666Y47283619D01*
X32107619Y47283619D01*
X32202857Y47236000D01*
X32250476Y47188381D01*
X32298095Y47093143D01*
X32298095Y46950286D01*
X32250476Y46855048D01*
X32202857Y46807429D01*
X32107619Y46759810D01*
X31726666Y46759810D01*
X32679047Y46331238D02*
X32821904Y46283619D01*
X33060000Y46283619D01*
X33155238Y46331238D01*
X33202857Y46378857D01*
X33250476Y46474095D01*
X33250476Y46569333D01*
X33202857Y46664571D01*
X33155238Y46712190D01*
X33060000Y46759810D01*
X32869523Y46807429D01*
X32774285Y46855048D01*
X32726666Y46902667D01*
X32679047Y46997905D01*
X32679047Y47093143D01*
X32726666Y47188381D01*
X32774285Y47236000D01*
X32869523Y47283619D01*
X33107619Y47283619D01*
X33250476Y47236000D01*
X35155238Y47331238D02*
X34298095Y46045524D01*
X36250476Y47283619D02*
X36250476Y46474095D01*
X36298095Y46378857D01*
X36345714Y46331238D01*
X36440952Y46283619D01*
X36631429Y46283619D01*
X36726667Y46331238D01*
X36774286Y46378857D01*
X36821905Y46474095D01*
X36821905Y47283619D01*
X37250476Y46569333D02*
X37726667Y46569333D01*
X37155238Y46283619D02*
X37488571Y47283619D01*
X37821905Y46283619D01*
X38726667Y46283619D02*
X38393333Y46759810D01*
X38155238Y46283619D02*
X38155238Y47283619D01*
X38536191Y47283619D01*
X38631429Y47236000D01*
X38679048Y47188381D01*
X38726667Y47093143D01*
X38726667Y46950286D01*
X38679048Y46855048D01*
X38631429Y46807429D01*
X38536191Y46759810D01*
X38155238Y46759810D01*
X39012381Y47283619D02*
X39583810Y47283619D01*
X39298095Y46283619D02*
X39298095Y47283619D01*
X40393334Y47283619D02*
X39917143Y47283619D01*
X39869524Y46807429D01*
X39917143Y46855048D01*
X40012381Y46902667D01*
X40250477Y46902667D01*
X40345715Y46855048D01*
X40393334Y46807429D01*
X40440953Y46712190D01*
X40440953Y46474095D01*
X40393334Y46378857D01*
X40345715Y46331238D01*
X40250477Y46283619D01*
X40012381Y46283619D01*
X39917143Y46331238D01*
X39869524Y46378857D01*
X54380000Y7215238D02*
X54522857Y7167619D01*
X54760953Y7167619D01*
X54856191Y7215238D01*
X54903810Y7262857D01*
X54951429Y7358095D01*
X54951429Y7453333D01*
X54903810Y7548571D01*
X54856191Y7596190D01*
X54760953Y7643810D01*
X54570476Y7691429D01*
X54475238Y7739048D01*
X54427619Y7786667D01*
X54380000Y7881905D01*
X54380000Y7977143D01*
X54427619Y8072381D01*
X54475238Y8120000D01*
X54570476Y8167619D01*
X54808572Y8167619D01*
X54951429Y8120000D01*
X55380000Y7167619D02*
X55380000Y8167619D01*
X55760953Y8167619D01*
X55856191Y8120000D01*
X55903810Y8072381D01*
X55951429Y7977143D01*
X55951429Y7834286D01*
X55903810Y7739048D01*
X55856191Y7691429D01*
X55760953Y7643810D01*
X55380000Y7643810D01*
X56380000Y7167619D02*
X56380000Y8167619D01*
X57046666Y8167619D02*
X57141905Y8167619D01*
X57237143Y8120000D01*
X57284762Y8072381D01*
X57332381Y7977143D01*
X57380000Y7786667D01*
X57380000Y7548571D01*
X57332381Y7358095D01*
X57284762Y7262857D01*
X57237143Y7215238D01*
X57141905Y7167619D01*
X57046666Y7167619D01*
X56951428Y7215238D01*
X56903809Y7262857D01*
X56856190Y7358095D01*
X56808571Y7548571D01*
X56808571Y7786667D01*
X56856190Y7977143D01*
X56903809Y8072381D01*
X56951428Y8120000D01*
X57046666Y8167619D01*
X29123570Y8167619D02*
X29694999Y8167619D01*
X29409284Y7167619D02*
X29409284Y8167619D01*
X30409285Y7215238D02*
X30314047Y7167619D01*
X30123570Y7167619D01*
X30028332Y7215238D01*
X29980713Y7310476D01*
X29980713Y7691429D01*
X30028332Y7786667D01*
X30123570Y7834286D01*
X30314047Y7834286D01*
X30409285Y7786667D01*
X30456904Y7691429D01*
X30456904Y7596190D01*
X29980713Y7500952D01*
X31028332Y7167619D02*
X30933094Y7215238D01*
X30885475Y7310476D01*
X30885475Y8167619D01*
X31790238Y7215238D02*
X31695000Y7167619D01*
X31504523Y7167619D01*
X31409285Y7215238D01*
X31361666Y7310476D01*
X31361666Y7691429D01*
X31409285Y7786667D01*
X31504523Y7834286D01*
X31695000Y7834286D01*
X31790238Y7786667D01*
X31837857Y7691429D01*
X31837857Y7596190D01*
X31361666Y7500952D01*
X32266428Y7167619D02*
X32266428Y7834286D01*
X32266428Y7739048D02*
X32314047Y7786667D01*
X32409285Y7834286D01*
X32552143Y7834286D01*
X32647381Y7786667D01*
X32695000Y7691429D01*
X32695000Y7167619D01*
X32695000Y7691429D02*
X32742619Y7786667D01*
X32837857Y7834286D01*
X32980714Y7834286D01*
X33075952Y7786667D01*
X33123571Y7691429D01*
X33123571Y7167619D01*
X33980714Y7215238D02*
X33885476Y7167619D01*
X33694999Y7167619D01*
X33599761Y7215238D01*
X33552142Y7310476D01*
X33552142Y7691429D01*
X33599761Y7786667D01*
X33694999Y7834286D01*
X33885476Y7834286D01*
X33980714Y7786667D01*
X34028333Y7691429D01*
X34028333Y7596190D01*
X33552142Y7500952D01*
X34314047Y7834286D02*
X34694999Y7834286D01*
X34456904Y8167619D02*
X34456904Y7310476D01*
X34504523Y7215238D01*
X34599761Y7167619D01*
X34694999Y7167619D01*
X35028333Y7167619D02*
X35028333Y7834286D01*
X35028333Y7643810D02*
X35075952Y7739048D01*
X35123571Y7786667D01*
X35218809Y7834286D01*
X35314048Y7834286D01*
X35552143Y7834286D02*
X35790238Y7167619D01*
X36028334Y7834286D02*
X35790238Y7167619D01*
X35695000Y6929524D01*
X35647381Y6881905D01*
X35552143Y6834286D01*
X37885477Y8215238D02*
X37028334Y6929524D01*
X38980715Y8167619D02*
X38980715Y7358095D01*
X39028334Y7262857D01*
X39075953Y7215238D01*
X39171191Y7167619D01*
X39361668Y7167619D01*
X39456906Y7215238D01*
X39504525Y7262857D01*
X39552144Y7358095D01*
X39552144Y8167619D01*
X39980715Y7453333D02*
X40456906Y7453333D01*
X39885477Y7167619D02*
X40218810Y8167619D01*
X40552144Y7167619D01*
X41456906Y7167619D02*
X41123572Y7643810D01*
X40885477Y7167619D02*
X40885477Y8167619D01*
X41266430Y8167619D01*
X41361668Y8120000D01*
X41409287Y8072381D01*
X41456906Y7977143D01*
X41456906Y7834286D01*
X41409287Y7739048D01*
X41361668Y7691429D01*
X41266430Y7643810D01*
X40885477Y7643810D01*
X41742620Y8167619D02*
X42314049Y8167619D01*
X42028334Y7167619D02*
X42028334Y8167619D01*
X43075954Y7834286D02*
X43075954Y7167619D01*
X42837858Y8215238D02*
X42599763Y7500952D01*
X43218811Y7500952D01*
D12*
X54094573Y28461429D02*
X54094573Y29961429D01*
X54594573Y28890000D01*
X55094573Y29961429D01*
X55094573Y28461429D01*
X55737430Y28532857D02*
X55951716Y28461429D01*
X56308859Y28461429D01*
X56451716Y28532857D01*
X56523145Y28604286D01*
X56594573Y28747143D01*
X56594573Y28890000D01*
X56523145Y29032857D01*
X56451716Y29104286D01*
X56308859Y29175714D01*
X56023145Y29247143D01*
X55880287Y29318571D01*
X55808859Y29390000D01*
X55737430Y29532857D01*
X55737430Y29675714D01*
X55808859Y29818571D01*
X55880287Y29890000D01*
X56023145Y29961429D01*
X56380287Y29961429D01*
X56594573Y29890000D01*
X57951716Y29961429D02*
X57237430Y29961429D01*
X57166001Y29247143D01*
X57237430Y29318571D01*
X57380287Y29390000D01*
X57737430Y29390000D01*
X57880287Y29318571D01*
X57951716Y29247143D01*
X58023144Y29104286D01*
X58023144Y28747143D01*
X57951716Y28604286D01*
X57880287Y28532857D01*
X57737430Y28461429D01*
X57380287Y28461429D01*
X57237430Y28532857D01*
X57166001Y28604286D01*
X59308858Y29961429D02*
X59023144Y29961429D01*
X58880287Y29890000D01*
X58808858Y29818571D01*
X58666001Y29604286D01*
X58594572Y29318571D01*
X58594572Y28747143D01*
X58666001Y28604286D01*
X58737429Y28532857D01*
X58880287Y28461429D01*
X59166001Y28461429D01*
X59308858Y28532857D01*
X59380287Y28604286D01*
X59451715Y28747143D01*
X59451715Y29104286D01*
X59380287Y29247143D01*
X59308858Y29318571D01*
X59166001Y29390000D01*
X58880287Y29390000D01*
X58737429Y29318571D01*
X58666001Y29247143D01*
X58594572Y29104286D01*
X60880286Y28461429D02*
X60023143Y28461429D01*
X60451715Y28461429D02*
X60451715Y29961429D01*
X60308858Y29747143D01*
X60166000Y29604286D01*
X60023143Y29532857D01*
X62308857Y28461429D02*
X61451714Y28461429D01*
X61880286Y28461429D02*
X61880286Y29961429D01*
X61737429Y29747143D01*
X61594571Y29604286D01*
X61451714Y29532857D01*
X55558858Y27490000D02*
X55416001Y27561429D01*
X55201715Y27561429D01*
X54987430Y27490000D01*
X54844572Y27347143D01*
X54773144Y27204286D01*
X54701715Y26918571D01*
X54701715Y26704286D01*
X54773144Y26418571D01*
X54844572Y26275714D01*
X54987430Y26132857D01*
X55201715Y26061429D01*
X55344572Y26061429D01*
X55558858Y26132857D01*
X55630287Y26204286D01*
X55630287Y26704286D01*
X55344572Y26704286D01*
X56558858Y26775714D02*
X56558858Y26061429D01*
X56058858Y27561429D02*
X56558858Y26775714D01*
X57058858Y27561429D01*
X57558858Y26632857D02*
X58701715Y26632857D01*
X60058858Y27561429D02*
X59773144Y27561429D01*
X59630287Y27490000D01*
X59558858Y27418571D01*
X59416001Y27204286D01*
X59344572Y26918571D01*
X59344572Y26347143D01*
X59416001Y26204286D01*
X59487429Y26132857D01*
X59630287Y26061429D01*
X59916001Y26061429D01*
X60058858Y26132857D01*
X60130287Y26204286D01*
X60201715Y26347143D01*
X60201715Y26704286D01*
X60130287Y26847143D01*
X60058858Y26918571D01*
X59916001Y26990000D01*
X59630287Y26990000D01*
X59487429Y26918571D01*
X59416001Y26847143D01*
X59344572Y26704286D01*
X60701715Y27561429D02*
X61630286Y27561429D01*
X61130286Y26990000D01*
X61344572Y26990000D01*
X61487429Y26918571D01*
X61558858Y26847143D01*
X61630286Y26704286D01*
X61630286Y26347143D01*
X61558858Y26204286D01*
X61487429Y26132857D01*
X61344572Y26061429D01*
X60916000Y26061429D01*
X60773143Y26132857D01*
X60701715Y26204286D01*
X29103572Y29731429D02*
X29103572Y31231429D01*
X29603572Y30160000D01*
X30103572Y31231429D01*
X30103572Y29731429D01*
X30817858Y29731429D02*
X30817858Y31231429D01*
X31389286Y31231429D01*
X31532144Y31160000D01*
X31603572Y31088571D01*
X31675001Y30945714D01*
X31675001Y30731429D01*
X31603572Y30588571D01*
X31532144Y30517143D01*
X31389286Y30445714D01*
X30817858Y30445714D01*
X32317858Y31231429D02*
X32317858Y30017143D01*
X32389286Y29874286D01*
X32460715Y29802857D01*
X32603572Y29731429D01*
X32889286Y29731429D01*
X33032144Y29802857D01*
X33103572Y29874286D01*
X33175001Y30017143D01*
X33175001Y31231429D01*
X33889287Y30302857D02*
X35032144Y30302857D01*
X35817858Y29731429D02*
X36103573Y29731429D01*
X36246430Y29802857D01*
X36317858Y29874286D01*
X36460716Y30088571D01*
X36532144Y30374286D01*
X36532144Y30945714D01*
X36460716Y31088571D01*
X36389287Y31160000D01*
X36246430Y31231429D01*
X35960716Y31231429D01*
X35817858Y31160000D01*
X35746430Y31088571D01*
X35675001Y30945714D01*
X35675001Y30588571D01*
X35746430Y30445714D01*
X35817858Y30374286D01*
X35960716Y30302857D01*
X36246430Y30302857D01*
X36389287Y30374286D01*
X36460716Y30445714D01*
X36532144Y30588571D01*
X37103572Y31088571D02*
X37175001Y31160000D01*
X37317858Y31231429D01*
X37675001Y31231429D01*
X37817858Y31160000D01*
X37889287Y31088571D01*
X37960715Y30945714D01*
X37960715Y30802857D01*
X37889287Y30588571D01*
X37032144Y29731429D01*
X37960715Y29731429D01*
X39317858Y31231429D02*
X38603572Y31231429D01*
X38532143Y30517143D01*
X38603572Y30588571D01*
X38746429Y30660000D01*
X39103572Y30660000D01*
X39246429Y30588571D01*
X39317858Y30517143D01*
X39389286Y30374286D01*
X39389286Y30017143D01*
X39317858Y29874286D01*
X39246429Y29802857D01*
X39103572Y29731429D01*
X38746429Y29731429D01*
X38603572Y29802857D01*
X38532143Y29874286D01*
X40317857Y31231429D02*
X40460714Y31231429D01*
X40603571Y31160000D01*
X40675000Y31088571D01*
X40746429Y30945714D01*
X40817857Y30660000D01*
X40817857Y30302857D01*
X40746429Y30017143D01*
X40675000Y29874286D01*
X40603571Y29802857D01*
X40460714Y29731429D01*
X40317857Y29731429D01*
X40175000Y29802857D01*
X40103571Y29874286D01*
X40032143Y30017143D01*
X39960714Y30302857D01*
X39960714Y30660000D01*
X40032143Y30945714D01*
X40103571Y31088571D01*
X40175000Y31160000D01*
X40317857Y31231429D01*
X30889287Y28760000D02*
X30746430Y28831429D01*
X30532144Y28831429D01*
X30317859Y28760000D01*
X30175001Y28617143D01*
X30103573Y28474286D01*
X30032144Y28188571D01*
X30032144Y27974286D01*
X30103573Y27688571D01*
X30175001Y27545714D01*
X30317859Y27402857D01*
X30532144Y27331429D01*
X30675001Y27331429D01*
X30889287Y27402857D01*
X30960716Y27474286D01*
X30960716Y27974286D01*
X30675001Y27974286D01*
X31889287Y28045714D02*
X31889287Y27331429D01*
X31389287Y28831429D02*
X31889287Y28045714D01*
X32389287Y28831429D01*
X32889287Y27902857D02*
X34032144Y27902857D01*
X34817858Y27331429D02*
X35103573Y27331429D01*
X35246430Y27402857D01*
X35317858Y27474286D01*
X35460716Y27688571D01*
X35532144Y27974286D01*
X35532144Y28545714D01*
X35460716Y28688571D01*
X35389287Y28760000D01*
X35246430Y28831429D01*
X34960716Y28831429D01*
X34817858Y28760000D01*
X34746430Y28688571D01*
X34675001Y28545714D01*
X34675001Y28188571D01*
X34746430Y28045714D01*
X34817858Y27974286D01*
X34960716Y27902857D01*
X35246430Y27902857D01*
X35389287Y27974286D01*
X35460716Y28045714D01*
X35532144Y28188571D01*
X36103572Y28688571D02*
X36175001Y28760000D01*
X36317858Y28831429D01*
X36675001Y28831429D01*
X36817858Y28760000D01*
X36889287Y28688571D01*
X36960715Y28545714D01*
X36960715Y28402857D01*
X36889287Y28188571D01*
X36032144Y27331429D01*
X36960715Y27331429D01*
X38317858Y28831429D02*
X37603572Y28831429D01*
X37532143Y28117143D01*
X37603572Y28188571D01*
X37746429Y28260000D01*
X38103572Y28260000D01*
X38246429Y28188571D01*
X38317858Y28117143D01*
X38389286Y27974286D01*
X38389286Y27617143D01*
X38317858Y27474286D01*
X38246429Y27402857D01*
X38103572Y27331429D01*
X37746429Y27331429D01*
X37603572Y27402857D01*
X37532143Y27474286D01*
X39317857Y28831429D02*
X39460714Y28831429D01*
X39603571Y28760000D01*
X39675000Y28688571D01*
X39746429Y28545714D01*
X39817857Y28260000D01*
X39817857Y27902857D01*
X39746429Y27617143D01*
X39675000Y27474286D01*
X39603571Y27402857D01*
X39460714Y27331429D01*
X39317857Y27331429D01*
X39175000Y27402857D01*
X39103571Y27474286D01*
X39032143Y27617143D01*
X38960714Y27902857D01*
X38960714Y28260000D01*
X39032143Y28545714D01*
X39103571Y28688571D01*
X39175000Y28760000D01*
X39317857Y28831429D01*
D11*
X48260000Y17145000D02*
X21590000Y17145000D01*
X21590000Y33274000D02*
X48260000Y33274000D01*
X70485000Y17145000D02*
X51435000Y17145000D01*
X70485000Y31115000D02*
X70485000Y17145000D01*
X51435000Y31115000D02*
X70485000Y31115000D01*
X51435000Y17145000D02*
X51435000Y31115000D01*
D13*
X27051000Y30734000D02*
G75*
G03X27051000Y30734000I-2286000J0D01*
G01*
X77470000Y13970000D02*
X77470000Y41910000D01*
X77470000Y41910000D02*
X80010000Y41910000D01*
X80010000Y41910000D02*
X80010000Y13970000D01*
X77190000Y11150000D02*
X77190000Y12700000D01*
X77470000Y13970000D02*
X80010000Y13970000D01*
X80290000Y12700000D02*
X80290000Y11150000D01*
X80290000Y11150000D02*
X77190000Y11150000D01*
X80010000Y41910000D02*
X80010000Y11430000D01*
X85090000Y13970000D02*
X85090000Y41910000D01*
X80010000Y41910000D02*
X85090000Y41910000D01*
X80010000Y11430000D02*
X82550000Y11430000D01*
X83820000Y11150000D02*
X85370000Y11150000D01*
X82550000Y11430000D02*
X82550000Y13970000D01*
X82550000Y13970000D02*
X85090000Y13970000D01*
X85370000Y11150000D02*
X85370000Y12700000D01*
X69342000Y8890000D02*
X66802000Y8890000D01*
X72162000Y8610000D02*
X70612000Y8610000D01*
X69342000Y8890000D02*
X69342000Y11430000D01*
X70612000Y11710000D02*
X72162000Y11710000D01*
X72162000Y11710000D02*
X72162000Y8610000D01*
X69342000Y11430000D02*
X66802000Y11430000D01*
X66802000Y11430000D02*
X66802000Y8890000D01*
X22606000Y42926000D02*
X27686000Y42926000D01*
X27686000Y42926000D02*
X27686000Y45466000D01*
X27686000Y45466000D02*
X22606000Y45466000D01*
X19786000Y45746000D02*
X21336000Y45746000D01*
X22606000Y45466000D02*
X22606000Y42926000D01*
X21336000Y42646000D02*
X19786000Y42646000D01*
X19786000Y42646000D02*
X19786000Y45746000D01*
X24765000Y20320000D02*
X47625000Y20320000D01*
X47625000Y20320000D02*
X47625000Y17780000D01*
X47625000Y17780000D02*
X24765000Y17780000D01*
X21945000Y20600000D02*
X23495000Y20600000D01*
X24765000Y20320000D02*
X24765000Y17780000D01*
X23495000Y17500000D02*
X21945000Y17500000D01*
X21945000Y17500000D02*
X21945000Y20600000D01*
X54610000Y20320000D02*
X69850000Y20320000D01*
X69850000Y20320000D02*
X69850000Y17780000D01*
X69850000Y17780000D02*
X54610000Y17780000D01*
X51790000Y20600000D02*
X53340000Y20600000D01*
X54610000Y20320000D02*
X54610000Y17780000D01*
X53340000Y17500000D02*
X51790000Y17500000D01*
X51790000Y17500000D02*
X51790000Y20600000D01*
X76835000Y53975000D02*
X18415000Y53975000D01*
X76835000Y48895000D02*
X20955000Y48895000D01*
X76835000Y53975000D02*
X76835000Y48895000D01*
X18415000Y53975000D02*
X18415000Y51435000D01*
X18135000Y50165000D02*
X18135000Y48615000D01*
X18415000Y51435000D02*
X20955000Y51435000D01*
X20955000Y51435000D02*
X20955000Y48895000D01*
X18135000Y48615000D02*
X19685000Y48615000D01*
X76835000Y5715000D02*
X18415000Y5715000D01*
X76835000Y635000D02*
X20955000Y635000D01*
X76835000Y5715000D02*
X76835000Y635000D01*
X18415000Y5715000D02*
X18415000Y3175000D01*
X18135000Y1905000D02*
X18135000Y355000D01*
X18415000Y3175000D02*
X20955000Y3175000D01*
X20955000Y3175000D02*
X20955000Y635000D01*
X18135000Y355000D02*
X19685000Y355000D01*
X37846000Y45466000D02*
X30226000Y45466000D01*
X37846000Y42926000D02*
X30226000Y42926000D01*
X40666000Y42646000D02*
X39116000Y42646000D01*
X30226000Y45466000D02*
X30226000Y42926000D01*
X37846000Y42926000D02*
X37846000Y45466000D01*
X39116000Y45746000D02*
X40666000Y45746000D01*
X40666000Y45746000D02*
X40666000Y42646000D01*
X15240000Y3175000D02*
X15240000Y635000D01*
X15520000Y5995000D02*
X15520000Y4445000D01*
X15240000Y3175000D02*
X12700000Y3175000D01*
X12420000Y4445000D02*
X12420000Y5995000D01*
X12420000Y5995000D02*
X15520000Y5995000D01*
X12700000Y3175000D02*
X12700000Y635000D01*
X12700000Y635000D02*
X15240000Y635000D01*
X62230000Y8890000D02*
X46990000Y8890000D01*
X46990000Y8890000D02*
X46990000Y11430000D01*
X46990000Y11430000D02*
X62230000Y11430000D01*
X65050000Y8610000D02*
X63500000Y8610000D01*
X62230000Y8890000D02*
X62230000Y11430000D01*
X63500000Y11710000D02*
X65050000Y11710000D01*
X65050000Y11710000D02*
X65050000Y8610000D01*
X64770000Y38100000D02*
X64770000Y40640000D01*
X64490000Y35280000D02*
X64490000Y36830000D01*
X64770000Y38100000D02*
X67310000Y38100000D01*
X67590000Y36830000D02*
X67590000Y35280000D01*
X67590000Y35280000D02*
X64490000Y35280000D01*
X67310000Y38100000D02*
X67310000Y40640000D01*
X67310000Y40640000D02*
X64770000Y40640000D01*
X60960000Y38100000D02*
X60960000Y40640000D01*
X60680000Y35280000D02*
X60680000Y36830000D01*
X60960000Y38100000D02*
X63500000Y38100000D01*
X63780000Y36830000D02*
X63780000Y35280000D01*
X63780000Y35280000D02*
X60680000Y35280000D01*
X63500000Y38100000D02*
X63500000Y40640000D01*
X63500000Y40640000D02*
X60960000Y40640000D01*
X64770000Y45720000D02*
X69850000Y45720000D01*
X69850000Y45720000D02*
X69850000Y43180000D01*
X69850000Y43180000D02*
X64770000Y43180000D01*
X64770000Y43180000D02*
X64770000Y45720000D01*
X64770000Y44450000D02*
X63500000Y44450000D01*
X69850000Y44450000D02*
X71120000Y44450000D01*
X43180000Y41910000D02*
X44450000Y41910000D01*
X44450000Y41910000D02*
X44450000Y39370000D01*
X44450000Y39370000D02*
X43180000Y39370000D01*
X43180000Y43180000D02*
X53340000Y43180000D01*
X53340000Y43180000D02*
X53340000Y38100000D01*
X53340000Y38100000D02*
X43180000Y38100000D01*
X43180000Y38100000D02*
X43180000Y43180000D01*
X59170000Y43200000D02*
X55170000Y43200000D01*
X59170000Y45700000D02*
X55170000Y45700000D01*
X59170000Y35580000D02*
X55170000Y35580000D01*
X59170000Y38080000D02*
X55170000Y38080000D01*
X24130000Y11710000D02*
X25680000Y11710000D01*
X25680000Y11710000D02*
X25680000Y8610000D01*
X25680000Y8610000D02*
X24130000Y8610000D01*
X22860000Y8890000D02*
X12700000Y8890000D01*
X12700000Y8890000D02*
X12700000Y11430000D01*
X12700000Y11430000D02*
X22860000Y11430000D01*
X22860000Y8890000D02*
X22860000Y11430000D01*
X41275000Y11710000D02*
X42825000Y11710000D01*
X42825000Y11710000D02*
X42825000Y8610000D01*
X42825000Y8610000D02*
X41275000Y8610000D01*
X40005000Y8890000D02*
X29845000Y8890000D01*
X29845000Y8890000D02*
X29845000Y11430000D01*
X29845000Y11430000D02*
X40005000Y11430000D01*
X40005000Y8890000D02*
X40005000Y11430000D01*
X69596000Y28067000D02*
G75*
G03X69596000Y28067000I-2286000J0D01*
G01*
X47498000Y30734000D02*
G75*
G03X47498000Y30734000I-2286000J0D01*
G01*
X7366000Y48895000D02*
X7366000Y43815000D01*
X7366000Y43815000D02*
X9906000Y43815000D01*
X9906000Y43815000D02*
X9906000Y48895000D01*
X10186000Y51715000D02*
X10186000Y50165000D01*
X9906000Y48895000D02*
X7366000Y48895000D01*
X7086000Y50165000D02*
X7086000Y51715000D01*
X7086000Y51715000D02*
X10186000Y51715000D01*
X1651000Y16383000D02*
X1651000Y11303000D01*
X1651000Y11303000D02*
X4191000Y11303000D01*
X4191000Y11303000D02*
X4191000Y16383000D01*
X4471000Y19203000D02*
X4471000Y17653000D01*
X4191000Y16383000D02*
X1651000Y16383000D01*
X1371000Y17653000D02*
X1371000Y19203000D01*
X1371000Y19203000D02*
X4471000Y19203000D01*
X77470000Y48260000D02*
X77470000Y43180000D01*
X77470000Y43180000D02*
X80010000Y43180000D01*
X80010000Y43180000D02*
X80010000Y48260000D01*
X80290000Y51080000D02*
X80290000Y49530000D01*
X80010000Y48260000D02*
X77470000Y48260000D01*
X77190000Y49530000D02*
X77190000Y51080000D01*
X77190000Y51080000D02*
X80290000Y51080000D01*
X78001905Y6151619D02*
X78001905Y7151619D01*
X78382858Y7151619D01*
X78478096Y7104000D01*
X78525715Y7056381D01*
X78573334Y6961143D01*
X78573334Y6818286D01*
X78525715Y6723048D01*
X78478096Y6675429D01*
X78382858Y6627810D01*
X78001905Y6627810D01*
X79525715Y6151619D02*
X78954286Y6151619D01*
X79240000Y6151619D02*
X79240000Y7151619D01*
X79144762Y7008762D01*
X79049524Y6913524D01*
X78954286Y6865905D01*
X81938905Y6151619D02*
X81938905Y7151619D01*
X82319858Y7151619D01*
X82415096Y7104000D01*
X82462715Y7056381D01*
X82510334Y6961143D01*
X82510334Y6818286D01*
X82462715Y6723048D01*
X82415096Y6675429D01*
X82319858Y6627810D01*
X81938905Y6627810D01*
X82891286Y7056381D02*
X82938905Y7104000D01*
X83034143Y7151619D01*
X83272239Y7151619D01*
X83367477Y7104000D01*
X83415096Y7056381D01*
X83462715Y6961143D01*
X83462715Y6865905D01*
X83415096Y6723048D01*
X82843667Y6151619D01*
X83462715Y6151619D01*
X68603905Y12247619D02*
X68603905Y13247619D01*
X68984858Y13247619D01*
X69080096Y13200000D01*
X69127715Y13152381D01*
X69175334Y13057143D01*
X69175334Y12914286D01*
X69127715Y12819048D01*
X69080096Y12771429D01*
X68984858Y12723810D01*
X68603905Y12723810D01*
X69508667Y13247619D02*
X70127715Y13247619D01*
X69794381Y12866667D01*
X69937239Y12866667D01*
X70032477Y12819048D01*
X70080096Y12771429D01*
X70127715Y12676190D01*
X70127715Y12438095D01*
X70080096Y12342857D01*
X70032477Y12295238D01*
X69937239Y12247619D01*
X69651524Y12247619D01*
X69556286Y12295238D01*
X69508667Y12342857D01*
X19502381Y43711905D02*
X18502381Y43711905D01*
X18502381Y44092858D01*
X18550000Y44188096D01*
X18597619Y44235715D01*
X18692857Y44283334D01*
X18835714Y44283334D01*
X18930952Y44235715D01*
X18978571Y44188096D01*
X19026190Y44092858D01*
X19026190Y43711905D01*
X18835714Y45140477D02*
X19502381Y45140477D01*
X18454762Y44902381D02*
X19169048Y44664286D01*
X19169048Y45283334D01*
X20137381Y18311905D02*
X19137381Y18311905D01*
X19137381Y18692858D01*
X19185000Y18788096D01*
X19232619Y18835715D01*
X19327857Y18883334D01*
X19470714Y18883334D01*
X19565952Y18835715D01*
X19613571Y18788096D01*
X19661190Y18692858D01*
X19661190Y18311905D01*
X19137381Y19788096D02*
X19137381Y19311905D01*
X19613571Y19264286D01*
X19565952Y19311905D01*
X19518333Y19407143D01*
X19518333Y19645239D01*
X19565952Y19740477D01*
X19613571Y19788096D01*
X19708810Y19835715D01*
X19946905Y19835715D01*
X20042143Y19788096D01*
X20089762Y19740477D01*
X20137381Y19645239D01*
X20137381Y19407143D01*
X20089762Y19311905D01*
X20042143Y19264286D01*
X50617381Y18311905D02*
X49617381Y18311905D01*
X49617381Y18692858D01*
X49665000Y18788096D01*
X49712619Y18835715D01*
X49807857Y18883334D01*
X49950714Y18883334D01*
X50045952Y18835715D01*
X50093571Y18788096D01*
X50141190Y18692858D01*
X50141190Y18311905D01*
X49617381Y19740477D02*
X49617381Y19550000D01*
X49665000Y19454762D01*
X49712619Y19407143D01*
X49855476Y19311905D01*
X50045952Y19264286D01*
X50426905Y19264286D01*
X50522143Y19311905D01*
X50569762Y19359524D01*
X50617381Y19454762D01*
X50617381Y19645239D01*
X50569762Y19740477D01*
X50522143Y19788096D01*
X50426905Y19835715D01*
X50188810Y19835715D01*
X50093571Y19788096D01*
X50045952Y19740477D01*
X49998333Y19645239D01*
X49998333Y19454762D01*
X50045952Y19359524D01*
X50093571Y19311905D01*
X50188810Y19264286D01*
X17597381Y50696905D02*
X16597381Y50696905D01*
X16597381Y51077858D01*
X16645000Y51173096D01*
X16692619Y51220715D01*
X16787857Y51268334D01*
X16930714Y51268334D01*
X17025952Y51220715D01*
X17073571Y51173096D01*
X17121190Y51077858D01*
X17121190Y50696905D01*
X17025952Y51839762D02*
X16978333Y51744524D01*
X16930714Y51696905D01*
X16835476Y51649286D01*
X16787857Y51649286D01*
X16692619Y51696905D01*
X16645000Y51744524D01*
X16597381Y51839762D01*
X16597381Y52030239D01*
X16645000Y52125477D01*
X16692619Y52173096D01*
X16787857Y52220715D01*
X16835476Y52220715D01*
X16930714Y52173096D01*
X16978333Y52125477D01*
X17025952Y52030239D01*
X17025952Y51839762D01*
X17073571Y51744524D01*
X17121190Y51696905D01*
X17216429Y51649286D01*
X17406905Y51649286D01*
X17502143Y51696905D01*
X17549762Y51744524D01*
X17597381Y51839762D01*
X17597381Y52030239D01*
X17549762Y52125477D01*
X17502143Y52173096D01*
X17406905Y52220715D01*
X17216429Y52220715D01*
X17121190Y52173096D01*
X17073571Y52125477D01*
X17025952Y52030239D01*
X17597381Y2436905D02*
X16597381Y2436905D01*
X16597381Y2817858D01*
X16645000Y2913096D01*
X16692619Y2960715D01*
X16787857Y3008334D01*
X16930714Y3008334D01*
X17025952Y2960715D01*
X17073571Y2913096D01*
X17121190Y2817858D01*
X17121190Y2436905D01*
X17597381Y3484524D02*
X17597381Y3675000D01*
X17549762Y3770239D01*
X17502143Y3817858D01*
X17359286Y3913096D01*
X17168810Y3960715D01*
X16787857Y3960715D01*
X16692619Y3913096D01*
X16645000Y3865477D01*
X16597381Y3770239D01*
X16597381Y3579762D01*
X16645000Y3484524D01*
X16692619Y3436905D01*
X16787857Y3389286D01*
X17025952Y3389286D01*
X17121190Y3436905D01*
X17168810Y3484524D01*
X17216429Y3579762D01*
X17216429Y3770239D01*
X17168810Y3865477D01*
X17121190Y3913096D01*
X17025952Y3960715D01*
X29662381Y43235714D02*
X28662381Y43235714D01*
X28662381Y43616667D01*
X28710000Y43711905D01*
X28757619Y43759524D01*
X28852857Y43807143D01*
X28995714Y43807143D01*
X29090952Y43759524D01*
X29138571Y43711905D01*
X29186190Y43616667D01*
X29186190Y43235714D01*
X29662381Y44759524D02*
X29662381Y44188095D01*
X29662381Y44473809D02*
X28662381Y44473809D01*
X28805238Y44378571D01*
X28900476Y44283333D01*
X28948095Y44188095D01*
X28662381Y45378571D02*
X28662381Y45473810D01*
X28710000Y45569048D01*
X28757619Y45616667D01*
X28852857Y45664286D01*
X29043333Y45711905D01*
X29281429Y45711905D01*
X29471905Y45664286D01*
X29567143Y45616667D01*
X29614762Y45569048D01*
X29662381Y45473810D01*
X29662381Y45378571D01*
X29614762Y45283333D01*
X29567143Y45235714D01*
X29471905Y45188095D01*
X29281429Y45140476D01*
X29043333Y45140476D01*
X28852857Y45188095D01*
X28757619Y45235714D01*
X28710000Y45283333D01*
X28662381Y45378571D01*
X12755714Y6532619D02*
X12755714Y7532619D01*
X13136667Y7532619D01*
X13231905Y7485000D01*
X13279524Y7437381D01*
X13327143Y7342143D01*
X13327143Y7199286D01*
X13279524Y7104048D01*
X13231905Y7056429D01*
X13136667Y7008810D01*
X12755714Y7008810D01*
X14279524Y6532619D02*
X13708095Y6532619D01*
X13993809Y6532619D02*
X13993809Y7532619D01*
X13898571Y7389762D01*
X13803333Y7294524D01*
X13708095Y7246905D01*
X15231905Y6532619D02*
X14660476Y6532619D01*
X14946190Y6532619D02*
X14946190Y7532619D01*
X14850952Y7389762D01*
X14755714Y7294524D01*
X14660476Y7246905D01*
X46172381Y8945714D02*
X45172381Y8945714D01*
X45172381Y9326667D01*
X45220000Y9421905D01*
X45267619Y9469524D01*
X45362857Y9517143D01*
X45505714Y9517143D01*
X45600952Y9469524D01*
X45648571Y9421905D01*
X45696190Y9326667D01*
X45696190Y8945714D01*
X46172381Y10469524D02*
X46172381Y9898095D01*
X46172381Y10183809D02*
X45172381Y10183809D01*
X45315238Y10088571D01*
X45410476Y9993333D01*
X45458095Y9898095D01*
X45267619Y10850476D02*
X45220000Y10898095D01*
X45172381Y10993333D01*
X45172381Y11231429D01*
X45220000Y11326667D01*
X45267619Y11374286D01*
X45362857Y11421905D01*
X45458095Y11421905D01*
X45600952Y11374286D01*
X46172381Y10802857D01*
X46172381Y11421905D01*
X64825714Y41457619D02*
X64825714Y42457619D01*
X65206667Y42457619D01*
X65301905Y42410000D01*
X65349524Y42362381D01*
X65397143Y42267143D01*
X65397143Y42124286D01*
X65349524Y42029048D01*
X65301905Y41981429D01*
X65206667Y41933810D01*
X64825714Y41933810D01*
X66349524Y41457619D02*
X65778095Y41457619D01*
X66063809Y41457619D02*
X66063809Y42457619D01*
X65968571Y42314762D01*
X65873333Y42219524D01*
X65778095Y42171905D01*
X66682857Y42457619D02*
X67301905Y42457619D01*
X66968571Y42076667D01*
X67111429Y42076667D01*
X67206667Y42029048D01*
X67254286Y41981429D01*
X67301905Y41886190D01*
X67301905Y41648095D01*
X67254286Y41552857D01*
X67206667Y41505238D01*
X67111429Y41457619D01*
X66825714Y41457619D01*
X66730476Y41505238D01*
X66682857Y41552857D01*
X61015714Y41457619D02*
X61015714Y42457619D01*
X61396667Y42457619D01*
X61491905Y42410000D01*
X61539524Y42362381D01*
X61587143Y42267143D01*
X61587143Y42124286D01*
X61539524Y42029048D01*
X61491905Y41981429D01*
X61396667Y41933810D01*
X61015714Y41933810D01*
X62539524Y41457619D02*
X61968095Y41457619D01*
X62253809Y41457619D02*
X62253809Y42457619D01*
X62158571Y42314762D01*
X62063333Y42219524D01*
X61968095Y42171905D01*
X63396667Y42124286D02*
X63396667Y41457619D01*
X63158571Y42505238D02*
X62920476Y41790952D01*
X63539524Y41790952D01*
X67143334Y46537619D02*
X66810000Y47013810D01*
X66571905Y46537619D02*
X66571905Y47537619D01*
X66952858Y47537619D01*
X67048096Y47490000D01*
X67095715Y47442381D01*
X67143334Y47347143D01*
X67143334Y47204286D01*
X67095715Y47109048D01*
X67048096Y47061429D01*
X66952858Y47013810D01*
X66571905Y47013810D01*
X68095715Y46537619D02*
X67524286Y46537619D01*
X67810000Y46537619D02*
X67810000Y47537619D01*
X67714762Y47394762D01*
X67619524Y47299524D01*
X67524286Y47251905D01*
X40727381Y39878095D02*
X41536905Y39878095D01*
X41632143Y39925714D01*
X41679762Y39973333D01*
X41727381Y40068571D01*
X41727381Y40259048D01*
X41679762Y40354286D01*
X41632143Y40401905D01*
X41536905Y40449524D01*
X40727381Y40449524D01*
X41727381Y41449524D02*
X41727381Y40878095D01*
X41727381Y41163809D02*
X40727381Y41163809D01*
X40870238Y41068571D01*
X40965476Y40973333D01*
X41013095Y40878095D01*
X57003334Y41592857D02*
X56955715Y41545238D01*
X56812858Y41497619D01*
X56717620Y41497619D01*
X56574762Y41545238D01*
X56479524Y41640476D01*
X56431905Y41735714D01*
X56384286Y41926190D01*
X56384286Y42069048D01*
X56431905Y42259524D01*
X56479524Y42354762D01*
X56574762Y42450000D01*
X56717620Y42497619D01*
X56812858Y42497619D01*
X56955715Y42450000D01*
X57003334Y42402381D01*
X57955715Y41497619D02*
X57384286Y41497619D01*
X57670000Y41497619D02*
X57670000Y42497619D01*
X57574762Y42354762D01*
X57479524Y42259524D01*
X57384286Y42211905D01*
X56983334Y39012857D02*
X56935715Y38965238D01*
X56792858Y38917619D01*
X56697620Y38917619D01*
X56554762Y38965238D01*
X56459524Y39060476D01*
X56411905Y39155714D01*
X56364286Y39346190D01*
X56364286Y39489048D01*
X56411905Y39679524D01*
X56459524Y39774762D01*
X56554762Y39870000D01*
X56697620Y39917619D01*
X56792858Y39917619D01*
X56935715Y39870000D01*
X56983334Y39822381D01*
X57364286Y39822381D02*
X57411905Y39870000D01*
X57507143Y39917619D01*
X57745239Y39917619D01*
X57840477Y39870000D01*
X57888096Y39822381D01*
X57935715Y39727143D01*
X57935715Y39631905D01*
X57888096Y39489048D01*
X57316667Y38917619D01*
X57935715Y38917619D01*
X11882381Y8945714D02*
X10882381Y8945714D01*
X10882381Y9326667D01*
X10930000Y9421905D01*
X10977619Y9469524D01*
X11072857Y9517143D01*
X11215714Y9517143D01*
X11310952Y9469524D01*
X11358571Y9421905D01*
X11406190Y9326667D01*
X11406190Y8945714D01*
X11882381Y10469524D02*
X11882381Y9898095D01*
X11882381Y10183809D02*
X10882381Y10183809D01*
X11025238Y10088571D01*
X11120476Y9993333D01*
X11168095Y9898095D01*
X10882381Y11374286D02*
X10882381Y10898095D01*
X11358571Y10850476D01*
X11310952Y10898095D01*
X11263333Y10993333D01*
X11263333Y11231429D01*
X11310952Y11326667D01*
X11358571Y11374286D01*
X11453810Y11421905D01*
X11691905Y11421905D01*
X11787143Y11374286D01*
X11834762Y11326667D01*
X11882381Y11231429D01*
X11882381Y10993333D01*
X11834762Y10898095D01*
X11787143Y10850476D01*
X29027381Y9421905D02*
X28027381Y9421905D01*
X28027381Y9802858D01*
X28075000Y9898096D01*
X28122619Y9945715D01*
X28217857Y9993334D01*
X28360714Y9993334D01*
X28455952Y9945715D01*
X28503571Y9898096D01*
X28551190Y9802858D01*
X28551190Y9421905D01*
X28027381Y10326667D02*
X28027381Y10993334D01*
X29027381Y10564762D01*
X7421714Y52125619D02*
X7421714Y53125619D01*
X7802667Y53125619D01*
X7897905Y53078000D01*
X7945524Y53030381D01*
X7993143Y52935143D01*
X7993143Y52792286D01*
X7945524Y52697048D01*
X7897905Y52649429D01*
X7802667Y52601810D01*
X7421714Y52601810D01*
X8945524Y52125619D02*
X8374095Y52125619D01*
X8659809Y52125619D02*
X8659809Y53125619D01*
X8564571Y52982762D01*
X8469333Y52887524D01*
X8374095Y52839905D01*
X9802667Y53125619D02*
X9612190Y53125619D01*
X9516952Y53078000D01*
X9469333Y53030381D01*
X9374095Y52887524D01*
X9326476Y52697048D01*
X9326476Y52316095D01*
X9374095Y52220857D01*
X9421714Y52173238D01*
X9516952Y52125619D01*
X9707429Y52125619D01*
X9802667Y52173238D01*
X9850286Y52220857D01*
X9897905Y52316095D01*
X9897905Y52554190D01*
X9850286Y52649429D01*
X9802667Y52697048D01*
X9707429Y52744667D01*
X9516952Y52744667D01*
X9421714Y52697048D01*
X9374095Y52649429D01*
X9326476Y52554190D01*
X1706714Y9580619D02*
X1706714Y10580619D01*
X2087667Y10580619D01*
X2182905Y10533000D01*
X2230524Y10485381D01*
X2278143Y10390143D01*
X2278143Y10247286D01*
X2230524Y10152048D01*
X2182905Y10104429D01*
X2087667Y10056810D01*
X1706714Y10056810D01*
X3230524Y9580619D02*
X2659095Y9580619D01*
X2944809Y9580619D02*
X2944809Y10580619D01*
X2849571Y10437762D01*
X2754333Y10342524D01*
X2659095Y10294905D01*
X3563857Y10580619D02*
X4230524Y10580619D01*
X3801952Y9580619D01*
X76652381Y44505714D02*
X75652381Y44505714D01*
X75652381Y44886667D01*
X75700000Y44981905D01*
X75747619Y45029524D01*
X75842857Y45077143D01*
X75985714Y45077143D01*
X76080952Y45029524D01*
X76128571Y44981905D01*
X76176190Y44886667D01*
X76176190Y44505714D01*
X76652381Y46029524D02*
X76652381Y45458095D01*
X76652381Y45743809D02*
X75652381Y45743809D01*
X75795238Y45648571D01*
X75890476Y45553333D01*
X75938095Y45458095D01*
X76080952Y46600952D02*
X76033333Y46505714D01*
X75985714Y46458095D01*
X75890476Y46410476D01*
X75842857Y46410476D01*
X75747619Y46458095D01*
X75700000Y46505714D01*
X75652381Y46600952D01*
X75652381Y46791429D01*
X75700000Y46886667D01*
X75747619Y46934286D01*
X75842857Y46981905D01*
X75890476Y46981905D01*
X75985714Y46934286D01*
X76033333Y46886667D01*
X76080952Y46791429D01*
X76080952Y46600952D01*
X76128571Y46505714D01*
X76176190Y46458095D01*
X76271429Y46410476D01*
X76461905Y46410476D01*
X76557143Y46458095D01*
X76604762Y46505714D01*
X76652381Y46600952D01*
X76652381Y46791429D01*
X76604762Y46886667D01*
X76557143Y46934286D01*
X76461905Y46981905D01*
X76271429Y46981905D01*
X76176190Y46934286D01*
X76128571Y46886667D01*
X76080952Y46791429D01*
%LPC*%
D14*
X24765000Y30734000D03*
D15*
X78740000Y12700000D03*
D16*
X78740000Y15240000D03*
X78740000Y17780000D03*
X78740000Y20320000D03*
X78740000Y22860000D03*
X78740000Y25400000D03*
X78740000Y27940000D03*
X78740000Y30480000D03*
X78740000Y33020000D03*
X78740000Y35560000D03*
X78740000Y38100000D03*
X78740000Y40640000D03*
D17*
X83820000Y12700000D03*
D18*
X81280000Y12700000D03*
X83820000Y15240000D03*
X81280000Y15240000D03*
X83820000Y17780000D03*
X81280000Y17780000D03*
X83820000Y20320000D03*
X81280000Y20320000D03*
X83820000Y22860000D03*
X81280000Y22860000D03*
X83820000Y25400000D03*
X81280000Y25400000D03*
X83820000Y27940000D03*
X81280000Y27940000D03*
X83820000Y30480000D03*
X81280000Y30480000D03*
X83820000Y33020000D03*
X81280000Y33020000D03*
X83820000Y35560000D03*
X81280000Y35560000D03*
X83820000Y38100000D03*
X81280000Y38100000D03*
X83820000Y40640000D03*
X81280000Y40640000D03*
D19*
X70612000Y10160000D03*
D20*
X68072000Y10160000D03*
D21*
X21336000Y44196000D03*
D22*
X23876000Y44196000D03*
X26416000Y44196000D03*
D21*
X23495000Y19050000D03*
D22*
X26035000Y19050000D03*
X28575000Y19050000D03*
X31115000Y19050000D03*
X33655000Y19050000D03*
X36195000Y19050000D03*
X38735000Y19050000D03*
X41275000Y19050000D03*
X43815000Y19050000D03*
X46355000Y19050000D03*
D21*
X53340000Y19050000D03*
D22*
X55880000Y19050000D03*
X58420000Y19050000D03*
X60960000Y19050000D03*
X63500000Y19050000D03*
X66040000Y19050000D03*
X68580000Y19050000D03*
D17*
X19685000Y50165000D03*
D18*
X19685000Y52705000D03*
X22225000Y50165000D03*
X22225000Y52705000D03*
X24765000Y50165000D03*
X24765000Y52705000D03*
X27305000Y50165000D03*
X27305000Y52705000D03*
X29845000Y50165000D03*
X29845000Y52705000D03*
X32385000Y50165000D03*
X32385000Y52705000D03*
X34925000Y50165000D03*
X34925000Y52705000D03*
X37465000Y50165000D03*
X37465000Y52705000D03*
X40005000Y50165000D03*
X40005000Y52705000D03*
X42545000Y50165000D03*
X42545000Y52705000D03*
X45085000Y50165000D03*
X45085000Y52705000D03*
X47625000Y50165000D03*
X47625000Y52705000D03*
X50165000Y50165000D03*
X50165000Y52705000D03*
X52705000Y50165000D03*
X52705000Y52705000D03*
X55245000Y50165000D03*
X55245000Y52705000D03*
X57785000Y50165000D03*
X57785000Y52705000D03*
X60325000Y50165000D03*
X60325000Y52705000D03*
X62865000Y50165000D03*
X62865000Y52705000D03*
X65405000Y50165000D03*
X65405000Y52705000D03*
X67945000Y50165000D03*
X67945000Y52705000D03*
X70485000Y50165000D03*
X70485000Y52705000D03*
X73025000Y50165000D03*
X73025000Y52705000D03*
X75565000Y50165000D03*
X75565000Y52705000D03*
D17*
X19685000Y1905000D03*
D18*
X19685000Y4445000D03*
X22225000Y1905000D03*
X22225000Y4445000D03*
X24765000Y1905000D03*
X24765000Y4445000D03*
X27305000Y1905000D03*
X27305000Y4445000D03*
X29845000Y1905000D03*
X29845000Y4445000D03*
X32385000Y1905000D03*
X32385000Y4445000D03*
X34925000Y1905000D03*
X34925000Y4445000D03*
X37465000Y1905000D03*
X37465000Y4445000D03*
X40005000Y1905000D03*
X40005000Y4445000D03*
X42545000Y1905000D03*
X42545000Y4445000D03*
X45085000Y1905000D03*
X45085000Y4445000D03*
X47625000Y1905000D03*
X47625000Y4445000D03*
X50165000Y1905000D03*
X50165000Y4445000D03*
X52705000Y1905000D03*
X52705000Y4445000D03*
X55245000Y1905000D03*
X55245000Y4445000D03*
X57785000Y1905000D03*
X57785000Y4445000D03*
X60325000Y1905000D03*
X60325000Y4445000D03*
X62865000Y1905000D03*
X62865000Y4445000D03*
X65405000Y1905000D03*
X65405000Y4445000D03*
X67945000Y1905000D03*
X67945000Y4445000D03*
X70485000Y1905000D03*
X70485000Y4445000D03*
X73025000Y1905000D03*
X73025000Y4445000D03*
X75565000Y1905000D03*
X75565000Y4445000D03*
D21*
X39116000Y44196000D03*
D22*
X36576000Y44196000D03*
X34036000Y44196000D03*
X31496000Y44196000D03*
D19*
X13970000Y4445000D03*
D20*
X13970000Y1905000D03*
D21*
X63500000Y10160000D03*
D22*
X60960000Y10160000D03*
X58420000Y10160000D03*
X55880000Y10160000D03*
X53340000Y10160000D03*
X50800000Y10160000D03*
X48260000Y10160000D03*
D19*
X66040000Y36830000D03*
D20*
X66040000Y39370000D03*
D19*
X62230000Y36830000D03*
D20*
X62230000Y39370000D03*
D23*
X62230000Y44450000D03*
X72390000Y44450000D03*
D24*
X44450000Y36830000D03*
D25*
X46990000Y36830000D03*
X49530000Y36830000D03*
X52070000Y36830000D03*
X52070000Y44450000D03*
X49530000Y44450000D03*
X46990000Y44450000D03*
X44450000Y44450000D03*
D26*
X58420000Y44450000D03*
D27*
X55920000Y44450000D03*
D26*
X58420000Y36830000D03*
D27*
X55920000Y36830000D03*
D21*
X24130000Y10160000D03*
D22*
X21590000Y10160000D03*
X19050000Y10160000D03*
X16510000Y10160000D03*
X13970000Y10160000D03*
D21*
X41275000Y10160000D03*
D22*
X38735000Y10160000D03*
X36195000Y10160000D03*
X33655000Y10160000D03*
X31115000Y10160000D03*
D14*
X67310000Y28067000D03*
X45212000Y30734000D03*
D15*
X8636000Y50165000D03*
D16*
X8636000Y47625000D03*
X8636000Y45085000D03*
D15*
X2921000Y17653000D03*
D16*
X2921000Y15113000D03*
X2921000Y12573000D03*
D15*
X78740000Y49530000D03*
D16*
X78740000Y46990000D03*
X78740000Y44450000D03*
M02*
