M48
;DRILL file {KiCad 0.201601181448+6494~42~ubuntu14.04.1-product} date Mo 18 Jan 2016 21:58:34 CET
;FORMAT={-:-/ absolute / metric / decimal}
FMAT,2
METRIC,TZ
T1C0.305
T2C0.559
T3C0.700
T4C0.800
T5C1.001
T6C1.016
T7C3.400
%
G90
G05
M71
T1
X29.033Y22.997
X59.055Y15.644
X59.057Y20.029
X60.578Y41.881
X61.231Y20.608
X62.766Y47.18
X62.865Y16.853
X63.667Y11.614
X65.691Y32.397
T2
X28.918Y35.422
X53.135Y12.748
T3
X56.947Y44.461
X56.947Y41.961
X56.947Y39.319
X56.947Y36.819
T4
X45.085Y44.45
X45.085Y36.83
X47.625Y44.45
X47.625Y36.83
X50.165Y44.45
X50.165Y36.83
X52.705Y44.45
X52.705Y36.83
T5
X32.385Y36.83
X32.385Y26.67
X34.925Y36.83
X34.925Y26.67
X37.465Y36.83
X37.465Y26.67
X40.005Y36.83
X40.005Y26.67
X52.705Y33.528
X52.705Y23.368
X55.245Y33.528
X55.245Y23.368
X57.785Y33.528
X57.785Y23.368
X60.325Y33.528
X60.325Y23.368
X62.865Y33.528
X62.865Y23.368
T6
X2.921Y15.24
X2.921Y12.7
X2.921Y10.16
X8.636Y49.53
X8.636Y46.99
X8.636Y44.45
X9.525Y13.716
X9.525Y10.16
X12.065Y13.716
X12.065Y10.16
X12.065Y4.445
X12.065Y1.905
X14.605Y13.716
X14.605Y10.16
X17.145Y44.45
X17.145Y13.716
X17.145Y10.16
X19.685Y52.705
X19.685Y50.165
X19.685Y44.45
X19.685Y13.716
X19.685Y10.16
X19.685Y4.445
X19.685Y1.905
X22.225Y52.705
X22.225Y50.165
X22.225Y44.45
X22.225Y4.445
X22.225Y1.905
X24.765Y52.705
X24.765Y50.165
X24.765Y44.45
X24.765Y19.05
X24.765Y10.16
X24.765Y4.445
X24.765Y1.905
X27.305Y52.705
X27.305Y50.165
X27.305Y19.05
X27.305Y10.16
X27.305Y4.445
X27.305Y1.905
X29.845Y52.705
X29.845Y50.165
X29.845Y44.45
X29.845Y19.05
X29.845Y10.16
X29.845Y4.445
X29.845Y1.905
X32.385Y52.705
X32.385Y50.165
X32.385Y44.45
X32.385Y19.05
X32.385Y10.16
X32.385Y4.445
X32.385Y1.905
X34.925Y52.705
X34.925Y50.165
X34.925Y44.45
X34.925Y19.05
X34.925Y4.445
X34.925Y1.905
X37.465Y52.705
X37.465Y50.165
X37.465Y44.45
X37.465Y19.05
X37.465Y10.16
X37.465Y4.445
X37.465Y1.905
X40.005Y52.705
X40.005Y50.165
X40.005Y44.45
X40.005Y19.05
X40.005Y10.16
X40.005Y4.445
X40.005Y1.905
X42.545Y52.705
X42.545Y50.165
X42.545Y19.05
X42.545Y10.16
X42.545Y4.445
X42.545Y1.905
X45.085Y52.705
X45.085Y50.165
X45.085Y19.05
X45.085Y10.16
X45.085Y4.445
X45.085Y1.905
X47.625Y52.705
X47.625Y50.165
X47.625Y19.05
X47.625Y10.16
X47.625Y4.445
X47.625Y1.905
X50.165Y52.705
X50.165Y50.165
X50.165Y4.445
X50.165Y1.905
X52.705Y52.705
X52.705Y50.165
X52.705Y4.445
X52.705Y1.905
X55.245Y52.705
X55.245Y50.165
X55.245Y19.05
X55.245Y10.16
X55.245Y4.445
X55.245Y1.905
X57.785Y52.705
X57.785Y50.165
X57.785Y19.05
X57.785Y10.16
X57.785Y4.445
X57.785Y1.905
X60.325Y52.705
X60.325Y50.165
X60.325Y19.05
X60.325Y10.16
X60.325Y4.445
X60.325Y1.905
X62.865Y52.705
X62.865Y50.165
X62.865Y19.05
X62.865Y10.16
X62.865Y4.445
X62.865Y1.905
X65.38Y44.45
X65.38Y41.91
X65.38Y36.83
X65.405Y52.705
X65.405Y50.165
X65.405Y19.05
X65.405Y10.16
X65.405Y4.445
X65.405Y1.905
X67.92Y44.45
X67.92Y41.91
X67.92Y36.83
X67.945Y52.705
X67.945Y50.165
X67.945Y19.05
X67.945Y10.16
X67.945Y4.445
X67.945Y1.905
X70.46Y44.45
X70.46Y41.91
X70.46Y36.83
X70.485Y52.705
X70.485Y50.165
X70.485Y19.05
X70.485Y10.16
X70.485Y4.445
X70.485Y1.905
X73.025Y52.705
X73.025Y50.165
X73.025Y4.445
X73.025Y1.905
X75.565Y52.705
X75.565Y50.165
X75.565Y4.445
X75.565Y1.905
X78.74Y49.53
X78.74Y46.99
X78.74Y44.45
X78.74Y40.64
X78.74Y38.1
X78.74Y35.56
X78.74Y33.02
X78.74Y30.48
X78.74Y27.94
X78.74Y25.4
X78.74Y22.86
X78.74Y20.32
X78.74Y17.78
X78.74Y15.24
X78.74Y12.7
X81.28Y40.64
X81.28Y38.1
X81.28Y35.56
X81.28Y33.02
X81.28Y30.48
X81.28Y27.94
X81.28Y25.4
X81.28Y22.86
X81.28Y20.32
X81.28Y17.78
X81.28Y15.24
X81.28Y12.7
X83.82Y40.64
X83.82Y38.1
X83.82Y35.56
X83.82Y33.02
X83.82Y30.48
X83.82Y27.94
X83.82Y25.4
X83.82Y22.86
X83.82Y20.32
X83.82Y17.78
X83.82Y15.24
X83.82Y12.7
T7
X26.035Y30.734
X46.482Y30.734
X69.215Y28.067
T0
M30
