G04 #@! TF.FileFunction,Legend,Bot*
%FSLAX46Y46*%
G04 Gerber Fmt 4.6, Leading zero omitted, Abs format (unit mm)*
G04 Created by KiCad (PCBNEW 0.201601051410+6422~40~ubuntu14.04.1-stable) date Mo 18 Jan 2016 21:21:09 CET*
%MOMM*%
G01*
G04 APERTURE LIST*
%ADD10C,0.100000*%
%ADD11C,0.200000*%
%ADD12C,0.300000*%
%ADD13C,0.150000*%
%ADD14C,4.064000*%
%ADD15R,2.032000X1.727200*%
%ADD16O,2.032000X1.727200*%
%ADD17R,1.727200X1.727200*%
%ADD18O,1.727200X1.727200*%
%ADD19R,2.032000X2.032000*%
%ADD20O,2.032000X2.032000*%
%ADD21R,1.727200X2.032000*%
%ADD22O,1.727200X2.032000*%
%ADD23C,1.998980*%
%ADD24R,1.200000X1.200000*%
%ADD25C,1.200000*%
%ADD26O,1.600000X1.600000*%
G04 APERTURE END LIST*
D10*
D11*
X71221600Y17068800D02*
X23977600Y17068800D01*
X71221600Y12039600D02*
X71221600Y17068800D01*
X23977600Y12039600D02*
X71221600Y12039600D01*
X23977600Y17068800D02*
X23977600Y12039600D01*
X44043600Y46329600D02*
X44043600Y48412400D01*
X53441600Y46329600D02*
X44043600Y46329600D01*
X53441600Y48412400D02*
X53441600Y46329600D01*
X44094400Y48412400D02*
X53441600Y48412400D01*
X52315619Y46842419D02*
X52648953Y47318610D01*
X52887048Y46842419D02*
X52887048Y47842419D01*
X52506095Y47842419D01*
X52410857Y47794800D01*
X52363238Y47747181D01*
X52315619Y47651943D01*
X52315619Y47509086D01*
X52363238Y47413848D01*
X52410857Y47366229D01*
X52506095Y47318610D01*
X52887048Y47318610D01*
X51363238Y46842419D02*
X51934667Y46842419D01*
X51648953Y46842419D02*
X51648953Y47842419D01*
X51744191Y47699562D01*
X51839429Y47604324D01*
X51934667Y47556705D01*
X50172762Y47366229D02*
X49410857Y47366229D01*
X49410857Y47080514D02*
X50172762Y47080514D01*
X47648952Y46842419D02*
X48220381Y46842419D01*
X47934667Y46842419D02*
X47934667Y47842419D01*
X48029905Y47699562D01*
X48125143Y47604324D01*
X48220381Y47556705D01*
X47268000Y47747181D02*
X47220381Y47794800D01*
X47125143Y47842419D01*
X46887047Y47842419D01*
X46791809Y47794800D01*
X46744190Y47747181D01*
X46696571Y47651943D01*
X46696571Y47556705D01*
X46744190Y47413848D01*
X47315619Y46842419D01*
X46696571Y46842419D01*
X46077524Y47842419D02*
X45982285Y47842419D01*
X45887047Y47794800D01*
X45839428Y47747181D01*
X45791809Y47651943D01*
X45744190Y47461467D01*
X45744190Y47223371D01*
X45791809Y47032895D01*
X45839428Y46937657D01*
X45887047Y46890038D01*
X45982285Y46842419D01*
X46077524Y46842419D01*
X46172762Y46890038D01*
X46220381Y46937657D01*
X46268000Y47032895D01*
X46315619Y47223371D01*
X46315619Y47461467D01*
X46268000Y47651943D01*
X46220381Y47747181D01*
X46172762Y47794800D01*
X46077524Y47842419D01*
X45363238Y46842419D02*
X45125143Y46842419D01*
X45125143Y47032895D01*
X45220381Y47080514D01*
X45315619Y47175752D01*
X45363238Y47318610D01*
X45363238Y47556705D01*
X45315619Y47699562D01*
X45220381Y47794800D01*
X45077524Y47842419D01*
X44887047Y47842419D01*
X44744190Y47794800D01*
X44648952Y47699562D01*
X44601333Y47556705D01*
X44601333Y47318610D01*
X44648952Y47175752D01*
X44744190Y47080514D01*
X44839428Y47032895D01*
X44839428Y46842419D01*
X44601333Y46842419D01*
X48412400Y24790400D02*
X48412400Y21132800D01*
X23977600Y24790400D02*
X48412400Y24790400D01*
X23977600Y21132800D02*
X23977600Y24790400D01*
X48412400Y21132800D02*
X23977600Y21132800D01*
X47286133Y23258419D02*
X47619467Y23734610D01*
X47857562Y23258419D02*
X47857562Y24258419D01*
X47476609Y24258419D01*
X47381371Y24210800D01*
X47333752Y24163181D01*
X47286133Y24067943D01*
X47286133Y23925086D01*
X47333752Y23829848D01*
X47381371Y23782229D01*
X47476609Y23734610D01*
X47857562Y23734610D01*
X46428990Y24258419D02*
X46619467Y24258419D01*
X46714705Y24210800D01*
X46762324Y24163181D01*
X46857562Y24020324D01*
X46905181Y23829848D01*
X46905181Y23448895D01*
X46857562Y23353657D01*
X46809943Y23306038D01*
X46714705Y23258419D01*
X46524228Y23258419D01*
X46428990Y23306038D01*
X46381371Y23353657D01*
X46333752Y23448895D01*
X46333752Y23686990D01*
X46381371Y23782229D01*
X46428990Y23829848D01*
X46524228Y23877467D01*
X46714705Y23877467D01*
X46809943Y23829848D01*
X46857562Y23782229D01*
X46905181Y23686990D01*
X44333752Y23258419D02*
X44381371Y23258419D01*
X44476609Y23306038D01*
X44619466Y23448895D01*
X44857561Y23734610D01*
X44952800Y23877467D01*
X45000419Y24020324D01*
X45000419Y24115562D01*
X44952800Y24210800D01*
X44857561Y24258419D01*
X44809942Y24258419D01*
X44714704Y24210800D01*
X44667085Y24115562D01*
X44667085Y24067943D01*
X44714704Y23972705D01*
X44762323Y23925086D01*
X45048038Y23734610D01*
X45095657Y23686990D01*
X45143276Y23591752D01*
X45143276Y23448895D01*
X45095657Y23353657D01*
X45048038Y23306038D01*
X44952800Y23258419D01*
X44809942Y23258419D01*
X44714704Y23306038D01*
X44667085Y23353657D01*
X44524228Y23544133D01*
X44476609Y23686990D01*
X44476609Y23782229D01*
X42571847Y23258419D02*
X42905181Y23734610D01*
X43143276Y23258419D02*
X43143276Y24258419D01*
X42762323Y24258419D01*
X42667085Y24210800D01*
X42619466Y24163181D01*
X42571847Y24067943D01*
X42571847Y23925086D01*
X42619466Y23829848D01*
X42667085Y23782229D01*
X42762323Y23734610D01*
X43143276Y23734610D01*
X42000419Y23829848D02*
X42095657Y23877467D01*
X42143276Y23925086D01*
X42190895Y24020324D01*
X42190895Y24067943D01*
X42143276Y24163181D01*
X42095657Y24210800D01*
X42000419Y24258419D01*
X41809942Y24258419D01*
X41714704Y24210800D01*
X41667085Y24163181D01*
X41619466Y24067943D01*
X41619466Y24020324D01*
X41667085Y23925086D01*
X41714704Y23877467D01*
X41809942Y23829848D01*
X42000419Y23829848D01*
X42095657Y23782229D01*
X42143276Y23734610D01*
X42190895Y23639371D01*
X42190895Y23448895D01*
X42143276Y23353657D01*
X42095657Y23306038D01*
X42000419Y23258419D01*
X41809942Y23258419D01*
X41714704Y23306038D01*
X41667085Y23353657D01*
X41619466Y23448895D01*
X41619466Y23639371D01*
X41667085Y23734610D01*
X41714704Y23782229D01*
X41809942Y23829848D01*
X40428990Y23782229D02*
X39667085Y23782229D01*
X39667085Y23496514D02*
X40428990Y23496514D01*
X38476609Y24163181D02*
X38428990Y24210800D01*
X38333752Y24258419D01*
X38095656Y24258419D01*
X38000418Y24210800D01*
X37952799Y24163181D01*
X37905180Y24067943D01*
X37905180Y23972705D01*
X37952799Y23829848D01*
X38524228Y23258419D01*
X37905180Y23258419D01*
X37286133Y24258419D02*
X37190894Y24258419D01*
X37095656Y24210800D01*
X37048037Y24163181D01*
X37000418Y24067943D01*
X36952799Y23877467D01*
X36952799Y23639371D01*
X37000418Y23448895D01*
X37048037Y23353657D01*
X37095656Y23306038D01*
X37190894Y23258419D01*
X37286133Y23258419D01*
X37381371Y23306038D01*
X37428990Y23353657D01*
X37476609Y23448895D01*
X37524228Y23639371D01*
X37524228Y23877467D01*
X37476609Y24067943D01*
X37428990Y24163181D01*
X37381371Y24210800D01*
X37286133Y24258419D01*
X36524228Y23258419D02*
X36524228Y24258419D01*
X36428990Y23639371D02*
X36143275Y23258419D01*
X36143275Y23925086D02*
X36524228Y23544133D01*
X35762323Y23258419D02*
X35524228Y23258419D01*
X35524228Y23448895D01*
X35619466Y23496514D01*
X35714704Y23591752D01*
X35762323Y23734610D01*
X35762323Y23972705D01*
X35714704Y24115562D01*
X35619466Y24210800D01*
X35476609Y24258419D01*
X35286132Y24258419D01*
X35143275Y24210800D01*
X35048037Y24115562D01*
X35000418Y23972705D01*
X35000418Y23734610D01*
X35048037Y23591752D01*
X35143275Y23496514D01*
X35238513Y23448895D01*
X35238513Y23258419D01*
X35000418Y23258419D01*
X47286133Y21658419D02*
X47619467Y22134610D01*
X47857562Y21658419D02*
X47857562Y22658419D01*
X47476609Y22658419D01*
X47381371Y22610800D01*
X47333752Y22563181D01*
X47286133Y22467943D01*
X47286133Y22325086D01*
X47333752Y22229848D01*
X47381371Y22182229D01*
X47476609Y22134610D01*
X47857562Y22134610D01*
X46952800Y22658419D02*
X46286133Y22658419D01*
X46714705Y21658419D01*
X44333752Y21658419D02*
X44381371Y21658419D01*
X44476609Y21706038D01*
X44619466Y21848895D01*
X44857561Y22134610D01*
X44952800Y22277467D01*
X45000419Y22420324D01*
X45000419Y22515562D01*
X44952800Y22610800D01*
X44857561Y22658419D01*
X44809942Y22658419D01*
X44714704Y22610800D01*
X44667085Y22515562D01*
X44667085Y22467943D01*
X44714704Y22372705D01*
X44762323Y22325086D01*
X45048038Y22134610D01*
X45095657Y22086990D01*
X45143276Y21991752D01*
X45143276Y21848895D01*
X45095657Y21753657D01*
X45048038Y21706038D01*
X44952800Y21658419D01*
X44809942Y21658419D01*
X44714704Y21706038D01*
X44667085Y21753657D01*
X44524228Y21944133D01*
X44476609Y22086990D01*
X44476609Y22182229D01*
X42571847Y21658419D02*
X42905181Y22134610D01*
X43143276Y21658419D02*
X43143276Y22658419D01*
X42762323Y22658419D01*
X42667085Y22610800D01*
X42619466Y22563181D01*
X42571847Y22467943D01*
X42571847Y22325086D01*
X42619466Y22229848D01*
X42667085Y22182229D01*
X42762323Y22134610D01*
X43143276Y22134610D01*
X42095657Y21658419D02*
X41905181Y21658419D01*
X41809942Y21706038D01*
X41762323Y21753657D01*
X41667085Y21896514D01*
X41619466Y22086990D01*
X41619466Y22467943D01*
X41667085Y22563181D01*
X41714704Y22610800D01*
X41809942Y22658419D01*
X42000419Y22658419D01*
X42095657Y22610800D01*
X42143276Y22563181D01*
X42190895Y22467943D01*
X42190895Y22229848D01*
X42143276Y22134610D01*
X42095657Y22086990D01*
X42000419Y22039371D01*
X41809942Y22039371D01*
X41714704Y22086990D01*
X41667085Y22134610D01*
X41619466Y22229848D01*
X40428990Y22182229D02*
X39667085Y22182229D01*
X39667085Y21896514D02*
X40428990Y21896514D01*
X37905180Y21658419D02*
X38476609Y21658419D01*
X38190895Y21658419D02*
X38190895Y22658419D01*
X38286133Y22515562D01*
X38381371Y22420324D01*
X38476609Y22372705D01*
X37286133Y22658419D02*
X37190894Y22658419D01*
X37095656Y22610800D01*
X37048037Y22563181D01*
X37000418Y22467943D01*
X36952799Y22277467D01*
X36952799Y22039371D01*
X37000418Y21848895D01*
X37048037Y21753657D01*
X37095656Y21706038D01*
X37190894Y21658419D01*
X37286133Y21658419D01*
X37381371Y21706038D01*
X37428990Y21753657D01*
X37476609Y21848895D01*
X37524228Y22039371D01*
X37524228Y22277467D01*
X37476609Y22467943D01*
X37428990Y22563181D01*
X37381371Y22610800D01*
X37286133Y22658419D01*
X36524228Y21658419D02*
X36524228Y22658419D01*
X36428990Y22039371D02*
X36143275Y21658419D01*
X36143275Y22325086D02*
X36524228Y21944133D01*
X35762323Y21658419D02*
X35524228Y21658419D01*
X35524228Y21848895D01*
X35619466Y21896514D01*
X35714704Y21991752D01*
X35762323Y22134610D01*
X35762323Y22372705D01*
X35714704Y22515562D01*
X35619466Y22610800D01*
X35476609Y22658419D01*
X35286132Y22658419D01*
X35143275Y22610800D01*
X35048037Y22515562D01*
X35000418Y22372705D01*
X35000418Y22134610D01*
X35048037Y21991752D01*
X35143275Y21896514D01*
X35238513Y21848895D01*
X35238513Y21658419D01*
X35000418Y21658419D01*
X31092876Y23258419D02*
X31426210Y23734610D01*
X31664305Y23258419D02*
X31664305Y24258419D01*
X31283352Y24258419D01*
X31188114Y24210800D01*
X31140495Y24163181D01*
X31092876Y24067943D01*
X31092876Y23925086D01*
X31140495Y23829848D01*
X31188114Y23782229D01*
X31283352Y23734610D01*
X31664305Y23734610D01*
X30711924Y24163181D02*
X30664305Y24210800D01*
X30569067Y24258419D01*
X30330971Y24258419D01*
X30235733Y24210800D01*
X30188114Y24163181D01*
X30140495Y24067943D01*
X30140495Y23972705D01*
X30188114Y23829848D01*
X30759543Y23258419D01*
X30140495Y23258419D01*
X28950019Y23782229D02*
X28188114Y23782229D01*
X28188114Y23496514D02*
X28950019Y23496514D01*
X26426209Y23258419D02*
X26997638Y23258419D01*
X26711924Y23258419D02*
X26711924Y24258419D01*
X26807162Y24115562D01*
X26902400Y24020324D01*
X26997638Y23972705D01*
X25997638Y23258419D02*
X25997638Y24258419D01*
X25902400Y23639371D02*
X25616685Y23258419D01*
X25616685Y23925086D02*
X25997638Y23544133D01*
X25235733Y23258419D02*
X24997638Y23258419D01*
X24997638Y23448895D01*
X25092876Y23496514D01*
X25188114Y23591752D01*
X25235733Y23734610D01*
X25235733Y23972705D01*
X25188114Y24115562D01*
X25092876Y24210800D01*
X24950019Y24258419D01*
X24759542Y24258419D01*
X24616685Y24210800D01*
X24521447Y24115562D01*
X24473828Y23972705D01*
X24473828Y23734610D01*
X24521447Y23591752D01*
X24616685Y23496514D01*
X24711923Y23448895D01*
X24711923Y23258419D01*
X24473828Y23258419D01*
X31092876Y21658419D02*
X31426210Y22134610D01*
X31664305Y21658419D02*
X31664305Y22658419D01*
X31283352Y22658419D01*
X31188114Y22610800D01*
X31140495Y22563181D01*
X31092876Y22467943D01*
X31092876Y22325086D01*
X31140495Y22229848D01*
X31188114Y22182229D01*
X31283352Y22134610D01*
X31664305Y22134610D01*
X30759543Y22658419D02*
X30140495Y22658419D01*
X30473829Y22277467D01*
X30330971Y22277467D01*
X30235733Y22229848D01*
X30188114Y22182229D01*
X30140495Y22086990D01*
X30140495Y21848895D01*
X30188114Y21753657D01*
X30235733Y21706038D01*
X30330971Y21658419D01*
X30616686Y21658419D01*
X30711924Y21706038D01*
X30759543Y21753657D01*
X28950019Y22182229D02*
X28188114Y22182229D01*
X28188114Y21896514D02*
X28950019Y21896514D01*
X26997638Y22563181D02*
X26950019Y22610800D01*
X26854781Y22658419D01*
X26616685Y22658419D01*
X26521447Y22610800D01*
X26473828Y22563181D01*
X26426209Y22467943D01*
X26426209Y22372705D01*
X26473828Y22229848D01*
X27045257Y21658419D01*
X26426209Y21658419D01*
X25997638Y21658419D02*
X25997638Y22658419D01*
X25902400Y22039371D02*
X25616685Y21658419D01*
X25616685Y22325086D02*
X25997638Y21944133D01*
X25235733Y21658419D02*
X24997638Y21658419D01*
X24997638Y21848895D01*
X25092876Y21896514D01*
X25188114Y21991752D01*
X25235733Y22134610D01*
X25235733Y22372705D01*
X25188114Y22515562D01*
X25092876Y22610800D01*
X24950019Y22658419D01*
X24759542Y22658419D01*
X24616685Y22610800D01*
X24521447Y22515562D01*
X24473828Y22372705D01*
X24473828Y22134610D01*
X24521447Y21991752D01*
X24616685Y21896514D01*
X24711923Y21848895D01*
X24711923Y21658419D01*
X24473828Y21658419D01*
X53441600Y42468800D02*
X22758400Y42468800D01*
X53441600Y38658800D02*
X53441600Y42468800D01*
X22758400Y38658800D02*
X53441600Y38658800D01*
X22758400Y42468800D02*
X22758400Y38658800D01*
X52276476Y40886019D02*
X52609810Y41362210D01*
X52847905Y40886019D02*
X52847905Y41886019D01*
X52466952Y41886019D01*
X52371714Y41838400D01*
X52324095Y41790781D01*
X52276476Y41695543D01*
X52276476Y41552686D01*
X52324095Y41457448D01*
X52371714Y41409829D01*
X52466952Y41362210D01*
X52847905Y41362210D01*
X51276476Y40981257D02*
X51324095Y40933638D01*
X51466952Y40886019D01*
X51562190Y40886019D01*
X51705048Y40933638D01*
X51800286Y41028876D01*
X51847905Y41124114D01*
X51895524Y41314590D01*
X51895524Y41457448D01*
X51847905Y41647924D01*
X51800286Y41743162D01*
X51705048Y41838400D01*
X51562190Y41886019D01*
X51466952Y41886019D01*
X51324095Y41838400D01*
X51276476Y41790781D01*
X50847905Y40886019D02*
X50847905Y41886019D01*
X50371715Y40886019D02*
X50371715Y41886019D01*
X49800286Y40886019D01*
X49800286Y41886019D01*
X48657429Y41886019D02*
X48038381Y41886019D01*
X48371715Y41505067D01*
X48228857Y41505067D01*
X48133619Y41457448D01*
X48086000Y41409829D01*
X48038381Y41314590D01*
X48038381Y41076495D01*
X48086000Y40981257D01*
X48133619Y40933638D01*
X48228857Y40886019D01*
X48514572Y40886019D01*
X48609810Y40933638D01*
X48657429Y40981257D01*
X47609810Y40981257D02*
X47562191Y40933638D01*
X47609810Y40886019D01*
X47657429Y40933638D01*
X47609810Y40981257D01*
X47609810Y40886019D01*
X47228858Y41886019D02*
X46609810Y41886019D01*
X46943144Y41505067D01*
X46800286Y41505067D01*
X46705048Y41457448D01*
X46657429Y41409829D01*
X46609810Y41314590D01*
X46609810Y41076495D01*
X46657429Y40981257D01*
X46705048Y40933638D01*
X46800286Y40886019D01*
X47086001Y40886019D01*
X47181239Y40933638D01*
X47228858Y40981257D01*
X46324096Y41886019D02*
X45990763Y40886019D01*
X45657429Y41886019D01*
X44562191Y41266971D02*
X43800286Y41266971D01*
X43990762Y41076495D02*
X43800286Y41266971D01*
X43990762Y41457448D01*
X41990762Y40886019D02*
X42324096Y41362210D01*
X42562191Y40886019D02*
X42562191Y41886019D01*
X42181238Y41886019D01*
X42086000Y41838400D01*
X42038381Y41790781D01*
X41990762Y41695543D01*
X41990762Y41552686D01*
X42038381Y41457448D01*
X42086000Y41409829D01*
X42181238Y41362210D01*
X42562191Y41362210D01*
X41133619Y41552686D02*
X41133619Y40886019D01*
X41371715Y41933638D02*
X41609810Y41219352D01*
X40990762Y41219352D01*
X39847905Y41409829D02*
X39086000Y41409829D01*
X39086000Y41124114D02*
X39847905Y41124114D01*
X37657429Y41886019D02*
X37562190Y41886019D01*
X37466952Y41838400D01*
X37419333Y41790781D01*
X37371714Y41695543D01*
X37324095Y41505067D01*
X37324095Y41266971D01*
X37371714Y41076495D01*
X37419333Y40981257D01*
X37466952Y40933638D01*
X37562190Y40886019D01*
X37657429Y40886019D01*
X37752667Y40933638D01*
X37800286Y40981257D01*
X37847905Y41076495D01*
X37895524Y41266971D01*
X37895524Y41505067D01*
X37847905Y41695543D01*
X37800286Y41790781D01*
X37752667Y41838400D01*
X37657429Y41886019D01*
X36943143Y40886019D02*
X36705048Y40886019D01*
X36705048Y41076495D01*
X36800286Y41124114D01*
X36895524Y41219352D01*
X36943143Y41362210D01*
X36943143Y41600305D01*
X36895524Y41743162D01*
X36800286Y41838400D01*
X36657429Y41886019D01*
X36466952Y41886019D01*
X36324095Y41838400D01*
X36228857Y41743162D01*
X36181238Y41600305D01*
X36181238Y41362210D01*
X36228857Y41219352D01*
X36324095Y41124114D01*
X36419333Y41076495D01*
X36419333Y40886019D01*
X36181238Y40886019D01*
X33657428Y40886019D02*
X33990762Y41362210D01*
X34228857Y40886019D02*
X34228857Y41886019D01*
X33847904Y41886019D01*
X33752666Y41838400D01*
X33705047Y41790781D01*
X33657428Y41695543D01*
X33657428Y41552686D01*
X33705047Y41457448D01*
X33752666Y41409829D01*
X33847904Y41362210D01*
X34228857Y41362210D01*
X32752666Y41886019D02*
X33228857Y41886019D01*
X33276476Y41409829D01*
X33228857Y41457448D01*
X33133619Y41505067D01*
X32895523Y41505067D01*
X32800285Y41457448D01*
X32752666Y41409829D01*
X32705047Y41314590D01*
X32705047Y41076495D01*
X32752666Y40981257D01*
X32800285Y40933638D01*
X32895523Y40886019D01*
X33133619Y40886019D01*
X33228857Y40933638D01*
X33276476Y40981257D01*
X31514571Y41409829D02*
X30752666Y41409829D01*
X30752666Y41124114D02*
X31514571Y41124114D01*
X29514571Y41552686D02*
X29514571Y40886019D01*
X29514571Y41457448D02*
X29466952Y41505067D01*
X29371714Y41552686D01*
X29228856Y41552686D01*
X29133618Y41505067D01*
X29085999Y41409829D01*
X29085999Y40886019D01*
X28466952Y40886019D02*
X28562190Y40933638D01*
X28609809Y40981257D01*
X28657428Y41076495D01*
X28657428Y41362210D01*
X28609809Y41457448D01*
X28562190Y41505067D01*
X28466952Y41552686D01*
X28324094Y41552686D01*
X28228856Y41505067D01*
X28181237Y41457448D01*
X28133618Y41362210D01*
X28133618Y41076495D01*
X28181237Y40981257D01*
X28228856Y40933638D01*
X28324094Y40886019D01*
X28466952Y40886019D01*
X27847904Y41552686D02*
X27466952Y41552686D01*
X27705047Y41886019D02*
X27705047Y41028876D01*
X27657428Y40933638D01*
X27562190Y40886019D01*
X27466952Y40886019D01*
X25943141Y41552686D02*
X25943141Y40886019D01*
X26371713Y41552686D02*
X26371713Y41028876D01*
X26324094Y40933638D01*
X26228856Y40886019D01*
X26085998Y40886019D01*
X25990760Y40933638D01*
X25943141Y40981257D01*
X25514570Y40933638D02*
X25419332Y40886019D01*
X25228856Y40886019D01*
X25133617Y40933638D01*
X25085998Y41028876D01*
X25085998Y41076495D01*
X25133617Y41171733D01*
X25228856Y41219352D01*
X25371713Y41219352D01*
X25466951Y41266971D01*
X25514570Y41362210D01*
X25514570Y41409829D01*
X25466951Y41505067D01*
X25371713Y41552686D01*
X25228856Y41552686D01*
X25133617Y41505067D01*
X24276474Y40933638D02*
X24371712Y40886019D01*
X24562189Y40886019D01*
X24657427Y40933638D01*
X24705046Y41028876D01*
X24705046Y41409829D01*
X24657427Y41505067D01*
X24562189Y41552686D01*
X24371712Y41552686D01*
X24276474Y41505067D01*
X24228855Y41409829D01*
X24228855Y41314590D01*
X24705046Y41219352D01*
X23371712Y40886019D02*
X23371712Y41886019D01*
X23371712Y40933638D02*
X23466950Y40886019D01*
X23657427Y40886019D01*
X23752665Y40933638D01*
X23800284Y40981257D01*
X23847903Y41076495D01*
X23847903Y41362210D01*
X23800284Y41457448D01*
X23752665Y41505067D01*
X23657427Y41552686D01*
X23466950Y41552686D01*
X23371712Y41505067D01*
X52276476Y39286019D02*
X52609810Y39762210D01*
X52847905Y39286019D02*
X52847905Y40286019D01*
X52466952Y40286019D01*
X52371714Y40238400D01*
X52324095Y40190781D01*
X52276476Y40095543D01*
X52276476Y39952686D01*
X52324095Y39857448D01*
X52371714Y39809829D01*
X52466952Y39762210D01*
X52847905Y39762210D01*
X51276476Y39381257D02*
X51324095Y39333638D01*
X51466952Y39286019D01*
X51562190Y39286019D01*
X51705048Y39333638D01*
X51800286Y39428876D01*
X51847905Y39524114D01*
X51895524Y39714590D01*
X51895524Y39857448D01*
X51847905Y40047924D01*
X51800286Y40143162D01*
X51705048Y40238400D01*
X51562190Y40286019D01*
X51466952Y40286019D01*
X51324095Y40238400D01*
X51276476Y40190781D01*
X50847905Y39286019D02*
X50847905Y40286019D01*
X50371715Y39286019D02*
X50371715Y40286019D01*
X49800286Y39286019D01*
X49800286Y40286019D01*
X48086000Y40286019D02*
X48562191Y40286019D01*
X48609810Y39809829D01*
X48562191Y39857448D01*
X48466953Y39905067D01*
X48228857Y39905067D01*
X48133619Y39857448D01*
X48086000Y39809829D01*
X48038381Y39714590D01*
X48038381Y39476495D01*
X48086000Y39381257D01*
X48133619Y39333638D01*
X48228857Y39286019D01*
X48466953Y39286019D01*
X48562191Y39333638D01*
X48609810Y39381257D01*
X47609810Y39381257D02*
X47562191Y39333638D01*
X47609810Y39286019D01*
X47657429Y39333638D01*
X47609810Y39381257D01*
X47609810Y39286019D01*
X46943144Y40286019D02*
X46847905Y40286019D01*
X46752667Y40238400D01*
X46705048Y40190781D01*
X46657429Y40095543D01*
X46609810Y39905067D01*
X46609810Y39666971D01*
X46657429Y39476495D01*
X46705048Y39381257D01*
X46752667Y39333638D01*
X46847905Y39286019D01*
X46943144Y39286019D01*
X47038382Y39333638D01*
X47086001Y39381257D01*
X47133620Y39476495D01*
X47181239Y39666971D01*
X47181239Y39905067D01*
X47133620Y40095543D01*
X47086001Y40190781D01*
X47038382Y40238400D01*
X46943144Y40286019D01*
X46324096Y40286019D02*
X45990763Y39286019D01*
X45657429Y40286019D01*
X44562191Y39666971D02*
X43800286Y39666971D01*
X43990762Y39476495D02*
X43800286Y39666971D01*
X43990762Y39857448D01*
X41990762Y39286019D02*
X42324096Y39762210D01*
X42562191Y39286019D02*
X42562191Y40286019D01*
X42181238Y40286019D01*
X42086000Y40238400D01*
X42038381Y40190781D01*
X41990762Y40095543D01*
X41990762Y39952686D01*
X42038381Y39857448D01*
X42086000Y39809829D01*
X42181238Y39762210D01*
X42562191Y39762210D01*
X41133619Y39952686D02*
X41133619Y39286019D01*
X41371715Y40333638D02*
X41609810Y39619352D01*
X40990762Y39619352D01*
X39847905Y39809829D02*
X39086000Y39809829D01*
X39086000Y39524114D02*
X39847905Y39524114D01*
X37324095Y39286019D02*
X37895524Y39286019D01*
X37609810Y39286019D02*
X37609810Y40286019D01*
X37705048Y40143162D01*
X37800286Y40047924D01*
X37895524Y40000305D01*
X36895524Y39286019D02*
X36895524Y40286019D01*
X36800286Y39666971D02*
X36514571Y39286019D01*
X36514571Y39952686D02*
X36895524Y39571733D01*
X36133619Y39286019D02*
X35895524Y39286019D01*
X35895524Y39476495D01*
X35990762Y39524114D01*
X36086000Y39619352D01*
X36133619Y39762210D01*
X36133619Y40000305D01*
X36086000Y40143162D01*
X35990762Y40238400D01*
X35847905Y40286019D01*
X35657428Y40286019D01*
X35514571Y40238400D01*
X35419333Y40143162D01*
X35371714Y40000305D01*
X35371714Y39762210D01*
X35419333Y39619352D01*
X35514571Y39524114D01*
X35609809Y39476495D01*
X35609809Y39286019D01*
X35371714Y39286019D01*
X33609809Y39286019D02*
X33943143Y39762210D01*
X34181238Y39286019D02*
X34181238Y40286019D01*
X33800285Y40286019D01*
X33705047Y40238400D01*
X33657428Y40190781D01*
X33609809Y40095543D01*
X33609809Y39952686D01*
X33657428Y39857448D01*
X33705047Y39809829D01*
X33800285Y39762210D01*
X34181238Y39762210D01*
X32705047Y40286019D02*
X33181238Y40286019D01*
X33228857Y39809829D01*
X33181238Y39857448D01*
X33086000Y39905067D01*
X32847904Y39905067D01*
X32752666Y39857448D01*
X32705047Y39809829D01*
X32657428Y39714590D01*
X32657428Y39476495D01*
X32705047Y39381257D01*
X32752666Y39333638D01*
X32847904Y39286019D01*
X33086000Y39286019D01*
X33181238Y39333638D01*
X33228857Y39381257D01*
X31466952Y39809829D02*
X30705047Y39809829D01*
X30705047Y39524114D02*
X31466952Y39524114D01*
X29514571Y40190781D02*
X29466952Y40238400D01*
X29371714Y40286019D01*
X29133618Y40286019D01*
X29038380Y40238400D01*
X28990761Y40190781D01*
X28943142Y40095543D01*
X28943142Y40000305D01*
X28990761Y39857448D01*
X29562190Y39286019D01*
X28943142Y39286019D01*
X28514571Y39286019D02*
X28514571Y40286019D01*
X28419333Y39666971D02*
X28133618Y39286019D01*
X28133618Y39952686D02*
X28514571Y39571733D01*
X27752666Y39286019D02*
X27514571Y39286019D01*
X27514571Y39476495D01*
X27609809Y39524114D01*
X27705047Y39619352D01*
X27752666Y39762210D01*
X27752666Y40000305D01*
X27705047Y40143162D01*
X27609809Y40238400D01*
X27466952Y40286019D01*
X27276475Y40286019D01*
X27133618Y40238400D01*
X27038380Y40143162D01*
X26990761Y40000305D01*
X26990761Y39762210D01*
X27038380Y39619352D01*
X27133618Y39524114D01*
X27228856Y39476495D01*
X27228856Y39286019D01*
X26990761Y39286019D01*
D12*
X67793260Y13799429D02*
X67793260Y15299429D01*
X67150403Y13799429D02*
X67150403Y14585143D01*
X67221832Y14728000D01*
X67364689Y14799429D01*
X67578974Y14799429D01*
X67721832Y14728000D01*
X67793260Y14656571D01*
X66650403Y14799429D02*
X66078974Y14799429D01*
X66436117Y15299429D02*
X66436117Y14013714D01*
X66364689Y13870857D01*
X66221831Y13799429D01*
X66078974Y13799429D01*
X65793260Y14799429D02*
X65221831Y14799429D01*
X65578974Y15299429D02*
X65578974Y14013714D01*
X65507546Y13870857D01*
X65364688Y13799429D01*
X65221831Y13799429D01*
X64721831Y14799429D02*
X64721831Y13299429D01*
X64721831Y14728000D02*
X64578974Y14799429D01*
X64293260Y14799429D01*
X64150403Y14728000D01*
X64078974Y14656571D01*
X64007545Y14513714D01*
X64007545Y14085143D01*
X64078974Y13942286D01*
X64150403Y13870857D01*
X64293260Y13799429D01*
X64578974Y13799429D01*
X64721831Y13870857D01*
X63436117Y13870857D02*
X63293260Y13799429D01*
X63007545Y13799429D01*
X62864688Y13870857D01*
X62793260Y14013714D01*
X62793260Y14085143D01*
X62864688Y14228000D01*
X63007545Y14299429D01*
X63221831Y14299429D01*
X63364688Y14370857D01*
X63436117Y14513714D01*
X63436117Y14585143D01*
X63364688Y14728000D01*
X63221831Y14799429D01*
X63007545Y14799429D01*
X62864688Y14728000D01*
X62150402Y13942286D02*
X62078974Y13870857D01*
X62150402Y13799429D01*
X62221831Y13870857D01*
X62150402Y13942286D01*
X62150402Y13799429D01*
X62150402Y14728000D02*
X62078974Y14656571D01*
X62150402Y14585143D01*
X62221831Y14656571D01*
X62150402Y14728000D01*
X62150402Y14585143D01*
X60364688Y15370857D02*
X61650402Y13442286D01*
X58793259Y15370857D02*
X60078973Y13442286D01*
X57650401Y14799429D02*
X57650401Y13585143D01*
X57721830Y13442286D01*
X57793258Y13370857D01*
X57936115Y13299429D01*
X58150401Y13299429D01*
X58293258Y13370857D01*
X57650401Y13870857D02*
X57793258Y13799429D01*
X58078972Y13799429D01*
X58221830Y13870857D01*
X58293258Y13942286D01*
X58364687Y14085143D01*
X58364687Y14513714D01*
X58293258Y14656571D01*
X58221830Y14728000D01*
X58078972Y14799429D01*
X57793258Y14799429D01*
X57650401Y14728000D01*
X56936115Y13799429D02*
X56936115Y14799429D01*
X56936115Y15299429D02*
X57007544Y15228000D01*
X56936115Y15156571D01*
X56864687Y15228000D01*
X56936115Y15299429D01*
X56936115Y15156571D01*
X56436115Y14799429D02*
X55864686Y14799429D01*
X56221829Y15299429D02*
X56221829Y14013714D01*
X56150401Y13870857D01*
X56007543Y13799429D01*
X55864686Y13799429D01*
X55364686Y13799429D02*
X55364686Y15299429D01*
X54721829Y13799429D02*
X54721829Y14585143D01*
X54793258Y14728000D01*
X54936115Y14799429D01*
X55150400Y14799429D01*
X55293258Y14728000D01*
X55364686Y14656571D01*
X53364686Y14799429D02*
X53364686Y13799429D01*
X54007543Y14799429D02*
X54007543Y14013714D01*
X53936115Y13870857D01*
X53793257Y13799429D01*
X53578972Y13799429D01*
X53436115Y13870857D01*
X53364686Y13942286D01*
X52650400Y13799429D02*
X52650400Y15299429D01*
X52650400Y14728000D02*
X52507543Y14799429D01*
X52221829Y14799429D01*
X52078972Y14728000D01*
X52007543Y14656571D01*
X51936114Y14513714D01*
X51936114Y14085143D01*
X52007543Y13942286D01*
X52078972Y13870857D01*
X52221829Y13799429D01*
X52507543Y13799429D01*
X52650400Y13870857D01*
X51293257Y13942286D02*
X51221829Y13870857D01*
X51293257Y13799429D01*
X51364686Y13870857D01*
X51293257Y13942286D01*
X51293257Y13799429D01*
X49936114Y13870857D02*
X50078971Y13799429D01*
X50364685Y13799429D01*
X50507543Y13870857D01*
X50578971Y13942286D01*
X50650400Y14085143D01*
X50650400Y14513714D01*
X50578971Y14656571D01*
X50507543Y14728000D01*
X50364685Y14799429D01*
X50078971Y14799429D01*
X49936114Y14728000D01*
X49078971Y13799429D02*
X49221829Y13870857D01*
X49293257Y13942286D01*
X49364686Y14085143D01*
X49364686Y14513714D01*
X49293257Y14656571D01*
X49221829Y14728000D01*
X49078971Y14799429D01*
X48864686Y14799429D01*
X48721829Y14728000D01*
X48650400Y14656571D01*
X48578971Y14513714D01*
X48578971Y14085143D01*
X48650400Y13942286D01*
X48721829Y13870857D01*
X48864686Y13799429D01*
X49078971Y13799429D01*
X47936114Y13799429D02*
X47936114Y14799429D01*
X47936114Y14656571D02*
X47864686Y14728000D01*
X47721828Y14799429D01*
X47507543Y14799429D01*
X47364686Y14728000D01*
X47293257Y14585143D01*
X47293257Y13799429D01*
X47293257Y14585143D02*
X47221828Y14728000D01*
X47078971Y14799429D01*
X46864686Y14799429D01*
X46721828Y14728000D01*
X46650400Y14585143D01*
X46650400Y13799429D01*
X44864686Y15370857D02*
X46150400Y13442286D01*
X44364685Y13799429D02*
X44364685Y14799429D01*
X44364685Y14656571D02*
X44293257Y14728000D01*
X44150399Y14799429D01*
X43936114Y14799429D01*
X43793257Y14728000D01*
X43721828Y14585143D01*
X43721828Y13799429D01*
X43721828Y14585143D02*
X43650399Y14728000D01*
X43507542Y14799429D01*
X43293257Y14799429D01*
X43150399Y14728000D01*
X43078971Y14585143D01*
X43078971Y13799429D01*
X42364685Y13799429D02*
X42364685Y14799429D01*
X42364685Y15299429D02*
X42436114Y15228000D01*
X42364685Y15156571D01*
X42293257Y15228000D01*
X42364685Y15299429D01*
X42364685Y15156571D01*
X41650399Y13799429D02*
X41650399Y14799429D01*
X41650399Y14513714D02*
X41578971Y14656571D01*
X41507542Y14728000D01*
X41364685Y14799429D01*
X41221828Y14799429D01*
X40721828Y13799429D02*
X40721828Y15299429D01*
X40578971Y14370857D02*
X40150400Y13799429D01*
X40150400Y14799429D02*
X40721828Y14228000D01*
X39507542Y13799429D02*
X39507542Y14799429D01*
X39507542Y15299429D02*
X39578971Y15228000D01*
X39507542Y15156571D01*
X39436114Y15228000D01*
X39507542Y15299429D01*
X39507542Y15156571D01*
X38936113Y13799429D02*
X38150399Y14799429D01*
X38936113Y14799429D02*
X38150399Y13799429D01*
X36507542Y15370857D02*
X37793256Y13442286D01*
X35507541Y14585143D02*
X35293255Y14513714D01*
X35221827Y14442286D01*
X35150398Y14299429D01*
X35150398Y14085143D01*
X35221827Y13942286D01*
X35293255Y13870857D01*
X35436113Y13799429D01*
X36007541Y13799429D01*
X36007541Y15299429D01*
X35507541Y15299429D01*
X35364684Y15228000D01*
X35293255Y15156571D01*
X35221827Y15013714D01*
X35221827Y14870857D01*
X35293255Y14728000D01*
X35364684Y14656571D01*
X35507541Y14585143D01*
X36007541Y14585143D01*
X34007541Y14585143D02*
X33793255Y14513714D01*
X33721827Y14442286D01*
X33650398Y14299429D01*
X33650398Y14085143D01*
X33721827Y13942286D01*
X33793255Y13870857D01*
X33936113Y13799429D01*
X34507541Y13799429D01*
X34507541Y15299429D01*
X34007541Y15299429D01*
X33864684Y15228000D01*
X33793255Y15156571D01*
X33721827Y15013714D01*
X33721827Y14870857D01*
X33793255Y14728000D01*
X33864684Y14656571D01*
X34007541Y14585143D01*
X34507541Y14585143D01*
X32507541Y14585143D02*
X32293255Y14513714D01*
X32221827Y14442286D01*
X32150398Y14299429D01*
X32150398Y14085143D01*
X32221827Y13942286D01*
X32293255Y13870857D01*
X32436113Y13799429D01*
X33007541Y13799429D01*
X33007541Y15299429D01*
X32507541Y15299429D01*
X32364684Y15228000D01*
X32293255Y15156571D01*
X32221827Y15013714D01*
X32221827Y14870857D01*
X32293255Y14728000D01*
X32364684Y14656571D01*
X32507541Y14585143D01*
X33007541Y14585143D01*
X31507541Y13799429D02*
X31507541Y15299429D01*
X31007541Y14228000D01*
X30507541Y15299429D01*
X30507541Y13799429D01*
X29793255Y13799429D02*
X29793255Y15299429D01*
X29078969Y13799429D02*
X29078969Y15299429D01*
X28221826Y13799429D01*
X28221826Y15299429D01*
X27507540Y13799429D02*
X27507540Y15299429D01*
D13*
X64135000Y25908000D02*
X64135000Y30988000D01*
X64135000Y30988000D02*
X61595000Y30988000D01*
X61595000Y30988000D02*
X61595000Y25908000D01*
X61595000Y25908000D02*
X64135000Y25908000D01*
X62865000Y25908000D02*
X62865000Y24638000D01*
X62865000Y30988000D02*
X62865000Y32258000D01*
X41275000Y29210000D02*
X41275000Y34290000D01*
X41275000Y34290000D02*
X38735000Y34290000D01*
X38735000Y34290000D02*
X38735000Y29210000D01*
X38735000Y29210000D02*
X41275000Y29210000D01*
X40005000Y29210000D02*
X40005000Y27940000D01*
X40005000Y34290000D02*
X40005000Y35560000D01*
X36195000Y34290000D02*
X36195000Y29210000D01*
X36195000Y29210000D02*
X38735000Y29210000D01*
X38735000Y29210000D02*
X38735000Y34290000D01*
X38735000Y34290000D02*
X36195000Y34290000D01*
X37465000Y34290000D02*
X37465000Y35560000D01*
X37465000Y29210000D02*
X37465000Y27940000D01*
X31115000Y34290000D02*
X31115000Y29210000D01*
X31115000Y29210000D02*
X33655000Y29210000D01*
X33655000Y29210000D02*
X33655000Y34290000D01*
X33655000Y34290000D02*
X31115000Y34290000D01*
X32385000Y34290000D02*
X32385000Y35560000D01*
X32385000Y29210000D02*
X32385000Y27940000D01*
X36195000Y29210000D02*
X36195000Y34290000D01*
X36195000Y34290000D02*
X33655000Y34290000D01*
X33655000Y34290000D02*
X33655000Y29210000D01*
X33655000Y29210000D02*
X36195000Y29210000D01*
X34925000Y29210000D02*
X34925000Y27940000D01*
X34925000Y34290000D02*
X34925000Y35560000D01*
X51435000Y30988000D02*
X51435000Y25908000D01*
X51435000Y25908000D02*
X53975000Y25908000D01*
X53975000Y25908000D02*
X53975000Y30988000D01*
X53975000Y30988000D02*
X51435000Y30988000D01*
X52705000Y30988000D02*
X52705000Y32258000D01*
X52705000Y25908000D02*
X52705000Y24638000D01*
X56515000Y25908000D02*
X56515000Y30988000D01*
X56515000Y30988000D02*
X53975000Y30988000D01*
X53975000Y30988000D02*
X53975000Y25908000D01*
X53975000Y25908000D02*
X56515000Y25908000D01*
X55245000Y25908000D02*
X55245000Y24638000D01*
X55245000Y30988000D02*
X55245000Y32258000D01*
X59055000Y25908000D02*
X59055000Y30988000D01*
X59055000Y30988000D02*
X56515000Y30988000D01*
X56515000Y30988000D02*
X56515000Y25908000D01*
X56515000Y25908000D02*
X59055000Y25908000D01*
X57785000Y25908000D02*
X57785000Y24638000D01*
X57785000Y30988000D02*
X57785000Y32258000D01*
X59055000Y30988000D02*
X59055000Y25908000D01*
X59055000Y25908000D02*
X61595000Y25908000D01*
X61595000Y25908000D02*
X61595000Y30988000D01*
X61595000Y30988000D02*
X59055000Y30988000D01*
X60325000Y30988000D02*
X60325000Y32258000D01*
X60325000Y25908000D02*
X60325000Y24638000D01*
X63342781Y28614666D02*
X62866590Y28948000D01*
X63342781Y29186095D02*
X62342781Y29186095D01*
X62342781Y28805142D01*
X62390400Y28709904D01*
X62438019Y28662285D01*
X62533257Y28614666D01*
X62676114Y28614666D01*
X62771352Y28662285D01*
X62818971Y28709904D01*
X62866590Y28805142D01*
X62866590Y29186095D01*
X63342781Y27662285D02*
X63342781Y28233714D01*
X63342781Y27948000D02*
X62342781Y27948000D01*
X62485638Y28043238D01*
X62580876Y28138476D01*
X62628495Y28233714D01*
X40457381Y31916666D02*
X39981190Y32250000D01*
X40457381Y32488095D02*
X39457381Y32488095D01*
X39457381Y32107142D01*
X39505000Y32011904D01*
X39552619Y31964285D01*
X39647857Y31916666D01*
X39790714Y31916666D01*
X39885952Y31964285D01*
X39933571Y32011904D01*
X39981190Y32107142D01*
X39981190Y32488095D01*
X39552619Y31535714D02*
X39505000Y31488095D01*
X39457381Y31392857D01*
X39457381Y31154761D01*
X39505000Y31059523D01*
X39552619Y31011904D01*
X39647857Y30964285D01*
X39743095Y30964285D01*
X39885952Y31011904D01*
X40457381Y31583333D01*
X40457381Y30964285D01*
X37917381Y31916666D02*
X37441190Y32250000D01*
X37917381Y32488095D02*
X36917381Y32488095D01*
X36917381Y32107142D01*
X36965000Y32011904D01*
X37012619Y31964285D01*
X37107857Y31916666D01*
X37250714Y31916666D01*
X37345952Y31964285D01*
X37393571Y32011904D01*
X37441190Y32107142D01*
X37441190Y32488095D01*
X36917381Y31583333D02*
X36917381Y30964285D01*
X37298333Y31297619D01*
X37298333Y31154761D01*
X37345952Y31059523D01*
X37393571Y31011904D01*
X37488810Y30964285D01*
X37726905Y30964285D01*
X37822143Y31011904D01*
X37869762Y31059523D01*
X37917381Y31154761D01*
X37917381Y31440476D01*
X37869762Y31535714D01*
X37822143Y31583333D01*
X32837381Y31916666D02*
X32361190Y32250000D01*
X32837381Y32488095D02*
X31837381Y32488095D01*
X31837381Y32107142D01*
X31885000Y32011904D01*
X31932619Y31964285D01*
X32027857Y31916666D01*
X32170714Y31916666D01*
X32265952Y31964285D01*
X32313571Y32011904D01*
X32361190Y32107142D01*
X32361190Y32488095D01*
X32170714Y31059523D02*
X32837381Y31059523D01*
X31789762Y31297619D02*
X32504048Y31535714D01*
X32504048Y30916666D01*
X35377381Y31916666D02*
X34901190Y32250000D01*
X35377381Y32488095D02*
X34377381Y32488095D01*
X34377381Y32107142D01*
X34425000Y32011904D01*
X34472619Y31964285D01*
X34567857Y31916666D01*
X34710714Y31916666D01*
X34805952Y31964285D01*
X34853571Y32011904D01*
X34901190Y32107142D01*
X34901190Y32488095D01*
X34377381Y31011904D02*
X34377381Y31488095D01*
X34853571Y31535714D01*
X34805952Y31488095D01*
X34758333Y31392857D01*
X34758333Y31154761D01*
X34805952Y31059523D01*
X34853571Y31011904D01*
X34948810Y30964285D01*
X35186905Y30964285D01*
X35282143Y31011904D01*
X35329762Y31059523D01*
X35377381Y31154761D01*
X35377381Y31392857D01*
X35329762Y31488095D01*
X35282143Y31535714D01*
X53157381Y28614666D02*
X52681190Y28948000D01*
X53157381Y29186095D02*
X52157381Y29186095D01*
X52157381Y28805142D01*
X52205000Y28709904D01*
X52252619Y28662285D01*
X52347857Y28614666D01*
X52490714Y28614666D01*
X52585952Y28662285D01*
X52633571Y28709904D01*
X52681190Y28805142D01*
X52681190Y29186095D01*
X52157381Y27757523D02*
X52157381Y27948000D01*
X52205000Y28043238D01*
X52252619Y28090857D01*
X52395476Y28186095D01*
X52585952Y28233714D01*
X52966905Y28233714D01*
X53062143Y28186095D01*
X53109762Y28138476D01*
X53157381Y28043238D01*
X53157381Y27852761D01*
X53109762Y27757523D01*
X53062143Y27709904D01*
X52966905Y27662285D01*
X52728810Y27662285D01*
X52633571Y27709904D01*
X52585952Y27757523D01*
X52538333Y27852761D01*
X52538333Y28043238D01*
X52585952Y28138476D01*
X52633571Y28186095D01*
X52728810Y28233714D01*
X55697381Y28614666D02*
X55221190Y28948000D01*
X55697381Y29186095D02*
X54697381Y29186095D01*
X54697381Y28805142D01*
X54745000Y28709904D01*
X54792619Y28662285D01*
X54887857Y28614666D01*
X55030714Y28614666D01*
X55125952Y28662285D01*
X55173571Y28709904D01*
X55221190Y28805142D01*
X55221190Y29186095D01*
X54697381Y28281333D02*
X54697381Y27614666D01*
X55697381Y28043238D01*
X58237381Y28614666D02*
X57761190Y28948000D01*
X58237381Y29186095D02*
X57237381Y29186095D01*
X57237381Y28805142D01*
X57285000Y28709904D01*
X57332619Y28662285D01*
X57427857Y28614666D01*
X57570714Y28614666D01*
X57665952Y28662285D01*
X57713571Y28709904D01*
X57761190Y28805142D01*
X57761190Y29186095D01*
X57665952Y28043238D02*
X57618333Y28138476D01*
X57570714Y28186095D01*
X57475476Y28233714D01*
X57427857Y28233714D01*
X57332619Y28186095D01*
X57285000Y28138476D01*
X57237381Y28043238D01*
X57237381Y27852761D01*
X57285000Y27757523D01*
X57332619Y27709904D01*
X57427857Y27662285D01*
X57475476Y27662285D01*
X57570714Y27709904D01*
X57618333Y27757523D01*
X57665952Y27852761D01*
X57665952Y28043238D01*
X57713571Y28138476D01*
X57761190Y28186095D01*
X57856429Y28233714D01*
X58046905Y28233714D01*
X58142143Y28186095D01*
X58189762Y28138476D01*
X58237381Y28043238D01*
X58237381Y27852761D01*
X58189762Y27757523D01*
X58142143Y27709904D01*
X58046905Y27662285D01*
X57856429Y27662285D01*
X57761190Y27709904D01*
X57713571Y27757523D01*
X57665952Y27852761D01*
X60777381Y28614666D02*
X60301190Y28948000D01*
X60777381Y29186095D02*
X59777381Y29186095D01*
X59777381Y28805142D01*
X59825000Y28709904D01*
X59872619Y28662285D01*
X59967857Y28614666D01*
X60110714Y28614666D01*
X60205952Y28662285D01*
X60253571Y28709904D01*
X60301190Y28805142D01*
X60301190Y29186095D01*
X60777381Y28138476D02*
X60777381Y27948000D01*
X60729762Y27852761D01*
X60682143Y27805142D01*
X60539286Y27709904D01*
X60348810Y27662285D01*
X59967857Y27662285D01*
X59872619Y27709904D01*
X59825000Y27757523D01*
X59777381Y27852761D01*
X59777381Y28043238D01*
X59825000Y28138476D01*
X59872619Y28186095D01*
X59967857Y28233714D01*
X60205952Y28233714D01*
X60301190Y28186095D01*
X60348810Y28138476D01*
X60396429Y28043238D01*
X60396429Y27852761D01*
X60348810Y27757523D01*
X60301190Y27709904D01*
X60205952Y27662285D01*
%LPC*%
D14*
X26035000Y30734000D03*
D15*
X78740000Y12700000D03*
D16*
X78740000Y15240000D03*
X78740000Y17780000D03*
X78740000Y20320000D03*
X78740000Y22860000D03*
X78740000Y25400000D03*
X78740000Y27940000D03*
X78740000Y30480000D03*
X78740000Y33020000D03*
X78740000Y35560000D03*
X78740000Y38100000D03*
X78740000Y40640000D03*
D17*
X83820000Y12700000D03*
D18*
X81280000Y12700000D03*
X83820000Y15240000D03*
X81280000Y15240000D03*
X83820000Y17780000D03*
X81280000Y17780000D03*
X83820000Y20320000D03*
X81280000Y20320000D03*
X83820000Y22860000D03*
X81280000Y22860000D03*
X83820000Y25400000D03*
X81280000Y25400000D03*
X83820000Y27940000D03*
X81280000Y27940000D03*
X83820000Y30480000D03*
X81280000Y30480000D03*
X83820000Y33020000D03*
X81280000Y33020000D03*
X83820000Y35560000D03*
X81280000Y35560000D03*
X83820000Y38100000D03*
X81280000Y38100000D03*
X83820000Y40640000D03*
X81280000Y40640000D03*
D19*
X70460000Y41910000D03*
D20*
X70460000Y44450000D03*
D21*
X24765000Y19050000D03*
D22*
X27305000Y19050000D03*
X29845000Y19050000D03*
X32385000Y19050000D03*
X34925000Y19050000D03*
X37465000Y19050000D03*
X40005000Y19050000D03*
X42545000Y19050000D03*
X45085000Y19050000D03*
X47625000Y19050000D03*
D21*
X55245000Y19050000D03*
D22*
X57785000Y19050000D03*
X60325000Y19050000D03*
X62865000Y19050000D03*
X65405000Y19050000D03*
X67945000Y19050000D03*
X70485000Y19050000D03*
D17*
X19685000Y50165000D03*
D18*
X19685000Y52705000D03*
X22225000Y50165000D03*
X22225000Y52705000D03*
X24765000Y50165000D03*
X24765000Y52705000D03*
X27305000Y50165000D03*
X27305000Y52705000D03*
X29845000Y50165000D03*
X29845000Y52705000D03*
X32385000Y50165000D03*
X32385000Y52705000D03*
X34925000Y50165000D03*
X34925000Y52705000D03*
X37465000Y50165000D03*
X37465000Y52705000D03*
X40005000Y50165000D03*
X40005000Y52705000D03*
X42545000Y50165000D03*
X42545000Y52705000D03*
X45085000Y50165000D03*
X45085000Y52705000D03*
X47625000Y50165000D03*
X47625000Y52705000D03*
X50165000Y50165000D03*
X50165000Y52705000D03*
X52705000Y50165000D03*
X52705000Y52705000D03*
X55245000Y50165000D03*
X55245000Y52705000D03*
X57785000Y50165000D03*
X57785000Y52705000D03*
X60325000Y50165000D03*
X60325000Y52705000D03*
X62865000Y50165000D03*
X62865000Y52705000D03*
X65405000Y50165000D03*
X65405000Y52705000D03*
X67945000Y50165000D03*
X67945000Y52705000D03*
X70485000Y50165000D03*
X70485000Y52705000D03*
X73025000Y50165000D03*
X73025000Y52705000D03*
X75565000Y50165000D03*
X75565000Y52705000D03*
D17*
X19685000Y1905000D03*
D18*
X19685000Y4445000D03*
X22225000Y1905000D03*
X22225000Y4445000D03*
X24765000Y1905000D03*
X24765000Y4445000D03*
X27305000Y1905000D03*
X27305000Y4445000D03*
X29845000Y1905000D03*
X29845000Y4445000D03*
X32385000Y1905000D03*
X32385000Y4445000D03*
X34925000Y1905000D03*
X34925000Y4445000D03*
X37465000Y1905000D03*
X37465000Y4445000D03*
X40005000Y1905000D03*
X40005000Y4445000D03*
X42545000Y1905000D03*
X42545000Y4445000D03*
X45085000Y1905000D03*
X45085000Y4445000D03*
X47625000Y1905000D03*
X47625000Y4445000D03*
X50165000Y1905000D03*
X50165000Y4445000D03*
X52705000Y1905000D03*
X52705000Y4445000D03*
X55245000Y1905000D03*
X55245000Y4445000D03*
X57785000Y1905000D03*
X57785000Y4445000D03*
X60325000Y1905000D03*
X60325000Y4445000D03*
X62865000Y1905000D03*
X62865000Y4445000D03*
X65405000Y1905000D03*
X65405000Y4445000D03*
X67945000Y1905000D03*
X67945000Y4445000D03*
X70485000Y1905000D03*
X70485000Y4445000D03*
X73025000Y1905000D03*
X73025000Y4445000D03*
X75565000Y1905000D03*
X75565000Y4445000D03*
D19*
X12065000Y4445000D03*
D20*
X12065000Y1905000D03*
D21*
X70485000Y10160000D03*
D22*
X67945000Y10160000D03*
X65405000Y10160000D03*
X62865000Y10160000D03*
X60325000Y10160000D03*
X57785000Y10160000D03*
X55245000Y10160000D03*
D19*
X67920000Y41910000D03*
D20*
X67920000Y44450000D03*
D19*
X65380000Y41910000D03*
D20*
X65380000Y44450000D03*
D23*
X62865000Y23368000D03*
X62865000Y33528000D03*
D24*
X56947000Y39319200D03*
D25*
X56947000Y36819200D03*
D24*
X56947000Y41960800D03*
D25*
X56947000Y44460800D03*
D21*
X19685000Y10160000D03*
D22*
X17145000Y10160000D03*
X14605000Y10160000D03*
X12065000Y10160000D03*
X9525000Y10160000D03*
D21*
X47625000Y10160000D03*
D22*
X45085000Y10160000D03*
X42545000Y10160000D03*
X40005000Y10160000D03*
X37465000Y10160000D03*
D14*
X69215000Y28067000D03*
X46482000Y30734000D03*
D15*
X8636000Y49530000D03*
D16*
X8636000Y46990000D03*
X8636000Y44450000D03*
D15*
X2921000Y15240000D03*
D16*
X2921000Y12700000D03*
X2921000Y10160000D03*
D15*
X78740000Y49530000D03*
D16*
X78740000Y46990000D03*
X78740000Y44450000D03*
D21*
X40005000Y44450000D03*
D22*
X37465000Y44450000D03*
X34925000Y44450000D03*
X32385000Y44450000D03*
X29845000Y44450000D03*
D21*
X32385000Y10160000D03*
D22*
X29845000Y10160000D03*
X27305000Y10160000D03*
X24765000Y10160000D03*
D23*
X40005000Y26670000D03*
X40005000Y36830000D03*
X37465000Y36830000D03*
X37465000Y26670000D03*
X32385000Y36830000D03*
X32385000Y26670000D03*
X34925000Y26670000D03*
X34925000Y36830000D03*
D26*
X45085000Y36830000D03*
X47625000Y36830000D03*
X50165000Y36830000D03*
X52705000Y36830000D03*
X52705000Y44450000D03*
X50165000Y44450000D03*
X47625000Y44450000D03*
X45085000Y44450000D03*
D21*
X24765000Y44450000D03*
D22*
X22225000Y44450000D03*
X19685000Y44450000D03*
X17145000Y44450000D03*
D21*
X19685000Y13716000D03*
D22*
X17145000Y13716000D03*
X14605000Y13716000D03*
X12065000Y13716000D03*
X9525000Y13716000D03*
D21*
X70460000Y36830000D03*
D22*
X67920000Y36830000D03*
X65380000Y36830000D03*
D23*
X52705000Y33528000D03*
X52705000Y23368000D03*
X55245000Y23368000D03*
X55245000Y33528000D03*
X57785000Y23368000D03*
X57785000Y33528000D03*
X60325000Y33528000D03*
X60325000Y23368000D03*
M02*
